<?xml version="1.0" encoding="utf-8"?>
<!-- Generator: Adobe Adobe Illustrator 24.2.0, SVG Export Plug-In . SVG Version: 6.00 Build 0)  -->
<svg version="1.1" id="v04" xmlns="http://www.w3.org/2000/svg" xmlns:xlink="http://www.w3.org/1999/xlink" x="0px" y="0px"
	 width="500px" height="500px" viewBox="0 0 400 400" style="enable-background:new 0 0 400 400;" xml:space="preserve">
<style type="text/css">
	.st0{fill:#E7E7E7;stroke:#D1D1D1;stroke-width:2;stroke-linecap:round;stroke-linejoin:round;stroke-miterlimit:10;}
	.st1{fill:#A8CBE8;stroke:#1893F8;stroke-miterlimit:10;}
	.st2{fill:#C6E1F5;stroke:#1893F8;stroke-width:2;stroke-linecap:round;stroke-linejoin:round;stroke-miterlimit:10;}
	.st3{display:none;}
	.st4{display:inline;fill:#C6E1F5;}
	.st5{display:inline;fill:#2493EF;}
	.st6{display:none;fill:#C6E1F5;}
	.st7{fill:#C6E1F5;stroke:#1893F8;stroke-width:0.9385;stroke-miterlimit:10;}
	.st8{fill:#C6E1F5;stroke:#1893F8;stroke-width:2;stroke-miterlimit:10;}
	.st9{fill:#FFFFFF;}
	.st10{fill:#C6E1F5;}
	.st11{fill:#A8CBE8;}
	.st12{fill:none;stroke:#1893F8;stroke-width:2;stroke-linecap:round;stroke-linejoin:round;stroke-miterlimit:10;}
	.st13{fill:#FFFFFF;stroke:#1893F8;stroke-width:0.8;stroke-linecap:round;stroke-linejoin:round;stroke-miterlimit:10;}
	.st14{fill:#F8DA88;}
	.st15{fill:#FFA8A2;}
	.st16{fill:#2493EF;}
	.st17{fill:#2493EF;stroke:#1893F8;stroke-width:0.3;stroke-miterlimit:10;}
	.st18{display:none;fill:#2493EF;}
	.st19{fill:#FFFFFF;stroke:#1893F8;stroke-width:0.8733;stroke-linecap:round;stroke-linejoin:round;stroke-miterlimit:10;}
	.st20{fill:#F6BF3E;stroke:#1893F8;stroke-width:0.5458;stroke-miterlimit:10;}
	.st21{fill:#1893F8;}
	.st22{display:inline;fill:#FFFFFF;}
	.st23{display:inline;fill:#FFFFFF;stroke:#1893F8;stroke-width:0.4364;stroke-miterlimit:10;}
	
		.st24{display:inline;fill:#E7E7E7;stroke:#8F8888;stroke-width:0.9292;stroke-linecap:round;stroke-linejoin:round;stroke-miterlimit:10;}
	
		.st25{display:inline;fill:#E7E7E7;stroke:#8F8888;stroke-width:0.8643;stroke-linecap:round;stroke-linejoin:round;stroke-miterlimit:10;}
	
		.st26{display:inline;fill:#F8DA88;stroke:#B86F16;stroke-width:0.9386;stroke-linecap:round;stroke-linejoin:round;stroke-miterlimit:10;}
	
		.st27{display:inline;fill:#F8DA88;stroke:#B86F16;stroke-width:0.9292;stroke-linecap:round;stroke-linejoin:round;stroke-miterlimit:10;}
	.st28{display:inline;fill:#E7E7E7;stroke:#8F8888;stroke-linecap:round;stroke-linejoin:round;stroke-miterlimit:10;}
	.st29{display:inline;fill:#F8DA88;stroke:#B86F16;stroke-linecap:round;stroke-linejoin:round;stroke-miterlimit:10;}
	.st30{fill:#2493EF;stroke:#1893F8;stroke-width:0.5;stroke-miterlimit:10;}
	.st31{fill:#F8DA88;stroke:#1893F8;stroke-linecap:round;stroke-linejoin:round;stroke-miterlimit:10;}
	.st32{fill:#F6BF3E;stroke:#1893F8;stroke-width:0.5;stroke-miterlimit:10;}
	.st33{fill:none;stroke:#1893F8;stroke-width:0.7;stroke-miterlimit:10;}
	.st34{display:inline;}
	.st35{fill:#E7E7E7;stroke:#8F8888;stroke-width:0.8603;stroke-linecap:round;stroke-linejoin:round;stroke-miterlimit:10;}
	.st36{fill:#E7E7E7;stroke:#8F8888;stroke-width:0.9633;stroke-miterlimit:10;}
	.st37{fill:#F8DA88;stroke:#B86F16;stroke-width:0.9633;stroke-miterlimit:10;}
	.st38{fill:#E7E7E7;stroke:#8F8888;stroke-width:1.0049;stroke-miterlimit:10;}
	.st39{fill:#F8DA88;stroke:#B86F16;stroke-width:1.0049;stroke-linecap:round;stroke-linejoin:round;stroke-miterlimit:10;}
	.st40{fill:#E7E7E7;stroke:#6762C9;stroke-linecap:round;stroke-linejoin:round;stroke-miterlimit:10;}
	.st41{fill:#E7E7E7;stroke:#8F8888;stroke-width:1.1739;stroke-linecap:round;stroke-linejoin:round;stroke-miterlimit:10;}
	.st42{fill:#F8DA88;stroke:#B86F16;stroke-width:0.9697;stroke-miterlimit:10;}
	.st43{fill:#FFFFFF;stroke:#D1D1D1;stroke-width:2;stroke-linecap:round;stroke-linejoin:round;stroke-miterlimit:10;}
	.st44{display:inline;fill:#FFA8A2;}
	.st45{display:inline;fill:#BE2217;}
</style>
<path id="back_cloud_layer" class="st0" d="M327.3,245.87c7.46-1.38,12.16-10.23,10.09-17.53c-2.07-7.3-9.67-12.26-17.26-12.39
	c-7.59-0.12-14.84,4-19.69,9.84c-3.13-5.58-9.05-9.49-15.4-10.18c-6.36-0.69-12.98,1.86-17.23,6.64
	c-18.21-7.06-40.74-0.66-52.5,14.93c-6.64-1.34-12.98,3.26-17.66,8.17c-4.41,4.63-8.37,10.02-9.67,16.28s0.64,13.52,5.98,17.05
	c2.92,1.93,6.84,2.86,8.43,5.99c2.18,4.3-1.64,9.65-0.09,14.22c1.21,3.55,5.24,5.38,7.03,8.67c1.42,2.62,1.25,5.77,1.81,8.7
	c1.36,7.16,7.71,13.09,14.95,13.94s14.8-3.43,17.79-10.08c7.79-2.9,15.83-5.95,21.78-11.76c5.95-5.81,9.25-15.19,5.59-22.65
	c9.58,2.16,20.01,0.22,28.17-5.25s13.92-14.38,15.56-24.06c5.87,0.92,11.96-4.08,12.19-10.01"/>
<g id="Layer_10">
	<path class="st1" d="M256.89,213.28c-5.14,0.08-10.36,0.17-15.27,1.67c-4.92,1.5-9.58,4.62-11.73,9.29
		c-1.7,3.67-1.69,7.95-0.77,11.88c0.92,3.94,2.7,7.61,4.46,11.26c0.65,1.35,1.33,2.73,2.4,3.77c1.08,1.04,2.66,1.69,4.1,1.26
		c1.96-0.58,2.87-2.81,3.31-4.81c0.94-4.27,0.92-8.7,1.5-13.03c0.58-4.34,1.89-8.78,4.95-11.91c1.45-1.48,3.25-2.61,4.66-4.13
		s2.45-3.65,1.88-5.65"/>
	<path class="st2" d="M257.68,213.27c-8.12-0.26-17.07-0.24-23.27,5.01c-5.8,4.92-7.55,13.42-6.08,20.88
		c0.18,0.92,0.52,1.96,1.39,2.3c1.03,0.4,2.18-0.51,2.51-1.57c0.32-1.06,0.08-2.2-0.05-3.3c-0.53-4.33,0.74-8.86,3.45-12.29
		c2.71-3.43,6.82-5.71,11.16-6.2c1.95-0.22,3.95-0.1,5.82-0.67S256.27,215.35,257.68,213.27z"/>
</g>
<g id="Baby_bird_right">
	<g class="st3">
		<path class="st4" d="M239.94,204.14c-1.36-3.34-6.06-4.76-9.04-2.73c0.44,0.7,0.87,1.4,1.31,2.1c-1.85,0.57-3.71,1.15-5.56,1.72
			c2.69,0.43,5.39,0.87,8.08,1.3c-5.18,0.06-10.28,2.57-13.49,6.65c-0.39,0.5-0.78,1.08-0.75,1.71c0.07,1.46,2.09,1.92,3.49,1.48
			c1.39-0.44,2.78-1.34,4.2-0.99c-4.21,1.1-7.63,3.31-10.76,6.34c-0.42,0.4-1.33,1.09-0.92,1.5c0.23,0.23,0.6,0.22,0.92,0.19
			c4.23-0.39,8.42-1.25,12.46-2.55c-3.93,2.23-7.9,4.48-11.23,7.53s-5.53,7.75-6.24,12.21c4.07-2.21,7.63-5.16,11.7-7.37
			c-2.77,2.36-5.96,4.99-7.26,8.39c-1.3,3.41-0.59,7.65,1.18,10.83c2.82-4.2,6.1-8.28,9.72-11.9c-2.03,3.37-5.18,11.69-5.18,11.69
			s0.45,7.97,3.14,10.84c-0.39-5.06,1.35-10.24,4.72-14.03c-1.49,9.25,1.99,19.16,8.95,25.44c-1.35-4.59-1.51-9.51-0.48-14.18"/>
		<path class="st5" d="M212.79,241.71c2.32-2.44,4.09-3.97,6.5-5.42c-2,2.22-3.13,4.69-3.57,7.21c-0.63,3.62,0.11,7.31,1.54,10.53
			c0.2,0.45,1.04,0.28,1.14-0.23c0.58-2.98,3.49-6.33,6.4-9.24c-1.65,2.97-2.75,5.83-3.04,8.64c-0.41,3.84,0.68,7.56,3.72,11.2
			c0.32,0.38,1.11,0.08,1.09-0.42c-0.22-5.62,0.9-9.54,4.1-14.22c-3.11,10.26,1.16,19.2,8.84,26.41c0.17,0.16,0.47,0.18,0.72,0.05
			c0.25-0.13,0.38-0.38,0.31-0.6c-3.27-10.38-0.73-22.61,2.51-33.84c3.56,3.5,6.44,5.16,12.89,5.46c0.48,0.02,0.87-0.44,0.65-0.78
			c-3.64-5.75-12.64-12.83-17.25-19.76c-2.31-3.46-3.48-6.84-2.5-9.9c0.9-2.81,3.63-5.47,9.29-7.88c0.48-0.61,0.99-1.19,1.69-1.7
			c0.15-0.11,0.3-0.2,0.45-0.29c-0.38,0.18-0.8,0.38-1.31,0.62c-6.69,2.63-10.17,5.75-11.26,9.13c-1.11,3.46,0.22,7.05,2.58,10.6
			c4.49,6.74,12.82,13.5,16.64,18.87c-5.73-0.46-8.06-2.09-11.69-5.81c-0.29-0.3-0.93-0.12-1.05,0.3
			c-3.18,10.81-5.89,22.72-3.4,33.2c-6.63-6.9-9.94-15.15-6.82-24.57c0.04-0.04,0.07-0.08,0.08-0.13c0.06-0.24,0.12-0.47,0.19-0.7
			c0.16-0.42,0.34-0.85,0.52-1.27c0.38-0.74,0.88-1.41,1.52-2.13c0-0.01,0.01-0.01,0.01-0.02c0.02-0.02,0.03-0.04,0.04-0.06
			c0-0.01,0.01-0.02,0.01-0.03c0.01-0.02,0.01-0.04,0.01-0.06c0-0.01,0-0.02,0-0.03c0-0.02-0.01-0.04-0.02-0.06
			c0-0.01-0.01-0.01-0.01-0.02c0,0,0,0,0-0.01c-0.02-0.02-0.04-0.04-0.06-0.05c0,0,0,0,0,0c-0.01,0-0.01,0-0.02-0.01
			c-0.02-0.01-0.05-0.02-0.07-0.02c-0.01,0-0.02,0-0.04,0c-0.02,0-0.05,0-0.07,0c-0.01,0-0.02,0-0.04,0.01
			c-0.03,0.01-0.05,0.02-0.07,0.03c-0.01,0-0.02,0.01-0.03,0.01c0,0,0,0-0.01,0c-0.68,0.41-1.28,0.85-1.8,1.44
			c-0.03,0.01-0.07,0.02-0.1,0.03c-4.64,5.74-6.53,10.15-6.64,16.11c-2.09-3.02-2.79-6.04-2.46-9.17c0.29-2.67,1.34-5.44,2.97-8.36
			c0.02-0.02,0.04-0.04,0.06-0.06c1.19-1.79,1.67-2.87,2.77-4.17c0.01-0.01,0.01-0.02,0.02-0.03c0.01-0.01,0.02-0.03,0.03-0.05
			c0.01-0.02,0.01-0.03,0.01-0.05c0-0.02,0-0.03,0-0.05c0-0.01-0.01-0.03-0.01-0.04c0-0.01,0-0.02-0.01-0.03
			c0,0-0.01-0.01-0.01-0.01c-0.01-0.01-0.02-0.02-0.03-0.03c-0.01-0.01-0.02-0.02-0.04-0.03c0,0-0.01-0.01-0.01-0.01
			c-0.01,0-0.02-0.01-0.04-0.01c-0.02-0.01-0.03-0.01-0.05-0.01c-0.02,0-0.04,0-0.06,0c-0.02,0-0.04,0-0.06,0
			c-0.02,0-0.04,0.01-0.06,0.02c-0.01,0-0.03,0.01-0.04,0.01c-1.45,0.69-2.26,1.54-3.59,2.95c-2.72,2.61-5.7,5.73-7.01,8.88
			c-0.96-2.72-1.38-5.69-0.89-8.55c0.42-2.42,1.49-4.75,3.42-6.83c0.07-0.03,0.14-0.07,0.18-0.13c0.06-0.09,0.11-0.17,0.17-0.24
			c0.7-0.7,1.5-1.37,2.42-2.01c0,0,0-0.01,0-0.01c0.36-0.19,0.76-0.4,1.23-0.66c0,0,0.01-0.01,0.01-0.01
			c0.02-0.01,0.04-0.03,0.06-0.04c0.01-0.01,0.02-0.01,0.02-0.02c0.02-0.03,0.04-0.05,0.05-0.08c0,0,0-0.01,0-0.01
			c0.01-0.02,0.01-0.04,0.01-0.06c0,0,0-0.01,0-0.01c0-0.01,0-0.02-0.01-0.03c0-0.02-0.01-0.04-0.02-0.05c0-0.01,0-0.01-0.01-0.02
			c0,0-0.01-0.01-0.01-0.01c-0.01-0.02-0.03-0.03-0.05-0.04c-0.01-0.01-0.01-0.01-0.02-0.02c-0.03-0.02-0.06-0.03-0.09-0.03
			c0,0-0.01,0-0.01,0c-0.03,0-0.05,0-0.08,0c-0.69,0.09-1.35,0.18-2.05,0.48c-0.29,0.13-0.59,0.29-0.89,0.51
			c-3.48,1.77-5.75,3.41-8.34,6.01c-0.04-4.05,1.6-7.34,4.3-10.23c2.75-2.94,6.61-5.45,10.81-7.8c0.64-0.34,1.27-0.7,2.22-1.23
			c0.01,0,0.01-0.01,0.02-0.01c0.02-0.01,0.03-0.02,0.04-0.03c0.01-0.01,0.02-0.01,0.02-0.02c0.01-0.01,0.02-0.03,0.03-0.04
			c0.01-0.01,0.01-0.02,0.01-0.02c0,0,0-0.01,0.01-0.01c0-0.01,0.01-0.02,0.01-0.03c0-0.01,0.01-0.03,0.01-0.04
			c0-0.01,0-0.02,0-0.04c0-0.01,0-0.03,0-0.04c0-0.01-0.01-0.02-0.01-0.03c0-0.01-0.01-0.02-0.01-0.03c0,0,0,0-0.01-0.01
			c-0.01-0.01-0.02-0.02-0.03-0.03c-0.01-0.01-0.02-0.02-0.03-0.02c-0.01-0.01-0.02-0.01-0.04-0.02c-0.01-0.01-0.02-0.01-0.04-0.01
			c0,0-0.01,0-0.01,0c-0.81-0.17-1.64,0.21-2.45,0.62c-0.26,0.13-0.52,0.26-0.78,0.38c-3.14,1.29-6.3,1.37-9.83,2.03
			c0.71-1.82,1.72-3.13,3.07-4.18c1.52-1.19,3.5-2.08,5.92-3c0,0,0.01-0.01,0.01-0.01c0.5-0.15,1.05-0.32,1.73-0.56
			c0.03-0.01,0.06-0.03,0.09-0.05c0.01-0.01,0.01-0.01,0.02-0.02c0.02-0.02,0.04-0.03,0.05-0.05c0.01-0.01,0.01-0.02,0.02-0.03
			c0.01-0.02,0.02-0.04,0.02-0.06c0-0.01,0.01-0.01,0.01-0.02c0,0,0-0.01,0-0.01c0-0.02,0-0.04,0-0.06c0-0.01,0-0.02,0-0.02
			c0,0,0,0,0,0c-0.01-0.02-0.02-0.05-0.04-0.07c-0.01,0-0.01-0.01-0.02-0.01c-0.02-0.01-0.04-0.03-0.06-0.04
			c-0.01,0-0.02-0.01-0.03-0.01c-0.02-0.01-0.04-0.01-0.06-0.01c-0.01,0-0.01,0-0.02,0c-1.23-0.01-2.18,0.08-3.29,0.4
			c-0.72,0.14-1.3,0.25-1.74,0.27c-0.57,0.02-1.18-0.09-2.07-0.34c1.26-2.45,3.26-4.69,5.7-6.24c2.59-1.65,5.65-2.55,8.91-2.15
			c0.05-0.01,0.09-0.02,0.14-0.04c0.04,0.02,0.09,0.02,0.15,0.01c0.23-0.03,0.44-0.11,0.67-0.17c0.23-0.06,0.47-0.1,0.67-0.09
			c0.01,0,0.02,0,0.03,0c0.01,0,0.01,0,0.02,0c0.03,0,0.07-0.01,0.1-0.02c0,0,0.01,0,0.01,0c0,0,0.01,0,0.01-0.01
			c0.03-0.01,0.06-0.03,0.09-0.05c0,0,0,0,0.01-0.01c0.03-0.02,0.05-0.05,0.06-0.07c0,0,0,0,0-0.01c0,0,0,0,0,0
			c0.01-0.02,0.02-0.04,0.03-0.06c0-0.01,0-0.02,0-0.03c0,0,0-0.01,0-0.01c0-0.03,0-0.06-0.01-0.08c0,0,0-0.01-0.01-0.01
			c-0.01-0.03-0.03-0.05-0.05-0.07c0,0,0,0-0.01,0c-0.02-0.02-0.05-0.03-0.08-0.04c0,0,0,0,0,0c0,0,0,0-0.01,0c0,0,0,0,0,0
			c-1.14-0.36-2.06-0.53-3.23-0.51c-2.09-0.34-4.25-0.6-6.49-0.55c1.57-0.98,2.83-1.17,5.14-1.43c0.47-0.05,0.77-0.52,0.51-0.82
			c-0.54-0.63-1.1-1.26-1.69-1.88c2.16-0.49,3.46-0.43,5.68-0.08l0.68,0.59c0.61,0.99,1.44,1.88,2.39,2.81
			c0.1-0.25,0.19-0.5,0.28-0.76c-0.69-0.91-1.21-1.83-1.69-2.75c-0.15-0.3-0.3-0.6-0.44-0.9c-0.24,0-0.48-0.05-0.69-0.14
			c-0.21-0.09-0.46-0.11-0.73-0.1c0.03,0.07,0.05,0.14,0.08,0.21c-1.32-0.19-2.41-0.28-3.63-0.18c-0.08,0.02-0.15,0.05-0.2,0.06
			c-0.29,0.07-0.59,0.12-0.88,0.17c-0.37,0.06-0.72,0.1-1.08,0.12c-0.3,0.07-0.61,0.14-0.94,0.23c-0.44,0.12-0.64,0.57-0.37,0.83
			c0.58,0.56,1.11,1.15,1.64,1.76c-2.3,0.31-3.97,0.8-6.1,2.51c-0.42,0.34-0.2,0.88,0.35,0.82c1.67-0.17,3.32-0.1,4.95,0.06
			c-1.76,0.41-3.42,1.13-4.91,2.08c-2.84,1.81-5.08,4.41-6.41,7.22c-0.12,0.25,0,0.51,0.28,0.59c1.12,0.33,1.86,0.49,2.61,0.51
			c-1.03,0.51-1.97,1.07-2.81,1.73c-1.72,1.34-3,3.07-3.76,5.45c-0.11,0.35,0.21,0.62,0.63,0.54c2.58-0.55,5.09-0.71,7.63-1.26
			c-2.92,1.82-5.58,3.79-7.68,6.03c-3.12,3.34-4.98,7.31-4.55,12.15C211.8,241.98,212.44,242.07,212.79,241.71z"/>
	</g>
	<path class="st6" d="M265.76,198.76c-4.29-4.45-12.32-4.31-17.79-1.13s-8.87,8.61-11.58,14.01c-3.54,7.06-6.3,14.53-7.1,22.26
		s0.46,15.78,4.53,22.59c4.08,6.81,12.48,9.63,20.82,8.45c7.82-1.1,15.17-8.67,20.35-18.66c1.02-1.97,1.76-11.29,2.18-13.5
		c2.19-11.51,0.4-23.53-7.47-32.7c-2.49-2.9-5.59-5.59-9.49-6.46c-4.85-1.08-10.01,0.93-13.65,4.07c-3.64,3.14-6.04,7.27-8.38,11.32
		"/>
	<path class="st7" d="M284.51,253.11c2.15-0.32,4.39,0.14,6.32,1.27c-1.06,0.77-2.12,1.54-3.18,2.31c3.05-0.6,6.3,0.17,8.88,2.09
		c-0.7,0.23-1.4,0.47-2.11,0.7c3,0.29,5.83,2.29,7.37,5.2c-3.87,1.88-8.28,2.29-12.37,1.15c1.81,0.8,3.7,1.37,5.62,1.7
		c-0.4,1.69-2,2.63-3.51,3.03c-2.62,0.69-5.44,0.32-7.85-1.02c-2.41-1.34-4.39-3.64-5.5-6.4"/>
	<path class="st8" d="M247.06,220.8c-3.74,4.14-6.89,9.26-8.42,15.15c-1.54,5.89-1.34,12.6,1.15,17.97
		c1.88,4.04,4.91,7.11,8.18,9.46c8.49,6.08,19.06,7.65,28.49,4.22c3.27-1.19,6.53-3.07,8.62-6.37c1.92-3.02,2.67-6.92,3-10.73
		c0.75-8.66-0.48-17.72-4.23-25.12c-3.75-7.39-10.18-12.91-17.25-13.71C259,210.8,251.7,215.66,247.06,220.8z"/>
	<ellipse class="st9" cx="258.61" cy="244.8" rx="15.71" ry="19.76"/>
	<g>
		<path class="st10" d="M280.95,224.99c0.18-5.55-4.9-6.35-3.01-6.12c1.86,0.23,3.73,0.09,4.95,0.01c4.76-0.31,8.34-8.1,9.06-14.66
			c0.41-3.8,0.31-12.04-1.63-15.18c-1.65-2.66-3.93-4.54-6.62-5.72c-5.4-2.37-10.66-2.34-15.8,0.66c-5.15,3-11.44,9.51-12.84,15.85
			c-1.41,6.34,0.37,9.66,4.25,15.36"/>
		<path class="st2" d="M258.46,212.93c-2.95-2.22-4.59-5.97-4.6-9.66c-0.01-3.7,1.49-7.31,3.82-10.18c2.33-2.87,5.44-5.04,8.78-6.61
			c-1.24-0.71-2.47-1.42-3.71-2.13c2.36-1.22,5.08-1.72,7.72-1.42c0.08-1.01-0.38-2.05-1.18-2.67c3.09-0.65,6.45,0.06,9.01,1.9
			c-0.21-0.87-0.42-1.76-0.28-2.64s0.7-1.76,1.56-1.98c1.09-0.29,2.21,0.59,2.6,1.65c0.39,1.06,0.25,2.23,0.1,3.34
			c0.85-3,2.87-5.65,5.53-7.27c0.83-0.5,1.74-0.92,2.71-0.94c0.97-0.02,1.99,0.43,2.44,1.29c0.55,1.06,0.09,2.36-0.49,3.41
			c-1.42,2.56-3.55,4.72-6.08,6.17c1-0.13,1.8-0.85,2.69-1.32c0.89-0.46,2.19-0.56,2.73,0.29c0.25,0.4,0.26,0.9,0.2,1.37
			c-0.17,1.28-0.86,2.48-1.86,3.28c3.24,1.92,5.16,5.85,4.69,9.58c-0.88-0.99-2.15-1.61-3.47-1.71c2.03,1.87,3.09,4.75,2.75,7.49
			c-0.76-0.63-1.52-1.26-2.27-1.89c0.24,3.58-0.39,7.21-1.81,10.5c-0.99,2.29-2.41,4.47-4.5,5.84c-2.09,1.36-4.92,1.76-7.09,0.53"/>
	</g>
	<path class="st11" d="M290.73,207.52c-1.68,1.98-3.38,5.46-5.33,7.17c-1.96,1.71-4.21,1.64-6.71,2.33
		c-0.46,0.13-1.06,0.42-0.95,0.89c0.08,0.35,0.54,0.48,0.88,0.38c0.34-0.1,0.62-0.35,0.94-0.52c1.6-0.88,3.59,0.45,5.38,0.11
		c1.24-0.24,2.18-1.24,2.89-2.28C289.27,213.45,290.1,210.87,290.73,207.52z"/>
	<path class="st11" d="M256.21,196.04c-1.42,4.95-0.07,10.44,3.54,14.46c0.39,0.44,0.83,0.89,0.94,1.43
		c0.11,0.55-0.27,1.21-0.91,1.25c-0.51,0.03-0.94-0.33-1.27-0.68c-2.25-2.3-4.15-4.97-4.75-7.95
		C253.16,201.58,254.04,198.27,256.21,196.04z"/>
	<path class="st12" d="M258.46,212.93c-2.95-2.22-4.59-5.97-4.6-9.66c-0.01-3.7,1.49-7.31,3.82-10.18c2.33-2.87,5.44-5.04,8.78-6.61
		c-1.24-0.71-2.47-1.42-3.71-2.13c2.36-1.22,5.08-1.72,7.72-1.42c0.08-1.01-0.38-2.05-1.18-2.67c3.09-0.65,6.45,0.06,9.01,1.9
		c-0.21-0.87-0.42-1.76-0.28-2.64s0.7-1.76,1.56-1.98c1.09-0.29,2.21,0.59,2.6,1.65c0.39,1.06,0.25,2.23,0.1,3.34
		c0.85-3,2.87-5.65,5.53-7.27c0.83-0.5,1.74-0.92,2.71-0.94c0.97-0.02,1.99,0.43,2.44,1.29c0.55,1.06,0.09,2.36-0.49,3.41
		c-1.42,2.56-3.55,4.72-6.08,6.17c1-0.13,1.8-0.85,2.69-1.32c0.89-0.46,2.19-0.56,2.73,0.29c0.25,0.4,0.26,0.9,0.2,1.37
		c-0.17,1.28-0.86,2.48-1.86,3.28c3.24,1.92,5.16,5.85,4.69,9.58c-0.88-0.99-2.15-1.61-3.47-1.71c2.03,1.87,3.09,4.75,2.75,7.49
		c-0.76-0.63-1.52-1.26-2.27-1.89c0.24,3.58-0.39,7.21-1.81,10.5c-0.99,2.29-2.41,4.47-4.5,5.84c-2.09,1.36-4.92,1.76-7.09,0.53"/>
	<path class="st13" d="M260.68,225.78c-0.44-1.44-0.75-2.95-0.93-4.5c-0.07-0.63-0.09-1.37,0.24-1.81c0.42-0.54,1.14-0.2,1.45,0.47
		c0.31,0.67,0.32,1.51,0.32,2.31c0.16-2.11,0.96-4.1,2.17-5.37c0.5-0.53,1.18-0.94,1.74-0.54c0.78,0.55,0.72,2.14,0.51,3.33
		c-0.65,3.63-1.69,7.12-3.07,10.32"/>
</g>
<g id="Mouth">
	<path class="st14" d="M266.61,200.75c0.3-0.36,0.78-0.53,1.25-0.59c0.47-0.06,0.94-0.01,1.41,0c1.65,0.04,3.27-0.37,4.91-0.53
		c0.54-0.06,1.12-0.08,1.6,0.18c0.67,0.36,0.96,1.14,1.24,1.84c0.58,1.49,1.32,2.91,2.2,4.24c0.23,0.34,0.47,0.75,0.32,1.13
		c-0.12,0.32-0.47,0.47-0.79,0.6c-0.8,0.32-1.6,0.64-2.4,0.96c-1.46,0.58-2.95,1.17-4.52,1.21c-0.63,0.01-1.29-0.08-1.78-0.46
		c-0.5-0.39-0.75-1.01-0.98-1.6c-0.46-1.17-0.57-2.5-1.03-3.67c-0.31-0.8-0.84-1.75-1.15-2.55c-0.13-0.33-0.29-0.27-0.19-0.61
		C266.77,200.57,267.12,200.22,266.61,200.75z"/>
	<path class="st15" d="M270.76,202.8c-0.68-0.12-1.36-0.24-2.04-0.37c0.49,0.83,0.88,1.73,1.14,2.67c0.18,0.65,0.3,1.32,0.58,1.94
		c0.28,0.61,0.75,1.18,1.39,1.39c0.78,0.25,1.62-0.07,2.38-0.38c1.04-0.43,2.08-0.87,3.12-1.3c0.06-0.02,0.12-0.06,0.13-0.11
		c0.01-0.06-0.03-0.11-0.07-0.15c-0.3-0.33-0.61-0.65-0.98-0.9c-0.37-0.25-0.81-0.42-1.25-0.38c-0.66,0.05-1.22,0.52-1.86,0.68
		c-0.39,0.09-0.85,0.03-1.09-0.28c-0.22-0.29-0.18-0.69-0.25-1.05c-0.13-0.7-0.26-1.43-0.9-1.75c-0.63-0.32-1.76-0.26-2.46-0.38
		c0.42,1.64,0.92,3.41,1.93,4.78"/>
	<path class="st16" d="M269.41,205.57c0.22,0.68,0.46,1.33,0.75,1.86c0.29,0.54,0.64,0.98,1.12,1.22c0.47,0.24,1.03,0.23,1.63,0.12
		c0.6-0.12,1.24-0.34,1.88-0.61c1.29-0.54,2.6-1.23,3.38-1.47c0.25-0.08,0.14-0.43-0.14-0.43c-0.47,0-0.69-0.18-0.9-0.41
		c-0.11-0.11-0.2-0.24-0.3-0.37c-0.1-0.13-0.21-0.25-0.39-0.34c-0.01-0.01-0.02-0.01-0.03-0.01c-0.72-0.26-1.39-0.13-2.02,0.05
		c-0.56,0.16-1.09,0.36-1.59,0.44c-0.21-0.52-0.46-1.12-0.74-1.67c-0.16-0.31-0.32-0.6-0.48-0.84c-0.17-0.24-0.34-0.44-0.57-0.55
		c-0.31-0.16-0.62-0.13-0.9-0.11c-0.28,0.01-0.54-0.01-0.58-0.03c-0.47-0.24-0.73-0.55-1.1-1.08c-0.17-0.24-0.55-0.1-0.42,0.16
		C268.56,202.65,268.96,204.2,269.41,205.57z M269.33,202.81c0.3,0.15,0.58,0.1,0.86,0.09c0.27-0.01,0.53,0.01,0.62,0.05
		c0.07,0.04,0.21,0.17,0.36,0.38c0.14,0.21,0.3,0.48,0.45,0.77c0.3,0.59,0.58,1.3,0.82,1.85c0.05,0.11,0.17,0.18,0.29,0.17
		c0.66-0.07,1.28-0.33,1.87-0.51c0.59-0.17,1.13-0.26,1.67-0.07c0.03,0.02,0.1,0.08,0.18,0.18c0.09,0.11,0.19,0.25,0.32,0.4
		c0.14,0.15,0.31,0.29,0.54,0.41c-0.8,0.33-1.79,0.83-2.77,1.24c-0.63,0.26-1.25,0.48-1.79,0.59c-0.54,0.1-0.99,0.09-1.27-0.06
		c-0.31-0.16-0.61-0.51-0.88-0.99c-0.27-0.49-0.5-1.11-0.72-1.78c-0.31-0.94-0.6-1.98-0.94-2.94
		C269.05,202.65,269.19,202.73,269.33,202.81z"/>
	<path class="st16" d="M275.68,202.93c0.2-0.04,0.2-0.31,0.07-0.47c-0.04-0.05-0.09-0.09-0.15-0.12c-0.12-0.06-0.27-0.07-0.39,0
		c-0.17,0.1-0.65,0.45-0.63,0.64C274.6,203.14,275.29,203.01,275.68,202.93z"/>
	<path class="st16" d="M272.98,202.35c0.23,0.06,0.17-0.82,0.11-1.33c-0.01-0.12-0.1-0.21-0.22-0.27c-0.13-0.07-0.31-0.09-0.44-0.06
		c-0.26,0.07-0.38,0.32-0.27,0.57C272.26,201.51,272.7,202.28,272.98,202.35z"/>
	<path class="st17" d="M267.97,199.96c-0.34,0-0.65,0.02-0.92,0.08c-0.27,0.07-0.5,0.2-0.62,0.44c-0.11,0.22-0.06,0.47,0.02,0.77
		c0.08,0.3,0.22,0.64,0.37,1c0.3,0.71,0.68,1.49,0.84,1.96c0.27,0.79,0.52,1.95,0.92,3.04c0.37,1,0.87,1.96,1.72,2.49l0,0.01
		l0.22,0.12c0.01,0,0.01,0.01,0.01,0.01c0,0,0,0,0,0c0,0,0,0,0,0c0,0,0.01,0,0.01,0.01l0.22,0.11l0.01-0.01
		c0.97,0.38,2.15,0.12,3.3-0.26c1.24-0.41,2.47-1,3.26-1.23c0.51-0.15,1.06-0.32,1.52-0.52c0.46-0.2,0.85-0.41,1.02-0.74
		c0.12-0.23,0.09-0.5-0.01-0.76c-0.1-0.26-0.27-0.52-0.46-0.79c-0.39-0.55-0.89-1.18-1.22-1.87c-0.36-0.77-0.74-1.72-1.11-2.54
		c-0.18-0.41-0.37-0.78-0.56-1.08s-0.37-0.54-0.63-0.68c-0.27-0.14-0.61-0.16-1.04-0.16c-0.43,0-0.94,0.03-1.49,0.08
		c-1.09,0.1-2.3,0.29-3.15,0.44C269.45,200,268.65,199.95,267.97,199.96z M273.48,199.86c0.53-0.05,1.03-0.08,1.43-0.08
		c0.4,0,0.71,0.06,0.78,0.1c0.07,0.04,0.24,0.21,0.41,0.48c0.17,0.27,0.34,0.63,0.53,1.02c0.36,0.79,0.73,1.75,1.11,2.54
		c0.36,0.77,0.89,1.42,1.26,1.95c0.19,0.26,0.33,0.5,0.41,0.69c0.07,0.19,0.08,0.32,0.02,0.44c-0.09,0.17-0.4,0.38-0.83,0.57
		c-0.43,0.18-0.96,0.35-1.47,0.5c-0.86,0.25-2.07,0.84-3.27,1.24c-1.2,0.4-2.38,0.59-3.11,0.21l-0.02-0.01l-0.02-0.01
		c-0.76-0.38-1.29-1.28-1.67-2.33c-0.38-1.04-0.62-2.2-0.91-3.04c-0.18-0.53-0.56-1.29-0.85-1.99c-0.15-0.35-0.28-0.68-0.35-0.94
		c-0.07-0.26-0.07-0.46-0.05-0.49c0.06-0.12,0.17-0.19,0.37-0.24c0.2-0.05,0.47-0.07,0.8-0.07c0.65-0.01,1.49,0.04,2.32-0.11
		C271.21,200.14,272.41,199.96,273.48,199.86z"/>
	<path class="st18" d="M265.54,193.52c0,0,0,0-0.01-0.01L265.54,193.52L265.54,193.52C265.54,193.52,265.54,193.52,265.54,193.52z"
		/>
</g>
<g id="Baby_bird_right_eyes">
	<g id="Left_eye">
		<g>
			<g>
				<path class="st19" d="M273.1,197.48c1.59-2.46,1.21-5.7-0.87-7.24c-2.08-1.54-5.06-0.8-6.67,1.66
					c-0.68,1.05-0.98,2.24-0.97,3.38C267.73,195.19,270.76,196,273.1,197.48z"/>
			</g>
		</g>
		<g>
			<g>
				<path class="st20" d="M273.52,192.32c-0.31-0.71-0.76-1.34-1.39-1.8c-1.49-1.11-3.45-1.02-5.03,0.02
					c-0.05,0.13-0.1,0.25-0.13,0.39c-0.41,1.78,0.72,3.52,2.53,3.89C271.3,195.18,273.08,194.07,273.52,192.32z"/>
			</g>
		</g>
		
			<ellipse transform="matrix(0.3774 -0.9261 0.9261 0.3774 -8.7861 369.4395)" class="st21" cx="270.35" cy="191.25" rx="2.03" ry="2.33"/>
		
			<ellipse transform="matrix(0.9421 -0.3353 0.3353 0.9421 -48.2888 101.9398)" class="st9" cx="271.11" cy="190.83" rx="0.57" ry="0.61"/>
		
			<ellipse transform="matrix(0.9421 -0.3353 0.3353 0.9421 -48.6593 102.1302)" class="st9" cx="271.48" cy="192" rx="0.29" ry="0.3"/>
	</g>
	<g id="Right_eye">
		<g>
			<g>
				<path class="st19" d="M283.53,202.83c0.59,0.63,1.11,1.29,1.57,1.99c0.01,0,0.01-0.01,0.02-0.01c2.5-1.64,3.5-4.76,2.24-6.96
					c-1.27-2.2-4.32-2.66-6.82-1.02c-1,0.66-1.75,1.56-2.22,2.53C280.17,200.02,281.98,201.17,283.53,202.83z"/>
			</g>
		</g>
		<g>
			<g>
				<path class="st20" d="M287.73,199.12c-0.14-0.75-0.43-1.46-0.94-2.04c-1.2-1.38-3.13-1.68-4.91-0.97
					c-0.08,0.12-0.16,0.23-0.22,0.35c-0.82,1.66-0.12,3.59,1.56,4.31C284.89,201.49,286.9,200.75,287.73,199.12z"/>
			</g>
		</g>
		
			<ellipse transform="matrix(0.6543 -0.7562 0.7562 0.6543 -51.0734 283.5476)" class="st21" cx="284.61" cy="197.64" rx="2.06" ry="2.3"/>
		
			<ellipse transform="matrix(0.3632 -0.9317 0.9317 0.3632 -1.8455 391.3708)" class="st9" cx="285.39" cy="197.04" rx="0.61" ry="0.57"/>
		
			<ellipse transform="matrix(0.3632 -0.9317 0.9317 0.3632 -2.6486 392.3137)" class="st9" cx="285.68" cy="198.09" rx="0.3" ry="0.29"/>
	</g>
</g>
<g id="Baby_bird_left">
	<g id="Bird_left_body" class="st3">
		<path id="Body" class="st4" d="M184.61,235.88c-4.49-7.18-5.68-14.47-4.34-22.57c1.33-8.09,5.04-15.62,11.18-22.5
			c0.81-0.91,2.25-1.51,2.71-2.59c0.46-1.08,17.21-8.59,18.86-6.94c1.49,1.48,3.98,6.63,5.47,8.12c6.39,6.36,6.44,16.04,6.25,24.29
			c-0.11,4.72-1.42,9.37-3.66,13.67c-2.05,3.95-4.78,8.57-9.51,10.68c-4.15,1.85-9.09,1.48-13.73,1.05
			C192.49,238.61,188.41,237.7,184.61,235.88z"/>
		<path class="st22" d="M185.76,218.46c0-11.95,7.55-21.64,16.86-21.64c9.31,0,16.86,9.69,16.86,21.64c0,7.41-1.8,16.06-6.23,19.96
			c-2.71,2.39-7.09,1.68-10.63,1.68c-3.49,0-9.27-0.47-11.96-2.81C186.17,233.41,185.76,225.93,185.76,218.46z"/>
		<path class="st23" d="M204.8,199.48c-1.12-1.34-1.87-2.94-2.16-4.6c-0.07-0.42-0.01-0.99,0.43-1.07c0.36-0.06,0.66,0.27,0.87,0.57
			c0.58,0.83,1.15,1.67,1.73,2.5c0.09-1.59,0.64-3.14,1.59-4.43c0.28-0.38,0.8-0.78,1.22-0.51c0.26,0.17,0.31,0.5,0.33,0.79
			c0.2,3.37-0.59,6.77-2.25,9.72"/>
	</g>
	<g id="Right_foot" class="st3">
		<path class="st24" d="M204.39,235.64c-0.8-0.3-1.64-0.61-2.51-0.53s-1.76,0.66-1.8,1.45c-0.02,0.39,0.17,0.77,0.36,1.11
			c0.72,1.3,1.59,2.52,2.59,3.65c0.39,0.44,0.98,0.91,1.56,0.7c0.55-0.2,0.67-0.84,0.71-1.37"/>
		<path class="st25" d="M210.18,235.94c0.59-0.27,0.98-0.75,1.42-1.17c0.45-0.41,1.07-0.8,1.74-0.74c0.79,0.07,1.26,0.71,1.44,1.31
			c0.29,0.99,0.12,2.05-0.31,3.03c-0.43,0.98-1.1,1.89-1.82,2.76c-0.3,0.37-0.77,0.78-1.29,0.66c-0.31-0.07-0.5-0.31-0.63-0.54
			c-0.4-0.7-0.59-1.48-0.55-2.27"/>
		<path class="st24" d="M206.97,234.4c1.48-0.33,2.1-0.27,2.11-0.16c4.14,0.49,0.84,9.86-2.16,10.59c-1.41-2.1-4.26-9.28-0.46-10.32
			C206.46,234.51,206.84,234.42,206.97,234.4z"/>
		<path class="st26" d="M210.99,238.52c1.05,0.26,2,0.85,2.63,1.65c0.66-0.81,1.21-1.7,1.61-2.64c0.32-0.73,0.55-1.53,0.4-2.31
			s-0.76-1.56-1.63-1.75c-0.83-0.18-1.65,0.18-2.36,0.58c-0.34,0.19-0.7,0.42-0.81,0.77c-0.1,0.32,0.04,0.67,0.14,1
			C211.23,236.69,211.16,237.63,210.99,238.52z"/>
		<path class="st27" d="M204.13,238.28c-0.87-0.09-1.76,0.41-2.05,1.16c-0.61-1.09-1.08-2.25-1.38-3.44
			c-0.08-0.32-0.15-0.65-0.06-0.96c0.1-0.36,0.4-0.65,0.76-0.81c0.36-0.16,0.78-0.21,1.19-0.18c0.79,0.04,1.56,0.33,2.17,0.8
			c0.2,0.16,0.39,0.35,0.41,0.59c0.01,0.2-0.11,0.38-0.21,0.55C204.49,236.76,204.3,237.66,204.13,238.28z"/>
		<path class="st27" d="M209.81,241.82c1.03-1.62,1.34-3.3,1.19-5.19c-0.05-0.61-0.17-1.25-0.59-1.75
			c-0.65-0.77-1.84-0.98-2.89-0.92c-0.63,0.04-1.28,0.15-1.77,0.51c-0.49,0.36-0.76,0.92-0.94,1.47c-0.61,1.91-0.65,3.82,0.47,5.58
			C206.57,240.92,208.45,241.08,209.81,241.82z"/>
	</g>
	<g id="Left_foot" class="st3">
		<path class="st28" d="M193.48,234.62c-0.66-0.3-1.11-0.88-1.62-1.37c-0.51-0.49-1.21-0.93-1.94-0.8
			c-0.85,0.15-1.32,1.01-1.47,1.79c-0.25,1.29,0.01,2.62,0.54,3.83s1.32,2.31,2.16,3.36c0.35,0.44,0.89,0.93,1.44,0.74
			c0.33-0.12,0.52-0.44,0.64-0.75c0.39-0.93,0.54-1.94,0.44-2.93"/>
		<path class="st28" d="M197.7,234.19c-1.55-0.56-2.24-0.58-2.25-0.45c-4.53-0.01-2.15,10.7,1,11.89c1.79-2.12,5.77-9.62,1.79-11.25
			C198.24,234.38,197.84,234.24,197.7,234.19z"/>
		<path class="st28" d="M199.73,235.19c0.85-0.39,1.74-0.79,2.69-0.77c0.95,0.02,1.96,0.6,2.05,1.47c0.05,0.43-0.13,0.86-0.31,1.25
			c-0.69,1.48-1.54,2.89-2.55,4.21c-0.39,0.51-1,1.07-1.65,0.88c-0.61-0.18-0.79-0.88-0.87-1.46"/>
		<path class="st29" d="M200.28,238.83c0.95,0.02,1.85,0.68,2.07,1.54c0.8-1.12,1.45-2.33,1.93-3.59c0.13-0.34,0.24-0.69,0.19-1.05
			c-0.06-0.4-0.35-0.76-0.72-0.99s-0.82-0.33-1.26-0.36c-0.85-0.06-1.73,0.16-2.44,0.59c-0.24,0.14-0.47,0.34-0.51,0.6
			c-0.04,0.22,0.07,0.43,0.16,0.63C200.08,237.11,200.17,238.13,200.28,238.83z"/>
		<path class="st29" d="M192.85,238.19c-1.16,0.14-2.26,0.67-3.04,1.46c-0.61-0.98-1.09-2.02-1.41-3.11
			c-0.25-0.85-0.4-1.75-0.14-2.59s1.02-1.61,1.98-1.7c0.91-0.09,1.76,0.42,2.47,0.94c0.35,0.25,0.7,0.55,0.77,0.95
			c0.07,0.37-0.13,0.73-0.28,1.08C192.82,236.14,192.78,237.19,192.85,238.19z"/>
		<path class="st29" d="M193.71,241.96c-0.9-1.91-1.03-3.8-0.63-5.85c0.13-0.67,0.34-1.35,0.85-1.84c0.8-0.76,2.11-0.83,3.24-0.63
			c0.68,0.12,1.36,0.34,1.85,0.79c0.49,0.46,0.71,1.1,0.83,1.74c0.42,2.18,0.22,4.28-1.21,6.05
			C197.31,241.4,195.26,241.33,193.71,241.96z"/>
	</g>
	<path id="Bird_left_body_1_" class="st10" d="M171.21,230.04c-0.05-1.06,0.54-2.13,1.47-2.63c-2.58-0.4-4.95-1.97-6.33-4.19
		c1.81,0.03,3.63,0.06,5.44,0.09c-4.48-1.87-7.66-6.49-7.81-11.34c3.32,1.19,6.31,3.31,8.53,6.04c0.47-2.29-0.12-4.78-1.56-6.62
		c2.73,1.05,4.57,3.73,5.36,6.54c0.79,2.82,0.7,5.8,0.59,8.72c0.81-13.96,5.18-27.7,12.59-39.56c0.98-1.58,2.07-3.34,1.69-5.16
		c-0.5-2.39-3.16-3.51-4.94-5.18c-2.56-2.41-3.31-6.54-1.76-9.69c-1.62,0.6-3.47,0.6-5.09-0.02c1.64-0.12,3.21-1.04,4.1-2.42
		c-3.04-0.73-5.74-2.77-7.26-5.5c2.21,1.21,4.93,1.45,7.32,0.64c-2.96-1.54-5.63-3.64-7.81-6.16c3.08,1.59,6.91,0.49,9.85-1.36
		c2.94-1.85,5.41-4.39,8.48-6.01c3.07-1.62,7.14-2.12,9.8,0.11c-0.49-1.25-0.98-2.49-1.47-3.74c5.61,5.61,9.04,6.79,13.55,10.18
		c-0.87-0.84-0.53-2.54,0.59-2.98c1.66,5.8,3.34,11.96,1.7,17.77c-1.47,5.2-5.52,9.78-5.26,15.18c0.17,3.62,2.74,6.51,5.11,9.25
		c3.47,4.01,6.47,13.06,6.47,13.06s4.9,15.03-2.19,26.07c-5.1,7.95-11.93,15.18-21.08,17.51"/>
	<path id="Beak_shadow" class="st11" d="M206.55,170.59c2.38,2.23,5.86,3.21,9.05,2.57c0.24-0.05,0.53-0.08,0.68,0.11
		c0.14,0.18,0.05,0.43-0.05,0.64c-0.43,0.96-0.93,1.98-1.85,2.48c-1.29,0.69-2.89,0.09-4.08-0.75
		C208.59,174.41,207.25,172.66,206.55,170.59z"/>
	<g id="Dots">
		<path class="st21" d="M211.23,191.34c-0.01-0.1,0.17-0.15,0.21-0.06C211.48,191.38,211.34,191.49,211.23,191.34z"/>
		<path class="st21" d="M194.49,171.79c-0.62-0.05-1.26,0.12-1.78,0.47c-0.21,0.14-0.43,0.37-0.38,0.62
			c0.03,0.17,0.19,0.3,0.36,0.34s0.35,0.01,0.52-0.04C193.77,173,194.22,172.52,194.49,171.79z"/>
		<path class="st21" d="M195.08,172.85c-0.68,0.1-1.31,0.5-1.68,1.08c-0.15,0.23-0.25,0.55-0.07,0.76c0.2,0.22,0.57,0.13,0.82-0.03
			c0.35-0.21,0.65-0.5,0.87-0.85C195.19,173.55,195.3,173.16,195.08,172.85z"/>
		<path class="st21" d="M196.49,174.26c-0.28-0.06-0.57,0.13-0.7,0.38s-0.15,0.55-0.14,0.84c0.01,0.28,0.08,0.61,0.34,0.72
			c0.29,0.13,0.62-0.12,0.75-0.41C196.96,175.33,196.88,174.74,196.49,174.26z"/>
		<path class="st21" d="M197.64,175.42c-0.14,0.62-0.07,1.29,0.2,1.87c0.1,0.22,0.31,0.47,0.55,0.39c0.25-0.08,0.26-0.41,0.24-0.67
			c-0.03-0.31-0.07-0.64-0.21-0.92S198,175.57,197.64,175.42z"/>
		<path class="st21" d="M200.55,176.45c-0.12,0.19-0.24,0.39-0.23,0.61c0.01,0.22,0.22,0.44,0.43,0.38c0.2-0.06,0.26-0.34,0.16-0.53
			C200.81,176.73,200.62,176.61,200.55,176.45z"/>
	</g>
	<g id="EOY_right_wing_1_">
		<path id="EOY_right_wing_colour" class="st10" d="M215.07,188.9c4.1,0.63,8.3,1.11,12.38,0.37c4.08-0.74,8.08-2.86,10.23-6.41
			c2.97-4.9,1.84-11.15,0.61-16.74c-2.05-9.34-4.11-18.68-6.16-28.01c5.51,2.49,9.17,8.59,8.77,14.62
			c9.63-11.4,16.9-24.78,21.24-39.06c2.13,6.87,3.2,14.21,1.91,21.29c-1.29,7.08-5.16,13.88-11.26,17.69
			c7.8-3.41,14.12-10.08,17.11-18.05c1.67,10.42-4.19,21.61-13.7,26.17c5.74-2.48,10.73-4.48,16.02-9.08
			c0.51,10.83-6.09,16.46-13.76,20.17c4.49,0.02,8.98-0.81,13.17-2.42c-2.49,7.13-15.93,15.97-26.5,13.48
			c4.75,1.21,9.6,1.87,13.74,4.49c-2.83,4.11-10.27,5.06-14.89,3.29c1.44,0.16,2.94,0.34,4.16,1.13c1.22,0.79,3.55,2.34,2.99,3.68
			c-0.39,0.94-2.83,1.56-3.72,2.05c-2.72,1.49-5.53,3.11-8.51,2.26c-2.78-0.79-5.58-0.99-8.21-3.27c2.73,2.37,7.52,4.21,9.45,6.82
			c-2.04,1-4.61-0.51-6.66-0.67c0.01,1.33,0.52,3.91,0.54,5.23c-3.54-1.32-8.33-3.4-12.32-3.49c-0.04,0-0.08,0-0.13,0"/>
		<path class="st11" d="M262.61,115.17c1.11,6.07,0.44,12.38-1.34,18.28s-5.65,12.98-8.94,18.2c-0.23,0.36-0.06,0.3,0.29,0.53
			c0.29,0.19,0.8-0.23,1.06-0.46c5.11-4.37,8.79-10.37,10.39-16.9C265.66,128.29,265.65,120.51,262.61,115.17z"/>
		<path class="st11" d="M270.14,139.58c-0.15,4.9-1.14,7.28-3.87,11.36s-6.61,7.37-11.08,9.39c6.37-7.31,13.61-13.06,14.66-24.23
			C270.42,136.85,270.19,139.92,270.14,139.58z"/>
		<path class="st11" d="M271.55,153.57c-4.99,10.76-8.16,13.25-15.2,17.48c4.5,0.18,8.54-1.93,11.28-5.51
			C270.37,161.96,271.69,157.48,271.55,153.57z"/>
		<path class="st11" d="M270.7,169.86c-7.08,7.19-17.24,10.24-26.95,13.02c3.28,1.01,6.83,0.44,10.16-0.4
			c3.58-0.9,7.14-2.12,10.22-4.17C267.21,176.26,269.79,173.3,270.7,169.86z"/>
		<path class="st11" d="M255.18,185.59c-1.86,3.25-7.41,4.67-11.75,5.2c1.63,0.78,3.53,0.64,5.33,0.49c1.84-0.16,3.7-0.32,5.44-0.93
			c1.74-0.61,3.37-1.75,4.2-3.39C257.33,187.1,255.82,186.23,255.18,185.59z"/>
		<path class="st11" d="M248.41,193.52c-5.86,2.11-12.22,2.84-18.4,2.11c2.96,2.49,6.88,3.81,10.75,3.61
			c3.86-0.2,7.63-1.91,10.32-4.69c-1.07-0.34-2.04-0.96-2.8-1.78C248.16,193.09,248.04,193.41,248.41,193.52z"/>
		<g>
			<path class="st11" d="M240.37,162.29c0.32-0.18,0.51-0.52,0.76-0.79c0.25-0.27,0.65-0.48,0.97-0.3c0.29,0.16,0.35,0.6,0.17,0.88
				s-0.53,0.41-0.87,0.42S240.74,162.39,240.37,162.29z"/>
			<path class="st11" d="M241.23,164.53c0.68-0.53,1.48-0.91,2.32-1.1c0.28-0.06,0.62-0.08,0.78,0.16c0.19,0.27-0.01,0.64-0.26,0.85
				C243.28,165.15,242,165.25,241.23,164.53z"/>
			<path class="st11" d="M242.06,166.54c0.82-0.42,1.75-0.62,2.67-0.59c0.15,0.01,0.32,0.02,0.42,0.13
				c0.12,0.13,0.11,0.34,0.01,0.49s-0.26,0.24-0.42,0.32C243.79,167.34,242.57,167.16,242.06,166.54z"/>
			<path class="st11" d="M242.49,168.42c0.63-0.06,1.26-0.08,1.89-0.07c0.2,0.01,0.41,0.02,0.59,0.12s0.3,0.32,0.23,0.51
				c-0.07,0.17-0.26,0.26-0.45,0.3C243.89,169.49,242.92,169.18,242.49,168.42z"/>
			<path class="st11" d="M242.64,170.42c0.6-0.05,1.21,0.12,1.69,0.48c0.16,0.12,0.33,0.29,0.32,0.5c0,0.2-0.18,0.38-0.37,0.43
				c-0.2,0.05-0.41,0.01-0.6-0.07C243.19,171.57,242.78,171.16,242.64,170.42z"/>
		</g>
		<path id="EOY_right_wing" class="st30" d="M271.86,167.73c-3.5,1.63-6,2.48-9.1,2.87c3.07-1.54,5.43-3.89,7.11-6.67
			c2.43-4,3.55-8.87,3.76-13.56c0.03-0.66-0.88-0.93-1.23-0.36c-2.06,3.27-6.59,5.67-10.9,7.53c3.11-2.65,5.62-5.49,7.32-8.7
			c2.33-4.4,3.12-9.49,1.95-15.6c-0.13-0.66-1.05-0.73-1.28-0.1c-2.6,6.89-5.66,10.98-11.14,14.82c8.19-10.62,8.48-23.8,4.55-36.82
			c-0.09-0.29-0.37-0.48-0.69-0.46c-0.31,0.02-0.57,0.25-0.61,0.55c-1.99,14.36-10.6,27.67-19.42,39.39
			c-1.74-6.23-3.73-9.85-9.92-13.85c-0.46-0.3-1.07,0.04-1.03,0.57c0.7,8.98,5.98,22.6,7.04,33.55c0.53,5.48-0.01,10.22-2.51,13.35
			c-2.45,3.07-6.87,4.78-14.52,4.17c-2.35-0.09-5.79-0.59-5.79-0.59c-0.16,0.01-0.72-0.25-0.73-0.24c-0.04,0.02,0.05,1.64,1.15,1.76
			c0.7,0.08,2.31,0.14,5.33,0.34c7.89,0.52,12.86-1.19,15.63-4.66c2.83-3.55,3.32-8.62,2.77-14.24c-1.03-10.65-5.82-23.5-6.89-32.13
			c5.39,3.78,6.86,7.06,8.56,13.59c0.14,0.54,0.84,0.69,1.18,0.24c8.53-11.24,17.16-24.08,19.97-38.12
			c3.05,12.06,2.16,23.87-5.61,33.47c-0.06,0.02-0.1,0.06-0.14,0.11c-0.18,0.26-0.36,0.5-0.54,0.73c-0.36,0.42-0.76,0.83-1.15,1.24
			c-0.74,0.67-1.56,1.2-2.55,1.71c-0.01,0-0.01,0.01-0.02,0.02c-0.02,0.01-0.05,0.03-0.07,0.05c-0.01,0.01-0.02,0.02-0.03,0.03
			c-0.02,0.02-0.03,0.04-0.04,0.07c-0.01,0.01-0.01,0.02-0.01,0.04c-0.01,0.03-0.01,0.06-0.01,0.08c0,0.01,0,0.02,0,0.03
			c0,0,0,0.01,0,0.01c0.01,0.03,0.02,0.07,0.03,0.1c0,0,0,0,0,0c0,0.01,0.01,0.01,0.01,0.02c0.02,0.03,0.04,0.05,0.06,0.07
			c0.01,0.01,0.02,0.02,0.03,0.02c0.02,0.01,0.05,0.03,0.07,0.04c0.01,0.01,0.03,0.01,0.04,0.01c0.03,0.01,0.06,0.01,0.09,0.01
			c0.01,0,0.02,0,0.03,0c0,0,0.01,0,0.01,0c0.87-0.12,1.69-0.31,2.49-0.72c0.04,0.01,0.08,0.02,0.11,0.02
			c7.43-4.31,11.49-8.56,14.59-15.68c0.53,4.82-0.29,8.86-2.18,12.45c-1.62,3.06-4.04,5.81-7.1,8.4c-0.03,0.01-0.06,0.02-0.09,0.04
			c-2.07,1.49-3.08,2.52-4.8,3.47c-0.01,0.01-0.02,0.02-0.03,0.03c-0.02,0.01-0.03,0.03-0.05,0.04c-0.01,0.02-0.02,0.03-0.03,0.05
			c-0.01,0.02-0.02,0.04-0.03,0.06c-0.01,0.02-0.01,0.04-0.01,0.06c0,0.01-0.01,0.03-0.01,0.04c0,0.01,0,0.01,0,0.02
			c0,0.02,0.01,0.04,0.01,0.06c0,0.02,0.01,0.04,0.02,0.06c0,0.01,0,0.01,0.01,0.02c0.01,0.01,0.02,0.02,0.03,0.03
			c0.01,0.02,0.03,0.03,0.04,0.05c0.02,0.01,0.03,0.02,0.05,0.03c0.02,0.01,0.04,0.02,0.06,0.03c0.02,0.01,0.04,0.01,0.06,0.01
			c0.01,0,0.03,0.01,0.04,0.01c1.77-0.02,2.98-0.58,5-1.53c3.98-1.62,8.47-3.69,11.32-6.76c-0.42,3.83-1.49,7.64-3.41,10.81
			c-1.63,2.68-3.84,4.88-6.78,6.3c-0.09-0.01-0.17,0.01-0.24,0.06c-0.1,0.07-0.19,0.14-0.29,0.2c-1.04,0.45-2.16,0.81-3.38,1.06
			c0,0-0.01,0.01-0.01,0.01c-0.45,0.03-0.95,0.05-1.54,0.1c-0.01,0-0.01,0-0.02,0.01c-0.03,0-0.05,0.01-0.08,0.02
			c-0.01,0-0.02,0.01-0.04,0.01c-0.03,0.02-0.06,0.04-0.09,0.07c0,0-0.01,0.01-0.01,0.01c-0.02,0.02-0.03,0.04-0.04,0.07
			c0,0.01,0,0.01,0,0.02c0,0.01-0.01,0.02-0.01,0.04c-0.01,0.02-0.01,0.05-0.01,0.08c0,0.01,0,0.01,0,0.02c0,0.01,0,0.01,0.01,0.02
			c0,0.03,0.01,0.05,0.02,0.08c0,0.01,0.01,0.02,0.01,0.03c0.02,0.03,0.04,0.06,0.07,0.09c0,0,0.01,0,0.01,0.01
			c0.02,0.02,0.05,0.03,0.08,0.04c0.72,0.28,1.41,0.55,2.25,0.57c0.35,0.01,0.72-0.02,1.13-0.11c4.31-0.17,7.35-0.87,11.2-2.54
			c-1.99,4.91-5.25,7.95-9.34,9.9c-4.17,1.99-9.21,2.84-14.51,3.31c-0.8,0.05-1.6,0.13-2.8,0.23c-0.01,0-0.02,0-0.02,0.01
			c-0.02,0-0.04,0.01-0.06,0.01c-0.01,0-0.02,0.01-0.03,0.01c-0.02,0.01-0.04,0.02-0.05,0.03c-0.01,0.01-0.02,0.01-0.03,0.02
			c0,0-0.01,0.01-0.01,0.01c-0.01,0.01-0.02,0.02-0.02,0.03c-0.01,0.01-0.02,0.03-0.03,0.04c-0.01,0.01-0.01,0.03-0.02,0.04
			c-0.01,0.02-0.01,0.03-0.02,0.05c0,0.02,0,0.03,0,0.05c0,0.01,0,0.03,0,0.04c0,0,0,0.01,0,0.01c0,0.02,0.01,0.03,0.01,0.05
			c0,0.02,0.01,0.03,0.02,0.05c0.01,0.01,0.02,0.03,0.03,0.04c0.01,0.01,0.02,0.03,0.03,0.04c0,0,0.01,0.01,0.01,0.01
			c0.71,0.66,1.72,0.67,2.71,0.64c0.32-0.01,0.64-0.02,0.95-0.03c3.73,0.22,6.87,1.89,10.66,3.09c-1.61,1.79-3.25,2.8-5.1,3.31
			c-2.09,0.57-4.48,0.54-7.32,0.28c-0.01,0-0.01,0.01-0.02,0.01c-0.57-0.1-1.19-0.21-1.97-0.3c-0.04,0-0.07,0-0.11,0.01
			c-0.01,0-0.02,0.01-0.03,0.01c-0.03,0.01-0.06,0.02-0.08,0.04c-0.01,0.01-0.02,0.02-0.03,0.02c-0.02,0.02-0.04,0.03-0.05,0.05
			c-0.01,0.01-0.01,0.01-0.02,0.02c0,0.01,0,0.01-0.01,0.02c-0.01,0.02-0.02,0.05-0.03,0.08c0,0.01-0.01,0.02-0.01,0.03
			c0,0,0,0,0,0.01c0,0.04,0,0.07,0.01,0.11c0,0.01,0.01,0.02,0.01,0.03c0.01,0.03,0.02,0.05,0.04,0.08
			c0.01,0.01,0.02,0.02,0.03,0.03c0.02,0.02,0.04,0.04,0.06,0.05c0.01,0.01,0.01,0.01,0.02,0.02c1.2,0.71,2.18,1.13,3.43,1.38
			c0.78,0.23,1.41,0.43,1.84,0.66c0.57,0.29,1.11,0.78,1.86,1.57c-2.46,2.24-5.55,3.81-8.72,4.31c-3.37,0.53-6.82-0.12-9.82-2.43
			c-0.05-0.01-0.1-0.02-0.16-0.02c-0.04-0.04-0.08-0.08-0.14-0.1c-0.24-0.09-0.49-0.12-0.74-0.18c-0.26-0.06-0.51-0.14-0.7-0.27
			c-0.01-0.01-0.02-0.01-0.03-0.02c-0.01,0-0.01-0.01-0.02-0.01c-0.03-0.02-0.07-0.03-0.11-0.03c0,0-0.01,0-0.01,0
			c0,0-0.01,0-0.01,0c-0.04,0-0.08,0-0.11,0.01c0,0-0.01,0-0.01,0c-0.04,0.01-0.07,0.03-0.1,0.05c0,0,0,0-0.01,0c0,0,0,0,0,0
			c-0.02,0.02-0.04,0.04-0.06,0.06c-0.01,0.01-0.01,0.02-0.02,0.03c0,0-0.01,0.01-0.01,0.01c-0.02,0.03-0.03,0.07-0.03,0.1
			c0,0.01,0,0.01,0,0.02c0,0.04,0,0.07,0.01,0.11c0,0,0,0,0,0.01c0.01,0.04,0.03,0.07,0.06,0.1c0,0,0,0,0,0.01l0.01,0.01
			c0,0,0,0,0,0c0.94,1.08,1.75,1.8,2.92,2.43c1.88,1.59,3.87,3.13,6.1,4.32c-2.03,0.3-3.36-0.18-5.76-1.18
			c-0.49-0.2-1.01,0.2-0.91,0.7c0.22,1.07,0.45,2.14,0.72,3.22c-2.37-0.63-3.62-1.43-5.61-3.11l-0.37-1.1
			c-0.14-2.15-0.81-4.31-1.53-6.77c-0.05-0.17-0.23-0.27-0.41-0.22c-0.18,0.05-0.28,0.22-0.23,0.39c0.73,2.53-0.08,5.73-0.07,7.9
			c0,1.36,0.41,2.72,0.45,1.99c2.09,1.71,5.94,3.04,9.04,3.71c0.49,0.1,0.41-1.58,0.28-2.05c-0.29-1-0.51-2.02-0.72-3.05
			c2.41,0.91,4.29,1.27,7.23,0.41c0.58-0.17,0.62-0.96,0.07-1.2c-1.72-0.74-3.3-1.74-4.82-2.87c1.93,0.49,3.92,0.56,5.86,0.26
			c3.69-0.58,7.2-2.45,9.91-5.09c0.24-0.23,0.25-0.62,0.02-0.87c-0.93-1.02-1.58-1.63-2.3-2.08c1.27-0.04,2.47-0.18,3.62-0.5
			c2.36-0.64,4.48-2.01,6.42-4.45c0.28-0.35,0.1-0.87-0.35-1c-2.81-0.79-5.35-2.02-8.12-2.79c3.78-0.55,7.37-1.42,10.56-2.95
			c4.74-2.27,8.55-6.01,10.56-12.08C272.96,167.96,272.38,167.48,271.86,167.73z"/>
	</g>
	<path id="Tail_shadow" class="st11" d="M192.49,242.9c-7.58-11.02-10.25-27.52-5.07-39.85c-2.77,2.25-3.3,3.86-6.37,5.32
		c-2.03,0.97-1.8,2.89-2.33,5.22c-1.34,5.93-0.72,8.27-1.81,13.07c-1.12-1.34,0.09-3.49,0.05-3.89c-0.15-1.75-0.35-4.29-0.69-6.02
		c-0.34-1.73-2.38-4.29-4.09-4.73c0.31,1.68,1.1,5.02,0.52,6.63c-1.15-1.96-6.49-6.27-8.72-6.67c-0.96-0.17,1.14,2.1,0.74,2.99
		c-0.26,0.58-0.05,1.26,0.2,1.85c1.4,3.31,3.59,5.01,6.87,6.5c-1.71,0.07-3.2,0.31-4.87-0.08c1.39,1.94,3.8,3.96,6.15,4.38
		c-1.14-0.2-1.7,1.28-1.87,2.43c-0.17,1.15-0.15,1.82,0.7,2.62s1.92,1.29,2.98,1.76c6.06,2.7,12.41,5.06,19.03,5.32"/>
	<path id="Belly" class="st9" d="M217.24,192.34c-8.34-1.23-14.91-0.16-19.96,4.99s-6.9,13.21-4.6,20.05
		c1.16,3.46,3.27,6.53,5.73,9.22c3.54,3.87,8.31,7.16,13.55,6.94c4.09-0.18,8.42-1.59,10.76-4.96c2.33-3.37,3.88-9,3.67-13.09
		c-0.2-4.09-0.97-13.62-7.29-22.13L217.24,192.34z"/>
	<path class="st13" d="M207.34,195.82c-1.01-0.59-1.83-1.52-2.28-2.6c-0.19-0.45-0.29-1.02,0.04-1.37c0.28-0.29,0.77-0.29,1.12-0.09
		c0.35,0.21,0.57,0.57,0.73,0.94c-0.14-1.28,0.15-2.6,0.81-3.7c0.26-0.44,0.65-0.88,1.16-0.88c0.39,0,0.74,0.29,0.93,0.63
		c0.19,0.34,0.24,0.74,0.28,1.13c0.31,2.88,0.04,5.83-0.78,8.61"/>
	<path id="Neck_shadow" class="st11" d="M190.82,186.16c0.4,0.16,0.62,0.33,0.74,0.46c0.19,0.21,0.5,0.24,0.76,0.13
		c0.85-0.38,2.26-1.38,2.13-3.85c-0.04-0.73-0.35-1.47-0.59-2.18c-0.44-1.3-1.09-2.51-1.92-3.6c-2.44-3.21-5.41-5.54-4.21-9.6
		c0.37-1.25,0.21-1.47-0.41-1.35c-1.35,0.26-2.24-1.4-1.38-2.46c0.01-0.01,0.02-0.03,0.03-0.04c0.32-0.42,0.07-1.03-0.45-1.09
		c-0.82-0.1-5.24-0.56-6.01-1.45c-0.5-0.57,2.27-0.21,3.02-0.33c1.49-0.23,3.11-0.57,4.24-1.02c0.59-0.23,0.54-1.09-0.07-1.26
		c-2.74-0.81-7.79-3.19-8.3-3.77c0.8,3.09,2.72,3.19,4.45,4.19c0.52,0.3,0.39,1.1-0.2,1.23c-0.69,0.15-3.73,0.25-4.52,0.28
		c-1.06,0.04,0.85,1.46,1.76,2c1.13,0.66,2.37,1.21,3.53,1.78c0.43,0.21,0.52,0.79,0.16,1.11c-0.33,0.29-0.72,0.58-1.12,0.84
		c-0.58,0.37-0.28,1.26,0.4,1.24c0.32-0.01,0.64-0.06,0.98-0.13c0.51-0.1,0.96,0.39,0.77,0.88c-0.69,1.74-0.51,4.21,0.15,5.78
		c0.86,2.02,2.52,3.14,4.53,4.66c1.75,1.32,4.25,2.96,1.86,6.96L190.82,186.16z"/>
	<path id="Bird_left_body_outline" class="st12" d="M171.21,230.04c-0.05-1.06,0.54-2.13,1.47-2.63c-2.58-0.4-4.95-1.97-6.33-4.19
		c1.81,0.03,3.63,0.06,5.44,0.09c-4.48-1.87-7.66-6.49-7.81-11.34c3.32,1.19,6.31,3.31,8.53,6.04c0.47-2.29-0.12-4.78-1.56-6.62
		c2.73,1.05,4.57,3.73,5.36,6.54c0.79,2.82,0.7,5.8,0.59,8.72c0.81-13.96,5.18-27.7,12.59-39.56c0.98-1.58,2.07-3.34,1.69-5.16
		c-0.5-2.39-3.16-3.51-4.94-5.18c-2.56-2.41-3.31-6.54-1.76-9.69c-1.62,0.6-3.47,0.6-5.09-0.02c1.64-0.12,3.21-1.04,4.1-2.42
		c-3.04-0.73-5.74-2.77-7.26-5.5c2.21,1.21,4.93,1.45,7.32,0.64c-2.96-1.54-5.63-3.64-7.81-6.16c3.08,1.59,6.91,0.49,9.85-1.36
		c2.94-1.85,5.41-4.39,8.48-6.01c3.07-1.62,7.14-2.12,9.8,0.11c-0.49-1.25-0.98-2.49-1.47-3.74c5.61,5.61,9.04,6.79,13.55,10.18
		c-0.87-0.84-0.53-2.54,0.59-2.98c1.66,5.8,3.34,11.96,1.7,17.77c-1.47,5.2-5.52,9.78-5.26,15.18c0.17,3.62,2.89,6.38,5.11,9.25
		c7.44,9.59,12.02,28.17,4.28,39.13c-5.44,7.71-11.93,15.18-21.08,17.51"/>
	<g id="EOY_left_wing">
		<path id="EOY_left_wing_inside_colour" class="st10" d="M191.1,187.13c-2.9,0.53-7.92,1.03-10.86,0.8
			c-2.94-0.24-5.9-1.23-8.03-3.27c-2.99-2.86-3.89-7.24-4.46-11.34c-1.72-12.43-0.15-24.59-1.94-37.56
			c-4.3,4.31-6.42,10.7-5.56,16.73c-10.97-11.08-22.18-22.51-28.35-36.83c-0.86,13.83,4.96,27.93,15.32,37.14
			c-6.76-2.27-12.65-7.02-16.3-13.14c-0.43,5.08,1.36,10.58,4.66,14.47c3.3,3.88,8.05,6.32,12.24,9.21
			c-5.64-0.05-11.24-2.15-15.51-5.84c2.13,8.87,9.37,16.33,18.18,18.71c-4.25,0.85-9.21,1.41-13.37,0.2
			c5.94,7.98,7.39,10.15,26.75,10.15c-3.88,0.91-7.45,3.07-10.05,6.08c4.07,2.5,9.36,2.91,13.76,1.06
			c-2.04,1.33-4.46,3.22-5.52,5.41c5.52,3.59,13.81,5.29,18.6-1.21c-1.83,3.24-3.67,4.99-5.5,8.23c2.02-0.67,4.03-1.35,6.05-2.02
			c-0.96,0.74-1.01,2.39-0.09,3.18c4.83-1.62,7.91-8.54,6.5-12.7C188.26,193.31,186.86,193.3,191.1,187.13z"/>
		<g id="Wing_shadows">
			<path class="st11" d="M132.43,118.07c4.71,21.87,11.31,29.18,18.17,36.04c1.53,1.53-4.87-1.82-7.14-4.29
				C135.57,141.25,131.39,129.36,132.43,118.07z"/>
			<path class="st11" d="M130.94,140.75c0.7,6.02,12.34,18.11,18.84,22.96c-4.83-2.06-9.27-4.39-12.81-8.27
				c-3.43-3.76-6.33-8.78-6.11-14.68C130.86,140.7,130.93,140.7,130.94,140.75z"/>
			<path class="st11" d="M141.55,169.5c3.24,2.58,6.75,3.83,10.39,5.79c-4.74,0.1-9.22-1.16-12.78-4.29
				c-3.56-3.13-5.9-7.62-6.41-12.33C133.21,159.28,138.31,166.92,141.55,169.5z"/>
			<path class="st11" d="M165.93,185.23c-5.19,1.6-10.82,1.44-16.09,0.15c-2.64-0.64-5.27-1.74-7.5-3.28
				c-2.23-1.55-3.28-3.6-4.02-6.22C139.06,176.37,149.87,184.37,165.93,185.23z"/>
			<path class="st11" d="M157.02,190.22c4.06,1.75,8.67,2.2,13,1.28c-0.99,1.78-2.82,2.97-4.77,3.56s-4.02,0.64-6.05,0.56
				c-1.24-0.05-2.5-0.14-3.65-0.61s-2.18-1.37-2.52-2.56C154.36,191.71,155.69,190.97,157.02,190.22z"/>
			<path class="st11" d="M165.15,196.72c5.65,1.84,12.11,0.98,17.08-2.27c-0.01,3.73-3.14,6.95-6.73,7.93
				c-3.59,0.98-7.47,0.07-10.82-1.56c-0.67-0.33-1.34-0.7-1.82-1.27s-0.73-1.39-0.45-2.08
				C162.69,196.77,163.64,196.22,165.15,196.72z"/>
		</g>
		<path class="st30" d="M187.42,203.05c0,0-1.12-5.58-0.66-8.57c0.03-0.18-0.09-0.36-0.26-0.4c-0.17-0.04-0.33,0.08-0.36,0.26
			c-0.46,2.99-0.61,5.94,0.1,8.48c-1.46,2.21-2.39,3.3-4.44,4.43c-0.02-1.18-0.08-2.34-0.14-3.5c-0.03-0.54-0.61-0.86-1.01-0.55
			c-1.95,1.51-3.05,2.27-4.99,2.36c1.79-1.73,3.26-3.79,4.63-5.88c0.8-0.83,1.33-1.7,1.88-2.92c0.02-0.04,0.03-0.09,0.03-0.14
			c0-0.01,0-0.03,0-0.04c0-0.03-0.01-0.06-0.02-0.09c0,0,0,0,0,0c0-0.01-0.01-0.03-0.02-0.04c-0.01-0.01-0.01-0.03-0.02-0.04
			c0,0,0,0,0,0c-0.02-0.03-0.03-0.05-0.06-0.07c0,0,0,0-0.01,0c-0.01-0.01-0.03-0.02-0.05-0.03c0,0-0.01-0.01-0.01-0.01c0,0,0,0,0,0
			c0,0-0.01,0-0.01,0c-0.03-0.02-0.07-0.03-0.11-0.03c0,0-0.01,0-0.01,0c-0.04,0-0.07,0-0.11,0.01c0,0-0.01,0-0.01,0
			c0,0-0.01,0-0.01,0c-0.03,0.01-0.06,0.03-0.09,0.05c-0.01,0.01-0.01,0.01-0.02,0.02c-0.01,0.01-0.02,0.01-0.02,0.02
			c-0.14,0.18-0.36,0.31-0.58,0.42c-0.22,0.11-0.44,0.19-0.64,0.33c-0.05,0.03-0.08,0.08-0.1,0.14c-0.02,0.01-0.03,0.01-0.05,0.02
			c-2.18,3-5.19,4.35-8.41,4.46c-3.04,0.1-6.26-0.95-9.08-2.8c0.5-0.98,0.87-1.59,1.32-2.01c0.36-0.33,0.92-0.68,1.63-1.1
			c0.38-0.19,0.73-0.4,1.06-0.63c0.03-0.02,0.05-0.03,0.08-0.05c0-0.01,0.01-0.01,0.01-0.02c0.49-0.36,0.96-0.79,1.46-1.32
			c0,0,0-0.01,0.01-0.01c0,0,0.01-0.01,0.01-0.01c0-0.01,0.01-0.01,0.01-0.02c0-0.01,0.01-0.01,0.01-0.02
			c0-0.01,0.01-0.01,0.01-0.02c0,0,0-0.01,0.01-0.01c0.02-0.04,0.03-0.09,0.03-0.14c0-0.01,0-0.01,0-0.02c0-0.01,0-0.02,0-0.02
			c0-0.01,0-0.01,0-0.02c0-0.01,0-0.02,0-0.02c0-0.01,0-0.02-0.01-0.03c0,0,0-0.01,0-0.01c0,0,0,0,0,0
			c-0.01-0.03-0.03-0.06-0.05-0.09c0,0,0,0,0,0c-0.01-0.01-0.01-0.02-0.02-0.03c-0.01-0.01-0.01-0.01-0.02-0.02
			c-0.02-0.02-0.04-0.03-0.06-0.05c-0.01-0.01-0.02-0.01-0.04-0.02c-0.03-0.01-0.06-0.02-0.09-0.02c-0.01,0-0.02,0-0.03,0
			c-0.04,0-0.07,0-0.1,0.02c-0.66,0.23-1.18,0.46-1.66,0.66c0,0-0.01,0-0.01,0c-2.54,0.82-4.72,1.32-6.79,1.13
			c-1.82-0.17-3.59-0.9-5.51-2.46c3.16-1.98,5.62-4.32,8.95-5.29c0.29-0.06,0.58-0.11,0.87-0.16c0.92-0.16,1.85-0.37,2.33-1.19
			c0-0.01,0.01-0.01,0.01-0.02c0,0,0,0,0-0.01c0.01-0.03,0.02-0.06,0.03-0.09c0,0,0,0,0-0.01c0-0.03,0-0.07,0-0.1c0,0,0,0,0,0
			c0,0,0,0,0,0c0-0.01,0-0.01,0-0.02c0-0.01,0-0.01,0-0.02c0-0.01,0-0.02-0.01-0.02c0-0.01,0-0.01-0.01-0.02
			c0-0.01-0.01-0.02-0.01-0.02c0,0,0-0.01-0.01-0.01c0-0.01-0.01-0.01-0.01-0.02c0-0.01-0.01-0.02-0.01-0.02c0,0,0,0,0-0.01
			c-0.01-0.01-0.01-0.02-0.02-0.03c0,0-0.01-0.01-0.01-0.01c-0.01-0.01-0.01-0.01-0.02-0.02c-0.01-0.01-0.01-0.01-0.02-0.01
			c0,0-0.01-0.01-0.01-0.01c0,0,0,0,0,0l0,0c-0.02-0.02-0.05-0.03-0.07-0.04c0,0,0,0-0.01,0c-0.02-0.01-0.05-0.01-0.07-0.02
			c0,0-0.01,0-0.01,0c-0.02,0-0.04,0-0.05,0c-0.86,0.1-1.51,0.16-2.1,0.24c-5.14,0.58-10.14,0.72-14.59-0.59
			c-4.24-1.25-7.99-3.78-11.04-8.53c3.9,0.99,6.84,1.13,10.76,0.5c0.42,0.02,0.8-0.02,1.14-0.1c0.16-0.04,0.32-0.09,0.47-0.15
			c0.01,0,0.01,0,0.02,0c0,0,0.01-0.01,0.01-0.01c0.53-0.22,0.97-0.53,1.42-0.87c0.02-0.02,0.05-0.04,0.06-0.07c0,0,0,0,0-0.01
			c0.02-0.03,0.04-0.07,0.05-0.11c0,0,0,0,0-0.01c0.01-0.04,0.01-0.09,0-0.13c0,0,0,0,0,0c0-0.02-0.01-0.05-0.02-0.07
			c0,0,0-0.01,0-0.01c0-0.01-0.01-0.02-0.01-0.02c0-0.01-0.01-0.01-0.01-0.02c0-0.01-0.01-0.01-0.01-0.02c0,0,0-0.01-0.01-0.01
			c0,0,0,0,0,0c-0.02-0.03-0.04-0.05-0.07-0.08c0,0,0,0,0,0c-0.03-0.02-0.05-0.04-0.08-0.05c0,0,0,0,0,0
			c-0.03-0.01-0.06-0.02-0.09-0.02c0,0,0,0,0,0c-0.01,0-0.03,0-0.04,0c-0.51,0.06-0.94,0.12-1.33,0.18
			c-0.01-0.01-0.03-0.02-0.04-0.02c-1.32-0.02-2.55-0.22-3.73-0.55c-0.01-0.01-0.02-0.01-0.04-0.02c-0.04-0.02-0.08-0.03-0.12-0.03
			c-3.06-0.9-5.66-2.78-7.83-5.27c-2.55-2.93-4.49-6.71-5.83-10.63c3.21,2.51,7.57,3.81,11.47,4.71c0.02,0.01,0.04,0.02,0.06,0.03
			c2.38,0.68,3.69,1.11,5.44,0.75c0.01,0,0.03-0.01,0.04-0.02c0.02-0.01,0.04-0.01,0.06-0.02c0.02-0.01,0.03-0.03,0.05-0.04
			c0.01-0.01,0.03-0.03,0.04-0.05c0.01-0.02,0.02-0.04,0.03-0.06c0.01-0.01,0.01-0.03,0.02-0.04c0-0.01,0.01-0.03,0.01-0.04
			c0,0,0,0,0,0c0.01-0.04,0-0.09-0.01-0.13c0,0,0,0,0,0c0,0,0,0,0,0c0-0.01-0.01-0.03-0.01-0.04l0,0c0-0.01-0.01-0.02-0.01-0.02
			c0-0.01,0-0.01-0.01-0.02c0-0.01-0.01-0.01-0.01-0.02c0-0.01-0.01-0.02-0.01-0.02c-0.01-0.01-0.02-0.02-0.02-0.03c0,0,0,0,0,0
			c0-0.01-0.01-0.01-0.01-0.02c-0.01-0.01-0.01-0.01-0.02-0.02c-0.01-0.01-0.02-0.02-0.03-0.03c0,0,0,0,0,0
			c-0.01-0.01-0.02-0.02-0.04-0.02l0,0c-0.01,0-0.02-0.01-0.02-0.01c-0.01,0-0.01-0.01-0.02-0.01c-0.57-0.21-1.08-0.44-1.58-0.69
			c-5.11-2.6-9.3-5.59-12.31-9.45c-2.64-3.38-4.39-7.44-5.11-12.59c4.62,6.85,9.41,10.49,17.3,13.55c0.01,0,0.03,0,0.04-0.01
			c0.83,0.27,1.62,0.31,2.44,0.26c0,0,0,0,0.01,0c0.01,0,0.02,0,0.03-0.01c0.03-0.01,0.05-0.01,0.08-0.03
			c0.01-0.01,0.02-0.01,0.03-0.02c0.02-0.01,0.04-0.03,0.06-0.05c0.01-0.01,0.02-0.02,0.02-0.03c0.02-0.03,0.03-0.05,0.04-0.08
			c0-0.01,0.01-0.01,0.01-0.02c0,0,0-0.01,0-0.01c0,0,0,0,0-0.01c0.01-0.03,0.01-0.06,0-0.1c0,0,0,0,0,0c0,0,0,0,0-0.01
			c0-0.01,0-0.02,0-0.02c0-0.01,0-0.01,0-0.02c0-0.01,0-0.01,0-0.02c0-0.01-0.01-0.02-0.01-0.02c0-0.01,0-0.01-0.01-0.02
			c0-0.01-0.01-0.01-0.01-0.02c0-0.01-0.01-0.01-0.01-0.02c0-0.01-0.01-0.01-0.01-0.02c0-0.01-0.01-0.01-0.01-0.02
			c0,0-0.01-0.01-0.01-0.01c-0.01-0.01-0.01-0.01-0.02-0.02c0,0,0,0,0,0c-0.01-0.01-0.02-0.02-0.02-0.02
			c-0.01-0.01-0.02-0.02-0.03-0.02l0,0c-0.01-0.01-0.02-0.01-0.04-0.02c-0.01-0.01-0.02-0.01-0.03-0.01c0,0,0,0,0,0
			c-0.81-0.26-1.54-0.56-2.22-0.95c-11.51-8.53-15.92-21.69-16.15-36.06c6.08,14.12,17.2,25.86,27.83,35.94
			c0.41,0.39,1.03,0.11,1.03-0.47c-0.07-7.16,0.46-10.88,4.47-15.89c1.18,9.23-0.02,23.6,1.69,34.94c0.9,5.98,2.62,11.19,6.1,14.34
			c3.35,3.03,8.25,3.96,15.14,1.93c0.15-0.04,0.3-0.08,0.44-0.12c0.13-0.04,0.22-0.08,0.35-0.12c0.01-0.01,0.06-0.01,0.07-0.03
			c0.71-0.28,1.49-0.31,2.22-0.68c0,0,0,0,0,0c0.01,0,0.01-0.01,0.02-0.01c0.01,0,0.01-0.01,0.02-0.01c0,0,0.01-0.01,0.01-0.01
			c0.01-0.01,0.01-0.01,0.02-0.02c0.01-0.01,0.02-0.02,0.02-0.03c0,0,0,0,0,0c0.01-0.01,0.01-0.02,0.02-0.04l0,0
			c0.01-0.01,0.01-0.03,0.01-0.04l0,0c0-0.01,0-0.02,0.01-0.03c0-0.01,0-0.01,0-0.02c0-0.01,0-0.03,0-0.04c0,0,0,0,0,0
			c0-0.01,0-0.03,0-0.04c0,0,0,0,0,0c0-0.01,0-0.02,0-0.03c0-0.01,0-0.01,0-0.02c0-0.01,0-0.02-0.01-0.02c0-0.01,0-0.01,0-0.02l0,0
			c0,0,0,0,0,0c-0.01-0.03-0.02-0.05-0.03-0.07c-0.01-0.01-0.01-0.01-0.02-0.02c-0.01-0.02-0.03-0.03-0.04-0.05
			c-0.01-0.01-0.03-0.03-0.05-0.04c-0.02-0.01-0.04-0.02-0.06-0.03c-0.02-0.01-0.04-0.01-0.06-0.02c-0.02,0-0.04,0-0.06,0
			c-0.02,0-0.04,0-0.06,0.01c-0.01,0-0.02,0-0.02,0c-0.87,0.14-6.5,0.9-6.11,0.96c-5.03,0.92-8.55-0.08-11.05-2.34
			c-3.08-2.79-4.75-7.64-5.63-13.47c-1.76-11.65-0.31-26.92-1.91-36.45c-0.09-0.56-0.74-0.79-1.09-0.39
			c-4.68,5.39-5.61,9.57-5.66,16.42c-11.01-10.52-22.23-22.76-27.65-37.38c-0.11-0.3-0.4-0.49-0.69-0.45
			c-0.29,0.04-0.51,0.3-0.52,0.62c-0.37,14.38,3.19,28.11,13.36,37.61c-5.99-2.94-9.83-6.63-13.93-13.33
			c-0.36-0.59-1.19-0.33-1.15,0.37c0.45,6.62,2.45,11.78,5.68,15.93c2.36,3.03,5.37,5.51,8.88,7.67c-4.42-1.1-9.18-2.73-11.89-5.74
			c-0.47-0.52-1.23-0.06-1.04,0.62c1.36,4.86,3.61,9.73,6.83,13.44c2.24,2.58,4.99,4.57,8.2,5.59c-2.94,0.2-5.45-0.2-9.07-1.22
			c-0.54-0.15-0.95,0.46-0.66,0.99c3.36,5.96,7.79,9.12,12.7,10.57c3.3,0.97,6.82,1.18,10.42,1.02c-2.35,1.34-4.38,3.13-6.76,4.5
			c-0.38,0.22-0.42,0.8-0.07,1.11c2.39,2.17,4.68,3.19,7,3.4c1.14,0.1,2.28,0.02,3.45-0.19c-0.55,0.6-1,1.37-1.6,2.62
			c-0.15,0.31-0.04,0.7,0.24,0.9c3.15,2.23,6.84,3.5,10.37,3.39c1.85-0.06,3.66-0.52,5.32-1.41c-1.12,1.48-2.32,2.84-3.72,3.95
			c-0.45,0.36-0.22,1.17,0.36,1.23c2.92,0.32,4.56-0.42,6.55-1.84c0.06,1.12,0.11,2.23,0.1,3.33c-0.01,0.51,0.49,0.87,0.91,0.67
			c2.56-1.24,5.21-4.5,5.21-4.5L187.42,203.05z"/>
		<g>
			<path class="st11" d="M163.97,160.07c-1.07,0.06-2.15-0.14-3.13-0.58c-0.43-0.2-0.9-0.54-0.84-1.01
				c0.07-0.64,0.98-0.75,1.59-0.53C162.66,158.35,163.55,159.25,163.97,160.07z"/>
			<path class="st11" d="M163.6,163.58c-1.11,0.13-2.24,0.09-3.34-0.12c-0.3-0.06-0.63-0.16-0.76-0.43
				c-0.14-0.3,0.08-0.68,0.38-0.82s0.66-0.1,0.98-0.03C161.9,162.41,162.86,162.98,163.6,163.58z"/>
			<path class="st11" d="M163.96,166.76c-0.59-0.08-1.16,0.15-1.72,0.34c-0.56,0.2-1.17,0.36-1.73,0.16
				c-0.56-0.2-0.95-0.92-0.61-1.41c0.26-0.37,0.8-0.42,1.25-0.37C162.21,165.59,163.24,166,163.96,166.76z"/>
			<path class="st11" d="M164.38,169.15c-0.39,0.28-0.88,0.34-1.35,0.43c-0.47,0.09-0.97,0.23-1.26,0.61
				c-0.29,0.38-0.23,1.05,0.22,1.21c0.32,0.11,0.67-0.08,0.95-0.28C163.53,170.67,164.04,170.12,164.38,169.15z"/>
			<path class="st11" d="M165.11,172.74c-0.14,0.39-0.56,0.6-0.91,0.82c-0.35,0.23-0.7,0.6-0.59,1.01c0.15,0.55,1.05,0.51,1.37,0.03
				C165.29,174.12,165.2,173.49,165.11,172.74z"/>
		</g>
	</g>
	<g id="Beak_1_">
		<path id="Beak" class="st31" d="M210.41,169.39c1.06,1.14,3.01,0.97,4.58,0.54c1.56-0.42,3.28-0.99,4.76-0.35
			c0.79,0.34,1.38,0.99,2.13,1.42s1.85,0.55,2.4-0.08c0.3-0.34,0.34-0.82,0.34-1.26c0-3.23-1.84-6.41-4.75-8.2
			c-1.84-1.13-4.28-1.7-6.27-0.81c-3.85,1.73-3.76,7.62-7.73,9.13c1.5,2.22,4.27,3.65,7.1,3.68s5.64-1.35,7.19-3.53"/>
		
			<ellipse transform="matrix(0.2211 -0.9752 0.9752 0.2211 4.9419 336.3923)" class="st21" cx="213.07" cy="165.1" rx="1.62" ry="0.88"/>
	</g>
	<g id="Eye_2_">
		<path id="Eye_1_" class="st9" d="M198.59,166.25c1.43-1.09,3.86-3.59,6.89-4.44c0.58-0.16,1.23-0.23,1.65-0.66
			c0.62-0.62,0.52-1.68,0.14-2.47c-0.91-1.91-3.14-3.01-5.24-2.8c-2.1,0.21-3.99,1.6-5.05,3.43c-0.68,1.17-1.04,2.56-0.83,3.9
			C196.36,164.54,197.63,166.97,198.59,166.25z"/>
		<path class="st32" d="M201.28,156.24c-1.53,0.44-2.78,1.76-3.14,3.31c-0.36,1.55,0.17,3.28,1.35,4.36c0.21,0.2,0.85,0.9,1.07,0.72
			c1.63-1.34,2.81-2.15,4.93-2.82c0.87-0.27,1.25-0.34,1.75-1.1c0.41-0.64,0.33-1.51-0.05-2.16c-0.38-0.65-0.97-1.45-1.65-1.8
			c-1.33-0.69-3.18-0.75-4.67-0.63"/>
		<path class="st21" d="M202.48,156.15c-1.42-0.08-2.77,1.12-2.92,2.54c-0.14,1.42,0.88,2.84,2.26,3.22
			c1.37,0.38,2.94-0.28,3.69-1.49c0.36-0.59,0.55-1.3,0.46-1.98c-0.12-0.89-0.71-1.69-1.5-2.1c-0.79-0.41-1.77-0.44-2.6-0.12"/>
		<circle class="st9" cx="203.08" cy="159" r="0.62"/>
		<path class="st9" d="M204.2,157.57c0.46,0,0.8,0.45,0.95,1.05c0.03,0.11,0.08,0.25,0.15,0.21c0.03-0.02,0.05-0.07,0.06-0.12
			c0.09-0.4,0.03-0.88-0.15-1.24c-0.18-0.35-0.47-0.56-0.74-0.53c-0.12,0.01-0.33,0.08-0.37,0.2
			C204.04,157.37,204.13,157.57,204.2,157.57z"/>
		<path id="Eye_3_" class="st33" d="M198.59,166.25c1.43-1.09,3.86-3.59,6.89-4.44c0.58-0.16,1.23-0.23,1.65-0.66
			c0.62-0.62,0.52-1.68,0.14-2.47c-0.91-1.91-3.14-3.01-5.24-2.8c-2.1,0.21-3.99,1.6-5.05,3.43c-0.68,1.17-1.04,2.56-0.83,3.9
			C196.36,164.54,197.63,166.97,198.59,166.25z"/>
	</g>
</g>
<g id="Baby_bird_right_feet" class="st3">
	<g class="st34">
		<path class="st35" d="M262.89,259.12c-0.12-3.36,0.34-4.87,0.67-7.29c0.13-0.96,0.36-2.06,1.09-2.52c0.7-0.44,1.51-0.08,2.21,0.28
			c0.72,0.37,1.51,0.84,1.74,1.74c0.17,0.69-0.05,1.45-0.32,2.12C267.19,256.11,263,262.24,262.89,259.12z"/>
		<path class="st36" d="M253.72,257.87c0.25,0.44,0.5,0.89,0.84,1.21c0.34,0.32,0.81,0.49,1.21,0.31c0.59-0.26,0.85-1.11,1.02-1.86
			c0.3-1.34,0.56-2.72,0.49-4.11c-0.07-1.38-0.5-2.79-1.37-3.65c-0.86-0.86-2.2-1.04-3.08-0.19c-1.04,0.98-1.15,2.92-0.77,4.46
			C252.43,255.58,253.2,256.93,253.72,257.87z"/>
		<path class="st37" d="M257.37,255.65c-0.92-0.77-2.34-0.6-3.19,0.38c-0.29,0.34-0.62,0.8-1,0.68c-0.22-0.07-0.35-0.31-0.47-0.54
			c-0.51-0.99-1.03-2.01-1.2-3.17c-0.18-1.16,0.06-2.51,0.84-3.3c0.57-0.57,1.33-0.77,2.05-0.89c0.55-0.09,1.15-0.13,1.59,0.24
			c0.47,0.39,0.62,1.13,0.72,1.81C256.91,252.35,257.01,253.87,257.37,255.65z"/>
		<path class="st38" d="M257,248.07c0.97-1.07,2.65-1.27,3.49-1.39c1-0.15,2.12-0.26,2.87,0.49c0.79,0.79,0.85,2.23,0.74,3.49
			c-0.27,3.07-2.04,7.4-2.04,7.4c-0.22,0.62-1.38,2.87-2.07,2.98c-0.59,0.1-1.71-2.46-2.04-3.02
			C257.61,257.46,255.4,249.83,257,248.07z"/>
		<path class="st39" d="M262.89,255.47c1.22,0.06,2.37,0.93,2.91,2.21c0,0,2.62-2.85,2.7-5.12c0.03-0.83-0.32-1.62-0.83-2.15
			c-0.51-0.53-1.17-0.84-1.84-1.01c-0.41-0.1-0.92-0.11-1.17,0.31c-0.16,0.27-0.15,0.61-0.16,0.94
			C264.45,252.43,263.74,254.21,262.89,255.47z"/>
		<path class="st39" d="M263.12,255.34c-1.8-0.85-3.96-0.66-5.73,0.49c0,0-0.7-2.47-1.04-3.71c-0.34-1.25-0.4-2.76,0.33-3.8
			c0.49-0.7,1.25-1.05,1.99-1.28c1.25-0.4,2.54-0.57,3.81-0.51c0.74,0.04,1.55,0.2,1.99,0.89c0.32,0.51,0.37,1.19,0.35,1.84
			C264.78,251.34,264.22,253.44,263.12,255.34z"/>
	</g>
	<g class="st34">
		<path class="st41" d="M245.58,253.92c-0.65-1.45-2.49-2.13-3.84-1.41c-1.35,0.71-1.96,2.68-1.28,4.11
			c0.63,1.32,2.04,1.96,3.34,2.49c0.67,0.27,1.5,0.52,2.05,0.02C245.25,257.52,245.21,255.67,245.58,253.92z"/>
		<path class="st41" d="M248.8,253.52c-1.22-0.5-2.65-0.98-3.76-0.24c-0.66,0.44-1.06,1.26-1.16,2.08c-0.1,0.83,0.05,1.67,0.28,2.47
			c0.68,2.36,2.25,4.64,4.51,5.16c0.4,0.09,0.84,0.12,1.17-0.14c0.34-0.27,0.45-0.77,0.39-1.21c-0.06-0.44-0.25-0.85-0.42-1.26
			C248.93,258.19,248.84,255.67,248.8,253.52z"/>
		<path class="st41" d="M248.95,253.89c0.87-0.52,2.03-0.31,2.82,0.36s1.22,1.72,1.35,2.78s-0.01,2.14-0.21,3.18
			c-0.09,0.48-0.21,0.97-0.48,1.36c-0.28,0.39-0.77,0.65-1.21,0.5c-0.39-0.13-0.64-0.55-0.83-0.94c-0.84-1.68-1.38-3.54-1.58-5.43
			C248.73,254.96,248.82,253.97,248.95,253.89z"/>
		<path class="st42" d="M244.8,252.91c-1.06-0.67-2.41-0.77-3.55-0.28c-0.3,0.13-0.59,0.31-0.76,0.6c-0.17,0.29-0.18,0.71,0.06,0.94
			c0.2,0.2,0.51,0.2,0.78,0.23c0.95,0.12,1.83,0.76,2.27,1.65C243.78,254.96,244.28,253.91,244.8,252.91z"/>
		<path class="st42" d="M248.75,253.74c-1.06-1.26-3.15-1.27-4.21-0.03c-1.07,1.24-0.88,3.46,0.39,4.47
			c1.01-1.03,2.53-1.45,3.88-1.07C248.54,256,248.51,254.82,248.75,253.74z"/>
		<path class="st42" d="M248.9,254.04c0.36-0.63,1.16-0.87,1.83-0.67c0.67,0.2,1.2,0.75,1.55,1.39c0.35,0.64,0.53,1.36,0.72,2.07
			c-1.38-0.31-2.87,0.01-4.03,0.86C248.15,256.46,248.48,254.76,248.9,254.04z"/>
	</g>
</g>
<path id="Middle_cloud_layer" class="st43" d="M247.91,259.26c7.56-3.1,18.87-2.17,24.39,3.86c-2.4-14.62,11.78-23.14,21.76-16.87
	c1.45-10.77,13.2-23.72,28.24-16.14c3.62,1.82,5.92,5.7,6.47,9.71s-0.43,8.1-1.93,11.86c4,3,6.17,8.27,5.44,13.22
	c-0.73,4.95-4.34,9.36-9.04,11.07c2.93,5.6,2.1,12.94-2.01,17.74c-4.11,4.8-11.23,6.76-17.22,4.74
	c-6.56,11.16-20.26,17.65-33.05,15.66c-7.05,14.99-36.39-5.41-28.15-22.94c-5.97-5.2-8.71-13.84-6.83-21.54
	C237.86,261.94,244.25,260.76,247.91,259.26z"/>
<g id="cloud_front">
	<path id="Cloud_front" class="st0" d="M172.02,230.31c-4.22-5.68-16.43-9.24-24.97-7.18c-9.12,2.21-17.65,7.35-23.22,14.9
		c-5.58,7.55-7.98,17.55-5.68,26.65s10.78,17.72,19.42,20.72c0.4-2.07-0.45-4.9-0.05-6.97c-0.81,13.17,7.68,26.38,19.99,31.13
		c12.31,4.75,27.47,0.65,35.71-9.65c-4.53,4.89-8.91,7.19-13.93,10.04c2.49,5.77,10.53,8.94,16.81,9.26
		c6.28,0.32,12.42-1.69,18.38-3.67c3.6,5.86,10.61,8.87,17.46,9.48c22.96,2.02,34.17-0.72,40.67-7.86
		c11.13-12.2,14.8-24.18,11.14-40.48c-2.26-10.06-14.05-21.23-17-20.08c-3.78-4.5-10.16-6.65-15.89-5.35
		c-6.21-7.47-15.14-12.63-24.72-14.27s-19.72,0.24-28.06,5.21c4.13,4.13,6.78,8.98,9.49,13.32c-7.08-12.34-14.2-19.45-24.61-23.23
		c-10.41-3.78-22.2-1.6-32.49,2.5C156.62,231.06,172.02,230.31,172.02,230.31z"/>
	<path class="st9" d="M143.34,240.6c0.16-4.12-0.41-6.43,5.1-12.51c-4.72-1.17-12.33,0.88-16.21,3.81
		c-3.88,2.92-6.66,7.09-8.8,11.45c-1.88,3.84-3.34,8-3.34,12.28c0,4.28,1.64,8.71,5.02,11.34c3.38,2.63,8.6,2.99,11.87,0.24
		c0.11,1.03,1.16,1.7,2.18,1.91s2.08,0.13,3.06,0.44c1.9,0.59,3.07,2.43,4.21,4.05c9.32,13.31,27.46,19.72,43.42,16.23
		c2.96-1.49,10.69,5.35,8.77,8.05c-3.48,4.91-4.64,14.32-0.77,16.21c4.73,2.3,11.2-0.83,16.98-2.79c12.47-4.23,9.66,5.52,38.51-1.13
		c2.55-0.59-1.22,5.31-3.23,6.99c6.46-0.77,11.49-4.05,14.98-9.53c4.98-7.82,8.12-15.58,4.64-23.5c3.18-1.82,3.99-8.02,1.12-10.3
		s-4.82-2.48-8.49-2.55c-2.28-6.96-8.46-12.49-15.62-14c-3.86-4.46-7.82-9.02-12.96-11.9c-5.14-2.89-11.79-3.82-16.88-0.85
		c-5.09,2.98-7.4,10.58-3.63,15.12c-5.26-1.63-11.4,0.01-15.14,4.06c-3.15-9.71-10.7-17.89-20.12-21.8
		c-9.42-3.91-20.55-3.48-29.64,1.14c-1.27-1.62-3.36-2.55-5.41-2.43"/>
</g>
<g id="Layer_8">
	<path class="st10" d="M279.6,229.36c-4.04,2.56-6.43,7.19-7.26,11.9c-0.83,4.71-0.28,9.55,0.45,14.28
		c1.04,6.77,2.43,13.5,4.18,20.12c2.89-3.33,4.87-7.43,5.7-11.76c0.73,1.73,2.11,3.18,3.8,4.01c2.17-3.62,3.2-7.92,2.9-12.14
		c0.93,1.91,2.19,3.66,3.72,5.15c2.03-5.34,2.12-11.39,0.23-16.78c1.79,2.38,4.36,4.16,7.21,5c-0.39-5.69-2.31-11.26-5.51-15.98
		c0.4,2.68,2.91,4.88,5.62,4.91c-2.74-6.64-7.1-12.61-12.6-17.24c-1.61-1.35-3.38-2.63-5.43-3.1s-4.44,0.02-5.73,1.69
		c-1.13,1.46-1.2,3.53-0.63,5.29c0.57,1.76,1.68,3.28,2.77,4.77"/>
	<path class="st11" d="M279.4,256.16c0.73,6.16-0.43,12.53-3.3,18.02c-0.34,0.76,0.69,1.55,1.49,1.34c0.81-0.22,1.31-0.99,1.72-1.72
		c1.4-2.5,2.54-5.22,2.75-8.08C282.28,262.87,281.46,259.84,279.4,256.16z"/>
	<path class="st11" d="M294.27,246.18c-0.43,0.24-0.65,0.74-0.69,1.23c-0.04,0.49,0.06,0.97,0.13,1.46c0.33,2.43-0.3,4.91-1.42,7.1
		c-0.46,0.89-1.01,1.79-1.08,2.79s0.56,2.15,1.56,2.22c0.63,0.05,1.24-0.35,1.6-0.87c0.36-0.52,0.53-1.15,0.67-1.77
		C295.91,254.42,295.92,250.12,294.27,246.18z"/>
	<path class="st11" d="M297,238.02c1.65,3.01,1.78,6.81,0.32,9.92c1.13,0.72,2.26,1.45,3.39,2.17
		C300.28,246.46,299.8,242.65,297,238.02z"/>
	<path class="st11" d="M287.78,253.31c-0.2-0.11-0.4-0.22-0.6-0.32c0.19,4.24-0.94,8.52-3.19,12.12c0.8,0.96,1.59,1.92,2.39,2.89
		c0.16,0.19,0.34,0.39,0.58,0.45c0.49,0.1,0.85-0.42,1.05-0.88C289.96,263.02,289.66,257.59,287.78,253.31z"/>
	<path class="st12" d="M279.55,229.33c-4.87,4.68-8.02,11.12-8.73,17.83c1.63,0.41,3.42,0.12,4.84-0.78s2.44-2.4,2.76-4.05"/>
	<path class="st12" d="M271.83,247.73c0.2,9.91,1.84,19.79,4.87,29.23c4.05-3.43,6.25-8.92,5.69-14.19"/>
	<path class="st12" d="M278.63,249.17c0.61,7.48,3.72,15.02,8.1,21.11c3.02-5.46,3.46-12.27,1.17-18.07"/>
	<path class="st12" d="M286.66,245.42c0.47,6.48,2.94,12.8,6.98,17.89c3.37-8.39,1.72-18.58-4.14-25.47"/>
	<path class="st12" d="M293.7,245.37c3.29,4.07,4.68,4.27,7.5,5.51c0.39-7.34-3.09-14.77-8.98-19.18"/>
	<path class="st12" d="M298.71,238.35c0.76,0.13,1.53,0.26,2.29,0.39c-0.69-5.04-4.13-9.21-7.43-13.08
		c-2.08-2.44-4.24-4.95-7.07-6.45c-2.84-1.51-6.56-1.8-9.12,0.13"/>
</g>
<g id="Hearts_1_" class="st3">
	<path class="st44" d="M299.09,53.59c3.87-2.58,6.44-6.09,7.78-10.84c1.34-4.75,1.24-10.08-0.71-14.3
		c-1.96-4.22-5.28-6.98-9.09-8.05c-3.8-1.07-8.42,0.76-12.28,3.34l-4.65,3.1l-2.36-5.07c-1.96-4.22-4.95-8.18-8.75-9.25
		c-3.8-1.07-8.08-0.44-11.95,2.14c-3.87,2.58-6.69,7.09-8.03,11.84c-1.34,4.75-1,9.08,0.96,13.3c4.91,10.23,9.4,19.84,13.78,30.41
		c0.65,1.39,1.78,2.92,3.22,3.33c1.44,0.41,3.2-0.31,4.48-1.16C280.63,65.44,289.64,59.89,299.09,53.59L299.09,53.59z"/>
	<path class="st45" d="M269.35,11.34c-4.06-1.14-8.64-0.46-12.76,2.29c-4.17,2.78-7.14,7.56-8.55,12.59
		c-1.41,5.03-1.05,9.78,1.02,14.22c0,0,0,0.01,0.01,0.01c4.9,10.22,9.39,19.81,13.75,30.35c0.01,0.01,0.02,0.03,0.03,0.04
		c0.73,1.57,1.94,3.34,3.83,3.88c1.89,0.53,3.86-0.35,5.3-1.31c0.02-0.01,0.04-0.02,0.06-0.04c9.09-6.88,18.06-12.42,27.53-18.74
		c4.07-2.72,6.9-6.56,8.31-11.6c1.42-5.04,1.33-10.67-0.78-15.21c-2.09-4.49-5.64-7.46-9.7-8.6c-4.24-1.19-9.08,0.81-13.09,3.48
		l-3.71,2.47l-1.87-4.04C276.69,16.76,273.59,12.53,269.35,11.34z M268.69,13.69c3.36,0.95,6.25,4.65,8.14,8.71l2.35,5.07
		c0.13,0.27,0.35,0.47,0.62,0.54c0.27,0.08,0.56,0.02,0.81-0.14l4.66-3.1c3.73-2.48,8.11-4.14,11.47-3.2c3.54,1,6.64,3.57,8.47,7.51
		c1.81,3.89,1.91,8.91,0.65,13.38c-1.26,4.47-3.59,7.66-7.25,10.1c-9.41,6.27-18.41,11.83-27.59,18.78
		c-1.12,0.75-2.68,1.3-3.68,1.02c-1-0.28-2.03-1.56-2.6-2.79c-4.38-10.57-8.88-20.19-13.78-30.4l0-0.02
		c-1.84-3.98-2.15-7.9-0.89-12.37c1.26-4.48,3.93-8.72,7.49-11.09C261.16,13.28,265.15,12.69,268.69,13.69L268.69,13.69z
		 M267.41,18.54c-0.26-0.08-0.57,0.01-0.8,0.25c-0.33,0.36-0.2,0.65-0.09,1.26c0.57,3.11,1,2.1,1.11-0.04
		c0.03-0.62,0.35-0.95,0.09-1.26C267.63,18.64,267.53,18.57,267.41,18.54L267.41,18.54z M264.45,18.96
		c-0.29-0.09-0.56,0.38-0.52,1.42c0.07,1.54,1.39,2.08,1.16,0.09c-0.08-0.69-0.25-1.14-0.44-1.36
		C264.58,19.03,264.51,18.98,264.45,18.96z M295.45,28.08c-0.12-0.03-0.25-0.03-0.38,0.02c-0.38,0.13-0.29,0.58-0.58,1.12
		c-1.01,1.89-1.18,2.98,0.93,0.62c0.41-0.46,0.67-0.64,0.58-1.12C295.93,28.38,295.71,28.14,295.45,28.08L295.45,28.08z
		 M261.3,19.27c-0.27-0.07-0.63,0.05-0.85,0.3c-0.34,0.37-0.37,0.97-0.07,1.33c0.31,0.37,1.4,1.41,1.85,1.29
		c0.38-0.1-0.23-1.72-0.61-2.63c-0.02-0.06-0.06-0.11-0.09-0.15C261.48,19.34,261.39,19.3,261.3,19.27L261.3,19.27z M297.75,29.98
		c-0.07-0.02-0.15-0.01-0.25,0.02c-0.28,0.09-0.66,0.39-1.08,0.94c-1.24,1.58,0.18,1.8,1.04,0.53
		C298.03,30.6,298.05,30.06,297.75,29.98z M300.27,31.88c-0.09-0.03-0.18-0.03-0.27,0c-0.05,0.02-0.1,0.04-0.15,0.08
		c-0.8,0.58-2.16,1.65-1.89,1.93c0.32,0.34,1.8,0.02,2.25-0.14s0.74-0.68,0.64-1.17C300.78,32.26,300.54,31.96,300.27,31.88
		L300.27,31.88z M259.15,22.45c-0.26-0.06-0.62,0.07-0.82,0.29c-0.32,0.35-0.34,0.92-0.04,1.28s1.92,0.93,2.21,0.55
		c0.29-0.37-0.91-1.08-1.05-1.8c-0.01-0.08-0.04-0.14-0.09-0.19C259.32,22.51,259.24,22.47,259.15,22.45L259.15,22.45z
		 M300.45,35.71c-0.08-0.03-0.17-0.03-0.25-0.01c-0.06,0.02-0.12,0.06-0.17,0.12c-0.5,0.55-1.88,0.53-1.83,0.99
		c0.05,0.47,1.73,0.83,2.17,0.68c0.44-0.15,0.73-0.64,0.63-1.11C300.95,36.1,300.71,35.8,300.45,35.71L300.45,35.71z M258.75,26.28
		c-0.21-0.06-0.39-0.07-0.61,0.08c-0.4,0.28-0.47,0.71-0.06,0.93c0.28,0.15,0.52,0.14,0.82-0.02c0.48-0.26,0.58-0.52,0.42-0.71
		c-0.07-0.09-0.2-0.16-0.37-0.22C258.89,26.32,258.82,26.3,258.75,26.28L258.75,26.28z M298.8,39.19c-0.07-0.02-0.14-0.04-0.22-0.06
		c-0.17-0.04-0.32-0.04-0.42-0.01c-0.24,0.08-0.29,0.36-0.01,0.83c0.17,0.29,0.38,0.43,0.69,0.44c0.46,0.02,0.63-0.37,0.43-0.82
		C299.17,39.34,299,39.26,298.8,39.19L298.8,39.19z M280.09,56.39c-0.59-0.13-1.1,1.05-2.11,1.77c-1.39,1-2.81,1.9-1.99,2.76
		c1.32,1.32,4.93-3.85,4.26-4.46c-0.01-0.01-0.02-0.02-0.04-0.03C280.17,56.41,280.13,56.4,280.09,56.39L280.09,56.39z"/>
	<path class="st44" d="M239.15,91.36c1.75-3.09,2.33-6.41,1.68-10.2c-0.65-3.79-2.45-7.51-5.14-9.84s-5.81-3.18-8.71-2.68
		c-2.89,0.5-5.39,3.31-7.14,6.4l-2.11,3.72l-3.23-2.8c-2.69-2.32-5.98-4.13-8.87-3.63c-2.89,0.5-5.56,2.35-7.31,5.44
		c-1.75,3.09-2.17,7.2-1.52,10.99c0.65,3.79,2.29,6.73,4.98,9.05c6.62,5.59,12.76,10.88,19.13,16.88c0.89,0.77,2.14,1.47,3.24,1.28
		c1.1-0.19,2.05-1.27,2.62-2.3C230.65,105.79,234.87,98.91,239.15,91.36L239.15,91.36z"/>
	<path class="st45" d="M205.47,71.39c-3.09,0.53-5.94,2.52-7.8,5.81c-1.89,3.33-2.32,7.68-1.63,11.69c0.69,4.01,2.48,7.23,5.31,9.68
		c0,0,0,0,0.01,0.01c6.61,5.59,12.74,10.87,19.1,16.85c0.01,0.01,0.02,0.01,0.03,0.02c1,0.86,2.39,1.72,3.83,1.47
		s2.47-1.52,3.12-2.67c0.01-0.02,0.02-0.03,0.03-0.05c3.84-7.84,8.05-14.7,12.34-22.27c1.84-3.25,2.48-6.89,1.79-10.91
		c-0.69-4.01-2.58-7.96-5.48-10.46c-2.86-2.48-6.21-3.4-9.3-2.86c-3.23,0.56-5.82,3.56-7.63,6.77l-1.68,2.96l-2.57-2.23
		C212.15,72.79,208.7,70.83,205.47,71.39z M205.79,73.26c2.56-0.44,5.7,1.21,8.29,3.45l3.23,2.8c0.17,0.15,0.39,0.22,0.59,0.18
		c0.2-0.04,0.38-0.17,0.5-0.37l2.11-3.72c1.69-2.98,4.08-5.59,6.64-6.03c2.7-0.47,5.61,0.33,8.12,2.5c2.48,2.15,4.18,5.65,4.8,9.21
		c0.61,3.56,0.09,6.58-1.57,9.5c-4.26,7.52-8.48,14.4-12.37,22.31c-0.51,0.9-1.37,1.8-2.13,1.93c-0.76,0.13-1.87-0.43-2.65-1.11
		c-6.38-6-12.53-11.3-19.14-16.88l-0.01-0.02c-2.53-2.2-4.01-4.86-4.63-8.42c-0.62-3.57-0.21-7.43,1.41-10.28
		C200.61,75.45,203.09,73.73,205.79,73.26L205.79,73.26z M206.51,77.1c-0.2,0.03-0.38,0.19-0.45,0.44
		c-0.11,0.36,0.08,0.53,0.35,0.92c1.4,2.01,1.35,1.15,0.73-0.4c-0.18-0.44-0.08-0.79-0.35-0.92C206.7,77.1,206.6,77.09,206.51,77.1
		L206.51,77.1z M204.67,78.38c-0.23,0.03-0.25,0.45,0.11,1.18c0.55,1.06,1.61,1.01,0.81-0.32c-0.28-0.46-0.54-0.72-0.74-0.82
		C204.78,78.38,204.72,78.37,204.67,78.38z M228.4,74.59c-0.09,0.02-0.18,0.06-0.25,0.14c-0.21,0.21,0,0.5-0.02,0.98
		c-0.06,1.66,0.18,2.49,0.82,0.13c0.13-0.46,0.24-0.67,0.02-0.98C228.82,74.64,228.6,74.55,228.4,74.59L228.4,74.59z M202.66,79.63
		c-0.21,0.04-0.4,0.24-0.47,0.49c-0.11,0.37,0.06,0.8,0.39,0.96c0.32,0.16,1.4,0.53,1.66,0.3c0.22-0.2-0.71-1.14-1.26-1.66
		c-0.03-0.03-0.07-0.06-0.11-0.07C202.8,79.62,202.73,79.62,202.66,79.63L202.66,79.63z M230.56,75.17
		c-0.05,0.01-0.11,0.04-0.16,0.1c-0.15,0.16-0.31,0.49-0.42,1.02c-0.31,1.52,0.71,1.21,0.87,0.03
		C230.95,75.51,230.79,75.13,230.56,75.17z M232.87,75.68c-0.07,0.01-0.13,0.04-0.18,0.09c-0.03,0.03-0.06,0.06-0.08,0.11
		c-0.35,0.67-0.91,1.87-0.64,1.98c0.33,0.13,1.21-0.58,1.47-0.84c0.25-0.26,0.27-0.72,0.05-1.04
		C233.33,75.77,233.08,75.65,232.87,75.68L232.87,75.68z M202.26,82.58c-0.19,0.04-0.39,0.25-0.46,0.48
		c-0.1,0.35,0.07,0.76,0.39,0.91c0.32,0.15,1.59,0.02,1.66-0.34c0.07-0.36-0.96-0.46-1.29-0.93c-0.04-0.05-0.08-0.08-0.12-0.1
		C202.39,82.57,202.32,82.56,202.26,82.58L202.26,82.58z M234.24,78.32c-0.07,0.01-0.12,0.03-0.17,0.08
		c-0.03,0.03-0.06,0.08-0.08,0.14c-0.15,0.55-1.09,0.99-0.9,1.3c0.19,0.32,1.43,0.01,1.68-0.24c0.25-0.25,0.28-0.69,0.06-0.99
		C234.7,78.43,234.44,78.3,234.24,78.32L234.24,78.32z M203.24,85.41c-0.16,0.03-0.29,0.08-0.38,0.26
		c-0.18,0.33-0.08,0.65,0.26,0.67c0.24,0.02,0.4-0.07,0.54-0.28c0.24-0.34,0.22-0.56,0.05-0.64c-0.08-0.04-0.19-0.05-0.32-0.03
		C203.35,85.39,203.29,85.4,203.24,85.41L203.24,85.41z M234.27,81.32c-0.05,0.01-0.11,0.02-0.16,0.03
		c-0.13,0.03-0.23,0.07-0.29,0.14c-0.13,0.14-0.07,0.35,0.26,0.59c0.21,0.15,0.39,0.18,0.61,0.08c0.32-0.14,0.3-0.47,0.02-0.72
		C234.56,81.3,234.42,81.29,234.27,81.32L234.27,81.32z M227.34,99.59c-0.44,0.1-0.39,1.1-0.83,1.94c-0.61,1.16-1.27,2.27-0.44,2.6
		c1.32,0.5,2.05-4.34,1.4-4.54c-0.01,0-0.02-0.01-0.03-0.01C227.4,99.58,227.37,99.59,227.34,99.59L227.34,99.59z"/>
	<path class="st44" d="M246.99,151.23c1.76-1.44,2.79-3.24,3.09-5.54c0.3-2.3-0.17-4.78-1.5-6.63s-3.24-2.93-5.26-3.19
		c-2.02-0.26-4.22,0.87-5.97,2.32l-2.12,1.74l-1.6-2.22c-1.33-1.85-3.16-3.51-5.18-3.77c-2.02-0.26-4.14,0.3-5.9,1.74
		s-2.83,3.72-3.13,6.02c-0.3,2.3,0.22,4.3,1.55,6.14c3.31,4.47,6.35,8.67,9.42,13.33c0.44,0.61,1.14,1.25,1.9,1.35
		c0.77,0.1,1.6-0.34,2.18-0.82C238.56,157.9,242.69,154.75,246.99,151.23L246.99,151.23z"/>
	<path class="st45" d="M228.52,133.36c-2.15-0.28-4.42,0.32-6.3,1.86c-1.9,1.55-3.02,3.97-3.34,6.4c-0.32,2.43,0.25,4.62,1.65,6.57
		c0,0,0,0,0,0.01c3.3,4.47,6.34,8.66,9.4,13.31c0.01,0.01,0.01,0.01,0.02,0.02c0.49,0.69,1.25,1.44,2.25,1.57
		c1,0.13,1.93-0.4,2.59-0.94c0.01-0.01,0.02-0.01,0.03-0.02c4.07-3.77,8.19-6.91,12.49-10.44c1.85-1.52,2.98-3.49,3.3-5.92
		c0.32-2.44-0.17-5.06-1.61-7.05c-1.42-1.97-3.46-3.13-5.61-3.41c-2.25-0.29-4.55,0.94-6.37,2.44l-1.69,1.38l-1.27-1.77
		C232.68,135.44,230.77,133.66,228.52,133.36z M228.38,134.5c1.78,0.23,3.54,1.78,4.83,3.56l1.6,2.22c0.09,0.12,0.21,0.2,0.36,0.22
		c0.14,0.02,0.29-0.02,0.4-0.12l2.12-1.73c1.69-1.39,3.79-2.43,5.57-2.2c1.88,0.25,3.66,1.25,4.9,2.98c1.23,1.7,1.68,4.04,1.4,6.2
		c-0.28,2.16-1.21,3.79-2.88,5.16c-4.28,3.51-8.41,6.66-12.52,10.47c-0.51,0.42-1.26,0.77-1.79,0.7c-0.53-0.07-1.16-0.6-1.54-1.14
		c-3.07-4.66-6.12-8.87-9.42-13.33l0-0.01c-1.25-1.74-1.72-3.55-1.44-5.71c0.28-2.17,1.3-4.31,2.92-5.64
		C224.52,134.77,226.5,134.26,228.38,134.5L228.38,134.5z M228.11,136.84c-0.14-0.02-0.29,0.04-0.38,0.17
		c-0.14,0.19-0.05,0.32,0.05,0.59c0.54,1.42,0.67,0.92,0.56-0.09c-0.03-0.29,0.1-0.47-0.05-0.59
		C228.23,136.88,228.17,136.85,228.11,136.84L228.11,136.84z M226.64,137.22c-0.16-0.02-0.25,0.21-0.15,0.7
		c0.16,0.71,0.87,0.89,0.6-0.03c-0.09-0.31-0.22-0.52-0.33-0.61C226.71,137.25,226.67,137.23,226.64,137.22z M243.11,139.56
		c-0.06-0.01-0.13,0-0.19,0.03c-0.18,0.08-0.1,0.29-0.2,0.56c-0.37,0.94-0.36,1.46,0.52,0.23c0.17-0.24,0.29-0.34,0.2-0.56
		C243.38,139.67,243.25,139.57,243.11,139.56L243.11,139.56z M225.07,137.56c-0.14-0.02-0.31,0.06-0.41,0.19
		c-0.15,0.19-0.11,0.47,0.07,0.63c0.19,0.15,0.82,0.57,1.04,0.49c0.18-0.07-0.25-0.79-0.52-1.19c-0.02-0.03-0.04-0.05-0.06-0.06
		C225.16,137.59,225.12,137.57,225.07,137.56L225.07,137.56z M244.43,140.3c-0.04,0-0.08,0-0.13,0.03c-0.13,0.06-0.3,0.22-0.48,0.5
		c-0.5,0.81,0.23,0.83,0.57,0.18C244.62,140.57,244.59,140.32,244.43,140.3z M245.87,141.03c-0.05-0.01-0.1,0-0.14,0.02
		c-0.03,0.01-0.05,0.03-0.07,0.05c-0.36,0.32-0.97,0.9-0.81,1.02c0.19,0.14,0.92-0.1,1.13-0.2c0.22-0.1,0.32-0.36,0.23-0.59
		C246.15,141.18,246.01,141.06,245.87,141.03L245.87,141.03z M224.23,139.18c-0.14-0.01-0.31,0.07-0.4,0.19
		c-0.14,0.18-0.1,0.45,0.08,0.6c0.18,0.15,1.05,0.32,1.17,0.12c0.12-0.19-0.55-0.45-0.67-0.78c-0.01-0.04-0.03-0.06-0.06-0.08
		C224.32,139.2,224.27,139.18,224.23,139.18L224.23,139.18z M246.26,142.81c-0.05-0.01-0.09-0.01-0.13,0.01
		c-0.03,0.01-0.06,0.03-0.08,0.06c-0.21,0.29-0.91,0.36-0.85,0.58c0.06,0.22,0.94,0.28,1.16,0.18c0.21-0.1,0.32-0.35,0.23-0.56
		C246.54,142.96,246.4,142.83,246.26,142.81L246.26,142.81z M224.33,140.99c-0.11-0.01-0.21-0.01-0.3,0.08
		c-0.18,0.16-0.18,0.36,0.04,0.44c0.15,0.05,0.28,0.03,0.42-0.06c0.22-0.15,0.25-0.28,0.16-0.36c-0.04-0.04-0.11-0.06-0.2-0.08
		C224.4,141,224.37,141,224.33,140.99L224.33,140.99z M245.7,144.54c-0.04-0.01-0.07-0.01-0.12-0.01c-0.09-0.01-0.16,0-0.22,0.02
		c-0.11,0.05-0.12,0.19,0.06,0.39c0.11,0.13,0.22,0.18,0.39,0.16c0.24-0.02,0.29-0.21,0.16-0.41
		C245.9,144.58,245.81,144.55,245.7,144.54L245.7,144.54z M237.56,153.72c-0.31-0.02-0.47,0.56-0.93,0.96
		c-0.63,0.55-1.28,1.06-0.79,1.41c0.78,0.54,2.2-2.1,1.81-2.34c-0.01,0-0.01-0.01-0.02-0.01
		C237.61,153.72,237.58,153.72,237.56,153.72L237.56,153.72z"/>
</g>
</svg>
