<svg width="482" height="480" viewBox="0 0 482 480" fill="none" xmlns="http://www.w3.org/2000/svg">
<path d="M358.74 424H199.23C189.965 424 182.479 416.511 182.479 407.242V166.342C182.479 157.073 189.965 149.584 199.23 149.584H358.792C368.058 149.584 375.544 157.073 375.544 166.342V407.242C375.544 416.511 368.006 424 358.74 424Z" fill="#C5C8FB" stroke="#C5C9FB" stroke-miterlimit="10"/>
<path d="M393.398 146.976C395.133 146.976 396.539 145.569 396.539 143.834C396.539 142.098 395.133 140.691 393.398 140.691C391.664 140.691 390.257 142.098 390.257 143.834C390.257 145.569 391.664 146.976 393.398 146.976Z" stroke="black" stroke-width="4" stroke-miterlimit="10"/>
<path d="M123.141 47.2843C124.876 47.2843 126.282 45.8775 126.282 44.1422C126.282 42.4068 124.876 41 123.141 41C121.406 41 120 42.4068 120 44.1422C120 45.8775 121.406 47.2843 123.141 47.2843Z" stroke="black" stroke-width="4" stroke-miterlimit="10"/>
<path d="M59.141 349.284C60.8757 349.284 62.282 347.878 62.282 346.142C62.282 344.407 60.8757 343 59.141 343C57.4063 343 56 344.407 56 346.142C56 347.878 57.4063 349.284 59.141 349.284Z" stroke="black" stroke-width="4" stroke-miterlimit="10"/>
<path d="M105.42 212.689V219.392" stroke="black" stroke-width="4" stroke-miterlimit="10" stroke-linecap="round"/>
<path d="M102.069 216.041H108.77" stroke="black" stroke-width="4" stroke-miterlimit="10" stroke-linecap="round"/>
<path d="M476.351 291V297.703" stroke="black" stroke-width="4" stroke-miterlimit="10" stroke-linecap="round"/>
<path d="M473 294.352H479.701" stroke="black" stroke-width="4" stroke-miterlimit="10" stroke-linecap="round"/>
<path d="M153.42 88V94.7033" stroke="black" stroke-width="4" stroke-miterlimit="10" stroke-linecap="round"/>
<path d="M150.069 91.3517H156.77" stroke="black" stroke-width="4" stroke-miterlimit="10" stroke-linecap="round"/>
<path d="M330.733 403.681H171.224C161.958 403.681 154.472 396.192 154.472 386.922V146.023C154.472 136.753 161.958 129.265 171.224 129.265H330.786C340.051 129.265 347.537 136.753 347.537 146.023V386.922C347.537 396.192 339.999 403.681 330.733 403.681Z" fill="white" stroke="black" stroke-width="4" stroke-miterlimit="10"/>
<path d="M295.449 209.128C294.141 205.986 291.942 203.367 289.168 201.482C286.393 199.597 282.99 198.497 279.43 198.497C277.022 198.497 274.719 198.968 272.625 199.859C269.484 201.168 266.867 203.367 264.982 206.143C263.987 207.662 263.15 209.39 262.679 211.17H238.231C238.074 210.437 237.812 209.756 237.551 209.076C237.289 208.447 236.975 207.819 236.608 207.19L245.351 198.445C247.916 199.911 250.9 200.749 254.041 200.749C256.449 200.749 258.752 200.278 260.794 199.387C263.935 198.078 266.605 195.879 268.437 193.103C270.322 190.327 271.421 186.923 271.421 183.362C271.421 180.953 270.897 178.649 270.06 176.607C268.751 173.464 266.552 170.846 263.778 168.961C261.003 167.075 257.601 165.976 254.041 165.976C251.633 165.976 249.329 166.447 247.235 167.337C244.094 168.646 241.477 170.846 239.592 173.622C237.708 176.397 236.608 179.801 236.608 183.362C236.608 185.771 237.08 188.076 237.969 190.17C238.231 190.746 238.493 191.27 238.755 191.794L229.908 200.644C227.395 199.283 224.516 198.497 221.479 198.497C219.071 198.497 216.768 198.968 214.674 199.859C211.533 201.168 208.915 203.367 207.031 206.143C205.146 208.919 204.047 212.323 204.047 215.884C204.047 218.293 204.518 220.597 205.408 222.692C206.717 225.834 208.915 228.452 211.69 230.338C214.464 232.223 217.815 233.323 221.427 233.323C223.835 233.323 226.138 232.851 228.18 231.961C231.321 230.652 233.991 228.452 235.823 225.677C236.87 224.158 237.655 222.482 238.127 220.649H262.574C262.783 221.382 262.993 222.063 263.307 222.744C263.569 223.32 263.83 223.844 264.092 224.368L255.245 233.218C252.732 231.856 249.905 231.071 246.817 231.071C244.409 231.071 242.105 231.542 240.011 232.432C236.87 233.742 234.253 235.941 232.368 238.717C230.483 241.492 229.384 244.896 229.384 248.458C229.384 250.867 229.855 253.171 230.745 255.266C232.054 258.408 234.253 261.026 237.027 262.911C239.802 264.797 243.152 265.897 246.764 265.897C249.172 265.897 251.476 265.425 253.57 264.535C256.711 263.226 259.328 261.026 261.213 258.251C263.097 255.475 264.197 252.123 264.197 248.51C264.197 246.101 263.673 243.797 262.836 241.754C262.522 241.126 262.207 240.445 261.893 239.869L270.636 231.123C273.201 232.59 276.185 233.427 279.326 233.427C281.734 233.427 284.037 232.956 286.079 232.066C289.22 230.757 291.89 228.557 293.722 225.782C295.607 223.006 296.706 219.654 296.706 216.041C296.863 213.475 296.339 211.17 295.449 209.128ZM246.607 180.22C247.235 178.806 248.23 177.549 249.486 176.711C250.743 175.821 252.313 175.35 253.989 175.35C255.088 175.35 256.135 175.559 257.129 175.978C258.595 176.607 259.799 177.602 260.689 178.911C261.527 180.168 262.05 181.739 262.05 183.362C262.05 184.514 261.841 185.562 261.422 186.504C260.794 187.918 259.799 189.175 258.491 190.013C257.234 190.903 255.664 191.375 254.041 191.375C252.889 191.375 251.842 191.113 250.9 190.746C249.434 190.118 248.23 189.123 247.34 187.814C246.45 186.557 245.979 184.986 245.979 183.31C245.979 182.21 246.188 181.215 246.607 180.22ZM228.861 219.026C228.232 220.44 227.238 221.697 225.981 222.535C224.673 223.425 223.155 223.896 221.479 223.896C220.328 223.896 219.281 223.634 218.338 223.268C216.873 222.639 215.669 221.644 214.779 220.335C213.889 219.078 213.417 217.507 213.417 215.831C213.417 214.732 213.627 213.684 214.046 212.689C214.674 211.275 215.669 210.018 216.925 209.18C218.181 208.29 219.752 207.819 221.427 207.819C222.526 207.819 223.626 208.028 224.568 208.447C226.034 209.076 227.238 210.071 228.128 211.38C228.965 212.637 229.489 214.208 229.489 215.831C229.489 216.983 229.279 218.031 228.861 219.026ZM254.303 251.547C253.674 252.961 252.68 254.218 251.423 255.056C250.115 255.946 248.596 256.418 246.921 256.418C245.77 256.418 244.723 256.156 243.78 255.789C242.315 255.161 241.11 254.166 240.221 252.857C239.331 251.6 238.859 250.029 238.859 248.353C238.859 247.253 239.069 246.206 239.488 245.211C240.116 243.797 241.11 242.54 242.367 241.702C243.676 240.812 245.194 240.34 246.869 240.34C247.968 240.34 249.068 240.55 250.01 240.969C251.476 241.597 252.68 242.592 253.57 243.901C254.407 245.158 254.931 246.729 254.931 248.353C254.931 249.557 254.721 250.552 254.303 251.547ZM286.812 219.026C286.184 220.44 285.189 221.697 283.933 222.535C282.624 223.425 281.106 223.896 279.43 223.896C278.279 223.896 277.232 223.634 276.289 223.268C274.824 222.639 273.62 221.644 272.73 220.335C271.84 219.078 271.369 217.507 271.369 215.831C271.369 214.732 271.578 213.684 271.997 212.689C272.625 211.275 273.62 210.018 274.876 209.18C276.132 208.29 277.703 207.819 279.378 207.819C280.477 207.819 281.577 208.028 282.519 208.447C283.985 209.076 285.189 210.071 286.079 211.38C286.916 212.637 287.44 214.208 287.44 215.831C287.44 216.983 287.231 218.031 286.812 219.026Z" fill="black"/>
<path d="M269.327 356.496L224.149 356.234C212.527 356.182 203.209 346.703 203.261 335.077C203.314 323.451 212.789 314.129 224.411 314.181L269.589 314.443C281.21 314.495 290.528 323.974 290.476 335.6C290.424 347.226 280.948 356.548 269.327 356.496Z" fill="#49FFBA" stroke="black" stroke-width="4" stroke-miterlimit="10"/>
<path d="M292.497 350.137C300.695 341.936 300.695 328.64 292.497 320.439C284.299 312.238 271.008 312.238 262.81 320.439C254.612 328.64 254.612 341.936 262.81 350.137C271.008 358.338 284.299 358.338 292.497 350.137Z" fill="white" stroke="black" stroke-width="4" stroke-miterlimit="10"/>
<path d="M132.72 151.738H16.8357C15.2603 151.738 14 150.475 14 148.895V72.8425C14 71.2633 15.2603 70 16.8357 70H132.72C134.295 70 135.556 71.2633 135.556 72.8425V148.895C135.556 150.475 134.295 151.738 132.72 151.738Z" stroke="black" stroke-width="4" stroke-miterlimit="10"/>
<path d="M14.8193 83.5809H136.375" stroke="black" stroke-width="4" stroke-miterlimit="10"/>
<path d="M67.6255 98.0461H117.155" stroke="black" stroke-width="4" stroke-miterlimit="10" stroke-linecap="round"/>
<path d="M67.6255 112.448H117.155" stroke="black" stroke-width="4" stroke-miterlimit="10" stroke-linecap="round"/>
<path d="M67.6255 126.913H117.155" stroke="black" stroke-width="4" stroke-miterlimit="10" stroke-linecap="round"/>
<path d="M51.3833 123.442C56.994 117.818 56.9941 108.699 51.3833 103.075C45.7725 97.4507 36.6757 97.4507 31.0649 103.075C25.4542 108.699 25.4542 117.818 31.0649 123.442C36.6757 129.067 45.7725 129.067 51.3833 123.442Z" fill="#A77FFA" stroke="black" stroke-width="4" stroke-miterlimit="10"/>
<path d="M38.7017 119.586V107.079L46.9566 113.332L38.7017 119.586Z" stroke="black" stroke-width="4" stroke-miterlimit="10" stroke-linejoin="round"/>
<path d="M119.954 269H72V317.07H119.954V269Z" stroke="black" stroke-width="4" stroke-miterlimit="10" stroke-linejoin="round"/>
<path d="M88.7617 293.825L95.1892 300.204L104.767 287.382" stroke="black" stroke-width="4" stroke-miterlimit="10" stroke-linecap="round" stroke-linejoin="round"/>
<path d="M155.053 200.063C142.265 182.588 104.092 195.603 85.2341 187.534C70.7299 181.315 60.8284 167.604 62.1541 151.526" stroke="black" stroke-width="4" stroke-miterlimit="10"/>
<path d="M154 41H222.056V65.0034H172.274L163.452 72.5834V65.0034H154V41Z" fill="#C4C6FC" stroke="#C4C7FC" stroke-miterlimit="10"/>
<path d="M469.459 318.046C469.023 317.61 468.413 317.348 467.716 317.436L453.771 319.093L453.684 318.046C453.161 313.25 450.72 308.89 446.886 305.925C443.051 302.873 438.257 301.565 433.464 302.175C428.67 302.698 424.312 305.14 421.349 308.977C418.386 312.814 416.991 317.61 417.601 322.406L417.776 323.453L406.881 324.761L404.528 314.035C404.266 312.988 403.308 312.291 402.262 312.378L395.899 313.163C395.376 313.25 394.853 313.512 394.505 313.948C394.156 314.384 393.982 314.907 394.069 315.517C394.243 316.651 395.202 317.436 396.422 317.348L400.954 316.825L403.395 328.074C405.922 339.76 409.67 357.549 409.757 357.723C410.454 360.601 412.198 363.043 414.812 364.612L415.771 365.136L414.987 366.095C413.331 368.885 413.331 372.373 415.161 375.077C416.991 377.867 420.042 379.35 423.353 378.914C426.142 378.565 428.496 376.995 429.803 374.466C431.11 372.025 431.198 369.147 429.89 366.618L429.193 365.223L449.5 362.781L449.152 364.264C448.542 366.967 449.239 369.757 451.156 371.85C453.074 373.943 455.688 374.989 458.477 374.641C460.743 374.379 462.748 373.245 464.142 371.414C465.537 369.583 466.147 367.403 465.886 365.136C465.624 362.868 464.491 360.863 462.661 359.467C460.831 358.072 458.652 357.462 456.386 357.723L421.262 361.996C418.473 362.345 415.771 360.95 414.376 358.595L413.592 357.287L465.014 347.957C465.886 347.782 466.583 347.085 466.67 346.125L469.982 319.79C470.156 319.093 469.895 318.482 469.459 318.046ZM456.909 361.822C459.262 361.56 461.441 363.217 461.789 365.659C461.964 366.792 461.615 367.926 460.918 368.885C460.22 369.844 459.175 370.368 458.042 370.542C457.867 370.542 457.693 370.542 457.519 370.542C456.56 370.542 455.601 370.193 454.817 369.583C453.858 368.885 453.335 367.839 453.161 366.705C452.812 364.351 454.555 362.171 456.909 361.822ZM418.909 367.752C419.606 366.792 420.652 366.269 421.785 366.095C424.138 365.833 426.317 367.49 426.665 369.932C426.927 372.286 425.271 374.466 422.831 374.815C422.656 374.815 422.482 374.815 422.308 374.815C420.129 374.815 418.211 373.158 417.95 370.978C417.863 369.844 418.124 368.711 418.909 367.752ZM433.987 306.274C441.656 305.314 448.629 310.808 449.587 318.482C450.023 322.232 448.977 325.894 446.711 328.859C444.358 331.824 441.046 333.655 437.386 334.179C436.776 334.266 436.253 334.266 435.642 334.266C428.67 334.266 422.569 329.034 421.698 321.97C420.826 314.209 426.317 307.233 433.987 306.274ZM462.835 344.032L412.895 353.102L407.753 328.859L418.996 327.464L419.344 328.162C422.743 335.051 430.152 339.062 437.821 338.19C445.491 337.318 451.766 331.65 453.422 324.063L453.597 323.278L465.624 321.796L462.835 344.032Z" fill="black"/>
<path d="M348.258 306C346.293 304.909 355.274 274.638 384.815 247.033C413.389 220.331 431.436 200.305 419.012 188.861C403.157 174.256 362.343 196.379 348.258 205.231" stroke="black" stroke-width="4"/>
<path d="M429.542 322.406L433.116 325.196C433.551 325.545 434.074 325.719 434.684 325.632C435.207 325.545 435.73 325.283 436.079 324.847L441.657 317.697C442.006 317.261 442.18 316.737 442.093 316.127C442.006 315.604 441.744 315.08 441.308 314.732C440.872 314.383 440.35 314.208 439.739 314.296C439.217 314.383 438.694 314.644 438.345 315.08L433.987 320.574L432.07 319.092C431.721 318.83 431.285 318.656 430.762 318.656C430.675 318.656 430.588 318.656 430.501 318.656C429.978 318.743 429.455 319.005 429.106 319.441C428.758 319.877 428.583 320.4 428.671 321.01C428.845 321.533 429.106 322.057 429.542 322.406Z" fill="black"/>
<path d="M407 341.313C402.083 339.824 391.174 343.299 386.258 359.181C381.833 373.476 373.812 387.968 348 383.005" stroke="black" stroke-width="4" stroke-linecap="round"/>
<path d="M66 454H203" stroke="black" stroke-width="4" stroke-miterlimit="10"/>
<path d="M0 469H138" stroke="black" stroke-width="4" stroke-miterlimit="10"/>
<path d="M194 446H78C78.9819 440.511 81.8714 435.541 86.1622 431.961C90.453 428.381 95.8716 426.419 101.468 426.419C101.774 426.419 102.08 426.419 102.38 426.419C105.688 420.57 110.649 415.82 116.647 412.76C122.645 409.7 129.414 408.466 136.111 409.211C142.808 409.957 149.137 412.648 154.309 416.951C159.481 421.254 163.269 426.977 165.2 433.409C167.652 431.157 170.711 429.666 174 429.118C177.29 428.57 180.669 428.988 183.724 430.322C186.779 431.656 189.378 433.848 191.203 436.629C193.028 439.411 194 442.662 194 445.985V446Z" fill="#A883F8"/>
<path d="M171 454H36C38.2865 441.071 49.6703 431.241 63.2919 431.241C63.6324 431.241 64.0216 431.241 64.3622 431.241C71.2216 419.184 84.2595 411 99.1946 411C117.292 411 132.568 422.961 137.481 439.376C141.032 436.132 145.8 434.098 151.005 434.098C162.049 434.098 171 443.008 171 454Z" stroke="black" stroke-width="4" stroke-miterlimit="10" stroke-linecap="round" stroke-linejoin="round"/>
</svg>
