<svg xmlns="http://www.w3.org/2000/svg" viewBox="0 0 24 24" fill="currentColor" height="24" width="24">
  <path d="M4.495 0a3 3 0 0 0-3 3v1.53c-1.98.165-1.98 2.76 0 2.94v3.06c-1.98.18-1.98 2.775 0 2.94v3.06c-1.98.18-1.98 2.76 0 2.94V21c0 1.65 1.35 3 3 3h16.5a3 3 0 0 0 3-3V3a3 3 0 0 0-3-3zm1.5 3h13.5a1.5 1.5 0 0 1 1.5 1.5v15a1.5 1.5 0 0 1-1.5 1.5h-13.5a1.5 1.5 0 0 1-1.5-1.5c2.25 0 2.25-3 0-3v-3c2.25 0 2.25-3 0-3v-3c2.25 0 2.25-3 0-3a1.5 1.5 0 0 1 1.5-1.5Zm13.5 15c0-4.65-1.02-5.04-4.11-5.76 3.375-1.905 1.98-7.05-1.89-6.99-3.795.03-5.16 5.04-1.89 6.975-3.09.78-4.11 1.305-4.11 5.775z"/>
</svg>
