<svg viewBox="0 0 25 27" version="1.1" xmlns="http://www.w3.org/2000/svg" xmlns:xlink="http://www.w3.org/1999/xlink">
    <g id="UI" stroke="none" stroke-width="1" fill="currentColor" fill-rule="evenodd">
        <path d="M2.1773832,24.8571451 L22.605979,24.8571451 L22.605979,9.9999845 L2.1773832,9.9999845 L2.1773832,24.8571451 Z M7.74881841,7.2142669 L7.74881841,3.03569049 C7.74881841,2.77452946 7.54569317,2.57140422 7.28453214,2.57140422 L6.35595961,2.57140422 C6.09479858,2.57140422 5.89167334,2.77452946 5.89167334,3.03569049 L5.89167334,7.2142669 C5.89167334,7.47542792 6.09479858,7.67855316 6.35595961,7.67855316 L7.28453214,7.67855316 C7.54569317,7.67855316 7.74881841,7.47542792 7.74881841,7.2142669 Z M18.8916888,7.2142669 L18.8916888,3.03569049 C18.8916888,2.77452946 18.6885636,2.57140422 18.4274026,2.57140422 L17.49883,2.57140422 C17.237669,2.57140422 17.0345438,2.77452946 17.0345438,3.03569049 L17.0345438,7.2142669 C17.0345438,7.47542792 17.237669,7.67855316 17.49883,7.67855316 L18.4274026,7.67855316 C18.6885636,7.67855316 18.8916888,7.47542792 18.8916888,7.2142669 Z M24.4631241,6.28569436 L24.4631241,24.8571451 C24.4631241,25.8727713 23.6216052,26.7142901 22.605979,26.7142901 L2.1773832,26.7142901 C1.16175699,26.7142901 0.320238129,25.8727713 0.320238129,24.8571451 L0.320238129,6.28569436 C0.320238129,5.27006815 1.16175699,4.42854929 2.1773832,4.42854929 L4.03452827,4.42854929 L4.03452827,3.03569049 C4.03452827,1.75890325 5.07917237,0.714259148 6.35595961,0.714259148 L7.28453214,0.714259148 C8.56131938,0.714259148 9.60596348,1.75890325 9.60596348,3.03569049 L9.60596348,4.42854929 L15.1773987,4.42854929 L15.1773987,3.03569049 C15.1773987,1.75890325 16.2220428,0.714259148 17.49883,0.714259148 L18.4274026,0.714259148 C19.7041898,0.714259148 20.7488339,1.75890325 20.7488339,3.03569049 L20.7488339,4.42854929 L22.605979,4.42854929 C23.6216052,4.42854929 24.4631241,5.27006815 24.4631241,6.28569436 Z"></path>
    </g>
</svg>
