<?xml version="1.0" encoding="UTF-8" standalone="no"?>
<svg
   width="32"
   height="32"
   viewBox="0 0 32 32"
   fill="currentColor"
   xmlns="http://www.w3.org/2000/svg">
  <path
     id="path13"
     class="icon-linux-bg"
     d="m 16.179688,5 c -2.756698,0.02599 -3.348719,2.2291604 -3.136719,5.085938 0.2301,3.098596 -1.097399,3.006446 -2.654297,5.902343 -0.5108996,1.011099 -0.743702,2.104517 -0.701172,3.166016 -0.2894897,0.1183 -0.5386345,0.320591 -0.7089844,0.587891 -0.1721898,0.270299 -0.3262584,0.296931 -0.6425781,0.394531 -0.3161297,0.0978 -0.7976847,0.277728 -1.0839844,0.798828 -0.2820097,0.513099 -0.2746456,1.048016 -0.2285156,1.478515 0.04614,0.4304 0.1080437,0.796963 0.089844,0.914063 -0.03249,0.2037 -0.1943717,0.647338 -0.044922,1.148437 0.07473,0.2505 0.2447127,0.501848 0.5078125,0.685547 0.2631697,0.1836 0.6096442,0.307619 1.0585937,0.386719 0.8482692,0.1674 1.8925103,0.463425 2.8496093,0.578125 0.4806,0.0575 0.946094,0.07473 1.371094,-0.01367 0.424899,-0.0883 0.829666,-0.305266 1.072265,-0.697265 0.1596,-0.258 0.236354,-0.531954 0.251954,-0.814454 0.603699,0.1654 1.266435,0.265016 1.990234,0.291016 0.767899,-0.0033 1.527394,-0.08556 2.246094,-0.255859 0.051,0.768099 0.259578,1.488985 0.892578,1.896484 0.387699,0.2495 0.853791,0.266963 1.27539,0.164063 0.4216,-0.1034 0.829282,-0.319626 1.238282,-0.578125 0.815599,-0.5159 1.633925,-1.227942 2.328125,-1.744141 l 0.0078,-0.0059 c 0.3665,-0.2625 0.622097,-0.522029 0.779297,-0.798829 0.1586,-0.279099 0.204362,-0.57959 0.164062,-0.83789 -0.0806,-0.5167 -0.41525,-0.845225 -0.53125,-1.015625 -0.0667,-0.0981 -0.1689,-0.454882 -0.3125,-0.863281 -0.143599,-0.4084 -0.366497,-0.896182 -0.841796,-1.238282 -0.0796,-0.0575 -0.161588,-0.102925 -0.242188,-0.140625 0.0227,-0.181299 0.03968,-0.366594 0.05078,-0.558593 0.2245,-3.225497 -1.76306,-4.066041 -3.005859,-6.898438 C 18.975951,9.185441 20.326331,5.4287284 16.927734,5.0429688 16.662235,5.0137288 16.413287,4.99772 16.179688,5 Z m 0.990234,2.6757812 c 0.2952,0.00551 0.573044,0.1543759 0.777344,0.4160157 0.204299,0.2616497 0.320218,0.616491 0.324218,0.9941406 0.0032,0.2961897 -0.06295,0.5920665 -0.189453,0.8476563 -0.1264,0.2555392 -0.308184,0.4594912 -0.521484,0.5878902 0.2463,0.2928 0.40865,0.587047 0.40625,0.810547 -0.013,1.198799 0.88476,2.422579 1.443359,3.330078 0.924499,1.501799 1.007906,3.155342 0.566406,4.494141 -0.137999,0.0529 -0.270631,0.12555 -0.394531,0.21875 -0.529599,0.3991 -0.891803,1.125554 -0.970703,2.126953 -0.0436,0.5519 -0.116562,1.138651 -0.164062,1.71875 -0.4184,0.2326 -1.15197,0.507813 -2.292969,0.507813 -1.121399,0 -1.882432,-0.348638 -2.332031,-0.648438 -0.013,-0.0292 -0.02672,-0.05829 -0.04102,-0.08789 -0.0734,-0.1579 -0.151528,-0.31631 -0.236328,-0.47461 0.767899,-0.546499 1.216967,-1.738779 -0.269531,-2.830078 -1.627799,-1.195299 -1.268521,-2.303352 -0.482422,-4.40625 0.445699,-1.192199 1.104793,-2.840611 1.058593,-4.099609 -0.0065,-0.1956 0.126732,-0.484291 0.332032,-0.775391 -0.1108,-0.1184 -0.20715,-0.273918 -0.28125,-0.4550781 -0.0741,-0.1811598 -0.123785,-0.3841071 -0.146485,-0.5917969 -0.0402,-0.3647896 0.0062,-0.7231771 0.13086,-0.9980469 0.1247,-0.2748697 0.316603,-0.4428069 0.533203,-0.4667969 0.0184,-0.00161 0.03609,-0.00244 0.05469,-0.00195 0.2089,0.00121 0.420644,0.1359903 0.589844,0.375 0.1692,0.2390098 0.283766,0.5637897 0.322266,0.9121094 0.0073,0.06711 0.01227,0.1361151 0.01367,0.203125 0.1026,-0.03412 0.201775,-0.052068 0.296875,-0.048828 0.0744,0.00241 0.153881,0.014699 0.238281,0.037109 -0.0022,-0.03734 -0.0039,-0.073758 -0.0039,-0.1113282 -0.0022,-0.1962598 0.02728,-0.3924352 0.08398,-0.578125 0.0568,-0.1856998 0.140947,-0.3570364 0.248047,-0.5039062 0.1071,-0.1468599 0.2339,-0.2678457 0.375,-0.3535156 0.1411,-0.08567 0.293566,-0.1350544 0.447266,-0.1464844 0.0279,-0.00185 0.05608,-0.00267 0.08398,-0.00195 z m -0.05273,0.875 c -0.1298,0.00111 -0.260235,0.083812 -0.365235,0.2324219 -0.105,0.1486299 -0.175419,0.3520196 -0.199219,0.5683594 -0.0112,0.1020299 -0.01275,0.2048645 -0.002,0.3027344 0.2351,0.1445498 0.471341,0.3251845 0.681641,0.5214841 0.0852,-0.0667 0.162103,-0.168039 0.220703,-0.2929685 0.0586,-0.1249299 0.09688,-0.2682089 0.113281,-0.4179687 0.0123,-0.1122999 0.01215,-0.2254314 -0.002,-0.3320313 -0.014,-0.1065999 -0.03973,-0.2043926 -0.07813,-0.2890625 -0.0383,-0.08466 -0.08773,-0.1552482 -0.144531,-0.2050781 -0.0569,-0.04983 -0.1208,-0.078527 -0.1875,-0.085937 -0.0117,-0.00126 -0.02521,-0.00206 -0.03711,-0.00195 z m -2.628907,0.109375 c -0.0069,1.6e-4 -0.01458,0.00121 -0.02148,0.00195 -0.0544,0.00593 -0.105944,0.029713 -0.152344,0.070312 -0.0464,0.04061 -0.08784,0.096936 -0.119141,0.1660156 -0.0314,0.06908 -0.05295,0.1493082 -0.06445,0.2363281 -0.0115,0.08701 -0.01215,0.1798045 -0.002,0.2714844 0.0161,0.1458799 0.05945,0.2835445 0.123047,0.3964844 0.0636,0.1129399 0.145222,0.1947919 0.232422,0.2324213 0.1439,-0.1540893 0.303997,-0.2960289 0.466797,-0.4121088 0.0162,-0.09757 0.01776,-0.2038739 0.0059,-0.3085938 C 14.936831,9.1294833 14.87325,8.9564643 14.78125,8.8339844 14.69505,8.7191645 14.591581,8.6577663 14.488281,8.6601562 Z m -0.34375,2.5410158 c 0.3171,0.891399 1.079326,1.392603 1.828125,1.408203 0.7487,0.0163 1.333094,-0.609804 1.621094,-1.408203 -0.531499,0.3385 -1.021282,0.722284 -1.675781,0.708984 -0.6545,-0.013 -1.195238,-0.459884 -1.773438,-0.708984 z m -3.886719,8.693359 c 0.0568,3e-4 0.115988,0.0065 0.179688,0.01953 0.3397,0.0692 0.797291,0.363486 1.212891,1.083985 0.469499,0.813699 1.018362,1.636816 1.351562,2.353515 0.168,0.3614 0.273794,0.677266 0.308594,0.947266 9e-4,0.0065 0.0012,0.01374 0.002,0.02344 0.0016,0.013 0.0026,0.02476 0.0059,0.03906 0.0017,0.0195 0.0031,0.04145 0.0039,0.06055 0.0011,0.0228 0,0.04295 0,0.06445 v 0.0059 c 0,0.026 -2.54e-4,0.05378 -0.002,0.08008 0,0 10e-5,0.0026 0,0.0059 0,0 10e-5,0.0046 0,0.0078 -2.99e-4,0.0029 -0.0017,0.0046 -0.002,0.0078 -0.0019,0.0228 -0.0026,0.04656 -0.0059,0.06836 -7e-4,0.0065 -0.0031,0.0091 -0.0039,0.01563 -0.0032,0.0195 -0.0072,0.03949 -0.01367,0.05859 -0.0012,0.0066 -7.53e-4,0.0092 -0.002,0.01563 v 0.0039 c -0.0013,0.0065 -0.0045,0.0091 -0.0078,0.01563 -0.0032,0.0162 -0.0091,0.03293 -0.01563,0.04883 -0.0013,0.0033 -0.0027,0.0052 -0.0039,0.01172 -0.0195,0.05 -0.04076,0.100032 -0.06836,0.144531 -0.013,0.0195 -0.02636,0.03679 -0.03906,0.05469 -0.013,0.0163 -0.02862,0.03488 -0.04492,0.05078 -0.0162,0.0162 -0.03288,0.03192 -0.05078,0.04492 -0.0194,0.013 -0.03779,0.02636 -0.05859,0.03906 -0.0195,0.013 -0.04231,0.02246 -0.06641,0.03516 -0.0227,0.0097 -0.04927,0.0196 -0.07617,0.0293 -0.026,0.0098 -0.05699,0.01889 -0.08789,0.02539 -0.0163,0.0032 -0.02898,0.0072 -0.04688,0.01367 -0.0162,0.0032 -0.03288,0.0072 -0.05078,0.01367 -0.1033,0.0227 -0.219609,0.03231 -0.349609,0.03711 -0.0227,8e-4 -0.04596,0.0016 -0.06836,0.002 -0.0228,3e-4 -0.04341,10e-5 -0.06641,0 -0.0459,-2e-4 -0.09253,-0.0021 -0.140625,-0.0039 -0.1446,-0.0065 -0.299837,-0.01436 -0.460937,-0.03516 -0.1076,-0.013 -0.217578,-0.03093 -0.330078,-0.04883 -0.1124,-0.0195 -0.22745,-0.03845 -0.34375,-0.06055 -0.1163,-0.0228 -0.234416,-0.04521 -0.353516,-0.07031 -0.1189,-0.026 -0.239175,-0.04947 -0.359375,-0.07617 -0.4807195,-0.1062 -0.9648961,-0.221847 -1.4160156,-0.310547 h -0.00781 c -0.04581,-0.0065 -0.089589,-0.01754 -0.1308594,-0.02734 C 8.4002277,24.635553 8.2298005,24.5656 8.1191406,24.5 c -0.0195,-0.0098 -0.033558,-0.02145 -0.048828,-0.03125 -0.02924,-0.0227 -0.055702,-0.04135 -0.076172,-0.06055 -0.06173,-0.0575 -0.083692,-0.107869 -0.1015625,-0.167969 -0.00651,-0.0195 -0.010422,-0.04271 -0.013672,-0.06641 -0.0065,-0.0708 -2.681e-4,-0.156106 0.013672,-0.253906 0.00975,-0.0653 0.01826,-0.138091 0.03125,-0.212891 0.013,-0.0747 0.026393,-0.152475 0.039063,-0.234375 0.00649,-0.052 0.012375,-0.102344 0.015625,-0.152344 0.00975,-0.150799 -0.00186,-0.295047 -0.021484,-0.435546 -0.013,-0.0936 -0.030632,-0.186044 -0.044922,-0.277344 -0.01625,-0.0909 -0.027689,-0.181185 -0.037109,-0.271484 -0.03379,-0.3165 -0.030065,-0.601929 0.078125,-0.861329 0.01625,-0.0371 0.032914,-0.07328 0.052734,-0.109375 0.01949,-0.0351 0.039744,-0.06645 0.058594,-0.09375 0.03736,-0.0549 0.072991,-0.09581 0.1132813,-0.128906 0.01949,-0.0163 0.042353,-0.02877 0.064453,-0.04297 0.02274,-0.013 0.045303,-0.02771 0.070312,-0.03711 0.02599,-0.0098 0.049535,-0.0195 0.078125,-0.0293 0.05718,-0.0195 0.124492,-0.03675 0.2011719,-0.06055 0.07667,-0.0227 0.1642426,-0.05179 0.2578125,-0.08789 0.04679,-0.0195 0.093848,-0.03785 0.1425781,-0.06055 0.07343,-0.0341 0.1482463,-0.07525 0.2226563,-0.123047 0.02599,-0.0162 0.049529,-0.03133 0.074219,-0.04883 0.1478299,-0.1063 0.2921795,-0.245694 0.4121094,-0.433594 0.00974,-0.0163 0.019557,-0.03062 0.029297,-0.04492 0.00975,-0.013 0.01825,-0.02832 0.03125,-0.04102 0.00974,-0.0097 0.017604,-0.0196 0.027344,-0.0293 0.00267,-0.0029 0.00652,-0.0065 0.00977,-0.0098 0.1176199,-0.1224 0.2688844,-0.190453 0.4589834,-0.189453 z m 10.267579,0.0059 c 0.0097,-2e-4 0.01559,-3e-4 0.02539,0 0.114,0.0033 0.224432,0.04012 0.332031,0.107421 0.504,0.3151 1.014132,0.251579 1.332032,0.205079 0.317799,-0.0464 0.437766,-0.08524 0.697265,0.101562 0.0325,0.0228 0.06164,0.04717 0.08984,0.07227 0.013,0.0129 0.02636,0.02416 0.03906,0.03516 0.0032,0.0033 0.0066,0.0065 0.0098,0.0098 0.0098,0.0097 0.01889,0.01559 0.02539,0.02539 0.0195,0.0195 0.03749,0.0413 0.05469,0.0625 0.0065,0.0065 0.0091,0.01303 0.01563,0.01953 0.0065,0.0098 0.01178,0.0195 0.02148,0.0293 0.0033,0.0032 0.0065,0.0091 0.0098,0.01563 0.0065,0.013 0.01694,0.0224 0.02344,0.0332 0.0019,0.0029 0.0027,0.0066 0.0059,0.0098 0.0098,0.013 0.02084,0.02867 0.02734,0.04297 0.0097,0.0162 0.0196,0.03263 0.0293,0.04883 0.0098,0.0195 0.02145,0.03879 0.03125,0.05859 0.0013,0.0027 0.0027,0.0065 0.0039,0.0098 0.0163,0.0341 0.03488,0.07132 0.05078,0.107422 0.0032,0.0097 0.0084,0.0196 0.01172,0.0293 0.0032,0.0098 0.01037,0.02155 0.01367,0.03125 0.0032,0.0098 0.0065,0.02084 0.0098,0.02734 0.0032,0.0097 0.01037,0.0224 0.01367,0.0332 0.002,0.0065 0.0027,0.0091 0.0059,0.01563 0.013,0.0361 0.02672,0.07363 0.04102,0.111328 0.0292,0.0858 0.05633,0.173319 0.08203,0.261719 0.026,0.0884 0.05078,0.178178 0.08008,0.267578 0.013,0.0444 0.02897,0.08636 0.04687,0.130859 0.0162,0.0445 0.03489,0.09057 0.05469,0.134766 0.0195,0.0445 0.04201,0.08901 0.06641,0.132812 0.0227,0.0439 0.05048,0.08766 0.08008,0.13086 0.0467,0.0685 0.09477,0.134966 0.138672,0.197266 0.0438,0.0624 0.08304,0.121834 0.11914,0.177734 0.0195,0.0292 0.03558,0.05408 0.05078,0.08008 0.0293,0.0523 0.05471,0.100984 0.07031,0.146484 0.0066,0.0227 0.01233,0.04561 0.01563,0.06641 0.0032,0.0195 0.0027,0.03879 0.0059,0.05859 4e-4,0.0195 -1.59e-4,0.041 -0.0059,0.0625 -0.0033,0.0227 -0.01374,0.04461 -0.02344,0.07031 -0.0098,0.026 -0.02182,0.05344 -0.04102,0.08594 -0.0097,0.0162 -0.0202,0.03288 -0.0332,0.05078 -0.013,0.0195 -0.02476,0.03684 -0.03906,0.05664 -0.0163,0.0195 -0.02933,0.03945 -0.04883,0.06055 -0.0195,0.0228 -0.03915,0.04556 -0.06055,0.06836 -0.0757,0.0789 -0.171775,0.164913 -0.296875,0.257813 -0.0194,0.013 -0.03744,0.02672 -0.05664,0.04102 h -0.0059 c -0.645899,0.479699 -1.347807,1.079903 -2.003906,1.533203 -0.0939,0.0646 -0.187697,0.127647 -0.279297,0.185547 -0.1371,0.0867 -0.271691,0.163868 -0.40039,0.230468 -0.0429,0.0227 -0.08535,0.043 -0.126954,0.0625 -0.0832,0.0394 -0.161681,0.07296 -0.238281,0.101563 -0.0384,0.013 -0.07688,0.02646 -0.113281,0.03906 -0.0364,0.013 -0.07137,0.0228 -0.105469,0.0293 -0.0685,0.0162 -0.1303,0.0257 -0.1875,0.0332 -0.0292,0.0031 -0.05563,0.0059 -0.08203,0.0059 -0.026,4e-4 -0.05177,-0.0019 -0.07617,-0.0039 -0.0227,-0.0022 -0.04781,-0.0065 -0.07031,-0.0098 -0.0451,-0.0097 -0.08861,-0.02217 -0.128907,-0.04297 -0.0195,-0.0098 -0.03909,-0.0225 -0.05859,-0.0332 -0.0195,-0.013 -0.03679,-0.02672 -0.05469,-0.04102 -0.0029,-0.0022 -0.0065,-0.0027 -0.0098,-0.0059 -0.0195,-0.0163 -0.03543,-0.02897 -0.05273,-0.04687 -0.0194,-0.0162 -0.03779,-0.03519 -0.05469,-0.05469 -0.0162,-0.0195 -0.03423,-0.0414 -0.04883,-0.0625 -0.0032,-0.0033 -0.0066,-0.01047 -0.0098,-0.01367 -0.013,-0.0163 -0.02256,-0.03579 -0.03516,-0.05469 -0.0033,-0.0065 -0.01047,-0.01303 -0.01367,-0.01953 -0.0098,-0.0195 -0.0195,-0.03579 -0.0293,-0.05469 -0.0032,-0.0065 -0.0052,-0.01704 -0.01172,-0.02344 -0.0097,-0.0195 -0.01569,-0.03774 -0.02539,-0.05664 -0.0033,-0.0097 -0.01047,-0.02145 -0.01367,-0.03125 -0.0065,-0.0195 -0.01303,-0.03754 -0.01953,-0.05664 -0.0195,-0.0592 -0.04004,-0.1205 -0.05664,-0.1875 -0.0162,-0.0666 -0.02842,-0.140444 -0.04102,-0.214844 -6e-4,-0.0032 -0.0014,-0.0072 -0.002,-0.01367 -0.0064,-0.0338 -0.01047,-0.06842 -0.01367,-0.103516 -0.013,-0.1182 -0.02209,-0.245059 -0.02539,-0.380859 -0.0011,-0.0384 -0.0036,-0.07553 -0.0039,-0.115234 -0.0065,-0.7903 0.137238,-1.774439 0.210938,-2.710938 0.0654,-0.829199 0.350053,-1.289347 0.626953,-1.498047 0.1459,-0.1101 0.291387,-0.161462 0.429687,-0.164062 z"
     style="display:inline;fill:currentColor;fill-opacity:1"
     />
  <path
     d="m 16.1702,4.00027 c -1.644,0.0155 -2.9507,0.82924 -3.5625,2.02539 -0.6118,1.19614 -0.6731,2.61898 -0.5606,4.13474 0.1046,1.4084 -0.0735,1.7862 -0.4863,2.3887 -0.4128,0.6025 -1.216,1.4106 -2.05273,2.9668 -0.004,0.0071 -0.0079,0.0143 -0.01172,0.0215 -0.49863,0.9868 -0.64621,2.0542 -0.68555,3.1074 -0.20157,0.1516 -0.42587,0.2685 -0.57617,0.4785 0.02997,-0.0167 -0.02327,0.0048 -0.19141,0.0566 -6.5e-4,0 -0.0013,0 -0.00195,0 -0.37339,0.1156 -1.19649,0.4224 -1.66406,1.2735 -0.42699,0.777 -0.40194,1.5618 -0.34766,2.0683 0.02486,0.2319 0.0532,0.4382 0.07032,0.584 0.00606,0.0517 0.00293,0.0926 0.00195,0.1328 -0.05235,0.1665 -0.20133,0.8222 0.00781,1.5235 0.14147,0.4742 0.44537,0.9071 0.89453,1.2207 0.42915,0.2994 0.92165,0.4561 1.45899,0.5508 0.78035,0.1553 1.83695,0.4582 2.90235,0.5859 6e-4,0 0.0013,0 0.0019,0 0.5318,0.0636 1.0979,0.0961 1.6914,-0.0273 0.6196,-0.1288 1.3025,-0.4727 1.7208,-1.1485 0.0469,-0.0759 0.0359,-0.1615 0.0742,-0.2402 0.4224,0.0703 0.8224,0.173 1.2812,0.1894 0.0137,3e-4 0.0274,3e-4 0.041,0 0.4984,-0.0021 0.9825,-0.1019 1.4727,-0.1679 0.1834,0.6251 0.4758,1.2343 1.1191,1.6484 0.6766,0.4354 1.4422,0.4444 2.0547,0.2949 7e-4,0 0.0013,0 0.002,0 0.5896,-0.1446 1.0834,-0.4188 1.5332,-0.7031 0.9115,-0.5766 1.7477,-1.3091 2.3906,-1.7871 0.008,-0.007 0.0158,-0.0142 0.0235,-0.0215 0.426,-0.3094 0.7879,-0.6529 1.0371,-1.0918 0.2694,-0.4744 0.3596,-0.9963 0.2832,-1.4863 -0.1123,-0.7201 -0.5284,-1.2498 -0.6465,-1.377 -0.0181,-0.0359 -0.038,-0.0721 -0.0547,-0.1211 -0.0473,-0.1392 -0.112,-0.3384 -0.1894,-0.5585 -0.1392,-0.3958 -0.5072,-0.9405 -0.9883,-1.4141 0.0031,-0.042 0.0073,-0.0803 0.0098,-0.1231 0.1268,-1.8228 -0.4282,-3.1516 -1.1095,-4.207 C 22.4322,13.7222 21.6922,12.8853 21.135,11.6155 20.6325,10.4704 20.6358,8.92902 20.3655,7.43386 20.2303,6.68628 20.0119,5.91718 19.4729,5.26198 18.9339,4.60678 18.079,4.16688 17.0413,4.04909 c -0.0013,0 -0.0026,0 -0.0039,0 C 16.7421,4.01657 16.4546,3.9975 16.1702,4.00027 Z m 0.0098,1 c 0.2336,-0.00228 0.4825,0.01372 0.748,0.04296 3.3986,0.38576 2.0482,4.14243 3.291,6.97457 1.2428,2.8324 3.2304,3.673 3.0059,6.8985 -0.0111,0.192 -0.0281,0.3773 -0.0508,0.5586 0.0806,0.0377 0.1626,0.0831 0.2422,0.1406 0.4753,0.3421 0.6982,0.8299 0.8418,1.2383 0.1436,0.4084 0.2458,0.7652 0.3125,0.8633 0.116,0.1704 0.4507,0.4989 0.5313,1.0156 0.0403,0.2583 -0.0055,0.5588 -0.1641,0.8379 -0.1572,0.2768 -0.4128,0.5363 -0.7793,0.7988 l -0.0078,0.0059 c -0.6942,0.5162 -1.5125,1.2282 -2.3281,1.7441 -0.409,0.2585 -0.8167,0.4748 -1.2383,0.5782 -0.4216,0.1029 -0.8877,0.0854 -1.2754,-0.1641 -0.633,-0.4075 -0.8416,-1.1284 -0.8926,-1.8965 -0.7187,0.1703 -1.4782,0.2526 -2.2461,0.2559 -0.7238,-0.026 -1.3865,-0.1256 -1.9902,-0.291 -0.0156,0.2825 -0.0924,0.5564 -0.252,0.8144 -0.2426,0.392 -0.6473,0.609 -1.0722,0.6973 -0.425,0.0884 -0.8905,0.0712 -1.3711,0.0137 C 10.5276,26.0126 9.48334,25.7165 8.63507,25.5491 8.18612,25.47 7.83964,25.346 7.57647,25.1624 7.31337,24.9787 7.14339,24.7274 7.06866,24.4769 6.91921,23.9758 7.08109,23.5321 7.11358,23.3284 7.13178,23.2113 7.06988,22.8448 7.02374,22.4144 6.97761,21.9839 6.97024,21.449 7.25225,20.9359 7.53855,20.4148 8.02011,20.2348 8.33624,20.137 8.65256,20.0394 8.80663,20.0128 8.97882,19.7425 9.14917,19.4752 9.39831,19.2729 9.6878,19.1546 9.64527,18.0931 9.8781,16.9997 10.389,15.9886 11.9459,13.0927 13.2733,13.1848 13.0432,10.0862 12.8312,7.22942 13.4233,5.02626 16.18,5.00027 Z m 0.9902,2.67578 c -0.0279,-7.2e-4 -0.0561,10e-5 -0.084,0.00195 -0.1537,0.01143 -0.3061,0.06081 -0.4472,0.14648 -0.1411,0.08567 -0.2679,0.20666 -0.375,0.35352 -0.1071,0.14687 -0.1913,0.3182 -0.2481,0.5039 -0.0567,0.18569 -0.0862,0.38187 -0.084,0.57813 0,0.03757 0.0017,0.07399 0.0039,0.11133 C 15.8514,9.34895 15.7719,9.33666 15.6975,9.33425 15.6024,9.33101 15.5033,9.34895 15.4007,9.38307 15.3993,9.31606 15.3943,9.24706 15.387,9.17995 15.3485,8.83163 15.2339,8.50685 15.0647,8.26784 14.8955,8.02883 14.6838,7.89405 14.4749,7.89284 c -0.0186,-4.9e-4 -0.0363,3.4e-4 -0.0547,0.00195 -0.2166,0.02399 -0.4085,0.19193 -0.5332,0.4668 -0.1247,0.27487 -0.1711,0.63326 -0.1309,0.99805 0.0227,0.20769 0.0724,0.41064 0.1465,0.5918 0.0741,0.18116 0.1704,0.33666 0.2812,0.45506 -0.2053,0.2911 -0.3385,0.5798 -0.332,0.7754 0.0462,1.259 -0.6129,2.9074 -1.0586,4.0996 -0.7861,2.1029 -1.1454,3.211 0.4824,4.4063 1.4865,1.0913 1.0375,2.2835 0.2696,2.83 0.0848,0.1583 0.1629,0.3168 0.2363,0.4747 0.0143,0.0296 0.028,0.0586 0.041,0.0878 0.4496,0.2998 1.2107,0.6485 2.3321,0.6485 1.141,0 1.8745,-0.2752 2.2929,-0.5078 0.0475,-0.5801 0.1205,-1.1669 0.1641,-1.7188 0.0789,-1.0014 0.4411,-1.7278 0.9707,-2.1269 0.1239,-0.0932 0.2565,-0.1659 0.3945,-0.2188 0.4415,-1.3388 0.3581,-2.9923 -0.5664,-4.4941 -0.5586,-0.9075 -1.4563,-2.1313 -1.4433,-3.3301 0.0024,-0.2235 -0.16,-0.5178 -0.4063,-0.8106 0.2133,-0.1284 0.3951,-0.3323 0.5215,-0.58784 C 18.2088,9.67827 18.2749,9.38239 18.2717,9.0862 18.2677,8.70855 18.1518,8.35371 17.9475,8.09206 17.7432,7.83042 17.4654,7.68156 17.1702,7.67605 Z m -0.0527,0.875 c 0.0119,-1.1e-4 0.0254,6.9e-4 0.0371,0.00195 0.0667,0.00741 0.1306,0.0361 0.1875,0.08593 0.0568,0.04983 0.1062,0.12042 0.1445,0.20508 0.0384,0.08467 0.0642,0.18246 0.0782,0.28906 0.0141,0.1066 0.0143,0.21974 0.002,0.33204 C 17.5504,9.61487 17.5121,9.75814 17.4535,9.88307 17.3949,10.008 17.318,10.1093 17.2328,10.176 17.0225,9.9797 16.7862,9.79911 16.5511,9.65456 16.5403,9.55669 16.5419,9.45385 16.5531,9.35182 c 0.0238,-0.21634 0.0942,-0.41973 0.1992,-0.56836 0.105,-0.14861 0.2354,-0.2313 0.3652,-0.23241 z m -2.6289,0.10937 c 0.1033,-0.00239 0.2067,0.05901 0.2929,0.17383 0.092,0.12248 0.1556,0.2955 0.1758,0.48047 0.0119,0.10472 0.0104,0.21102 -0.0058,0.30859 -0.1628,0.11608 -0.323,0.258 -0.4669,0.41209 C 14.3974,9.99777 14.3158,9.91594 14.2522,9.803 14.1886,9.69006 14.1453,9.5524 14.1292,9.40652 14.119,9.31484 14.1196,9.22204 14.1311,9.13503 14.1426,9.04801 14.1642,8.96778 14.1956,8.8987 c 0.0313,-0.06908 0.0727,-0.1254 0.1191,-0.16601 0.0464,-0.0406 0.0979,-0.06438 0.1523,-0.07031 0.0069,-7.4e-4 0.0147,-0.0018 0.0216,-0.00196 z m -0.3438,2.54098 c 0.5782,0.2491 1.1189,0.696 1.7734,0.709 0.6545,0.0133 1.1443,-0.3705 1.6758,-0.709 -0.288,0.7984 -0.8724,1.4245 -1.6211,1.4082 -0.7488,-0.0156 -1.511,-0.5168 -1.8281,-1.4082 z m -3.8867,8.6934 v 0.0098 c -0.1901,-10e-4 -0.3414,0.067 -0.45902,0.1894 -0.00325,0.0033 -0.0071,0.0069 -0.00977,0.0098 -0.00974,0.0097 -0.0176,0.0196 -0.02734,0.0293 -0.013,0.0127 -0.0215,0.0281 -0.03125,0.0411 -0.00974,0.0143 -0.01956,0.0286 -0.0293,0.0449 -0.11993,0.1879 -0.26428,0.3273 -0.41211,0.4336 -0.02469,0.0175 -0.04823,0.0326 -0.07422,0.0488 -0.07441,0.0478 -0.14922,0.089 -0.22265,0.1231 -0.04873,0.0227 -0.09579,0.041 -0.14258,0.0605 C 8.75629,20.9212 8.66871,20.9503 8.59204,20.973 8.51536,20.9968 8.44805,21.0141 8.39087,21.0336 8.36228,21.0434 8.33874,21.0531 8.31275,21.0629 8.28774,21.0723 8.26518,21.087 8.24244,21.1 8.22034,21.1142 8.19747,21.1266 8.17798,21.1429 8.13769,21.176 8.10206,21.2169 8.0647,21.2718 8.04585,21.2991 8.0256,21.3305 8.00611,21.3656 7.98629,21.4017 7.96962,21.4379 7.95337,21.475 c -0.10819,0.2594 -0.11191,0.5448 -0.07812,0.8613 0.00942,0.0903 0.02086,0.1806 0.03711,0.2715 0.01429,0.0913 0.03192,0.1837 0.04492,0.2773 0.01962,0.1405 0.03123,0.2848 0.02148,0.4356 -0.00325,0.05 -0.00913,0.1003 -0.01562,0.1523 -0.01267,0.0819 -0.02606,0.1597 -0.03906,0.2344 -0.01299,0.0748 -0.0215,0.1476 -0.03125,0.2129 -0.01394,0.0978 -0.02018,0.1831 -0.01368,0.2539 0.00325,0.0237 0.00717,0.0469 0.01368,0.0664 0.01787,0.0601 0.03983,0.1105 0.10156,0.168 0.02047,0.0192 0.04693,0.0378 0.07617,0.0605 0.01527,0.0098 0.02933,0.0215 0.04883,0.0313 0.11066,0.0656 0.28108,0.1355 0.52929,0.1894 0.04127,0.0098 0.08505,0.0209 0.13086,0.0274 h 0.00781 c 0.45112,0.0887 0.93533,0.2043 1.41605,0.3105 0.1202,0.0267 0.2404,0.0502 0.3593,0.0762 0.1191,0.0251 0.2373,0.0475 0.3536,0.0703 0.1163,0.0221 0.2313,0.041 0.3437,0.0605 0.1125,0.0179 0.2225,0.0359 0.3301,0.0489 0.1611,0.0208 0.3163,0.0286 0.4609,0.0351 0.0481,0.0018 0.0948,0.0037 0.1407,0.0039 0.023,10e-5 0.0436,3e-4 0.0664,0 0.0224,-4e-4 0.0456,-0.0012 0.0683,-0.002 0.13,-0.0048 0.2463,-0.0144 0.3496,-0.0371 0.0179,-0.0065 0.0346,-0.0105 0.0508,-0.0137 0.0179,-0.0065 0.0306,-0.0104 0.0469,-0.0136 0.0309,-0.0065 0.0619,-0.0156 0.0879,-0.0254 0.0269,-0.0097 0.0534,-0.0196 0.0761,-0.0293 0.0241,-0.0127 0.047,-0.0222 0.0665,-0.0352 0.0208,-0.0127 0.0391,-0.026 0.0585,-0.039 0.0179,-0.013 0.0346,-0.0288 0.0508,-0.045 0.0163,-0.0159 0.0319,-0.0344 0.0449,-0.0507 0.0127,-0.0179 0.0261,-0.0352 0.0391,-0.0547 0.0276,-0.0445 0.0489,-0.0946 0.0684,-0.1446 0.0012,-0.0065 0.0026,-0.0084 0.0039,-0.0117 0.0065,-0.0159 0.0124,-0.0326 0.0156,-0.0488 0.0033,-0.0065 0.0065,-0.0091 0.0078,-0.0156 v -0.0039 c 0.0012,-0.0064 8e-4,-0.0091 0.002,-0.0157 0.0065,-0.0191 0.0104,-0.0391 0.0136,-0.0586 8e-4,-0.0065 0.0032,-0.0091 0.0039,-0.0156 0.0033,-0.0218 0.004,-0.0456 0.0059,-0.0684 3e-4,-0.0032 0.0017,-0.0049 0.002,-0.0078 10e-5,-0.0032 0,-0.0078 0,-0.0078 10e-5,-0.0033 0,-0.0059 0,-0.0059 0.0017,-0.0263 0.0019,-0.054 0.0019,-0.08 0,-0.0033 0,-0.0059 0,-0.0059 0,-0.0215 0.0011,-0.0417 0,-0.0645 -8e-4,-0.0191 -0.0022,-0.041 -0.0039,-0.0605 -0.0033,-0.0143 -0.0043,-0.0261 -0.0059,-0.0391 -8e-4,-0.0097 -10e-4,-0.0169 -0.0019,-0.0234 -0.0348,-0.27 -0.1406,-0.5859 -0.3086,-0.9473 -0.3332,-0.7167 -0.8821,-1.5398 -1.3516,-2.3535 -0.4156,-0.7205 -0.8731,-1.0148 -1.2128,-1.084 -0.0637,-0.013 -0.1229,-0.0192 -0.1797,-0.0195 z m 10.2675,0.0059 -0.0059,0.002 c -0.1383,0.0026 -0.2837,0.054 -0.4296,0.1641 -0.2769,0.2087 -0.5616,0.6688 -0.627,1.498 -0.0737,0.9365 -0.2174,1.9206 -0.2109,2.7109 3e-4,0.0397 0.0028,0.0769 0.0039,0.1153 0.0033,0.1358 0.0124,0.2626 0.0254,0.3808 0.0032,0.0351 0.0072,0.0698 0.0136,0.1036 6e-4,0.0065 0.0014,0.0104 0.002,0.0136 0.0126,0.0744 0.0248,0.1483 0.041,0.2149 0.0166,0.067 0.0372,0.1283 0.0567,0.1875 0.0065,0.0191 0.013,0.0371 0.0195,0.0566 0.0032,0.0098 0.0104,0.0216 0.0137,0.0313 0.0097,0.0189 0.0157,0.0371 0.0254,0.0566 0.0065,0.0064 0.0085,0.0169 0.0117,0.0234 0.0098,0.0189 0.0195,0.0352 0.0293,0.0547 0.0032,0.0065 0.0104,0.0131 0.0137,0.0196 0.0126,0.0189 0.0221,0.0383 0.0351,0.0546 0.0032,0.0032 0.0066,0.0104 0.0098,0.0137 0.0146,0.0211 0.0327,0.043 0.0489,0.0625 0.0169,0.0195 0.0352,0.0385 0.0546,0.0547 0.0173,0.0179 0.0333,0.0306 0.0528,0.0469 0.0033,0.0032 0.0069,0.0037 0.0098,0.0059 0.0179,0.0143 0.0352,0.028 0.0547,0.041 0.0195,0.0107 0.0391,0.0234 0.0586,0.0332 0.0403,0.0208 0.0838,0.0333 0.1289,0.043 0.0225,0.0033 0.0476,0.0076 0.0703,0.0098 0.0244,0.002 0.0501,0.0043 0.0761,0.0039 0.0264,0 0.0529,-0.0028 0.0821,-0.0059 0.0572,-0.0075 0.119,-0.017 0.1875,-0.0332 0.0341,-0.0065 0.069,-0.0163 0.1054,-0.0293 0.0364,-0.0126 0.0749,-0.0261 0.1133,-0.0391 0.0766,-0.0286 0.1551,-0.0622 0.2383,-0.1016 0.0416,-0.0195 0.0841,-0.0398 0.127,-0.0625 0.1287,-0.0666 0.2632,-0.1437 0.4003,-0.2304 0.0916,-0.0579 0.1854,-0.121 0.2793,-0.1856 0.6561,-0.4533 1.3581,-1.0535 2.004,-1.5332 h 0.0059 c 0.0192,-0.0143 0.0372,-0.028 0.0566,-0.041 0.1251,-0.0929 0.2212,-0.1789 0.2969,-0.2578 0.0214,-0.0228 0.041,-0.0456 0.0605,-0.0684 0.0195,-0.0211 0.0325,-0.041 0.0488,-0.0605 0.0143,-0.0198 0.0261,-0.0372 0.0391,-0.0567 0.013,-0.0179 0.0235,-0.0345 0.0332,-0.0507 0.0192,-0.0325 0.0312,-0.06 0.041,-0.086 0.0097,-0.0257 0.0202,-0.0476 0.0235,-0.0703 0.0057,-0.0215 0.0063,-0.043 0.0059,-0.0625 -0.0032,-0.0198 -0.0027,-0.0391 -0.0059,-0.0586 -0.0033,-0.0208 -0.0091,-0.0437 -0.0157,-0.0664 -0.0156,-0.0455 -0.041,-0.0942 -0.0703,-0.1465 -0.0152,-0.026 -0.0313,-0.0509 -0.0508,-0.0801 -0.0361,-0.0559 -0.0753,-0.1153 -0.1191,-0.1777 -0.0439,-0.0623 -0.092,-0.1288 -0.1387,-0.1973 -0.0296,-0.0432 -0.0573,-0.0869 -0.08,-0.1308 -0.0244,-0.0438 -0.047,-0.0883 -0.0665,-0.1328 -0.0198,-0.0442 -0.0384,-0.0903 -0.0546,-0.1348 -0.0179,-0.0445 -0.0339,-0.0864 -0.0469,-0.1308 -0.0293,-0.0894 -0.0541,-0.1792 -0.0801,-0.2676 -0.0257,-0.0884 -0.0528,-0.1759 -0.082,-0.2617 -0.0143,-0.0377 -0.028,-0.0753 -0.041,-0.1114 C 23.4015,21.0251 23.4008,21.0225 23.3988,21.016 23.3955,21.0052 23.3883,20.9925 23.3851,20.9828 23.3818,20.9763 23.3785,20.9653 23.3753,20.9555 23.372,20.9458 23.3648,20.934 23.3616,20.9242 23.3583,20.9145 23.3531,20.9046 23.3499,20.8949 23.334,20.8588 23.3154,20.8216 23.2991,20.7875 23.2979,20.7842 23.2965,20.7804 23.2952,20.7777 23.2854,20.7579 23.2738,20.7386 23.264,20.7191 c -0.0097,-0.0162 -0.0196,-0.0326 -0.0293,-0.0488 -0.0065,-0.0143 -0.0176,-0.03 -0.0274,-0.043 -0.0032,-0.0032 -0.004,-0.0069 -0.0059,-0.0098 -0.0065,-0.0108 -0.0169,-0.0202 -0.0234,-0.0332 -0.0033,-0.0065 -0.0065,-0.0124 -0.0098,-0.0156 -0.0097,-0.0098 -0.015,-0.0195 -0.0215,-0.0293 -0.0065,-0.0065 -0.0091,-0.0131 -0.0156,-0.0196 -0.0172,-0.0212 -0.0352,-0.043 -0.0547,-0.0625 -0.0065,-0.0098 -0.0156,-0.0157 -0.0254,-0.0254 -0.0032,-0.0033 -0.0066,-0.0065 -0.0098,-0.0098 -0.0127,-0.011 -0.0261,-0.0222 -0.0391,-0.0351 -0.0282,-0.0251 -0.0573,-0.0495 -0.0898,-0.0723 -0.2595,-0.1868 -0.3795,-0.1479 -0.6973,-0.1015 -0.3179,0.0465 -0.828,0.11 -1.332,-0.2051 -0.1076,-0.0673 -0.218,-0.1041 -0.332,-0.1074 -0.0098,-3e-4 -0.0157,-2e-4 -0.0254,0 z"
     id="path1"
     class="icon-linux-fg"
     style="display:inline;fill:#e4e4e7;fill-opacity:1;"
     />
</svg>
