<svg viewBox="0 0 14 12" version="1.1" xmlns="http://www.w3.org/2000/svg" xmlns:xlink="http://www.w3.org/1999/xlink">
    <g id="UI" stroke="none" stroke-width="1" fill="currentColor" fill-rule="evenodd">
        <path d="M7.00000834,12.0000012 C6.8750082,12.0000012 6.75000805,11.9531261 6.65625793,11.859376 L1.78125212,7.15624542 C1.71875205,7.10155785 0,5.53124348 0,3.65624125 C0,1.36717602 1.39843917,-1.31130219e-05 3.73437945,-1.31130219e-05 C5.10156858,-1.31130219e-05 6.38282011,1.07811317 7.00000834,1.6874889 C7.61719658,1.07811317 8.89844811,-1.31130219e-05 10.2656372,-1.31130219e-05 C12.6015775,-1.31130219e-05 14.0000167,1.36717602 14.0000167,3.65624125 C14.0000167,5.53124348 12.2812646,7.10155785 12.2109521,7.17187044 L7.34375875,11.859376 C7.25000864,11.9531261 7.12500849,12.0000012 7.00000834,12.0000012 Z"></path>
    </g>
</svg>
