<svg xmlns="http://www.w3.org/2000/svg" viewBox="0 0 24 24" fill="currentColor" height="24" width="24">
  <path d="M20.054 1H6.932A4.244 4.244 0 0 0 3 5.498v5.998h2.999V5.498A1.392 1.392 0 0 1 7.248 4h12.494a1.392 1.392 0 0 1 1.251 1.5v11.995a1.392 1.392 0 0 1-1.25 1.5H7.248a1.392 1.392 0 0 1-1.249-1.5v-1.499H2.999v1.5a4.248 4.248 0 0 0 3.94 4.498h14.429a2.831 2.831 0 0 0 2.624-2.999V5.498A4.248 4.248 0 0 0 20.054 1Z"/>
  <path d="M10.715 16.214a.75.75 0 1 0 1.06 1.06l3-2.999a.75.75 0 0 0 0-1.06l-3-3a.75.75 0 0 0-1.06 1.061l1.72 1.72H2.25a.75.75 0 0 1-.75-.75V9.247a.75.75 0 0 0-1.499 0v3a2.25 2.25 0 0 0 2.25 2.248h10.185Z"/>
</svg>
