<!-- This Source Code Form is subject to the terms of the Mozilla Public
   - License, v. 2.0. If a copy of the MPL was not distributed with this
   - file, You can obtain one at http://mozilla.org/MPL/2.0/. -->
<svg xmlns="http://www.w3.org/2000/svg" fill="currentColor" viewBox="0 0 24 24" height="24px" width="24px">
  <path d="M21.5 11.5a10 10 0 0 1-10 10 10 10 0 0 1-10-10 10 10 0 0 1 10-10 10 10 0 0 1 10 10z" opacity=".2"/>
  <path d="M11.5 1C5.707 1 1 5.707 1 11.5S5.707 22 11.5 22 22 17.293 22 11.5 17.293 1 11.5 1Zm0 1c5.253 0 9.5 4.247 9.5 9.5S16.753 21 11.5 21A9.492 9.492 0 0 1 2 11.5C2 6.247 6.247 2 11.5 2Zm0 5a.5.5 0 0 0-.5.5.5.5 0 0 0 .5.5.5.5 0 0 0 .5-.5.5.5 0 0 0-.5-.5Zm0 3a.5.5 0 0 0-.5.5v4a.5.5 0 0 0 .5.5.5.5 0 0 0 .5-.5v-4a.5.5 0 0 0-.5-.5Z"/>
</svg>
