<svg viewBox="0 0 17 18" version="1.1" xmlns="http://www.w3.org/2000/svg" xmlns:xlink="http://www.w3.org/1999/xlink">
    <g id="UI" stroke="none" stroke-width="1" fill="currentColor" fill-rule="evenodd">
        <path d="M15.0803746,12.7857105 C15.0803746,12.5245494 14.979928,12.2834777 14.7991242,12.1026739 L12.709836,10.0133857 C12.5290323,9.83258193 12.2779159,9.73213539 12.0267995,9.73213539 C11.7355045,9.73213539 11.5044775,9.84262659 11.3035844,10.0535643 C11.635058,10.3850379 12.0267995,10.6662883 12.0267995,11.1785657 C12.0267995,11.7109324 11.5948794,12.1428525 11.0625126,12.1428525 C10.5502352,12.1428525 10.2689849,11.751111 9.9375113,11.4196374 C9.72657355,11.6205305 9.60603769,11.8515576 9.60603769,12.1528972 C9.60603769,12.4040136 9.70648424,12.6551299 9.88728803,12.8359337 L11.9564869,14.9151773 C12.1372907,15.0959811 12.3884071,15.186383 12.6395235,15.186383 C12.8906398,15.186383 13.1417562,15.0959811 13.32256,14.9252219 L14.7991242,13.4587023 C14.979928,13.2778985 15.0803746,13.0368268 15.0803746,12.7857105 Z M8.01898223,5.7042288 C8.01898223,5.45311243 7.91853568,5.20199606 7.7377319,5.02119227 L5.668533,2.94194872 C5.48772921,2.76114493 5.23661284,2.66069838 4.98549647,2.66069838 C4.7343801,2.66069838 4.48326373,2.76114493 4.30245994,2.93190406 L2.82589568,4.39842367 C2.6450919,4.57922746 2.54464535,4.82029917 2.54464535,5.07141554 C2.54464535,5.33257657 2.6450919,5.57364829 2.82589568,5.75445207 L4.91518389,7.84374028 C5.09598767,8.02454406 5.34710405,8.11494596 5.59822042,8.11494596 C5.88951541,8.11494596 6.12054247,8.01449941 6.32143556,7.80356166 C5.98996195,7.47208805 5.59822042,7.19083771 5.59822042,6.67856032 C5.59822042,6.14619361 6.03014057,5.71427345 6.56250728,5.71427345 C7.07478468,5.71427345 7.35603501,6.10601499 7.68750862,6.4374886 C7.89844637,6.2365955 8.01898223,6.00556844 8.01898223,5.7042288 Z M17.0089483,12.7857105 C17.0089483,13.5491042 16.697564,14.2924087 16.1551526,14.8247754 L14.6785884,16.291295 C14.136177,16.8337064 13.4029172,17.1250013 12.6395235,17.1250013 C11.866085,17.1250013 11.1328252,16.8236617 10.5904139,16.2712057 L8.52121497,14.1919621 C7.97880361,13.6495508 7.68750862,12.916291 7.68750862,12.1528972 C7.68750862,11.3593695 8.00893758,10.6060204 8.57143825,10.0535643 L7.68750862,9.16963471 C7.13505261,9.73213539 6.39174815,10.0535643 5.59822042,10.0535643 C4.83482665,10.0535643 4.09152219,9.75222469 3.54911083,9.20981333 L1.45982263,7.12052513 C0.90736661,6.56806911 0.61607162,5.84485397 0.61607162,5.07141554 C0.61607162,4.30802178 0.92745592,3.56471732 1.46986728,3.03235061 L2.94643154,1.56583101 C3.4888429,1.02341965 4.2221027,0.732124656 4.98549647,0.732124656 C5.75893489,0.732124656 6.4921947,1.0334643 7.03460606,1.58592032 L9.10380495,3.66516387 C9.64621631,4.20757523 9.9375113,4.94083503 9.9375113,5.7042288 C9.9375113,6.49775653 9.61608235,7.25110564 9.05358168,7.80356166 L9.9375113,8.68749128 C10.4899673,8.12499061 11.2332718,7.80356166 12.0267995,7.80356166 C12.7901933,7.80356166 13.5334977,8.1049013 14.0759091,8.64731266 L16.1651973,10.7366009 C16.7176533,11.2890569 17.0089483,12.012272 17.0089483,12.7857105 Z"></path>
    </g>
</svg>
