<svg viewBox="0 0 17 21" version="1.1" xmlns="http://www.w3.org/2000/svg" xmlns:xlink="http://www.w3.org/1999/xlink">
    <g id="UI" stroke="none" stroke-width="1" fill="currentColor" fill-rule="evenodd">
        <path d="M4.77880832,9.85712957 L12.2073886,9.85712957 L12.2073886,7.07141197 C12.2073886,5.0256506 10.5388598,3.35712183 8.49309846,3.35712183 C6.44733709,3.35712183 4.77880832,5.0256506 4.77880832,7.07141197 L4.77880832,9.85712957 Z M16.8502513,11.2499884 L16.8502513,19.6071412 C16.8502513,20.3761153 16.2263666,21 15.4573925,21 L1.52880445,21 C0.759830315,21 0.135945643,20.3761153 0.135945643,19.6071412 L0.135945643,11.2499884 C0.135945643,10.4810142 0.759830315,9.85712957 1.52880445,9.85712957 L1.99309071,9.85712957 L1.99309071,7.07141197 C1.99309071,3.50221128 4.92389778,0.571404219 8.49309846,0.571404219 C12.0622991,0.571404219 14.9931062,3.50221128 14.9931062,7.07141197 L14.9931062,9.85712957 L15.4573925,9.85712957 C16.2263666,9.85712957 16.8502513,10.4810142 16.8502513,11.2499884 Z"></path>
    </g>
</svg>
