<svg width="635" height="466" viewBox="0 0 635 466" fill="none" xmlns="http://www.w3.org/2000/svg">
<g clip-path="url(#clip0_4383_21022)">
<g opacity="0.1" clip-path="url(#clip1_4383_21022)">
<path d="M391.577 108.454C407.827 103.332 406.414 87.258 406.414 87.258C406.414 87.258 398.289 77.7197 382.127 83.0187C367.025 87.9645 364.729 98.7392 364.729 98.7392C364.729 98.7392 373.03 114.283 391.577 108.454Z" fill="#A1A1AA"/>
<path d="M353.071 421.801C356.074 416.148 364.199 415.265 369.763 414.735C386.101 414.824 402.352 412.792 418.161 408.642C472.564 394.776 522.993 350.264 521.58 290.65C519.725 219.643 447.04 173.188 381.156 171.598C339.912 169.655 298.403 184.051 266.255 209.751C238.17 232.272 219.447 264.685 221.478 301.425C222.891 374.993 269.876 424.185 335.231 451.034C366.407 464.281 399.702 474.085 433.528 478.412C441.388 479.384 449.248 480.178 457.197 480.443C430.79 479.648 374.885 461.19 358.282 440.171C353.954 435.402 350.421 428.689 353.071 421.801ZM362.344 425.952C360.754 432.222 363.139 436.903 368.085 441.849C384.158 457.393 406.414 466.842 427.345 474.084C437.06 477.176 446.952 480.002 457.197 480.443C414.981 478.677 372.236 473.29 332.316 458.452C255.48 429.043 205.758 370.224 211.41 285.174C216.886 229.093 266.167 187.584 317.744 172.658C396.964 147.753 506.919 186.612 525.201 274.4C534.121 318.646 513.278 361.745 478.393 388.77C448.542 412.351 410.389 424.185 372.589 424.715C372.059 424.715 370.293 424.715 369.939 424.804C367.29 425.069 364.199 425.422 361.991 426.658C361.903 426.747 361.903 426.747 361.903 426.747C361.903 426.747 361.991 426.747 361.991 426.658C361.991 426.658 362.079 426.57 362.167 426.393C362.256 426.305 362.344 426.128 362.344 425.952Z" fill="#A1A1AA"/>
<path fill-rule="evenodd" clip-rule="evenodd" d="M351.922 323.771C361.107 329.247 374.354 329.6 383.274 323.771L489.696 243.314L398.906 332.25C381.419 349.295 353.6 349.295 336.113 332.25L245.411 243.403L351.922 323.771Z" fill="#A1A1AA"/>
<path d="M476.361 435.316C432.026 445.384 368.614 437.347 357.751 426.043C360.4 419.066 386.896 419.595 386.896 419.595C412.243 428.074 521.226 437.965 561.41 373.936C551.607 392.394 520.696 425.248 476.361 435.316Z" fill="#A1A1AA"/>
<path d="M689.47 133.624C669.334 109.779 645.665 86.5511 617.226 73.1269C637.716 68.4461 659.265 67.0331 680.108 66.4149C659.442 49.8996 637.009 32.3245 612.369 22.3446C513.63 -18.3696 353.158 -6.80003 307.852 104.568C299.815 108.277 242.497 133.889 254.596 189.441C254.596 189.441 274.821 142.456 341.147 136.715C340.882 130.975 332.669 119.582 328.253 116.932C358.457 48.1332 433.527 16.0741 508.861 14.0428C573.598 12.2765 634.802 34.1791 667.391 64.6485C622.702 66.9448 590.996 73.0386 567.327 79.2208C612.016 79.0442 646.018 91.6735 680.638 129.738C654.408 124.704 635.243 122.585 624.91 122.761C770.015 342.494 603.096 602.5 360.047 602.5C276.676 602.5 65.9511 536.615 65.9511 299.307C66.0394 297.452 66.1277 295.598 66.216 293.743C76.1075 398.575 149.941 485.038 248.061 522.043C287.98 537.498 330.814 545.094 373.383 544.564C374.266 544.564 243.115 545.623 147.821 445.56C89.4434 384.268 68.5123 298.247 85.4691 216.112C89.62 231.656 97.6569 256.12 109.491 262.832C107.99 181.934 194.011 147.225 186.592 78.8676C235.52 106.422 238.611 202.776 238.611 202.776C240.201 167.361 232.605 82.3119 184.473 67.6513C176.082 65.0901 166.809 66.6798 165.661 76.218C156.211 157.381 90.3266 182.817 102.868 250.114C83.5262 165.86 61.3586 185.996 56.9427 240.665C34.1569 524.869 256.628 607.004 359.605 607.004C577.219 607.004 780.966 385.505 638.776 126.47C655.821 127.53 673.396 130.798 689.47 133.624Z" fill="#A1A1AA"/>
<path d="M209.996 349.472C192.333 328.364 184.472 275.727 187.917 245.876C187.74 240.312 184.296 235.984 179.968 234.041C175.464 232.098 169.635 232.363 165.838 236.956C82.2012 337.195 158.507 430.282 157.536 428.692C115.055 360.776 140.667 294.627 180.233 244.462C180.145 258.24 181.823 318.119 209.996 349.472Z" fill="#A1A1AA"/>
</g>
</g>
<defs>
<clipPath id="clip0_4383_21022">
<rect width="635" height="466" fill="white"/>
</clipPath>
<clipPath id="clip1_4383_21022">
<rect width="635" height="607.622" fill="white" transform="translate(55)"/>
</clipPath>
</defs>
</svg>
