<svg width="1024" height="1024" viewBox="0 0 1024 1024" fill="none" xmlns="http://www.w3.org/2000/svg">
<mask id="mask0_4383_20858" style="mask-type:luminance" maskUnits="userSpaceOnUse" x="89" y="107" width="847" height="811">
<path d="M936 107H89V917.747H936V107Z" fill="white"/>
</mask>
<g mask="url(#mask0_4383_20858)">
<path d="M440.721 245.821H440.804C467.448 152.677 583.553 107.203 701.869 107.203C783.614 107.203 857.018 133.094 907.324 174.18C876.16 175.725 846.512 181.823 819.373 191.665C860.024 206.767 894.945 230.018 920.833 258.782C903.661 255.814 885.848 254.252 867.584 254.252C865.615 254.252 863.651 254.27 861.692 254.306C908.718 322.489 936.256 405.153 936.256 494.247C936.256 727.926 746.823 917.359 513.145 917.359C283.069 917.359 90.0322 724.719 90.0322 494.247C90.0322 457.848 94.8771 420.254 104.266 385.017C106.722 377.615 110.158 370.518 114.719 367.921C120.429 364.671 125.618 374.361 126.458 377.516C132.659 400.796 141.013 423.312 151.318 444.879C150.418 396.566 171.053 352.573 199.446 314.507C218.371 289.135 235.916 265.615 244.019 197.762C244.563 193.208 248.882 189.929 253.241 191.356C314.853 211.528 347.788 314.112 342.66 399.894C376.697 404.759 376.539 369.208 376.539 369.208C365.659 335.774 372.913 273.625 440.611 245.821H440.721Z" fill="url(#paint0_linear_4383_20858)"/>
<path opacity="0.9" d="M922.414 386.496C932.703 619.212 741.397 819.844 508.109 819.844C289.728 819.844 110.772 651.052 94.585 436.815C91.7329 456.606 90.1891 476.822 90.0439 497.369C91.7012 726.624 284.269 917.357 513.145 917.357C746.823 917.357 936.256 727.924 936.256 494.246C936.256 457.01 931.446 420.898 922.414 386.496Z" fill="url(#paint1_radial_4383_20858)"/>
<path d="M503.319 276.86C498.758 268.79 477.708 256.863 468.513 254.78C503.319 143.264 680.693 109.026 789.254 128.757C834.424 136.967 890.695 161.597 907.808 174.379C857.501 133.293 784.097 107.402 702.351 107.402C584.035 107.402 467.93 152.876 441.286 246.02H441.203H441.093C373.396 273.825 366.15 335.993 377.031 369.425C387.468 329.545 437.171 280.54 503.319 276.86Z" fill="url(#paint2_linear_4383_20858)"/>
<path d="M625.791 199.645C530.749 218.346 499.689 224.457 467.877 254.696C503.603 160.117 594.797 140.954 703.453 184.061C673.548 190.248 647.934 195.288 625.791 199.645Z" fill="url(#paint3_linear_4383_20858)"/>
<g style="mix-blend-mode:multiply">
<path d="M113.001 372.064C87.0361 478.369 107.099 603.321 225.062 708.18C189.943 669.783 147.072 527.976 241.687 426.664C248.06 419.839 259.025 424.861 259.371 434.193C267.166 644.73 437.062 773.32 632.92 749.272C572.232 745.863 371.534 675.573 520.827 647.761C598.867 633.223 721.223 610.429 721.223 500.651C721.223 322.668 583.606 270.633 500.165 278.375C443.052 283.674 392.222 319.911 376.572 369.192C382.578 388.625 358.638 402.23 342.661 399.946C347.789 314.163 314.853 211.527 253.241 191.355C248.883 189.928 244.563 193.207 244.019 197.761C235.916 265.614 218.372 289.134 199.446 314.506C171.053 352.572 150.419 396.564 151.319 444.878C141.014 423.311 132.659 400.796 126.459 377.515C125.763 374.902 121.984 367.621 117.411 367.277C114.935 367.092 113.624 369.51 113.001 372.064Z" fill="url(#paint4_radial_4383_20858)"/>
</g>
<path d="M468.404 658.537C583.291 751.822 814.354 681.884 814.354 455.053C721.067 596.454 602.258 693.983 468.404 658.537Z" fill="url(#paint5_linear_4383_20858)"/>
<path d="M241.683 426.666C244.108 424.068 247.202 423.175 250.125 423.582C165.429 526.874 233.739 708.298 280.624 752.863C283.244 760.285 236.151 721.692 229.656 712.655C193.997 682.399 142.886 532.455 241.683 426.666Z" fill="url(#paint6_linear_4383_20858)"/>
<path d="M513.142 667.08C628.066 667.08 721.229 591.062 721.229 497.291C721.229 403.518 628.066 327.502 513.142 327.502C415.099 327.502 305.017 391.286 305.054 499.769C305.11 667.413 482.21 763.855 633.172 749.255C621.835 747.94 551.096 744.183 503.281 690.094C498.969 685.216 491.483 676.713 494.879 671.183C498.274 665.654 507.602 667.08 513.142 667.08Z" fill="url(#paint7_linear_4383_20858)"/>
<path opacity="0.6" d="M698.561 420.151L534.109 577.503C519.514 587.87 503.98 588.633 488.642 579.217L327.362 420.717C331.905 413.394 337.08 406.374 342.826 399.709C348.638 405.143 354.264 410.413 359.754 415.556C402.124 455.242 436.372 487.317 484.637 528.512C506.427 547.11 513.198 546.744 534.559 528.512C589.792 481.373 630.171 445.699 682.68 398.822C688.586 405.58 693.901 412.707 698.561 420.151Z" fill="white"/>
<path opacity="0.7" fill-rule="evenodd" clip-rule="evenodd" d="M513.141 667.078C628.064 667.078 721.229 591.061 721.229 497.29C721.229 468.656 712.541 441.679 697.203 418.018L532.046 568.021C520.513 578.496 501.085 578.496 489.551 568.021L327.466 420.807C313.361 443.482 305.044 469.935 305.054 499.768C305.11 667.413 482.21 763.854 633.172 749.256C632.487 749.175 631.585 749.087 630.486 748.979C613.372 747.301 548.205 740.914 503.28 690.092C498.969 685.216 491.483 676.712 494.877 671.182C497.728 666.54 504.764 666.8 510.225 667.004C511.269 667.042 512.252 667.078 513.141 667.078Z" fill="url(#paint8_linear_4383_20858)"/>
<mask id="mask1_4383_20858" style="mask-type:luminance" maskUnits="userSpaceOnUse" x="305" y="418" width="417" height="333">
<path opacity="0.7" fill-rule="evenodd" clip-rule="evenodd" d="M513.139 667.078C628.062 667.078 721.227 591.061 721.227 497.29C721.227 468.656 712.54 441.679 697.201 418.018L532.044 568.021C520.511 578.496 501.083 578.496 489.549 568.021L327.464 420.807C313.359 443.482 305.042 469.935 305.052 499.768C305.108 667.413 482.208 763.854 633.17 749.256C632.485 749.175 631.583 749.087 630.484 748.979C613.37 747.301 548.203 740.914 503.278 690.092C498.967 685.216 491.481 676.712 494.875 671.182C497.726 666.54 504.762 666.8 510.224 667.004C511.267 667.042 512.25 667.078 513.139 667.078Z" fill="white"/>
</mask>
<g mask="url(#mask1_4383_20858)">
<g filter="url(#filter0_f_4383_20858)">
<path fill-rule="evenodd" clip-rule="evenodd" d="M464.839 569.015C434.194 537.119 342.408 431.17 342.408 431.17L349.512 431.475L493.194 538.793C503.959 546.612 519.303 546.533 529.971 538.605L670.863 431.613L678.343 431.031C678.343 431.031 589.559 534.472 555.554 568.552C521.547 602.631 495.485 600.911 464.839 569.015Z" fill="#458FCD"/>
</g>
</g>
<path d="M542.336 242.576C564.604 235.562 562.656 213.517 562.656 213.517C562.656 213.517 551.515 200.409 529.453 207.674C508.8 214.475 505.599 229.178 505.599 229.178C505.599 229.178 516.881 250.591 542.336 242.576Z" fill="white"/>
</g>
<defs>
<filter id="filter0_f_4383_20858" x="303.724" y="392.347" width="413.304" height="239.863" filterUnits="userSpaceOnUse" color-interpolation-filters="sRGB">
<feFlood flood-opacity="0" result="BackgroundImageFix"/>
<feBlend mode="normal" in="SourceGraphic" in2="BackgroundImageFix" result="shape"/>
<feGaussianBlur stdDeviation="19.3422" result="effect1_foregroundBlur_4383_20858"/>
</filter>
<linearGradient id="paint0_linear_4383_20858" x1="397.854" y1="273.986" x2="833.352" y2="803.025" gradientUnits="userSpaceOnUse">
<stop stop-color="#F53DB8"/>
<stop offset="1" stop-color="#590DF2"/>
</linearGradient>
<radialGradient id="paint1_radial_4383_20858" cx="0" cy="0" r="1" gradientUnits="userSpaceOnUse" gradientTransform="translate(235.793 438.097) rotate(66.5179) scale(357.78 342.743)">
<stop offset="0.525579" stop-color="#0B4186" stop-opacity="0"/>
<stop offset="1" stop-color="#0B4186" stop-opacity="0.45"/>
</radialGradient>
<linearGradient id="paint2_linear_4383_20858" x1="588.906" y1="318.353" x2="443.469" y2="216.62" gradientUnits="userSpaceOnUse">
<stop stop-color="#D13AEF" stop-opacity="0"/>
<stop offset="1" stop-color="#F9D286" stop-opacity="0.9"/>
</linearGradient>
<linearGradient id="paint3_linear_4383_20858" x1="308.522" y1="459.122" x2="617.483" y2="150.161" gradientUnits="userSpaceOnUse">
<stop stop-color="#450FB0"/>
<stop offset="1" stop-color="#450FB0" stop-opacity="0"/>
</linearGradient>
<radialGradient id="paint4_radial_4383_20858" cx="0" cy="0" r="1" gradientUnits="userSpaceOnUse" gradientTransform="translate(353.571 724.78) rotate(-64.2627) scale(558.17 689.499)">
<stop offset="0.0160882" stop-color="#650877"/>
<stop offset="0.967387" stop-color="#340B86" stop-opacity="0"/>
</radialGradient>
<linearGradient id="paint5_linear_4383_20858" x1="779" y1="562.085" x2="631.096" y2="747.643" gradientUnits="userSpaceOnUse">
<stop stop-color="#D647E2" stop-opacity="0"/>
<stop offset="1" stop-color="#E7BB65" stop-opacity="0.64"/>
</linearGradient>
<linearGradient id="paint6_linear_4383_20858" x1="174.604" y1="414.572" x2="242.79" y2="697.674" gradientUnits="userSpaceOnUse">
<stop offset="0.104632" stop-color="#F9BF86"/>
<stop offset="1" stop-color="#D63AEF" stop-opacity="0"/>
</linearGradient>
<linearGradient id="paint7_linear_4383_20858" x1="513.149" y1="389.681" x2="513.149" y2="747.512" gradientUnits="userSpaceOnUse">
<stop stop-color="white"/>
<stop offset="0.90535" stop-color="#BEE1FE"/>
<stop offset="1" stop-color="#96CEFD"/>
</linearGradient>
<linearGradient id="paint8_linear_4383_20858" x1="519.841" y1="592.168" x2="519.841" y2="742.071" gradientUnits="userSpaceOnUse">
<stop stop-color="#BCE0FD"/>
<stop offset="1" stop-color="#88CCFC"/>
</linearGradient>
</defs>
</svg>
