<svg viewBox="0 0 22 15" version="1.1" xmlns="http://www.w3.org/2000/svg" xmlns:xlink="http://www.w3.org/1999/xlink">
    <g id="UI" stroke="none" stroke-width="1" fill="currentColor" fill-rule="evenodd">
        <path d="M10.8125123,4.71427345 L6.95536481,4.71427345 L6.95536481,8.57142091 L10.8125123,8.57142091 L10.8125123,4.71427345 Z M12.0982281,11.1428525 L12.0982281,12.4285684 L5.66964899,12.4285684 L5.66964899,11.1428525 L12.0982281,11.1428525 Z M12.0982281,3.42855763 L12.0982281,9.85713673 L5.66964899,9.85713673 L5.66964899,3.42855763 L12.0982281,3.42855763 Z M18.5268072,11.1428525 L18.5268072,12.4285684 L13.3839439,12.4285684 L13.3839439,11.1428525 L18.5268072,11.1428525 Z M18.5268072,8.57142091 L18.5268072,9.85713673 L13.3839439,9.85713673 L13.3839439,8.57142091 L18.5268072,8.57142091 Z M18.5268072,5.99998927 L18.5268072,7.28570509 L13.3839439,7.28570509 L13.3839439,5.99998927 L18.5268072,5.99998927 Z M18.5268072,3.42855763 L18.5268072,4.71427345 L13.3839439,4.71427345 L13.3839439,3.42855763 L18.5268072,3.42855763 Z M3.09821735,13.0714263 L3.09821735,3.42855763 L1.81250153,3.42855763 L1.81250153,13.0714263 C1.81250153,13.4229892 2.10379652,13.7142842 2.45535944,13.7142842 C2.80692236,13.7142842 3.09821735,13.4229892 3.09821735,13.0714263 Z M19.812523,13.0714263 L19.812523,2.14284182 L4.38393317,2.14284182 L4.38393317,13.0714263 C4.38393317,13.2924087 4.34375455,13.5133911 4.27344197,13.7142842 L19.1696651,13.7142842 C19.521228,13.7142842 19.812523,13.4229892 19.812523,13.0714263 Z M21.0982388,0.857125998 L21.0982388,13.0714263 C21.0982388,14.1361597 20.2343985,15 19.1696651,15 L2.45535944,15 C1.39062603,15 0.526785714,14.1361597 0.526785714,13.0714263 L0.526785714,2.14284182 L3.09821735,2.14284182 L3.09821735,0.857125998 L21.0982388,0.857125998 Z"></path>
    </g>
</svg>
