<svg width="16" height="16" viewBox="0 0 16 16" fill="currentColor" xmlns="http://www.w3.org/2000/svg">
  <path opacity="0.2" d="M4.00049 1.5C2.61555 1.5 1.5006 2.54241 1.5006 3.83724L1.50007 4.77214C1.50007 6.06698 1.5 5.23959 1.5 5.23959H4.00009C5.00005 5.23959 6.50038 5.23959 6.50038 5.23959H14.5V3.83724C14.5 2.54241 13.3851 1.5 12.0001 1.5H4.00049Z" />
  <path d="M1 4C1 2.34316 2.34315 1 4 1H12C13.6569 1 15 2.34316 15 4V5.5V12C15 13.6569 13.6569 15 12 15H6.5H4C2.34315 15 1 13.6569 1 12V5.5V4ZM12 2H4C3.723 2 3.46015 2.05531 3.22071 2.15625C2.74184 2.35812 2.35812 2.74184 2.15625 3.22071C2.10578 3.34043 2.06756 3.46527 2.04102 3.59571V3.59766C2.02793 3.66227 2.0165 3.72817 2.00977 3.79492C2.00294 3.86216 2 3.93096 2 4V5H14V4C14 3.93096 13.9971 3.86216 13.9903 3.79492C13.9836 3.72817 13.9722 3.66227 13.9591 3.59766V3.59571C13.9325 3.46528 13.8942 3.34043 13.8438 3.22071C13.6419 2.74184 13.2583 2.35813 12.7794 2.15626C12.6603 2.1059 12.5339 2.06765 12.4044 2.04102H12.4024C12.3373 2.02769 12.2723 2.01659 12.2051 2.00977C12.1377 2.00296 12.0693 2 12 2ZM5 6H2V12C2 12.0693 2.00296 12.1377 2.00977 12.2051C2.01659 12.2723 2.02769 12.3373 2.04102 12.4024C2.06758 12.5335 2.10555 12.659 2.15626 12.7793C2.35813 13.2582 2.74184 13.6418 3.22071 13.8438C3.34043 13.8942 3.46528 13.9324 3.59571 13.959H3.59766C3.72751 13.9853 3.86216 14 4 14H5H6H7H8H12C12.2761 14 12.54 13.9449 12.7793 13.8438C13.2582 13.6418 13.6418 13.2582 13.8438 12.7793C13.9449 12.54 14 12.2761 14 12V6H8H7H6H5Z" />
</svg>
