<svg width="16" height="16" viewBox="0 0 16 16" fill="currentColor" xmlns="http://www.w3.org/2000/svg">
  <path opacity="0.2" d="M13.5139 8.32727C14.1689 7.67268 14.5 6.91607 14.5 6C14.5 5.08392 14.1689 4.13644 13.5139 3.48187C12.8589 2.8273 12.0041 2.5 11.1493 2.5C10.2945 2.5 9.43964 3.05771 8.78464 3.71228L7.99642 4.5L7.20821 3.71228C6.5532 3.05771 5.69839 2.5 4.84357 2.5C3.98875 2.5 3.13393 2.8273 2.47893 3.48187C1.82392 4.13644 1.5 5.08392 1.5 6C1.5 6.91607 1.82392 7.67268 2.47893 8.32727C4.10022 9.90809 5.59918 11.3994 7.13023 13.0671C7.34678 13.2835 7.6716 13.5 7.99642 13.5C8.32124 13.5 8.64607 13.2835 8.86261 13.0671C10.3624 11.3713 11.9136 9.92658 13.5139 8.32727Z" />
  <path d="M4.84375 2C3.8613 2 2.87491 2.37949 2.125 3.12891C1.35765 3.89574 1 4.96606 1 6C1 7.03393 1.39203 7.94914 2.125 8.68164C2.1263 8.68295 2.1276 8.68425 2.12891 8.68555C3.74795 10.2642 5.2402 11.747 6.76172 13.4043C6.76682 13.4096 6.77202 13.4148 6.77735 13.4199C7.05278 13.6952 7.4491 14 7.99609 14C8.54309 14 8.94136 13.6952 9.2168 13.4199C9.22351 13.413 9.23003 13.4058 9.23633 13.3984C10.7161 11.7252 12.2591 10.2887 13.8672 8.68164C14.5989 7.95043 15 7.03655 15 6C15 4.96344 14.6332 3.89445 13.8672 3.12891C13.1173 2.3795 12.1309 2 11.1484 2C10.0762 2 9.14006 2.65142 8.43164 3.35938L7.99609 3.79297L7.5625 3.35938C6.85409 2.65144 5.91604 2 4.84375 2ZM4.84375 3C5.48109 3 6.25386 3.46521 6.85547 4.06641L7.64258 4.85352C7.73635 4.94725 7.86351 4.9999 7.99609 4.9999C8.12868 4.9999 8.25584 4.94725 8.34961 4.85352L9.13867 4.06641C9.74026 3.46522 10.5111 3 11.1484 3C11.8756 3 12.6001 3.27621 13.1602 3.83594C13.7041 4.37953 14 5.2044 14 6C14 6.79559 13.7385 7.39469 13.1602 7.97266C11.5752 9.55661 10.0227 11.0052 8.50977 12.7129C8.35213 12.8704 8.09874 13 7.99609 13C7.89345 13 7.64204 12.8704 7.48438 12.7129C5.95008 11.0425 4.44898 9.54929 2.83203 7.97266C2.25498 7.39598 2 6.7982 2 6C2 5.20178 2.28937 4.37824 2.83203 3.83594C3.39212 3.27621 4.11656 3 4.84375 3Z" />
</svg>
