<svg width="16" height="16" viewBox="0 0 16 16" fill="currentColor" xmlns="http://www.w3.org/2000/svg">
  <path opacity="0.2" d="M6.5 5.5H9.5C10.054 5.5 10.5 5.946 10.5 6.5V9.5C10.5 10.054 10.054 10.5 9.5 10.5H6.5C5.946 10.5 5.5 10.054 5.5 9.5V6.5C5.5 5.946 5.946 5.5 6.5 5.5Z" />
  <path d="M1.5 1C1.45645 1.00022 1.41311 1.00613 1.37109 1.01758C1.2862 1.04008 1.20874 1.08454 1.14648 1.14648C1.11701 1.17636 1.09142 1.20983 1.07031 1.24609C1.069 1.24739 1.0677 1.24869 1.06641 1.25C1.06575 1.2513 1.0651 1.2526 1.06445 1.25391C1.04394 1.29083 1.02819 1.33021 1.01758 1.37109C1.00613 1.41311 1.00022 1.45645 1 1.5V4.5C1 4.63261 1.05268 4.75981 1.14645 4.85358C1.24021 4.94734 1.36739 5 1.5 5C1.63261 5 1.75979 4.94734 1.85355 4.85358C1.94732 4.75981 2 4.63261 2 4.5V2.70703L4.14648 4.85352C4.24024 4.94729 4.3674 4.99998 4.5 5C4.6326 4.99998 4.75976 4.94729 4.85352 4.85352C4.94726 4.75975 4.99993 4.63259 4.99993 4.5C4.99993 4.36741 4.94726 4.24025 4.85352 4.14648L2.70703 2H4.5C4.63261 2 4.75979 1.94734 4.85355 1.85358C4.94732 1.75981 5 1.63261 5 1.5C5 1.36739 4.94732 1.24019 4.85355 1.14642C4.75979 1.05266 4.63261 1 4.5 1H1.5ZM11.5 1C11.3674 1 11.2402 1.05266 11.1464 1.14642C11.0527 1.24019 11 1.36739 11 1.5C11 1.63261 11.0527 1.75981 11.1464 1.85358C11.2402 1.94734 11.3674 2 11.5 2H13.293L11.1465 4.14648C11.0527 4.24024 11 4.3674 11 4.5C11 4.6326 11.0527 4.75976 11.1465 4.85352C11.2402 4.94726 11.3674 4.99994 11.5 4.99994C11.6326 4.99994 11.7598 4.94726 11.8535 4.85352L14 2.70703V4.5C14 4.63261 14.0527 4.75981 14.1464 4.85358C14.2402 4.94734 14.3674 5 14.5 5C14.6326 5 14.7598 4.94734 14.8536 4.85358C14.9473 4.75981 15 4.63261 15 4.5V1.5C14.9998 1.45645 14.9939 1.41311 14.9824 1.37109C14.9599 1.2862 14.9155 1.20874 14.8535 1.14648C14.8236 1.11701 14.7902 1.09142 14.7539 1.07031C14.7526 1.06901 14.7513 1.0677 14.75 1.06641C14.7487 1.06575 14.7474 1.0651 14.7461 1.06445C14.7092 1.04394 14.6698 1.02819 14.6289 1.01758C14.5869 1.00613 14.5436 1.00022 14.5 1H11.5ZM6.5 5C5.67765 5 5 5.67765 5 6.5V9.5C5 10.3224 5.67765 11 6.5 11H9.5C10.3223 11 11 10.3224 11 9.5V6.5C11 5.67765 10.3223 5 9.5 5H6.5ZM6.5 6H9.5C9.78564 6 10 6.21435 10 6.5V9.5C10 9.78565 9.78564 10 9.5 10H6.5C6.21435 10 6 9.78565 6 9.5V6.5C6 6.21435 6.21435 6 6.5 6ZM1.5 11C1.36739 11 1.24021 11.0527 1.14645 11.1464C1.05268 11.2402 1 11.3674 1 11.5V14.5C1.00022 14.5436 1.00613 14.5869 1.01758 14.6289C1.04008 14.7138 1.08454 14.7913 1.14648 14.8535C1.17636 14.883 1.20983 14.9086 1.24609 14.9297C1.24739 14.931 1.24869 14.9323 1.25 14.9336C1.2513 14.9343 1.2526 14.9349 1.25391 14.9355C1.29083 14.9561 1.33021 14.9718 1.37109 14.9824C1.41311 14.9939 1.45645 14.9998 1.5 15H4.5C4.63261 15 4.75979 14.9473 4.85355 14.8536C4.94732 14.7598 5 14.6326 5 14.5C5 14.3674 4.94732 14.2402 4.85355 14.1464C4.75979 14.0527 4.63261 14 4.5 14H2.70703L4.85352 11.8535C4.94729 11.7598 4.99998 11.6326 5 11.5C4.99998 11.3674 4.94729 11.2402 4.85352 11.1465C4.75975 11.0527 4.63259 11.0001 4.5 11.0001C4.36741 11.0001 4.24025 11.0527 4.14648 11.1465L2 13.293V11.5C2 11.3674 1.94732 11.2402 1.85355 11.1464C1.75979 11.0527 1.63261 11 1.5 11ZM11.5 11C11.3674 11 11.2402 11.0527 11.1465 11.1465C11.0527 11.2402 11.0001 11.3674 11.0001 11.5C11.0001 11.6326 11.0527 11.7598 11.1465 11.8535L13.293 14H11.5C11.3674 14 11.2402 14.0527 11.1464 14.1464C11.0527 14.2402 11 14.3674 11 14.5C11 14.6326 11.0527 14.7598 11.1464 14.8536C11.2402 14.9473 11.3674 15 11.5 15H14.5C14.5436 14.9998 14.5869 14.9939 14.6289 14.9824C14.7138 14.9599 14.7913 14.9155 14.8535 14.8535C14.883 14.8236 14.9086 14.7902 14.9297 14.7539C14.931 14.7526 14.9323 14.7513 14.9336 14.75C14.9343 14.7487 14.9349 14.7474 14.9355 14.7461C14.9561 14.7092 14.9718 14.6698 14.9824 14.6289C14.9939 14.5869 14.9998 14.5436 15 14.5V11.5C15 11.3674 14.9473 11.2402 14.8536 11.1464C14.7598 11.0527 14.6326 11 14.5 11C14.3674 11 14.2402 11.0527 14.1464 11.1464C14.0527 11.2402 14 11.3674 14 11.5V13.293L11.8535 11.1465C11.7598 11.0527 11.6326 11 11.5 11V11Z" />
</svg>
