<svg width="16" height="16" viewBox="0 0 16 16" fill="currentColor" xmlns="http://www.w3.org/2000/svg">
  <path opacity="0.2" d="M4 1.5C2.615 1.5 1.5 2.615 1.5 4V12C1.5 13.385 2.115 14.5 3.5 14.5H6.5C6.50244 12 6.5 5.5 6.5 5.5H14.5V4C14.5 2.615 13.385 1.5 12 1.5H4Z" />
  <path d="M4 1C2.34314 1 1 2.34315 1 4V5.5V12C1 13.6569 2.34314 15 4 15H6.5H12C13.6569 15 15 13.6569 15 12V5.5V4C15 2.34315 13.6569 1 12 1H4ZM4 2H12C12.0693 2 12.1377 2.00296 12.2051 2.00977C12.2723 2.01659 12.3372 2.02769 12.4023 2.04102H12.4043C12.5338 2.06765 12.6602 2.10589 12.7793 2.15625C13.2582 2.35812 13.6419 2.74184 13.8438 3.22071C13.8942 3.34043 13.9324 3.46528 13.959 3.59571V3.59766C13.9721 3.66227 13.9836 3.72817 13.9903 3.79492C13.9971 3.86216 14 3.93096 14 4V5H2V4C2 3.93096 2.00294 3.86216 2.00977 3.79492C2.0165 3.72817 2.02793 3.66227 2.04102 3.59766V3.59571C2.06756 3.46527 2.10578 3.34042 2.15625 3.2207C2.35812 2.74183 2.74183 2.35812 3.2207 2.15625C3.46014 2.05531 3.723 2 4 2ZM2 6H6V14H4C3.86216 14 3.72751 13.9853 3.59766 13.959H3.59571C3.46527 13.9324 3.34043 13.8942 3.22071 13.8437C2.74184 13.6418 2.35812 13.2582 2.15625 12.7793C2.10554 12.659 2.06758 12.5334 2.04102 12.4023C2.02769 12.3372 2.01659 12.2723 2.00977 12.2051C2.00296 12.1377 2 12.0693 2 12V6ZM7 6H14V12C14 12.2761 13.9449 12.54 13.8438 12.7793C13.6418 13.2582 13.2582 13.6418 12.7793 13.8438C12.54 13.9449 12.2761 14 12 14H7V6Z" />
</svg>
