<svg width="16" height="16" viewBox="0 0 16 16" fill="currentColor" xmlns="http://www.w3.org/2000/svg">
  <path opacity="0.2" d="M6.5 5.5H9.5C10.054 5.5 10.5 5.946 10.5 6.5V9.5C10.5 10.054 10.054 10.5 9.5 10.5H6.5C5.946 10.5 5.5 10.054 5.5 9.5V6.5C5.5 5.946 5.946 5.5 6.5 5.5Z" />
  <path d="M4 1C2.34665 1 1 2.34665 1 4V5.48828C1 5.62089 1.05268 5.74809 1.14645 5.84186C1.24021 5.93563 1.36739 5.98828 1.5 5.98828C1.63261 5.98828 1.75979 5.93563 1.85355 5.84186C1.94732 5.74809 2 5.62089 2 5.48828V4C2 2.88335 2.88336 2 4 2H5.5C5.63261 2 5.75979 1.94734 5.85355 1.85358C5.94732 1.75981 6 1.63261 6 1.5C6 1.36739 5.94732 1.24019 5.85355 1.14642C5.75979 1.05266 5.63261 1 5.5 1H4ZM10.5 1C10.3674 1 10.2402 1.05266 10.1464 1.14642C10.0527 1.24019 10 1.36739 10 1.5C10 1.63261 10.0527 1.75981 10.1464 1.85358C10.2402 1.94734 10.3674 2 10.5 2H12C13.1166 2 14 2.88335 14 4V5.5C14 5.63261 14.0527 5.75981 14.1464 5.85358C14.2402 5.94734 14.3674 6 14.5 6C14.6326 6 14.7598 5.94734 14.8536 5.85358C14.9473 5.75981 15 5.63261 15 5.5V4C15 2.34665 13.6533 1 12 1H10.5ZM6.5 5C5.67765 5 5 5.67765 5 6.5V9.5C5 10.3224 5.67765 11 6.5 11H9.5C10.3223 11 11 10.3224 11 9.5V6.5C11 5.67765 10.3223 5 9.5 5H6.5ZM6.5 6H9.5C9.78564 6 10 6.21435 10 6.5V9.5C10 9.78565 9.78564 10 9.5 10H6.5C6.21436 10 6 9.78565 6 9.5V6.5C6 6.21435 6.21436 6 6.5 6ZM1.5 10C1.36739 10 1.24021 10.0527 1.14645 10.1464C1.05268 10.2402 1 10.3674 1 10.5V12C1 13.6533 2.34665 15 4 15H5.5C5.63261 15 5.75979 14.9473 5.85355 14.8536C5.94732 14.7598 6 14.6326 6 14.5C6 14.3674 5.94732 14.2402 5.85355 14.1464C5.75979 14.0527 5.63261 14 5.5 14H4C2.88336 14 2 13.1166 2 12V10.5C2 10.3674 1.94732 10.2402 1.85355 10.1464C1.75979 10.0527 1.63261 10 1.5 10ZM14.5 10C14.3674 10 14.2402 10.0527 14.1464 10.1464C14.0527 10.2402 14 10.3674 14 10.5V12C14 13.1166 13.1166 14 12 14H10.5C10.3674 14 10.2402 14.0527 10.1464 14.1464C10.0527 14.2402 10 14.3674 10 14.5C10 14.6326 10.0527 14.7598 10.1464 14.8536C10.2402 14.9473 10.3674 15 10.5 15H12C13.6533 15 15 13.6533 15 12V10.5C15 10.3674 14.9473 10.2402 14.8536 10.1464C14.7598 10.0527 14.6326 10 14.5 10Z" />
</svg>
