<svg viewBox="0 0 11 10" version="1.1" xmlns="http://www.w3.org/2000/svg" xmlns:xlink="http://www.w3.org/1999/xlink">
    <g id="UI" stroke="none" stroke-width="1" fill="currentColor" fill-rule="evenodd">
        <path d="M10.9263515,1.73214611 C10.6317083,2.16071805 10.2634042,2.54241494 9.84152874,2.85045102 C9.84822517,2.94420113 9.84822517,3.03795124 9.84822517,3.13170135 C9.84822517,5.99107976 7.67188329,9.28572655 3.69419998,9.28572655 C2.46875209,9.28572655 1.33035788,8.93081541 0.37276745,8.31474325 C0.5468748,8.33483256 0.714285714,8.34152899 0.895089501,8.34152899 C1.90625142,8.34152899 2.8370561,8.00001073 3.58036056,7.41742075 C2.62946657,7.39733144 1.83259062,6.77456284 1.55803672,5.91741896 C1.69196545,5.93750827 1.82589418,5.95090114 1.96651935,5.95090114 C2.16071601,5.95090114 2.35491267,5.9241154 2.53571646,5.87724034 C1.54464385,5.67634724 0.801339389,4.80581049 0.801339389,3.75446995 C0.801339389,3.74777352 0.801339389,3.73438064 0.801339389,3.72768421 C1.08928616,3.88839868 1.42410799,3.98884523 1.77901913,4.00223811 C1.19642915,3.61384479 0.814732263,2.95089757 0.814732263,2.20089667 C0.814732263,1.79911048 0.921875247,1.43080647 1.10937547,1.10937751 C2.17410888,2.42187908 3.77455722,3.27902296 5.56920222,3.37277307 C5.53572003,3.21205859 5.51563072,3.04464768 5.51563072,2.87723676 C5.51563072,1.68527106 6.47991759,0.714287758 7.67857973,0.714287758 C8.30134833,0.714287758 8.863849,0.975448783 9.25893876,1.39732429 C9.74777863,1.30357417 10.2165292,1.12277039 10.6317083,0.875002235 C10.4709938,1.37723498 10.1294755,1.79911048 9.68081426,2.06696794 C10.1160826,2.02009289 10.5379581,1.89955703 10.9263515,1.73214611 Z"></path>
    </g>
</svg>
