<?xml version="1.0" encoding="UTF-8" standalone="no"?>
<!-- Created with Inkscape (http://www.inkscape.org/) -->

<svg
   version="1.1"
   id="svg2"
   width="32"
   height="22.545456"
   viewBox="0 0 32 22.545456"
   xmlns="http://www.w3.org/2000/svg"
   xmlns:svg="http://www.w3.org/2000/svg">
  <defs
     id="defs6">
    <clipPath
       clipPathUnits="userSpaceOnUse"
       id="clipPath18">
      <path
         d="M 0,192 H 192 V 0 H 0 Z"
         id="path16" />
    </clipPath>
  </defs>
  <g
     id="g10"
     transform="matrix(0.18181818,0,0,-0.18181818,-1.4545454,28.727291)">
    <g
       id="g12">
      <g
         id="g14"
         clip-path="url(#clipPath18)">
        <g
           id="g20"
           fill="currentColor"
           transform="translate(78,69.8311)">
          <path
             d="M 0,0 V 52.338 L 46,26.168 Z M 102.322,68.806 C 100.298,76.428 94.334,82.43 86.762,84.467 73.037,88.169 18,88.169 18,88.169 c 0,0 -55.037,0 -68.762,-3.702 C -58.334,82.43 -64.298,76.428 -66.322,68.806 -70,54.992 -70,26.169 -70,26.169 c 0,0 0,-28.822 3.678,-42.637 2.024,-7.622 7.988,-13.624 15.56,-15.662 13.725,-3.701 68.762,-3.701 68.762,-3.701 0,0 55.037,0 68.762,3.701 7.572,2.038 13.536,8.04 15.56,15.662 C 106,-2.653 106,26.169 106,26.169 c 0,0 0,28.823 -3.678,42.637"
             style="fill:currentColor;fill-opacity:1;fill-rule:nonzero;stroke:none"
             id="path22" />
        </g>
      </g>
    </g>
  </g>
</svg>
