<svg width="32" height="32" viewBox="0 0 32 32" fill="currentColor" xmlns="http://www.w3.org/2000/svg">
  <path d="M25.0856 10.7482C25.1 10.9523 25.1 11.1628 25.1 11.371C25.1 17.7395 20.252 25.0838 11.3874 25.0838C8.76875 25.0872 6.20452 24.3339 4 22.92C4.38107 22.9691 4.76346 22.9915 5.14711 22.9915C7.31719 22.9934 9.42531 22.2652 11.1326 20.9246C9.07028 20.8754 7.26188 19.5413 6.63014 17.5783C7.35255 17.7181 8.09692 17.688 8.80593 17.4952C6.55758 17.042 4.94004 15.0655 4.94004 12.7717C4.94004 12.7226 4.94004 12.7226 4.94004 12.7113C5.60998 13.0817 6.36004 13.2917 7.12733 13.3148C5.00966 11.8997 4.35693 9.08238 5.63572 6.88005C8.08257 9.89083 11.6928 11.721 15.5682 11.9145C15.18 10.2406 15.7108 8.48699 16.9625 7.31005C18.9036 5.48567 21.9565 5.57886 23.7811 7.51397C24.8605 7.30232 25.8949 6.90567 26.8416 6.34441C26.482 7.46012 25.7289 8.40773 24.723 9.01019C25.6783 8.90058 26.6116 8.64356 27.4905 8.25124C26.8435 9.22069 26.0285 10.0652 25.0856 10.7482Z"/>
</svg>
