<svg width="32" height="32" viewBox="0 0 32 32" fill="currentColor" xmlns="http://www.w3.org/2000/svg">
  <path d="M8.46849 6C7.11482 6 6 7.1121 6 8.46555C6 9.81976 7.11482 10.9343 8.46849 10.9343C9.82197 10.934 10.937 9.81938 10.937 8.46555C10.9367 7.11248 9.82207 6 8.46849 6ZM21.1269 12.4633C19.5978 12.5124 18.1852 13.3451 17.406 14.6774H17.3473V12.807H13.2658V26.5004H17.5179V19.7266C17.5179 17.94 17.8584 16.2096 20.0731 16.2096C22.2565 16.2096 22.2844 18.2529 22.2844 19.841V26.5004H26.5365L26.5393 18.988C26.5393 15.3003 25.7443 12.4661 21.4345 12.4661C21.3315 12.4623 21.2285 12.4663 21.1269 12.4633ZM6.33824 12.807V26.5004H10.5959V12.807H6.33824Z"/>
</svg>
