<svg width="260" height="201" viewBox="0 0 260 201" fill="none" xmlns="http://www.w3.org/2000/svg">
<path opacity="0.15" d="M9.65181 14C-6.16395 14 -0.929548 91.2997 13.7253 87.3719L93.6801 41.1988C90.5377 33.638 90.856 30.1889 93.0778 22.5551L9.65181 14ZM248.803 14L165.377 22.5551C168.157 30.1739 167.378 33.8503 164.774 41.1988L244.729 87.3719C264.48 92.6656 263.586 14 248.803 14ZM101.128 50.7278L24.0833 145.888C6.12975 176.993 63.6236 212.788 81.8828 181.154L113.506 63.108L101.128 50.7278ZM157.326 50.7278L144.949 63.108L176.572 181.154C199.621 221.087 263.107 195.673 234.371 145.888L157.326 50.7278Z" fill="url(#paint0_radial_2138_2334)"/>
<path d="M154.163 41.1518C157.177 37.8429 158.742 34.0203 158.851 29.3859C158.959 24.7515 157.573 19.9551 154.717 16.629C151.851 13.3054 148.061 11.6451 144.219 11.6371C140.387 11.6265 136.487 14.4458 133.483 17.7521L129.862 21.7279L126.414 17.7361C123.549 14.4125 119.778 11.5836 115.945 11.573C112.113 11.5624 108.242 13.2106 105.228 16.5194C102.215 19.8283 100.657 24.6185 100.548 29.2529C100.44 33.8873 101.809 37.7186 104.675 41.0422C111.771 49.0592 118.322 56.6212 125.002 65.0794C125.95 66.173 127.383 67.2723 128.837 67.2804C130.29 67.2885 131.77 66.1938 132.768 65.1025C139.679 56.5219 146.805 49.2315 154.163 41.1518Z" fill="#FFA8A2"/>
<path d="M115.96 10.425C111.867 10.4166 107.725 12.1855 104.518 15.7112C101.271 19.2765 99.6374 24.3487 99.5309 29.254C99.4243 34.1594 100.914 38.3655 103.937 41.8604C103.937 41.8604 103.939 41.8695 103.948 41.867C111.033 49.8775 117.579 57.4214 124.233 65.8574C124.245 65.864 124.259 65.8795 124.271 65.8861C125.338 67.1224 126.904 68.4187 128.812 68.431C130.718 68.4343 132.357 67.1419 133.478 65.9107C133.494 65.8967 133.511 65.8826 133.525 65.8594C140.404 57.3457 147.495 50.0744 154.867 41.9716C158.034 38.4857 159.764 34.2991 159.868 29.3847C159.982 24.4678 158.533 19.3976 155.448 15.8223C152.395 12.2872 148.337 10.4949 144.244 10.4865C139.969 10.4782 135.903 13.5068 132.78 16.9323L129.89 20.1013L127.153 16.9179C124.175 13.4787 120.235 10.4332 115.96 10.425ZM115.909 12.717C119.299 12.7299 122.913 15.3489 125.674 18.5454L129.112 22.5396C129.3 22.7511 129.555 22.8766 129.826 22.8719C130.099 22.8763 130.358 22.7489 130.554 22.5412L134.184 18.563C137.09 15.3799 140.806 12.7748 144.193 12.7786C147.763 12.7913 151.301 14.3352 153.977 17.4382C156.621 20.5011 157.932 25.017 157.831 29.378C157.73 33.739 156.312 37.2117 153.462 40.3409C146.135 48.3834 139.02 55.6804 132.074 64.2801C131.202 65.2407 129.869 66.1312 128.861 66.1299C127.853 66.1285 126.574 65.2301 125.74 64.2611C119.06 55.8029 112.497 48.2344 105.415 40.2329L105.41 40.2148C102.716 37.0781 101.474 33.6102 101.575 29.2492C101.674 24.8792 103.157 20.371 105.929 17.3302C108.73 14.2432 112.339 12.7043 115.909 12.717ZM115.881 17.4268C115.618 17.42 115.348 17.5795 115.19 17.8545C114.967 18.2633 115.159 18.4929 115.411 19.017C116.7 21.6867 116.86 20.6647 116.445 18.7011C116.323 18.1327 116.543 17.7536 116.224 17.5387C116.113 17.4619 116.002 17.4237 115.881 17.4268ZM113.2 18.5525C112.906 18.5441 112.766 19.0373 113.055 19.968C113.495 21.3434 114.867 21.4994 114.168 19.7572C113.925 19.1532 113.657 18.7889 113.425 18.6378C113.339 18.583 113.261 18.5554 113.2 18.5525ZM144.558 18.9925C144.438 18.9956 144.315 19.0283 144.205 19.1063C143.879 19.3197 144.073 19.7041 143.931 20.2656C143.44 22.2297 143.544 23.2586 144.956 20.5921C145.23 20.0727 145.431 19.8444 145.23 19.4329C145.082 19.143 144.817 18.9813 144.558 18.9925ZM110.314 19.6265C110.043 19.6312 109.733 19.8304 109.587 20.112C109.357 20.5324 109.474 21.0827 109.844 21.3327C110.225 21.5894 111.502 22.2555 111.896 22.0336C112.229 21.8474 111.263 20.5356 110.685 19.8082C110.651 19.759 110.602 19.7238 110.564 19.6952C110.5 19.6445 110.406 19.6309 110.314 19.6265ZM147.181 20.1318C147.11 20.1313 147.037 20.1605 146.951 20.2129C146.709 20.3648 146.424 20.7319 146.163 21.3353C145.38 23.0769 146.768 22.9182 147.269 21.5527C147.594 20.6221 147.482 20.1286 147.181 20.1318ZM150.011 21.2157C149.919 21.2112 149.834 21.2339 149.757 21.2837C149.715 21.3144 149.672 21.3451 149.635 21.3938C149.024 22.12 148.004 23.4306 148.326 23.6159C148.709 23.8428 150.023 23.1805 150.407 22.9224C150.792 22.6643 150.938 22.1208 150.726 21.7028C150.582 21.4309 150.284 21.22 150.011 21.2157ZM109.063 23.0448C108.804 23.056 108.497 23.2643 108.362 23.5137C108.146 23.9109 108.266 24.4316 108.635 24.6816C109.004 24.9317 110.666 25.0392 110.846 24.6224C111.029 24.2146 109.729 23.8747 109.423 23.2586C109.394 23.1888 109.351 23.1421 109.292 23.1094C109.237 23.0562 109.152 23.0402 109.063 23.0448ZM151.108 24.6349C151.026 24.6279 150.941 24.6506 150.871 24.6889C150.819 24.7221 150.772 24.7734 150.74 24.8402C150.403 25.4637 149.101 25.7933 149.259 26.1968C149.42 26.6094 151.087 26.5118 151.464 26.2653C151.842 26.0187 151.996 25.5024 151.788 25.1024C151.673 24.8617 151.374 24.6508 151.108 24.6349ZM109.615 26.6101C109.403 26.6088 109.232 26.6451 109.061 26.8362C108.753 27.1902 108.791 27.5969 109.23 27.6926C109.53 27.7577 109.753 27.6882 109.996 27.4679C110.384 27.1118 110.415 26.8514 110.219 26.7198C110.131 26.656 109.992 26.6255 109.818 26.614C109.757 26.611 109.686 26.6106 109.615 26.6101ZM150.4 28.1986C150.33 28.1982 150.259 28.1977 150.179 28.1998C150.009 28.2064 149.868 28.2442 149.782 28.2965C149.575 28.4294 149.596 28.6952 149.973 29.0499C150.204 29.2694 150.435 29.3431 150.729 29.274C151.166 29.1762 151.231 28.7806 150.934 28.4239C150.785 28.2411 150.605 28.2115 150.4 28.1986ZM136.978 48.4713C136.392 48.5024 136.198 49.6983 135.423 50.604C134.358 51.8588 133.241 53.0307 134.221 53.6021C135.782 54.4636 137.923 48.8773 137.145 48.4943C137.133 48.4878 137.122 48.4813 137.1 48.4773C137.058 48.4693 137.018 48.4703 136.978 48.4713Z" fill="#BE2217"/>
<path d="M169.371 115.606C171.628 113.745 172.989 111.374 173.468 108.291C173.948 105.209 173.468 101.852 171.888 99.3021C170.308 96.7525 167.981 95.2112 165.474 94.7644C162.976 94.3204 160.18 95.7534 157.923 97.6147L155.203 99.8545L153.307 96.7915C151.724 94.2495 149.515 91.9259 147.016 91.482C144.517 91.0381 141.838 91.6887 139.581 93.55C137.324 95.4113 135.883 98.4323 135.404 101.515C134.924 104.597 135.482 107.312 137.064 109.854C140.99 116.019 144.604 121.816 148.216 128.223C148.739 129.065 149.575 129.958 150.526 130.127C151.477 130.296 152.543 129.742 153.284 129.118C158.563 124.205 163.853 120.153 169.371 115.606Z" fill="#FFA8A2"/>
<path d="M147.136 90.7179C144.465 90.2397 141.601 90.9459 139.201 92.9286C136.765 94.9333 135.252 98.1348 134.747 101.397C134.241 104.658 134.847 107.631 136.509 110.312C136.509 110.312 136.509 110.312 136.515 110.323C140.433 116.484 144.041 122.271 147.65 128.659C147.655 128.67 147.664 128.673 147.669 128.683C148.258 129.626 149.166 130.681 150.411 130.901C151.657 131.122 152.839 130.446 153.678 129.753C153.691 129.74 153.702 129.736 153.716 129.723C158.951 124.829 164.227 120.79 169.759 116.231C172.132 114.273 173.628 111.674 174.136 108.404C174.641 105.143 174.149 101.584 172.442 98.8442C170.764 96.1314 168.267 94.4708 165.594 94.0003C162.801 93.505 159.881 95.0574 157.543 96.9933L155.378 98.7752L153.869 96.3364C152.229 93.6971 149.929 91.2131 147.136 90.7179ZM146.898 92.2385C149.111 92.6339 151.241 94.7924 152.763 97.2446L154.659 100.308C154.758 100.471 154.919 100.587 155.094 100.614C155.268 100.64 155.45 100.593 155.602 100.474L158.321 98.2342C160.5 96.4398 163.153 95.1282 165.365 95.5237C167.7 95.9362 169.869 97.3794 171.344 99.7552C172.8 102.107 173.257 105.268 172.814 108.166C172.363 111.061 171.132 113.22 168.994 114.977C163.5 119.507 158.21 123.559 152.915 128.492C152.257 129.034 151.313 129.476 150.657 129.358C150 129.24 149.241 128.495 148.784 127.752C145.164 121.343 141.545 115.535 137.624 109.381L137.621 109.363C136.138 106.959 135.637 104.503 136.079 101.605C136.525 98.6992 137.89 95.8664 139.977 94.1514C142.074 92.4315 144.563 91.8259 146.898 92.2385ZM146.463 95.3789C146.291 95.3447 146.101 95.4155 145.977 95.5866C145.791 95.8302 145.901 96.0145 146.018 96.3897C146.627 98.326 146.816 97.6544 146.722 96.2927C146.692 95.9049 146.868 95.666 146.681 95.4895C146.618 95.4332 146.539 95.397 146.463 95.3789ZM144.615 95.8312C144.419 95.7884 144.29 96.1037 144.39 96.7645C144.558 97.7318 145.438 97.9965 145.139 96.7514C145.032 96.3198 144.889 96.0468 144.752 95.9132C144.705 95.8627 144.659 95.8379 144.615 95.8312ZM165.048 99.7175C164.969 99.707 164.885 99.7119 164.806 99.753C164.579 99.8535 164.673 100.135 164.529 100.496C164.036 101.748 164.011 102.451 165.165 100.83C165.394 100.516 165.54 100.387 165.443 100.087C165.379 99.8757 165.223 99.7441 165.048 99.7175ZM142.637 96.212C142.454 96.1825 142.245 96.2811 142.121 96.4521C141.932 96.7035 141.957 97.0807 142.184 97.2973C142.403 97.511 143.188 98.1025 143.463 98.001C143.696 97.9111 143.186 96.9269 142.874 96.3723C142.858 96.3407 142.833 96.3064 142.803 96.2873C142.754 96.2444 142.696 96.2244 142.637 96.212ZM166.662 100.778C166.618 100.771 166.561 100.777 166.504 100.809C166.338 100.888 166.119 101.095 165.888 101.468C165.228 102.541 166.146 102.596 166.592 101.74C166.89 101.149 166.86 100.813 166.662 100.778ZM168.416 101.828C168.356 101.816 168.299 101.822 168.245 101.845C168.212 101.86 168.18 101.874 168.15 101.907C167.685 102.319 166.906 103.076 167.098 103.237C167.333 103.431 168.243 103.14 168.525 103.015C168.799 102.888 168.938 102.542 168.843 102.235C168.768 102.028 168.596 101.865 168.416 101.828ZM141.522 98.3522C141.356 98.3284 141.136 98.4318 141.017 98.5875C140.842 98.8264 140.872 99.1884 141.094 99.3945C141.315 99.6006 142.39 99.8642 142.543 99.6091C142.696 99.354 141.88 98.9831 141.735 98.5296C141.716 98.48 141.691 98.4456 141.664 98.4189C141.631 98.3817 141.576 98.354 141.522 98.3522ZM168.833 104.237C168.773 104.225 168.726 104.226 168.672 104.25C168.64 104.264 168.602 104.294 168.569 104.334C168.3 104.711 167.413 104.779 167.486 105.07C167.556 105.369 168.653 105.487 168.925 105.367C169.196 105.247 169.338 104.92 169.238 104.628C169.18 104.453 169.002 104.279 168.833 104.237ZM141.569 100.795C141.43 100.772 141.31 100.773 141.188 100.885C140.953 101.086 140.949 101.359 141.222 101.472C141.413 101.555 141.568 101.532 141.739 101.412C142.026 101.221 142.068 101.047 141.951 100.937C141.896 100.884 141.808 100.845 141.697 100.823C141.664 100.811 141.612 100.802 141.569 100.795ZM168.057 106.539C168.013 106.532 167.961 106.522 167.918 106.516C167.803 106.502 167.711 106.504 167.643 106.54C167.499 106.61 167.492 106.787 167.698 107.065C167.83 107.24 167.969 107.314 168.176 107.301C168.475 107.285 168.547 107.027 168.385 106.756C168.299 106.606 168.187 106.559 168.057 106.539ZM157.509 118.52C157.122 118.471 156.896 119.25 156.311 119.766C155.503 120.478 154.666 121.138 155.257 121.627C156.204 122.386 158.094 118.896 157.615 118.558C157.607 118.555 157.601 118.544 157.593 118.541C157.56 118.53 157.533 118.529 157.509 118.52Z" fill="#BE2217"/>
<path d="M114.325 141.2C115.115 139.965 115.399 138.626 115.15 137.092C114.901 135.559 114.154 134.044 113.008 133.085C111.862 132.125 110.51 131.763 109.246 131.949C107.981 132.134 106.868 133.246 106.086 134.485L105.135 135.976L103.757 134.826C102.611 133.867 101.199 133.117 99.9346 133.303C98.6701 133.488 97.4986 134.219 96.7082 135.453C95.9179 136.688 95.6997 138.343 95.9489 139.877C96.198 141.41 96.8847 142.608 98.029 143.56C100.857 145.861 103.471 148.035 106.19 150.5C106.568 150.816 107.109 151.106 107.586 151.037C108.068 150.967 108.485 150.539 108.745 150.129C110.497 146.967 112.394 144.217 114.325 141.2Z" fill="#FFA8A2"/>
<path d="M99.8677 132.917C98.5213 133.112 97.267 133.895 96.423 135.215C95.569 136.545 95.3469 138.299 95.6083 139.92C95.8697 141.54 96.6219 142.851 97.8289 143.862C97.8289 143.862 97.8289 143.862 97.8308 143.869C100.652 146.171 103.265 148.339 105.976 150.799C105.984 150.804 105.984 150.804 105.991 150.808C106.415 151.167 107.013 151.517 107.639 151.426C108.265 151.336 108.726 150.832 109.023 150.369C109.027 150.361 109.033 150.359 109.037 150.351C110.782 147.212 112.676 144.471 114.605 141.446C115.434 140.144 115.746 138.678 115.485 137.058C115.222 135.43 114.437 133.829 113.199 132.799C111.976 131.778 110.531 131.387 109.185 131.582C107.776 131.788 106.622 132.982 105.806 134.266L105.047 135.45L103.952 134.532C102.76 133.53 101.278 132.717 99.8677 132.917ZM99.9965 133.675C101.111 133.513 102.46 134.204 103.569 135.125L104.947 136.275C105.023 136.336 105.111 136.367 105.205 136.354C105.293 136.342 105.375 136.29 105.423 136.206L106.376 134.722C107.133 133.532 108.203 132.495 109.318 132.333C110.496 132.165 111.754 132.499 112.824 133.396C113.882 134.276 114.59 135.704 114.825 137.144C115.06 138.584 114.805 139.796 114.055 140.97C112.135 143.978 110.237 146.728 108.475 149.899C108.247 150.259 107.861 150.615 107.528 150.663C107.196 150.71 106.718 150.479 106.389 150.197C103.67 147.733 101.048 145.554 98.2279 143.258L98.226 143.252C97.1485 142.349 96.5274 141.266 96.2924 139.826C96.0555 138.379 96.2697 136.823 96.9964 135.684C97.7234 134.523 98.82 133.849 99.9965 133.675ZM100.271 135.229C100.183 135.241 100.104 135.306 100.074 135.405C100.025 135.552 100.104 135.62 100.214 135.777C100.805 136.597 100.79 136.252 100.535 135.621C100.462 135.439 100.507 135.301 100.394 135.25C100.351 135.234 100.309 135.225 100.271 135.229ZM99.4573 135.731C99.3572 135.746 99.346 135.91 99.4978 136.208C99.7267 136.637 100.188 136.629 99.8533 136.084C99.7412 135.9 99.6237 135.787 99.5407 135.749C99.505 135.738 99.4772 135.732 99.4573 135.731ZM109.808 134.362C109.77 134.366 109.73 134.384 109.7 134.414C109.606 134.497 109.694 134.618 109.684 134.81C109.637 135.48 109.74 135.813 110.04 134.867C110.097 134.683 110.151 134.597 110.056 134.472C109.991 134.385 109.894 134.344 109.808 134.362ZM98.5757 136.224C98.4877 136.236 98.4004 136.317 98.3644 136.418C98.3097 136.567 98.386 136.74 98.5243 136.811C98.6667 136.875 99.1244 137.035 99.2418 136.945C99.3371 136.869 98.9438 136.48 98.7065 136.27C98.6889 136.254 98.6731 136.245 98.6592 136.242C98.6355 136.228 98.6077 136.222 98.5757 136.224ZM110.741 134.608C110.717 134.615 110.693 134.622 110.668 134.65C110.601 134.711 110.529 134.844 110.473 135.056C110.323 135.665 110.766 135.55 110.85 135.072C110.906 134.748 110.841 134.593 110.741 134.608ZM111.744 134.826C111.712 134.829 111.684 134.844 111.664 134.864C111.648 134.875 111.639 134.892 111.631 134.908C111.474 135.177 111.215 135.657 111.334 135.706C111.475 135.763 111.869 135.481 111.977 135.38C112.091 135.278 112.102 135.093 112.005 134.96C111.941 134.874 111.834 134.821 111.744 134.826ZM98.3728 137.414C98.2866 137.432 98.1993 137.513 98.1675 137.606C98.1169 137.747 98.1914 137.913 98.3278 137.979C98.4641 138.044 99.0196 138.001 99.0544 137.852C99.0912 137.708 98.6393 137.658 98.5054 137.466C98.4919 137.442 98.4761 137.433 98.4544 137.425C98.4307 137.411 98.3969 137.407 98.3728 137.414ZM112.312 135.905C112.28 135.907 112.256 135.914 112.235 135.934C112.219 135.945 112.205 135.964 112.198 135.986C112.126 136.21 111.718 136.377 111.795 136.508C111.872 136.64 112.413 136.524 112.527 136.422C112.635 136.321 112.654 136.14 112.561 136.021C112.508 135.952 112.4 135.893 112.312 135.905ZM98.7711 138.562C98.7031 138.575 98.6429 138.592 98.6055 138.666C98.527 138.801 98.5644 138.929 98.7118 138.942C98.8114 138.948 98.8859 138.913 98.9534 138.83C99.0578 138.695 99.0516 138.606 98.9824 138.571C98.9509 138.552 98.905 138.551 98.8471 138.554C98.8151 138.556 98.7971 138.562 98.7711 138.562ZM112.298 137.117C112.272 137.117 112.254 137.122 112.224 137.131C112.168 137.14 112.127 137.159 112.095 137.182C112.038 137.234 112.058 137.326 112.204 137.423C112.294 137.488 112.37 137.501 112.469 137.458C112.609 137.403 112.604 137.272 112.488 137.166C112.426 137.107 112.366 137.104 112.298 137.117ZM109.113 144.45C108.923 144.491 108.935 144.893 108.733 145.23C108.456 145.695 108.16 146.137 108.521 146.276C109.091 146.488 109.452 144.54 109.173 144.453C109.167 144.455 109.165 144.449 109.159 144.45C109.143 144.441 109.125 144.446 109.113 144.45Z" fill="#BE2217"/>
<defs>
<radialGradient id="paint0_radial_2138_2334" cx="0" cy="0" r="1" gradientUnits="userSpaceOnUse" gradientTransform="translate(129.154 42.5628) rotate(90) scale(149.423 115.66)">
<stop stop-color="#EF4444"/>
<stop offset="1" stop-color="#EF4444" stop-opacity="0"/>
</radialGradient>
</defs>
</svg>
