<svg width="69" height="69" viewBox="-11.5 -8.63 69 69" fill="none" xmlns="http://www.w3.org/2000/svg">
<path opacity="0.2" d="M23.5 1.48413C14.7399 1.48413 7.6875 8.53651 7.6875 17.2966V25.9216V30.2341C4.50201 30.2341 1.9375 32.7986 1.9375 35.9841V40.2966C1.9375 41.093 2.57863 41.7341 3.375 41.7341H7.6875H9.125H37.875H39.3125H43.625C44.4214 41.7341 45.0625 41.093 45.0625 40.2966V35.9841C45.0625 32.7986 42.498 30.2341 39.3125 30.2341V21.6091V17.2966C39.3125 8.53651 32.2601 1.48413 23.5 1.48413Z" fill="#58C9FF"/>
<path d="M23.5 0.0466309C13.9684 0.0466309 6.25 7.765 6.25 17.2966V25.9216V29.3918C3.07246 30.1337 0.5 32.587 0.5 35.9841V40.2966C0.5 41.8645 1.80712 43.1716 3.375 43.1716H7.6875H9.125H14.875C14.875 47.925 18.7466 51.7966 23.5 51.7966C28.2534 51.7966 32.125 47.925 32.125 43.1716H37.875H39.3125H43.625C45.1929 43.1716 46.5 41.8645 46.5 40.2966V35.9841C46.5 32.587 43.9275 30.1337 40.75 29.3918V21.6091V17.2966C40.75 7.765 33.0316 0.0466309 23.5 0.0466309ZM23.5 2.92163C31.4886 2.92163 37.875 9.30804 37.875 17.2966V21.6091V30.2341C37.875 30.6154 38.0265 30.9809 38.2961 31.2505C38.5657 31.5201 38.9313 31.6716 39.3125 31.6716C41.7265 31.6716 43.625 33.5701 43.625 35.9841V40.2966H39.3125H37.875H30.6875H16.3125H9.125H7.6875H3.375V35.9841C3.375 33.5701 5.27352 31.6716 7.6875 31.6716C8.06874 31.6716 8.43435 31.5201 8.70392 31.2505C8.9735 30.9809 9.12496 30.6154 9.125 30.2341V25.9216V17.2966C9.125 9.30804 15.5114 2.92163 23.5 2.92163ZM17.75 43.1716H29.25C29.25 46.382 26.7104 48.9216 23.5 48.9216C20.2896 48.9216 17.75 46.382 17.75 43.1716Z" fill="#58C9FF"/>
</svg>
