<svg width="69" height="69" viewBox="0 0 69 69" fill="none" xmlns="http://www.w3.org/2000/svg">
<path opacity="0.2" d="M34.5 5.75C26.875 5.75 19.5624 8.77901 14.1707 14.1707C8.77901 19.5624 5.75 26.875 5.75 34.5C5.76478 38.9472 6.81105 43.3303 8.80651 47.3046C10.802 51.279 13.6922 54.7363 17.25 57.4045V56.0625C17.25 52.0806 20.4556 48.875 24.4375 48.875H28.75V44.7815C26.1893 43.6639 24.0098 41.8244 22.478 39.4878C20.9463 37.1512 20.1286 34.4189 20.125 31.625C20.125 27.8125 21.6395 24.1562 24.3353 21.4603C27.0312 18.7645 30.6875 17.25 34.5 17.25C38.3125 17.25 41.9688 18.7645 44.6647 21.4603C47.3605 24.1562 48.875 27.8125 48.875 31.625C48.8714 34.4189 48.0537 37.1512 46.5219 39.4878C44.9902 41.8244 42.8107 43.6639 40.25 44.7815V48.875H44.5625C48.5444 48.875 51.75 52.0806 51.75 56.0625V57.4045C55.3078 54.7363 58.198 51.279 60.1935 47.3046C62.1889 43.3303 63.2352 38.9472 63.25 34.5C63.25 26.875 60.221 19.5624 54.8293 14.1707C49.4376 8.77901 42.125 5.75 34.5 5.75Z" fill="#58C9FF"/>
<path d="M34.5 4.3125C17.8451 4.3125 4.3125 17.8451 4.3125 34.5C4.3125 44.4234 9.11927 53.2365 16.5256 58.741C16.5275 58.7428 16.5294 58.7447 16.5312 58.7466C16.5325 58.7475 16.5356 58.7457 16.5369 58.7466C21.5592 62.476 27.773 64.6875 34.5 64.6875C41.227 64.6875 47.4408 62.476 52.4631 58.7466C52.4664 58.7441 52.4711 58.7434 52.4744 58.741C59.8807 53.2365 64.6875 44.4234 64.6875 34.5C64.6875 17.8451 51.1549 4.3125 34.5 4.3125ZM34.5 7.1875C49.6024 7.1875 61.8125 19.3976 61.8125 34.5C61.8125 42.4359 58.4381 49.5709 53.0471 54.5576C52.3314 50.5196 48.8018 47.4375 44.5625 47.4375H40.25C39.8688 47.4375 39.5031 47.589 39.2335 47.8585C38.964 48.1281 38.8125 48.4938 38.8125 48.875C38.8125 49.2562 38.964 49.6219 39.2335 49.8915C39.5031 50.161 39.8688 50.3125 40.25 50.3125H44.5625C47.7729 50.3125 50.3125 52.8521 50.3125 56.0625V56.7756C45.8518 59.9451 40.398 61.8125 34.5 61.8125C28.6057 61.8175 23.151 59.9486 18.6875 56.7756V56.0625C18.6875 52.8521 21.2271 50.3125 24.4375 50.3125H28.75C29.1312 50.3125 29.4969 50.161 29.7665 49.8915C30.0361 49.6219 30.1875 49.2562 30.1875 48.875C30.1875 48.4938 30.0361 48.1281 29.7665 47.8585C29.4969 47.589 29.1312 47.4375 28.75 47.4375H24.4375C20.1982 47.4375 16.6686 50.5196 15.9529 54.5576C10.5585 49.5676 7.18081 42.4292 7.1875 34.5C7.1875 19.3976 19.3976 7.1875 34.5 7.1875ZM34.5 15.8125C25.784 15.8125 18.6875 22.909 18.6875 31.625C18.6875 40.341 25.784 47.4375 34.5 47.4375C43.216 47.4375 50.3125 40.341 50.3125 31.625C50.3125 22.909 43.216 15.8125 34.5 15.8125ZM34.5 18.6875C41.6622 18.6875 47.4375 24.4628 47.4375 31.625C47.4375 38.7872 41.6622 44.5625 34.5 44.5625C27.3378 44.5625 21.5625 38.7872 21.5625 31.625C21.5625 24.4628 27.3378 18.6875 34.5 18.6875Z" fill="#58C9FF"/>
</svg>
