<svg width="67" height="59" viewBox="0 0 67 59" fill="none" xmlns="http://www.w3.org/2000/svg">
<path opacity="0.2" d="M9.5 2.0625C5.51813 2.0625 2.3125 5.26813 2.3125 9.25V43.75C2.3125 47.7319 5.51813 50.9375 9.5 50.9375H49.75V49.5H42.5625C40.1734 49.5 38.25 47.5766 38.25 45.1875C38.25 42.7984 40.1734 40.875 42.5625 40.875H49.75V33.6875C49.75 31.2984 51.6734 29.375 54.0625 29.375C56.4516 29.375 58.375 31.2984 58.375 33.6875V40.875H62.6875V9.25C62.6875 5.26813 59.4819 2.0625 55.5 2.0625H9.5Z" fill="#58C9FF"/>
<path d="M9.5 0.625C4.74664 0.625 0.875 4.49662 0.875 9.25V43.75C0.875 48.5034 4.74664 52.375 9.5 52.375H49.75V49.5H42.5625H9.5C6.28965 49.5 3.75 46.9604 3.75 43.75V9.25C3.75 6.03966 6.28965 3.5 9.5 3.5H55.5C58.7104 3.5 61.25 6.03966 61.25 9.25V40.875H64.125V9.25C64.125 4.49662 60.2534 0.625 55.5 0.625H9.5ZM13.7563 12.125C13.5677 12.1323 13.3823 12.1767 13.2108 12.2557C13.0393 12.3347 12.885 12.4468 12.7568 12.5854C12.6284 12.724 12.5286 12.8866 12.463 13.0638C12.3975 13.241 12.3675 13.4293 12.3748 13.6181C12.3821 13.8069 12.4265 13.9924 12.5056 14.164C12.5846 14.3356 12.6967 14.4899 12.8354 14.6182L25.1946 26.0227L12.7961 38.4211C12.5266 38.6907 12.3752 39.0563 12.3752 39.4375C12.3752 39.8187 12.5266 40.1843 12.7961 40.4539C13.0657 40.7234 13.4313 40.8748 13.8125 40.8748C14.1937 40.8748 14.5593 40.7234 14.8289 40.4539L27.3059 27.9768L31.5229 31.8682C31.7887 32.1144 32.1377 32.2512 32.5 32.2512C32.8623 32.2512 33.2113 32.1144 33.4771 31.8682L37.6941 27.9768L49.75 40.0327V35.9673L39.8054 26.0227L52.1646 14.6182C52.3033 14.4899 52.4154 14.3356 52.4944 14.164C52.5735 13.9924 52.6179 13.8069 52.6252 13.6181C52.6325 13.4293 52.6025 13.241 52.537 13.0638C52.4714 12.8866 52.3716 12.724 52.2432 12.5854C52.115 12.4468 51.9607 12.3347 51.7892 12.2557C51.6177 12.1767 51.4323 12.1323 51.2437 12.125C51.0548 12.1176 50.8663 12.1476 50.689 12.2131C50.5117 12.2786 50.3491 12.3784 50.2104 12.5068L32.5 28.8584L14.7896 12.5068C14.6509 12.3784 14.4883 12.2786 14.311 12.2131C14.1337 12.1476 13.9452 12.1176 13.7563 12.125ZM54.0625 32.25C53.6813 32.25 53.3156 32.4014 53.046 32.671C52.7765 32.9406 52.625 33.3063 52.625 33.6875V43.75H42.5625C42.1813 43.75 41.8156 43.9014 41.546 44.171C41.2765 44.4406 41.125 44.8063 41.125 45.1875C41.125 45.5687 41.2765 45.9344 41.546 46.204C41.8156 46.4736 42.1813 46.625 42.5625 46.625H52.625V56.6875C52.625 57.0687 52.7765 57.4344 53.046 57.704C53.3156 57.9736 53.6813 58.125 54.0625 58.125C54.4437 58.125 54.8094 57.9736 55.079 57.704C55.3485 57.4344 55.5 57.0687 55.5 56.6875V46.625H65.5625C65.9437 46.625 66.3094 46.4736 66.579 46.204C66.8485 45.9344 67 45.5687 67 45.1875C67 44.8063 66.8485 44.4406 66.579 44.171C66.3094 43.9014 65.9437 43.75 65.5625 43.75H55.5V33.6875C55.5 33.3063 55.3485 32.9406 55.079 32.671C54.8094 32.4014 54.4437 32.25 54.0625 32.25ZM58.375 49.5V51.8696C59.7442 51.3826 60.9539 50.5604 61.907 49.5H58.375Z" fill="#58C9FF"/>
</svg>
