<svg width="65" height="53" viewBox="0 0 65 53" fill="none" xmlns="http://www.w3.org/2000/svg">
<path opacity="0.2" d="M9.49999 1.90576H28.1875L33.9375 13.4058H55.5C59.4819 13.4058 62.6875 16.6114 62.6875 20.5933V43.5933C62.6875 47.5751 59.4819 50.7808 55.5 50.7808H9.49999C5.51812 50.7808 2.3125 47.5751 2.3125 43.5933V9.09326C2.3125 5.11139 5.51812 1.90576 9.49999 1.90576Z" fill="#58C9FF"/>
<path d="M9.5 0.468262C4.74663 0.468262 0.875 4.33988 0.875 9.09326V43.5933C0.875 48.3466 4.74663 52.2183 9.5 52.2183H55.5C60.2534 52.2183 64.125 48.3466 64.125 43.5933V26.3433V20.5933V11.9683C64.125 7.21488 60.2534 3.34326 55.5 3.34326H30.5122L29.4734 1.26562C29.3544 1.02633 29.171 0.824945 28.9438 0.684097C28.7167 0.54325 28.4548 0.468503 28.1875 0.468262H9.5ZM9.5 3.34326H27.3003L28.2942 5.33105L32.6516 14.0515C32.7714 14.2898 32.9551 14.4901 33.1822 14.6299C33.4093 14.7697 33.6708 14.8435 33.9375 14.8433H55.5C58.7104 14.8433 61.25 17.3829 61.25 20.5933V26.3433V43.5933C61.25 46.8036 58.7104 49.3433 55.5 49.3433H9.5C6.28965 49.3433 3.75 46.8036 3.75 43.5933V14.8433H19.5625C19.9437 14.8433 20.3094 14.6919 20.579 14.4223C20.8485 14.1527 21 13.787 21 13.4058C21 13.0245 20.8485 12.6588 20.579 12.3892C20.3094 12.1196 19.9437 11.9683 19.5625 11.9683H3.75V9.09326C3.75 5.88289 6.28965 3.34326 9.5 3.34326ZM31.9497 6.21826H55.5C58.7104 6.21826 61.25 8.75789 61.25 11.9683V14.1863C59.7214 12.8119 57.711 11.9683 55.5 11.9683H34.8247L31.9497 6.21826Z" fill="#58C9FF"/>
</svg>
