<svg width="69" height="69" viewBox="0 0 69 69" fill="none" xmlns="http://www.w3.org/2000/svg">
<path opacity="0.2" d="M27.1412 12.7073C24.5517 15.9144 23 19.9944 23 24.4375C23 34.7583 31.3667 43.125 41.6875 43.125C48.3472 43.125 54.1877 39.6378 57.4972 34.3933C57.4974 34.4289 57.5 34.4644 57.5 34.5C57.5 47.2025 47.2025 57.5 34.5 57.5C21.7975 57.5 11.5 47.2025 11.5 34.5C11.5 24.3715 18.0484 15.7765 27.1412 12.7073Z" fill="#58C9FF"/>
<path d="M23 24.4375C23 19.9944 24.5517 15.9144 27.1412 12.7073C18.0484 15.7765 11.5 24.3715 11.5 34.5C11.5 47.2025 21.7975 57.5 34.5 57.5C47.2025 57.5 57.5 47.2025 57.5 34.5C57.5 34.4644 57.4974 34.4289 57.4972 34.3933C54.1877 39.6378 48.3472 43.125 41.6875 43.125V40.25C47.3171 40.25 52.2595 37.3066 55.0658 32.8603L55.3494 32.4813C56.0743 31.6663 57.2142 31.3226 58.2889 31.6306C59.517 31.9827 60.366 33.1019 60.3722 34.3793V34.3933C60.3729 34.4198 60.375 34.4567 60.375 34.5C60.375 48.7904 48.7904 60.375 34.5 60.375C20.2096 60.375 8.625 48.7904 8.625 34.5C8.625 23.1001 15.998 13.4354 26.2231 9.98388C27.4343 9.57557 28.7689 10.016 29.4996 11.0648C30.23 12.1135 30.1813 13.518 29.3789 14.5126C27.1868 17.2275 25.875 20.6759 25.875 24.4375C25.875 33.1705 32.9545 40.25 41.6875 40.25V43.125C31.3667 43.125 23 34.7583 23 24.4375Z" fill="#58C9FF"/>
</svg>
