<svg width="69" height="69" viewBox="0 0 69 69" fill="none" xmlns="http://www.w3.org/2000/svg">
<path opacity="0.2" d="M33.7009 8.62501C29.0837 8.58476 22.6839 11.8163 18.8889 15.6055C12.4288 21.4906 6.25906 39.6635 15.8529 49.4213C18.4577 52.0088 19.5818 53.9149 23.2589 55.0218L25.7832 50.6086C26.1845 49.6925 26.7973 48.8845 27.5714 48.2511C27.8704 48.0068 28.1464 47.8371 28.2844 47.7509L28.3046 47.7336C28.6841 47.4116 29.0779 47.2161 29.2591 47.127C29.5638 46.9775 29.8916 46.8395 30.2078 46.7274C30.5241 46.6153 30.8777 46.5031 31.2543 46.4083L34.9084 42.7513C35.6559 38.7665 38.9162 36.4838 40.9804 35.0434L41.1242 34.9399L41.7941 34.4741C47.2939 30.2651 50.2839 27.5943 51.9802 25.9929C51.6208 26.0015 51.4397 26.0418 51.2729 26.0791C51.0314 26.1338 50.8187 26.1769 50.1373 26.1251C47.7166 25.9411 44.7812 25.2281 42.2713 22.7154C39.5688 20.0129 39.1031 16.7814 39.2784 14.1594C39.1893 10.2063 36.8634 8.65376 33.7009 8.62501ZM28.9974 17.3679C29.7599 17.3679 30.4912 17.6708 31.0304 18.2099C31.5695 18.7491 31.8724 19.4804 31.8724 20.2429C31.8724 21.0054 31.5695 21.7366 31.0304 22.2758C30.4912 22.815 29.7599 23.1179 28.9974 23.1179C28.2349 23.1179 27.5037 22.815 26.9645 22.2758C26.4253 21.7366 26.1224 21.0054 26.1224 20.2429C26.1224 19.4804 26.4253 18.7491 26.9645 18.2099C27.5037 17.6708 28.2349 17.3679 28.9974 17.3679ZM62.0657 24.5611C60.8409 24.5036 59.2626 25.438 59.2626 25.438C44.4448 40.2299 39.0657 38.9361 39.0657 44.6861C40.9804 46.6038 42.8952 48.5214 44.8157 50.4361C50.5657 50.4361 50.0194 43.1221 64.8343 28.3245C64.8343 28.3245 64.9033 27.232 64.8113 26.1683C64.6848 24.7106 63.1783 24.8084 62.0657 24.5611ZM33.3157 50.4361C31.5102 50.4361 29.9318 51.6609 29.6472 52.5263L24.6907 61.9361C32.2117 61.9361 37.6253 61.9361 39.0254 56.7468C39.0714 56.5685 39.0657 56.373 39.0657 56.1861C39.0657 50.4361 35.5007 50.416 33.3157 50.4361Z" fill="#58C9FF"/>
<path d="M34.5231 5.75003C28.9111 5.54878 21.5914 9.34377 16.8706 13.8518C7.28824 23 5.58049 43.8524 14.3751 51.75C17.3996 54.4669 19.2971 56.35 21.8214 57.8997L23.2589 55.0247C21.0307 54.625 17.8999 51.5603 15.8529 49.4213C9.76361 43.125 9.64286 25.875 18.9004 15.8844C25.05 9.73765 39.2899 4.70927 39.2899 14.4411C39.1174 17.0631 39.5831 20.2975 42.2827 23C44.7955 25.5128 47.728 26.2229 50.1516 26.4098C51.3131 26.496 51.1176 26.2948 52.0089 26.2746L54.8839 23.5434C53.984 23.5693 51.3677 23.621 50.3701 23.5434C48.3404 23.391 46.1697 22.8189 44.3154 20.9674C42.4006 19.0527 42.0154 16.7584 42.1591 14.6338C42.1591 8.40365 38.8874 5.90528 34.5231 5.75003ZM29.0089 14.7746C28.2538 14.7746 27.5061 14.9234 26.8084 15.2123C26.1108 15.5013 25.4769 15.9248 24.943 16.4588C24.4091 16.9927 23.9855 17.6266 23.6966 18.3242C23.4076 19.0218 23.2589 19.7695 23.2589 20.5246C23.2589 21.2797 23.4076 22.0275 23.6966 22.7251C23.9855 23.4227 24.4091 24.0566 24.943 24.5905C25.4769 25.1244 26.1108 25.548 26.8084 25.837C27.5061 26.1259 28.2538 26.2746 29.0089 26.2746C30.5339 26.2746 31.9964 25.6688 33.0747 24.5905C34.1531 23.5122 34.7589 22.0496 34.7589 20.5246C34.7589 18.9997 34.1531 17.5371 33.0747 16.4588C31.9964 15.3805 30.5339 14.7746 29.0089 14.7746ZM29.0089 17.6496C29.3864 17.6496 29.7603 17.724 30.1091 17.8685C30.4579 18.013 30.7748 18.2247 31.0418 18.4917C31.3088 18.7587 31.5205 19.0756 31.665 19.4244C31.8095 19.7732 31.8839 20.1471 31.8839 20.5246C31.8839 20.9022 31.8095 21.2761 31.665 21.6249C31.5205 21.9737 31.3088 22.2906 31.0418 22.5576C30.7748 22.8246 30.4579 23.0363 30.1091 23.1808C29.7603 23.3253 29.3864 23.3996 29.0089 23.3996C28.2464 23.3996 27.5151 23.0967 26.9759 22.5576C26.4368 22.0184 26.1339 21.2871 26.1339 20.5246C26.1339 19.7622 26.4368 19.0309 26.9759 18.4917C27.5151 17.9526 28.2464 17.6496 29.0089 17.6496ZM61.7752 23.3996C60.9329 23.4284 60.2285 23.6987 59.6679 23.9315C59.021 24.1989 58.5466 24.4835 58.5466 24.4835C58.4401 24.5438 58.3416 24.6172 58.2534 24.702C50.9221 32.0246 46.0202 35.2935 42.7945 37.559C41.1845 38.6889 39.9482 39.5715 39.0282 40.7158C38.2082 41.7594 37.7294 43.0302 37.6569 44.3555L32.6831 49.3293C31.7832 49.4328 30.9207 49.7318 30.1531 50.2176C29.3539 50.7294 28.7099 51.3015 28.3649 52.1813L23.4285 61.5423C23.3117 61.7617 23.2537 62.0076 23.2603 62.2561C23.2669 62.5046 23.3378 62.7471 23.4662 62.96C23.5945 63.1728 23.7758 63.3488 23.9924 63.4707C24.209 63.5926 24.4536 63.6562 24.7021 63.6554C28.4626 63.6554 31.7602 63.6842 34.5289 62.9568C37.2975 62.2323 39.6004 60.4469 40.4197 57.4051C40.4542 57.2815 40.46 57.1981 40.4772 57.0947L45.4452 52.1267C46.877 51.9918 48.2228 51.3827 49.269 50.3959C50.4564 49.2976 51.4137 47.8458 52.6327 46C55.0765 42.3085 58.5437 36.9294 65.8606 29.6212C66.1103 29.3725 66.2606 29.0413 66.2832 28.6896C66.2832 28.6896 66.3609 27.5339 66.2545 26.3235C66.207 25.7142 65.9697 25.135 65.576 24.6675C65.2294 24.2863 64.7909 24.0003 64.3024 23.8367C63.4772 23.5434 62.7729 23.529 62.3905 23.4428C62.3103 23.4233 62.2285 23.4108 62.1461 23.4054C62.0217 23.3983 61.8998 23.3963 61.7752 23.3996ZM61.9822 26.2861C62.5802 26.4011 63.1409 26.4759 63.3421 26.5478L63.391 26.5708C63.4514 27.2809 63.4197 27.7495 63.4082 28.0658C56.2696 35.2878 52.5982 40.8423 50.235 44.4159C49.0217 46.2502 48.1132 47.5554 47.3197 48.2914C46.6642 48.9009 46.0519 49.0332 45.2555 49.1108L40.6555 44.5108C40.7216 43.6972 40.8222 43.0761 41.2736 42.5126C41.8256 41.8227 42.8606 41.0177 44.4447 39.9079C47.5814 37.7057 52.742 34.2298 60.102 26.9129C60.1652 26.8784 60.3722 26.7519 60.769 26.588C61.2089 26.4069 61.7522 26.2804 61.9822 26.2861ZM20.3839 29.1497C19.6214 29.1497 18.8901 29.4526 18.3509 29.9917C17.8118 30.5309 17.5089 31.2622 17.5089 32.0247C17.5089 32.7871 17.8118 33.5184 18.3509 34.0576C18.8901 34.5967 19.6214 34.8997 20.3839 34.8997C21.1464 34.8997 21.8776 34.5967 22.4168 34.0576C22.956 33.5184 23.2589 32.7871 23.2589 32.0247C23.2589 31.2622 22.956 30.5309 22.4168 29.9917C21.8776 29.4526 21.1464 29.1497 20.3839 29.1497ZM23.2589 40.6497C22.4964 40.6497 21.7651 40.9526 21.2259 41.4917C20.6868 42.0309 20.3839 42.7622 20.3839 43.5247C20.3839 44.2871 20.6868 45.0184 21.2259 45.5576C21.7651 46.0967 22.4964 46.3997 23.2589 46.3997C24.0214 46.3997 24.7526 46.0967 25.2918 45.5576C25.831 45.0184 26.1339 44.2871 26.1339 43.5247C26.1339 42.7622 25.831 42.0309 25.2918 41.4917C24.7526 40.9526 24.0214 40.6497 23.2589 40.6497ZM39.0771 47.0005L42.7945 50.7179L40.092 53.4204C39.6291 51.911 38.804 50.8444 37.7805 50.2119C37.3699 49.955 36.9285 49.7511 36.4666 49.6053L39.0771 47.0005ZM33.3271 52.1554H33.3386C34.4225 52.1468 35.5524 52.2071 36.2654 52.6499C36.9784 53.0898 37.6396 53.8862 37.6396 56.4679C37.6396 56.7065 37.6195 56.7727 37.6511 56.6577C37.0732 58.8024 35.9692 59.6103 33.7986 60.1795C32.2174 60.5935 29.6586 60.5763 27.1717 60.6165L30.9351 53.475C30.9709 53.4038 31.0007 53.3298 31.0242 53.2537C30.984 53.3744 31.2399 52.9374 31.6941 52.6499C32.1455 52.3624 32.7492 52.1554 33.3271 52.1554Z" fill="#58C9FF"/>
</svg>
