<svg width="438" height="150" viewBox="0 0 438 150" fill="none" xmlns="http://www.w3.org/2000/svg">
<rect x="96" width="246" height="150" rx="7.01987" fill="#292F3E"/>
<rect x="96.7722" y="0.772185" width="244.456" height="148.456" rx="6.24768" stroke="white" stroke-opacity="0.5" stroke-width="1.54437"/>
<path d="M218.415 37.8245C241.484 37.8245 262.344 42.4589 277.419 49.928C292.525 57.4125 301.673 67.6584 301.673 78.8245C301.673 89.9905 292.525 100.236 277.419 107.721C262.344 115.19 241.484 119.824 218.415 119.824C195.346 119.824 174.486 115.19 159.411 107.721C144.306 100.236 135.157 89.9905 135.157 78.8245C135.157 67.6584 144.306 57.4125 159.411 49.928C174.486 42.4589 195.346 37.8245 218.415 37.8245Z" stroke="url(#paint0_linear_5576_336)"/>
<path opacity="0.2" d="M219.456 82.2321C213.324 82.2321 207.442 84.8206 203.106 89.4283C198.77 94.036 196.334 100.285 196.334 106.802C196.346 110.602 197.187 114.348 198.792 117.744C200.397 121.141 202.721 124.095 205.583 126.376V125.229C205.583 121.826 208.161 119.086 211.363 119.086H214.832V115.588C212.772 114.633 211.019 113.061 209.787 111.064C208.555 109.067 207.898 106.732 207.895 104.345C207.895 101.087 209.113 97.9618 211.281 95.658C213.449 93.3542 216.39 92.0599 219.456 92.0599C222.522 92.0599 225.463 93.3542 227.631 95.658C229.799 97.9618 231.017 101.087 231.017 104.345C231.014 106.732 230.357 109.067 229.125 111.064C227.893 113.061 226.14 114.633 224.08 115.588V119.086H227.549C230.751 119.086 233.329 121.826 233.329 125.229V126.376C236.191 124.095 238.515 121.141 240.12 117.744C241.725 114.348 242.567 110.602 242.578 106.802C242.578 100.285 240.142 94.036 235.806 89.4283C231.47 84.8206 225.588 82.2321 219.456 82.2321Z" fill="#EEEEF0"/>
<path d="M219.456 81.0035C206.061 81.0035 195.177 92.5684 195.177 106.802C195.177 115.282 199.043 122.814 205 127.518C205.001 127.519 205.003 127.521 205.004 127.523C205.005 127.523 205.008 127.522 205.009 127.523C209.048 130.71 214.046 132.6 219.456 132.6C224.866 132.6 229.864 130.71 233.903 127.523C233.906 127.52 233.909 127.52 233.912 127.518C239.869 122.814 243.734 115.282 243.734 106.802C243.734 92.5684 232.851 81.0035 219.456 81.0035ZM219.456 83.4605C231.602 83.4605 241.422 93.8952 241.422 106.802C241.422 113.584 238.708 119.681 234.373 123.943C233.797 120.492 230.958 117.858 227.549 117.858H224.08C223.774 117.858 223.48 117.987 223.263 118.218C223.046 118.448 222.924 118.761 222.924 119.086C222.924 119.412 223.046 119.725 223.263 119.955C223.48 120.185 223.774 120.315 224.08 120.315H227.549C230.131 120.315 232.173 122.485 232.173 125.229V125.838C228.586 128.547 224.199 130.143 219.456 130.143C214.715 130.147 210.328 128.55 206.739 125.838V125.229C206.739 122.485 208.781 120.315 211.363 120.315H214.831C215.138 120.315 215.432 120.185 215.649 119.955C215.866 119.725 215.988 119.412 215.988 119.086C215.988 118.761 215.866 118.448 215.649 118.218C215.432 117.987 215.138 117.858 214.831 117.858H211.363C207.954 117.858 205.115 120.492 204.539 123.943C200.201 119.678 197.484 113.578 197.49 106.802C197.49 93.8952 207.31 83.4605 219.456 83.4605ZM219.456 90.8314C212.446 90.8314 206.739 96.896 206.739 104.345C206.739 111.793 212.446 117.858 219.456 117.858C226.466 117.858 232.173 111.793 232.173 104.345C232.173 96.896 226.466 90.8314 219.456 90.8314ZM219.456 93.2883C225.216 93.2883 229.861 98.2238 229.861 104.345C229.861 110.465 225.216 115.401 219.456 115.401C213.696 115.401 209.051 110.465 209.051 104.345C209.051 98.2238 213.696 93.2883 219.456 93.2883Z" fill="#EEEEF0"/>
<rect x="199.637" y="13" width="39.6384" height="40.7152" rx="7.01987" fill="#292F3E"/>
<g clip-path="url(#clip0_5576_336)">
<path opacity="0.2" d="M210.207 18.4988C207.218 18.4988 204.812 21.0557 204.812 24.2317V26.6886H234.1V24.2317C234.1 21.0557 231.694 18.4988 228.705 18.4988H210.207Z" fill="#EEEEF0"/>
<path d="M210.207 17.6799C206.804 17.6799 204.041 20.6162 204.041 24.2318V43.8874C204.041 47.503 206.804 50.4393 210.207 50.4393H228.705V48.8013H210.207C207.632 48.8013 205.582 46.6239 205.582 43.8874V27.5077H210.207V28.3267C210.207 28.5439 210.288 28.7523 210.433 28.9059C210.577 29.0595 210.773 29.1457 210.978 29.1457C211.182 29.1457 211.378 29.0595 211.523 28.9059C211.667 28.7523 211.748 28.5439 211.748 28.3267V27.5077H227.163V28.3267C227.163 28.5439 227.244 28.7523 227.389 28.9059C227.534 29.0595 227.73 29.1457 227.934 29.1457C228.138 29.1457 228.334 29.0595 228.479 28.9059C228.624 28.7523 228.705 28.5439 228.705 28.3267V27.5077H233.329V38.1545V42.2495H234.871V24.2318C234.871 20.6162 232.107 17.6799 228.705 17.6799H210.207ZM210.207 19.3179H228.705C231.28 19.3179 233.329 21.4954 233.329 24.2318V25.8698H228.705V25.0508C228.705 24.8336 228.624 24.6252 228.479 24.4716C228.334 24.3181 228.138 24.2318 227.934 24.2318C227.73 24.2318 227.534 24.3181 227.389 24.4716C227.244 24.6252 227.163 24.8336 227.163 25.0508V25.8698H211.748V25.0508C211.748 24.8336 211.667 24.6252 211.523 24.4716C211.378 24.3181 211.182 24.2318 210.978 24.2318C210.773 24.2318 210.577 24.3181 210.433 24.4716C210.288 24.6252 210.207 24.8336 210.207 25.0508V25.8698H205.582V24.2318C205.582 21.4954 207.632 19.3179 210.207 19.3179ZM209.436 32.4217C209.232 32.4217 209.036 32.5079 208.891 32.6615C208.747 32.8151 208.665 33.0234 208.665 33.2406C208.665 33.4578 208.747 33.6662 208.891 33.8198C209.036 33.9734 209.232 34.0596 209.436 34.0596H210.978C211.182 34.0596 211.378 33.9734 211.523 33.8198C211.667 33.6662 211.748 33.4578 211.748 33.2406C211.748 33.0234 211.667 32.8151 211.523 32.6615C211.378 32.5079 211.182 32.4217 210.978 32.4217H209.436ZM215.602 32.4217C215.398 32.4217 215.202 32.5079 215.057 32.6615C214.912 32.8151 214.831 33.0234 214.831 33.2406C214.831 33.4578 214.912 33.6662 215.057 33.8198C215.202 33.9734 215.398 34.0596 215.602 34.0596H217.144C217.348 34.0596 217.544 33.9734 217.689 33.8198C217.833 33.6662 217.914 33.4578 217.914 33.2406C217.914 33.0234 217.833 32.8151 217.689 32.6615C217.544 32.5079 217.348 32.4217 217.144 32.4217H215.602ZM221.768 32.4217C221.564 32.4217 221.368 32.5079 221.223 32.6615C221.078 32.8151 220.997 33.0234 220.997 33.2406C220.997 33.4578 221.078 33.6662 221.223 33.8198C221.368 33.9734 221.564 34.0596 221.768 34.0596H223.31C223.514 34.0596 223.71 33.9734 223.855 33.8198C223.999 33.6662 224.08 33.4578 224.08 33.2406C224.08 33.0234 223.999 32.8151 223.855 32.6615C223.71 32.5079 223.514 32.4217 223.31 32.4217H221.768ZM227.934 32.4217C227.73 32.4217 227.534 32.5079 227.389 32.6615C227.244 32.8151 227.163 33.0234 227.163 33.2406C227.163 33.4578 227.244 33.6662 227.389 33.8198C227.534 33.9734 227.73 34.0596 227.934 34.0596H229.475C229.68 34.0596 229.876 33.9734 230.02 33.8198C230.165 33.6662 230.246 33.4578 230.246 33.2406C230.246 33.0234 230.165 32.8151 230.02 32.6615C229.876 32.5079 229.68 32.4217 229.475 32.4217H227.934ZM209.436 35.6976C209.232 35.6976 209.036 35.7838 208.891 35.9374C208.747 36.091 208.665 36.2994 208.665 36.5166C208.665 36.7338 208.747 36.9421 208.891 37.0957C209.036 37.2493 209.232 37.3356 209.436 37.3356H210.978C211.182 37.3356 211.378 37.2493 211.523 37.0957C211.667 36.9421 211.748 36.7338 211.748 36.5166C211.748 36.2994 211.667 36.091 211.523 35.9374C211.378 35.7838 211.182 35.6976 210.978 35.6976H209.436ZM215.602 35.6976C215.398 35.6976 215.202 35.7838 215.057 35.9374C214.912 36.091 214.831 36.2994 214.831 36.5166C214.831 36.7338 214.912 36.9421 215.057 37.0957C215.202 37.2493 215.398 37.3356 215.602 37.3356H217.144C217.348 37.3356 217.544 37.2493 217.689 37.0957C217.833 36.9421 217.914 36.7338 217.914 36.5166C217.914 36.2994 217.833 36.091 217.689 35.9374C217.544 35.7838 217.348 35.6976 217.144 35.6976H215.602ZM221.768 35.6976C221.564 35.6976 221.368 35.7838 221.223 35.9374C221.078 36.091 220.997 36.2994 220.997 36.5166C220.997 36.7338 221.078 36.9421 221.223 37.0957C221.368 37.2493 221.564 37.3356 221.768 37.3356H223.31C223.514 37.3356 223.71 37.2493 223.855 37.0957C223.999 36.9421 224.08 36.7338 224.08 36.5166C224.08 36.2994 223.999 36.091 223.855 35.9374C223.71 35.7838 223.514 35.6976 223.31 35.6976H221.768ZM227.934 35.6976C227.73 35.6976 227.534 35.7838 227.389 35.9374C227.244 36.091 227.163 36.2994 227.163 36.5166C227.163 36.7338 227.244 36.9421 227.389 37.0957C227.534 37.2493 227.73 37.3356 227.934 37.3356H228.837C229.041 36.7201 229.469 36.2198 230.017 35.9407C229.874 35.7867 229.679 35.6993 229.475 35.6976H227.934ZM209.436 38.9735C209.232 38.9735 209.036 39.0598 208.891 39.2134C208.747 39.367 208.665 39.5753 208.665 39.7925C208.665 40.0097 208.747 40.2181 208.891 40.3717C209.036 40.5252 209.232 40.6115 209.436 40.6115H210.978C211.182 40.6115 211.378 40.5252 211.523 40.3717C211.667 40.2181 211.748 40.0097 211.748 39.7925C211.748 39.5753 211.667 39.367 211.523 39.2134C211.378 39.0598 211.182 38.9735 210.978 38.9735H209.436ZM215.602 38.9735C215.398 38.9735 215.202 39.0598 215.057 39.2134C214.912 39.367 214.831 39.5753 214.831 39.7925C214.831 40.0097 214.912 40.2181 215.057 40.3717C215.202 40.5252 215.398 40.6115 215.602 40.6115H217.144C217.348 40.6115 217.544 40.5252 217.689 40.3717C217.833 40.2181 217.914 40.0097 217.914 39.7925C217.914 39.5753 217.833 39.367 217.689 39.2134C217.544 39.0598 217.348 38.9735 217.144 38.9735H215.602ZM221.768 38.9735C221.564 38.9735 221.368 39.0598 221.223 39.2134C221.078 39.367 220.997 39.5753 220.997 39.7925C220.997 40.0097 221.078 40.2181 221.223 40.3717C221.368 40.5252 221.564 40.6115 221.768 40.6115H223.31C223.514 40.6115 223.71 40.5252 223.855 40.3717C223.999 40.2181 224.08 40.0097 224.08 39.7925C224.08 39.5753 223.999 39.367 223.855 39.2134C223.71 39.0598 223.514 38.9735 223.31 38.9735H221.768ZM227.934 38.9735C227.73 38.9735 227.534 39.0598 227.389 39.2134C227.244 39.367 227.163 39.5753 227.163 39.7925C227.163 40.0097 227.244 40.2181 227.389 40.3717C227.534 40.5252 227.73 40.6115 227.934 40.6115H228.705V38.9735H227.934ZM209.436 42.2495C209.232 42.2495 209.036 42.3357 208.891 42.4893C208.747 42.6429 208.665 42.8512 208.665 43.0685C208.665 43.2857 208.747 43.494 208.891 43.6476C209.036 43.8012 209.232 43.8874 209.436 43.8874H210.978C211.182 43.8874 211.378 43.8012 211.523 43.6476C211.667 43.494 211.748 43.2857 211.748 43.0685C211.748 42.8512 211.667 42.6429 211.523 42.4893C211.378 42.3357 211.182 42.2495 210.978 42.2495H209.436ZM215.602 42.2495C215.398 42.2495 215.202 42.3357 215.057 42.4893C214.912 42.6429 214.831 42.8512 214.831 43.0685C214.831 43.2857 214.912 43.494 215.057 43.6476C215.202 43.8012 215.398 43.8874 215.602 43.8874H217.144C217.348 43.8874 217.544 43.8012 217.689 43.6476C217.833 43.494 217.914 43.2857 217.914 43.0685C217.914 42.8512 217.833 42.6429 217.689 42.4893C217.544 42.3357 217.348 42.2495 217.144 42.2495H215.602ZM221.768 42.2495C221.564 42.2495 221.368 42.3357 221.223 42.4893C221.078 42.6429 220.997 42.8512 220.997 43.0685C220.997 43.2857 221.078 43.494 221.223 43.6476C221.368 43.8012 221.564 43.8874 221.768 43.8874H222.671C222.875 43.272 223.303 42.7716 223.851 42.4926C223.708 42.3386 223.513 42.2512 223.31 42.2495H221.768ZM233.329 47.1634V48.2095C233.597 47.8866 233.835 47.5378 234.04 47.1634H233.329Z" fill="#EEEEF0"/>
<path d="M231.017 37.3354C230.591 37.3354 230.246 37.7021 230.246 38.1544V43.8873H224.851C224.426 43.8873 224.08 44.254 224.08 44.7063C224.08 45.1586 224.426 45.5253 224.851 45.5253H230.246V51.2582C230.246 51.7105 230.591 52.0772 231.017 52.0772C231.443 52.0772 231.788 51.7105 231.788 51.2582V45.5253H237.183C237.609 45.5253 237.954 45.1586 237.954 44.7063C237.954 44.254 237.609 43.8873 237.183 43.8873H231.788V38.1544C231.788 37.7021 231.443 37.3354 231.017 37.3354Z" fill="#EEEEF0"/>
</g>
<rect x="125.561" y="57.9868" width="48.8874" height="40.7152" rx="7.01987" fill="#292F3E"/>
<g clip-path="url(#clip1_5576_336)">
<path opacity="0.2" d="M132.928 60.3181C130.183 60.3181 127.973 62.6663 127.973 65.583V90.8545C127.973 93.7713 130.183 96.1194 132.928 96.1194H160.674V95.0665H155.72C154.073 95.0665 152.747 93.6576 152.747 91.9075C152.747 90.1575 154.073 88.7486 155.72 88.7486H160.674V83.4837C160.674 81.7336 162 80.3247 163.647 80.3247C165.294 80.3247 166.62 81.7336 166.62 83.4837V88.7486H169.593V65.583C169.593 62.6663 167.383 60.3181 164.638 60.3181H132.928Z" fill="#EEEEF0"/>
<path d="M132.928 59.2651C129.651 59.2651 126.982 62.1011 126.982 65.583V90.8545C126.982 94.3364 129.651 97.1724 132.928 97.1724H160.675V95.0665H155.72H132.928C130.715 95.0665 128.964 93.2062 128.964 90.8545V65.583C128.964 63.2314 130.715 61.3711 132.928 61.3711H164.638C166.851 61.3711 168.602 63.2314 168.602 65.583V88.7486H170.584V65.583C170.584 62.1011 167.915 59.2651 164.638 59.2651H132.928ZM135.862 67.689C135.732 67.6944 135.604 67.7269 135.486 67.7847C135.367 67.8426 135.261 67.9247 135.173 68.0263C135.084 68.1278 135.015 68.2469 134.97 68.3767C134.925 68.5064 134.904 68.6444 134.909 68.7827C134.914 68.921 134.945 69.0569 135 69.1826C135.054 69.3083 135.131 69.4213 135.227 69.5152L143.747 77.8692L135.2 86.9511C135.014 87.1486 134.91 87.4164 134.91 87.6956C134.91 87.9748 135.014 88.2426 135.2 88.4401C135.386 88.6375 135.638 88.7485 135.901 88.7485C136.163 88.7485 136.415 88.6375 136.601 88.4401L145.202 79.3006L148.109 82.151C148.293 82.3314 148.533 82.4316 148.783 82.4316C149.033 82.4316 149.273 82.3314 149.457 82.151L152.364 79.3006L160.675 88.1316V85.1536L153.819 77.8692L162.339 69.5152C162.435 69.4213 162.512 69.3083 162.566 69.1826C162.621 69.0569 162.652 68.921 162.657 68.7827C162.662 68.6444 162.641 68.5064 162.596 68.3767C162.551 68.2469 162.482 68.1278 162.393 68.0263C162.305 67.9247 162.199 67.8426 162.08 67.7847C161.962 67.7269 161.834 67.6944 161.704 67.689C161.574 67.6836 161.444 67.7055 161.322 67.7535C161.2 67.8015 161.088 67.8746 160.992 67.9687L148.783 79.9463L136.574 67.9687C136.478 67.8746 136.366 67.8015 136.244 67.7535C136.122 67.7055 135.992 67.6836 135.862 67.689ZM163.647 82.4307C163.385 82.4307 163.133 82.5416 162.947 82.7391C162.761 82.9365 162.656 83.2044 162.656 83.4837V90.8545H155.72C155.457 90.8545 155.205 90.9654 155.019 91.1629C154.833 91.3604 154.729 91.6283 154.729 91.9075C154.729 92.1868 154.833 92.4547 155.019 92.6521C155.205 92.8496 155.457 92.9605 155.72 92.9605H162.656V100.331C162.656 100.611 162.761 100.879 162.947 101.076C163.133 101.273 163.385 101.384 163.647 101.384C163.91 101.384 164.162 101.273 164.348 101.076C164.534 100.879 164.638 100.611 164.638 100.331V92.9605H171.575C171.838 92.9605 172.09 92.8496 172.276 92.6521C172.462 92.4547 172.566 92.1868 172.566 91.9075C172.566 91.6283 172.462 91.3604 172.276 91.1629C172.09 90.9654 171.838 90.8545 171.575 90.8545H164.638V83.4837C164.638 83.2044 164.534 82.9365 164.348 82.7391C164.162 82.5416 163.91 82.4307 163.647 82.4307ZM166.62 95.0665V96.8022C167.564 96.4455 168.398 95.8432 169.055 95.0665H166.62Z" fill="#EEEEF0"/>
</g>
<rect x="272.628" y="58.5432" width="39.6384" height="42.1192" rx="7.01987" fill="#292F3E"/>
<g clip-path="url(#clip2_5576_336)">
<path opacity="0.2" d="M279.998 61.3512C277.558 61.3512 275.594 63.4384 275.594 66.0311V95.9825C275.594 98.5752 277.558 100.662 279.998 100.662H301.139V95.9825H296.735C295.271 95.9825 294.092 94.7302 294.092 93.1746C294.092 91.619 295.271 90.3667 296.735 90.3667H301.139V85.6867C301.139 84.1311 302.317 82.8788 303.781 82.8788C304.46 82.8788 305.076 83.1484 305.543 83.5917V66.0311C305.543 63.4384 303.579 61.3512 301.139 61.3512H279.998Z" fill="#EEEEF0"/>
<path d="M279.998 60.415C278.724 60.415 277.554 60.8964 276.64 61.6984C276.509 61.8135 276.385 61.9361 276.265 62.064C275.428 62.9537 274.867 64.1385 274.741 65.4569C274.723 65.6454 274.713 65.8375 274.713 66.0309H273.832C273.344 66.0309 272.952 66.4484 272.952 66.9669C272.952 67.4854 273.344 67.9029 273.832 67.9029H274.713V71.6468H273.832C273.344 71.6468 272.952 72.0643 272.952 72.5828C272.952 73.1013 273.344 73.5188 273.832 73.5188H274.713V77.2627H273.832C273.344 77.2627 272.952 77.6802 272.952 78.1987C272.952 78.7172 273.344 79.1347 273.832 79.1347H274.713V82.8786H273.832C273.344 82.8786 272.952 83.2961 272.952 83.8146C272.952 84.3331 273.344 84.7506 273.832 84.7506H274.713V88.4945H273.832C273.344 88.4945 272.952 88.912 272.952 89.4305C272.952 89.949 273.344 90.3665 273.832 90.3665H274.713V94.1104H273.832C273.344 94.1104 272.952 94.5279 272.952 95.0464C272.952 95.5649 273.344 95.9824 273.832 95.9824H274.713C274.713 99.0775 277.086 101.598 279.998 101.598H301.139C301.189 101.598 301.237 101.592 301.287 101.591C301.191 101.3 301.139 100.989 301.139 100.662V99.7263H279.998C278.031 99.7263 276.475 98.5005 276.475 96.4101C276.487 96.4214 276.501 96.4316 276.513 96.443C276.49 96.2932 276.475 96.1396 276.475 95.9824H277.356C277.844 95.9824 278.237 95.5649 278.237 95.0464C278.237 94.5279 277.844 94.1104 277.356 94.1104H276.475V90.3665H277.356C277.844 90.3665 278.237 89.949 278.237 89.4305C278.237 88.912 277.844 88.4945 277.356 88.4945H276.475V84.7506H277.356C277.844 84.7506 278.237 84.3331 278.237 83.8146C278.237 83.2961 277.844 82.8786 277.356 82.8786H276.475V79.1347H277.356C277.844 79.1347 278.237 78.7172 278.237 78.1987C278.237 77.6802 277.844 77.2627 277.356 77.2627H276.475V73.5188H277.356C277.844 73.5188 278.237 73.1013 278.237 72.5828C278.237 72.0643 277.844 71.6468 277.356 71.6468H276.475V67.9029H277.356C277.844 67.9029 278.237 67.4854 278.237 66.9669C278.237 66.4484 277.844 66.0309 277.356 66.0309H276.475C276.475 65.9003 276.48 65.7703 276.492 65.6434C276.623 64.2471 277.457 63.0956 278.619 62.5795C278.936 62.4387 279.275 62.3431 279.634 62.3053C279.753 62.2922 279.875 62.287 279.998 62.287H301.139C301.262 62.287 301.384 62.2922 301.504 62.3053C301.862 62.3431 302.202 62.4388 302.519 62.5795C303.786 63.1421 304.662 64.4632 304.662 66.0309C304.656 71.6972 304.66 76.9515 304.662 83.0395C305.69 83.4238 306.424 84.4601 306.424 85.6866V66.0309C306.424 65.8375 306.414 65.6454 306.396 65.4569C306.27 64.1385 305.709 62.9537 304.872 62.064C304.752 61.9361 304.628 61.8135 304.497 61.6984C303.583 60.8964 302.413 60.415 301.139 60.415H279.998ZM290.569 67.9029C286.687 67.9029 283.522 71.2664 283.522 75.3908C283.522 79.5151 286.687 82.8786 290.569 82.8786C294.45 82.8786 297.615 79.5151 297.615 75.3908C297.615 71.2664 294.45 67.9029 290.569 67.9029ZM290.569 69.7749C293.498 69.7749 295.854 72.2781 295.854 75.3908C295.854 78.5034 293.498 81.0067 290.569 81.0067C287.639 81.0067 285.283 78.5034 285.283 75.3908C285.283 72.2781 287.639 69.7749 290.569 69.7749ZM286.164 82.8786C283.74 82.8786 281.76 84.982 281.76 87.5585V91.3025C281.76 91.5507 281.853 91.7886 282.018 91.9642C282.183 92.1396 282.407 92.2384 282.641 92.2384C282.875 92.2384 283.098 92.1396 283.264 91.9642C283.429 91.7886 283.522 91.5507 283.522 91.3025V87.5585C283.522 85.9866 284.685 84.7506 286.164 84.7506H287.926C288.16 84.7506 288.384 84.6517 288.549 84.4764C288.714 84.3008 288.807 84.0628 288.807 83.8146C288.807 83.5664 288.714 83.3284 288.549 83.1528C288.384 82.9774 288.16 82.8786 287.926 82.8786H286.164ZM293.211 82.8786C292.978 82.8786 292.754 82.9775 292.588 83.1528C292.423 83.3284 292.33 83.5664 292.33 83.8146C292.33 84.0628 292.423 84.3008 292.588 84.4764C292.754 84.6518 292.978 84.7506 293.211 84.7506H294.973C296.452 84.7506 297.615 85.9866 297.615 87.5585V90.3665H299.377V87.5585C299.377 84.982 297.398 82.8786 294.973 82.8786H293.211ZM303.781 84.7506C303.295 84.7506 302.901 85.1696 302.901 85.6866V92.2384H296.735C296.248 92.2384 295.854 92.6575 295.854 93.1744C295.854 93.6913 296.248 94.1104 296.735 94.1104H302.901V100.662C302.901 101.179 303.295 101.598 303.781 101.598C304.268 101.598 304.662 101.179 304.662 100.662V94.1104H310.828C311.315 94.1104 311.709 93.6913 311.709 93.1744C311.709 92.6575 311.315 92.2384 310.828 92.2384H304.662V85.6866C304.662 85.1696 304.268 84.7506 303.781 84.7506Z" fill="#EEEEF0"/>
</g>
<defs>
<linearGradient id="paint0_linear_5576_336" x1="218" y1="68" x2="217.374" y2="119.992" gradientUnits="userSpaceOnUse">
<stop stop-color="#58C9FF" stop-opacity="0.6"/>
<stop offset="1" stop-color="#292F3E"/>
</linearGradient>
<clipPath id="clip0_5576_336">
<rect width="36.9959" height="39.3113" fill="white" transform="translate(200.958 14.4041)"/>
</clipPath>
<clipPath id="clip1_5576_336">
<rect width="47.5661" height="50.543" fill="white" transform="translate(125 52.9473)"/>
</clipPath>
<clipPath id="clip2_5576_336">
<rect width="42.281" height="44.9272" fill="white" transform="translate(269.428 58.5432)"/>
</clipPath>
</defs>
</svg>
