<svg width="350" height="202" viewBox="0 0 350 202" fill="none" xmlns="http://www.w3.org/2000/svg">
<rect x="1.69684" y="1.19104" width="149.606" height="103.618" rx="5" fill="#121829"/>
<g opacity="0.08">
<path d="M93.8543 16.6742C93.8543 16.0164 94.3902 15.4832 95.0512 15.4832H111.807C112.468 15.4832 113.004 16.0164 113.004 16.6742V19.0562C113.004 19.714 112.468 20.2472 111.807 20.2472H95.0512C94.3902 20.2472 93.8543 19.714 93.8543 19.0562V16.6742Z" fill="white"/>
<path d="M93.8543 23.8202C93.8543 23.1625 94.3902 22.6292 95.0512 22.6292H147.713C148.374 22.6292 148.909 23.1625 148.909 23.8202V26.2023C148.909 26.86 148.374 27.3933 147.713 27.3933H95.0512C94.3902 27.3933 93.8543 26.86 93.8543 26.2023V23.8202Z" fill="white"/>
<path d="M95.0512 39.3034C94.3902 39.3034 93.8543 39.8366 93.8543 40.4944V42.8764C93.8543 43.5342 94.3902 44.0674 95.0512 44.0674H147.713C148.374 44.0674 148.909 43.5342 148.909 42.8764V40.4944C148.909 39.8366 148.374 39.3034 147.713 39.3034H95.0512Z" fill="white"/>
<path d="M93.8543 47.6405C93.8543 46.9827 94.3902 46.4494 95.0512 46.4494H140.531C141.192 46.4494 141.728 46.9827 141.728 47.6405V50.0225C141.728 50.6803 141.192 51.2135 140.531 51.2135H95.0512C94.3902 51.2135 93.8543 50.6803 93.8543 50.0225V47.6405Z" fill="white"/>
<path d="M95.0512 53.5955C94.3902 53.5955 93.8543 54.1287 93.8543 54.7865V57.1685C93.8543 57.8263 94.3902 58.3596 95.0512 58.3596H120.185C120.846 58.3596 121.382 57.8263 121.382 57.1685V54.7865C121.382 54.1287 120.846 53.5955 120.185 53.5955H95.0512Z" fill="white"/>
<path d="M93.8543 61.9326C93.8543 61.2748 94.3902 60.7416 95.0512 60.7416H126.169C126.83 60.7416 127.366 61.2748 127.366 61.9326V64.3146C127.366 64.9724 126.83 65.5056 126.169 65.5056H95.0512C94.3902 65.5056 93.8543 64.9724 93.8543 64.3146V61.9326Z" fill="white"/>
<path d="M95.0512 67.8876C94.3902 67.8876 93.8543 68.4209 93.8543 69.0787V71.4607C93.8543 72.1185 94.3902 72.6517 95.0512 72.6517H145.319C145.98 72.6517 146.516 72.1185 146.516 71.4607V69.0787C146.516 68.4209 145.98 67.8876 145.319 67.8876H95.0512Z" fill="white"/>
<path d="M93.8543 85.7528C93.8543 85.095 94.3902 84.5618 95.0512 84.5618H105.823C106.484 84.5618 107.02 85.095 107.02 85.7528V88.1348C107.02 88.7926 106.484 89.3259 105.823 89.3259H95.0512C94.3902 89.3259 93.8543 88.7926 93.8543 88.1348V85.7528Z" fill="white"/>
<path d="M94.4527 33.3483C94.1222 33.3483 93.8543 33.6149 93.8543 33.9438C93.8543 34.2727 94.1222 34.5393 94.4527 34.5393H148.311C148.642 34.5393 148.909 34.2727 148.909 33.9438C148.909 33.6149 148.642 33.3483 148.311 33.3483H94.4527Z" fill="white"/>
</g>
<path opacity="0.1" fill-rule="evenodd" clip-rule="evenodd" d="M38.7992 15.4832C36.8162 15.4832 35.2087 17.0828 35.2087 19.0562V96.4719C35.2087 98.4453 36.8162 100.045 38.7992 100.045H83.0827C85.0657 100.045 86.6732 98.4453 86.6732 96.4719V19.0562C86.6732 17.0828 85.0657 15.4832 83.0827 15.4832H38.7992ZM39.9961 22.6292C39.9961 21.3136 41.0677 20.2472 42.3898 20.2472H79.4921C80.8142 20.2472 81.8858 21.3136 81.8858 22.6292V27.3933C81.8858 28.7088 80.8142 29.7753 79.4921 29.7753H42.3898C41.0677 29.7753 39.9961 28.7088 39.9961 27.3933V22.6292ZM50.7677 33.3483C49.4457 33.3483 48.374 34.4148 48.374 35.7303V40.4944C48.374 41.81 49.4457 42.8764 50.7677 42.8764H79.4921C80.8142 42.8764 81.8858 41.81 81.8858 40.4944V35.7303C81.8858 34.4148 80.8142 33.3483 79.4921 33.3483H50.7677ZM50.7677 46.4494C49.4457 46.4494 48.374 47.5159 48.374 48.8315V53.5955C48.374 54.9111 49.4457 55.9775 50.7677 55.9775H79.4921C80.8142 55.9775 81.8858 54.9111 81.8858 53.5955V48.8315C81.8858 47.5159 80.8142 46.4494 79.4921 46.4494H50.7677ZM42.3898 60.7416C41.0677 60.7416 39.9961 61.808 39.9961 63.1236V67.8876C39.9961 69.2032 41.0677 70.2697 42.3898 70.2697H79.4921C80.8142 70.2697 81.8858 69.2032 81.8858 67.8876V63.1236C81.8858 61.808 80.8142 60.7416 79.4921 60.7416H42.3898ZM50.7677 73.8427C49.4457 73.8427 48.374 74.9092 48.374 76.2247V80.9888C48.374 82.3043 49.4457 83.3708 50.7677 83.3708H79.4921C80.8142 83.3708 81.8858 82.3043 81.8858 80.9888V76.2247C81.8858 74.9092 80.8142 73.8427 79.4921 73.8427H50.7677ZM48.374 89.3259C48.374 88.0103 49.4457 86.9438 50.7677 86.9438H79.4921C80.8142 86.9438 81.8858 88.0103 81.8858 89.3259V94.0899C81.8858 95.4055 80.8142 96.4719 79.4921 96.4719H50.7677C49.4457 96.4719 48.374 95.4055 48.374 94.0899V89.3259Z" fill="white"/>
<path fill-rule="evenodd" clip-rule="evenodd" d="M42.3898 19.0562C40.4067 19.0562 38.7992 20.6559 38.7992 22.6292V27.3933C38.7992 29.3666 40.4067 30.9663 42.3898 30.9663H79.4921C81.4751 30.9663 83.0827 29.3666 83.0827 27.3933V22.6292C83.0827 20.6559 81.4751 19.0562 79.4921 19.0562H42.3898ZM42.3898 20.2472C41.0677 20.2472 39.9961 21.3136 39.9961 22.6292V27.3933C39.9961 28.7088 41.0677 29.7753 42.3898 29.7753H79.4921C80.8142 29.7753 81.8858 28.7088 81.8858 27.3933V22.6292C81.8858 21.3136 80.8142 20.2472 79.4921 20.2472H42.3898Z" fill="white"/>
<path fill-rule="evenodd" clip-rule="evenodd" d="M47.1772 35.7303C47.1772 33.757 48.7847 32.1573 50.7677 32.1573H79.4921C81.4751 32.1573 83.0827 33.757 83.0827 35.7303V40.4944C83.0827 42.4677 81.4751 44.0674 79.4921 44.0674H50.7677C48.7847 44.0674 47.1772 42.4677 47.1772 40.4944V35.7303ZM48.374 35.7303C48.374 34.4148 49.4457 33.3483 50.7677 33.3483H79.4921C80.8142 33.3483 81.8858 34.4148 81.8858 35.7303V40.4944C81.8858 41.81 80.8142 42.8764 79.4921 42.8764H50.7677C49.4457 42.8764 48.374 41.81 48.374 40.4944V35.7303Z" fill="white"/>
<path fill-rule="evenodd" clip-rule="evenodd" d="M47.1772 48.8315C47.1772 46.8581 48.7847 45.2584 50.7677 45.2584H79.4921C81.4751 45.2584 83.0827 46.8581 83.0827 48.8315V53.5955C83.0827 55.5688 81.4751 57.1685 79.4921 57.1685H50.7677C48.7847 57.1685 47.1772 55.5688 47.1772 53.5955V48.8315ZM48.374 48.8315C48.374 47.5159 49.4457 46.4494 50.7677 46.4494H79.4921C80.8142 46.4494 81.8858 47.5159 81.8858 48.8315V53.5955C81.8858 54.9111 80.8142 55.9775 79.4921 55.9775H50.7677C49.4457 55.9775 48.374 54.9111 48.374 53.5955V48.8315Z" fill="white"/>
<path fill-rule="evenodd" clip-rule="evenodd" d="M38.7992 63.1236C38.7992 61.1503 40.4067 59.5506 42.3898 59.5506H79.4921C81.4751 59.5506 83.0827 61.1503 83.0827 63.1236V67.8876C83.0827 69.861 81.4751 71.4607 79.4921 71.4607H42.3898C40.4067 71.4607 38.7992 69.861 38.7992 67.8876V63.1236ZM39.9961 63.1236C39.9961 61.808 41.0677 60.7416 42.3898 60.7416H79.4921C80.8142 60.7416 81.8858 61.808 81.8858 63.1236V67.8876C81.8858 69.2032 80.8142 70.2697 79.4921 70.2697H42.3898C41.0677 70.2697 39.9961 69.2032 39.9961 67.8876V63.1236Z" fill="white"/>
<path fill-rule="evenodd" clip-rule="evenodd" d="M47.1772 76.2247C47.1772 74.2514 48.7847 72.6517 50.7677 72.6517H79.4921C81.4751 72.6517 83.0827 74.2514 83.0827 76.2247V80.9888C83.0827 82.9621 81.4751 84.5618 79.4921 84.5618H50.7677C48.7847 84.5618 47.1772 82.9621 47.1772 80.9888V76.2247ZM48.374 76.2247C48.374 74.9091 49.4457 73.8427 50.7677 73.8427H79.4921C80.8142 73.8427 81.8858 74.9091 81.8858 76.2247V80.9888C81.8858 82.3043 80.8142 83.3708 79.4921 83.3708H50.7677C49.4457 83.3708 48.374 82.3043 48.374 80.9888V76.2247Z" fill="white"/>
<path fill-rule="evenodd" clip-rule="evenodd" d="M50.7677 85.7528C48.7847 85.7528 47.1772 87.3525 47.1772 89.3258V94.0899C47.1772 96.0632 48.7847 97.6629 50.7677 97.6629H79.4921C81.4751 97.6629 83.0827 96.0632 83.0827 94.0899V89.3258C83.0827 87.3525 81.4751 85.7528 79.4921 85.7528H50.7677ZM50.7677 86.9438C49.4457 86.9438 48.374 88.0103 48.374 89.3258V94.0899C48.374 95.4055 49.4457 96.4719 50.7677 96.4719H79.4921C80.8142 96.4719 81.8858 95.4055 81.8858 94.0899V89.3258C81.8858 88.0103 80.8142 86.9438 79.4921 86.9438H50.7677Z" fill="white"/>
<path fill-rule="evenodd" clip-rule="evenodd" d="M38.7992 14.2921H83.0827C85.7266 14.2921 87.8701 16.4251 87.8701 19.0562V96.4719C87.8701 99.103 85.7266 101.236 83.0827 101.236H38.7992C36.1552 101.236 34.0118 99.103 34.0118 96.4719V19.0562C34.0118 16.4251 36.1552 14.2921 38.7992 14.2921ZM38.7992 15.4831C36.8162 15.4831 35.2087 17.0828 35.2087 19.0562V96.4719C35.2087 98.4452 36.8162 100.045 38.7992 100.045H83.0827C85.0657 100.045 86.6732 98.4452 86.6732 96.4719V19.0562C86.6732 17.0828 85.0657 15.4831 83.0827 15.4831H38.7992Z" fill="white"/>
<path fill-rule="evenodd" clip-rule="evenodd" d="M0.5 7.14607C0.5 3.19939 3.71507 0 7.6811 0H145.319C149.285 0 152.5 3.19939 152.5 7.14607V98.8539C152.5 102.801 149.285 106 145.319 106H7.6811C3.71507 106 0.5 102.801 0.5 98.8539V7.14607ZM7.6811 1.19101H145.319C148.624 1.19101 151.303 3.85719 151.303 7.14607V98.8539C151.303 102.143 148.624 104.809 145.319 104.809H7.6811C4.37603 104.809 1.69685 102.143 1.69685 98.8539V7.14607C1.69685 3.85719 4.37603 1.19101 7.6811 1.19101Z" fill="white"/>
<path d="M42.3898 30.3708C42.3898 30.0419 42.6577 29.7753 42.9882 29.7753C43.3187 29.7753 43.5866 30.0419 43.5866 30.3708V32.7528C43.5866 33.0817 43.3187 33.3483 42.9882 33.3483C42.6577 33.3483 42.3898 33.0817 42.3898 32.7528V30.3708Z" fill="white"/>
<path fill-rule="evenodd" clip-rule="evenodd" d="M41.1929 37.5168C41.1929 36.739 41.6925 36.0772 42.3898 35.832V35.1348C42.3898 34.8059 42.6577 34.5393 42.9882 34.5393C43.3187 34.5393 43.5866 34.8059 43.5866 35.1348V35.832C44.2839 36.0772 44.7835 36.739 44.7835 37.5168C44.7835 38.2947 44.2839 38.9565 43.5866 39.2017V39.8989C43.5866 40.2278 43.3187 40.4944 42.9882 40.4944C42.6577 40.4944 42.3898 40.2278 42.3898 39.8989V39.2017C41.6925 38.9565 41.1929 38.2947 41.1929 37.5168ZM43.5866 37.5168C43.5866 37.8457 43.3187 38.1123 42.9882 38.1123C42.6577 38.1123 42.3898 37.8457 42.3898 37.5168C42.3898 37.188 42.6577 36.9213 42.9882 36.9213C43.3187 36.9213 43.5866 37.188 43.5866 37.5168Z" fill="white"/>
<path fill-rule="evenodd" clip-rule="evenodd" d="M44.7835 50.618C44.7835 51.6046 43.9797 52.4045 42.9882 52.4045C41.9967 52.4045 41.1929 51.6046 41.1929 50.618C41.1929 49.6313 41.9967 48.8314 42.9882 48.8314C43.9797 48.8314 44.7835 49.6313 44.7835 50.618ZM43.5866 50.618C43.5866 50.9469 43.3187 51.2135 42.9882 51.2135C42.6577 51.2135 42.3898 50.9469 42.3898 50.618C42.3898 50.2891 42.6577 50.0225 42.9882 50.0225C43.3187 50.0225 43.5866 50.2891 43.5866 50.618Z" fill="white"/>
<path d="M42.3898 42.2809C42.3898 41.952 42.6577 41.6854 42.9882 41.6854C43.3187 41.6854 43.5866 41.952 43.5866 42.2809V43.4719C43.5866 43.8008 43.3187 44.0674 42.9882 44.0674C42.6577 44.0674 42.3898 43.8008 42.3898 43.4719V42.2809Z" fill="white"/>
<path d="M42.9882 45.2584C42.6577 45.2584 42.3898 45.525 42.3898 45.8539V47.0449C42.3898 47.3738 42.6577 47.6404 42.9882 47.6404C43.3187 47.6404 43.5866 47.3738 43.5866 47.0449V45.8539C43.5866 45.525 43.3187 45.2584 42.9882 45.2584Z" fill="white"/>
<path d="M42.3898 70.8652C42.3898 70.5363 42.6577 70.2696 42.9882 70.2696C43.3187 70.2696 43.5866 70.5363 43.5866 70.8652V73.2472C43.5866 73.5761 43.3187 73.8427 42.9882 73.8427C42.6577 73.8427 42.3898 73.5761 42.3898 73.2472V70.8652Z" fill="white"/>
<path fill-rule="evenodd" clip-rule="evenodd" d="M41.1929 78.0112C41.1929 77.2334 41.6925 76.5716 42.3898 76.3264V75.6292C42.3898 75.3003 42.6577 75.0337 42.9882 75.0337C43.3187 75.0337 43.5866 75.3003 43.5866 75.6292V76.3264C44.2839 76.5716 44.7835 77.2334 44.7835 78.0112C44.7835 78.7891 44.2839 79.4508 43.5866 79.6961V80.3932C43.5866 80.7221 43.3187 80.9888 42.9882 80.9888C42.6577 80.9888 42.3898 80.7221 42.3898 80.3932V79.6961C41.6925 79.4508 41.1929 78.7891 41.1929 78.0112ZM43.5866 78.0112C43.5866 78.3401 43.3187 78.6067 42.9882 78.6067C42.6577 78.6067 42.3898 78.3401 42.3898 78.0112C42.3898 77.6823 42.6577 77.4157 42.9882 77.4157C43.3187 77.4157 43.5866 77.6823 43.5866 78.0112Z" fill="white"/>
<path fill-rule="evenodd" clip-rule="evenodd" d="M44.7835 91.1123C44.7835 92.099 43.9797 92.8989 42.9882 92.8989C41.9967 92.8989 41.1929 92.099 41.1929 91.1123C41.1929 90.1257 41.9967 89.3258 42.9882 89.3258C43.9797 89.3258 44.7835 90.1257 44.7835 91.1123ZM43.5866 91.1123C43.5866 91.4412 43.3187 91.7079 42.9882 91.7079C42.6577 91.7079 42.3898 91.4412 42.3898 91.1123C42.3898 90.7835 42.6577 90.5168 42.9882 90.5168C43.3187 90.5168 43.5866 90.7835 43.5866 91.1123Z" fill="white"/>
<path d="M42.3898 82.7753C42.3898 82.4464 42.6577 82.1798 42.9882 82.1798C43.3187 82.1798 43.5866 82.4464 43.5866 82.7753V83.9663C43.5866 84.2952 43.3187 84.5618 42.9882 84.5618C42.6577 84.5618 42.3898 84.2952 42.3898 83.9663V82.7753Z" fill="white"/>
<path d="M42.9882 85.7528C42.6577 85.7528 42.3898 86.0194 42.3898 86.3483V87.5393C42.3898 87.8682 42.6577 88.1348 42.9882 88.1348C43.3187 88.1348 43.5866 87.8682 43.5866 87.5393V86.3483C43.5866 86.0194 43.3187 85.7528 42.9882 85.7528Z" fill="white"/>
<path opacity="0.1" d="M1.69684 7.1461C1.69684 3.85721 4.37608 1.19104 7.68109 1.19104H145.319C148.624 1.19104 151.303 3.85721 151.303 7.1461V10.7191H1.69684V7.1461Z" fill="white"/>
<path opacity="0.05" d="M1.69684 10.7191H31.6181V104.809H7.68109C4.37608 104.809 1.69684 102.143 1.69684 98.854V10.7191Z" fill="white"/>
<g opacity="0.05">
<path d="M4.09058 16.6742C4.09058 16.0164 4.62642 15.4832 5.28743 15.4832H26.8307C27.4917 15.4832 28.0276 16.0164 28.0276 16.6742V19.0562C28.0276 19.714 27.4917 20.2472 26.8307 20.2472H5.28743C4.62642 20.2472 4.09058 19.714 4.09058 19.0562V16.6742Z" fill="white"/>
<path d="M4.09058 23.8202C4.09058 23.1625 4.62642 22.6292 5.28743 22.6292H26.8307C27.4917 22.6292 28.0276 23.1625 28.0276 23.8202V26.2023C28.0276 26.86 27.4917 27.3933 26.8307 27.3933H5.28743C4.62642 27.3933 4.09058 26.86 4.09058 26.2023V23.8202Z" fill="white"/>
<path d="M5.28743 29.7753C4.62642 29.7753 4.09058 30.3085 4.09058 30.9663V33.3483C4.09058 34.0061 4.62642 34.5393 5.28743 34.5393H26.8307C27.4917 34.5393 28.0276 34.0061 28.0276 33.3483V30.9663C28.0276 30.3085 27.4917 29.7753 26.8307 29.7753H5.28743Z" fill="white"/>
<path d="M4.09058 38.1124C4.09058 37.4546 4.62642 36.9214 5.28743 36.9214H26.8307C27.4917 36.9214 28.0276 37.4546 28.0276 38.1124V40.4944C28.0276 41.1522 27.4917 41.6854 26.8307 41.6854H5.28743C4.62642 41.6854 4.09058 41.1522 4.09058 40.4944V38.1124Z" fill="white"/>
<path d="M5.28743 44.0674C4.62642 44.0674 4.09058 44.6007 4.09058 45.2584V47.6405C4.09058 48.2982 4.62642 48.8315 5.28743 48.8315H26.8307C27.4917 48.8315 28.0276 48.2982 28.0276 47.6405V45.2584C28.0276 44.6007 27.4917 44.0674 26.8307 44.0674H5.28743Z" fill="white"/>
<path d="M4.09058 52.4045C4.09058 51.7467 4.62642 51.2135 5.28743 51.2135H26.8307C27.4917 51.2135 28.0276 51.7467 28.0276 52.4045V54.7865C28.0276 55.4443 27.4917 55.9775 26.8307 55.9775H5.28743C4.62642 55.9775 4.09058 55.4443 4.09058 54.7865V52.4045Z" fill="white"/>
<path d="M5.28743 58.3596C4.62642 58.3596 4.09058 58.8928 4.09058 59.5506V61.9326C4.09058 62.5904 4.62642 63.1236 5.28743 63.1236H26.8307C27.4917 63.1236 28.0276 62.5904 28.0276 61.9326V59.5506C28.0276 58.8928 27.4917 58.3596 26.8307 58.3596H5.28743Z" fill="white"/>
<path d="M4.09058 66.6966C4.09058 66.0389 4.62642 65.5056 5.28743 65.5056H26.8307C27.4917 65.5056 28.0276 66.0389 28.0276 66.6966V69.0787C28.0276 69.7364 27.4917 70.2697 26.8307 70.2697H5.28743C4.62642 70.2697 4.09058 69.7364 4.09058 69.0787V66.6966Z" fill="white"/>
<path d="M5.28743 72.6517C4.62642 72.6517 4.09058 73.1849 4.09058 73.8427V76.2247C4.09058 76.8825 4.62642 77.4157 5.28743 77.4157H26.8307C27.4917 77.4157 28.0276 76.8825 28.0276 76.2247V73.8427C28.0276 73.1849 27.4917 72.6517 26.8307 72.6517H5.28743Z" fill="white"/>
</g>
<path d="M106.689 52.2289C106.689 48.9019 109.351 46.2048 112.634 46.2048H249.366C252.649 46.2048 255.311 48.9019 255.311 52.2289V137.771C255.311 141.098 252.649 143.795 249.366 143.795H112.634C109.351 143.795 106.689 141.098 106.689 137.771V52.2289Z" fill="#121829"/>
<path opacity="0.1" fill-rule="evenodd" clip-rule="evenodd" d="M106.689 52.2289C106.689 48.9019 109.351 46.2048 112.634 46.2048H249.366C252.649 46.2048 255.311 48.9019 255.311 52.2289V137.771C255.311 141.098 252.649 143.795 249.366 143.795H112.634C109.351 143.795 106.689 141.098 106.689 137.771V52.2289ZM250.555 66.6868H111.445V76.3253H250.555V66.6868ZM111.445 82.3494H250.555V91.988H111.445V82.3494ZM250.555 98.0121H111.445V107.651H250.555V98.0121ZM111.445 113.675H250.555V123.313H111.445V113.675ZM250.555 129.337H111.445V138.976H250.555V129.337Z" fill="white"/>
<path fill-rule="evenodd" clip-rule="evenodd" d="M112.634 45C108.694 45 105.5 48.2365 105.5 52.2289V137.771C105.5 141.764 108.694 145 112.634 145H249.366C253.306 145 256.5 141.764 256.5 137.771V52.2289C256.5 48.2365 253.306 45 249.366 45H112.634ZM249.366 46.2048H112.634C109.351 46.2048 106.689 48.9019 106.689 52.2289C106.689 55.5559 106.689 137.771 106.689 137.771C106.689 141.098 109.351 143.795 112.634 143.795H249.366C252.649 143.795 255.311 141.098 255.311 137.771V52.2289C255.311 48.9019 252.649 46.2048 249.366 46.2048Z" fill="white"/>
<path fill-rule="evenodd" clip-rule="evenodd" d="M113.823 65.4819C111.853 65.4819 110.256 67.1002 110.256 69.0964V73.9157C110.256 75.9119 111.853 77.5301 113.823 77.5301H248.177C250.147 77.5301 251.744 75.9119 251.744 73.9157V69.0964C251.744 67.1002 250.147 65.4819 248.177 65.4819H113.823ZM113.823 66.6867C112.509 66.6867 111.445 67.7656 111.445 69.0964V73.9157C111.445 75.2465 112.509 76.3253 113.823 76.3253H248.177C249.491 76.3253 250.555 75.2465 250.555 73.9157V69.0964C250.555 67.7656 249.491 66.6867 248.177 66.6867H113.823Z" fill="white"/>
<path fill-rule="evenodd" clip-rule="evenodd" d="M113.823 81.1446C111.853 81.1446 110.256 82.7628 110.256 84.759V89.5783C110.256 91.5745 111.853 93.1928 113.823 93.1928H248.177C250.147 93.1928 251.744 91.5745 251.744 89.5783V84.759C251.744 82.7628 250.147 81.1446 248.177 81.1446H113.823ZM113.823 82.3494C112.509 82.3494 111.445 83.4282 111.445 84.759V89.5783C111.445 90.9091 112.509 91.988 113.823 91.988H248.177C249.491 91.988 250.555 90.9091 250.555 89.5783V84.759C250.555 83.4282 249.491 82.3494 248.177 82.3494H113.823Z" fill="white"/>
<path fill-rule="evenodd" clip-rule="evenodd" d="M113.823 96.8072C111.853 96.8072 110.256 98.4255 110.256 100.422V105.241C110.256 107.237 111.853 108.855 113.823 108.855H248.177C250.147 108.855 251.744 107.237 251.744 105.241V100.422C251.744 98.4255 250.147 96.8072 248.177 96.8072H113.823ZM113.823 98.0121C112.509 98.0121 111.445 99.0909 111.445 100.422V105.241C111.445 106.572 112.509 107.651 113.823 107.651H248.177C249.491 107.651 250.555 106.572 250.555 105.241V100.422C250.555 99.0909 249.491 98.0121 248.177 98.0121H113.823Z" fill="white"/>
<path fill-rule="evenodd" clip-rule="evenodd" d="M113.823 112.47C111.853 112.47 110.256 114.088 110.256 116.084V120.904C110.256 122.9 111.853 124.518 113.823 124.518H248.177C250.147 124.518 251.744 122.9 251.744 120.904V116.084C251.744 114.088 250.147 112.47 248.177 112.47H113.823ZM113.823 113.675C112.509 113.675 111.445 114.754 111.445 116.084V120.904C111.445 122.234 112.509 123.313 113.823 123.313H248.177C249.491 123.313 250.555 122.234 250.555 120.904V116.084C250.555 114.754 249.491 113.675 248.177 113.675H113.823Z" fill="white"/>
<path fill-rule="evenodd" clip-rule="evenodd" d="M113.823 128.133C111.853 128.133 110.256 129.751 110.256 131.747V136.566C110.256 138.562 111.853 140.181 113.823 140.181H248.177C250.147 140.181 251.744 138.562 251.744 136.566V131.747C251.744 129.751 250.147 128.133 248.177 128.133H113.823ZM113.823 129.337C112.509 129.337 111.445 130.416 111.445 131.747V136.566C111.445 137.897 112.509 138.976 113.823 138.976H248.177C249.491 138.976 250.555 137.897 250.555 136.566V131.747C250.555 130.416 249.491 129.337 248.177 129.337H113.823Z" fill="white"/>
<g opacity="0.08">
<path d="M114.417 67.8915C113.432 67.8915 112.634 68.7007 112.634 69.6988V73.3132C112.634 74.3113 113.432 75.1205 114.417 75.1205H145.331C146.316 75.1205 147.114 74.3113 147.114 73.3132V69.6988C147.114 68.7007 146.316 67.8915 145.331 67.8915H114.417Z" fill="white"/>
<path d="M229.154 69.6988C229.154 68.7007 229.952 67.8915 230.937 67.8915H247.583C248.568 67.8915 249.366 68.7007 249.366 69.6988V73.3132C249.366 74.3113 248.568 75.1205 247.583 75.1205H230.937C229.952 75.1205 229.154 74.3113 229.154 73.3132V69.6988Z" fill="white"/>
<path d="M221.425 67.8915C220.44 67.8915 219.642 68.7007 219.642 69.6988V73.3132C219.642 74.3113 220.44 75.1205 221.425 75.1205H224.992C225.977 75.1205 226.776 74.3113 226.776 73.3132V69.6988C226.776 68.7007 225.977 67.8915 224.992 67.8915H221.425Z" fill="white"/>
<path d="M210.13 69.6988C210.13 68.7007 210.928 67.8915 211.913 67.8915H215.48C216.465 67.8915 217.264 68.7007 217.264 69.6988V73.3132C217.264 74.3113 216.465 75.1205 215.48 75.1205H211.913C210.928 75.1205 210.13 74.3113 210.13 73.3132V69.6988Z" fill="white"/>
<path d="M151.276 67.8915C150.291 67.8915 149.492 68.7007 149.492 69.6988V73.3132C149.492 74.3113 150.291 75.1205 151.276 75.1205H205.968C206.953 75.1205 207.752 74.3113 207.752 73.3132V69.6988C207.752 68.7007 206.953 67.8915 205.968 67.8915H151.276Z" fill="white"/>
<path d="M114.417 83.5542C113.432 83.5542 112.634 84.3633 112.634 85.3614V88.9759C112.634 89.974 113.432 90.7831 114.417 90.7831H145.331C146.316 90.7831 147.114 89.974 147.114 88.9759V85.3614C147.114 84.3633 146.316 83.5542 145.331 83.5542H114.417Z" fill="white"/>
<path d="M229.154 85.3614C229.154 84.3633 229.952 83.5542 230.937 83.5542H247.583C248.568 83.5542 249.366 84.3633 249.366 85.3614V88.9759C249.366 89.974 248.568 90.7831 247.583 90.7831H230.937C229.952 90.7831 229.154 89.974 229.154 88.9759V85.3614Z" fill="white"/>
<path d="M221.425 83.5542C220.44 83.5542 219.642 84.3633 219.642 85.3614V88.9759C219.642 89.974 220.44 90.7831 221.425 90.7831H224.992C225.977 90.7831 226.776 89.974 226.776 88.9759V85.3614C226.776 84.3633 225.977 83.5542 224.992 83.5542H221.425Z" fill="white"/>
<path d="M210.13 85.3614C210.13 84.3633 210.928 83.5542 211.913 83.5542H215.48C216.465 83.5542 217.264 84.3633 217.264 85.3614V88.9759C217.264 89.974 216.465 90.7831 215.48 90.7831H211.913C210.928 90.7831 210.13 89.974 210.13 88.9759V85.3614Z" fill="white"/>
<path d="M151.276 83.5542C150.291 83.5542 149.492 84.3633 149.492 85.3614V88.9759C149.492 89.974 150.291 90.7831 151.276 90.7831H205.968C206.953 90.7831 207.752 89.974 207.752 88.9759V85.3614C207.752 84.3633 206.953 83.5542 205.968 83.5542H151.276Z" fill="white"/>
<path d="M114.417 99.2168C113.432 99.2168 112.634 100.026 112.634 101.024V104.639C112.634 105.637 113.432 106.446 114.417 106.446H145.331C146.316 106.446 147.114 105.637 147.114 104.639V101.024C147.114 100.026 146.316 99.2168 145.331 99.2168H114.417Z" fill="white"/>
<path d="M229.154 101.024C229.154 100.026 229.952 99.2168 230.937 99.2168H247.583C248.568 99.2168 249.366 100.026 249.366 101.024V104.639C249.366 105.637 248.568 106.446 247.583 106.446H230.937C229.952 106.446 229.154 105.637 229.154 104.639V101.024Z" fill="white"/>
<path d="M221.425 99.2168C220.44 99.2168 219.642 100.026 219.642 101.024V104.639C219.642 105.637 220.44 106.446 221.425 106.446H224.992C225.977 106.446 226.776 105.637 226.776 104.639V101.024C226.776 100.026 225.977 99.2168 224.992 99.2168H221.425Z" fill="white"/>
<path d="M210.13 101.024C210.13 100.026 210.928 99.2168 211.913 99.2168H215.48C216.465 99.2168 217.264 100.026 217.264 101.024V104.639C217.264 105.637 216.465 106.446 215.48 106.446H211.913C210.928 106.446 210.13 105.637 210.13 104.639V101.024Z" fill="white"/>
<path d="M151.276 99.2168C150.291 99.2168 149.492 100.026 149.492 101.024V104.639C149.492 105.637 150.291 106.446 151.276 106.446H205.968C206.953 106.446 207.752 105.637 207.752 104.639V101.024C207.752 100.026 206.953 99.2168 205.968 99.2168H151.276Z" fill="white"/>
<path d="M114.417 114.879C113.432 114.879 112.634 115.689 112.634 116.687V120.301C112.634 121.299 113.432 122.108 114.417 122.108H145.331C146.316 122.108 147.114 121.299 147.114 120.301V116.687C147.114 115.689 146.316 114.879 145.331 114.879H114.417Z" fill="white"/>
<path d="M229.154 116.687C229.154 115.689 229.952 114.879 230.937 114.879H247.583C248.568 114.879 249.366 115.689 249.366 116.687V120.301C249.366 121.299 248.568 122.108 247.583 122.108H230.937C229.952 122.108 229.154 121.299 229.154 120.301V116.687Z" fill="white"/>
<path d="M221.425 114.879C220.44 114.879 219.642 115.689 219.642 116.687V120.301C219.642 121.299 220.44 122.108 221.425 122.108H224.992C225.977 122.108 226.776 121.299 226.776 120.301V116.687C226.776 115.689 225.977 114.879 224.992 114.879H221.425Z" fill="white"/>
<path d="M210.13 116.687C210.13 115.689 210.928 114.879 211.913 114.879H215.48C216.465 114.879 217.264 115.689 217.264 116.687V120.301C217.264 121.299 216.465 122.108 215.48 122.108H211.913C210.928 122.108 210.13 121.299 210.13 120.301V116.687Z" fill="white"/>
<path d="M151.276 114.879C150.291 114.879 149.492 115.689 149.492 116.687V120.301C149.492 121.299 150.291 122.108 151.276 122.108H205.968C206.953 122.108 207.752 121.299 207.752 120.301V116.687C207.752 115.689 206.953 114.879 205.968 114.879H151.276Z" fill="white"/>
<path d="M114.417 130.542C113.432 130.542 112.634 131.351 112.634 132.349V135.964C112.634 136.962 113.432 137.771 114.417 137.771H145.331C146.316 137.771 147.114 136.962 147.114 135.964V132.349C147.114 131.351 146.316 130.542 145.331 130.542H114.417Z" fill="white"/>
<path d="M229.154 132.349C229.154 131.351 229.952 130.542 230.937 130.542H247.583C248.568 130.542 249.366 131.351 249.366 132.349V135.964C249.366 136.962 248.568 137.771 247.583 137.771H230.937C229.952 137.771 229.154 136.962 229.154 135.964V132.349Z" fill="white"/>
<path d="M221.425 130.542C220.44 130.542 219.642 131.351 219.642 132.349V135.964C219.642 136.962 220.44 137.771 221.425 137.771H224.992C225.977 137.771 226.776 136.962 226.776 135.964V132.349C226.776 131.351 225.977 130.542 224.992 130.542H221.425Z" fill="white"/>
<path d="M210.13 132.349C210.13 131.351 210.928 130.542 211.913 130.542H215.48C216.465 130.542 217.264 131.351 217.264 132.349V135.964C217.264 136.962 216.465 137.771 215.48 137.771H211.913C210.928 137.771 210.13 136.962 210.13 135.964V132.349Z" fill="white"/>
<path d="M151.276 130.542C150.291 130.542 149.492 131.351 149.492 132.349V135.964C149.492 136.962 150.291 137.771 151.276 137.771H205.968C206.953 137.771 207.752 136.962 207.752 135.964V132.349C207.752 131.351 206.953 130.542 205.968 130.542H151.276Z" fill="white"/>
</g>
<g opacity="0.15">
<path d="M110.256 54.6386C110.256 52.6424 111.853 51.0241 113.823 51.0241H147.114V60.6627H110.256V54.6386Z" fill="white"/>
<path d="M251.744 54.6386C251.744 52.6424 250.147 51.0241 248.177 51.0241H229.154V60.6627H251.744V54.6386Z" fill="white"/>
<path d="M207.752 51.0241H149.492V60.6627H207.752V51.0241Z" fill="white"/>
<path d="M210.13 51.0241H217.264V60.6627H210.13V51.0241Z" fill="white"/>
<path d="M226.776 51.0241H219.642V60.6627H226.776V51.0241Z" fill="white"/>
</g>
<path d="M198.697 110.157C198.697 106.863 201.376 104.193 204.681 104.193H342.319C345.624 104.193 348.303 106.863 348.303 110.157V194.843C348.303 198.137 345.624 200.807 342.319 200.807H204.681C201.376 200.807 198.697 198.137 198.697 194.843V110.157Z" fill="#121829"/>
<path opacity="0.1" fill-rule="evenodd" clip-rule="evenodd" d="M204.681 104.193C201.376 104.193 198.697 106.863 198.697 110.157V194.843C198.697 198.137 201.376 200.807 204.681 200.807H342.319C345.624 200.807 348.303 198.137 348.303 194.843V110.157C348.303 106.863 345.624 104.193 342.319 104.193H204.681ZM210.665 108.964C209.343 108.964 208.272 110.032 208.272 111.349V131.626C208.272 132.944 209.343 134.012 210.665 134.012H341.122C342.444 134.012 343.516 132.944 343.516 131.626V111.349C343.516 110.032 342.444 108.964 341.122 108.964H210.665ZM208.272 142.361C208.272 141.044 209.343 139.976 210.665 139.976H341.122C342.444 139.976 343.516 141.044 343.516 142.361V162.639C343.516 163.956 342.444 165.024 341.122 165.024H210.665C209.343 165.024 208.272 163.956 208.272 162.639V142.361ZM210.665 170.988C209.343 170.988 208.272 172.056 208.272 173.373V193.651C208.272 194.968 209.343 196.036 210.665 196.036H341.122C342.444 196.036 343.516 194.968 343.516 193.651V173.373C343.516 172.056 342.444 170.988 341.122 170.988H210.665Z" fill="white"/>
<path fill-rule="evenodd" clip-rule="evenodd" d="M210.665 107.771C208.682 107.771 207.075 109.373 207.075 111.349V131.627C207.075 133.603 208.682 135.205 210.665 135.205H341.122C343.105 135.205 344.713 133.603 344.713 131.627V111.349C344.713 109.373 343.105 107.771 341.122 107.771H210.665ZM210.665 108.964C209.343 108.964 208.272 110.032 208.272 111.349V131.627C208.272 132.944 209.343 134.012 210.665 134.012H341.122C342.444 134.012 343.516 132.944 343.516 131.627V111.349C343.516 110.032 342.444 108.964 341.122 108.964H210.665Z" fill="white"/>
<path fill-rule="evenodd" clip-rule="evenodd" d="M210.665 138.783C208.682 138.783 207.075 140.385 207.075 142.361V162.639C207.075 164.615 208.682 166.217 210.665 166.217H341.122C343.105 166.217 344.713 164.615 344.713 162.639V142.361C344.713 140.385 343.105 138.783 341.122 138.783H210.665ZM210.665 139.976C209.343 139.976 208.272 141.044 208.272 142.361V162.639C208.272 163.956 209.343 165.024 210.665 165.024H341.122C342.444 165.024 343.516 163.956 343.516 162.639V142.361C343.516 141.044 342.444 139.976 341.122 139.976H210.665Z" fill="white"/>
<path fill-rule="evenodd" clip-rule="evenodd" d="M207.075 173.373C207.075 171.397 208.682 169.795 210.665 169.795H341.122C343.105 169.795 344.713 171.397 344.713 173.373V193.651C344.713 195.627 343.105 197.229 341.122 197.229H210.665C208.682 197.229 207.075 195.627 207.075 193.651V173.373ZM208.272 173.373C208.272 172.056 209.343 170.988 210.665 170.988H341.122C342.444 170.988 343.516 172.056 343.516 173.373V193.651C343.516 194.968 342.444 196.036 341.122 196.036H210.665C209.343 196.036 208.272 194.968 208.272 193.651V173.373Z" fill="white"/>
<path fill-rule="evenodd" clip-rule="evenodd" d="M204.681 103C200.715 103 197.5 106.204 197.5 110.157V194.843C197.5 198.796 200.715 202 204.681 202H342.319C346.285 202 349.5 198.796 349.5 194.843V110.157C349.5 106.204 346.285 103 342.319 103H204.681ZM342.319 104.193H204.681C201.376 104.193 198.697 106.863 198.697 110.157V194.843C198.697 198.137 201.376 200.807 204.681 200.807H342.319C345.624 200.807 348.303 198.137 348.303 194.843V110.157C348.303 106.863 345.624 104.193 342.319 104.193Z" fill="white"/>
<g opacity="0.08">
<path d="M213.657 112.542C212.666 112.542 211.862 113.343 211.862 114.331V117.91C211.862 118.898 212.666 119.699 213.657 119.699H274.697C275.688 119.699 276.492 118.898 276.492 117.91V114.331C276.492 113.343 275.688 112.542 274.697 112.542H213.657Z" fill="white"/>
<path d="M213.657 123.277C212.666 123.277 211.862 124.078 211.862 125.066V128.645C211.862 129.633 212.666 130.434 213.657 130.434H338.13C339.121 130.434 339.925 129.633 339.925 128.645V125.066C339.925 124.078 339.121 123.277 338.13 123.277H213.657Z" fill="white"/>
<path d="M332.744 114.331C332.744 113.343 333.548 112.542 334.539 112.542H338.13C339.121 112.542 339.925 113.343 339.925 114.331V117.91C339.925 118.898 339.121 119.699 338.13 119.699H334.539C333.548 119.699 332.744 118.898 332.744 117.91V114.331Z" fill="white"/>
<path d="M324.965 112.542C323.973 112.542 323.169 113.343 323.169 114.331V117.91C323.169 118.898 323.973 119.699 324.965 119.699H328.555C329.547 119.699 330.35 118.898 330.35 117.91V114.331C330.35 113.343 329.547 112.542 328.555 112.542H324.965Z" fill="white"/>
<path d="M313.594 114.331C313.594 113.343 314.398 112.542 315.39 112.542H318.98C319.972 112.542 320.776 113.343 320.776 114.331V117.91C320.776 118.898 319.972 119.699 318.98 119.699H315.39C314.398 119.699 313.594 118.898 313.594 117.91V114.331Z" fill="white"/>
<path d="M213.657 143.554C212.666 143.554 211.862 144.355 211.862 145.343V148.922C211.862 149.91 212.666 150.711 213.657 150.711H274.697C275.688 150.711 276.492 149.91 276.492 148.922V145.343C276.492 144.355 275.688 143.554 274.697 143.554H213.657Z" fill="white"/>
<path d="M213.657 154.289C212.666 154.289 211.862 155.09 211.862 156.078V159.657C211.862 160.645 212.666 161.446 213.657 161.446H338.13C339.121 161.446 339.925 160.645 339.925 159.657V156.078C339.925 155.09 339.121 154.289 338.13 154.289H213.657Z" fill="white"/>
<path d="M332.744 145.343C332.744 144.355 333.548 143.554 334.539 143.554H338.13C339.121 143.554 339.925 144.355 339.925 145.343V148.922C339.925 149.91 339.121 150.711 338.13 150.711H334.539C333.548 150.711 332.744 149.91 332.744 148.922V145.343Z" fill="white"/>
<path d="M324.965 143.554C323.973 143.554 323.169 144.355 323.169 145.343V148.922C323.169 149.91 323.973 150.711 324.965 150.711H328.555C329.547 150.711 330.35 149.91 330.35 148.922V145.343C330.35 144.355 329.547 143.554 328.555 143.554H324.965Z" fill="white"/>
<path d="M313.594 145.343C313.594 144.355 314.398 143.554 315.39 143.554H318.98C319.972 143.554 320.776 144.355 320.776 145.343V148.922C320.776 149.91 319.972 150.711 318.98 150.711H315.39C314.398 150.711 313.594 149.91 313.594 148.922V145.343Z" fill="white"/>
<path d="M211.862 176.355C211.862 175.367 212.666 174.566 213.657 174.566H274.697C275.688 174.566 276.492 175.367 276.492 176.355V179.934C276.492 180.922 275.688 181.723 274.697 181.723H213.657C212.666 181.723 211.862 180.922 211.862 179.934V176.355Z" fill="white"/>
<path d="M211.862 187.09C211.862 186.102 212.666 185.301 213.657 185.301H338.13C339.121 185.301 339.925 186.102 339.925 187.09V190.669C339.925 191.657 339.121 192.458 338.13 192.458H213.657C212.666 192.458 211.862 191.657 211.862 190.669V187.09Z" fill="white"/>
<path d="M334.539 174.566C333.548 174.566 332.744 175.367 332.744 176.355V179.934C332.744 180.922 333.548 181.723 334.539 181.723H338.13C339.121 181.723 339.925 180.922 339.925 179.934V176.355C339.925 175.367 339.121 174.566 338.13 174.566H334.539Z" fill="white"/>
<path d="M323.169 176.355C323.169 175.367 323.973 174.566 324.965 174.566H328.555C329.547 174.566 330.35 175.367 330.35 176.355V179.934C330.35 180.922 329.547 181.723 328.555 181.723H324.965C323.973 181.723 323.169 180.922 323.169 179.934V176.355Z" fill="white"/>
<path d="M315.39 174.566C314.398 174.566 313.594 175.367 313.594 176.355V179.934C313.594 180.922 314.398 181.723 315.39 181.723H318.98C319.972 181.723 320.776 180.922 320.776 179.934V176.355C320.776 175.367 319.972 174.566 318.98 174.566H315.39Z" fill="white"/>
</g>
<g opacity="0.15">
<path d="M202.287 111.349C202.287 110.691 202.823 110.157 203.484 110.157C204.145 110.157 204.681 110.691 204.681 111.349V131.626C204.681 132.285 204.145 132.819 203.484 132.819C202.823 132.819 202.287 132.285 202.287 131.626V111.349Z" fill="white"/>
<path d="M202.287 142.361C202.287 141.703 202.823 141.169 203.484 141.169C204.145 141.169 204.681 141.703 204.681 142.361V162.639C204.681 163.297 204.145 163.831 203.484 163.831C202.823 163.831 202.287 163.297 202.287 162.639V142.361Z" fill="white"/>
<path d="M202.287 173.373C202.287 172.715 202.823 172.181 203.484 172.181C204.145 172.181 204.681 172.715 204.681 173.373V193.651C204.681 194.309 204.145 194.843 203.484 194.843C202.823 194.843 202.287 194.309 202.287 193.651V173.373Z" fill="white"/>
</g>
</svg>
