<svg width="322" height="110" viewBox="0 0 322 110" fill="none" xmlns="http://www.w3.org/2000/svg">
<path d="M209.855 105.184C210.176 104.415 210.353 103.57 210.353 102.686V100.85C210.353 100.547 210.107 100.301 209.803 100.301V97.7294C210.069 97.7293 210.291 97.5405 210.342 97.2899L210.353 97.1796V93.5077C210.353 93.204 210.107 92.958 209.803 92.9579V90.3856C210.069 90.3855 210.291 90.197 210.342 89.9462L210.353 89.8358V87.9999C210.353 87.116 210.176 86.2717 209.855 85.5018C209.738 85.2217 209.417 85.0893 209.136 85.2059C209.128 85.2094 209.12 85.2147 209.112 85.2186C208.548 84.1543 207.671 83.2804 206.602 82.7196C206.606 82.7119 206.612 82.7051 206.615 82.6971C206.731 82.4163 206.597 82.0942 206.316 81.9784L206.024 81.8661C205.335 81.6197 204.592 81.4862 203.819 81.4862H201.779C201.475 81.4865 201.229 81.7324 201.229 82.036H198.251C198.251 81.7323 198.004 81.4862 197.7 81.4862H193.622C193.318 81.4862 193.071 81.7323 193.071 82.036H190.092C190.092 81.7324 189.846 81.4865 189.543 81.4862H185.463C185.16 81.4862 184.913 81.7323 184.913 82.036H181.934C181.934 81.7324 181.688 81.4864 181.384 81.4862H177.305C177.001 81.4862 176.754 81.7323 176.754 82.036H173.776C173.776 81.7324 173.53 81.4864 173.226 81.4862H169.147C168.843 81.4862 168.596 81.7323 168.596 82.036H165.618C165.618 81.7324 165.372 81.4864 165.068 81.4862H160.989C160.685 81.4862 160.438 81.7323 160.438 82.036H157.46C157.46 81.7324 157.213 81.4864 156.91 81.4862H152.831C152.527 81.4862 152.281 81.7323 152.281 82.036H149.301C149.301 81.7323 149.055 81.4863 148.752 81.4862H144.672C144.369 81.4862 144.123 81.7323 144.123 82.036H141.143C141.143 81.7323 140.897 81.4863 140.593 81.4862H136.514C136.21 81.4862 135.964 81.7323 135.964 82.036H132.985C132.985 81.7323 132.739 81.4863 132.435 81.4862H128.356C128.052 81.4862 127.806 81.7323 127.806 82.036H124.827C124.827 81.7323 124.581 81.4863 124.277 81.4862H120.198C119.894 81.4862 119.648 81.7323 119.648 82.036H116.669C116.669 81.7323 116.422 81.4863 116.119 81.4862H112.04C111.736 81.4862 111.49 81.7323 111.49 82.036H108.51C108.51 81.7323 108.264 81.4863 107.961 81.4862H103.881C103.578 81.4862 103.332 81.7323 103.332 82.036H100.352C100.352 81.7323 100.106 81.4862 99.8023 81.4862H95.7232C95.4195 81.4862 95.1734 81.7323 95.1734 82.036H92.1939C92.1939 81.7323 91.9479 81.4862 91.6441 81.4862H87.565C87.2613 81.4862 87.0152 81.7323 87.0152 82.036H84.0357C84.0357 81.7323 83.7897 81.4862 83.4859 81.4862H79.4068C79.1031 81.4862 78.857 81.7323 78.857 82.036H75.8775C75.8775 81.7323 75.6315 81.4862 75.3277 81.4862H71.2486C70.9449 81.4862 70.6988 81.7323 70.6988 82.036H67.7193C67.7193 81.7323 67.4733 81.4862 67.1695 81.4862H63.0904C62.7867 81.4862 62.5406 81.7323 62.5406 82.036H59.5611C59.5611 81.7323 59.3151 81.4862 59.0113 81.4862H54.9322C54.6285 81.4863 54.3824 81.7323 54.3824 82.036H51.4029C51.4029 81.7323 51.1569 81.4862 50.8531 81.4862H46.774C46.4703 81.4863 46.2242 81.7323 46.2242 82.036H43.2447C43.2447 81.7323 42.9987 81.4862 42.6949 81.4862H38.6158C38.3121 81.4863 38.066 81.7323 38.066 82.036H35.0865C35.0865 81.7323 34.8405 81.4862 34.5367 81.4862H30.4576C30.1539 81.4863 29.9078 81.7323 29.9078 82.036H26.9283C26.9283 81.7323 26.6823 81.4862 26.3785 81.4862H22.2994C21.9957 81.4863 21.7496 81.7323 21.7496 82.036H18.7701C18.7701 81.7323 18.524 81.4862 18.2203 81.4862H16.1812C15.298 81.4862 14.4542 81.6608 13.6842 81.9784C13.4034 82.0942 13.2695 82.4163 13.3853 82.6971C13.3886 82.705 13.3935 82.712 13.397 82.7196C12.3283 83.2804 11.4514 84.1544 10.8873 85.2186C10.8793 85.2149 10.8721 85.2094 10.8638 85.2059C10.5836 85.0892 10.2621 85.2217 10.1451 85.5018C9.86425 86.1756 9.69307 86.9064 9.65486 87.6708L9.64705 87.9999V89.8358C9.6471 90.1395 9.89313 90.3856 10.1969 90.3856V92.9579C9.93112 92.9579 9.70913 93.1458 9.65779 93.3964L9.64705 93.5077V97.1796C9.64731 97.4831 9.89326 97.7294 10.1969 97.7294V100.301C9.8932 100.301 9.64722 100.547 9.64705 100.85V102.686C9.64705 103.57 9.82418 104.415 10.1451 105.184M209.855 105.184L209.347 104.973L209.346 104.972L209.855 105.184ZM209.855 105.184C209.738 105.465 209.417 105.597 209.136 105.48C209.128 105.477 209.12 105.471 209.112 105.467C208.548 106.531 207.671 107.405 206.602 107.966C206.606 107.974 206.611 107.981 206.615 107.989C206.731 108.27 206.597 108.592 206.316 108.708L206.024 108.82C205.335 109.067 204.592 109.2 203.819 109.2H201.78C201.476 109.2 201.229 108.954 201.229 108.65H198.251L198.239 108.762C198.187 109.012 197.966 109.2 197.701 109.2H193.622C193.318 109.2 193.071 108.954 193.071 108.65H190.092L190.081 108.762C190.029 109.012 189.808 109.2 189.543 109.2H185.463C185.16 109.2 184.913 108.954 184.913 108.65H181.934L181.922 108.762C181.871 109.012 181.65 109.2 181.384 109.2H177.305C177.001 109.2 176.754 108.954 176.754 108.65H173.776L173.764 108.762C173.713 109.012 173.492 109.2 173.226 109.2H169.147C168.881 109.2 168.659 109.012 168.608 108.762L168.597 108.65H165.618L165.606 108.762C165.555 109.012 165.333 109.2 165.068 109.2H160.989C160.723 109.2 160.501 109.012 160.45 108.762L160.439 108.65H157.46L157.449 108.762C157.397 109.012 157.175 109.2 156.91 109.2H152.831C152.565 109.2 152.343 109.012 152.292 108.762L152.281 108.65H149.301L149.291 108.762C149.239 109.012 149.017 109.2 148.752 109.2H144.672C144.407 109.2 144.185 109.012 144.133 108.762L144.123 108.65H141.143C141.143 108.954 140.897 109.2 140.593 109.2H136.514C136.249 109.2 136.027 109.012 135.975 108.762L135.964 108.65H132.985C132.985 108.954 132.739 109.2 132.435 109.2H128.356C128.09 109.2 127.868 109.012 127.817 108.762L127.806 108.65H124.827C124.827 108.954 124.581 109.2 124.277 109.2H120.198C119.932 109.2 119.71 109.012 119.659 108.762L119.648 108.65H116.669C116.669 108.954 116.422 109.2 116.119 109.2H112.04C111.774 109.2 111.552 109.012 111.501 108.762L111.49 108.65H108.51C108.51 108.954 108.264 109.2 107.961 109.2H103.881C103.616 109.2 103.394 109.012 103.342 108.762L103.332 108.65H100.352C100.352 108.954 100.106 109.2 99.8023 109.2H95.7232C95.4575 109.2 95.2355 109.012 95.1842 108.762L95.1734 108.65H92.1939C92.1939 108.954 91.9479 109.2 91.6441 109.2H87.565C87.2993 109.2 87.0773 109.012 87.026 108.762L87.0152 108.65H84.0357C84.0357 108.954 83.7897 109.2 83.4859 109.2H79.4068C79.1411 109.2 78.9191 109.012 78.8678 108.762L78.857 108.65H75.8775C75.8775 108.954 75.6315 109.2 75.3277 109.2H71.2486C70.9829 109.2 70.7609 109.012 70.7095 108.762L70.6988 108.65H67.7193C67.7193 108.954 67.4733 109.2 67.1695 109.2H63.0904C62.8248 109.2 62.6027 109.012 62.5513 108.762L62.5406 108.65H59.5611C59.5611 108.954 59.3151 109.2 59.0113 109.2H54.9322C54.6666 109.2 54.4445 109.012 54.3931 108.762L54.3824 108.65H51.4029C51.4029 108.954 51.1569 109.2 50.8531 109.2H46.774C46.4703 109.2 46.2242 108.954 46.2242 108.65H43.2447C43.2447 108.954 42.9987 109.2 42.6949 109.2H38.6158C38.3122 109.2 38.066 108.954 38.066 108.65H35.0865C35.0865 108.954 34.8405 109.2 34.5367 109.2H30.4576C30.154 109.2 29.9078 108.954 29.9078 108.65H26.9293L26.9176 108.762C26.8662 109.012 26.6442 109.2 26.3785 109.2H22.2994C21.9958 109.2 21.7496 108.954 21.7496 108.65H18.7711L18.7594 108.762C18.708 109.012 18.486 109.2 18.2203 109.2H16.1812C15.298 109.2 14.4542 109.026 13.6842 108.708C13.4034 108.592 13.2695 108.27 13.3853 107.989C13.3887 107.981 13.3934 107.974 13.397 107.966C12.3282 107.405 11.4513 106.531 10.8873 105.467C10.8792 105.471 10.8722 105.477 10.8638 105.48C10.5835 105.597 10.262 105.465 10.1451 105.184M10.1451 105.184L10.6529 104.972L10.6519 104.973L10.1451 105.184Z" fill="#121829" stroke="white" stroke-width="1.1" stroke-linecap="round" stroke-linejoin="round" stroke-dasharray="4 4"/>
<path opacity="0.15" d="M43.6285 86.8433C42.7291 86.8433 42 87.637 42 88.6161V102.07C42 103.05 42.7291 103.843 43.6285 103.843H204.372C205.271 103.843 206 103.05 206 102.07V88.6161C206 87.637 205.271 86.8433 204.372 86.8433H43.6285Z" fill="white"/>
<path opacity="0.2" d="M17 86.3433H23.5L25.5 90.3433H33C34.385 90.3433 35.5 91.4583 35.5 92.8433V100.843C35.5 102.228 34.385 103.343 33 103.343H17C15.615 103.343 14.5 102.228 14.5 100.843V88.8433C14.5 87.4583 15.615 86.3433 17 86.3433Z" fill="#EEEEF0"/>
<path d="M17 85.8433C15.3467 85.8433 14 87.1899 14 88.8433V100.843C14 102.497 15.3467 103.843 17 103.843H33C34.6533 103.843 36 102.497 36 100.843V94.8433V92.8433V89.8433C36 88.1899 34.6533 86.8433 33 86.8433H24.3086L23.9473 86.1206C23.9059 86.0374 23.8421 85.9673 23.7631 85.9183C23.6841 85.8693 23.593 85.8433 23.5 85.8433H17ZM17 86.8433H23.1914L23.5371 87.5347L25.0527 90.5679C25.0944 90.6507 25.1583 90.7204 25.2373 90.769C25.3163 90.8177 25.4072 90.8434 25.5 90.8433H33C34.1166 90.8433 35 91.7266 35 92.8433V94.8433V100.843C35 101.96 34.1166 102.843 33 102.843H17C15.8834 102.843 15 101.96 15 100.843V90.8433H20.5C20.6326 90.8433 20.7598 90.7906 20.8536 90.6968C20.9473 90.6031 21 90.4759 21 90.3433C21 90.2107 20.9473 90.0835 20.8536 89.9897C20.7598 89.8959 20.6326 89.8433 20.5 89.8433H15V88.8433C15 87.7266 15.8834 86.8433 17 86.8433ZM24.8086 87.8433H33C34.1166 87.8433 35 88.7266 35 89.8433V90.6147C34.4683 90.1367 33.769 89.8433 33 89.8433H25.8086L24.8086 87.8433Z" fill="#EEEEF0"/>
<path d="M10.1969 47.9999C10.1969 44.7061 12.8761 42.036 16.1811 42.036H203.819C207.124 42.036 209.803 44.7061 209.803 47.9999V62.6866C209.803 65.9804 207.124 68.6505 203.819 68.6505H16.1811C12.8761 68.6505 10.1969 65.9804 10.1969 62.6866V47.9999Z" fill="#121829"/>
<path fill-rule="evenodd" clip-rule="evenodd" d="M16.1811 40.8433C12.2151 40.8433 9 44.0474 9 47.9999V62.6866C9 66.6391 12.2151 69.8433 16.1811 69.8433H203.819C207.785 69.8433 211 66.6391 211 62.6866V47.9999C211 44.0474 207.785 40.8433 203.819 40.8433H16.1811ZM203.819 42.036H16.1811C12.876 42.036 10.1969 44.7062 10.1969 47.9999V62.6866C10.1969 65.9804 12.876 68.6505 16.1811 68.6505H203.819C207.124 68.6505 209.803 65.9804 209.803 62.6866V47.9999C209.803 44.7062 207.124 42.036 203.819 42.036Z" fill="white"/>
<path opacity="0.15" d="M43.6285 46.8433C42.7291 46.8433 42 47.637 42 48.6161V62.0704C42 63.0495 42.7291 63.8433 43.6285 63.8433H204.372C205.271 63.8433 206 63.0495 206 62.0704V48.6161C206 47.637 205.271 46.8433 204.372 46.8433H43.6285Z" fill="white"/>
<path opacity="0.2" d="M17 46.3433H23.5L25.5 50.3433H33C34.385 50.3433 35.5 51.4583 35.5 52.8433V60.8433C35.5 62.2283 34.385 63.3433 33 63.3433H17C15.615 63.3433 14.5 62.2283 14.5 60.8433V48.8433C14.5 47.4583 15.615 46.3433 17 46.3433Z" fill="#EEEEF0"/>
<path d="M17 45.8433C15.3467 45.8433 14 47.1899 14 48.8433V60.8433C14 62.4966 15.3467 63.8433 17 63.8433H33C34.6533 63.8433 36 62.4966 36 60.8433V54.8433V52.8433V49.8433C36 48.1899 34.6533 46.8433 33 46.8433H24.3086L23.9473 46.1206C23.9059 46.0374 23.8421 45.9673 23.7631 45.9183C23.6841 45.8693 23.593 45.8433 23.5 45.8433H17ZM17 46.8433H23.1914L23.5371 47.5347L25.0527 50.5679C25.0944 50.6507 25.1583 50.7204 25.2373 50.769C25.3163 50.8177 25.4072 50.8434 25.5 50.8433H33C34.1166 50.8433 35 51.7266 35 52.8433V54.8433V60.8433C35 61.9599 34.1166 62.8433 33 62.8433H17C15.8834 62.8433 15 61.9599 15 60.8433V50.8433H20.5C20.6326 50.8433 20.7598 50.7906 20.8536 50.6968C20.9473 50.6031 21 50.4759 21 50.3433C21 50.2107 20.9473 50.0835 20.8536 49.9897C20.7598 49.8959 20.6326 49.8433 20.5 49.8433H15V48.8433C15 47.7266 15.8834 46.8433 17 46.8433ZM24.8086 47.8433H33C34.1166 47.8433 35 48.7266 35 49.8433V50.6147C34.4683 50.1367 33.769 49.8433 33 49.8433H25.8086L24.8086 47.8433Z" fill="#EEEEF0"/>
<path d="M10.1969 7.99987C10.1969 4.70612 12.8761 2.03601 16.1811 2.03601H203.819C207.124 2.03601 209.803 4.70612 209.803 7.99987V22.6866C209.803 25.9804 207.124 28.6505 203.819 28.6505H16.1811C12.8761 28.6505 10.1969 25.9804 10.1969 22.6866V7.99987Z" fill="#121829"/>
<path fill-rule="evenodd" clip-rule="evenodd" d="M16.1811 0.843262C12.2151 0.843262 9 4.04738 9 7.99989V22.6866C9 26.6391 12.2151 29.8433 16.1811 29.8433H203.819C207.785 29.8433 211 26.6391 211 22.6866V7.99989C211 4.04738 207.785 0.843262 203.819 0.843262H16.1811ZM203.819 2.03603H16.1811C12.876 2.03603 10.1969 4.70615 10.1969 7.99989V22.6866C10.1969 25.9804 12.876 28.6505 16.1811 28.6505H203.819C207.124 28.6505 209.803 25.9804 209.803 22.6866V7.99989C209.803 4.70615 207.124 2.03603 203.819 2.03603Z" fill="white"/>
<path opacity="0.15" d="M43.6285 6.84326C42.7291 6.84326 42 7.63698 42 8.61609V22.0704C42 23.0495 42.7291 23.8433 43.6285 23.8433H204.372C205.271 23.8433 206 23.0495 206 22.0704V8.61609C206 7.63698 205.271 6.84326 204.372 6.84326H43.6285Z" fill="white"/>
<path opacity="0.2" d="M17 6.34326H23.5L25.5 10.3433H33C34.385 10.3433 35.5 11.4583 35.5 12.8433V20.8433C35.5 22.2283 34.385 23.3433 33 23.3433H17C15.615 23.3433 14.5 22.2283 14.5 20.8433V8.84326C14.5 7.45826 15.615 6.34326 17 6.34326Z" fill="#EEEEF0"/>
<path d="M17 5.84326C15.3467 5.84326 14 7.18991 14 8.84326V20.8433C14 22.4966 15.3467 23.8433 17 23.8433H33C34.6533 23.8433 36 22.4966 36 20.8433V14.8433V12.8433V9.84326C36 8.18991 34.6533 6.84326 33 6.84326H24.3086L23.9473 6.12061C23.9059 6.03737 23.8421 5.96733 23.7631 5.91833C23.6841 5.86934 23.593 5.84335 23.5 5.84326H17ZM17 6.84326H23.1914L23.5371 7.53467L25.0527 10.5679C25.0944 10.6507 25.1583 10.7204 25.2373 10.769C25.3163 10.8177 25.4072 10.8434 25.5 10.8433H33C34.1166 10.8433 35 11.7266 35 12.8433V14.8433V20.8433C35 21.9599 34.1166 22.8433 33 22.8433H17C15.8834 22.8433 15 21.9599 15 20.8433V10.8433H20.5C20.6326 10.8433 20.7598 10.7906 20.8536 10.6968C20.9473 10.6031 21 10.4759 21 10.3433C21 10.2107 20.9473 10.0835 20.8536 9.98969C20.7598 9.89592 20.6326 9.84326 20.5 9.84326H15V8.84326C15 7.72661 15.8834 6.84326 17 6.84326ZM24.8086 7.84326H33C34.1166 7.84326 35 8.72661 35 9.84326V10.6147C34.4683 10.1367 33.769 9.84326 33 9.84326H25.8086L24.8086 7.84326Z" fill="#EEEEF0"/>
<path d="M2.5 32.8434C3.70952 32.8434 4.7186 33.7022 4.9502 34.8434H207.5C207.776 34.8434 208 35.0672 208 35.3434C208 35.6195 207.776 35.8434 207.5 35.8434H4.9502C4.71855 36.9845 3.70947 37.8434 2.5 37.8434C1.11931 37.8434 3.71086e-05 36.7241 0 35.3434C0 33.9627 1.11929 32.8434 2.5 32.8434Z" fill="#58C9FF"/>
<g opacity="0.7">
<path d="M121.197 30.9999C121.197 27.7061 123.876 25.036 127.181 25.036H314.819C318.124 25.036 320.803 27.7061 320.803 30.9999V45.6866C320.803 48.9804 318.124 51.6505 314.819 51.6505H127.181C123.876 51.6505 121.197 48.9804 121.197 45.6866V30.9999Z" fill="#121829"/>
<path fill-rule="evenodd" clip-rule="evenodd" d="M127.181 23.8433C123.215 23.8433 120 27.0474 120 30.9999V45.6866C120 49.6391 123.215 52.8433 127.181 52.8433H314.819C318.785 52.8433 322 49.6391 322 45.6866V30.9999C322 27.0474 318.785 23.8433 314.819 23.8433H127.181ZM314.819 25.036H127.181C123.876 25.036 121.197 27.7062 121.197 30.9999V45.6866C121.197 48.9804 123.876 51.6505 127.181 51.6505H314.819C318.124 51.6505 320.803 48.9804 320.803 45.6866V30.9999C320.803 27.7062 318.124 25.036 314.819 25.036Z" fill="white"/>
<path opacity="0.15" d="M154.628 29.8433C153.729 29.8433 153 30.637 153 31.6161V45.0704C153 46.0495 153.729 46.8433 154.628 46.8433H315.372C316.271 46.8433 317 46.0495 317 45.0704V31.6161C317 30.637 316.271 29.8433 315.372 29.8433H154.628Z" fill="white"/>
<path opacity="0.2" d="M128 29.3433H134.5L136.5 33.3433H144C145.385 33.3433 146.5 34.4583 146.5 35.8433V43.8433C146.5 45.2283 145.385 46.3433 144 46.3433H128C126.615 46.3433 125.5 45.2283 125.5 43.8433V31.8433C125.5 30.4583 126.615 29.3433 128 29.3433Z" fill="#EEEEF0"/>
<path d="M128 28.8433C126.347 28.8433 125 30.1899 125 31.8433V43.8433C125 45.4966 126.347 46.8433 128 46.8433H144C145.653 46.8433 147 45.4966 147 43.8433V37.8433V35.8433V32.8433C147 31.1899 145.653 29.8433 144 29.8433H135.309L134.947 29.1206C134.906 29.0374 134.842 28.9673 134.763 28.9183C134.684 28.8693 134.593 28.8433 134.5 28.8433H128ZM128 29.8433H134.191L134.537 30.5347L136.053 33.5679C136.094 33.6507 136.158 33.7204 136.237 33.769C136.316 33.8177 136.407 33.8434 136.5 33.8433H144C145.117 33.8433 146 34.7266 146 35.8433V37.8433V43.8433C146 44.9599 145.117 45.8433 144 45.8433H128C126.883 45.8433 126 44.9599 126 43.8433V33.8433H131.5C131.633 33.8433 131.76 33.7906 131.854 33.6968C131.947 33.6031 132 33.4759 132 33.3433C132 33.2107 131.947 33.0835 131.854 32.9897C131.76 32.8959 131.633 32.8433 131.5 32.8433H126V31.8433C126 30.7266 126.883 29.8433 128 29.8433ZM135.809 30.8433H144C145.117 30.8433 146 31.7266 146 32.8433V33.6147C145.468 33.1367 144.769 32.8433 144 32.8433H136.809L135.809 30.8433Z" fill="#EEEEF0"/>
</g>
<path d="M242.352 43.9487C242.692 43.7796 243.097 43.8164 243.4 44.0444L259.803 56.4058C260.147 56.6646 260.287 57.1142 260.15 57.522C260.014 57.9295 259.632 58.2044 259.202 58.2046H250.884C250.009 58.2046 249.191 58.5932 248.66 59.2437L243.573 65.4751C243.306 65.8027 242.861 65.9276 242.463 65.7856C242.064 65.6437 241.799 65.2661 241.799 64.8433V44.8433C241.799 44.4642 242.013 44.118 242.352 43.9487Z" fill="#333333" stroke="white" stroke-width="2" stroke-linejoin="round"/>
</svg>
