<svg width="290" height="145" viewBox="0 0 290 145" fill="none" xmlns="http://www.w3.org/2000/svg">
<rect x="1.9175" y="1.19092" width="177.198" height="103.618" rx="5" fill="#121829"/>
<path fill-rule="evenodd" clip-rule="evenodd" d="M0.5 7.14607C0.5 3.19939 4.30802 0 9.00549 0H172.027C176.725 0 180.533 3.19939 180.533 7.14607V98.8539C180.533 102.801 176.725 106 172.027 106H9.00549C4.30802 106 0.5 102.801 0.5 98.8539V7.14607ZM9.00549 1.19101H172.027C175.942 1.19101 179.115 3.85719 179.115 7.14607V98.8539C179.115 102.143 175.942 104.809 172.027 104.809H9.00549C5.09087 104.809 1.91758 102.143 1.91758 98.8539V7.14607C1.91758 3.85719 5.09087 1.19101 9.00549 1.19101Z" fill="white"/>
<path opacity="0.1" d="M1.9175 7.14597C1.9175 3.85709 5.09086 1.19092 9.0054 1.19092H172.027C175.942 1.19092 179.115 3.85709 179.115 7.14597V25H1.9175V7.14597Z" fill="white"/>
<path opacity="0.9" d="M1.68443 25H179.348V99C179.348 102.314 176.662 105 173.348 105H9.3832C5.82996 105 1.68443 102.336 1.68443 99.0506L1.68443 25Z" fill="white"/>
<g opacity="0.3">
<path d="M12.3443 7.19101C12.3443 6.53323 12.9789 6 13.7619 6H45.4522C46.2352 6 46.8698 6.53323 46.8698 7.19101V9.57303C46.8698 10.2308 46.2352 10.764 45.4522 10.764H13.7619C12.9789 10.764 12.3443 10.2308 12.3443 9.57303V7.19101Z" fill="white"/>
<path d="M137.893 7.19101C137.893 6.53323 138.528 6 139.311 6H171.001C171.784 6 172.419 6.53323 172.419 7.19101V9.57303C172.419 10.2308 171.784 10.764 171.001 10.764H139.311C138.528 10.764 137.893 10.2308 137.893 9.57303V7.19101Z" fill="white"/>
<path d="M12.3443 16.3371C12.3443 15.6793 12.9789 15.1461 13.7619 15.1461H170.89C171.672 15.1461 172.307 15.6793 172.307 16.3371V18.7191C172.307 19.3769 171.672 19.9101 170.89 19.9101H13.7619C12.9789 19.9101 12.3443 19.3769 12.3443 18.7191V16.3371Z" fill="white"/>
</g>
<g opacity="0.1">
<path d="M12.3443 35.191C12.3443 34.5332 12.9789 34 13.7618 34H45.4522C46.2352 34 46.8698 34.5332 46.8698 35.191V37.573C46.8698 38.2308 46.2352 38.764 45.4522 38.764H13.7618C12.9789 38.764 12.3443 38.2308 12.3443 37.573V35.191Z" fill="black"/>
<path d="M12.3443 42.3371C12.3443 41.6793 12.9789 41.1461 13.7618 41.1461H170.89C171.672 41.1461 172.307 41.6793 172.307 42.3371V44.7191C172.307 45.3769 171.672 45.9101 170.89 45.9101H13.7618C12.9789 45.9101 12.3443 45.3769 12.3443 44.7191V42.3371Z" fill="black"/>
<path d="M12.3443 56.1573C12.3443 55.4995 12.9789 54.9663 13.7618 54.9663H162.384C163.167 54.9663 163.802 55.4995 163.802 56.1573V58.5393C163.802 59.1971 163.167 59.7303 162.384 59.7303H13.7618C12.9789 59.7303 12.3443 59.1971 12.3443 58.5393V56.1573Z" fill="black"/>
<path d="M13.7618 62.1124C12.9789 62.1124 12.3443 62.6456 12.3443 63.3034V65.6854C12.3443 66.3432 12.9789 66.8764 13.7618 66.8764H138.285C139.068 66.8764 139.703 66.3432 139.703 65.6854V63.3034C139.703 62.6456 139.068 62.1124 138.285 62.1124H13.7618Z" fill="black"/>
<path d="M12.3443 70.4494C12.3443 69.7917 12.9789 69.2584 13.7618 69.2584H145.373C146.156 69.2584 146.791 69.7917 146.791 70.4494V72.8315C146.791 73.4892 146.156 74.0225 145.373 74.0225H13.7618C12.9789 74.0225 12.3443 73.4892 12.3443 72.8315V70.4494Z" fill="black"/>
<path d="M13.7618 76.4045C12.9789 76.4045 12.3443 76.9377 12.3443 77.5955V79.9775C12.3443 80.6353 12.9789 81.1685 13.7618 81.1685H168.054C168.837 81.1685 169.472 80.6353 169.472 79.9775V77.5955C169.472 76.9377 168.837 76.4045 168.054 76.4045H13.7618Z" fill="black"/>
<path d="M12.3443 94.2697C12.3443 93.6119 12.9789 93.0787 13.7618 93.0787H73.8971C74.68 93.0787 75.3147 93.6119 75.3147 94.2697V96.6517C75.3147 97.3095 74.68 97.8427 73.8971 97.8427H13.7618C12.9789 97.8427 12.3443 97.3095 12.3443 96.6517V94.2697Z" fill="black"/>
</g>
<rect x="110.885" y="40.1909" width="177.198" height="103.618" rx="5" fill="#121829"/>
<path fill-rule="evenodd" clip-rule="evenodd" d="M109.467 46.1461C109.467 42.1994 113.275 39 117.973 39H280.995C285.692 39 289.5 42.1994 289.5 46.1461V137.854C289.5 141.801 285.692 145 280.995 145H117.973C113.275 145 109.467 141.801 109.467 137.854V46.1461ZM117.973 40.191H280.995C284.909 40.191 288.082 42.8572 288.082 46.1461V137.854C288.082 141.143 284.909 143.809 280.995 143.809H117.973C114.058 143.809 110.885 141.143 110.885 137.854V46.1461C110.885 42.8572 114.058 40.191 117.973 40.191Z" fill="white"/>
<path opacity="0.15" d="M110.885 46.146C110.885 42.8571 114.058 40.1909 117.973 40.1909H280.994C284.909 40.1909 288.082 42.8571 288.082 46.146V66H110.885V46.146Z" fill="white"/>
<path opacity="0.05" d="M110.652 66H288.316V138C288.316 141.314 285.629 144 282.316 144H118.35C114.797 144 110.652 141.336 110.652 138.051L110.652 66Z" fill="white"/>
<path d="M159.176 131.479C160.188 131.479 161.193 132.187 161.193 133.27V135.651C161.193 136.734 160.188 137.442 159.176 137.442H122.729C121.717 137.442 120.712 136.734 120.712 135.651V133.27C120.712 132.187 121.717 131.479 122.729 131.479H159.176ZM277.021 116.805C278.034 116.805 279.039 117.513 279.039 118.596V120.978C279.039 122.06 278.034 122.769 277.021 122.769H122.729C121.717 122.769 120.712 122.06 120.712 120.978V118.596C120.712 117.513 121.717 116.805 122.729 116.805H277.021ZM254.34 106.658C255.352 106.658 256.357 107.367 256.357 108.449V110.831C256.357 111.914 255.352 112.622 254.34 112.622H122.729C121.717 112.622 120.712 111.914 120.712 110.831V108.449C120.712 107.367 121.717 106.658 122.729 106.658H254.34ZM247.252 96.5127C248.264 96.5127 249.269 97.2209 249.269 98.3037V100.686C249.269 101.768 248.264 102.477 247.252 102.477H122.729C121.717 102.477 120.712 101.768 120.712 100.686V98.3037C120.712 97.2209 121.717 96.5127 122.729 96.5127H247.252ZM271.352 86.3662C272.364 86.3663 273.369 87.0746 273.369 88.1572V90.5391C273.369 91.6218 272.364 92.33 271.352 92.3301H122.729C121.717 92.3301 120.712 91.6219 120.712 90.5391V88.1572C120.712 87.0745 121.717 86.3662 122.729 86.3662H271.352ZM178.108 72.4004C179.12 72.4006 180.126 73.1087 180.126 74.1914V76.5732C180.126 77.6558 179.12 78.3641 178.108 78.3643H122.729C121.717 78.3643 120.712 77.6559 120.712 76.5732V74.1914C120.712 73.1086 121.717 72.4004 122.729 72.4004H178.108ZM279.856 54.5459C280.868 54.5459 281.874 55.2542 281.874 56.3369V58.7188C281.874 59.8015 280.869 60.5098 279.856 60.5098H122.729C121.717 60.5098 120.712 59.8016 120.712 58.7188V56.3369C120.712 55.2542 121.717 54.5459 122.729 54.5459H279.856ZM154.42 44.4004C155.432 44.4006 156.437 45.1088 156.437 46.1914V48.5732C156.437 49.6558 155.432 50.3641 154.42 50.3643H122.729C121.717 50.3643 120.712 49.6559 120.712 48.5732V46.1914C120.712 45.1086 121.717 44.4004 122.729 44.4004H154.42ZM279.969 44.4004C280.981 44.4004 281.986 45.1086 281.986 46.1914V48.5732C281.986 49.6559 280.981 50.3642 279.969 50.3643H248.278C247.266 50.3643 246.261 49.6559 246.261 48.5732V46.1914C246.261 45.1086 247.266 44.4004 248.278 44.4004H279.969Z" stroke="white" stroke-width="1.2"/>
</svg>
