<svg width="290" height="123" viewBox="0 0 290 123" fill="none" xmlns="http://www.w3.org/2000/svg">
<g opacity="0.5">
<path d="M194.917 0.871826C198.524 0.871843 201.451 3.78624 201.451 7.3855V62.072C201.451 65.6713 198.524 68.5857 194.917 68.5857H7.27962C3.67262 68.5857 0.745438 65.6713 0.745438 62.072V7.3855C0.745438 3.78623 3.67262 0.871826 7.27962 0.871826H194.917Z" fill="#1E2434" stroke="white" stroke-width="1.1" stroke-linecap="round" stroke-linejoin="round"/>
<path d="M192.47 39.7288C193.684 39.7288 194.598 40.787 194.598 42.0012V59.4563C194.598 60.6706 193.684 61.7288 192.47 61.7288H136.727C135.513 61.7288 134.599 60.6706 134.598 59.4563V42.0012C134.599 40.787 135.513 39.7288 136.727 39.7288H192.47Z" fill="#353A49" stroke="white"/>
<path d="M128.47 39.7288C129.684 39.7288 130.598 40.787 130.598 42.0012V59.4563C130.598 60.6706 129.684 61.7288 128.47 61.7288H72.7274C71.5128 61.7288 70.5986 60.6706 70.5984 59.4563V42.0012C70.5986 40.787 71.5128 39.7288 72.7274 39.7288H128.47Z" fill="#353A49" stroke="white"/>
<path d="M64.4696 39.7288C65.6841 39.7288 66.5983 40.787 66.5985 42.0012V59.4563C66.5983 60.6706 65.6841 61.7288 64.4696 61.7288H8.72737C7.51284 61.7288 6.59865 60.6706 6.59846 59.4563V42.0012C6.59865 40.787 7.51284 39.7288 8.72737 39.7288H64.4696Z" fill="#353A49" stroke="white"/>
<path opacity="0.15" d="M28.7269 8.22876C27.8276 8.22876 27.0985 9.02248 27.0985 10.0016V20.4559C27.0985 21.435 27.8276 22.2288 28.7269 22.2288H192.47C193.369 22.2288 194.098 21.435 194.098 20.4559V10.0016C194.098 9.02248 193.369 8.22876 192.47 8.22876H28.7269Z" fill="white"/>
<path opacity="0.2" d="M9.09846 9.72876H19.0985C19.9295 9.72876 20.5985 10.3978 20.5985 11.2288V18.2288C20.5985 19.0598 19.9295 19.7288 19.0985 19.7288H9.09846C8.26746 19.7288 7.59846 19.0598 7.59846 18.2288V11.2288C7.59846 10.3978 8.26746 9.72876 9.09846 9.72876Z" fill="#EEEEF0"/>
<path d="M9.09846 9.22876C7.9939 9.22876 7.09846 10.1242 7.09846 11.2288V18.2288C7.09846 19.3334 7.9939 20.2288 9.09846 20.2288H19.0985C20.2031 20.2288 21.0985 19.3334 21.0985 18.2288V11.2288C21.0985 10.1242 20.2031 9.22876 19.0985 9.22876H9.09846ZM9.09846 10.2288H19.0985C19.6508 10.2288 20.0985 10.6765 20.0985 11.2288V18.2288C20.0985 18.7811 19.6508 19.2288 19.0985 19.2288H9.09846C8.54619 19.2288 8.09846 18.7811 8.09846 18.2288V11.2288C8.09846 10.6765 8.54619 10.2288 9.09846 10.2288ZM9.56917 11.2288C9.44143 11.2363 9.31715 11.2935 9.22542 11.3967C9.04196 11.6031 9.06004 11.9183 9.26643 12.1018L12.0457 14.5745L9.24495 17.3752C9.04969 17.5704 9.04969 17.887 9.24495 18.0823C9.44021 18.2775 9.75672 18.2775 9.95198 18.0823L12.7957 15.2385L13.7664 16.1018C13.9559 16.2702 14.241 16.2702 14.4305 16.1018L15.4012 15.2385L18.2449 18.0823C18.4401 18.2775 18.7567 18.2775 18.952 18.0823C19.1472 17.887 19.1472 17.5704 18.952 17.3752L16.1512 14.5745L18.9305 12.1018C19.1369 11.9183 19.155 11.6031 18.9715 11.3967C18.7881 11.1903 18.4728 11.1723 18.2664 11.3557L14.0985 15.0588L9.9305 11.3557C9.8273 11.264 9.69691 11.2212 9.56917 11.2288Z" fill="#EEEEF0"/>
</g>
<g opacity="0.8">
<path d="M243.721 27.679C247.327 27.679 250.255 30.5934 250.255 34.1926V88.8792C250.255 92.4784 247.327 95.3928 243.721 95.3928H56.0828C52.4758 95.3928 49.5486 92.4784 49.5486 88.8792V34.1926C49.5486 30.5934 52.4758 27.679 56.0828 27.679H243.721Z" fill="#1E2434" stroke="white" stroke-width="1.1" stroke-linecap="round" stroke-linejoin="round"/>
<path d="M241.273 66.5359C242.487 66.5359 243.401 67.5941 243.402 68.8083V86.2634C243.401 87.4777 242.487 88.5359 241.273 88.5359H185.531C184.316 88.5359 183.402 87.4777 183.402 86.2634V68.8083C183.402 67.5941 184.316 66.5359 185.531 66.5359H241.273Z" fill="#353A49" stroke="white"/>
<path d="M177.273 66.5359C178.487 66.5359 179.401 67.5941 179.402 68.8083V86.2634C179.401 87.4777 178.487 88.5359 177.273 88.5359H121.531C120.316 88.5359 119.402 87.4777 119.402 86.2634V68.8083C119.402 67.5941 120.316 66.5359 121.531 66.5359H177.273Z" fill="#353A49" stroke="white"/>
<path d="M113.273 66.5359C114.487 66.5359 115.401 67.5941 115.402 68.8083V86.2634C115.401 87.4777 114.487 88.5359 113.273 88.5359H57.5306C56.3161 88.5359 55.4019 87.4777 55.4017 86.2634V68.8083C55.4019 67.5941 56.3161 66.5359 57.5306 66.5359H113.273Z" fill="#353A49" stroke="white"/>
<path opacity="0.15" d="M77.5301 35.0359C76.6308 35.0359 75.9017 35.8296 75.9017 36.8087V47.2631C75.9017 48.2422 76.6308 49.0359 77.5301 49.0359H241.273C242.173 49.0359 242.902 48.2422 242.902 47.2631V36.8087C242.902 35.8296 242.173 35.0359 241.273 35.0359H77.5301Z" fill="white"/>
<path opacity="0.2" d="M57.9017 36.5359H67.9017C68.7327 36.5359 69.4017 37.2049 69.4017 38.0359V45.0359C69.4017 45.8669 68.7327 46.5359 67.9017 46.5359H57.9017C57.0707 46.5359 56.4017 45.8669 56.4017 45.0359V38.0359C56.4017 37.2049 57.0707 36.5359 57.9017 36.5359Z" fill="#EEEEF0"/>
<path d="M57.9017 36.0359C56.7971 36.0359 55.9017 36.9313 55.9017 38.0359V45.0359C55.9017 46.1405 56.7971 47.0359 57.9017 47.0359H67.9017C69.0063 47.0359 69.9017 46.1405 69.9017 45.0359V38.0359C69.9017 36.9313 69.0063 36.0359 67.9017 36.0359H57.9017ZM57.9017 37.0359H67.9017C68.454 37.0359 68.9017 37.4836 68.9017 38.0359V45.0359C68.9017 45.5882 68.454 46.0359 67.9017 46.0359H57.9017C57.3494 46.0359 56.9017 45.5882 56.9017 45.0359V38.0359C56.9017 37.4836 57.3494 37.0359 57.9017 37.0359ZM58.3724 38.0359C58.2446 38.0434 58.1204 38.1007 58.0286 38.2039C57.8452 38.4102 57.8633 38.7255 58.0696 38.9089L60.8489 41.3816L58.0482 44.1824C57.8529 44.3776 57.8529 44.6941 58.0482 44.8894C58.2434 45.0846 58.5599 45.0846 58.7552 44.8894L61.5989 42.0457L62.5696 42.9089C62.7591 43.0773 63.0443 43.0773 63.2337 42.9089L64.2044 42.0457L67.0482 44.8894C67.2434 45.0846 67.5599 45.0846 67.7552 44.8894C67.9504 44.6941 67.9504 44.3776 67.7552 44.1824L64.9544 41.3816L67.7337 38.9089C67.9401 38.7255 67.9582 38.4102 67.7747 38.2039C67.5913 37.9975 67.276 37.9794 67.0696 38.1628L62.9017 41.866L58.7337 38.1628C58.6305 38.0711 58.5001 38.0284 58.3724 38.0359Z" fill="#EEEEF0"/>
</g>
<path d="M282.721 54.679C286.327 54.679 289.255 57.5934 289.255 61.1926V115.879C289.255 119.478 286.327 122.393 282.721 122.393H95.0828C91.4758 122.393 88.5486 119.478 88.5486 115.879V61.1926C88.5486 57.5934 91.4758 54.679 95.0828 54.679H282.721Z" fill="#1E2434" stroke="white" stroke-width="1.1" stroke-linecap="round" stroke-linejoin="round"/>
<path d="M280.273 93.5359C281.487 93.5359 282.401 94.5941 282.402 95.8083V113.263C282.401 114.478 281.487 115.536 280.273 115.536H224.531C223.316 115.536 222.402 114.478 222.402 113.263V95.8083C222.402 94.5941 223.316 93.5359 224.531 93.5359H280.273Z" fill="#353A49" stroke="white"/>
<path d="M216.273 93.5359C217.487 93.5359 218.401 94.5941 218.402 95.8083V113.263C218.401 114.478 217.487 115.536 216.273 115.536H160.531C159.316 115.536 158.402 114.478 158.402 113.263V95.8083C158.402 94.5941 159.316 93.5359 160.531 93.5359H216.273Z" fill="#353A49" stroke="white"/>
<path d="M152.273 93.5359C153.487 93.5359 154.401 94.5941 154.402 95.8083V113.263C154.401 114.478 153.487 115.536 152.273 115.536H96.5306C95.3161 115.536 94.4019 114.478 94.4017 113.263V95.8083C94.4019 94.5941 95.3161 93.5359 96.5306 93.5359H152.273Z" fill="#353A49" stroke="white"/>
<path opacity="0.15" d="M116.53 62.0359C115.631 62.0359 114.902 62.8296 114.902 63.8087V74.2631C114.902 75.2422 115.631 76.0359 116.53 76.0359H280.273C281.173 76.0359 281.902 75.2422 281.902 74.2631V63.8087C281.902 62.8296 281.173 62.0359 280.273 62.0359H116.53Z" fill="white"/>
<path opacity="0.2" d="M96.9017 63.5359H106.902C107.733 63.5359 108.402 64.2049 108.402 65.0359V72.0359C108.402 72.8669 107.733 73.5359 106.902 73.5359H96.9017C96.0707 73.5359 95.4017 72.8669 95.4017 72.0359V65.0359C95.4017 64.2049 96.0707 63.5359 96.9017 63.5359Z" fill="#EEEEF0"/>
<path d="M96.9017 63.0359C95.7971 63.0359 94.9017 63.9313 94.9017 65.0359V72.0359C94.9017 73.1405 95.7971 74.0359 96.9017 74.0359H106.902C108.006 74.0359 108.902 73.1405 108.902 72.0359V65.0359C108.902 63.9313 108.006 63.0359 106.902 63.0359H96.9017ZM96.9017 64.0359H106.902C107.454 64.0359 107.902 64.4836 107.902 65.0359V72.0359C107.902 72.5882 107.454 73.0359 106.902 73.0359H96.9017C96.3494 73.0359 95.9017 72.5882 95.9017 72.0359V65.0359C95.9017 64.4836 96.3494 64.0359 96.9017 64.0359ZM97.3724 65.0359C97.2446 65.0434 97.1204 65.1007 97.0286 65.2039C96.8452 65.4102 96.8633 65.7255 97.0696 65.9089L99.8489 68.3816L97.0482 71.1824C96.8529 71.3776 96.8529 71.6941 97.0482 71.8894C97.2434 72.0846 97.5599 72.0846 97.7552 71.8894L100.599 69.0457L101.57 69.9089C101.759 70.0773 102.044 70.0773 102.234 69.9089L103.204 69.0457L106.048 71.8894C106.243 72.0846 106.56 72.0846 106.755 71.8894C106.95 71.6941 106.95 71.3776 106.755 71.1824L103.954 68.3816L106.734 65.9089C106.94 65.7255 106.958 65.4102 106.775 65.2039C106.591 64.9975 106.276 64.9794 106.07 65.1628L101.902 68.866L97.7337 65.1628C97.6305 65.0711 97.5001 65.0284 97.3724 65.0359Z" fill="#EEEEF0"/>
<g opacity="0.5">
<path opacity="0.2" d="M120.63 100.653C120.058 100.653 119.596 101.114 119.596 101.69V102.383C119.596 102.575 119.75 102.729 119.94 102.729H120.567L120.598 107.729C120.602 108.304 121.026 108.729 121.598 108.729H125.598C126.17 108.729 126.598 108.304 126.598 107.729V102.729H127.317C127.508 102.729 127.663 102.575 127.663 102.383V101.69C127.663 101.114 127.202 100.653 126.63 100.653H120.63Z" fill="#EEEEF0"/>
<path d="M123.098 99.2288C122.747 99.2288 122.397 99.3862 122.237 99.6448C122.11 99.8506 122.098 100.112 122.098 100.229H120.63C119.79 100.229 119.098 100.847 119.098 101.692V102.383C119.098 102.844 119.482 103.229 119.94 103.229H120.071L120.098 107.733C120.104 108.554 120.781 109.231 121.598 109.231H125.598C126.416 109.231 127.096 108.554 127.096 107.729V103.229H127.317C127.775 103.229 128.098 102.844 128.098 102.383V101.692C128.098 100.847 127.469 100.229 126.63 100.229H125.098C125.099 100.112 125.087 99.8506 124.96 99.6448C124.8 99.3862 124.45 99.2288 124.098 99.2288H123.098ZM120.63 101.229H126.63C126.934 101.229 127.098 101.385 127.098 101.692V102.227H127.03H126.598H120.095V101.692C120.095 101.385 120.325 101.229 120.63 101.229ZM121.069 103.231H126.098V107.729C126.098 108.054 125.925 108.227 125.598 108.227H121.598C121.272 108.227 121.099 108.054 121.096 107.725L121.069 103.231ZM122.598 104.227C122.323 104.227 122.1 104.452 122.1 104.729V106.729C122.1 107.006 122.323 107.23 122.598 107.231C122.874 107.23 123.097 107.006 123.096 106.729V104.729C123.097 104.452 122.874 104.227 122.598 104.227ZM124.598 104.227C124.323 104.227 124.1 104.452 124.1 104.729V106.729C124.1 107.006 124.323 107.23 124.598 107.231C124.874 107.23 125.097 107.006 125.096 106.729V104.729C125.097 104.452 124.874 104.227 124.598 104.227Z" fill="#EEEEF0"/>
</g>
<g opacity="0.5">
<path opacity="0.2" d="M187.098 99.7288C186.267 99.7288 185.598 100.398 185.598 101.229V107.229C185.598 108.06 186.267 108.729 187.098 108.729H193.098C193.929 108.729 194.598 108.06 194.598 107.229V101.229C194.598 100.398 193.929 99.7288 193.098 99.7288H187.098ZM187.598 101.729H192.598V103.729H191.514C191.31 104.313 190.754 104.729 190.098 104.729C189.443 104.729 188.887 104.313 188.682 103.729H187.598V101.729Z" fill="#EEEEF0"/>
<path d="M187.098 99.2288C185.999 99.2288 185.098 100.129 185.098 101.229V107.229C185.098 108.328 185.999 109.229 187.098 109.229H193.098C194.198 109.229 195.098 108.328 195.098 107.229V101.229C195.098 100.129 194.198 99.2288 193.098 99.2288H187.098ZM187.098 100.229H193.098C193.661 100.229 194.098 100.666 194.098 101.229V103.229H193.098V101.729C193.098 101.453 192.875 101.229 192.598 101.229H187.598C187.322 101.229 187.098 101.453 187.098 101.729V103.229H186.098V101.229C186.098 100.666 186.536 100.229 187.098 100.229ZM188.098 102.229H192.098V103.229H191.598H191.514C191.302 103.228 191.112 103.362 191.042 103.563C190.906 103.95 190.543 104.229 190.098 104.229C189.654 104.229 189.291 103.95 189.155 103.563C189.085 103.362 188.895 103.228 188.682 103.229H188.598H188.098V102.229ZM186.098 104.229H187.598H188.216C188.333 104.472 188.529 104.674 188.753 104.828C189.084 105.057 189.503 105.2 189.966 105.223C190.01 105.225 190.054 105.229 190.098 105.229C190.143 105.229 190.188 105.226 190.231 105.223C190.694 105.2 191.113 105.057 191.444 104.828C191.668 104.674 191.863 104.472 191.981 104.229H192.598H194.098V107.229C194.098 107.791 193.661 108.229 193.098 108.229H190.098V107.229H189.098V108.229H187.098C186.536 108.229 186.098 107.791 186.098 107.229V104.229ZM190.098 107.229H191.098V106.229H190.098V107.229ZM190.098 106.229V105.229H189.098V106.229H190.098Z" fill="#EEEEF0"/>
</g>
<g opacity="0.5">
<path opacity="0.2" fill-rule="evenodd" clip-rule="evenodd" d="M251.098 103.729C249.598 103.729 249.598 101.729 249.598 101.729C249.006 102.368 248.598 103.729 248.598 105.229C248.598 107.229 249.727 108.097 250.598 108.729C250.598 107.729 251.098 106.729 252.098 106.729C253.098 106.729 253.598 107.729 253.598 108.729C254.47 108.097 255.598 106.729 255.598 104.229C255.598 101.729 253.598 99.7288 251.598 99.7288C252.939 101.267 253.098 103.729 251.098 103.729Z" fill="#EEEEF0"/>
<path fill-rule="evenodd" clip-rule="evenodd" d="M251.598 99.2286C251.503 99.2287 251.409 99.2564 251.328 99.3083C251.247 99.3602 251.183 99.4343 251.144 99.5215C251.104 99.6088 251.09 99.7056 251.104 99.8005C251.118 99.8954 251.159 99.9844 251.221 100.057C251.811 100.734 252.136 101.648 252.102 102.279C252.086 102.595 251.992 102.824 251.848 102.973C251.705 103.122 251.496 103.229 251.098 103.229C250.835 103.229 250.692 103.157 250.563 103.043C250.435 102.929 250.329 102.752 250.255 102.553C250.106 102.155 250.098 101.729 250.098 101.729C250.099 101.628 250.068 101.53 250.012 101.447C249.955 101.364 249.875 101.299 249.781 101.263C249.687 101.226 249.585 101.218 249.487 101.241C249.389 101.263 249.3 101.315 249.231 101.389C248.476 102.203 248.098 103.638 248.098 105.229C248.098 107.417 249.424 108.494 250.305 109.133C250.38 109.187 250.468 109.219 250.56 109.226C250.652 109.233 250.744 109.215 250.826 109.173C250.908 109.131 250.976 109.068 251.025 108.989C251.073 108.911 251.098 108.821 251.098 108.729C251.098 108.312 251.211 107.899 251.389 107.631C251.568 107.363 251.765 107.229 252.098 107.229C252.432 107.229 252.629 107.363 252.807 107.631C252.986 107.899 253.098 108.312 253.098 108.729C253.099 108.821 253.124 108.911 253.172 108.989C253.221 109.068 253.289 109.131 253.371 109.173C253.453 109.215 253.545 109.233 253.637 109.226C253.729 109.219 253.817 109.187 253.891 109.133C254.875 108.421 256.098 106.879 256.098 104.229C256.098 101.462 253.932 99.2286 251.598 99.2286ZM252.636 100.486C253.943 101.023 255.098 102.459 255.098 104.229C255.098 106.067 254.458 107.058 253.819 107.727C253.747 107.511 253.766 107.266 253.639 107.076C253.318 106.595 252.765 106.229 252.098 106.229C251.432 106.229 250.879 106.595 250.557 107.076C250.41 107.297 250.421 107.578 250.346 107.832C249.692 107.292 249.098 106.636 249.098 105.229C249.098 104.422 249.253 103.711 249.456 103.115C249.567 103.349 249.676 103.591 249.899 103.789C250.193 104.05 250.612 104.229 251.098 104.229C251.701 104.229 252.222 104.027 252.569 103.666C252.917 103.305 253.074 102.824 253.1 102.332C253.132 101.725 252.932 101.095 252.636 100.486Z" fill="#EEEEF0"/>
</g>
</svg>
