<svg width="1280" height="2232" viewBox="0 0 1280 2232" fill="none" xmlns="http://www.w3.org/2000/svg">
<g clip-path="url(#clip0_2228_623)">
<path d="M1698 -71H-370V2276H1698V-71Z" fill="#1E467F"/>
<rect width="1280" height="2232" fill="url(#paint0_radial_2228_623)"/>
<path d="M167.046 -0.126953C122.175 80.9911 177.013 174.971 216.954 258.626C292.45 416.748 397.079 560.895 524.012 681.677C617.784 770.904 727.212 852.389 777.156 971.808C819.87 1073.96 812.213 1191.63 778.293 1297.03C714.483 1495.3 566.975 1653.21 430.394 1810.45C293.813 1967.69 159.153 2142.16 131.159 2348.56C127.71 2374 126.892 2402.75 143.769 2422.08C161.085 2441.91 190.43 2444.55 216.729 2445.78C351.532 2452.06 486.335 2458.33 621.138 2464.61C505.879 2329.11 472.231 2115.49 577.037 1971.74C644.747 1878.88 754.898 1829.02 858.364 1779.01C1018.44 1701.63 1177.72 1611.73 1292.07 1475.56C1406.41 1339.39 1468.75 1147.68 1410.91 979.525C1329.87 743.912 1050.42 626.674 953.322 397.225C917.339 312.195 924.569 232.298 984.302 161.896C1059.36 73.4163 1201.19 76.3917 1288.34 -0.126953" fill="url(#paint1_radial_2228_623)"/>
<path d="M1006.54 -0.126953C1046.45 81.0148 997.671 175.042 962.139 258.721C894.975 416.903 801.902 561.109 688.99 681.938C605.576 771.2 508.225 852.709 463.793 972.175C425.796 1074.36 432.61 1192.08 462.785 1297.51C519.556 1495.87 650.767 1653.84 772.273 1811.13C893.778 1968.42 1013.56 2142.95 1038.47 2349.44C1041.53 2374.89 1042.27 2403.64 1027.25 2422.98C1011.86 2442.83 985.736 2445.46 962.353 2446.68C842.436 2452.96 722.507 2459.25 602.59 2465.53C705.12 2329.98 735.058 2116.27 641.819 1972.47C581.588 1879.56 483.597 1829.68 391.556 1779.66C249.156 1702.25 107.455 1612.32 5.74232 1476.1C-95.9703 1339.87 -151.425 1148.08 -99.9762 979.869C-27.8814 744.173 220.699 626.887 307.099 397.343C339.111 312.278 332.676 232.345 279.544 161.931C212.735 73.44 86.5601 76.4154 9.04898 -0.126953" fill="url(#paint2_radial_2228_623)"/>
<path d="M1244.73 -30.3787C1313.85 155.032 1275.74 351.491 1172.17 530.809C1068.59 710.127 901.991 873.679 713.784 1025.1C572.225 1139 414.963 1249.93 336.611 1384.7C258.258 1519.47 279.366 1688.14 456.646 1781.51C547.419 1829.3 669.885 1853.19 748.32 1908.55C841.345 1974.21 851.574 2068.27 857.298 2155.06C859.242 2184.57 858.068 2218.63 820.735 2237.39C792.895 2251.39 753.665 2252.06 717.624 2252.07C569.488 2252.11 421.363 2252.14 273.227 2252.18C281.085 2227.61 314.009 2206.74 349.754 2201.77C447.757 2133.36 478.809 2036 459.882 1945.82C440.954 1855.63 377.037 1771.27 303.639 1692.19C233.203 1616.28 151.011 1539.47 142.631 1452.36C132.083 1342.71 240.824 1242.78 357.055 1159.01C473.286 1075.24 605.648 993.987 659.194 889.137C739.431 732.022 623.662 564.594 500.486 418.23C377.322 271.843 239.876 115.534 276.285 -47.5435" fill="url(#paint3_radial_2228_623)"/>
<path d="M482.567 -216.43C435.977 -31.0188 461.672 165.44 531.467 344.758C601.275 524.076 713.559 687.628 840.398 839.053C935.805 952.948 1041.78 1063.88 1094.6 1198.65C1147.41 1333.42 1133.17 1502.09 1013.7 1595.46C952.516 1643.25 869.98 1667.14 817.121 1722.5C754.424 1788.16 747.538 1882.22 743.675 1969C742.359 1998.52 743.153 2032.58 768.315 2051.34C787.076 2065.34 813.518 2066.01 837.802 2066.02C937.642 2066.05 1037.47 2066.09 1137.31 2066.13C1132.01 2041.56 1109.83 2020.69 1085.73 2015.72C1019.68 1947.31 998.75 1849.95 1011.51 1759.77C1024.27 1669.58 1067.35 1585.21 1116.81 1506.13C1164.27 1430.23 1219.67 1353.42 1225.32 1266.31C1232.43 1156.66 1159.14 1056.73 1080.81 972.958C1002.48 889.185 913.263 807.936 877.186 703.086C823.106 545.971 901.127 378.543 984.149 232.179C1067.16 85.8159 1159.79 -70.4931 1135.26 -233.571" fill="url(#paint4_radial_2228_623)"/>
<path d="M759.409 -49.1729C854.532 66.1681 868.647 227.776 836.505 371.733C804.363 515.678 731.628 647.639 666.301 780.773C600.961 913.919 541.37 1054.28 538.644 1201.5C535.444 1374.33 610.443 1538.23 674.407 1699.77C738.372 1861.32 793.056 2037.44 748.41 2204.89C781.145 2051.91 731.77 1892.82 658.549 1753.43C585.317 1614.04 488.357 1487.12 415.812 1347.39C343.267 1207.67 295.421 1047.89 330.395 895.379C378.218 686.793 573.548 518.393 572.552 304.793C571.877 161.274 480.357 32.7986 377.601 -71.1268V-69.3606" fill="url(#paint5_radial_2228_623)" fill-opacity="0.4"/>
<path d="M519.99 -49.1729C424.867 66.1681 410.751 227.776 442.893 371.733C475.036 515.678 547.77 647.639 613.098 780.773C678.437 913.919 738.028 1054.28 740.754 1201.5C743.954 1374.33 668.956 1538.23 604.991 1699.77C541.027 1861.32 486.342 2037.44 530.988 2204.89C498.253 2051.91 547.628 1892.82 620.849 1753.43C694.082 1614.04 791.042 1487.12 863.587 1347.39C936.132 1207.67 983.978 1047.89 949.003 895.379C901.181 686.793 705.85 518.393 706.846 304.793C707.522 161.274 799.042 32.7986 901.797 -71.1268V-69.3606" fill="url(#paint6_radial_2228_623)" fill-opacity="0.4"/>
<path d="M1775 -1077.48C1586.52 -493.319 1306.44 44.2077 926.005 366.878C545.572 689.549 56.3986 769.872 -335.27 477.869C-544.561 321.844 -716.864 69.3623 -843.11 -221.93C-969.356 -513.223 -1051.28 -842.555 -1105 -1179C-1005.03 -771.406 -846.073 -388.695 -620.899 -109.885C-395.714 168.925 -100.757 336.65 192.47 303.245C485.708 269.828 771.03 19.8356 903.403 -367.191C966.408 -551.381 993.287 -774.714 989.519 -965.744C977.679 -1001.21 965.85 -1036.69 954.01 -1072.16" fill="url(#paint7_radial_2228_623)"/>
<rect width="1280" height="2232" fill="url(#paint8_radial_2228_623)"/>
</g>
<defs>
<radialGradient id="paint0_radial_2228_623" cx="0" cy="0" r="1" gradientUnits="userSpaceOnUse" gradientTransform="translate(640 1116) rotate(90) scale(1116 640)">
<stop offset="0.937036" stop-color="#19518F"/>
<stop offset="1" stop-color="#1E467F"/>
</radialGradient>
<radialGradient id="paint1_radial_2228_623" cx="0" cy="0" r="1" gradientUnits="userSpaceOnUse" gradientTransform="translate(895.97 780.162) rotate(90) scale(1045.71 1045.92)">
<stop offset="0.31" stop-color="#273B6B"/>
<stop offset="1" stop-color="#19518F" stop-opacity="0"/>
</radialGradient>
<radialGradient id="paint2_radial_2228_623" cx="0" cy="0" r="1" gradientUnits="userSpaceOnUse" gradientTransform="translate(357.698 549.873) rotate(89.97) scale(1292 1451.97)">
<stop offset="0.09" stop-color="#26396A"/>
<stop offset="1" stop-color="#19518F" stop-opacity="0"/>
</radialGradient>
<radialGradient id="paint3_radial_2228_623" cx="0" cy="0" r="1" gradientUnits="userSpaceOnUse" gradientTransform="translate(985.698 787.873) rotate(129.197) scale(1398.75 853.951)">
<stop offset="0.787871" stop-color="#1F467E"/>
<stop offset="0.970661" stop-color="#19518F" stop-opacity="0"/>
</radialGradient>
<radialGradient id="paint4_radial_2228_623" cx="0" cy="0" r="1" gradientUnits="userSpaceOnUse" gradientTransform="translate(889.699 1925.87) rotate(-79.6952) scale(1162.76 1051.16)">
<stop stop-color="#19518F" stop-opacity="0"/>
<stop offset="0.36" stop-color="#263A6B"/>
</radialGradient>
<radialGradient id="paint5_radial_2228_623" cx="0" cy="0" r="1" gradientUnits="userSpaceOnUse" gradientTransform="translate(513.397 816.333) rotate(105.195) scale(1007.21 968.288)">
<stop offset="0.16" stop-color="#58C9FF"/>
<stop offset="1" stop-color="#27456F" stop-opacity="0"/>
</radialGradient>
<radialGradient id="paint6_radial_2228_623" cx="0" cy="0" r="1" gradientUnits="userSpaceOnUse" gradientTransform="translate(766.002 816.333) rotate(74.8048) scale(1007.21 968.288)">
<stop offset="0.16" stop-color="#58C9FF"/>
<stop offset="1" stop-color="#27456F" stop-opacity="0"/>
</radialGradient>
<radialGradient id="paint7_radial_2228_623" cx="0" cy="0" r="1" gradientUnits="userSpaceOnUse" gradientTransform="translate(809.57 -91.2972) scale(1235.23 1018.24)">
<stop stop-color="#37A6DE"/>
<stop offset="1" stop-color="#2B3D66" stop-opacity="0"/>
</radialGradient>
<radialGradient id="paint8_radial_2228_623" cx="0" cy="0" r="1" gradientUnits="userSpaceOnUse" gradientTransform="translate(640 1116) rotate(90) scale(1116 964)">
<stop offset="0.725" stop-color="#1E467F" stop-opacity="0"/>
<stop offset="1" stop-color="#1E467F"/>
</radialGradient>
<clipPath id="clip0_2228_623">
<rect width="1280" height="2232" fill="white"/>
</clipPath>
</defs>
</svg>
