<svg width="84" height="79" viewBox="0 0 84 79" fill="none" xmlns="http://www.w3.org/2000/svg">
<path fill-rule="evenodd" clip-rule="evenodd" d="M29.6667 2.25258C13.1499 4.68758 0.928733 16.0682 2.03873 28.3906C2.75781 36.3696 8.88193 42.937 17.6395 46.402L13.9839 60.6462L30.1559 48.9502L30.2677 48.94C32.2635 49.0354 34.2685 49.067 36.3491 48.8772C54.1037 47.2573 67.6031 35.4432 66.4371 22.5152C65.2731 9.58576 49.8811 0.40716 32.1271 2.02716C31.2949 2.10309 30.479 2.13282 29.6667 2.25258Z" fill="#094188" stroke="white" stroke-width="2" stroke-linejoin="round"/>
<path fill-rule="evenodd" clip-rule="evenodd" d="M61.9102 33.4961C74.4552 35.3457 83.7382 43.9891 82.8942 53.3477C82.348 59.4077 77.6968 64.3957 71.0452 67.0275L73.8216 77.8461L61.5388 68.9629L61.4539 68.9551C59.9381 69.0276 58.4153 69.0516 56.8351 68.9074C43.3503 67.6772 33.097 58.7042 33.983 48.8854C34.8679 39.0666 46.5572 32.0954 60.041 33.3258C60.6731 33.3835 61.2932 33.4052 61.9102 33.4961Z" fill="#094188" stroke="white" stroke-width="2" stroke-linejoin="round"/>
</svg>
