<svg width="71" height="73" viewBox="0 0 71 73" fill="none" xmlns="http://www.w3.org/2000/svg">
<path d="M27 63L23 60.5L24.5 67L20.5 64L21 70.5L17 65.5L16.5 72L14.5 66L13 72L12.5 65.5L9.5 71L11 64.5L6 68L9.5 62.5L4.5 64L9.5 59.5H5L10.5 56H6L10.5 53L6 52L10.5 49L5 48.5L10 45.5H4L8.5 41.5L6 39" stroke="white" stroke-width="2" stroke-linejoin="round"/>
<path d="M1.5 32C1.5 35.5 2.5 40.5 5 41C7.5 41.4999 20.5 32.9999 20.5 30C20.5 27 15.5 26.5 15.5 25C15.5 23.4999 18 20 20.5 18C23 16 26.5 13.9999 29 14C31.5 14 29 19.9999 33.5 20.5C38 21 46.5 11.4999 47 7.99997C47.5 4.5 43 2.99997 38.5 1.99997C34 0.999973 24.5 2.49997 14 12.5C3.5 22.5 1.5 28.5 1.5 32Z" fill="#094188" stroke="white" stroke-width="2" stroke-linejoin="round"/>
<circle cx="46" cy="48" r="24" fill="#094188" stroke="white" stroke-width="2"/>
<path d="M47.0268 24.1902C46.7167 24.0654 46.3802 24.0203 46.0481 24.0591L43.7251 24.3306C43.622 24.3427 43.5199 24.3628 43.4199 24.3907L40.2877 25.2642C40.4139 25.2191 40.5407 25.1721 40.6686 25.1253C40.9128 25.0359 41.0246 24.7487 40.8993 24.5208C40.8139 24.3656 40.6396 24.2815 40.465 24.3113L39.8621 24.414C39.6116 24.4567 39.3796 24.5733 39.1958 24.7487L39.1682 24.7751C38.9538 24.9796 38.6801 25.111 38.3865 25.1501L38.1784 25.1779C37.9661 25.2062 37.7598 25.2684 37.5672 25.3622L36.9627 25.6566L36.6097 25.8371C36.5615 25.8617 36.5197 25.8973 36.4877 25.9409C36.4368 26.0104 36.3617 26.0585 36.2773 26.0758L35.9424 26.1443C35.8334 26.1666 35.7415 26.2393 35.6947 26.3402L35.6203 26.5009C35.5262 26.7041 35.2383 26.7072 35.14 26.5059L35.0609 26.3443C34.9894 26.198 34.7781 26.2067 34.7188 26.3583C34.7086 26.3842 34.7044 26.4121 34.7064 26.4399L34.7376 26.8699C34.7697 27.3133 34.59 27.7458 34.2531 28.0359L34.1341 28.1384C34.0322 28.2262 33.9542 28.3384 33.9074 28.4645L33.7458 28.9001C33.6314 29.2085 33.8596 29.5365 34.1886 29.5365C34.3725 29.5365 34.5397 29.4296 34.617 29.2627L34.8739 28.7082C34.9575 28.5086 35.095 28.3366 35.2672 28.2055C35.3795 28.12 35.4909 28.0333 35.6025 27.9467C36.0226 27.6212 36.5768 27.5449 37.0798 27.7164C37.2284 27.767 37.3691 27.8381 37.498 27.9278C37.9733 28.2585 38.4505 28.5922 38.9265 28.9233C39.1486 29.0778 39.4484 29.056 39.6461 28.8714C39.9489 28.5886 39.8623 28.0881 39.482 27.9236L39.3953 27.8861C39.256 27.8258 39.1428 27.7178 39.0761 27.5814L38.9731 27.3707C38.7829 26.9817 38.4077 26.7162 37.9776 26.6662L36.8639 26.5368C36.8212 26.5318 36.7866 26.4998 36.7783 26.4576C36.7647 26.388 36.8267 26.3271 36.8961 26.342L37.3434 26.4384C37.4779 26.4673 37.6178 26.4252 37.714 26.3269L37.8626 26.1749C37.9707 26.0643 38.1091 25.9881 38.2604 25.9559L39.0332 25.7913C39.0454 25.7887 39.0571 25.7845 39.0683 25.7791C39.084 25.7714 39.0996 25.7638 39.1153 25.7564C39.2524 25.6912 39.3683 25.8715 39.2585 25.9764C39.1955 26.0365 39.2033 26.1391 39.2746 26.1891L40.9983 27.3969C41.2744 27.5903 41.4387 27.9062 41.4387 28.2433C41.4387 28.5134 41.333 28.7727 41.1442 28.9658L41.1109 28.9998C40.7707 29.3477 40.6863 29.872 40.9 30.3091L41.3987 31.3291C41.5811 31.7021 42.0429 31.8403 42.4002 31.6288C42.4967 31.5716 42.5784 31.4924 42.6385 31.3977L43.1795 30.5447C43.4318 30.1469 43.8173 29.8534 44.2628 29.7005C45.2878 29.3487 46.2541 28.9546 47.2421 28.5082C47.4239 28.4261 47.6262 28.5761 47.5986 28.7737C47.5855 28.8673 47.6259 28.9603 47.7032 29.0147L47.8955 29.1499C48.114 29.3035 48.4052 29.3044 48.6247 29.1521L49.0243 28.8749C49.2537 28.7157 49.2952 28.3931 49.1137 28.1809C48.9648 28.0069 48.7123 27.965 48.5152 28.0817L48.0826 28.3379C48.0595 28.3516 48.0316 28.3544 48.0062 28.3458L47.9464 28.3254C47.8898 28.3061 47.8831 28.2237 47.9366 28.1969C47.9519 28.1893 47.9643 28.1761 47.9704 28.1601L48.4571 26.8802C48.8444 25.8617 48.3452 24.7206 47.3343 24.3139L47.0268 24.1902ZM34.8739 28.7082L35.6946 29.292C35.7985 29.366 35.9229 29.4057 36.0504 29.4057H36.1622C36.4395 29.4057 36.6643 29.1809 36.6643 28.9036C36.6643 28.7052 36.5475 28.5255 36.3662 28.4449L36.14 28.3443C35.8569 28.2184 35.5286 28.2501 35.2748 28.4276L34.8739 28.7082ZM58.095 28.3631C57.714 28.2188 57.2979 28.1943 56.9026 28.2929L56.0801 28.4981C55.8696 28.5506 55.6698 28.639 55.4895 28.7596L54.9232 29.1383C54.7547 29.2509 54.6536 29.4401 54.6536 29.6427C54.6536 29.8483 54.5495 30.0399 54.377 30.1518L53.3478 30.8193C53.081 30.9923 52.9469 31.3106 53.0095 31.6223L53.0906 32.027C53.1637 32.3914 53.5894 32.558 53.8904 32.3399C54.1051 32.1844 54.403 32.2191 54.5762 32.4198L54.8447 32.731C54.8876 32.7807 54.9381 32.8233 54.9943 32.8571C55.3266 33.057 55.7589 32.9056 55.8938 32.5419L55.9957 32.2671C56.0651 32.08 56.0674 31.8747 56.0023 31.6861L55.979 31.6184C55.8947 31.374 55.9111 31.1061 56.0246 30.8739C56.0765 30.7678 56.1471 30.6722 56.2332 30.5915L57.0564 29.8198C57.1012 29.7778 57.1603 29.7544 57.2217 29.7544C57.397 29.7544 57.514 29.9351 57.4423 30.0951L57.1809 30.6784C57.1448 30.759 57.1261 30.8464 57.1261 30.9347V31.4309C57.1261 31.5962 57.2853 31.716 57.4473 31.6831C57.7003 31.6316 57.8305 31.9615 57.622 32.1138L57.3254 32.3304C57.2523 32.3838 57.2032 32.4638 57.1886 32.5531L57.1662 32.691C57.1403 32.8498 57.0594 32.9944 56.9375 33.0995L56.1988 33.737C55.9248 33.9734 55.5532 34.0621 55.202 33.975L54.5904 33.8234C54.4523 33.7892 54.3552 33.6652 54.3552 33.5228V33.4798C54.3552 33.2492 54.0971 33.1128 53.9066 33.2427C53.7952 33.3186 53.7517 33.4619 53.8021 33.587L53.8209 33.6337C53.9134 33.8635 53.7443 34.1139 53.4966 34.1139H53.2781C53.1005 34.1139 52.9364 34.2086 52.8476 34.3623L52.516 34.9361C52.4634 35.0271 52.4022 35.1129 52.3332 35.1923L51.8838 35.7093C51.8002 35.8056 51.6874 35.8719 51.5626 35.8983L51.397 35.9334C51.0163 36.0139 50.8743 36.4829 51.1464 36.7611C51.2098 36.826 51.2541 36.9071 51.2745 36.9956C51.3458 37.3054 51.1104 37.6014 50.7924 37.6014H50.6702C50.5708 37.6014 50.4729 37.6265 50.3858 37.6742L49.9509 37.9125C49.565 38.1239 49.325 38.5289 49.325 38.9689V39.7898C49.325 40.0017 49.4968 40.1735 49.7087 40.1735C49.8173 40.1735 49.9207 40.2195 49.9935 40.3001L50.0687 40.3834C50.2593 40.5945 50.5668 40.6535 50.822 40.5279L51.1415 40.3705C51.3983 40.2441 51.5962 40.0232 51.6937 39.754L51.7942 39.4764C51.9067 39.1657 52.1214 38.9023 52.4031 38.7295L52.6628 38.5701C52.7652 38.5073 52.8443 38.4128 52.8881 38.3008C52.9528 38.1354 53.0931 38.0113 53.2652 37.9673L53.6126 37.8785C54.0683 37.762 54.5509 37.9109 54.8616 38.264L55.027 38.4519C55.0902 38.5237 55.1657 38.5837 55.25 38.6291L55.6544 38.8467C55.8097 38.9303 55.8713 39.1217 55.7938 39.2802L55.7382 39.3939C55.6335 39.608 55.834 39.8441 56.0622 39.7754C56.1419 39.7515 56.2063 39.6926 56.2372 39.6153L56.4556 39.0692C56.5271 38.8906 56.4932 38.6869 56.3677 38.5411L55.8486 37.9379C55.7644 37.8401 55.8339 37.6886 55.963 37.6886C55.9984 37.6886 56.0326 37.7011 56.0598 37.7238L56.4892 38.0831C56.7901 38.3348 56.9903 38.6863 57.0534 39.0735L57.1036 39.3812C57.1183 39.4718 57.1574 39.5566 57.2165 39.6266C57.4973 39.959 58.0388 39.8064 58.1045 39.3763L58.1199 39.2755C58.1383 39.155 58.2135 39.0507 58.3221 38.9952C58.4722 38.9185 58.6559 38.9494 58.7645 39.0784C58.9649 39.3164 59.1481 39.573 59.3263 39.8325C59.6066 40.2407 60.0567 40.4965 60.5509 40.5271L60.9797 40.5537C61.1083 40.5616 61.2327 40.6025 61.3409 40.6724L61.4704 40.756C61.7532 40.9387 61.8306 41.3182 61.6418 41.5971C61.6154 41.636 61.5846 41.6717 61.5499 41.7035L61.3654 41.8723C60.9967 42.2097 60.515 42.3968 60.0153 42.3968H59.9216C59.7076 42.3968 59.4951 42.3625 59.292 42.2951L58.2946 41.9643C58.1145 41.9046 57.9237 41.8842 57.735 41.9045L57.4545 41.9347C57.2984 41.9515 57.1545 42.0273 57.0524 42.1467C56.8171 42.4216 56.3967 42.4356 56.1438 42.1769L55.239 41.2517C55.0229 41.0307 54.7536 40.869 54.4569 40.7824L54.1133 40.682C53.8511 40.6054 53.576 40.5833 53.3049 40.6171L52.1199 40.7649C52.0188 40.7775 51.9188 40.7978 51.8209 40.8256L51.0099 41.056C50.6338 41.1628 50.2973 41.3775 50.0417 41.6734C49.3554 42.4681 48.6644 43.2712 48.0107 44.0906C47.8923 44.239 47.7971 44.4044 47.7264 44.5805L46.9688 46.4669C46.8976 46.644 46.9333 46.8462 47.0607 46.9884C47.214 47.1594 47.2315 47.4128 47.103 47.6033L46.8184 48.0254C46.6004 48.3487 46.5603 48.7602 46.7118 49.1195L47.2838 50.4755C47.3653 50.6686 47.4765 50.8477 47.6137 51.006C48.1639 51.6413 48.7159 52.274 49.2662 52.9088C49.5341 53.2178 50.0021 53.2512 50.3105 52.9826L50.5938 52.7358C50.761 52.5901 51.0165 52.6156 51.1516 52.7915C51.2751 52.9523 51.5023 52.9896 51.6708 52.8767L52.2556 52.4849C52.4572 52.3498 52.7276 52.3843 52.8889 52.5656C52.981 52.6693 53.1131 52.7286 53.2518 52.7286H53.7702C54.0878 52.7286 54.3899 52.8657 54.5991 53.1048C54.8456 53.3866 54.9321 53.7744 54.8286 54.1343L54.7797 54.3043C54.6477 54.7632 54.756 55.2598 55.0654 55.6236C55.2936 55.892 55.4162 56.2365 55.4076 56.5887L55.3904 57.2902C55.3825 57.6154 55.4552 57.9375 55.602 58.2278L55.6286 58.2803C55.8752 58.768 55.8929 59.3399 55.677 59.8419C55.5922 60.0389 55.5423 60.2492 55.5303 60.4633C55.4993 61.015 55.4739 61.5541 55.4661 62.1056C55.4628 62.3336 55.5026 62.56 55.5789 62.7749C55.8973 63.6712 56.2147 64.5666 56.5173 65.4689C56.5538 65.5778 56.5805 65.6896 56.5976 65.8031L56.8187 67.2727C56.8247 67.3127 56.8277 67.353 56.8277 67.3934V67.6811C56.8277 67.9702 57.0621 68.2046 57.3512 68.2046C57.4546 68.2046 57.5557 68.174 57.6417 68.1166L58.0929 67.8157C58.352 67.6429 58.6564 67.5507 58.9678 67.5507C59.4228 67.5507 59.8556 67.3541 60.155 67.0115L61.2497 65.7587C61.3893 65.5989 61.4365 65.3783 61.3745 65.1754C61.3052 64.9487 61.3726 64.7024 61.5477 64.5426L61.9719 64.1553C62.2394 63.911 62.2605 63.4969 62.0193 63.2267C61.7686 62.9459 61.8025 62.5129 62.0938 62.2746L62.6252 61.8398L63.5276 61.2631C63.6077 61.2119 63.6805 61.15 63.7439 61.0792C63.9773 60.8189 64.0657 60.4595 63.9798 60.1207L63.8755 59.7091C63.8378 59.5608 63.8188 59.4083 63.8188 59.2553C63.8188 58.4832 63.8188 57.7155 63.8188 56.944C63.8188 56.6653 63.8771 56.3897 63.9898 56.1348L64.4991 54.9835C64.585 54.7893 64.7013 54.6101 64.8435 54.4525L65.4107 53.8241C65.5702 53.6474 65.6969 53.4436 65.7848 53.2224L66.7208 50.8661C66.7468 50.8006 66.7602 50.7307 66.7602 50.6601V50.5162C66.7602 50.2561 66.5257 50.0564 66.2675 50.0876C65.8732 50.1351 65.659 49.6698 65.9367 49.3858L66.2085 49.1078C66.2352 49.0805 66.2646 49.0559 66.2962 49.0343L67.5579 48.1741C67.7075 48.0721 67.8425 47.9503 67.9593 47.812L68.1882 47.541C68.4498 47.2313 68.5933 46.839 68.5933 46.4336V46.1859C68.5933 46.0737 68.5662 45.9632 68.5152 45.8633C68.4522 45.74 68.3891 45.6144 68.3259 45.4887C68.1909 45.2201 67.8271 45.1803 67.6349 45.4115C67.4677 45.6127 67.1593 45.6142 66.9902 45.4146L66.801 45.1913C66.7739 45.1593 66.7438 45.13 66.7112 45.1036L66.1086 44.6172C66.0085 44.5363 65.9503 44.4145 65.9503 44.2858C65.9503 43.8908 66.4414 43.7086 66.699 44.008L66.7328 44.0473C66.8298 44.16 66.9768 44.2169 67.1244 44.1987L67.4583 44.1578C67.7725 44.1192 68.0882 44.2207 68.3213 44.4349C68.4778 44.5788 68.6316 44.7217 68.7819 44.8697C69.0765 45.1598 69.5644 45.1649 69.8356 44.8528C69.9416 44.7308 70.0011 44.5766 69.9839 44.416C69.8527 43.1903 68.9171 39.3809 67.0586 36.1192C65.4402 33.2799 62.8375 30.6343 61.883 29.7095C61.7182 29.5498 61.3864 29.6067 61.2784 29.8092C61.2669 29.8307 61.2529 29.8508 61.2365 29.869L60.6936 30.4748C60.4943 30.6971 60.1474 30.7016 59.9424 30.4845L59.8177 30.3525C59.5575 30.0769 59.7529 29.6237 60.132 29.6237H60.1584C60.2634 29.6237 60.3635 29.5793 60.4341 29.5016C60.6289 29.2871 60.5147 28.942 60.2303 28.8861L58.7612 28.5972C58.6944 28.584 58.6287 28.5653 58.565 28.5411L58.095 28.3631ZM32.4708 28.7781C32.1298 28.737 31.8048 28.9343 31.6839 29.2559L31.6439 29.3623C31.5322 29.6591 31.2711 29.8733 30.9592 29.93C30.9108 29.9388 30.8626 29.9477 30.8164 29.9563C30.6251 29.9923 30.4518 30.0853 30.3108 30.2196C27.8325 32.5802 23.2288 37.4671 22.0422 46.3823C22.0133 46.5991 22.0332 46.8193 22.134 47.0135C22.2495 47.2362 22.4184 47.5314 22.5585 47.771C22.7219 48.0505 22.9548 48.2823 23.2319 48.4498L24.4517 49.187C24.6069 49.2807 24.7742 49.353 24.9488 49.4017L25.9449 49.6795C26.3458 49.7913 26.7018 50.0254 26.9634 50.3492L27.2251 50.6732C27.3222 50.7934 27.4329 50.9019 27.555 50.9966L28.2764 51.5563C28.4871 51.7198 28.7573 51.7861 29.0198 51.7387L29.1311 51.7187C29.2615 51.6951 29.3961 51.715 29.5141 51.7754L29.722 51.8817C29.7967 51.9199 29.8437 51.9967 29.8437 52.0806C29.8437 52.1056 29.8395 52.1304 29.8313 52.1539L29.2239 53.9011C29.1825 54.0199 29.1262 54.133 29.0563 54.2376L28.7523 54.6919C28.662 54.8268 28.6466 54.9983 28.7113 55.1472C28.7544 55.2465 28.7625 55.3577 28.7341 55.4622L28.5593 56.1057C28.4259 56.5967 28.4847 57.1202 28.7238 57.5694L29.7601 59.5172C29.8718 59.7271 30.02 59.9153 30.1977 60.0732L31.3694 61.1138C31.4886 61.2196 31.5947 61.3393 31.6855 61.4704L31.8931 61.7701C32.14 62.1266 32.2644 62.5537 32.2474 62.987L32.2056 64.0564C32.1942 64.348 32.2467 64.6385 32.3595 64.9076L32.487 65.212C32.6255 65.5425 32.659 65.9075 32.5829 66.2577L32.2387 67.8418C32.2114 67.9676 32.1527 68.1682 32.1883 68.2918C32.2571 68.5292 35.0379 70.1265 35.2149 69.992C35.2521 69.9631 35.2887 69.9348 35.3233 69.9081C35.4622 69.8012 35.5195 69.6186 35.4652 69.452C35.4164 69.3023 35.4575 69.1379 35.5709 69.0287L35.9239 68.689C36.0463 68.5712 36.139 68.426 36.1944 68.2655C36.3026 67.952 36.5495 67.7061 36.8633 67.5991L36.9576 67.567C37.3124 67.446 37.5962 67.1754 37.7339 66.8268L38.305 65.3806C38.3736 65.2067 38.3716 65.0129 38.2994 64.8404C38.2096 64.6263 38.2292 64.382 38.3519 64.1848L38.4857 63.9698C38.6568 63.6949 38.9311 63.5002 39.2471 63.4295L39.3616 63.4039C39.8352 63.298 40.2273 62.9676 40.412 62.5189L40.6155 62.0246C40.7363 61.7313 40.7856 61.4134 40.7593 61.0973L40.6886 60.2487C40.65 59.7838 40.775 59.32 41.0421 58.9376L41.4501 58.3534C41.6104 58.1239 41.7103 57.8576 41.7406 57.5793C41.8155 56.8902 41.4556 56.2273 40.8398 55.9091C39.9179 55.4328 39.003 54.95 38.0837 54.4657C37.7151 54.2715 37.4161 53.9673 37.2287 53.5952L37.0759 53.2918C36.8961 52.935 36.567 52.6766 36.1778 52.5868C35.7365 52.4848 35.3762 52.1676 35.2192 51.7428L35.1519 51.5604C34.9141 50.9169 34.2645 50.5218 33.5838 50.6067C33.2078 50.6536 32.8283 50.5542 32.5236 50.3291L32.4915 50.3055C31.8923 49.8629 31.0651 49.9002 30.5081 50.3948L29.8847 50.9485C29.8586 50.9716 29.8437 51.0048 29.8437 51.0397C29.8437 51.1211 29.7653 51.18 29.6861 51.1608C29.3465 51.0786 28.9772 51.0342 28.6503 50.912C28.449 50.8367 28.3152 50.655 28.2486 50.4507L28.0541 49.854C28.0253 49.7656 28.0107 49.6733 28.0107 49.5804V49.1104C28.0107 48.8319 27.7676 48.6159 27.4911 48.6485C27.1915 48.6838 26.9385 48.4291 26.98 48.1302C27.0333 47.7473 27.0904 47.3627 27.1427 46.9804C27.1748 46.7457 26.9916 46.5382 26.7548 46.5382C26.6328 46.5382 26.5176 46.5948 26.443 46.6914L26.0408 47.2124C25.9625 47.3139 25.8627 47.3968 25.7485 47.4552C25.4847 47.5901 25.1703 47.5812 24.9144 47.4317L24.8681 47.4047C24.5937 47.2443 24.4156 46.9593 24.3918 46.6424L24.3591 46.2075C24.3494 46.0796 24.3535 45.951 24.3713 45.824L24.4042 45.5883C24.4754 45.0788 24.7402 44.6163 25.1435 44.2969L25.5618 43.9658C25.7398 43.8249 25.9601 43.7482 26.1871 43.7482H26.6166C26.7877 43.7482 26.9401 43.64 26.9965 43.4785C27.0642 43.2847 27.2669 43.1729 27.467 43.2191L28.2475 43.3993C28.37 43.4276 28.479 43.4973 28.5561 43.5967C28.8614 43.9903 29.4911 43.8029 29.5316 43.3065L29.5642 42.9059C29.5794 42.7196 29.6683 42.547 29.8112 42.4264L30.9051 41.5035C31.1597 41.2887 31.3566 41.0136 31.478 40.7034L31.5986 40.395C31.7846 39.9195 32.1573 39.5409 32.6299 39.3476L32.6806 39.3269C32.9985 39.1969 33.2692 38.9731 33.4567 38.6854C33.7085 38.2993 34.1069 38.0327 34.5599 37.9474L35.2049 37.8259C35.3748 37.7939 35.5246 37.6945 35.6203 37.5504L35.879 37.1604C36.0509 36.9014 35.8652 36.5552 35.5542 36.5552C35.5262 36.5552 35.4982 36.5552 35.4702 36.5552C35.0764 36.5552 34.9545 36.0222 35.3091 35.8509C35.3593 35.8267 35.4144 35.814 35.4702 35.814H36.2662C36.3886 35.814 36.5101 35.7933 36.6256 35.7527L37.4102 35.4769C37.6233 35.402 37.8531 35.5344 37.8951 35.7564L37.9176 35.875C37.9721 36.1632 38.3521 36.2342 38.5071 35.9852C38.5973 35.8402 38.5586 35.6501 38.4189 35.5519L38.2467 35.4307C38.0909 35.3212 38.0228 35.1243 38.0777 34.9419C38.1259 34.7818 38.0795 34.6081 37.9579 34.4933L37.6919 34.2422C37.6329 34.1865 37.5615 34.1456 37.4836 34.1228L37.4711 34.1192C37.2117 34.0434 37.0596 33.775 37.1278 33.5135C37.1587 33.3948 37.1449 33.2688 37.089 33.1596L36.8794 32.7505C36.7819 32.56 36.5548 32.4759 36.3567 32.557L36.2092 32.6173C35.9669 32.7164 35.7122 32.505 35.7649 32.2486C35.793 32.1125 35.7319 31.9735 35.6127 31.9021L35.3071 31.7188C34.9064 31.4786 34.3864 31.6165 34.1574 32.0238L33.6885 32.8578C33.6279 32.9656 33.6043 33.0904 33.6214 33.2129C33.6563 33.4624 33.5217 33.7049 33.2914 33.8072L32.8546 34.0015C32.755 34.0457 32.6754 34.1255 32.6314 34.2252L32.5512 34.4068C32.4069 34.7335 31.9302 34.6895 31.8482 34.342C31.8208 34.226 31.7396 34.1302 31.6298 34.0841L30.4833 33.6031C30.267 33.5124 30.1019 33.3306 30.0322 33.1066C29.9219 32.7523 30.0716 32.369 30.3927 32.1831L31.8858 31.3188C32.0301 31.2353 32.1633 31.1341 32.2824 31.0176L32.783 30.5279C32.9767 30.3385 33.0947 30.085 33.115 29.8148L33.1323 29.585C33.1545 29.2899 33.0011 29.0082 32.7418 28.8654C32.658 28.8193 32.5658 28.7895 32.4708 28.7781ZM50.5438 30.8007C50.3416 30.8007 50.1776 30.9647 50.1776 31.1669V31.3071C50.1776 31.4303 50.2225 31.5492 50.3039 31.6417L50.3694 31.7162C50.4931 31.8567 50.5613 32.0374 50.5613 32.2245V32.9089C50.5613 32.9565 50.5577 33.004 50.5505 33.0511L50.4882 33.4589C50.42 33.905 50.8151 34.2836 51.2579 34.1965C51.3872 34.1711 51.5058 34.107 51.598 34.0128L51.694 33.9146C52.0094 33.592 52.0016 33.0742 51.6765 32.7614C51.5878 32.676 51.5199 32.5716 51.4767 32.4563C51.2893 31.9567 51.0968 31.491 50.8729 31.0093C50.8135 30.8815 50.6848 30.8007 50.5438 30.8007ZM49.3754 32.5501C49.2993 32.3513 49.0812 32.2464 48.8783 32.3112C48.6929 32.3705 48.5767 32.5543 48.6027 32.7472L48.644 33.0533C48.6848 33.3557 49.0149 33.5244 49.2838 33.3803C49.4779 33.2763 49.5645 33.0442 49.4858 32.8386L49.3754 32.5501ZM61.5335 43.862C61.6387 43.7544 61.8139 43.7611 61.9106 43.8765L62.6416 44.7486C62.7156 44.8369 62.7774 44.9348 62.8253 45.0396L63.8973 47.3832C63.9583 47.5167 64.0386 47.6405 64.1356 47.7507L64.4227 48.077C64.627 48.3091 64.6808 48.6374 64.5613 48.9226L64.4712 49.1377C64.4108 49.2817 64.4351 49.4473 64.5344 49.5679L64.6055 49.6542C64.7935 49.8826 64.6482 50.231 64.3525 50.24C64.2112 50.2443 64.0789 50.1619 64.0204 50.0332C63.5363 48.9674 63.1355 47.8926 62.7546 46.7863C62.6685 46.5365 62.5353 46.3053 62.3608 46.107L62.1648 45.8843C61.9629 45.6549 61.8162 45.3822 61.7361 45.0873L61.4698 44.1068C61.4461 44.0197 61.4704 43.9266 61.5335 43.862Z" fill="white"/>
</svg>
