<svg width="79" height="119" viewBox="0 0 79 119" fill="none" xmlns="http://www.w3.org/2000/svg">
<path d="M11.0863 3.44804L11.0488 3.45039L11.0114 3.45462C7.16748 3.88932 4.57912 5.2433 3.06695 7.30588C1.57356 9.34283 1.34164 11.7857 1.58188 13.9609L1.59951 14.1206L1.65055 14.2729L33.6328 109.712L33.6442 109.746L33.6573 109.779C36.0969 116.045 44.3174 119.026 50.1068 114.862L50.1118 114.858L73.245 98.0726C75.5391 96.6468 76.5748 94.507 76.9005 92.2825C77.2201 90.0991 76.8698 87.7839 76.408 85.8081L76.3835 85.7033L76.3442 85.6029L46.2232 8.62262C45.2493 5.88642 43.9571 4.01717 42.2089 2.9291C40.461 1.84122 38.5049 1.69034 36.5568 1.85623L11.0863 3.44804Z" fill="#094188" stroke="white" stroke-width="3"/>
<path d="M13.012 4.19461L12.9395 3.80872C11.4956 3.97918 10.2886 4.37252 9.33047 5.01689C8.35277 5.6744 7.70884 6.54402 7.33697 7.52588C6.62962 9.39352 6.94808 11.5663 7.37053 13.3665L7.38636 13.4339L7.40833 13.4996L38.3695 106.064C38.3695 106.064 38.3695 106.064 38.3695 106.064C39.114 108.29 40.1391 110.307 41.7976 111.508C43.5712 112.792 45.7497 112.93 48.2453 112.077L48.4316 112.014L48.5952 111.904L72.7463 95.7257C74.9314 94.3795 76.0976 92.5283 76.545 90.4569C76.9792 88.4466 76.7207 86.3104 76.26 84.339L76.2387 84.2481L76.2064 84.1605L48.1592 8.25091C47.1989 5.54688 45.9228 3.69672 44.1926 2.61983C42.4602 1.54157 40.5219 1.39559 38.5958 1.56154L38.5936 1.56173L12.978 3.80577L13.012 4.19461Z" stroke="white" stroke-width="3"/>
<path d="M39.7825 1.50121C39.7713 1.50137 39.7601 1.50165 39.7489 1.50205C39.4008 1.50775 39.0499 1.52717 38.6959 1.55766L38.6937 1.55785L13.0776 3.80284C13.0626 3.80415 13.0477 3.80569 13.0327 3.80745C11.5889 3.97783 10.3819 4.3711 9.42383 5.01543C8.44615 5.67292 7.80228 6.54253 7.4305 7.52438C6.72334 9.39194 7.04198 11.5647 7.46437 13.3647C7.47493 13.4096 7.48755 13.4541 7.50221 13.4979L10.1694 21.4699C10.4012 22.1626 11.0983 22.5877 11.8202 22.4765L49.4565 16.6791C49.9016 16.6105 50.2923 16.3456 50.5208 15.9574C50.7492 15.5693 50.7912 15.0991 50.6351 14.6766L48.2592 8.24669C47.3893 5.79731 46.2605 4.04744 44.7634 2.93662C43.2417 1.80759 41.5271 1.47717 39.7825 1.50121Z" stroke="white" stroke-width="3" stroke-linejoin="round"/>
<path d="M73.163 78.3441C73.0467 78.0211 72.8212 77.7424 72.5171 77.5619C72.0619 77.2917 71.4979 77.2815 71.0331 77.535L37.2679 95.9557C36.6289 96.3044 36.3324 97.0616 36.5649 97.7515L39.1059 105.293C39.1059 105.293 39.1059 105.293 39.1059 105.293C39.8201 107.413 40.8074 109.347 42.412 110.501C44.1293 111.736 46.2336 111.864 48.6325 111.05C48.7557 111.008 48.873 110.951 48.9813 110.878L72.0894 95.5116C74.1946 94.2239 75.3233 92.4489 75.7562 90.4594C76.1757 88.5317 75.9254 86.4881 75.4834 84.6105C75.469 84.5495 75.4509 84.4895 75.429 84.4309L73.163 78.3441Z" stroke="white" stroke-width="3" stroke-linejoin="round"/>
<path d="M61.9932 94.2077C62.1711 97.2604 60.4919 99.8413 58.2426 99.9724C55.9932 100.104 54.0255 97.7352 53.8476 94.6826C53.6696 91.6299 55.3488 89.049 57.5982 88.9179C59.8475 88.7867 61.8152 91.1551 61.9932 94.2077Z" fill="white"/>
<path d="M27.3809 11.7559L33.4304 10.47" stroke="white" stroke-width="3" stroke-linecap="round"/>
</svg>
