<svg width="85" height="62" viewBox="0 0 85 62" fill="none" xmlns="http://www.w3.org/2000/svg">
<path d="M11 24.1315C11 23.1322 11.4975 22.1986 12.3269 21.6413L40.3269 2.82884C41.3387 2.14904 42.6613 2.14904 43.6731 2.82884L71.6731 21.6413C72.5025 22.1986 73 23.1323 73 24.1315V58C73 59.6569 71.6569 61 70 61H14C12.3431 61 11 59.6569 11 58V24.1315Z" fill="#094188" stroke="white" stroke-width="2"/>
<rect x="18" y="7" width="48" height="48" rx="3" fill="#094188" stroke="white" stroke-width="2"/>
<path d="M73.5 24.5C73.5 22.1787 70.9768 20.7369 68.9769 21.9154L47.0119 34.8591L47.0077 34.8615L12.8495 55.43C10.245 56.9982 11.3569 61 14.3971 61H70.5C72.1569 61 73.5 59.6569 73.5 58V24.5Z" fill="#094188" stroke="white" stroke-width="2"/>
<path d="M11 24.5C11 22.1787 13.5232 20.7369 15.5231 21.9154L37.4881 34.8591L37.4923 34.8615L71.6505 55.43C74.255 56.9982 73.1431 61 70.1029 61H14C12.3431 61 11 59.6569 11 58V24.5Z" fill="#094188" stroke="white" stroke-width="2"/>
<path d="M42.1562 30.1211C40.7435 30.1211 39.4577 29.8997 38.2988 29.457C37.14 29.0143 36.1439 28.3828 35.3105 27.5625C34.4772 26.7422 33.8327 25.7656 33.377 24.6328C32.9277 23.5 32.7031 22.2402 32.7031 20.8535C32.7031 19.4733 32.9277 18.2135 33.377 17.0742C33.8327 15.9349 34.4772 14.9551 35.3105 14.1348C36.1439 13.3145 37.1367 12.6829 38.2891 12.2402C39.4479 11.791 40.7305 11.5664 42.1367 11.5664C43.9466 11.5664 45.5319 11.9375 46.8926 12.6797C48.2533 13.4154 49.3112 14.4505 50.0664 15.7852C50.8281 17.1133 51.209 18.6693 51.209 20.4531C51.209 22.1523 50.8477 23.474 50.125 24.418C49.4023 25.3555 48.3835 25.8242 47.0684 25.8242C46.4759 25.8242 45.9941 25.7331 45.623 25.5508C45.2585 25.3685 44.985 25.1471 44.8027 24.8867C44.6204 24.6198 44.5033 24.3659 44.4512 24.125H44.4414C44.2786 24.5612 43.9564 24.9421 43.4746 25.2676C42.9993 25.5931 42.3711 25.7559 41.5898 25.7559C40.7044 25.7559 39.9362 25.5378 39.2852 25.1016C38.6406 24.6589 38.1426 24.0664 37.791 23.3242C37.4395 22.582 37.2637 21.7552 37.2637 20.8438C37.2637 19.8411 37.4622 18.9785 37.8594 18.2559C38.263 17.5332 38.7936 16.9766 39.4512 16.5859C40.1087 16.1888 40.8314 15.9902 41.6191 15.9902C42.2767 15.9902 42.8301 16.1139 43.2793 16.3613C43.735 16.6022 44.054 16.8789 44.2363 17.1914H44.2559V16.2148H46.1504V22.709C46.1504 23.5033 46.4824 23.9004 47.1465 23.9004C47.752 23.9004 48.2207 23.6042 48.5527 23.0117C48.8848 22.4128 49.0508 21.5794 49.0508 20.5117C49.0508 19.0664 48.7676 17.8294 48.2012 16.8008C47.6413 15.7656 46.8438 14.9714 45.8086 14.418C44.7799 13.8646 43.5658 13.5879 42.166 13.5879C40.6751 13.5879 39.3861 13.8841 38.2988 14.4766C37.2181 15.069 36.3815 15.9089 35.7891 16.9961C35.2031 18.0833 34.9102 19.3691 34.9102 20.8535C34.9102 22.3379 35.2031 23.6237 35.7891 24.7109C36.3815 25.7917 37.2181 26.625 38.2988 27.2109C39.3861 27.8034 40.6686 28.0996 42.1465 28.0996C43.084 28.0996 43.9076 28.0052 44.6172 27.8164C45.3268 27.6276 45.877 27.4583 46.2676 27.3086L46.9902 29.1934C46.5736 29.3691 45.9486 29.5677 45.1152 29.7891C44.2819 30.0104 43.2956 30.1211 42.1562 30.1211ZM41.834 23.7734C42.6022 23.7734 43.1882 23.5195 43.5918 23.0117C44.002 22.5039 44.207 21.7812 44.207 20.8438C44.207 19.9062 44.002 19.1836 43.5918 18.6758C43.1882 18.168 42.6022 17.9141 41.834 17.9141C41.0527 17.9141 40.444 18.168 40.0078 18.6758C39.5781 19.1771 39.3633 19.8997 39.3633 20.8438C39.3633 21.7878 39.5781 22.5137 40.0078 23.0215C40.444 23.5228 41.0527 23.7734 41.834 23.7734Z" fill="white"/>
</svg>
