<svg width="53" height="60" viewBox="0 0 53 60" fill="none" xmlns="http://www.w3.org/2000/svg">
<path d="M2 58.5L1.5 22L21.5 3C21.5 3 24.5 1 28 1C31.5 1 32.5 2 32.5 2L52 15L51.5 47L2 58.5Z" fill="#094188" stroke="white" stroke-width="2" stroke-linejoin="round"/>
<path d="M2.5 58.0001L21.5 31.5001C21.5 31.5001 25.5 29.0001 29 28.5001C32.5 28.0001 35 28.5001 35 28.5001L51.5 47.0001" stroke="white" stroke-width="2" stroke-linejoin="round"/>
<path d="M20 33.5L7.93478 26M36.5 30.5L47.5 19.5M8.5 21L1.5 22L7.93478 26M34.5 17.6184L52 15L47.5 19.5M47.5 19.5L9.5 14L7.93478 26" stroke="white" stroke-width="2" stroke-linejoin="round"/>
</svg>
