<svg width="106" height="125" viewBox="0 0 106 125" fill="none" xmlns="http://www.w3.org/2000/svg">
<path d="M29.8127 9.79327L30.1897 9.31879L30.2542 9.27649L30.3185 9.19284C30.3195 9.19212 30.3205 9.19138 30.3216 9.19061C30.3716 9.15414 30.4215 9.1227 30.5005 9.07284C30.5618 9.03414 30.6407 8.98436 30.7509 8.91253L34.8558 6.23701C35.7365 6.24247 36.4565 6.57931 37.1936 7.13712C37.6068 7.44977 38.0099 7.82036 38.4483 8.23626C38.5183 8.30265 38.5894 8.37043 38.6616 8.43921C38.9978 8.75966 39.357 9.10197 39.7324 9.42856L48.5424 22.6148C48.395 22.6801 48.2264 22.7558 48.0173 22.8554C47.3569 23.17 46.4764 23.6488 44.9477 24.6679L43.4626 25.658C42.1396 26.4731 41.513 26.844 40.6405 27.3605C40.272 27.5786 39.8598 27.8226 39.3327 28.137L31.5124 15.5531C31.2935 14.4693 30.8648 13.5761 30.514 12.8455C30.4234 12.6568 30.338 12.4789 30.2628 12.3115C29.9015 11.5069 29.6753 10.7848 29.8127 9.79327Z" fill="#094188" stroke="white" stroke-width="2"/>
<path d="M56.6649 26.0483L56.6698 26.0558L95.9332 84.7896C95.9107 85.185 95.8488 85.666 95.7664 86.2381C95.7479 86.3665 95.7285 86.4989 95.7086 86.6346C95.6205 87.2344 95.523 87.8991 95.4541 88.5728C95.288 90.1977 95.2562 92.1139 96.0456 93.7144L96.0503 93.7237C98.7464 99.0491 94.2793 102.653 93.4227 103.344C93.3644 103.391 93.3229 103.425 93.3014 103.444C86.7998 109.406 74.1045 116.633 66.6287 120.565C66.5824 120.557 66.4901 120.536 66.3374 120.475C65.9972 120.341 65.5396 120.083 64.98 119.701C63.8694 118.942 62.5158 117.803 61.1567 116.552C59.8035 115.306 58.4708 113.973 57.4066 112.844C56.3221 111.693 55.5782 110.818 55.3428 110.458C55.3419 110.457 55.3411 110.456 55.3403 110.454L15.8446 48.4627L15.8446 48.4626L15.8392 48.4544C15.5063 47.9431 15.4498 46.9548 15.8295 45.7951C16.2025 44.656 16.8773 43.73 17.5059 43.3642L17.6183 43.2988L17.7102 43.2068L21.6257 39.2892L49.0109 22.3606C49.1287 22.2978 49.5153 22.2261 50.302 22.4008C51.0395 22.5645 51.9214 22.8979 52.8164 23.3331C53.7066 23.766 54.5739 24.2822 55.2794 24.7886C56.0117 25.3141 56.4792 25.765 56.6649 26.0483Z" fill="#094188" stroke="white" stroke-width="2"/>
<path d="M71.2735 102.115L33.7761 44.6206C36.6101 41.7726 41.7499 37.8712 46.7957 34.8856C49.4844 33.2948 52.0995 31.9923 54.2841 31.249C55.3774 30.877 56.3265 30.6579 57.1015 30.5994C57.7546 30.5502 58.213 30.6203 58.5209 30.7475L93.9152 83.1777C91.7081 90.7612 83.8829 97.5457 71.2735 102.115Z" fill="#094188" stroke="white" stroke-width="2"/>
<path d="M61.2818 105.837L27.9991 54.25C28.3409 52.4422 29.0674 50.9217 30.0422 49.3883C30.6725 48.3968 31.3607 47.4629 32.1093 46.4468C32.3873 46.0695 32.6737 45.6809 32.9685 45.2738L70.5748 102.647C68.1987 103.966 65.728 105.279 61.2818 105.837Z" fill="#094188" stroke="white" stroke-width="2"/>
<path d="M28.0015 36C35.2339 31.4624 40.701 26.8452 48.0011 23.0001L53.5022 31C47.1364 33.2974 41.9503 35.9632 33.9992 42.9999L30.5011 38.0001C30.5011 38.0001 29.7229 36.7743 29.558 36.6334L28.0015 36Z" fill="#094188" stroke="white" stroke-width="2"/>
<path d="M46.7448 50.6472L59.1957 43.6682C60.2891 43.0553 60.908 43.3418 61.4227 44.1832L72.6901 62.6035C73.2047 63.4449 72.9358 64.7677 71.8674 65.4235L61.2895 71.9167C60.2211 72.5726 59.529 72.1954 58.9694 71.3831L46.3329 53.0407C45.7734 52.2284 45.6517 51.2599 46.7451 50.647L46.7448 50.6472Z" fill="#094188" stroke="white" stroke-width="2"/>
<line x1="18.8318" y1="42.4428" x2="69.8318" y2="118.443" stroke="white" stroke-width="2"/>
</svg>
