<svg width="60" height="60" viewBox="0 0 60 60" fill="none" xmlns="http://www.w3.org/2000/svg">
<path d="M28.9138 18.1098C28.2963 17.9923 27.6596 18.1718 27.1945 18.5946C24.4711 21.0704 22.9753 23.5634 22.1227 26.0179C21.3662 28.1958 21.1381 30.3049 20.9456 32.0843C20.9267 32.2595 20.9081 32.4316 20.8893 32.6002C20.6713 34.5624 20.4375 36.0524 19.7326 37.3796C19.0644 38.6376 17.865 39.9325 15.3542 41.1744C11.8799 42.8929 9.00057 46.9672 10.3405 51.313C11.3305 54.5239 14.7027 56.4536 18.0329 55.1812C21.679 53.7881 27.048 51.0063 30.1315 46.69C30.4235 46.2814 30.8207 45.9875 31.1798 45.8582C31.5132 45.7383 31.7252 45.7806 31.8774 45.868C35.1314 47.7367 37.1592 49.8953 38.3671 51.5589C39.9429 53.7294 43.3167 55.0762 46.0728 53.38L48.1928 52.0754C50.3057 50.7751 51.286 47.9558 49.894 45.6007C47.2441 41.1176 43.5703 37.5228 40.6126 35.0719C40.3891 34.8867 40.1693 34.7077 39.9538 34.5349C41.4584 34.3523 43.1225 34.0813 44.7447 33.6778C48.641 32.7085 49.9574 28.2205 48.193 25.0991C46.7537 22.5527 43.5949 21.5572 41.0304 22.203C39.4236 22.6076 38.0576 22.6087 37.1106 22.5146C37.0307 22.5066 36.9539 22.498 36.8803 22.4889L36.6487 20.9448C36.5226 20.1046 35.8795 19.4357 35.0448 19.2768L28.9138 18.1098Z" fill="#094188" stroke="white" stroke-width="4" stroke-linecap="round" stroke-linejoin="round"/>
<path d="M34.8899 24.4101C40.6279 24.4101 45.284 19.7544 45.284 14.0172C45.284 8.27912 40.628 3.62317 34.8899 3.62317C29.1528 3.62317 24.497 8.2793 24.497 14.0172C24.497 19.7542 29.153 24.4101 34.8899 24.4101Z" fill="#094188" stroke="white" stroke-width="4" stroke-linejoin="round"/>
</svg>
