<svg width="64" height="48" viewBox="0 0 64 48" fill="none" xmlns="http://www.w3.org/2000/svg">
<g clip-path="url(#clip0_2255_122)">
<path d="M3.33333 3H60.6667C60.8508 3 61 3.14924 61 3.33333V44.6667C61 44.8508 60.8508 45 60.6667 45H3.33333C3.14924 45 3 44.8508 3 44.6667V3.33333C3 3.14924 3.14924 3 3.33333 3Z" fill="#094188" stroke="white" stroke-width="2" stroke-linecap="square" stroke-linejoin="round"/>
<path d="M41.3333 42.3333C41.0681 42.3333 40.8138 42.4387 40.6262 42.6262L37.9596 45.2929C37.6736 45.5789 37.588 46.009 37.7428 46.3827C37.8976 46.7563 38.2622 47 38.6667 47H46.25C46.5152 47 46.7696 46.8946 46.9571 46.7071L49.6238 44.0404C49.9098 43.7544 49.9953 43.3243 49.8405 42.9506C49.6858 42.577 49.3211 42.3333 48.9167 42.3333H41.3333ZM9.33333 42.3333C9.06812 42.3333 8.81376 42.4387 8.62623 42.6262L5.95956 45.2929C5.67356 45.5789 5.58801 46.009 5.74279 46.3827C5.89757 46.7563 6.2622 47 6.66667 47H14.25C14.5152 47 14.7696 46.8946 14.9571 46.7071L17.6238 44.0404C17.9098 43.7544 17.9953 43.3243 17.8405 42.9506C17.6858 42.577 17.3211 42.3333 16.9167 42.3333H9.33333ZM63 22.6666C63 22.2622 62.7564 21.8975 62.3827 21.7428C62.009 21.588 61.5789 21.6735 61.2929 21.9595L58.6262 24.6262C58.4387 24.8137 58.3333 25.0681 58.3333 25.3333V32.9166C58.3333 33.3211 58.577 33.6857 58.9507 33.8405C59.3243 33.9953 59.7544 33.9097 60.0404 33.6238L62.7071 30.9571C62.8946 30.7695 63 30.5152 63 30.25V22.6666ZM5.66667 16.0416C5.66667 15.6371 5.42302 15.2725 5.04935 15.1177C4.67568 14.9629 4.24556 15.0485 3.95956 15.3345L1.29289 18.0011C1.10536 18.1887 1 18.443 1 18.7082V26.2498C1 26.6543 1.24364 27.0189 1.61732 27.1737C1.99099 27.3285 2.42111 27.243 2.70711 26.957L5.37377 24.2903C5.56131 24.1028 5.66667 23.8484 5.66667 23.5832V16.0416ZM50.708 1.00024C50.4428 1.00024 50.1884 1.1056 50.0009 1.29314L47.3342 3.9598C47.0482 4.2458 46.9627 4.67592 47.1175 5.04959C47.2722 5.42327 47.6369 5.66691 48.0413 5.66691H55.5413C55.8065 5.66691 56.0609 5.56155 56.2484 5.37402L58.9151 2.70735C59.2011 2.42135 59.2867 1.99124 59.1319 1.61756C58.9771 1.24389 58.6125 1.00024 58.208 1.00024H50.708ZM18.708 1.00024C18.4428 1.00024 18.1884 1.1056 18.0009 1.29314L15.3342 3.9598C15.0482 4.2458 14.9627 4.67592 15.1175 5.04959C15.2722 5.42327 15.6369 5.66691 16.0413 5.66691H23.5413C23.8066 5.66691 24.0609 5.56155 24.2484 5.37402L26.9151 2.70735C27.2011 2.42135 27.2867 1.99124 27.1319 1.61756C26.9771 1.24389 26.6125 1.00024 26.208 1.00024H18.708Z" fill="#094188" stroke="white" stroke-width="2" stroke-linecap="round" stroke-linejoin="round"/>
<path d="M25.3333 42.3333C25.0681 42.3333 24.8138 42.4387 24.6262 42.6262L21.9596 45.2929C21.6736 45.5789 21.588 46.009 21.7428 46.3827C21.8976 46.7564 22.2622 47 22.6667 47H30.25C30.5152 47 30.7696 46.8946 30.9571 46.7071L33.6238 44.0404C33.9098 43.7544 33.9953 43.3243 33.8405 42.9507C33.6858 42.577 33.3211 42.3333 32.9167 42.3333H25.3333ZM63 38.6667C63 38.2622 62.7564 37.8976 62.3827 37.7428C62.009 37.588 61.5789 37.6736 61.2929 37.9596L58.6262 40.6262C58.4387 40.8138 58.3333 41.0681 58.3333 41.3333V42C58.3333 42.1864 58.1864 42.3333 58 42.3333H57.3333C57.0681 42.3333 56.8138 42.4387 56.6262 42.6262L53.9596 45.2929C53.6736 45.5789 53.588 46.009 53.7428 46.3827C53.8976 46.7564 54.2622 47 54.6667 47H60.6667C61.9576 47 63 45.9576 63 44.6667V38.6667ZM5.66667 32C5.66667 31.5955 5.42302 31.2309 5.04935 31.0761C4.67568 30.9213 4.24556 31.0069 3.95956 31.2929L1.29289 33.9596C1.10536 34.1471 1 34.4015 1 34.6667V42.25C1 42.6545 1.24364 43.0191 1.61732 43.1739C1.99099 43.3287 2.42111 43.2431 2.70711 42.9571L5.37377 40.2904C5.56131 40.1029 5.66667 39.8486 5.66667 39.5833V32ZM63 6.708C63 6.30354 62.7564 5.9389 62.3827 5.78412C62.009 5.62934 61.5789 5.7149 61.2929 6.00089L58.6262 8.66756C58.4387 8.8551 58.3333 9.10945 58.3333 9.37467V16.8747C58.3333 17.2791 58.577 17.6438 58.9507 17.7985C59.3243 17.9533 59.7544 17.8678 60.0404 17.5818L62.7071 14.9151C62.8946 14.7276 63 14.4732 63 14.208V6.708ZM34.708 1C34.4428 1 34.1884 1.10536 34.0009 1.29289L31.3342 3.95956C31.0482 4.24556 30.9627 4.67568 31.1175 5.04935C31.2722 5.42302 31.6369 5.66667 32.0413 5.66667H39.5413C39.8066 5.66667 40.0609 5.56131 40.2484 5.37377L42.9151 2.70711C43.2011 2.42111 43.2867 1.99099 43.1319 1.61732C42.9771 1.24364 42.6125 1 42.208 1H34.708ZM1 10.2083C1 10.6127 1.24364 10.9774 1.61732 11.1321C1.99099 11.2869 2.42111 11.2014 2.70711 10.9154L5.37377 8.24871C5.56131 8.06117 5.66667 7.80682 5.66667 7.5416V6C5.66667 5.81362 5.81362 5.66667 6 5.66667H7.5416C7.80682 5.66667 8.06117 5.56131 8.24871 5.37377L10.9154 2.70711C11.2014 2.42111 11.2869 1.99099 11.1321 1.61732C10.9774 1.24364 10.6127 1 10.2083 1H3.33333C2.04238 1 1 2.04238 1 3.33333V10.2083Z" fill="#094188" stroke="white" stroke-width="2" stroke-linecap="round" stroke-linejoin="round"/>
<path d="M5.5 8.5L32.0004 31.1575L60.5 7M24.8751 25.1575L9 42.5M39.1671 25.2401L55.5 42.5" stroke="white" stroke-width="2"/>
</g>
<rect x="1" y="1" width="62" height="46" rx="5" stroke="white" stroke-width="2"/>
<defs>
<clipPath id="clip0_2255_122">
<rect x="2" y="2" width="60" height="44" rx="4" fill="white"/>
</clipPath>
</defs>
</svg>
