<svg width="77" height="98" viewBox="0 0 77 98" fill="none" xmlns="http://www.w3.org/2000/svg">
<path d="M73.1269 15.9646L28.4596 2.11003C26.5748 1.52543 24.573 2.57942 23.9884 4.4642L1.24634 77.7848C0.661738 79.6696 1.71573 81.6714 3.60051 82.256L48.2679 96.1106C50.1527 96.6952 52.1545 95.6412 52.7391 93.7564L75.4811 20.4358C76.0657 18.551 75.0117 16.5492 73.1269 15.9646Z" fill="#094188" stroke="white" stroke-width="2" stroke-miterlimit="3.42857" stroke-linecap="round" stroke-linejoin="round"/>
<path d="M69.1507 20.9138L28.9384 8.44104L20.0206 37.1921L60.2329 49.6648L69.1507 20.9138Z" fill="#094188" stroke="white" stroke-width="2" stroke-miterlimit="3.42857" stroke-linecap="round" stroke-linejoin="round"/>
<path fill-rule="evenodd" clip-rule="evenodd" d="M38.3591 49.129C29.4002 46.3502 19.8905 51.3522 17.114 60.3035C14.3375 69.2549 19.339 78.7877 28.2979 81.5665C37.2569 84.3454 46.7751 79.3162 49.5515 70.3648C52.328 61.4134 47.3181 51.9079 38.3591 49.129ZM35.6351 57.9113C39.7339 59.1827 42.0322 63.543 40.7619 67.6385C39.4916 71.7339 35.1293 74.0283 31.0304 72.757C26.9315 71.4856 24.6333 67.1253 25.9036 63.0298C27.1739 58.9344 31.5362 56.64 35.6351 57.9113Z" fill="white"/>
</svg>
