<svg width="79" height="119" viewBox="0 0 79 119" fill="none" xmlns="http://www.w3.org/2000/svg">
<path d="M67.4376 3.44426L67.4752 3.44661L67.5126 3.45084C71.3564 3.88553 73.9448 5.23952 75.457 7.30209C76.9504 9.33904 77.1823 11.7819 76.942 13.9571L76.9244 14.1168L76.8734 14.2691L44.8911 109.708L44.8797 109.742L44.8666 109.776C42.427 116.041 34.2065 119.023 28.4171 114.858L28.4122 114.854L5.27896 98.0688C2.98483 96.643 1.94909 94.5033 1.62344 92.2787C1.30382 90.0953 1.65417 87.7801 2.11592 85.8044L2.14043 85.6995L2.17969 85.5992L32.3007 8.61883C33.2746 5.88264 34.5668 4.01339 36.315 2.92532C38.0629 1.83744 40.019 1.68655 41.9671 1.85245L67.4376 3.44426Z" fill="#094188" stroke="white" stroke-width="3"/>
<path d="M65.5119 4.1907L65.5845 3.80481C67.0284 3.97527 68.2353 4.36862 69.1935 5.01298C70.1712 5.6705 70.8151 6.54011 71.187 7.52197C71.8943 9.38962 71.5758 11.5624 71.1534 13.3626L71.1376 13.43L71.1156 13.4957L40.1544 106.06C40.1544 106.06 40.1544 106.06 40.1544 106.06C39.4099 108.286 38.3848 110.303 36.7263 111.504C34.9528 112.788 32.7742 112.926 30.2786 112.073L30.0923 112.01L29.9287 111.9L5.77762 95.7218C3.59249 94.3756 2.42634 92.5244 1.97896 90.453C1.54477 88.4427 1.8032 86.3065 2.26396 84.3351L2.28521 84.2442L2.31757 84.1566L30.3647 8.247C31.325 5.54297 32.6011 3.69282 34.3313 2.61592C36.0637 1.53766 38.002 1.39169 39.9282 1.55764L39.9303 1.55782L65.546 3.80187L65.5119 4.1907Z" stroke="white" stroke-width="3"/>
<ellipse cx="49.9308" cy="8.29389" rx="1.5" ry="2" transform="rotate(13.6675 49.9308 8.29389)" fill="white"/>
</svg>
