<svg width="74" height="65" viewBox="0 0 74 65" fill="none" xmlns="http://www.w3.org/2000/svg">
<path d="M11.3203 50.1875L11.4604 49.5851L10.984 49.1907C4.76328 44.0406 1 37.0951 1 29.5C1 13.9594 16.8946 1 37 1C57.1054 1 73 13.9594 73 29.5C73 45.0406 57.1054 58 37 58C33.1127 58 29.3715 57.5117 25.8679 56.6096L25.5206 56.5202L25.1956 56.6718L11.6645 62.9864C10.1528 63.6918 8.49277 62.3457 8.87061 60.721L11.3203 50.1875Z" fill="#094188" stroke="white" stroke-width="2"/>
<path d="M22 17C20.8954 17 20 17.8954 20 19V37C20 38.1046 20.8954 39 22 39H44C45.1046 39 46 38.1046 46 37V32.8462L52.1619 35.6901C53.4871 36.3018 55 35.3338 55 33.8742V22.0178C55 20.5859 53.5394 19.6179 52.2207 20.1758L46 22.8077V19C46 17.8954 45.1046 17 44 17H22Z" fill="white"/>
</svg>
