<svg width="50" height="32" viewBox="0 0 13.229 8.467" version="1.1" id="svg64945" xml:space="preserve" xmlns="http://www.w3.org/2000/svg">
    <g id="layer1" transform="translate(-6008.523 162)">
        <g id="g7-5-6-9-4-9" style="stroke-width:3.31091" transform="matrix(.07992 0 0 .0799 6008.523 -162)">
            <path id="XMLID_4_-9-8-9-9" d="M150.698 0H14.823c-.566 0-1.133 0-1.698.003-.477.004-.953.009-1.43.022-1.039.028-2.087.09-3.113.274a10.51 10.51 0 0 0-2.958.975 9.932 9.932 0 0 0-4.35 4.35 10.463 10.463 0 0 0-.975 2.96C.113 9.611.052 10.658.024 11.696c-.013.477-.019.953-.022 1.43C0 13.69 0 14.256 0 14.823v76.318c0 .567 0 1.132.002 1.699.003.476.009.953.022 1.43.028 1.036.09 2.084.275 3.11a10.46 10.46 0 0 0 .974 2.96 9.897 9.897 0 0 0 1.83 2.52 9.874 9.874 0 0 0 2.52 1.83c.947.483 1.917.79 2.96.977 1.025.183 2.073.245 3.112.273.477.011.953.018 1.43.02.565.004 1.132.004 1.698.004h135.875c.565 0 1.132 0 1.697-.004.476-.002.952-.01 1.431-.02 1.037-.028 2.085-.09 3.113-.273a10.478 10.478 0 0 0 2.958-.977 9.955 9.955 0 0 0 4.35-4.35c.483-.947.789-1.917.974-2.96.186-1.026.246-2.074.274-3.11.013-.477.02-.954.022-1.43.004-.567.004-1.132.004-1.699V14.824c0-.567 0-1.133-.004-1.699a64.257 64.257 0 0 0-.022-1.429c-.028-1.038-.088-2.085-.274-3.112a10.4 10.4 0 0 0-.974-2.96 9.941 9.941 0 0 0-4.35-4.35A10.52 10.52 0 0 0 156.939.3c-1.028-.185-2.076-.246-3.113-.274a71.413 71.413 0 0 0-1.431-.022C151.83 0 151.263 0 150.698 0Z" style="fill:#4d4d4d;fill-opacity:1;stroke-width:3.31091"/>
            <path id="XMLID_3_-3-7-6-0" fill="#fff" d="m150.698 3.532 1.672.003c.452.003.905.008 1.36.02.792.022 1.719.065 2.583.22.75.135 1.38.34 1.984.648a6.392 6.392 0 0 1 2.804 2.807c.306.6.51 1.226.645 1.983.154.854.197 1.783.218 2.58.013.45.019.9.02 1.36.005.557.005 1.113.005 1.671v76.318c0 .558 0 1.114-.004 1.682-.002.45-.008.9-.02 1.35-.022.796-.065 1.725-.221 2.589a6.855 6.855 0 0 1-.644 1.975 6.397 6.397 0 0 1-2.809 2.807c-.6.306-1.228.512-1.971.645-.881.157-1.847.2-2.574.22-.457.01-.912.017-1.379.019-.555.004-1.113.004-1.669.004H14.801c-.55 0-1.1 0-1.66-.004a72.32 72.32 0 0 1-1.35-.018c-.744-.02-1.71-.064-2.584-.22a6.938 6.938 0 0 1-1.986-.65 6.337 6.337 0 0 1-1.622-1.18 6.357 6.357 0 0 1-1.178-1.623 6.935 6.935 0 0 1-.647-1.985c-.155-.863-.198-1.787-.22-2.578a66.017 66.017 0 0 1-.02-1.355l-.002-1.327V14.474l.002-1.325c.003-.453.008-.905.02-1.357.022-.792.065-1.717.222-2.587a6.924 6.924 0 0 1 .646-1.981c.304-.598.7-1.144 1.18-1.623a6.385 6.385 0 0 1 1.624-1.18 6.96 6.96 0 0 1 1.98-.646c.865-.155 1.792-.198 2.586-.22.452-.012.905-.017 1.354-.02l1.677-.003h135.875" style="stroke-width:3.31091"/>
            <path style="opacity:1;fill:#4d4d4d;fill-opacity:1;stroke:#5665e7;stroke-width:6.6218;stroke-linejoin:miter;stroke-dasharray:none;stroke-opacity:1;paint-order:fill markers stroke" d="M82.76 33.114v39.737" id="path703-89"/>
            <path style="fill:#4d4d4d;fill-opacity:1;stroke:#5665e7;stroke-width:6.6218;stroke-linejoin:miter;stroke-dasharray:none;stroke-opacity:1;paint-order:fill markers stroke" d="M102.623 52.982H62.898" id="path703-8-3"/>
        </g>
    </g>
    <style type="text/css" id="style1070">
        .st0{fill:#5f6368}.st1{fill:#4285f4}.st2{fill:#34a853}.st3{fill:#fbbc04}.st4{fill:#ea4335}
    </style>
</svg>
