<svg width="21.128" height="25" viewBox="0 0 5.59 6.615" version="1.1" id="svg64945" xml:space="preserve" xmlns="http://www.w3.org/2000/svg">
    <g id="layer1" transform="translate(-277.692 160.192)">
        <path style="opacity:1;fill:#1a1838;fill-opacity:1;stroke:none;stroke-width:.0230277;stroke-dasharray:none" d="M279.355-160.192a.056.056 0 0 0-.028.008.056.056 0 0 0-.023.078l.289.521c-.555.289-.93.837-.93 1.466h3.649c0-.629-.375-1.177-.93-1.466l.288-.52a.056.056 0 0 0-.022-.08.069.069 0 0 0-.028-.007c-.02 0-.04.01-.051.03l-.292.526a1.945 1.945 0 0 0-.79-.166c-.282 0-.55.06-.79.166l-.291-.526a.057.057 0 0 0-.052-.03zm.29 1.1c.084 0 .153.07.153.153a.153.153 0 0 1-.153.152.153.153 0 0 1-.152-.152c0-.084.069-.153.152-.153zm1.684 0c.084 0 .153.07.153.153a.153.153 0 0 1-.153.152.153.153 0 0 1-.152-.152c0-.084.07-.153.152-.153zm-3.228 1.047a.407.407 0 0 0-.409.409v1.704c0 .228.182.41.41.41.227 0 .409-.182.409-.41v-1.704a.407.407 0 0 0-.41-.41zm4.772 0a.407.407 0 0 0-.409.409v1.704c0 .228.181.41.41.41.227 0 .408-.182.408-.41v-1.704a.407.407 0 0 0-.409-.41zm-4.21.07v2.645a.44.44 0 0 0 .441.44h.293v.903c0 .228.18.41.409.41.228 0 .409-.182.409-.41v-.902h.545v.902c0 .228.181.41.41.41.227 0 .408-.182.408-.41v-.902h.293a.44.44 0 0 0 .44-.441v-2.645z" id="path9521-4-0-3-9-0-9-2"/>
    </g>
    <style type="text/css" id="style1070">
        .st0{fill:#5f6368}.st1{fill:#4285f4}.st2{fill:#34a853}.st3{fill:#fbbc04}.st4{fill:#ea4335}
    </style>
</svg>
