<svg width="20" height="24.583" viewBox="0 0 5.292 6.504" version="1.1" id="svg64945" xml:space="preserve" xmlns="http://www.w3.org/2000/svg">
    <g id="layer1" transform="translate(-256.34 178.132)">
        <g id="g21210-7-93-25" transform="translate(262.222 -468.673)" style="fill:#e3e5f2;fill-opacity:1;stroke-width:.529167;stroke-dasharray:none">
            <path id="_Path_-2-9-1-3-5-44" data-name="&lt;Path&gt;" d="M-1.463 294a1.478 1.478 0 0 1 .704-1.24 1.513 1.513 0 0 0-1.192-.645c-.502-.053-.988.3-1.243.3-.26 0-.654-.295-1.078-.286a1.588 1.588 0 0 0-1.336.815c-.578 1-.147 2.47.406 3.278.277.396.6.838 1.024.822.414-.017.57-.264 1.07-.264.495 0 .64.264 1.072.254.444-.007.725-.397.992-.797a3.274 3.274 0 0 0 .453-.923A1.428 1.428 0 0 1-1.463 294z" style="fill:#e3e5f2;fill-opacity:1;stroke-width:.529167;stroke-dasharray:none"/>
            <path id="_Path_2-5-2-3-2-70-9" data-name="&lt;Path&gt;" d="M-2.279 291.583a1.455 1.455 0 0 0 .333-1.042 1.48 1.48 0 0 0-.958.495 1.385 1.385 0 0 0-.341 1.004 1.224 1.224 0 0 0 .966-.457z" style="fill:#e3e5f2;fill-opacity:1;stroke-width:.529167;stroke-dasharray:none"/>
        </g>
    </g>
    <style type="text/css" id="style1070">
        .st0{fill:#5f6368}.st1{fill:#4285f4}.st2{fill:#34a853}.st3{fill:#fbbc04}.st4{fill:#ea4335}
    </style>
</svg>
