<svg width="19.347" height="19.365" viewBox="0 0 5.119 5.124" version="1.1" id="svg64945" xml:space="preserve" xmlns="http://www.w3.org/2000/svg">
    <g id="layer1" transform="translate(-7474.479 80.963)">
        <path id="path275-5-6" style="fill:currentColor;fill-opacity:1;stroke-width:1.26501;-inkscape-stroke:none" d="M1508.968 146.972a.207.207 0 0 0-.113.042.207.207 0 0 0-.037.29l.521.677a.411.411 0 0 0-.016.117v.98c0 .235.19.424.424.424h4.53a.424.424 0 0 0 .426-.424v-.98c0-.041-.01-.08-.017-.118l.52-.675a.207.207 0 0 0-.036-.291.207.207 0 0 0-.112-.042.207.207 0 0 0-.041 0 .207.207 0 0 0-.137.08l-.492.636a.443.443 0 0 0-.11-.015h-4.53a.446.446 0 0 0-.11.015l-.492-.637a.207.207 0 0 0-.139-.079.207.207 0 0 0-.04 0zm1.682 1.232a.478.478 0 0 1 .479.478.478.478 0 0 1-.479.478.478.478 0 0 1-.477-.478.478.478 0 0 1 .477-.478zm2.76 0a.478.478 0 0 1 .479.478.478.478 0 0 1-.478.478.478.478 0 0 1-.478-.478.478.478 0 0 1 .478-.478zm-3.662 1.59a.424.424 0 0 0-.425.425v2.808c0 .236.19.425.425.425h4.53c.236 0 .425-.19.425-.425v-2.808a.424.424 0 0 0-.425-.424zm2.266.323c.832 0 1.51.679 1.51 1.51 0 .832-.678 1.51-1.51 1.51s-1.51-.678-1.51-1.51c0-.831.678-1.51 1.51-1.51zm0 .315a1.194 1.194 0 1 0 0 2.388 1.19 1.19 0 0 0 1.193-1.193c0-.661-.532-1.195-1.193-1.195zm0 .31c.485 0 .884.4.884.885a.887.887 0 0 1-.885.885.889.889 0 0 1-.861-.687h.446a.456.456 0 0 0 .415.262.457.457 0 0 0 .46-.46.457.457 0 0 0-.46-.46.455.455 0 0 0-.4.233h-.454a.889.889 0 0 1 .854-.658z" transform="matrix(.7905 0 0 .7905 6281.78 -197.144)"/>
    </g>
    <style type="text/css" id="style1070">
        .st0{fill:#5f6368}.st1{fill:#4285f4}.st2{fill:#34a853}.st3{fill:#fbbc04}.st4{fill:#ea4335}
    </style>
</svg>
