<svg width="17.571" height="19.568" viewBox="0 0 4.649 5.177" version="1.1" id="svg64945" xml:space="preserve" xmlns="http://www.w3.org/2000/svg">
    <g id="layer1" transform="translate(-7466.012 81.227)">
        <path id="path17-5-6-9" style="fill:currentColor;fill-opacity:1" d="M7466.284-81.227a.312.312 0 0 0-.056.008l2.37 2.411.74-.752-2.815-1.6a.452.452 0 0 0-.238-.067zm-.172.074c0 .003-.01.004-.01.006zm-.06.092a.404.404 0 0 0-.039.198v4.44c0 .08.013.15.036.206l2.383-2.422zm3.5 1.622-.023.022-.765.779.765.778-.085.083.011-.006.01-.005.985-.56c.282-.16.282-.42 0-.58zm-.954.969-2.373 2.411c.084.022.187.004.298-.058l2.815-1.6z"/>
    </g>
    <style type="text/css" id="style1070">
        .st0{fill:#5f6368}.st1{fill:#4285f4}.st2{fill:#34a853}.st3{fill:#fbbc04}.st4{fill:#ea4335}
    </style>
</svg>
