<svg width="18.117" height="21.757" viewBox="0 0 4.794 5.757" version="1.1" id="svg64945" xml:space="preserve" xmlns="http://www.w3.org/2000/svg">
    <g id="layer1" transform="translate(-257.761 159.458)">
        <g id="g51667-87-2-07-1" transform="translate(41.956 -289.413) scale(.85963)" style="fill:#000;stroke-width:.615573;stroke-dasharray:none">
            <path id="path48989-90-57-8-4" style="fill:#1a1838;fill-opacity:1;stroke:none;stroke-width:.615574;stroke-linecap:round;stroke-linejoin:round;stroke-dasharray:none;stroke-opacity:1;paint-order:fill markers stroke;stop-color:#000" d="M253.868 151.175c-.848.008-1.03.686-.964 1.566.07.953-.339.925-.818 1.816a1.988 1.988 0 0 0-.215.975.469.469 0 0 0-.219.18c-.053.084-.1.091-.197.121a.533.533 0 0 0-.334.247.752.752 0 0 0-.07.455c.014.132.033.245.027.281-.01.063-.06.2-.014.354a.4.4 0 0 0 .157.21.81.81 0 0 0 .326.12c.261.051.582.142.877.178.148.017.29.023.421-.004a.495.495 0 0 0 .33-.215.528.528 0 0 0 .078-.251c.186.05.39.082.613.09.237 0 .47-.026.69-.079.017.237.081.459.276.584a.5.5 0 0 0 .393.05c.13-.031.254-.098.38-.177.251-.16.504-.378.717-.537l.002-.002a.805.805 0 0 0 .24-.246.401.401 0 0 0 .051-.258c-.024-.159-.128-.26-.164-.313-.02-.03-.051-.14-.095-.265a.755.755 0 0 0-.26-.381.457.457 0 0 0-.074-.044c.007-.055.012-.112.016-.172.069-.992-.544-1.252-.926-2.123-.383-.872.033-2.028-1.013-2.147a1.943 1.943 0 0 0-.23-.013zm.305.824a.36.461 5.022 0 1 .34.434.36.461 5.022 0 1-.219.442c.076.09.126.18.125.25-.004.368.272.745.444 1.024.284.462.31.97.175 1.383a.5.5 0 0 0-.122.068c-.163.122-.274.345-.299.654-.013.17-.035.35-.05.53-.129.07-.355.156-.706.156-.346 0-.58-.108-.718-.2l-.012-.027a2.924 2.924 0 0 0-.073-.147c.237-.168.374-.534-.083-.87-.501-.368-.39-.71-.149-1.356.137-.367.34-.875.327-1.262-.002-.06.038-.15.101-.239a.426.253 83.714 0 1-.132-.322.426.253 83.714 0 1 .205-.451.426.253 83.714 0 1 .017 0 .426.253 83.714 0 1 .281.396.426.253 83.714 0 1 .004.061.264.264 0 0 1 .165-.003.36.461 5.022 0 1 0-.034.36.461 5.022 0 1 .355-.487.36.461 5.022 0 1 .024 0zm-.015.269a.157.265 6.286 0 0-.175.247.157.265 6.286 0 0 0 .093c.073.044.145.1.21.16a.157.265 6.286 0 0 .103-.219.157.265 6.286 0 0-.128-.28.157.265 6.286 0 0-.01 0zm-.817.034a.216.128 83.714 0 0-.103.23.216.128 83.714 0 0 .109.193.977.977 0 0 1 .143-.127.216.128 83.714 0 0 .002-.095.216.128 83.714 0 0-.15-.2zm-.099.782a.624.624 0 0 0 .563.433c.23.005.41-.187.499-.433-.164.104-.314.222-.515.218-.202-.004-.369-.142-.547-.218zm-1.196 2.676c.017 0 .036.002.055.006.105.02.245.111.373.333.145.25.314.504.416.725.052.11.085.208.095.291l.001.007c0 .004 0 .008.002.012l.001.018V157.203l-.001.003c0 .007 0 .014-.002.021l-.001.005a.107.107 0 0 1-.004.017l-.001.005v.001c0 .002 0 .003-.002.005a.085.085 0 0 1-.005.015v.004a.259.259 0 0 1-.034.061l-.013.016-.015.014-.018.012c-.006.004-.014.007-.021.01a.42.42 0 0 1-.065.022.62.62 0 0 1-.124.016H252.6a1.683 1.683 0 0 1-.244-.027l-.105-.018-.11-.022-.11-.023c-.147-.033-.297-.068-.436-.096a.132.132 0 0 0-.002 0 .553.553 0 0 1-.203-.066l-.016-.01-.023-.019a.117.117 0 0 1-.035-.072.372.372 0 0 1 .004-.078l.01-.065.012-.072.005-.047a.658.658 0 0 0-.007-.134l-.013-.085a1.236 1.236 0 0 1-.012-.085.528.528 0 0 1 .04-.298.355.355 0 0 1 .018-.03.184.184 0 0 1 .035-.039l.02-.014c.007-.004.014-.008.021-.01l.025-.01c.017-.006.038-.01.061-.018a1.06 1.06 0 0 0 .08-.027l.044-.019a.58.58 0 0 0 .069-.038l.022-.015a.48.48 0 0 0 .127-.133l.009-.014.01-.012.008-.009.003-.003a.188.188 0 0 1 .142-.058zm3.16.002h.008c.035 0 .07.012.103.033a.574.574 0 0 0 .41.063c.097-.015.135-.027.214.03l.028.023.012.01.003.003.008.008.016.02.005.006a.055.055 0 0 0 .007.009l.003.005.007.01s0 .002.002.003a.083.083 0 0 1 .008.013l.009.015.01.018v.003c.006.01.011.022.016.033l.004.01.004.01a.069.069 0 0 0 .003.007l.004.011c0 .002 0 .003.002.005l.012.034c.01.027.017.054.025.081l.025.082.015.04a.632.632 0 0 0 .104.184 1.644 1.644 0 0 1 .052.08.289.289 0 0 1 .022.044l.005.02c0 .006 0 .013.002.019 0 .006 0 .012-.002.019-.001.007-.004.014-.007.022a.15.15 0 0 1-.013.026l-.01.016-.013.017-.015.019a.584.584 0 0 1-.11.1l-.017.013a.132.132 0 0 0-.002 0c-.198.147-.414.332-.616.472a2.607 2.607 0 0 1-.21.128c-.012.007-.027.013-.04.019a.932.932 0 0 1-.14.052.54.54 0 0 1-.058.01l-.024.002h-.024l-.021-.004a.162.162 0 0 1-.04-.013l-.017-.01a.189.189 0 0 1-.017-.013c-.001 0-.002 0-.003-.002l-.017-.014a.236.236 0 0 1-.031-.036l-.003-.004-.011-.017-.004-.006-.01-.017c0-.002-.001-.005-.003-.007l-.008-.018-.004-.01-.006-.017a.784.784 0 0 1-.017-.058c-.005-.02-.009-.043-.013-.066v-.004a1.368 1.368 0 0 1-.012-.15l-.001-.034c-.002-.244.042-.547.064-.835.02-.255.109-.397.194-.46a.225.225 0 0 1 .131-.051z"/>
        </g>
    </g>
    <style type="text/css" id="style1070">
        .st0{fill:#5f6368}.st1{fill:#4285f4}.st2{fill:#34a853}.st3{fill:#fbbc04}.st4{fill:#ea4335}
    </style>
</svg>
