<svg width="20.122" height="23.756" viewBox="0 0 5.324 6.285" version="1.1" id="svg64945" xml:space="preserve" xmlns="http://www.w3.org/2000/svg">
    <g id="layer1" transform="translate(-246.302 177.717)">
        <g id="g50134-1-83" transform="translate(-5.33 -329.098)" style="fill:#fff;stroke-width:.529167;stroke-dasharray:none">
            <path id="path27" style="color:#000;fill:#e3e5f2;stroke-linecap:round;stroke-linejoin:round;-inkscape-stroke:none;paint-order:fill markers stroke" d="M254.324 151.381c-.435.004-.781.218-.943.535-.162.316-.178.693-.148 1.094.027.373-.018.473-.128.632-.109.16-.323.374-.544.786a.265.265 0 0 0-.002.006c-.132.261-.172.543-.182.822-.053.04-.111.07-.15.125.011-.006-.007.001-.053.016a.74.74 0 0 0-.442.338.911.911 0 0 0-.092.547c.007.061.016.115.02.154.002.013.001.023 0 .034a.739.739 0 0 0 .003.404.607.607 0 0 0 .236.324c.113.079.245.12.387.144h-.006c.207.041.49.122.773.156.141.017.291.027.447-.006a.265.265 0 0 0 .002-.002.687.687 0 0 0 .454-.303c.012-.02.009-.043.02-.064.111.019.217.047.339.051a.265.265 0 0 0 .012 0c.156 0 .308-.028.46-.053.05.162.06.337.225.444a.265.265 0 0 0 0 .002.69.69 0 0 0 .543.076c.156-.038.287-.11.406-.186.24-.152.461-.346.631-.473a.94.94 0 0 0 .283-.294.604.604 0 0 0 .075-.393.755.755 0 0 0-.171-.364.19.19 0 0 1-.015-.032c-.012-.037-.028-.09-.049-.149a1.116 1.116 0 0 0-.263-.375c0-.01.003-.02.004-.031a1.743 1.743 0 0 0-.294-1.113c-.18-.28-.376-.5-.523-.836-.133-.303-.132-.712-.203-1.107-.036-.198-.094-.402-.236-.575-.143-.173-.37-.29-.645-.32a1.897 1.897 0 0 0-.23-.014zm.003.264c.062 0 .128.004.198.012.9.102.542 1.096.87 1.845.33.75.856.972.796 1.825-.003.05-.008.1-.013.148.02.01.043.022.064.037.125.09.185.22.223.328.038.108.064.202.082.228.03.045.12.132.141.269a.342.342 0 0 1-.043.222.693.693 0 0 1-.207.21l-.002.003c-.184.137-.4.325-.616.462a1.13 1.13 0 0 1-.328.152.431.431 0 0 1-.338-.043c-.167-.108-.222-.298-.236-.501a2.63 2.63 0 0 1-.593.067 2.311 2.311 0 0 1-.528-.077.45.45 0 0 1-.066.216.424.424 0 0 1-.284.184 1.147 1.147 0 0 1-.362.004c-.253-.03-.53-.109-.754-.153a.696.696 0 0 1-.28-.102.346.346 0 0 1-.135-.182c-.04-.132.003-.25.012-.304.005-.03-.011-.128-.023-.241a.646.646 0 0 1 .06-.392.457.457 0 0 1 .287-.211c.084-.026.124-.032.17-.104a.404.404 0 0 1 .188-.156c-.012-.28.05-.57.185-.838.411-.766.763-.741.702-1.561-.056-.756.1-1.34.83-1.346zm.262.708a.309.397 5.022 0 0-.022 0 .309.397 5.022 0 0-.305.42.309.397 5.022 0 0 0 .03.228.228 0 0 0-.142.003.366.217 83.714 0 0-.002-.054.366.217 83.714 0 0-.242-.341.366.217 83.714 0 0-.015 0 .366.217 83.714 0 0-.175.388.366.217 83.714 0 0 .113.277c-.054.077-.09.153-.087.205.012.333-.163.77-.281 1.085-.208.556-.303.849.128 1.165.393.289.274.604.071.75.022.041.044.083.063.125l.01.023c.12.08.32.171.617.171.302 0 .497-.072.607-.134.013-.153.032-.309.044-.455.02-.265.117-.457.257-.562a.428.428 0 0 1 .104-.058 1.419 1.419 0 0 0-.15-1.19c-.148-.24-.385-.563-.382-.88.001-.06-.042-.137-.107-.214a.309.397 5.022 0 0 .187-.38.309.397 5.022 0 0-.291-.374zm-.013.232a.135.228 6.286 0 1 .009 0 .135.228 6.286 0 1 .11.241.135.228 6.286 0 1-.09.189 1.167 1.167 0 0 0-.18-.138.135.228 6.286 0 1 0-.08.135.228 6.286 0 1 .15-.212zm-.702.03a.186.11 83.714 0 1 .13.172.186.11 83.714 0 1-.002.081.833.833 0 0 0-.124.11.186.11 83.714 0 1-.094-.167.186.11 83.714 0 1 .09-.197zm-.086.67c.039.017.076.037.114.058l.114.06a.795.795 0 0 0 .178.064.45.45 0 0 0 .237-.026l.014-.005a.955.955 0 0 0 .152-.082l.052-.034.052-.034a.963.963 0 0 1-.071.148.64.64 0 0 1-.098.119.464.464 0 0 1-.12.08.36.36 0 0 1-.067.02l-.018.003h-.001a.205.205 0 0 1-.035.003h-.019a.402.402 0 0 1-.073-.008h-.003a.443.443 0 0 1-.142-.05.527.527 0 0 1-.124-.09l-.004-.004-.005-.005a.561.561 0 0 1-.133-.216zm-1.028 2.301v.003c-.05 0-.09.018-.121.05l-.003.003-.007.008-.01.012-.007.01a.415.415 0 0 1-.11.116l-.018.013a.524.524 0 0 1-.06.032l-.038.016a.738.738 0 0 1-.068.023l-.052.017-.022.008c-.007.002-.012.006-.018.009l-.017.011a.164.164 0 0 0-.03.034.235.235 0 0 0-.015.025l-.015.029a.457.457 0 0 0-.02.228.776.776 0 0 0 .01.072l.011.073a.547.547 0 0 1 .006.115c0 .014-.003.027-.005.04a2.637 2.637 0 0 1-.019.118.33.33 0 0 0-.004.068l.004.018a.09.09 0 0 0 .027.044l.02.016.014.01a.473.473 0 0 0 .174.056.114.114 0 0 1 .002 0c.12.024.248.054.375.082l.095.021.094.019.09.016.089.012c.042.006.083.008.121.01h.073a.482.482 0 0 0 .141-.025l.02-.008.018-.009.016-.01c.005-.003.01-.008.013-.012a.156.156 0 0 0 .013-.013l.01-.015a.264.264 0 0 0 .018-.037v-.004a.071.071 0 0 0 .006-.013l.002-.004v-.005c.003-.005.003-.01.004-.016v-.004l.003-.017v-.007l.001-.021v-.002a.352.352 0 0 0-.001-.033l-.002-.01v-.007a.88.88 0 0 0-.082-.25c-.089-.19-.234-.408-.358-.623-.11-.19-.23-.268-.32-.287h-.001a.272.272 0 0 0-.047-.005zm2.717.002h-.002a.194.194 0 0 0-.113.044c-.074.056-.15.177-.167.396-.02.248-.057.508-.055.718v.03a.982.982 0 0 0 .012.129v.003l.011.056a.448.448 0 0 0 .015.05l.005.015c0 .003.003.006.004.01l.007.014a.02.02 0 0 1 .004.006l.008.014c0 .002.003.003.004.005l.009.015.003.004.012.016.015.015.014.012.003.002a.123.123 0 0 0 .015.01l.015.01.034.011.018.003a.2.2 0 0 0 .042-.001c.015-.002.032-.004.05-.01.01-.001.019-.003.028-.007l.03-.01.063-.027a1.407 1.407 0 0 0 .213-.127c.174-.12.36-.279.53-.406a.114.114 0 0 1 .002 0 .627.627 0 0 0 .093-.08c.006-.005.011-.01.016-.017.005-.006.01-.01.013-.015l.011-.016.008-.013c.005-.01.01-.016.012-.023a.083.083 0 0 0 .006-.019c.002-.006.002-.01.002-.016l-.002-.016a.125.125 0 0 0-.004-.017.245.245 0 0 0-.032-.06l-.032-.047a5.285 5.285 0 0 1-.058-.087.594.594 0 0 1-.017-.035l-.014-.035a.467.467 0 0 1-.013-.035l-.021-.071a2.004 2.004 0 0 0-.022-.07l-.011-.029-.002-.004c0-.003-.003-.006-.004-.009l-.003-.007a.05.05 0 0 0-.003-.008c0-.003-.003-.005-.004-.008l-.013-.028v-.003l-.01-.015-.008-.013-.007-.012s0-.002-.002-.003l-.006-.009c0-.002-.002-.003-.003-.004l-.006-.008-.004-.005-.014-.017-.007-.007-.003-.003-.01-.01v.001a.17.17 0 0 0-.024-.02c-.069-.048-.1-.038-.185-.026a.495.495 0 0 1-.352-.054.173.173 0 0 0-.088-.029h-.007z"/>
        </g>
    </g>
    <style type="text/css" id="style1070">
        .st0{fill:#5f6368}.st1{fill:#4285f4}.st2{fill:#34a853}.st3{fill:#fbbc04}.st4{fill:#ea4335}
    </style>
</svg>
