<svg width="162" height="28" viewBox="0 0 162 28" fill="none" xmlns="http://www.w3.org/2000/svg">
    <path d="M136.481 12.828c0-.963-.783-1.743-1.748-1.743h-3.395v9.322h-2.093v-9.999c0-.78.634-1.41 1.415-1.41h4.073a3.836 3.836 0 0 1 3.841 3.83c0 2.116-1.72 3.83-3.841 3.83h-2.67v-2.087h2.67c.965 0 1.748-.78 1.748-1.743zM145.484 8.98a3.857 3.857 0 0 1 3.862 3.851 3.853 3.853 0 0 1-2.611 3.645l2.747 3.927-.113.078h-2.384l-2.786-3.981c-.561-.803.015-1.904.996-1.904h.289c.977 0 1.769-.79 1.77-1.764a1.768 1.768 0 0 0-1.77-1.765h-3.385v9.362h-2.092V10.391c0-.78.633-1.41 1.414-1.41h4.063zM150.031 14.896c.001-3.294 2.678-5.964 5.98-5.964 1.14 0 2.207.319 3.115.872l.088.054.044.03c.452.32.578.94.278 1.41-.3.472-.916.622-1.398.35l-.046-.028-.114-.07a3.874 3.874 0 0 0-1.967-.531 3.882 3.882 0 0 0-3.887 3.877 3.882 3.882 0 0 0 3.887 3.876 3.883 3.883 0 0 0 3.601-5.341l-.038-.09-.021-.05a1.047 1.047 0 0 1 1.914-.837l.023.05.059.138c.285.697.442 1.458.442 2.254 0 3.293-2.677 5.963-5.98 5.963-3.302 0-5.98-2.67-5.98-5.964z" fill="#1373D9"/>
    <path d="M5.512 20.348V8.043H.775V5.595H12.92v2.448H8.182v12.305h-2.67zm15.37-11.36c2.432 0 4.133 1.782 4.133 4.295v7.065h-2.54v-6.55c0-1.503-.97-2.577-2.347-2.577-1.486 0-2.714 1.074-2.714 2.405v6.722h-2.627V5.337h2.627v5.433c.668-1.074 1.981-1.782 3.467-1.782zm14.199.257h2.627v11.103H35.08v-1.482c-.69 1.03-1.981 1.74-3.446 1.74-2.433 0-4.134-1.783-4.134-4.296V9.245h2.541v6.55c0 1.503.969 2.577 2.347 2.577 1.378 0 2.52-.923 2.692-2.104V9.245zm11.271-.257c2.433 0 4.134 1.782 4.134 4.295v7.065h-2.54v-6.55c0-1.503-.97-2.577-2.348-2.577s-2.519.923-2.691 2.104v7.023H40.28V9.245h2.627v1.482c.689-1.03 1.98-1.74 3.445-1.74zm15.126-3.651h2.627v15.01h-2.628V18.63c-.882 1.245-2.217 1.976-3.854 1.976-2.95 0-5.103-2.406-5.103-5.82 0-3.393 2.153-5.798 5.103-5.798 1.637 0 2.972.73 3.855 1.975V5.337zm-3.144 13.035c1.851 0 3.143-1.503 3.143-3.586s-1.291-3.565-3.143-3.565c-1.874 0-3.209 1.482-3.209 3.565s1.335 3.586 3.209 3.586zm13.594-.086c1.034 0 2.261-.472 2.886-1.117l1.658 1.718c-.97 1.031-2.907 1.719-4.522 1.719-3.187 0-5.814-2.427-5.814-5.842 0-3.328 2.498-5.776 5.663-5.776 3.445 0 5.448 2.598 5.448 6.7h-8.398c.323 1.524 1.486 2.598 3.08 2.598zm-.021-6.98c-1.464 0-2.649.924-3.036 2.385h5.857c-.302-1.396-1.25-2.384-2.821-2.384zm9.986.087c.71-1.482 2.153-2.405 3.983-2.405v2.233c-2.39 0-3.983 1.417-3.983 3.522v5.605h-2.627V9.245h2.627v2.148zm12.174-2.405c2.95 0 5.103 2.405 5.103 5.798 0 3.414-2.153 5.82-5.103 5.82-1.658 0-2.993-.752-3.876-2.019v1.76h-2.627V5.338h2.627v5.67c.883-1.268 2.218-2.02 3.876-2.02zm-.71 9.384c1.873 0 3.208-1.503 3.208-3.586s-1.335-3.565-3.209-3.565c-1.852 0-3.143 1.482-3.143 3.565s1.291 3.586 3.143 3.586zm9.201-10.802a1.524 1.524 0 0 1-1.507-1.503c0-.795.668-1.482 1.507-1.482a1.5 1.5 0 0 1 1.486 1.482c0 .795-.667 1.503-1.486 1.503zm-1.335 12.778V9.245h2.627v11.103h-2.627zm7.899-8.955c.711-1.482 2.153-2.405 3.984-2.405v2.233c-2.39 0-3.984 1.417-3.984 3.522v5.605h-2.627V9.245h2.627v2.148zm14.069-6.056h2.627v15.01h-2.627V18.63c-.882 1.245-2.217 1.976-3.854 1.976-2.95 0-5.103-2.406-5.103-5.82 0-3.393 2.153-5.798 5.103-5.798 1.637 0 2.972.73 3.854 1.975V5.337zm-3.143 13.035c1.851 0 3.143-1.503 3.143-3.586s-1.292-3.565-3.143-3.565c-1.874 0-3.209 1.482-3.209 3.565s1.335 3.586 3.209 3.586z" fill="#fff"/>
</svg>
