<svg width="235" height="30" viewBox="0 0 235 30" fill="none" xmlns="http://www.w3.org/2000/svg">
<g clip-path="url(#clip0_41_27)">
<path opacity="0.2" d="M7.10501 4.5H24.105V2H27.105V4.5H30.605V7.5H27.105V24.5H30.605V27.5H27.105V30H24.105V27.5H7.10501V30H4.10501V27.5H0.605011V24.5H4.10501V11.232H7.10501V24.5H24.105V7.5H0.605011V4.5H4.10501V2H7.10501V4.5Z" fill="#FEFFFF"/>
<path d="M5.605 0.5C6.00282 0.5 6.38436 0.658036 6.66566 0.939341C6.94697 1.22065 7.105 1.60218 7.105 2V4.53H15.619C21.962 4.53 27.104 9.672 27.105 16.015C27.105 22.359 21.954 27.5 15.612 27.5C9.262 27.5 4.104 22.353 4.104 16V10H7.104V16C7.104 20.693 10.916 24.5 15.612 24.5C20.3 24.5 24.104 20.7 24.104 16.015C24.104 11.328 20.305 7.529 15.619 7.529H1.605L1.451 7.521C1.08194 7.48273 0.740161 7.30903 0.491695 7.03347C0.24323 6.75791 0.105713 6.40004 0.105713 6.029C0.105713 5.65796 0.24323 5.30009 0.491695 5.02453C0.740161 4.74896 1.08194 4.57527 1.451 4.537L1.605 4.529H4.105V2C4.105 1.60218 4.26303 1.22065 4.54434 0.939341C4.82564 0.658036 5.20717 0.5 5.605 0.5ZM17.88 12.134C18.1097 11.8091 18.459 11.5888 18.8512 11.5214C19.2433 11.4541 19.6461 11.5453 19.971 11.775C20.2959 12.0047 20.5162 12.354 20.5836 12.7461C20.6509 13.1383 20.5597 13.5411 20.33 13.866L16.376 19.452C16.2227 19.6686 16.0278 19.8525 15.8027 19.993C15.5776 20.1335 15.3268 20.2278 15.0649 20.2704C14.803 20.313 14.5353 20.3031 14.2772 20.2413C14.0192 20.1794 13.7761 20.0668 13.562 19.91L10.968 18.01L10.848 17.913C10.5727 17.664 10.3995 17.3218 10.3618 16.9526C10.3242 16.5833 10.4248 16.2132 10.6442 15.9138C10.8636 15.6144 11.1863 15.407 11.5497 15.3316C11.9132 15.2563 12.2917 15.3184 12.612 15.506L12.742 15.59L14.515 16.889L17.88 12.134Z" fill="#FEFFFF"/>
<path d="M64.363 24.448L62.793 20.72H52.767L51.197 24.448H47L55.666 3.794H59.864L68.53 24.448H64.363ZM54.126 17.473H61.434L57.78 8.785L54.126 17.473ZM79.762 8.54399C83.898 8.54399 86.918 11.911 86.918 16.661C86.918 21.441 83.898 24.809 79.762 24.809C77.436 24.809 75.564 23.757 74.326 21.983V29.619H70.642V8.90499H74.326V11.37C75.564 9.597 77.436 8.54399 79.762 8.54399ZM78.765 21.682C81.392 21.682 83.264 19.578 83.264 16.662C83.264 13.745 81.392 11.671 78.765 11.671C76.168 11.671 74.356 13.745 74.356 16.661C74.356 19.578 76.168 21.682 78.765 21.682ZM98.856 8.54399C102.993 8.54399 106.012 11.911 106.012 16.661C106.012 21.441 102.993 24.809 98.856 24.809C96.531 24.809 94.658 23.757 93.421 21.983V29.619H89.737V8.90499H93.421V11.37C94.658 9.597 96.531 8.54399 98.856 8.54399ZM97.86 21.682C100.486 21.682 102.358 19.578 102.358 16.662C102.358 13.745 100.486 11.671 97.86 11.671C95.262 11.671 93.45 13.745 93.45 16.661C93.45 19.578 95.262 21.682 97.86 21.682ZM116.289 24.809C111.76 24.809 107.925 21.081 107.925 16.661C107.925 12.242 111.76 8.54399 116.289 8.54399C120.819 8.54399 124.654 12.242 124.654 16.661C124.654 21.081 120.819 24.809 116.289 24.809ZM116.289 21.682C118.856 21.682 121.03 19.397 121.03 16.662C121.03 13.956 118.856 11.671 116.289 11.671C113.692 11.671 111.518 13.956 111.518 16.661C111.518 19.397 113.692 21.682 116.289 21.682ZM129.117 6.56C127.94 6.56 127.003 5.568 127.003 4.456C127.003 3.343 127.94 2.381 129.117 2.381C130.264 2.381 131.201 3.343 131.201 4.456C131.201 5.568 130.264 6.56 129.117 6.56ZM127.245 24.448V8.90499H130.929V24.448H127.245ZM142.912 8.54399C146.324 8.54399 148.71 11.04 148.71 14.557V24.447H145.146V15.28C145.146 13.175 143.787 11.672 141.855 11.672C139.922 11.672 138.322 12.965 138.08 14.618V24.448H134.396V8.90599H138.08V10.981C139.047 9.537 140.858 8.54399 142.912 8.54399ZM159.895 21.111L160.952 23.576C160.077 24.328 158.808 24.809 157.631 24.809C155.034 24.809 153.222 22.945 153.222 20.329V11.941H150.957V8.90499H153.222V4.636H156.815V8.90599H160.349V11.941H156.815V19.878C156.815 20.93 157.48 21.682 158.356 21.682C158.99 21.682 159.563 21.442 159.895 21.111ZM181.235 8.54399C184.496 8.54399 186.942 11.04 186.942 14.557V24.447H183.349V15.158C183.349 13.114 182.111 11.671 180.329 11.671C178.306 11.671 176.917 13.024 176.917 14.918V24.448H173.323V15.158C173.323 13.114 172.086 11.671 170.274 11.671C168.281 11.671 166.862 13.024 166.862 14.918V24.448H163.178V8.90499H166.862V11.01C167.647 9.50599 169.247 8.54399 171.21 8.54399C173.414 8.54399 175.226 9.657 176.192 11.491C176.947 9.687 178.91 8.54399 181.235 8.54399ZM197.6 21.562C199.05 21.562 200.771 20.9 201.647 19.998L203.972 22.404C202.613 23.847 199.895 24.809 197.631 24.809C193.162 24.809 189.478 21.411 189.478 16.631C189.478 11.971 192.98 8.54399 197.419 8.54399C202.251 8.54399 205.059 12.182 205.059 17.924H193.282C193.735 20.059 195.366 21.562 197.6 21.562ZM197.57 11.792C195.517 11.792 193.856 13.084 193.312 15.128H201.526C201.103 13.174 199.774 11.792 197.57 11.792ZM216.163 8.54399C219.576 8.54399 221.961 11.04 221.961 14.557V24.447H218.398V15.28C218.398 13.175 217.039 11.672 215.107 11.672C213.174 11.672 211.574 12.965 211.332 14.618V24.448H207.648V8.90599H211.332V10.981C212.298 9.537 214.11 8.54399 216.163 8.54399ZM233.147 21.111L234.204 23.576C233.328 24.328 232.06 24.809 230.882 24.809C228.285 24.809 226.474 22.945 226.474 20.329V11.941H224.209V8.90499H226.474V4.636H230.067V8.90599H233.6V11.941H230.067V19.878C230.067 20.93 230.732 21.682 231.607 21.682C232.241 21.682 232.815 21.442 233.147 21.111Z" fill="white"/>
</g>
<defs>
<clipPath id="clip0_41_27">
<rect width="235" height="30" fill="white"/>
</clipPath>
</defs>
</svg>
