<svg width="82" height="36" viewBox="0 0 82 36" fill="none" xmlns="http://www.w3.org/2000/svg">
  <g clip-path="url(#clip0_5641_1048)">
    <path
      d="M45.1089 24.5174V10.2557H47.7041L52.3955 18.9539L57.1078 10.2557H59.6821V24.5174H57.1078V14.9889L52.3955 23.6869L47.7041 14.9889V24.5174H45.1089ZM67.0159 13.5357C69.8599 13.5357 71.6245 15.3417 71.6245 18.0612V24.5174H69.1542V23.2304C68.3653 24.2269 67.0159 24.7666 65.7705 24.7666C63.4869 24.7666 61.7639 23.4172 61.7639 21.3413C61.7639 19.2238 63.7358 17.7706 66.1441 17.7706C67.1198 17.7706 68.1784 17.9782 69.1542 18.3518V18.0612C69.1542 16.8157 68.4692 15.6116 66.5178 15.6116C65.5005 15.6116 64.5247 15.9645 63.6114 16.4212L62.7396 14.6567C64.255 13.9093 65.6665 13.5357 67.0159 13.5357ZM66.3309 22.9188C67.5556 22.9188 68.8637 22.2962 69.1542 21.1545V19.9503C68.3653 19.6805 67.4727 19.5351 66.5178 19.5351C65.2516 19.5351 64.2343 20.2409 64.2343 21.2581C64.2343 22.2754 65.1268 22.9188 66.3309 22.9188ZM75.2388 12.1656C74.4291 12.1656 73.7857 11.4805 73.7857 10.7124C73.7857 9.94432 74.4291 9.28003 75.2388 9.28003C76.0277 9.28003 76.671 9.94432 76.671 10.7124C76.671 11.4805 76.0277 12.1656 75.2388 12.1656ZM73.9518 24.5174V13.7848H76.4842V24.5174H73.9518ZM78.8683 24.5174V10.0066H81.401V24.5174H78.8683Z"
      fill="white" />
    <path
      d="M15.6907 6.15959H15.6944C16.8865 2.02061 22.0813 0 27.375 0C31.0325 0 34.3168 1.15048 36.5676 2.97614C35.1732 3.0448 33.8466 3.31575 32.6325 3.75312C34.4512 4.42417 36.0138 5.45738 37.172 6.73545C36.4036 6.60362 35.6067 6.53422 34.7895 6.53422C34.7015 6.53422 34.6135 6.53508 34.5259 6.53669C36.63 9.5665 37.8621 13.2396 37.8621 17.1987C37.8621 27.5824 29.3864 36 18.9311 36C8.63691 36 0 27.4398 0 17.1987C0 15.5812 0.216776 13.9107 0.636861 12.3449C0.746748 12.016 0.900456 11.7006 1.10455 11.5852C1.36001 11.4408 1.59218 11.8713 1.6298 12.0116C1.90723 13.046 2.28106 14.0466 2.74211 15.0049C2.70187 12.8581 3.62505 10.9032 4.89549 9.21174C5.74219 8.08431 6.52712 7.03917 6.88973 4.02408C6.91407 3.82167 7.10728 3.67598 7.30232 3.73937C10.059 4.63571 11.5881 9.57284 11.3586 13.3847C12.8815 13.6008 12.819 11.6424 12.819 11.6424C12.3322 10.1568 12.6568 7.3951 15.6857 6.15959H15.6907Z"
      fill="url(#paint0_linear_5641_1048)" />
    <path opacity="0.9"
      d="M37.2428 12.1035C37.7032 22.5791 29.1435 31.6105 18.7055 31.6105C8.93453 31.6105 0.927416 24.0124 0.203181 14.3686C0.0755733 15.2595 0.00649073 16.1695 0 17.0944C0.0741566 27.4143 8.69026 36.0001 18.9308 36.0001C29.3863 36.0001 37.8621 27.4728 37.8621 16.9539C37.8621 15.2777 37.6469 13.6521 37.2428 12.1035Z"
      fill="url(#paint1_radial_5641_1048)" />
    <path
      d="M18.7848 7.42615C18.5836 7.07258 17.6554 6.54979 17.25 6.45867C18.7848 1.57158 26.6061 0.0711593 31.393 0.935851C33.3849 1.29568 35.866 2.37494 36.6206 2.93512C34.4024 1.13462 31.1656 0 27.5611 0C22.3439 0 17.2243 1.99276 16.0494 6.07469H16.0458H16.0409C13.0558 7.29318 12.7363 10.0176 13.216 11.4828C13.6764 9.73513 15.868 7.58742 18.7848 7.42615Z"
      fill="url(#paint2_radial_5641_1048)" />
    <path
      d="M24.0397 3.74671C19.6575 4.68778 18.2254 4.99539 16.7586 6.51723C18.4058 1.75738 22.6106 0.792951 27.6207 2.96237C26.2418 3.27375 25.0608 3.52745 24.0397 3.74671Z"
      fill="url(#paint3_linear_5641_1048)" />
    <path
      d="M1.06886 11.4691C-0.0910974 16.1988 0.805228 21.7582 6.07519 26.4238C4.50628 24.7153 2.59097 18.406 6.8179 13.8984C7.10274 13.5947 7.59258 13.8181 7.60803 14.2334C7.60803 26.9096 17.2171 28.4156 22.8339 27.8239C20.1226 27.6723 12.6188 24.9729 19.2886 23.7355C22.775 23.0887 28.2413 22.0745 28.2413 17.1902C28.2413 9.27134 22.0932 6.95615 18.3654 7.3006C15.8139 7.5364 13.5431 9.14871 12.8439 11.3413C13.1122 12.2059 12.0981 13.3494 11.3843 13.2478C11.6134 9.43109 10.0866 4.32631 7.3341 3.42883C7.13935 3.36536 6.94644 3.51123 6.92214 3.7139C6.56007 6.73283 5.77632 7.7793 4.93089 8.90817C3.66236 10.6018 2.74057 12.5592 2.78075 14.7087C2.32039 13.7492 1.94713 12.7474 1.67011 11.7116C1.63901 11.5954 1.47022 11.2714 1.26588 11.2561C1.15527 11.2478 1.09673 11.3555 1.06886 11.4691Z"
      fill="url(#paint4_radial_5641_1048)" />
    <path
      d="M18.3104 25.8625C24.1144 28.7498 33.475 23.886 31.3461 14.2759C28.6714 21.1313 24.3852 26.1236 18.3104 25.8625Z"
      fill="url(#paint5_linear_5641_1048)" />
    <path
      d="M6.87213 13.7986C6.96582 13.6814 7.08517 13.6413 7.19799 13.6595C3.92913 18.3177 6.56559 26.4996 8.37517 28.5094C8.47623 28.844 6.65862 27.1037 6.40797 26.6961C5.03166 25.3316 3.05905 18.5695 6.87213 13.7986Z"
      fill="url(#paint6_linear_5641_1048)" />
    <path
      d="M19.0863 8.6897C24.1426 8.6897 28.2415 12.7191 28.2415 17.6897C28.2415 19.6313 27.616 21.4293 26.5522 22.8997C24.1273 25.5157 21.163 25.9609 19.2912 25.8853C18.9657 25.8722 18.7822 26.2717 19.0515 26.4518C19.1814 26.5387 19.3083 26.6151 19.4331 26.6832C19.318 26.6875 19.2024 26.6897 19.0863 26.6897C14.03 26.6897 9.93115 22.6603 9.93115 17.6897C9.93115 12.7191 14.03 8.6897 19.0863 8.6897Z"
      fill="url(#paint7_linear_5641_1048)" />
    <path
      d="M20.4178 5.52875C21.507 5.30494 21.4117 4.60125 21.4117 4.60125C21.4117 4.60125 20.8667 4.18288 19.7875 4.41472C18.7772 4.63181 18.6207 5.1012 18.6207 5.1012C18.6207 5.1012 19.1726 5.78467 20.4178 5.52875Z"
      fill="white" />
    <path opacity="0.2"
      d="M18.6206 12.6044L16.3626 17.6897L15.2068 17.1886L17.4649 12.1035L18.6206 12.6044Z"
      fill="#1373D9" />
    <path opacity="0.2"
      d="M20.1724 12.6044L17.9143 17.6897L16.7586 17.1886L19.0165 12.1035L20.1724 12.6044Z"
      fill="#1373D9" />
    <path opacity="0.2"
      d="M22.6551 17.0095L20.7757 21.1034L19.5516 20.5421L21.431 16.4482L22.6551 17.0095Z"
      fill="#1373D9" />
    <path
      d="M21.1824 11.4827C21.9891 11.4827 22.5292 12.3829 22.2201 13.1892L22.2048 13.2274L21.374 15.2115L21.3742 15.2116L19.0565 20.7476L19.0563 20.7474L18.6376 21.7475L22.5679 18.0025H21.1836L21.7465 16.655H24.2122C24.4689 16.655 24.6986 16.8295 24.7885 17.0927C24.8785 17.3559 24.8096 17.6526 24.6161 17.8371L18.1843 23.966C17.4779 24.6392 16.4321 23.7826 16.8224 22.8503L18.6166 18.5644L19.9516 15.3761H19.9515L21.0174 12.8302H17.6784C17.4195 12.8302 17.1855 12.9962 17.0792 13.2529L17.0692 13.278L15.8076 16.655H18.4411L17.8781 18.0025H14.8911C14.6862 18.0025 14.4946 17.8908 14.3803 17.7044C14.266 17.5181 14.244 17.2815 14.3216 17.0737L15.9303 12.7678L15.9586 12.6957C16.2639 11.9592 16.9355 11.4827 17.6784 11.4827H21.1824Z"
      fill="url(#paint8_linear_5641_1048)" />
  </g>
  <defs>
    <linearGradient id="paint0_linear_5641_1048" x1="6.57083" y1="6.19698" x2="33.0871"
      y2="31.1013" gradientUnits="userSpaceOnUse">
      <stop stop-color="#1B91F3" />
      <stop offset="1" stop-color="#0B68CB" />
    </linearGradient>
    <radialGradient id="paint1_radial_5641_1048" cx="0" cy="0" r="1"
      gradientTransform="matrix(6.37866 14.7716 -14.0654 6.14768 6.52128 14.4263)"
      gradientUnits="userSpaceOnUse">
      <stop offset="0.525579" stop-color="#0B4186" stop-opacity="0" />
      <stop offset="1" stop-color="#0B4186" stop-opacity="0.45" />
    </radialGradient>
    <radialGradient id="paint2_radial_5641_1048" cx="0" cy="0" r="1"
      gradientTransform="matrix(-2.07618 -2.6416 4.39828 -3.41441 19.7189 8.06135)"
      gradientUnits="userSpaceOnUse">
      <stop stop-color="#A29CF6" stop-opacity="0" />
      <stop offset="1" stop-color="#A39BF6" />
    </radialGradient>
    <linearGradient id="paint3_linear_5641_1048" x1="13.7606" y1="13.2808" x2="24.6222"
      y2="2.20293" gradientUnits="userSpaceOnUse">
      <stop stop-color="#0F5DB0" />
      <stop offset="1" stop-color="#0F5DB0" stop-opacity="0" />
    </linearGradient>
    <radialGradient id="paint4_radial_5641_1048" cx="0" cy="0" r="1"
      gradientTransform="matrix(10.8285 -22.3706 27.7476 13.3216 11.8164 27.1623)"
      gradientUnits="userSpaceOnUse">
      <stop offset="0.0160882" stop-color="#094188" />
      <stop offset="0.967387" stop-color="#0B4186" stop-opacity="0" />
    </radialGradient>
    <linearGradient id="paint5_linear_5641_1048" x1="30.8341" y1="19.1382" x2="29.7151"
      y2="27.9425" gradientUnits="userSpaceOnUse">
      <stop stop-color="#7B8BE9" stop-opacity="0" />
      <stop offset="1" stop-color="#7B8BE9" />
    </linearGradient>
    <linearGradient id="paint6_linear_5641_1048" x1="4.65839" y1="13.6298" x2="7.66295"
      y2="25.8661" gradientUnits="userSpaceOnUse">
      <stop offset="0.104632" stop-color="#C59FF9" />
      <stop offset="1" stop-color="#C59FF9" stop-opacity="0" />
    </linearGradient>
    <linearGradient id="paint7_linear_5641_1048" x1="20.3579" y1="11.7897" x2="20.8986"
      y2="32.7901" gradientUnits="userSpaceOnUse">
      <stop stop-color="white" />
      <stop offset="0.81088" stop-color="#BEE1FE" />
      <stop offset="1" stop-color="#96CEFD" />
    </linearGradient>
    <linearGradient id="paint8_linear_5641_1048" x1="14.2759" y1="11.4827" x2="21.7036"
      y2="25.8247" gradientUnits="userSpaceOnUse">
      <stop stop-color="#6AA9E5" />
      <stop offset="0.994972" stop-color="#0D5BB2" />
    </linearGradient>
    <clipPath id="clip0_5641_1048">
      <rect width="82" height="36" fill="white" />
    </clipPath>
  </defs>
</svg>
    