<svg width="273" height="80" viewBox="0 0 273 80" fill="none" xmlns="http://www.w3.org/2000/svg">
<path d="M93.7753 50.3672L92.2053 46.6395H82.1801L80.61 50.3672H76.4127L85.0791 29.7137H89.2765L97.9424 50.3672H93.7753ZM83.5389 43.3926H90.8465L87.1927 34.7043L83.5389 43.3926ZM109.174 34.4638C113.311 34.4638 116.331 37.8309 116.331 42.5809C116.331 47.3609 113.311 50.7281 109.174 50.7281C106.849 50.7281 104.977 49.6759 103.739 47.902V55.5384H100.055V34.8245H103.739V37.2897C104.977 35.516 106.849 34.4638 109.174 34.4638ZM108.178 47.6013C110.805 47.6013 112.677 45.4971 112.677 42.5809C112.677 39.6647 110.805 37.5904 108.178 37.5904C105.581 37.5904 103.769 39.6647 103.769 42.5809C103.769 45.4971 105.581 47.6013 108.178 47.6013ZM128.269 34.4638C132.405 34.4638 135.425 37.8309 135.425 42.5809C135.425 47.3609 132.405 50.7281 128.269 50.7281C125.943 50.7281 124.071 49.6759 122.833 47.902V55.5384H119.149V34.8245H122.833V37.2897C124.071 35.516 125.943 34.4638 128.269 34.4638ZM127.272 47.6013C129.899 47.6013 131.771 45.4971 131.771 42.5809C131.771 39.6647 129.899 37.5904 127.272 37.5904C124.675 37.5904 122.863 39.6647 122.863 42.5809C122.863 45.4971 124.675 47.6013 127.272 47.6013ZM145.702 50.7281C141.172 50.7281 137.338 47.0004 137.338 42.5809C137.338 38.1616 141.172 34.4638 145.702 34.4638C150.232 34.4638 154.066 38.1616 154.066 42.5809C154.066 47.0004 150.232 50.7281 145.702 50.7281ZM145.702 47.6013C148.269 47.6013 150.443 45.3168 150.443 42.5809C150.443 39.8752 148.269 37.5904 145.702 37.5904C143.105 37.5904 140.931 39.8752 140.931 42.5809C140.931 45.3168 143.105 47.6013 145.702 47.6013ZM158.53 32.4796C157.352 32.4796 156.416 31.4875 156.416 30.3752C156.416 29.2628 157.352 28.3008 158.53 28.3008C159.677 28.3008 160.613 29.2628 160.613 30.3752C160.613 31.4875 159.677 32.4796 158.53 32.4796ZM156.658 50.3672V34.8245H160.342V50.3672H156.658ZM172.325 34.4638C175.737 34.4638 178.122 36.959 178.122 40.4765V50.3672H174.559V41.198C174.559 39.0935 173.2 37.5904 171.267 37.5904C169.335 37.5904 167.735 38.8831 167.493 40.5366V50.3672H163.809V34.8245H167.493V36.8989C168.46 35.4559 170.271 34.4638 172.325 34.4638ZM189.308 47.0301L190.365 49.4957C189.49 50.2472 188.221 50.7281 187.043 50.7281C184.447 50.7281 182.635 48.8642 182.635 46.2485V37.861H180.37V34.8245H182.635V30.5555H186.228V34.8245H189.761V37.861H186.228V45.7977C186.228 46.8499 186.893 47.6013 187.768 47.6013C188.403 47.6013 188.976 47.3609 189.308 47.0301ZM210.648 34.4638C213.909 34.4638 216.355 36.959 216.355 40.4765V50.3672H212.761V41.0777C212.761 39.0334 211.523 37.5904 209.742 37.5904C207.718 37.5904 206.329 38.9432 206.329 40.8372V50.3672H202.736V41.0777C202.736 39.0334 201.498 37.5904 199.686 37.5904C197.694 37.5904 196.274 38.9432 196.274 40.8372V50.3672H192.59V34.8245H196.274V36.929C197.059 35.4258 198.66 34.4638 200.623 34.4638C202.827 34.4638 204.639 35.5761 205.605 37.41C206.36 35.6062 208.322 34.4638 210.648 34.4638ZM227.013 47.4813C228.463 47.4813 230.183 46.8197 231.059 45.9177L233.385 48.3231C232.026 49.7663 229.308 50.7281 227.043 50.7281C222.574 50.7281 218.89 47.3308 218.89 42.5508C218.89 37.891 222.393 34.4638 226.832 34.4638C231.663 34.4638 234.472 38.1015 234.472 43.8436H222.695C223.148 45.978 224.779 47.4813 227.013 47.4813ZM226.983 37.7106C224.929 37.7106 223.269 39.0033 222.725 41.0477H230.939C230.516 39.0935 229.187 37.7106 226.983 37.7106ZM245.576 34.4638C248.988 34.4638 251.374 36.959 251.374 40.4765V50.3672H247.811V41.198C247.811 39.0935 246.452 37.5904 244.519 37.5904C242.587 37.5904 240.986 38.8831 240.745 40.5366V50.3672H237.061V34.8245H240.745V36.8989C241.711 35.4559 243.523 34.4638 245.576 34.4638ZM262.56 47.0301L263.617 49.4957C262.741 50.2472 261.473 50.7281 260.295 50.7281C257.698 50.7281 255.887 48.8642 255.887 46.2485V37.861H253.622V34.8245H255.887V30.5555H259.48V34.8245H263.013V37.861H259.48V45.7977C259.48 46.8499 260.144 47.6013 261.02 47.6013C261.654 47.6013 262.228 47.3609 262.56 47.0301Z" fill="white"/>
<path d="M35.2074 24.2394H35.2128C36.976 18.0309 44.6594 15 52.4891 15C57.8987 15 62.7563 16.7257 66.0854 19.4642C64.023 19.5672 62.061 19.9736 60.2651 20.6297C62.9552 21.6363 65.2662 23.1861 66.9794 25.1032C65.8429 24.9054 64.6642 24.8013 63.4555 24.8013C63.3253 24.8013 63.1952 24.8026 63.0656 24.805C66.1778 29.3497 68 34.8595 68 40.798C68 56.3736 55.464 69 40 69C24.7744 69 12 56.1597 12 40.798C12 38.3718 12.3206 35.866 12.942 33.5174C13.1045 33.0241 13.3318 32.5509 13.6337 32.3778C14.0115 32.1612 14.3549 32.807 14.4106 33.0175C14.8209 34.5691 15.3738 36.0699 16.0557 37.5074C15.9962 34.2872 17.3616 31.3548 19.2407 28.8176C20.493 27.1265 21.6541 25.5588 22.1903 21.0361C22.2263 20.7325 22.512 20.514 22.8005 20.6091C26.8778 21.9536 29.1394 29.3593 28.8 35.077C31.0523 35.4013 30.96 32.4636 30.96 32.4636C30.24 30.2351 30.72 26.0927 35.2 24.2394H35.2074Z" fill="url(#paint0_linear_2461_4017)"/>
<path opacity="0.9" d="M67.084 33C67.765 48.7815 55.1046 62.3872 39.6664 62.3872C25.2145 62.3872 13.3717 50.9406 12.3005 36.4123C12.1118 37.7545 12.0096 39.1254 12 40.5187C12.1097 56.0655 24.8534 69 39.9996 69C55.4638 69 68 56.1537 68 40.307C68 37.7819 67.6818 35.333 67.084 33Z" fill="url(#paint1_radial_2461_4017)"/>
<path d="M38.7767 25.9943C38.4698 25.4708 37.0531 24.6968 36.4343 24.5619C38.7767 17.3267 50.7146 15.1054 58.021 16.3855C61.0612 16.9182 64.8482 18.516 66 19.3454C62.6142 16.6798 57.6739 15 52.1723 15C44.2092 15 36.3951 17.9502 34.6017 23.9935H34.5963H34.5888C30.0326 25.7974 29.5449 29.8309 30.2772 32C30.9796 29.4127 34.3249 26.233 38.7767 25.9943Z" fill="url(#paint2_radial_2461_4017)"/>
<path d="M47.7253 20.834C41.2702 22.249 39.1607 22.7116 37 25C39.4264 17.8426 45.6201 16.3924 53 19.6545C50.9689 20.1228 49.2292 20.5043 47.7253 20.834Z" fill="url(#paint3_linear_2461_4017)"/>
<path d="M13.6654 32.1565C11.9436 39.2944 13.2741 47.6843 21.0967 54.7253C18.7679 52.1469 15.9249 42.6254 22.1994 35.8227C22.622 35.3644 23.3492 35.7016 23.3721 36.3282C23.3721 55.4584 37.6358 57.7312 45.9732 56.8383C41.9486 56.6094 30.8101 52.5358 40.7107 50.6683C45.8859 49.6922 54 48.1616 54 40.7906C54 28.8398 44.8738 25.3459 39.3403 25.8657C35.5528 26.2216 32.1821 28.6548 31.1442 31.9636C31.5425 33.2686 30.0371 34.9943 28.9776 34.8408C29.3177 29.0809 27.0513 21.3771 22.9655 20.0227C22.6764 19.9269 22.39 20.147 22.3539 20.4529C21.8167 25.0089 20.6531 26.5881 19.3981 28.2918C17.5152 30.8477 16.1468 33.8017 16.2065 37.0456C15.5231 35.5975 14.9691 34.0856 14.5579 32.5226C14.5117 32.3471 14.2612 31.8583 13.9578 31.8351C13.7937 31.8226 13.7068 31.9851 13.6654 32.1565Z" fill="url(#paint4_radial_2461_4017)"/>
<path d="M39 54.7339C47.6985 59.1531 61.7272 51.7089 58.5369 37C54.5281 47.4925 48.1043 55.1335 39 54.7339Z" fill="url(#paint5_linear_2461_4017)"/>
<path d="M22.1672 37.202C22.3433 37.0368 22.5676 36.9802 22.7797 37.0059C16.6355 43.5728 21.591 55.1069 24.9924 57.9401C25.1823 58.4119 21.7659 55.9585 21.2948 55.3839C18.7078 53.4604 15 43.9277 22.1672 37.202Z" fill="url(#paint6_linear_2461_4017)"/>
<mask id="mask0_2461_4017" style="mask-type:alpha" maskUnits="userSpaceOnUse" x="27" y="29" width="28" height="27">
<path d="M40.5392 29C47.9738 29 54.0007 35.0269 54.0007 42.4615C54.0007 45.3657 53.081 48.0549 51.517 50.2542C47.9512 54.1671 43.5926 54.8329 40.8405 54.7199C40.3618 54.7003 40.092 55.2979 40.4879 55.5673C40.679 55.6972 40.8656 55.8115 41.0491 55.9134C40.8798 55.9199 40.7099 55.9231 40.5392 55.9231C33.1045 55.9231 27.0776 49.8962 27.0776 42.4615C27.0776 35.0269 33.1045 29 40.5392 29Z" fill="url(#paint7_linear_2461_4017)"/>
</mask>
<g mask="url(#mask0_2461_4017)">
<path d="M56.1544 25.769H23.8467V58.0767H56.1544V25.769Z" fill="url(#paint8_linear_2461_4017)"/>
</g>
<path d="M41.9301 23.8614C43.1001 23.3205 42.9977 21.6199 42.9977 21.6199C42.9977 21.6199 42.4124 20.6089 41.2532 21.1691C40.1681 21.6938 40 22.8281 40 22.8281C40 22.8281 40.5927 24.4799 41.9301 23.8614Z" fill="white"/>
<mask id="mask1_2461_4017" style="mask-type:luminance" maskUnits="userSpaceOnUse" x="29" y="32" width="22" height="21">
<path d="M50.7694 32.231H29.231V52.6925H50.7694V32.231Z" fill="white"/>
</mask>
<g mask="url(#mask1_2461_4017)">
<path opacity="0.2" d="M34.2533 35.1992H45.7449V33.3081H47.1764V35.1992H49.6915V36.6478H47.1764V48.2762H49.6915V49.7247H47.1764V51.6158H45.7449V49.7247H34.2533V51.6158H32.8218V49.7247H30.3069V48.2762H32.8218V39.3447H34.2533V48.2762H45.7449V36.6478H30.3069V35.1992H32.8218V33.3081H34.2533V35.1992Z" fill="#1373D9"/>
<path d="M33.8169 32.231C34.3455 32.231 34.7742 32.6597 34.7742 33.1883V34.8025H40.208C44.2559 34.8025 47.5375 38.0841 47.5377 42.1321C47.5377 46.1809 44.2504 49.4617 40.2033 49.4617C36.1511 49.4617 32.8596 46.1768 32.8596 42.1227V38.2936H34.7742V42.1227C34.7742 45.1176 37.2065 47.5471 40.2033 47.5471C43.1949 47.5471 45.6231 45.1218 45.6231 42.1321C45.6231 39.1415 43.1985 36.7171 40.208 36.7171H31.2642L31.215 36.7158C30.7092 36.6902 30.3069 36.2719 30.3069 35.7598C30.3069 35.2477 30.7092 34.8294 31.215 34.8038L31.2642 34.8025H32.8596V33.1883C32.8596 32.6597 33.2883 32.231 33.8169 32.231ZM41.6804 39.6157C41.9935 39.2176 42.5672 39.1309 42.9852 39.4269C43.4032 39.7227 43.5123 40.2926 43.241 40.7202L43.2135 40.7612L40.6911 44.3254C40.2921 44.8893 39.5203 45.0306 38.9496 44.6557L38.8949 44.6179L37.2398 43.4055L37.2007 43.3755C36.8079 43.0558 36.7306 42.4807 37.0333 42.0674C37.3358 41.6544 37.9075 41.5548 38.3305 41.8329L38.371 41.861L39.5029 42.6899L41.6509 39.6551L41.6804 39.6157Z" fill="url(#paint9_linear_2461_4017)"/>
</g>
<defs>
<linearGradient id="paint0_linear_2461_4017" x1="21.7186" y1="24.2955" x2="61.454" y2="61.0942" gradientUnits="userSpaceOnUse">
<stop stop-color="#1B91F3"/>
<stop offset="1" stop-color="#0B68CB"/>
</linearGradient>
<radialGradient id="paint1_radial_2461_4017" cx="0" cy="0" r="1" gradientTransform="matrix(9.43438 22.2533 -20.8035 9.26144 21.6452 36.4992)" gradientUnits="userSpaceOnUse">
<stop offset="0.525579" stop-color="#0B4186" stop-opacity="0"/>
<stop offset="1" stop-color="#0B4186" stop-opacity="0.45"/>
</radialGradient>
<radialGradient id="paint2_radial_2461_4017" cx="0" cy="0" r="1" gradientTransform="matrix(-3.16891 -3.91084 6.71316 -5.05497 40.2026 26.9347)" gradientUnits="userSpaceOnUse">
<stop stop-color="#A29CF6" stop-opacity="0"/>
<stop offset="1" stop-color="#A39BF6"/>
</radialGradient>
<linearGradient id="paint3_linear_2461_4017" x1="32.5838" y1="35.1704" x2="48.9197" y2="18.8494" gradientUnits="userSpaceOnUse">
<stop stop-color="#0F5DB0"/>
<stop offset="1" stop-color="#0F5DB0" stop-opacity="0"/>
</linearGradient>
<radialGradient id="paint4_radial_2461_4017" cx="0" cy="0" r="1" gradientTransform="matrix(16.0737 -33.7604 41.1884 20.1042 29.6189 55.8398)" gradientUnits="userSpaceOnUse">
<stop offset="0.0160882" stop-color="#094188"/>
<stop offset="0.967387" stop-color="#0B4186" stop-opacity="0"/>
</radialGradient>
<linearGradient id="paint5_linear_2461_4017" x1="57.7693" y1="44.442" x2="56.0214" y2="57.9083" gradientUnits="userSpaceOnUse">
<stop stop-color="#7B8BE9" stop-opacity="0"/>
<stop offset="1" stop-color="#7B8BE9"/>
</linearGradient>
<linearGradient id="paint6_linear_2461_4017" x1="18.0062" y1="36.9641" x2="21.2639" y2="54.654" gradientUnits="userSpaceOnUse">
<stop offset="0.104632" stop-color="#C59FF9"/>
<stop offset="1" stop-color="#C59FF9" stop-opacity="0"/>
</linearGradient>
<linearGradient id="paint7_linear_2461_4017" x1="42.4088" y1="33.6367" x2="43.2315" y2="65.0469" gradientUnits="userSpaceOnUse">
<stop stop-color="white"/>
<stop offset="0.81088" stop-color="#BEE1FE"/>
<stop offset="1" stop-color="#96CEFD"/>
</linearGradient>
<linearGradient id="paint8_linear_2461_4017" x1="32.9736" y1="29.4037" x2="55.0766" y2="51.3099" gradientUnits="userSpaceOnUse">
<stop offset="0.0677225" stop-color="white"/>
<stop offset="1" stop-color="#BEE1FE"/>
</linearGradient>
<linearGradient id="paint9_linear_2461_4017" x1="30.3069" y1="32.231" x2="39.238" y2="53.0262" gradientUnits="userSpaceOnUse">
<stop stop-color="#6AA9E5"/>
<stop offset="0.994972" stop-color="#0D5BB2"/>
</linearGradient>
</defs>
</svg>
