<svg width="196" height="80" viewBox="0 0 196 80" fill="none" xmlns="http://www.w3.org/2000/svg">
    <g clip-path="url(#a9fnauzeta)">
        <mask id="i2yzn9qfeb" style="mask-type:luminance" maskUnits="userSpaceOnUse" x="32" y="24" width="32" height="32">
            <path d="M64 24H32v32h32V24z" fill="#fff"/>
        </mask>
        <g mask="url(#i2yzn9qfeb)">
            <path opacity=".2" d="M32 42h32" stroke="#FEFFFF" stroke-width="3"/>
            <path d="M48 24.5c6.942 0 12.5 5.773 12.5 12.808v11.16c0 3.724-2.855 6.833-6.524 7.023l-.358.009c-3.639 0-6.908-2.914-7.108-6.667l-.01-.365V38.364h-3.42a.598.598 0 0 1-.424-1.02l4.71-4.71a.897.897 0 0 1 1.268 0l4.71 4.71a.598.598 0 0 1-.423 1.02H49.5v10.104l.006.203c.115 2.093 1.992 3.829 4.112 3.829l.197-.005c2.018-.106 3.685-1.832 3.685-4.027v-11.16c0-5.456-4.292-9.808-9.5-9.808s-9.5 4.352-9.5 9.808V40.5h-3v-3.192C35.5 30.273 41.058 24.5 48 24.5z" fill="#FEFFFF"/>
        </g>
    </g>
    <path d="M88.835 53.083c-4.35 0-8.034-1.474-10.835-4.09l2.653-3.28c2.322 2.1 5.012 3.427 8.33 3.427 3.132 0 4.753-1.548 4.753-3.354 0-2.1-1.806-2.8-5.86-3.76-5.233-1.215-8.881-2.726-8.881-7.48 0-4.423 3.76-7.666 9.103-7.666 4.017 0 7.039 1.363 9.582 3.538l-2.506 3.39c-2.212-1.916-4.754-2.985-7.26-2.985-2.543 0-4.276 1.548-4.276 3.317 0 2.064 1.88 2.801 5.897 3.722 5.27 1.18 8.809 2.875 8.809 7.482 0 4.533-3.465 7.739-9.509 7.739zm21.706-3.943c1.769 0 3.87-.811 4.938-1.917l2.838 2.949c-1.658 1.769-4.975 2.948-7.739 2.948-5.454 0-9.951-4.165-9.951-10.024 0-5.713 4.276-9.914 9.693-9.914 5.896 0 9.324 4.46 9.324 11.498h-14.373c.553 2.617 2.543 4.46 5.27 4.46zm-.037-11.978c-2.506 0-4.533 1.585-5.196 4.09h10.024c-.516-2.395-2.138-4.09-4.828-4.09zm22.693-3.98c4.165 0 7.076 3.059 7.076 7.37v12.126h-4.349v-11.24c0-2.58-1.658-4.423-4.017-4.423-2.359 0-4.312 1.584-4.606 3.611v12.052h-4.497V33.624h4.497v2.543c1.179-1.769 3.39-2.985 5.896-2.985zm25.704-6.265h4.496v25.76h-4.496V49.73c-1.511 2.138-3.797 3.39-6.597 3.39-5.049 0-8.734-4.127-8.734-9.986 0-5.823 3.685-9.951 8.734-9.951 2.8 0 5.086 1.253 6.597 3.39v-9.655zm-5.381 22.37c3.17 0 5.381-2.58 5.381-6.154 0-3.575-2.211-6.118-5.381-6.118-3.206 0-5.491 2.543-5.491 6.117 0 3.575 2.285 6.155 5.491 6.155z" fill="#fff"/>
    <defs>
        <clipPath id="a9fnauzeta">
            <path fill="#fff" transform="translate(32 24)" d="M0 0h32v32H0z"/>
        </clipPath>
    </defs>
</svg>
