<svg width="256" height="80" viewBox="0 0 256 80" fill="none" xmlns="http://www.w3.org/2000/svg">
<path d="M76.4015 23.945H76.4068C78.1253 17.9255 85.6139 14.9868 93.2453 14.9868C98.5178 14.9868 103.252 16.66 106.497 19.3152C104.487 19.415 102.575 19.8091 100.824 20.4452C103.446 21.4211 105.699 22.9238 107.368 24.7825C106.261 24.5908 105.112 24.4899 103.934 24.4899C103.807 24.4899 103.68 24.4911 103.554 24.4935C106.587 28.8999 108.363 34.2419 108.363 39.9997C108.363 55.1013 96.1448 67.3434 81.0727 67.3434C66.2329 67.3434 53.7822 54.8939 53.7822 39.9997C53.7822 37.6474 54.0947 35.2178 54.7003 32.9406C54.8587 32.4624 55.0803 32.0036 55.3745 31.8358C55.7428 31.6258 56.0775 32.2519 56.1317 32.456C56.5316 33.9603 57.0705 35.4155 57.7351 36.8092C57.6771 33.687 59.0079 30.8439 60.8394 28.3839C62.0601 26.7442 63.1916 25.2242 63.7142 20.8392C63.7493 20.5449 64.028 20.333 64.3092 20.4252C68.283 21.7288 70.4872 28.9091 70.1565 34.4528C72.3519 34.7672 72.2617 31.9189 72.2617 31.9189C71.56 29.7583 72.0278 25.7419 76.3943 23.945H76.4015Z" fill="url(#paint0_linear_2578_5494)"/>
<path opacity="0.9" d="M107.47 33.0361C108.134 48.0755 95.7949 61.0414 80.7478 61.0414C66.6625 61.0414 55.1199 50.1332 54.0759 36.288C53.8919 37.5671 53.7923 38.8735 53.783 40.2013C53.8899 55.0171 66.3104 67.3433 81.0727 67.3433C96.1448 67.3433 108.363 55.1011 108.363 39.9996C108.363 37.5932 108.053 35.2594 107.47 33.0361Z" fill="url(#paint1_radial_2578_5494)"/>
<path d="M80.4079 25.938C80.1136 25.4166 78.7559 24.6456 78.1629 24.5113C80.4079 17.3044 91.8485 15.0918 98.8504 16.3669C101.764 16.8975 105.393 18.4891 106.497 19.3152C103.252 16.66 98.5178 14.9868 93.2453 14.9868C85.6139 14.9868 78.1253 17.9255 76.4068 23.945H76.4015H76.3943C72.0278 25.7419 71.5604 29.7596 72.2622 31.9202C72.9356 29.343 76.1413 26.1758 80.4079 25.938Z" fill="url(#paint2_radial_2578_5494)"/>
<path d="M88.3383 20.9611C82.2081 22.1696 80.2048 22.5646 78.1529 24.5188C80.4573 18.4066 86.3392 17.1682 93.3476 19.9539C91.4185 20.3538 89.7665 20.6796 88.3383 20.9611Z" fill="url(#paint3_linear_2578_5494)"/>
<path d="M55.2636 32.1036C53.5889 38.9736 54.883 47.0486 62.4916 53.8253C60.2263 51.3437 57.4613 42.1795 63.5639 35.6322C63.9749 35.1911 64.6822 35.5156 64.7045 36.1187C64.7045 54.5309 78.5775 56.7184 86.6867 55.859C82.7725 55.6387 71.9389 51.7179 81.5682 49.9206C86.6017 48.9811 94.4936 47.5079 94.4936 40.4136C94.4936 28.9114 85.6174 25.5486 80.2355 26.0489C76.5518 26.3914 73.2732 28.7332 72.2639 31.9179C72.6513 33.1739 71.1871 34.8348 70.1565 34.6872C70.4872 29.1434 68.2829 21.7287 64.3091 20.4251C64.028 20.3329 63.7493 20.5448 63.7142 20.8392C63.1916 25.2242 62.0601 26.7442 60.8394 28.3839C59.0079 30.8439 57.6771 33.687 57.7351 36.8092C57.0705 35.4154 56.5316 33.9603 56.1317 32.4559C56.0868 32.287 55.8431 31.8165 55.5481 31.7942C55.3884 31.7822 55.3039 31.9386 55.2636 32.1036Z" fill="url(#paint4_radial_2578_5494)"/>
<path d="M79.9811 53.2031C88.506 57.5056 102.255 50.258 99.1281 35.9375C95.1993 46.153 88.9038 53.5922 79.9811 53.2031Z" fill="url(#paint5_linear_2578_5494)"/>
<path d="M63.5637 35.6321C63.7201 35.4642 63.9196 35.4067 64.1081 35.4328C58.6454 42.1081 63.0513 53.8328 66.0754 56.7128C66.2443 57.1923 63.2069 54.6984 62.788 54.1143C60.488 52.159 57.1913 42.4689 63.5637 35.6321Z" fill="url(#paint6_linear_2578_5494)"/>
<mask id="mask0_2578_5494" style="mask-type:alpha" maskUnits="userSpaceOnUse" x="68" y="28" width="27" height="27">
<path d="M81.1507 28.4375C88.3422 28.4375 94.1721 34.2787 94.1721 41.4844C94.1721 44.2991 93.2824 46.9055 91.7696 49.037C88.3206 52.8294 84.1044 53.4747 81.4421 53.3652C80.9793 53.3461 80.7181 53.9253 81.1012 54.1864C81.286 54.3123 81.4666 54.4231 81.6439 54.5219C81.4803 54.5281 81.3158 54.5312 81.1507 54.5312C73.9591 54.5312 68.1292 48.69 68.1292 41.4844C68.1292 34.2787 73.9591 28.4375 81.1507 28.4375Z" fill="url(#paint7_linear_2578_5494)"/>
</mask>
<g mask="url(#mask0_2578_5494)">
<path d="M96.8231 25.9375H65.634V57.1875H96.8231V25.9375Z" fill="url(#paint8_linear_2578_5494)"/>
</g>
<path d="M82.9556 23.7351C84.3918 23.2819 84.2663 21.8573 84.2663 21.8573C84.2663 21.8573 83.5475 21.0102 82.1247 21.4796C80.7926 21.9191 80.5861 22.8694 80.5861 22.8694C80.5861 22.8694 81.3138 24.2532 82.9556 23.7351Z" fill="white"/>
<mask id="mask1_2578_5494" style="mask-type:luminance" maskUnits="userSpaceOnUse" x="71" y="31" width="20" height="20">
<path d="M90.4294 31.875H71.7159V50.625H90.4294V31.875Z" fill="white"/>
</mask>
<g mask="url(#mask1_2578_5494)">
<path opacity="0.3" d="M71.716 42.4219H90.4295" stroke="#1373D9" stroke-width="1.29825"/>
<path d="M81.1685 32.11C85.2173 32.1627 88.4411 35.5525 88.4411 39.6725V46.2114C88.4411 48.495 86.6373 50.3906 84.358 50.3906C82.1308 50.3906 80.137 48.5469 80.137 46.2114V40.2914H78.1949L78.1662 40.2903C77.8836 40.2688 77.7437 39.9302 77.9282 39.7147L77.9477 39.6936L80.7019 36.9341C80.9002 36.7353 81.2182 36.7289 81.424 36.9153L81.4435 36.9341L84.1977 39.6936C84.4177 39.9142 84.2619 40.2914 83.9505 40.2914H82.0084V46.2114C82.0084 47.4566 83.1089 48.5156 84.358 48.5156C85.5554 48.5156 86.5698 47.5086 86.5698 46.2114V39.6725C86.5698 36.5559 84.1615 34.0633 81.2134 33.9862L81.0727 33.9844C78.0609 33.9844 75.5756 36.5066 75.5756 39.6725V41.8359H73.7043V39.6725C73.7043 35.5202 76.9791 32.1094 81.0727 32.1094L81.1685 32.11Z" fill="url(#paint9_linear_2578_5494)"/>
</g>
<path d="M129.409 52.2031C125.06 52.2031 121.374 50.7293 118.574 48.1122L121.227 44.8324C123.549 46.9332 126.239 48.2599 129.556 48.2599C132.689 48.2599 134.31 46.7117 134.31 44.9061C134.31 42.8054 132.504 42.1052 128.45 41.147C123.217 39.9308 119.569 38.4198 119.569 33.6656C119.569 29.2431 123.328 26 128.672 26C132.689 26 135.711 27.3636 138.254 29.538L135.748 32.9285C133.536 31.0121 130.994 29.9434 128.487 29.9434C125.945 29.9434 124.212 31.4913 124.212 33.2602C124.212 35.324 126.092 36.0612 130.109 36.9825C135.379 38.1618 138.917 39.8571 138.917 44.4638C138.917 48.9971 135.453 52.2031 129.409 52.2031ZM151.115 48.2599C152.884 48.2599 154.985 47.4489 156.053 46.3431L158.891 49.2918C157.233 51.061 153.916 52.24 151.152 52.24C145.697 52.24 141.201 48.0753 141.201 42.2158C141.201 36.5033 145.477 32.302 150.894 32.302C156.79 32.302 160.218 36.7614 160.218 43.8005H145.845C146.398 46.417 148.388 48.2599 151.115 48.2599ZM151.078 36.2822C148.572 36.2822 146.545 37.867 145.882 40.373H155.906C155.39 37.9775 153.768 36.2822 151.078 36.2822ZM173.771 32.302C177.936 32.302 180.847 35.3609 180.847 39.6728V51.7976H176.498V40.5573C176.498 37.9775 174.84 36.1348 172.481 36.1348C170.122 36.1348 168.169 37.7196 167.875 39.7465V51.7976H163.378V32.7442H167.875V35.2872C169.054 33.5182 171.265 32.302 173.771 32.302ZM199.475 26.0369H203.971V51.7976H199.475V48.8494C197.964 50.9871 195.678 52.24 192.878 52.24C187.829 52.24 184.144 48.1122 184.144 42.2526C184.144 36.4297 187.829 32.302 192.878 32.302C195.678 32.302 197.964 33.5551 199.475 35.6926V26.0369ZM194.094 48.407C197.264 48.407 199.475 45.8274 199.475 42.2526C199.475 38.6777 197.264 36.1348 194.094 36.1348C190.888 36.1348 188.603 38.6777 188.603 42.2526C188.603 45.8274 190.888 48.407 194.094 48.407Z" fill="white"/>
<defs>
<linearGradient id="paint0_linear_2578_5494" x1="63.2545" y1="23.9994" x2="101.796" y2="59.8795" gradientUnits="userSpaceOnUse">
<stop stop-color="#1B91F3"/>
<stop offset="1" stop-color="#0B68CB"/>
</linearGradient>
<radialGradient id="paint1_radial_2578_5494" cx="0" cy="0" r="1" gradientTransform="matrix(9.19518 21.2069 -20.276 8.82595 63.1837 36.3708)" gradientUnits="userSpaceOnUse">
<stop offset="0.525579" stop-color="#0B4186" stop-opacity="0"/>
<stop offset="1" stop-color="#0B4186" stop-opacity="0.45"/>
</radialGradient>
<radialGradient id="paint2_radial_2578_5494" cx="0" cy="0" r="1" gradientTransform="matrix(-3.03691 -3.89551 6.43353 -5.03516 81.7742 26.8747)" gradientUnits="userSpaceOnUse">
<stop stop-color="#A29CF6" stop-opacity="0"/>
<stop offset="1" stop-color="#A39BF6"/>
</radialGradient>
<linearGradient id="paint3_linear_2578_5494" x1="73.9591" y1="33.2039" x2="87.8324" y2="17.7901" gradientUnits="userSpaceOnUse">
<stop stop-color="#0F5DB0"/>
<stop offset="1" stop-color="#0F5DB0" stop-opacity="0"/>
</linearGradient>
<radialGradient id="paint4_radial_2578_5494" cx="0" cy="0" r="1" gradientTransform="matrix(15.6335 -32.4933 40.0605 19.3496 70.7802 54.8979)" gradientUnits="userSpaceOnUse">
<stop offset="0.0160882" stop-color="#094188"/>
<stop offset="0.967387" stop-color="#0B4186" stop-opacity="0"/>
</radialGradient>
<linearGradient id="paint5_linear_2578_5494" x1="98.3759" y1="43.183" x2="96.6851" y2="56.2965" gradientUnits="userSpaceOnUse">
<stop stop-color="#7B8BE9" stop-opacity="0"/>
<stop offset="1" stop-color="#7B8BE9"/>
</linearGradient>
<linearGradient id="paint6_linear_2578_5494" x1="59.8641" y1="35.3903" x2="63.6126" y2="53.1929" gradientUnits="userSpaceOnUse">
<stop offset="0.104632" stop-color="#C59FF9"/>
<stop offset="1" stop-color="#C59FF9" stop-opacity="0"/>
</linearGradient>
<linearGradient id="paint7_linear_2578_5494" x1="82.9592" y1="32.9314" x2="83.7581" y2="63.374" gradientUnits="userSpaceOnUse">
<stop stop-color="white"/>
<stop offset="0.81088" stop-color="#BEE1FE"/>
<stop offset="1" stop-color="#96CEFD"/>
</linearGradient>
<linearGradient id="paint8_linear_2578_5494" x1="74.4449" y1="29.4531" x2="95.8239" y2="50.6005" gradientUnits="userSpaceOnUse">
<stop offset="0.0677225" stop-color="white"/>
<stop offset="1" stop-color="#BEE1FE"/>
</linearGradient>
<linearGradient id="paint9_linear_2578_5494" x1="70.4198" y1="30.6542" x2="81.0036" y2="52.8834" gradientUnits="userSpaceOnUse">
<stop stop-color="#6AA9E5"/>
<stop offset="0.994972" stop-color="#0D5BB2"/>
</linearGradient>
</defs>
</svg>
