<svg width="144" height="80" viewBox="0 0 144 80" fill="none" xmlns="http://www.w3.org/2000/svg">
<g clip-path="url(#clip0_2461_2096)">
<path d="M76.6248 50.0806V28.8997H80.4789L87.4465 41.8179L94.445 28.8997H98.2683V50.0806H94.445V35.9292L87.4465 48.8472L80.4789 35.9292V50.0806H76.6248ZM109.16 33.771C113.384 33.771 116.005 36.4533 116.005 40.4921V50.0806H112.336V48.1692C111.164 49.6492 109.16 50.4507 107.31 50.4507C103.919 50.4507 101.36 48.4466 101.36 45.3636C101.36 42.2187 104.289 40.0605 107.865 40.0605C109.314 40.0605 110.887 40.3688 112.336 40.9238V40.4921C112.336 38.6423 111.319 36.8541 108.42 36.8541C106.909 36.8541 105.46 37.3782 104.104 38.0565L102.809 35.4359C105.06 34.326 107.156 33.771 109.16 33.771ZM108.143 47.7064C109.962 47.7064 111.904 46.7818 112.336 45.0861V43.2977C111.164 42.897 109.839 42.6811 108.42 42.6811C106.54 42.6811 105.029 43.7294 105.029 45.2401C105.029 46.7509 106.354 47.7064 108.143 47.7064ZM121.372 31.7362C120.17 31.7362 119.214 30.7187 119.214 29.578C119.214 28.4373 120.17 27.4507 121.372 27.4507C122.544 27.4507 123.499 28.4373 123.499 29.578C123.499 30.7187 122.544 31.7362 121.372 31.7362ZM119.461 50.0806V34.141H123.222V50.0806H119.461ZM126.763 50.0806V28.5298H130.524V50.0806H126.763Z" fill="white"/>
<path d="M34.601 24.1932H34.6064C36.3821 17.9856 44.1199 14.9551 52.0051 14.9551C57.453 14.9551 62.345 16.6806 65.6977 19.4187C63.6207 19.5217 61.6447 19.928 59.8361 20.584C62.5453 21.5904 64.8727 23.1401 66.5979 25.0569C65.4534 24.8592 64.2663 24.7551 63.0491 24.7551C62.918 24.7551 62.787 24.7564 62.6565 24.7588C65.7906 29.3029 67.6258 34.8119 67.6258 40.7496C67.6258 56.3231 55.001 68.9479 39.4275 68.9479C24.0941 68.9479 11.2292 56.1093 11.2292 40.7496C11.2292 38.3238 11.5521 35.8183 12.1779 33.47C12.3415 32.9767 12.5705 32.5037 12.8745 32.3306C13.255 32.114 13.6008 32.7597 13.6569 32.9701C14.0701 34.5215 14.6269 36.0221 15.3137 37.4594C15.2537 34.2397 16.6289 31.3077 18.5212 28.7708C19.7824 27.0799 20.9516 25.5124 21.4917 20.9904C21.5279 20.6868 21.8157 20.4683 22.1062 20.5634C26.2124 21.9077 28.49 29.3124 28.1482 35.0294C30.4165 35.3536 30.3235 32.4163 30.3235 32.4163C29.5984 30.1882 30.0818 26.0463 34.5936 24.1932H34.601Z" fill="url(#paint0_linear_2461_2096)"/>
<path opacity="0.9" d="M66.7032 33.5693C67.389 49.0787 54.6394 62.4498 39.0918 62.4498C24.538 62.4498 12.6114 51.2006 11.5326 36.9228C11.3425 38.2419 11.2396 39.5891 11.23 40.9584C11.3404 56.2372 24.1742 68.9486 39.4275 68.9486C55.001 68.9486 67.6257 56.3239 67.6257 40.7504C67.6257 38.2688 67.3052 35.8621 66.7032 33.5693Z" fill="url(#paint1_radial_2461_2096)"/>
<path d="M38.7406 26.2485C38.4366 25.7108 37.0337 24.9157 36.421 24.7772C38.7406 17.3451 50.5618 15.0633 57.7967 16.3783C60.8071 16.9255 64.5572 18.5668 65.6977 19.4187C62.345 16.6806 57.453 14.9551 52.0051 14.9551C44.1199 14.9551 36.3821 17.9856 34.6064 24.1932H34.601H34.5935C30.0818 26.0463 29.5989 30.1895 30.324 32.4176C31.0198 29.7599 34.3322 26.4937 38.7406 26.2485Z" fill="url(#paint2_radial_2461_2096)"/>
<path d="M46.9345 21.1163C40.6005 22.3625 38.5304 22.7699 36.4104 24.7852C38.7913 18.482 44.8689 17.2048 52.1104 20.0777C50.1173 20.49 48.4103 20.826 46.9345 21.1163Z" fill="url(#paint3_linear_2461_2096)"/>
<path d="M12.76 32.6074C11.0296 39.6921 12.3667 48.0194 20.2283 55.0079C17.8878 52.4488 15.0306 42.9982 21.3362 36.2462C21.7612 35.7914 22.4919 36.126 22.5149 36.748C22.5149 55.7356 36.8495 57.9914 45.2284 57.1052C41.1838 56.878 29.9899 52.8347 39.9397 50.9812C45.1406 50.0123 53.295 48.4931 53.295 41.1771C53.295 29.3154 44.1235 25.8475 38.5625 26.3635C34.7562 26.7167 31.3687 29.1317 30.3257 32.416C30.7259 33.7111 29.2131 35.424 28.1483 35.2717C28.4901 29.5547 26.2124 21.9083 22.1063 20.564C21.8158 20.4689 21.528 20.6874 21.4917 20.991C20.9516 25.513 19.7824 27.0805 18.5213 28.7715C16.6289 31.3083 15.2538 34.2403 15.3137 37.4601C14.627 36.0227 14.0702 34.5221 13.6569 32.9707C13.6105 32.7965 13.3587 32.3114 13.0539 32.2883C12.8889 32.2759 12.8016 32.4372 12.76 32.6074Z" fill="url(#paint4_radial_2461_2096)"/>
<path d="M38.2996 54.3657C47.108 58.8027 61.3143 51.3285 58.0834 36.5605C54.024 47.0952 47.5191 54.7669 38.2996 54.3657Z" fill="url(#paint5_linear_2461_2096)"/>
<path d="M21.3356 36.2465C21.4974 36.0733 21.7034 36.014 21.8983 36.0409C16.2538 42.9248 20.8063 55.0159 23.9309 57.9859C24.1055 58.4804 20.9669 55.9085 20.5341 55.3062C18.1576 53.2898 14.7514 43.2968 21.3356 36.2465Z" fill="url(#paint6_linear_2461_2096)"/>
<mask id="mask0_2461_2096" style="mask-type:alpha" maskUnits="userSpaceOnUse" x="26" y="28" width="27" height="28">
<path d="M39.5081 28.8262C46.9389 28.8262 52.9626 34.85 52.9626 42.2808C52.9626 45.1834 52.0434 47.8713 50.4801 50.0694C46.9163 53.9803 42.5599 54.6458 39.8092 54.5328C39.3308 54.5132 39.0611 55.1105 39.4568 55.3797C39.6478 55.5096 39.8343 55.6238 40.0177 55.7257C39.8485 55.7321 39.6787 55.7354 39.5081 55.7354C32.0773 55.7354 26.0535 49.7116 26.0535 42.2808C26.0535 34.85 32.0773 28.8262 39.5081 28.8262Z" fill="url(#paint7_linear_2461_2096)"/>
</mask>
<g mask="url(#mask0_2461_2096)">
<path d="M55.7019 26.248H23.4753V58.4746H55.7019V26.248Z" fill="url(#paint8_linear_2461_2096)"/>
</g>
<path d="M41.3728 23.977C42.8568 23.5097 42.727 22.0405 42.727 22.0405C42.727 22.0405 41.9845 21.167 40.5141 21.651C39.1377 22.1043 38.9246 23.0843 38.9246 23.0843C38.9246 23.0843 39.6764 24.5113 41.3728 23.977Z" fill="white"/>
<path opacity="0.2" d="M34.6875 41.7342L38.0613 34.0298" stroke="#1373D9" stroke-width="0.966797"/>
<path opacity="0.2" d="M36.9951 41.7342L40.3688 34.0298" stroke="#1373D9" stroke-width="0.966797"/>
<path opacity="0.2" d="M41.1113 46.3485L43.7428 40.6025" stroke="#1373D9" stroke-width="0.966797"/>
<path d="M42.5657 32.8145C43.8333 32.8145 44.682 34.1063 44.1962 35.2632L44.1722 35.3181L42.8667 38.1652L42.867 38.1654L39.2252 46.1092L39.2249 46.109L38.567 47.5441L44.7427 42.1701H42.5676L43.4521 40.2366H47.3265C47.7298 40.2366 48.0908 40.487 48.2321 40.8646C48.3734 41.2423 48.2653 41.6681 47.9612 41.9328L37.8546 50.7276C36.7446 51.6936 35.1014 50.4643 35.7146 49.1266L38.534 42.9765L40.6316 38.4014H40.6314L42.3064 34.748H37.0598C36.6529 34.748 36.2852 34.9864 36.1181 35.3547L36.1025 35.3906L34.1201 40.2366H38.2581L37.3735 42.1701H32.68C32.3579 42.1701 32.0569 42.0098 31.8773 41.7423C31.6978 41.475 31.6631 41.1355 31.7851 40.8374L34.3129 34.6586L34.3574 34.5552C34.8371 33.4983 35.8924 32.8145 37.0598 32.8145H42.5657Z" fill="url(#paint9_linear_2461_2096)"/>
</g>
<defs>
<linearGradient id="paint0_linear_2461_2096" x1="21.0167" y1="24.2493" x2="60.7676" y2="61.3281" gradientUnits="userSpaceOnUse">
<stop stop-color="#1B91F3"/>
<stop offset="1" stop-color="#0B68CB"/>
</linearGradient>
<radialGradient id="paint1_radial_2461_2096" cx="0" cy="0" r="1" gradientUnits="userSpaceOnUse" gradientTransform="translate(20.9435 37.0082) rotate(66.5179) scale(23.8443 22.8422)">
<stop offset="0.525579" stop-color="#0B4186" stop-opacity="0"/>
<stop offset="1" stop-color="#0B4186" stop-opacity="0.45"/>
</radialGradient>
<radialGradient id="paint2_radial_2461_2096" cx="0" cy="0" r="1" gradientUnits="userSpaceOnUse" gradientTransform="translate(40.1525 27.2145) rotate(-127.994) scale(5.09753 8.43516)">
<stop stop-color="#A29CF6" stop-opacity="0"/>
<stop offset="1" stop-color="#A39BF6"/>
</radialGradient>
<linearGradient id="paint3_linear_2461_2096" x1="32.0771" y1="33.7417" x2="46.381" y2="17.8184" gradientUnits="userSpaceOnUse">
<stop stop-color="#0F5DB0"/>
<stop offset="1" stop-color="#0F5DB0" stop-opacity="0"/>
</linearGradient>
<radialGradient id="paint4_radial_2461_2096" cx="0" cy="0" r="1" gradientUnits="userSpaceOnUse" gradientTransform="translate(28.7928 56.1141) rotate(-64.2627) scale(37.1991 45.9517)">
<stop offset="0.0160882" stop-color="#094188"/>
<stop offset="0.967387" stop-color="#0B4186" stop-opacity="0"/>
</radialGradient>
<linearGradient id="paint5_linear_2461_2096" x1="57.3063" y1="44.0324" x2="55.5659" y2="57.5566" gradientUnits="userSpaceOnUse">
<stop stop-color="#7B8BE9" stop-opacity="0"/>
<stop offset="1" stop-color="#7B8BE9"/>
</linearGradient>
<linearGradient id="paint6_linear_2461_2096" x1="17.513" y1="35.997" x2="21.3717" y2="54.3591" gradientUnits="userSpaceOnUse">
<stop offset="0.104632" stop-color="#C59FF9"/>
<stop offset="1" stop-color="#C59FF9" stop-opacity="0"/>
</linearGradient>
<linearGradient id="paint7_linear_2461_2096" x1="41.3767" y1="33.4605" x2="42.199" y2="64.8545" gradientUnits="userSpaceOnUse">
<stop stop-color="white"/>
<stop offset="0.81088" stop-color="#BEE1FE"/>
<stop offset="1" stop-color="#96CEFD"/>
</linearGradient>
<linearGradient id="paint8_linear_2461_2096" x1="32.5793" y1="29.8735" x2="54.6268" y2="51.7248" gradientUnits="userSpaceOnUse">
<stop offset="0.0677225" stop-color="white"/>
<stop offset="1" stop-color="#BEE1FE"/>
</linearGradient>
<linearGradient id="paint9_linear_2461_2096" x1="31.7132" y1="32.8145" x2="41.801" y2="54.1438" gradientUnits="userSpaceOnUse">
<stop stop-color="#6AA9E5"/>
<stop offset="0.994972" stop-color="#0D5BB2"/>
</linearGradient>
<clipPath id="clip0_2461_2096">
<rect width="144" height="80" fill="white"/>
</clipPath>
</defs>
</svg>
