<svg width="216" height="50" viewBox="0 0 216 50" fill="none" xmlns="http://www.w3.org/2000/svg">
<g clip-path="url(#clip0_2512_2968)">
<path d="M45.2654 48.3626H6.67398C3.96634 48.3626 1.54718 46.7461 0.511052 44.2446C-0.52508 41.743 0.042597 38.8893 1.95724 36.975L28.6881 10.2443H9.52957C4.26652 10.2443 4.03465e-06 5.97776 4.03465e-06 0.714718H35.5898C38.2972 0.714718 40.7162 2.33074 41.7525 4.83225C42.7889 7.33376 42.2215 10.187 40.3071 12.1023L13.5762 38.833H35.7359C40.9989 38.833 45.2654 43.0995 45.2654 48.3626ZM215.845 18.5827C215.845 8.33604 207.509 0 197.262 0C191.781 0 186.848 2.38658 183.444 6.17351C180.04 2.38658 175.107 0 169.626 0C159.38 0 151.044 8.33604 151.044 18.5827V48.3626C156.307 48.3626 160.573 44.096 160.573 38.833V18.5827C160.573 13.5908 164.634 9.52957 169.626 9.52957C174.618 9.52957 178.679 13.5908 178.679 18.5827V38.833C178.679 44.096 182.946 48.3626 188.209 48.3626V18.5827C188.209 13.5908 192.27 9.52957 197.262 9.52957C202.254 9.52957 206.315 13.5908 206.315 18.5827V38.833C206.315 44.096 210.582 48.3626 215.845 48.3626L215.845 18.5827ZM146.279 24.5386C146.279 38.091 135.293 49.0773 121.74 49.0773C108.188 49.0773 97.2016 38.091 97.2016 24.5386C97.2016 10.9863 108.188 0 121.74 0C135.293 0 146.279 10.9863 146.279 24.5386ZM136.749 24.5386C136.749 16.2494 130.03 9.52957 121.74 9.52957C113.451 9.52957 106.731 16.2494 106.731 24.5386C106.731 32.8279 113.451 39.5477 121.74 39.5477C130.03 39.5477 136.749 32.8279 136.749 24.5386ZM93.3898 24.5386C93.3898 38.091 82.4035 49.0773 68.8511 49.0773C55.2988 49.0773 44.3125 38.091 44.3125 24.5386C44.3125 10.9863 55.2988 0 68.8511 0C82.4034 0 93.3898 10.9863 93.3898 24.5386ZM83.8602 24.5386C83.8602 16.2494 77.1404 9.52957 68.8511 9.52957C60.5619 9.52957 53.8421 16.2494 53.8421 24.5386C53.8421 32.8279 60.5619 39.5477 68.8511 39.5477C77.1404 39.5477 83.8602 32.8279 83.8602 24.5386Z" fill="white"/>
</g>
<defs>
<clipPath id="clip0_2512_2968">
<rect width="215.845" height="49.0773" fill="white"/>
</clipPath>
</defs>
</svg>
