<svg width="32" height="32" viewBox="0 0 32 32" fill="currentColor" xmlns="http://www.w3.org/2000/svg">
  <path d="M20.8789 4C19.4792 4.14701 18.1863 4.81548 17.2578 5.87305C16.8038 6.38971 16.4559 6.99147 16.2344 7.64258C16.0128 8.29369 15.9222 8.98165 15.9668 9.66797C16.6669 9.67517 17.3593 9.52386 17.9922 9.22461C18.6251 8.92535 19.1824 8.48702 19.6211 7.94141C20.5372 6.84163 20.9881 5.42718 20.8789 4ZM20.5039 9.92969C18.7366 9.91234 17.0658 11.084 16.1602 11.084C15.1755 11.084 13.6876 9.96903 12.086 10.002C11.05 10.0355 10.0412 10.3374 9.15627 10.877C8.27138 11.4167 7.54114 12.1763 7.03713 13.082C4.85386 16.862 6.48285 22.4172 8.57424 25.4727C9.62061 26.9688 10.8433 28.6413 12.4434 28.582C14.0092 28.517 14.5943 27.582 16.4844 27.582C18.357 27.582 18.9045 28.5807 20.5371 28.543C22.2173 28.5165 23.2755 27.0415 24.2852 25.5312C25.037 24.4652 25.6162 23.2859 26 22.0391C25.0238 21.6263 24.1915 20.9359 23.6055 20.0527C23.0194 19.1696 22.7062 18.1321 22.7051 17.0723C22.7172 16.13 22.9666 15.2063 23.4317 14.3867C23.8969 13.5672 24.5626 12.8802 25.3653 12.3867C24.8553 11.6584 24.1825 11.0576 23.4004 10.6348C22.6182 10.2119 21.7481 9.97703 20.8594 9.94922C20.7409 9.93679 20.6218 9.93084 20.5039 9.92969Z"/>
</svg>
