<svg width="32" height="32" viewBox="0 0 32 32" fill="currentColor" xmlns="http://www.w3.org/2000/svg">
  <path d="M16.1702 4.00027C14.5262 4.01577 13.2195 4.82951 12.6077 6.02566C11.9959 7.2218 11.9346 8.64464 12.0471 10.1604C12.1517 11.5688 11.9736 11.9466 11.5608 12.5491C11.148 13.1516 10.3448 13.9597 9.50807 15.5159C9.50407 15.523 9.50017 15.5302 9.49635 15.5374C8.99772 16.5242 8.85014 17.5916 8.8108 18.6448C8.60923 18.7964 8.38493 18.9133 8.23463 19.1233C8.2646 19.1066 8.21136 19.1281 8.04322 19.1799C8.04257 19.1799 8.04192 19.1799 8.04127 19.1799C7.66788 19.2955 6.84478 19.6023 6.37721 20.4534C5.95022 21.2304 5.97527 22.0152 6.02955 22.5217C6.05441 22.7536 6.08275 22.9599 6.09987 23.1057C6.10593 23.1574 6.1028 23.1983 6.10182 23.2385C6.04947 23.405 5.90049 24.0607 6.10963 24.762C6.2511 25.2362 6.555 25.6691 7.00416 25.9827C7.43331 26.2821 7.92581 26.4388 8.46315 26.5335C9.2435 26.6888 10.3001 26.9917 11.3655 27.1194C11.3661 27.1194 11.3668 27.1194 11.3674 27.1194C11.8992 27.183 12.4653 27.2155 13.0588 27.0921C13.6784 26.9633 14.3613 26.6194 14.7796 25.9436C14.8265 25.8677 14.8155 25.7821 14.8538 25.7034C15.2762 25.7737 15.6762 25.8764 16.135 25.8928C16.1487 25.8931 16.1624 25.8931 16.176 25.8928C16.6744 25.8907 17.1585 25.7909 17.6487 25.7249C17.8321 26.35 18.1245 26.9592 18.7678 27.3733C19.4444 27.8087 20.21 27.8177 20.8225 27.6682C20.8232 27.6682 20.8238 27.6682 20.8245 27.6682C21.4141 27.5236 21.9079 27.2494 22.3577 26.9651C23.2692 26.3885 24.1054 25.656 24.7483 25.178C24.7563 25.171 24.7641 25.1638 24.7718 25.1565C25.1978 24.8471 25.5597 24.5036 25.8089 24.0647C26.0783 23.5903 26.1685 23.0684 26.0921 22.5784C25.9798 21.8583 25.5637 21.3286 25.4456 21.2014C25.4275 21.1655 25.4076 21.1293 25.3909 21.0803C25.3436 20.9411 25.2789 20.7419 25.2015 20.5218C25.0623 20.126 24.6943 19.5813 24.2132 19.1077C24.2163 19.0657 24.2205 19.0274 24.223 18.9846C24.3498 17.1618 23.7948 15.833 23.1135 14.7776C22.4322 13.7222 21.6922 12.8853 21.135 11.6155C20.6325 10.4704 20.6358 8.92902 20.3655 7.43386C20.2303 6.68628 20.0119 5.91718 19.4729 5.26198C18.9339 4.60678 18.079 4.16688 17.0413 4.04909C17.04 4.04909 17.0387 4.04909 17.0374 4.04909C16.7421 4.01657 16.4546 3.9975 16.1702 4.00027ZM16.18 5.00027C16.4136 4.99799 16.6625 5.01399 16.928 5.04323C20.3266 5.42899 18.9762 9.18566 20.219 12.0178C21.4618 14.8502 23.4494 15.6908 23.2249 18.9163C23.2138 19.1083 23.1968 19.2936 23.1741 19.4749C23.2547 19.5126 23.3367 19.558 23.4163 19.6155C23.8916 19.9576 24.1145 20.4454 24.2581 20.8538C24.4017 21.2622 24.5039 21.619 24.5706 21.7171C24.6866 21.8875 25.0213 22.216 25.1019 22.7327C25.1422 22.991 25.0964 23.2915 24.9378 23.5706C24.7806 23.8474 24.525 24.1069 24.1585 24.3694L24.1507 24.3753C23.4565 24.8915 22.6382 25.6035 21.8226 26.1194C21.4136 26.3779 21.0059 26.5942 20.5843 26.6976C20.1627 26.8005 19.6966 26.783 19.3089 26.5335C18.6759 26.126 18.4673 25.4051 18.4163 24.637C17.6976 24.8073 16.9381 24.8896 16.1702 24.8929C15.4464 24.8669 14.7837 24.7673 14.18 24.6019C14.1644 24.8844 14.0876 25.1583 13.928 25.4163C13.6854 25.8083 13.2807 26.0253 12.8558 26.1136C12.4308 26.202 11.9653 26.1848 11.4847 26.1273C10.5276 26.0126 9.48334 25.7165 8.63507 25.5491C8.18612 25.47 7.83964 25.346 7.57647 25.1624C7.31337 24.9787 7.14339 24.7274 7.06866 24.4769C6.91921 23.9758 7.08109 23.5321 7.11358 23.3284C7.13178 23.2113 7.06988 22.8448 7.02374 22.4144C6.97761 21.9839 6.97024 21.449 7.25225 20.9359C7.53855 20.4148 8.02011 20.2348 8.33624 20.137C8.65256 20.0394 8.80663 20.0128 8.97882 19.7425C9.14917 19.4752 9.39831 19.2729 9.6878 19.1546C9.64527 18.0931 9.8781 16.9997 10.389 15.9886C11.9459 13.0927 13.2733 13.1848 13.0432 10.0862C12.8312 7.22942 13.4233 5.02626 16.18 5.00027ZM17.1702 7.67605C17.1423 7.67533 17.1141 7.67615 17.0862 7.678C16.9325 7.68943 16.7801 7.73881 16.639 7.82448C16.4979 7.91015 16.3711 8.03114 16.264 8.178C16.1569 8.32487 16.0727 8.4962 16.0159 8.6819C15.9592 8.86759 15.9297 9.06377 15.9319 9.26003C15.9319 9.2976 15.9336 9.33402 15.9358 9.37136C15.8514 9.34895 15.7719 9.33666 15.6975 9.33425C15.6024 9.33101 15.5033 9.34895 15.4007 9.38307C15.3993 9.31606 15.3943 9.24706 15.387 9.17995C15.3485 8.83163 15.2339 8.50685 15.0647 8.26784C14.8955 8.02883 14.6838 7.89405 14.4749 7.89284C14.4563 7.89235 14.4386 7.89318 14.4202 7.89479C14.2036 7.91878 14.0117 8.08672 13.887 8.36159C13.7623 8.63646 13.7159 8.99485 13.7561 9.35964C13.7788 9.56733 13.8285 9.77028 13.9026 9.95144C13.9767 10.1326 14.073 10.2881 14.1838 10.4065C13.9785 10.6976 13.8453 10.9863 13.8518 11.1819C13.898 12.4409 13.2389 14.0893 12.7932 15.2815C12.0071 17.3844 11.6478 18.4925 13.2756 19.6878C14.7621 20.7791 14.3131 21.9713 13.5452 22.5178C13.63 22.6761 13.7081 22.8346 13.7815 22.9925C13.7958 23.0221 13.8095 23.0511 13.8225 23.0803C14.2721 23.3801 15.0332 23.7288 16.1546 23.7288C17.2956 23.7288 18.0291 23.4536 18.4475 23.221C18.495 22.6409 18.568 22.0541 18.6116 21.5022C18.6905 20.5008 19.0527 19.7744 19.5823 19.3753C19.7062 19.2821 19.8388 19.2094 19.9768 19.1565C20.4183 17.8177 20.3349 16.1642 19.4104 14.6624C18.8518 13.7549 17.9541 12.5311 17.9671 11.3323C17.9695 11.1088 17.8071 10.8145 17.5608 10.5217C17.7741 10.3933 17.9559 10.1894 18.0823 9.93386C18.2088 9.67827 18.2749 9.38239 18.2717 9.0862C18.2677 8.70855 18.1518 8.35371 17.9475 8.09206C17.7432 7.83042 17.4654 7.68156 17.1702 7.67605ZM17.1175 8.55105C17.1294 8.55094 17.1429 8.55174 17.1546 8.553C17.2213 8.56041 17.2852 8.5891 17.3421 8.63893C17.3989 8.68876 17.4483 8.75935 17.4866 8.84401C17.525 8.92868 17.5508 9.02647 17.5648 9.13307C17.5789 9.23967 17.5791 9.35281 17.5668 9.46511C17.5504 9.61487 17.5121 9.75814 17.4535 9.88307C17.3949 10.008 17.318 10.1093 17.2328 10.176C17.0225 9.9797 16.7862 9.79911 16.5511 9.65456C16.5403 9.55669 16.5419 9.45385 16.5531 9.35182C16.5769 9.13548 16.6473 8.93209 16.7523 8.78346C16.8573 8.63485 16.9877 8.55216 17.1175 8.55105ZM14.4886 8.66042C14.5919 8.65803 14.6953 8.71943 14.7815 8.83425C14.8735 8.95673 14.9371 9.12975 14.9573 9.31472C14.9692 9.41944 14.9677 9.52574 14.9515 9.62331C14.7887 9.73939 14.6285 9.88131 14.4846 10.0354C14.3974 9.99777 14.3158 9.91594 14.2522 9.803C14.1886 9.69006 14.1453 9.5524 14.1292 9.40652C14.119 9.31484 14.1196 9.22204 14.1311 9.13503C14.1426 9.04801 14.1642 8.96778 14.1956 8.8987C14.2269 8.82962 14.2683 8.7733 14.3147 8.73269C14.3611 8.69209 14.4126 8.66831 14.467 8.66238C14.4739 8.66164 14.4817 8.66058 14.4886 8.66042ZM14.1448 11.2014C14.723 11.4505 15.2637 11.8974 15.9182 11.9104C16.5727 11.9237 17.0625 11.5399 17.594 11.2014C17.306 11.9998 16.7216 12.6259 15.9729 12.6096C15.2241 12.594 14.4619 12.0928 14.1448 11.2014ZM10.2581 19.8948V19.9046C10.068 19.9036 9.9167 19.9716 9.79908 20.094C9.79583 20.0973 9.79198 20.1009 9.78931 20.1038C9.77957 20.1135 9.77171 20.1234 9.76197 20.1331C9.74897 20.1458 9.74047 20.1612 9.73072 20.1742C9.72098 20.1885 9.71116 20.2028 9.70142 20.2191C9.58149 20.407 9.43714 20.5464 9.28931 20.6527C9.26462 20.6702 9.24108 20.6853 9.21509 20.7015C9.14068 20.7493 9.06587 20.7905 8.99244 20.8246C8.94371 20.8473 8.89665 20.8656 8.84986 20.8851C8.75629 20.9212 8.66871 20.9503 8.59204 20.973C8.51536 20.9968 8.44805 21.0141 8.39087 21.0336C8.36228 21.0434 8.33874 21.0531 8.31275 21.0629C8.28774 21.0723 8.26518 21.087 8.24244 21.1C8.22034 21.1142 8.19747 21.1266 8.17798 21.1429C8.13769 21.176 8.10206 21.2169 8.0647 21.2718C8.04585 21.2991 8.0256 21.3305 8.00611 21.3656C7.98629 21.4017 7.96962 21.4379 7.95337 21.475C7.84518 21.7344 7.84146 22.0198 7.87525 22.3363C7.88467 22.4266 7.89611 22.5169 7.91236 22.6078C7.92665 22.6991 7.94428 22.7915 7.95728 22.8851C7.9769 23.0256 7.98851 23.1699 7.97876 23.3207C7.97551 23.3707 7.96963 23.421 7.96314 23.473C7.95047 23.5549 7.93708 23.6327 7.92408 23.7074C7.91109 23.7822 7.90258 23.855 7.89283 23.9203C7.87889 24.0181 7.87265 24.1034 7.87915 24.1742C7.8824 24.1979 7.88632 24.2211 7.89283 24.2406C7.9107 24.3007 7.93266 24.3511 7.99439 24.4086C8.01486 24.4278 8.04132 24.4464 8.07056 24.4691C8.08583 24.4789 8.09989 24.4906 8.11939 24.5004C8.23005 24.566 8.40047 24.6359 8.64868 24.6898C8.68995 24.6996 8.73373 24.7107 8.77954 24.7172H8.78735C9.23847 24.8059 9.72268 24.9215 10.2034 25.0277C10.3236 25.0544 10.4438 25.0779 10.5627 25.1039C10.6818 25.129 10.8 25.1514 10.9163 25.1742C11.0326 25.1963 11.1476 25.2152 11.26 25.2347C11.3725 25.2526 11.4825 25.2706 11.5901 25.2836C11.7512 25.3044 11.9064 25.3122 12.051 25.3187C12.0991 25.3205 12.1458 25.3224 12.1917 25.3226C12.2147 25.3227 12.2353 25.3229 12.2581 25.3226C12.2805 25.3222 12.3037 25.3214 12.3264 25.3206C12.4564 25.3158 12.5727 25.3062 12.676 25.2835C12.6939 25.277 12.7106 25.273 12.7268 25.2698C12.7447 25.2633 12.7574 25.2594 12.7737 25.2562C12.8046 25.2497 12.8356 25.2406 12.8616 25.2308C12.8885 25.2211 12.915 25.2112 12.9377 25.2015C12.9618 25.1888 12.9847 25.1793 13.0042 25.1663C13.025 25.1536 13.0433 25.1403 13.0627 25.1273C13.0806 25.1143 13.0973 25.0985 13.1135 25.0823C13.1298 25.0664 13.1454 25.0479 13.1584 25.0316C13.1711 25.0137 13.1845 24.9964 13.1975 24.9769C13.2251 24.9324 13.2464 24.8823 13.2659 24.8323C13.2671 24.8258 13.2685 24.8239 13.2698 24.8206C13.2763 24.8047 13.2822 24.788 13.2854 24.7718C13.2887 24.7653 13.2919 24.7627 13.2932 24.7562V24.7523C13.2944 24.7459 13.294 24.7432 13.2952 24.7366C13.3017 24.7175 13.3056 24.6975 13.3088 24.678C13.3096 24.6715 13.312 24.6689 13.3127 24.6624C13.316 24.6406 13.3167 24.6168 13.3186 24.594C13.3189 24.5908 13.3203 24.5891 13.3206 24.5862C13.3207 24.583 13.3206 24.5784 13.3206 24.5784C13.3207 24.5751 13.3206 24.5725 13.3206 24.5725C13.3223 24.5462 13.3225 24.5185 13.3225 24.4925C13.3225 24.4892 13.3225 24.4866 13.3225 24.4866C13.3225 24.4651 13.3236 24.4449 13.3225 24.4221C13.3217 24.403 13.3203 24.3811 13.3186 24.3616C13.3153 24.3473 13.3143 24.3355 13.3127 24.3225C13.3119 24.3128 13.3117 24.3056 13.3108 24.2991C13.276 24.0291 13.1702 23.7132 13.0022 23.3518C12.669 22.6351 12.1201 21.812 11.6506 20.9983C11.235 20.2778 10.7775 19.9835 10.4378 19.9143C10.3741 19.9013 10.3149 19.8951 10.2581 19.8948ZM20.5256 19.9007L20.5197 19.9027C20.3814 19.9053 20.236 19.9567 20.0901 20.0668C19.8132 20.2755 19.5285 20.7356 19.4631 21.5648C19.3894 22.5013 19.2457 23.4854 19.2522 24.2757C19.2525 24.3154 19.255 24.3526 19.2561 24.391C19.2594 24.5268 19.2685 24.6536 19.2815 24.7718C19.2847 24.8069 19.2887 24.8416 19.2951 24.8754C19.2957 24.8819 19.2965 24.8858 19.2971 24.889C19.3097 24.9634 19.3219 25.0373 19.3381 25.1039C19.3547 25.1709 19.3753 25.2322 19.3948 25.2914C19.4013 25.3105 19.4078 25.3285 19.4143 25.348C19.4175 25.3578 19.4247 25.3696 19.428 25.3793C19.4377 25.3982 19.4437 25.4164 19.4534 25.4359C19.4599 25.4423 19.4619 25.4528 19.4651 25.4593C19.4749 25.4782 19.4846 25.4945 19.4944 25.514C19.4976 25.5205 19.5048 25.5271 19.5081 25.5336C19.5207 25.5525 19.5302 25.5719 19.5432 25.5882C19.5464 25.5914 19.5498 25.5986 19.553 25.6019C19.5676 25.623 19.5857 25.6449 19.6019 25.6644C19.6188 25.6839 19.6371 25.7029 19.6565 25.7191C19.6738 25.737 19.6898 25.7497 19.7093 25.766C19.7126 25.7692 19.7162 25.7697 19.7191 25.7719C19.737 25.7862 19.7543 25.7999 19.7738 25.8129C19.7933 25.8236 19.8129 25.8363 19.8324 25.8461C19.8727 25.8669 19.9162 25.8794 19.9613 25.8891C19.9838 25.8924 20.0089 25.8967 20.0316 25.8989C20.056 25.9009 20.0817 25.9032 20.1077 25.9028C20.1341 25.9028 20.1606 25.9 20.1898 25.8969C20.247 25.8894 20.3088 25.8799 20.3773 25.8637C20.4114 25.8572 20.4463 25.8474 20.4827 25.8344C20.5191 25.8218 20.5576 25.8083 20.596 25.7953C20.6726 25.7667 20.7511 25.7331 20.8343 25.6937C20.8759 25.6742 20.9184 25.6539 20.9613 25.6312C21.09 25.5646 21.2245 25.4875 21.3616 25.4008C21.4532 25.3429 21.547 25.2798 21.6409 25.2152C22.297 24.7619 22.999 24.1617 23.6449 23.682H23.6508C23.67 23.6677 23.688 23.654 23.7074 23.641C23.8325 23.5481 23.9286 23.4621 24.0043 23.3832C24.0257 23.3604 24.0453 23.3376 24.0648 23.3148C24.0843 23.2937 24.0973 23.2738 24.1136 23.2543C24.1279 23.2345 24.1397 23.2171 24.1527 23.1976C24.1657 23.1797 24.1762 23.1631 24.1859 23.1469C24.2051 23.1144 24.2171 23.0869 24.2269 23.0609C24.2366 23.0352 24.2471 23.0133 24.2504 22.9906C24.2561 22.9691 24.2567 22.9476 24.2563 22.9281C24.2531 22.9083 24.2536 22.889 24.2504 22.8695C24.2471 22.8487 24.2413 22.8258 24.2347 22.8031C24.2191 22.7576 24.1937 22.7089 24.1644 22.6566C24.1492 22.6306 24.1331 22.6057 24.1136 22.5765C24.0775 22.5206 24.0383 22.4612 23.9945 22.3988C23.9506 22.3365 23.9025 22.27 23.8558 22.2015C23.8262 22.1583 23.7985 22.1146 23.7758 22.0707C23.7514 22.0269 23.7288 21.9824 23.7093 21.9379C23.6895 21.8937 23.6709 21.8476 23.6547 21.8031C23.6368 21.7586 23.6208 21.7167 23.6078 21.6723C23.5785 21.5829 23.5537 21.4931 23.5277 21.4047C23.502 21.3163 23.4749 21.2288 23.4457 21.143C23.4314 21.1053 23.4177 21.0677 23.4047 21.0316C23.4015 21.0251 23.4008 21.0225 23.3988 21.016C23.3955 21.0052 23.3883 20.9925 23.3851 20.9828C23.3818 20.9763 23.3785 20.9653 23.3753 20.9555C23.372 20.9458 23.3648 20.934 23.3616 20.9242C23.3583 20.9145 23.3531 20.9046 23.3499 20.8949C23.334 20.8588 23.3154 20.8216 23.2991 20.7875C23.2979 20.7842 23.2965 20.7804 23.2952 20.7777C23.2854 20.7579 23.2738 20.7386 23.264 20.7191C23.2543 20.7029 23.2444 20.6865 23.2347 20.6703C23.2282 20.656 23.2171 20.6403 23.2073 20.6273C23.2041 20.6241 23.2033 20.6204 23.2014 20.6175C23.1949 20.6067 23.1845 20.5973 23.178 20.5843C23.1747 20.5778 23.1715 20.5719 23.1682 20.5687C23.1585 20.5589 23.1532 20.5492 23.1467 20.5394C23.1402 20.5329 23.1376 20.5263 23.1311 20.5198C23.1139 20.4986 23.0959 20.4768 23.0764 20.4573C23.0699 20.4475 23.0608 20.4416 23.051 20.4319C23.0478 20.4286 23.0444 20.4254 23.0412 20.4221C23.0285 20.4111 23.0151 20.3999 23.0021 20.387C22.9739 20.3619 22.9448 20.3375 22.9123 20.3147C22.6528 20.1279 22.5328 20.1668 22.215 20.2132C21.8971 20.2597 21.387 20.3232 20.883 20.0081C20.7754 19.9408 20.665 19.904 20.551 19.9007C20.5412 19.9004 20.5353 19.9005 20.5256 19.9007Z"/>
</svg>
