<svg width="32" height="32" viewBox="0 0 32 32" fill="currentColor" xmlns="http://www.w3.org/2000/svg">
  <path d="M15.5163 5.00092C12.6243 5.00092 9.84258 5.33386 8.22139 6.08145C8.22139 6.08145 5.00675 7.52014 5.00675 12.4271C5.00675 13.5508 4.98407 14.8949 5.02186 16.3201C5.13865 21.119 5.90212 25.8491 10.3392 27.0234C12.3851 27.565 14.1419 27.6771 15.5565 27.5992C18.1219 27.4556 19.5618 26.6852 19.5618 26.6852L19.4782 24.8227C19.4782 24.8227 17.6445 25.4022 15.5856 25.3316C13.5457 25.2598 11.3929 25.1123 11.063 22.6072C11.0328 22.388 11.0154 22.1494 11.0154 21.9041C11.0154 21.9041 13.0169 22.3925 15.5546 22.5089C17.1064 22.5807 18.5617 22.4185 20.0397 22.2409C22.8741 21.9007 25.3431 20.1572 25.6533 18.5615C26.142 16.0477 26.0997 12.4262 26.0997 12.4262C26.0997 7.51922 22.8851 6.08006 22.8851 6.08006C21.264 5.3355 18.4801 5.02306 15.588 5L15.5163 5.00092ZM12.2433 8.83489C13.448 8.83489 14.3604 9.29779 14.9635 10.2245L15.5497 11.2068L16.1359 10.2245C16.739 9.29817 17.6514 8.83489 18.8562 8.83489C19.8972 8.83489 20.7376 9.20146 21.3782 9.91542C21.9992 10.6294 22.3065 11.5943 22.3065 12.8087V18.7497H19.9534V12.9821C19.9534 11.7663 19.4413 11.1505 18.4181 11.1505C17.2868 11.1505 16.7201 11.8829 16.7201 13.3305V16.4867H14.3794V13.3305C14.3794 11.8829 13.8126 11.1505 12.6814 11.1505C11.6582 11.1505 11.1481 11.7663 11.1481 12.9821V18.7497H8.79297V12.8087C8.79297 11.5943 9.10213 10.6294 9.72338 9.91542C10.3638 9.20146 11.2021 8.83489 12.2433 8.83489Z"/>
</svg>
