<svg width="24" height="24" viewBox="0 0 24 24" fill="none" xmlns="http://www.w3.org/2000/svg">
<path opacity="0.2" d="M20.9071 12.0355C21.9651 10.9644 22.5 9.7263 22.5 8.22727C22.5 6.72823 21.9651 5.17781 20.9071 4.1067C19.849 3.03558 18.4682 2.5 17.0873 2.5C15.7065 2.5 14.3256 3.41262 13.2675 4.48373L11.9942 5.77273L10.721 4.48373C9.66286 3.41262 8.28202 2.5 6.90115 2.5C5.52029 2.5 4.13943 3.03558 3.08135 4.1067C2.02326 5.17781 1.5 6.72823 1.5 8.22727C1.5 9.7263 2.02326 10.9644 3.08135 12.0355C5.70036 14.6223 8.12175 17.0627 10.595 19.7916C10.9448 20.1457 11.4695 20.5 11.9942 20.5C12.5189 20.5 13.0437 20.1457 13.3934 19.7916C15.8162 17.0167 18.322 14.6526 20.9071 12.0355Z" fill="#D8B4FE"/>
<path d="M20.9071 12.0355C21.9651 10.9644 22.5 9.7263 22.5 8.22727C22.5 6.72823 21.9651 5.17781 20.9071 4.1067C19.849 3.03558 18.4682 2.5 17.0873 2.5C15.7065 2.5 14.3256 3.41262 13.2675 4.48373L11.9942 5.77273L10.721 4.48373C9.66286 3.41262 8.28202 2.5 6.90115 2.5C5.52029 2.5 4.13943 3.03558 3.08135 4.1067C2.02326 5.17781 1.5 6.72823 1.5 8.22727C1.5 9.7263 2.02326 10.9644 3.08135 12.0355C5.70036 14.6223 8.12175 17.0627 10.595 19.7916C10.9448 20.1457 11.4695 20.5 11.9942 20.5C12.5189 20.5 13.0437 20.1457 13.3934 19.7916C15.8162 17.0167 18.322 14.6526 20.9071 12.0355V12.0355Z" stroke="#D8B4FE" stroke-linecap="round" stroke-linejoin="round"/>
</svg>
