<svg viewBox="0 0 2718 1470" fill="none" xmlns="http://www.w3.org/2000/svg">
<g clip-path="url(#clip0_2218_29)">
<rect width="3204" height="1473" transform="translate(-191)" fill="url(#paint0_linear_2218_29)"/>
<rect x="-191" width="3204" height="1473" fill="url(#paint1_radial_2218_29)"/>
<mask id="mask0_2218_29" style="mask-type:alpha" maskUnits="userSpaceOnUse" x="-1119" y="73" width="5077" height="1034">
<path d="M1354.4 184.442C1312.82 159.473 1264.15 145.115 1212.13 145.115C1110.39 145.115 1021.47 200.025 973.403 281.827C963.914 280.718 954.261 280.148 944.474 280.148C847.901 280.148 764.296 335.671 723.84 416.536C683.384 335.671 599.779 280.148 503.206 280.148C493.42 280.148 483.766 280.718 474.277 281.827C426.207 200.025 337.292 145.115 235.552 145.115C121.693 145.115 23.8967 213.886 -18.5656 312.156C-48.5255 296.337 -82.6697 287.382 -118.906 287.382C-134.474 287.382 -149.656 289.035 -164.286 292.175C-191.132 167.457 -302.043 73.9817 -434.786 73.9817C-536.526 73.9817 -625.441 128.892 -673.512 210.694C-683 209.585 -692.654 209.014 -702.44 209.014C-817.414 209.014 -914.007 287.712 -941.292 394.178C-952.62 391.36 -964.493 389.862 -976.726 389.862C-1055.3 389.862 -1118.99 451.668 -1118.99 527.909C-1118.99 530.539 -1118.92 533.152 -1118.77 535.746H-1118.99L-1118.99 598.127C-1119 598.432 -1119 598.737 -1119 599.042C-1119 599.347 -1119 599.651 -1118.99 599.954L-1118.99 606.879H-1119V1106.02H3958V913.114C3957.45 832.984 3902.24 765.84 3827.79 747.112V606.879H3827.56C3827.71 604.285 3827.79 601.672 3827.79 599.042C3827.79 522.801 3764.09 460.995 3685.52 460.995C3673.29 460.995 3661.41 462.494 3650.09 465.311C3622.8 358.845 3526.21 280.148 3411.23 280.148C3401.45 280.148 3391.79 280.718 3382.31 281.827C3334.23 200.025 3245.32 145.115 3143.58 145.115C3039.25 145.115 2948.4 202.858 2901.26 288.13C2891.98 288.902 2882.86 290.262 2873.95 292.175C2847.11 167.457 2736.2 73.9817 2603.45 73.9817C2528.48 73.9817 2460.47 103.801 2410.64 152.227C2365.88 162.579 2325.28 183.79 2291.76 212.936C2274.83 215.989 2258.5 220.77 2242.96 227.09C2214.31 215.435 2182.97 209.014 2150.12 209.014C2140.34 209.014 2130.68 209.585 2121.2 210.694C2073.12 128.892 1984.21 73.9817 1882.47 73.9817C1787.69 73.9817 1704.04 121.637 1654.17 194.293C1609.47 163.286 1555.19 145.115 1496.66 145.115C1444.64 145.115 1395.97 159.473 1354.4 184.442Z" fill="url(#paint2_radial_2218_29)"/>
</mask>
<g mask="url(#mask0_2218_29)">
<path opacity="0.4" d="M315.725 494.185C327.282 492.181 339.168 491.137 351.298 491.137H379.028C493.223 491.137 585.797 583.71 585.797 697.906C585.797 713.007 584.178 727.731 581.104 741.912H866.58C863.506 727.731 861.887 713.007 861.887 697.906C861.887 583.71 954.461 491.137 1068.66 491.137H1096.39C1108.52 491.137 1120.4 492.181 1131.96 494.185C1148.69 411.956 1221.41 350.076 1308.58 350.076C1340.02 350.076 1369.58 358.125 1395.31 372.274C1434.62 320.68 1496.72 287.382 1566.59 287.382C1582.16 287.382 1597.34 289.035 1611.97 292.175C1638.82 167.457 1749.73 73.9818 1882.47 73.9818C1984.21 73.9818 2073.12 128.892 2121.2 210.694C2130.68 209.585 2140.34 209.015 2150.12 209.015C2182.97 209.015 2214.31 215.435 2242.96 227.09C2271.62 215.435 2302.96 209.015 2335.8 209.015C2345.58 209.015 2355.24 209.585 2364.73 210.694C2412.8 128.892 2501.71 73.9818 2603.45 73.9818C2736.2 73.9818 2847.11 167.457 2873.95 292.175C2888.58 289.035 2903.76 287.382 2919.33 287.382C2989.21 287.382 3051.3 320.68 3090.61 372.274C3116.34 358.125 3145.9 350.076 3177.34 350.076C3264.51 350.076 3337.23 411.956 3353.96 494.185C3365.52 492.181 3377.41 491.137 3389.54 491.137H3417.27C3531.46 491.137 3624.04 583.71 3624.04 697.906C3624.04 713.007 3622.42 727.731 3619.34 741.912H3785.59C3880.41 741.912 3957.35 818.451 3958 913.114V1106.02H-1118.99V1003.14C-1118.99 1002.87 -1119 1002.6 -1119 1002.33L-1118.99 535.746H-1118.77C-1118.92 533.152 -1118.99 530.539 -1118.99 527.909C-1118.99 451.668 -1055.3 389.862 -976.726 389.862C-964.493 389.862 -952.62 391.36 -941.292 394.178C-914.007 287.712 -817.414 209.015 -702.44 209.015C-692.654 209.015 -683 209.585 -673.512 210.694C-625.441 128.892 -536.526 73.9818 -434.786 73.9818C-302.043 73.9818 -191.132 167.457 -164.286 292.175C-149.656 289.035 -134.474 287.382 -118.906 287.382C-49.0333 287.382 13.0612 320.68 52.3755 372.274C78.1062 358.125 107.665 350.076 139.103 350.076C226.273 350.076 298.992 411.956 315.725 494.185Z" fill="#E3E5F2"/>
<path opacity="0.6" d="M3227.29 606.879C3227.34 605.077 3227.37 603.269 3227.37 601.454C3227.37 501.907 3146.67 421.209 3047.12 421.209C3015.69 421.209 2986.13 429.258 2960.4 443.408C2921.08 391.814 2858.99 358.515 2789.12 358.515C2773.55 358.515 2758.37 360.168 2743.74 363.309C2716.89 238.591 2605.98 145.115 2473.24 145.115C2371.5 145.115 2282.58 200.026 2234.51 281.827C2225.02 280.718 2215.37 280.148 2205.58 280.148C2109.01 280.148 2025.4 335.671 1984.95 416.536C1944.49 335.671 1860.89 280.148 1764.31 280.148C1754.53 280.148 1744.87 280.718 1735.38 281.827C1687.31 200.026 1598.4 145.115 1496.66 145.115C1363.92 145.115 1253 238.591 1226.16 363.309C1211.53 360.168 1196.35 358.515 1180.78 358.515C1110.91 358.515 1048.81 391.814 1009.5 443.408C983.766 429.258 954.208 421.209 922.769 421.209C823.223 421.209 742.524 501.907 742.524 601.454C742.524 603.269 742.551 605.077 742.604 606.879H742.524V683.318C718.075 673.669 691.434 668.367 663.554 668.367C613.524 668.367 567.481 685.439 530.933 714.076C494.385 685.439 448.342 668.367 398.311 668.367C370.432 668.367 343.791 673.669 319.341 683.318V606.879H319.261C319.314 605.077 319.341 603.269 319.341 601.454C319.341 501.907 238.643 421.209 139.096 421.209C107.658 421.209 78.0992 429.258 52.3685 443.408C13.0541 391.814 -49.0404 358.515 -118.913 358.515C-134.481 358.515 -149.663 360.168 -164.293 363.309C-191.139 238.591 -302.05 145.115 -434.793 145.115C-536.533 145.115 -625.448 200.026 -673.519 281.827C-683.008 280.718 -692.661 280.148 -702.447 280.148C-817.421 280.148 -914.014 358.845 -941.299 465.312C-952.627 462.494 -964.499 460.996 -976.733 460.996C-1055.3 460.996 -1119 522.801 -1119 599.042C-1119 601.673 -1118.92 604.285 -1118.77 606.879H-1119V1106.02H3827.78V983.645C3827.78 980.84 3827.66 978.065 3827.41 975.324C3827.66 971.901 3827.78 968.444 3827.78 964.957C3827.78 887.051 3764.63 823.896 3686.72 823.896H3513.17C3487.29 734.072 3404.49 668.367 3306.34 668.367C3278.46 668.367 3251.82 673.669 3227.37 683.318V606.879H3227.29Z" fill="#FAFAFA"/>
<path opacity="0.4" d="M-518.502 606.879C-518.555 605.077 -518.582 603.269 -518.582 601.454C-518.582 501.907 -437.884 421.209 -338.338 421.209C-306.899 421.209 -277.34 429.258 -251.61 443.408C-212.295 391.814 -150.201 358.515 -80.3284 358.515C-64.7604 358.515 -49.5785 360.168 -34.9482 363.309C-8.10245 238.591 102.809 145.115 235.552 145.115C337.292 145.115 426.207 200.026 474.277 281.827C483.766 280.718 493.42 280.148 503.206 280.148C599.779 280.148 683.384 335.671 723.84 416.536C764.296 335.671 847.901 280.148 944.474 280.148C954.261 280.148 963.914 280.718 973.403 281.827C1021.47 200.026 1110.39 145.115 1212.13 145.115C1344.87 145.115 1455.78 238.591 1482.63 363.309C1497.26 360.168 1512.44 358.515 1528.01 358.515C1597.88 358.515 1659.98 391.814 1699.29 443.408C1725.02 429.258 1754.58 421.209 1786.02 421.209C1885.56 421.209 1966.26 501.907 1966.26 601.454C1966.26 603.269 1966.24 605.077 1966.18 606.879H1966.26V683.318C1990.71 673.669 2017.35 668.367 2045.23 668.367C2095.26 668.367 2141.31 685.439 2177.85 714.076C2214.4 685.439 2260.45 668.367 2310.48 668.367C2338.36 668.367 2365 673.669 2389.45 683.318V606.879H2389.53C2389.47 605.077 2389.45 603.269 2389.45 601.454C2389.45 501.907 2470.14 421.209 2569.69 421.209C2601.13 421.209 2630.69 429.258 2656.42 443.408C2695.73 391.814 2757.83 358.515 2827.7 358.515C2843.27 358.515 2858.45 360.168 2873.08 363.309C2899.93 238.591 3010.84 145.115 3143.58 145.115C3245.32 145.115 3334.23 200.026 3382.31 281.827C3391.79 280.718 3401.45 280.148 3411.23 280.148C3526.21 280.148 3622.8 358.845 3650.09 465.312C3661.41 462.494 3673.29 460.996 3685.52 460.996C3764.09 460.996 3827.79 522.801 3827.79 599.042C3827.79 601.673 3827.71 604.285 3827.56 606.879H3827.79V1106.02H-1119V983.645C-1119 980.84 -1118.87 978.065 -1118.62 975.324C-1118.87 971.901 -1119 968.444 -1119 964.957C-1119 887.051 -1055.84 823.896 -977.935 823.896H-804.378C-778.506 734.072 -695.703 668.367 -597.552 668.367C-569.673 668.367 -543.032 673.669 -518.582 683.318V606.879H-518.502Z" fill="white"/>
</g>
<rect x="2718" y="1473" width="819" height="1473" transform="rotate(-180 2718 1473)" fill="url(#paint3_radial_2218_29)"/>
<rect width="819" height="1470.1" transform="matrix(1 0 0 -1 -1 1470.1)" fill="url(#paint4_radial_2218_29)"/>
</g>
<defs>
<linearGradient id="paint0_linear_2218_29" x1="1602" y1="0" x2="1602" y2="1473" gradientUnits="userSpaceOnUse">
<stop stop-color="#FAFAFA"/>
<stop offset="1" stop-color="#D8E8F3"/>
</linearGradient>
<radialGradient id="paint1_radial_2218_29" cx="0" cy="0" r="1" gradientUnits="userSpaceOnUse" gradientTransform="translate(1411 -7.90573e-05) rotate(90) scale(1473 19231.1)">
<stop offset="0.025" stop-color="#FCF8D8"/>
<stop offset="0.221676" stop-color="#F7E4FE"/>
<stop offset="1" stop-color="#74BFF4"/>
</radialGradient>
<radialGradient id="paint2_radial_2218_29" cx="0" cy="0" r="1" gradientUnits="userSpaceOnUse" gradientTransform="translate(1180.78 344.65) rotate(-0.473507) scale(2626 719.912)">
<stop/>
<stop offset="0.774681"/>
<stop offset="1" stop-color="#666666" stop-opacity="0"/>
</radialGradient>
<radialGradient id="paint3_radial_2218_29" cx="0" cy="0" r="1" gradientUnits="userSpaceOnUse" gradientTransform="translate(3537 2491) rotate(-87.5319) scale(1161.08 645.569)">
<stop offset="0.518518" stop-color="#77C0F5" stop-opacity="0"/>
<stop offset="1" stop-color="#7FC2F5"/>
</radialGradient>
<radialGradient id="paint4_radial_2218_29" cx="0" cy="0" r="1" gradientUnits="userSpaceOnUse" gradientTransform="translate(819 1016) rotate(-87.527) scale(1158.8 645.566)">
<stop offset="0.518518" stop-color="#77C0F5" stop-opacity="0"/>
<stop offset="1" stop-color="#7FC2F5"/>
</radialGradient>
<clipPath id="clip0_2218_29">
<rect width="3204" height="1473" fill="white" transform="translate(-191)"/>
</clipPath>
</defs>
</svg>
