<svg width="854" height="820" viewBox="0 0 854 820" fill="none" xmlns="http://www.w3.org/2000/svg">
<g opacity="0.3" clip-path="url(#clip0_2326_3605)">
<path opacity="0.3" d="M854 0H0V819.25H854V0Z" fill="url(#paint0_radial_2326_3605)"/>
<path opacity="0.3" d="M854 -192.5H191.5C85.7375 -192.5 0 -106.763 0 -1.00001V333C0 412.253 64.2471 476.5 143.5 476.5H854V-192.5Z" fill="url(#paint1_radial_2326_3605)"/>
<mask id="mask0_2326_3605" style="mask-type:alpha" maskUnits="userSpaceOnUse" x="8" y="300" width="846" height="429">
<rect width="438" height="428" transform="matrix(-1 0 0 1 854 300.5)" fill="url(#paint2_linear_2326_3605)"/>
<path d="M416 300.5H222.5C104.311 300.5 8.5 396.311 8.5 514.5V514.5C8.5 632.689 104.311 728.5 222.5 728.5H416V300.5Z" fill="url(#paint3_radial_2326_3605)"/>
</mask>
<g mask="url(#mask0_2326_3605)">
<path opacity="0.6" d="M618.25 473.5C613.219 473.5 608.29 473.933 603.498 474.764C596.558 440.663 566.401 415 530.25 415C517.212 415 504.954 418.338 494.283 424.206C477.979 402.809 452.227 389 423.25 389C416.794 389 410.498 389.686 404.43 390.988C393.297 339.266 347.301 300.5 292.25 300.5C250.057 300.5 213.183 323.272 193.247 357.196C189.312 356.736 185.309 356.5 181.25 356.5C133.569 356.5 93.5103 389.137 82.1951 433.29C77.4971 432.121 72.5732 431.5 67.5 431.5C34.9153 431.5 8.5 457.132 8.5 488.75C8.5 489.841 8.53149 490.924 8.59351 492H8.5L8.49854 685.5C8.49854 685.612 8.49902 685.724 8.5 685.836V728.5H854V648.5H853.998C853.729 609.242 821.822 577.5 782.5 577.5H713.554C714.829 571.619 715.5 565.513 715.5 559.25C715.5 511.892 677.108 473.5 629.75 473.5H618.25Z" fill="#E3E5F2"/>
<path opacity="0.8" d="M853.738 646.5C853.912 644.273 854 642.022 854 639.75C854 592.392 815.608 554 768.25 554H739.431C737.729 514.225 704.944 482.5 664.75 482.5C651.712 482.5 639.454 485.838 628.783 491.706C612.479 470.309 586.727 456.5 557.75 456.5C551.294 456.5 544.998 457.186 538.93 458.488C527.797 406.766 481.801 368 426.75 368C384.557 368 347.683 390.772 327.747 424.696C323.812 424.236 319.809 424 315.75 424C268.069 424 228.01 456.637 216.695 500.79C211.997 499.621 207.073 499 202 499C170.192 499 144.262 523.425 143.045 554H94.25C46.8916 554 8.5 592.392 8.5 639.75C8.5 642.022 8.58838 644.273 8.76172 646.5H8.5V728.5H854V646.5H853.738Z" fill="#FAFAFA"/>
<path opacity="0.6" d="M354.533 559.5C354.511 558.753 354.5 558.003 354.5 557.25C354.5 515.967 387.966 482.5 429.25 482.5C442.288 482.5 454.546 485.838 465.217 491.706C481.521 470.309 507.273 456.5 536.25 456.5C542.706 456.5 549.002 457.186 555.069 458.488C566.203 406.766 612.199 368 667.25 368C709.443 368 746.317 390.772 766.253 424.696C770.188 424.236 774.191 424 778.25 424C825.931 424 853.75 456.5 853.75 499C853.75 511 853.75 529.75 853.75 542C853.75 554.25 853.75 549.382 853.75 581C853.75 588.75 853.812 599.424 853.75 600.5V626.25V728.25H105.655L105.5 715.75C105.5 714.587 105.552 713.436 105.655 712.299C105.552 710.88 105.5 709.446 105.5 708C105.5 675.691 131.691 649.5 164 649.5H235.976C246.706 612.249 281.045 585 321.75 585C333.312 585 344.36 587.198 354.5 591.2V559.5H354.533Z" fill="white"/>
</g>
</g>
<defs>
<radialGradient id="paint0_radial_2326_3605" cx="0" cy="0" r="1" gradientUnits="userSpaceOnUse" gradientTransform="translate(854 409.5) rotate(90) scale(410 854)">
<stop offset="0.221624" stop-color="#FFAF14"/>
<stop offset="0.605" stop-color="#C739B0"/>
<stop offset="0.895" stop-color="#192E7C" stop-opacity="0.483333"/>
<stop offset="1" stop-color="#003B69" stop-opacity="0"/>
</radialGradient>
<radialGradient id="paint1_radial_2326_3605" cx="0" cy="0" r="1" gradientUnits="userSpaceOnUse" gradientTransform="translate(854 116.236) rotate(179.831) scale(854.004 360.266)">
<stop stop-color="#DBB800"/>
<stop offset="1" stop-color="#D1AF00" stop-opacity="0"/>
</radialGradient>
<linearGradient id="paint2_linear_2326_3605" x1="219" y1="0" x2="219" y2="428" gradientUnits="userSpaceOnUse">
<stop/>
<stop offset="1" stop-opacity="0"/>
</linearGradient>
<radialGradient id="paint3_radial_2326_3605" cx="0" cy="0" r="1" gradientUnits="userSpaceOnUse" gradientTransform="translate(416 300.5) rotate(180) scale(416.25 428)">
<stop/>
<stop offset="1" stop-color="#666666" stop-opacity="0"/>
</radialGradient>
<clipPath id="clip0_2326_3605">
<rect width="854" height="819.5" fill="white" transform="matrix(-1 0 0 1 854 0)"/>
</clipPath>
</defs>
</svg>
