<svg width="503" height="522" viewBox="0 0 503 522" fill="none" xmlns="http://www.w3.org/2000/svg">
<path d="M427.127 320.86C436.862 319.059 442.996 307.51 440.294 297.984C437.593 288.457 427.675 281.984 417.77 281.815C407.865 281.658 398.404 287.035 392.075 294.656C387.99 287.374 380.264 282.271 371.978 281.371C363.678 280.471 355.039 283.798 349.493 290.036C325.728 280.823 296.327 289.175 280.98 309.52C272.315 307.771 264.041 313.774 257.934 320.182C252.179 326.224 247.011 333.258 245.314 341.427C243.618 349.596 246.15 359.071 253.118 363.677C256.929 366.196 262.044 367.41 264.119 371.494C266.964 377.106 261.979 384.088 264.002 390.051C265.581 394.684 270.84 397.072 273.176 401.366C275.029 404.785 274.807 408.896 275.538 412.719C277.313 422.063 285.6 429.802 295.048 430.911C304.496 432.02 314.362 426.435 318.264 417.757C328.43 413.972 338.922 409.992 346.687 402.41C354.452 394.828 358.758 382.587 353.982 372.852C366.484 375.67 380.095 373.139 390.744 366C401.392 358.862 408.909 347.234 411.049 334.602C418.71 335.803 426.657 329.278 426.957 321.539" fill="#E7E7E7"/>
<path d="M427.127 320.86C436.862 319.059 442.996 307.51 440.294 297.984C437.593 288.457 427.675 281.984 417.77 281.815C407.865 281.658 398.404 287.035 392.075 294.656C387.99 287.374 380.264 282.271 371.978 281.371C363.678 280.471 355.039 283.798 349.493 290.036C325.728 280.823 296.327 289.175 280.98 309.52C272.315 307.771 264.041 313.774 257.934 320.182C252.179 326.224 247.011 333.258 245.314 341.427C243.618 349.596 246.15 359.071 253.118 363.677C256.929 366.196 262.044 367.41 264.119 371.494C266.964 377.106 261.979 384.088 264.002 390.051C265.581 394.684 270.84 397.072 273.176 401.366C275.029 404.785 274.807 408.896 275.538 412.719C277.313 422.063 285.6 429.802 295.048 430.911C304.496 432.02 314.362 426.435 318.264 417.757C328.43 413.972 338.922 409.992 346.687 402.41C354.452 394.828 358.758 382.587 353.982 372.852C366.484 375.67 380.095 373.139 390.744 366C401.392 358.862 408.909 347.234 411.049 334.602C418.71 335.803 426.657 329.278 426.957 321.539" stroke="#D1D1D1" stroke-miterlimit="10" stroke-linecap="round" stroke-linejoin="round"/>
<path d="M371.286 330.309C374.092 329.891 377.015 330.491 379.534 331.966C378.15 332.971 376.767 333.976 375.384 334.98C379.364 334.197 383.605 335.202 386.972 337.708C386.059 338.008 385.145 338.321 384.219 338.621C388.134 339 391.827 341.61 393.836 345.407C388.786 347.861 383.031 348.396 377.694 346.908C380.056 347.952 382.522 348.696 385.028 349.127C384.506 351.332 382.418 352.559 380.447 353.081C377.028 353.981 373.348 353.498 370.203 351.75C367.058 350.001 364.474 347 363.025 343.398" fill="#C6E1F5"/>
<path d="M371.286 330.309C374.092 329.891 377.015 330.491 379.534 331.966C378.15 332.971 376.767 333.976 375.384 334.98C379.364 334.197 383.605 335.202 386.972 337.708C386.059 338.008 385.145 338.321 384.219 338.621C388.134 339 391.827 341.61 393.836 345.407C388.786 347.861 383.031 348.396 377.694 346.908C380.056 347.952 382.522 348.696 385.028 349.127C384.506 351.332 382.418 352.559 380.447 353.081C377.028 353.981 373.348 353.498 370.203 351.75C367.058 350.001 364.474 347 363.025 343.398" stroke="#1893F8" stroke-width="0.9385" stroke-miterlimit="10"/>
<path d="M322.414 288.144C317.533 293.547 313.422 300.228 311.426 307.915C309.416 315.601 309.677 324.358 312.926 331.366C315.38 336.638 319.334 340.644 323.601 343.711C334.681 351.645 348.475 353.694 360.781 349.218C365.048 347.665 369.302 345.212 372.03 340.905C374.535 336.964 375.514 331.875 375.945 326.903C376.924 315.601 375.319 303.778 370.425 294.121C365.531 284.477 357.14 277.273 347.914 276.229C337.996 275.094 328.469 281.436 322.414 288.144Z" fill="#C6E1F5" stroke="#1893F8" stroke-width="1.0254" stroke-miterlimit="10"/>
<path d="M337.487 345.251C348.809 345.251 357.988 333.706 357.988 319.464C357.988 305.222 348.809 293.677 337.487 293.677C326.164 293.677 316.985 305.222 316.985 319.464C316.985 333.706 326.164 345.251 337.487 345.251Z" fill="white"/>
<path d="M366.64 293.612C366.875 286.369 360.246 285.325 362.712 285.625C365.14 285.925 367.58 285.743 369.172 285.638C375.384 285.234 380.056 275.068 380.995 266.507C381.53 261.548 381.4 250.795 378.868 246.697C376.715 243.226 373.739 240.772 370.229 239.233C363.182 236.14 356.318 236.179 349.61 240.094C342.889 244.009 334.681 252.504 332.854 260.778C331.014 269.052 333.337 273.384 338.4 280.823" fill="#C6E1F5"/>
<path d="M336.495 277.952C330.087 271.114 330.139 257.842 337.591 250.991C346.726 242.573 348.905 237.719 360.781 236.831" stroke="#1893F8" stroke-width="1.274" stroke-miterlimit="10" stroke-linecap="round" stroke-linejoin="round"/>
<path d="M361.564 238.136C361.629 236.075 362.177 234.117 363.156 232.394C363.417 231.951 363.717 231.507 364.239 231.272C364.761 231.05 365.557 231.116 366.066 231.559C366.471 231.925 366.575 232.421 366.627 232.864C366.875 234.991 366.588 237.066 365.805 238.893" fill="#C6E1F5"/>
<path d="M361.564 238.136C361.629 236.075 362.177 234.117 363.156 232.394C363.417 231.951 363.717 231.507 364.239 231.272C364.761 231.05 365.557 231.116 366.066 231.559C366.471 231.925 366.575 232.421 366.627 232.864C366.875 234.991 366.588 237.066 365.805 238.893" stroke="#1893F8" stroke-miterlimit="10" stroke-linecap="round" stroke-linejoin="round"/>
<path d="M365.753 238.919C365.962 238.306 366.17 237.693 366.379 237.079C367.828 232.642 370.346 228.845 373.492 226.509C373.961 226.17 374.509 225.843 375.005 226.091C375.697 226.431 375.841 227.605 375.788 228.558C375.645 231.037 374.836 233.386 373.753 235.448C372.669 237.51 371.325 239.298 369.968 241.36C371.273 239.989 372.774 238.932 374.366 238.28C374.875 238.071 375.488 237.928 375.88 238.384C376.402 238.985 376.128 240.107 375.749 240.877C374.588 243.278 372.709 245.066 370.621 245.797" fill="#C6E1F5"/>
<path d="M365.753 238.919C365.962 238.306 366.17 237.693 366.379 237.079C367.828 232.642 370.346 228.845 373.492 226.509C373.961 226.17 374.509 225.843 375.005 226.091C375.697 226.431 375.841 227.605 375.788 228.558C375.645 231.037 374.836 233.386 373.753 235.448C372.669 237.51 371.325 239.298 369.968 241.36C371.273 239.989 372.774 238.932 374.366 238.28C374.875 238.071 375.488 237.928 375.88 238.384C376.402 238.985 376.128 240.107 375.749 240.877C374.588 243.278 372.709 245.066 370.621 245.797" stroke="#1893F8" stroke-miterlimit="10" stroke-linecap="round" stroke-linejoin="round"/>
<path d="M379.338 247.793C383.318 265.842 381.804 290.206 361.486 285.834" stroke="#1893F8" stroke-width="1.274" stroke-miterlimit="10" stroke-linecap="round" stroke-linejoin="round"/>
<path d="M359.463 237.862C357.753 236.035 355.678 234.548 353.381 233.53C355.091 234.169 356.226 236.088 355.939 237.888C353.029 236.884 349.754 237.014 346.935 238.254C348.488 237.954 350.171 238.463 351.293 239.572C347.6 239.702 343.985 241.464 341.623 244.309C342.837 244.087 344.038 243.852 345.251 243.63" fill="#C6E1F5"/>
<path d="M359.463 237.862C357.753 236.035 355.678 234.548 353.381 233.53C355.091 234.169 356.226 236.088 355.939 237.888C353.029 236.884 349.754 237.014 346.935 238.254C348.488 237.954 350.171 238.463 351.293 239.572C347.6 239.702 343.985 241.464 341.623 244.309C342.837 244.087 344.038 243.852 345.251 243.63" stroke="#1893F8" stroke-miterlimit="10" stroke-linecap="round" stroke-linejoin="round"/>
<path d="M340.188 294.643C339.614 292.764 339.209 290.793 338.974 288.77C338.883 287.948 338.857 286.983 339.287 286.408C339.836 285.704 340.775 286.147 341.18 287.022C341.584 287.896 341.597 288.992 341.597 290.036C341.806 287.283 342.85 284.686 344.429 283.028C345.082 282.337 345.969 281.802 346.7 282.324C347.718 283.041 347.639 285.116 347.365 286.669C346.517 291.407 345.16 295.961 343.359 300.137" fill="white"/>
<path d="M340.188 294.643C339.614 292.764 339.209 290.793 338.974 288.77C338.883 287.948 338.857 286.983 339.287 286.408C339.836 285.704 340.775 286.147 341.18 287.022C341.584 287.896 341.597 288.992 341.597 290.036C341.806 287.283 342.85 284.686 344.429 283.028C345.082 282.337 345.969 281.802 346.7 282.324C347.718 283.041 347.639 285.116 347.365 286.669C346.517 291.407 345.16 295.961 343.359 300.137" stroke="#1893F8" stroke-width="0.4201" stroke-miterlimit="10"/>
<path d="M374.327 244.205C376.167 242.521 379.012 242.038 381.295 243.043C379.651 242.965 378.007 243.865 377.185 245.288C379.22 244.909 381.4 245.301 383.175 246.358C381.439 246.514 379.756 247.128 378.333 248.12C381.074 248.668 383.396 250.912 384.036 253.64C382.927 252.478 381.295 251.839 379.69 251.93" fill="#C6E1F5"/>
<path d="M374.327 244.205C376.167 242.521 379.012 242.038 381.295 243.043C379.651 242.965 378.007 243.865 377.185 245.288C379.22 244.909 381.4 245.301 383.175 246.358C381.439 246.514 379.756 247.128 378.333 248.12C381.074 248.668 383.396 250.912 384.036 253.64C382.927 252.478 381.295 251.839 379.69 251.93" stroke="#1893F8" stroke-miterlimit="10" stroke-linecap="round" stroke-linejoin="round"/>
<path d="M323.928 287.23C315.093 286.017 305.566 288.04 298.154 293.207C290.741 298.375 285.234 306.414 282.951 315.392C282.729 316.293 282.69 317.533 283.538 317.833C284.099 318.028 284.673 317.624 285.13 317.245C288.875 314.127 290.624 312.039 288.327 314.753C287.714 315.484 287.087 316.606 287.727 317.311C288.392 318.042 289.528 317.376 290.259 316.723C296.875 310.707 293.025 315.614 292.843 316.645C292.738 317.245 292.882 317.95 293.365 318.316C294.134 318.903 295.205 318.381 296.001 317.82C299.12 315.601 301.038 313.709 299.589 315.81C299.172 316.41 298.754 317.037 298.65 317.767C298.545 318.498 298.872 319.347 299.55 319.568C300.32 319.816 301.064 319.177 301.625 318.59C302.969 317.167 303.857 316.489 303.178 317.754C302.956 318.159 302.747 318.642 302.904 319.072C303.139 319.686 303.935 319.764 304.561 319.66C306.597 319.347 308.529 318.276 309.925 316.697" fill="#C6E1F5"/>
<path d="M323.928 287.23C315.093 286.017 305.566 288.04 298.154 293.207C290.741 298.375 285.234 306.414 282.951 315.392C282.729 316.293 282.69 317.533 283.538 317.833C284.099 318.028 284.673 317.624 285.13 317.245C288.875 314.127 290.624 312.039 288.327 314.753C287.714 315.484 287.087 316.606 287.727 317.311C288.392 318.042 289.528 317.376 290.259 316.723C296.875 310.707 293.025 315.614 292.843 316.645C292.738 317.245 292.882 317.95 293.365 318.316C294.134 318.903 295.205 318.381 296.001 317.82C299.12 315.601 301.038 313.709 299.589 315.81C299.172 316.41 298.754 317.037 298.65 317.767C298.545 318.498 298.872 319.347 299.55 319.568C300.32 319.816 301.064 319.177 301.625 318.59C302.969 317.167 303.857 316.489 303.178 317.754C302.956 318.159 302.747 318.642 302.904 319.072C303.139 319.686 303.935 319.764 304.561 319.66C306.597 319.347 308.529 318.276 309.925 316.697" stroke="#1893F8" stroke-width="1.1501" stroke-miterlimit="10" stroke-linecap="round" stroke-linejoin="round"/>
<path d="M310.525 316.697C311.373 309.951 314.179 303.452 318.538 298.219C319.543 297.005 320.678 295.361 319.843 294.03C319.203 293.025 317.781 293.103 316.593 292.986C301.86 291.55 291.903 300.241 284.582 310.473" fill="#A8CBE8"/>
<path d="M345.865 260.086C346.295 259.512 346.961 259.238 347.626 259.147C348.279 259.056 348.944 259.134 349.61 259.147C351.933 259.212 354.217 258.56 356.526 258.299C357.283 258.207 358.106 258.181 358.784 258.586C359.724 259.16 360.141 260.4 360.52 261.522C361.342 263.897 362.373 266.155 363.626 268.282C363.939 268.83 364.291 269.482 364.082 270.083C363.913 270.592 363.417 270.84 362.973 271.035C361.851 271.544 360.729 272.053 359.593 272.562C357.544 273.489 355.43 274.441 353.212 274.494C352.324 274.52 351.398 274.376 350.693 273.763C349.988 273.15 349.636 272.158 349.31 271.218C348.67 269.352 348.501 267.225 347.861 265.359C347.418 264.093 346.674 262.566 346.23 261.3C346.047 260.778 345.825 260.869 345.956 260.334C346.086 259.799 346.582 259.238 345.865 260.086Z" fill="#F8DA88"/>
<path d="M351.724 263.349C350.771 263.153 349.806 262.957 348.853 262.762C349.545 264.093 350.093 265.528 350.458 267.016C350.719 268.047 350.889 269.117 351.28 270.096C351.672 271.075 352.337 271.988 353.238 272.314C354.334 272.719 355.522 272.21 356.592 271.701C358.053 271.009 359.528 270.318 360.99 269.626C361.068 269.587 361.159 269.535 361.172 269.443C361.185 269.352 361.133 269.261 361.068 269.195C360.637 268.673 360.207 268.151 359.685 267.76C359.163 267.368 358.549 267.094 357.923 267.147C356.983 267.225 356.213 267.982 355.3 268.217C354.752 268.36 354.099 268.269 353.76 267.76C353.447 267.29 353.499 266.651 353.408 266.076C353.225 264.967 353.029 263.806 352.142 263.284C351.254 262.775 349.662 262.866 348.67 262.683C349.271 265.306 349.962 268.125 351.385 270.292" fill="#FFA8A2"/>
<path d="M349.806 267.773C350.119 268.869 350.458 269.887 350.876 270.748C351.293 271.597 351.776 272.301 352.455 272.693C353.12 273.084 353.903 273.058 354.752 272.875C355.587 272.693 356.5 272.327 357.401 271.897C359.215 271.048 361.055 269.939 362.164 269.561C362.516 269.443 362.36 268.869 361.968 268.869C361.303 268.856 360.99 268.582 360.689 268.217C360.546 268.034 360.402 267.825 360.259 267.629C360.115 267.434 359.959 267.225 359.711 267.081C359.698 267.068 359.685 267.068 359.658 267.055C358.654 266.651 357.688 266.846 356.814 267.147C356.031 267.408 355.287 267.721 354.569 267.851C354.269 267.029 353.916 266.076 353.538 265.189C353.316 264.693 353.094 264.236 352.859 263.858C352.625 263.479 352.39 263.166 352.063 262.971C351.633 262.723 351.189 262.775 350.798 262.788C350.406 262.801 350.041 262.775 349.988 262.749C349.323 262.37 348.957 261.874 348.449 261.039C348.214 260.648 347.679 260.883 347.848 261.3C348.618 263.114 349.166 265.581 349.806 267.773ZM349.701 263.362C350.119 263.597 350.523 263.519 350.902 263.506C351.293 263.493 351.646 263.519 351.776 263.584C351.881 263.636 352.076 263.858 352.285 264.184C352.494 264.51 352.703 264.941 352.912 265.411C353.329 266.364 353.734 267.473 354.06 268.36C354.125 268.53 354.295 268.647 354.465 268.621C355.404 268.504 356.265 268.099 357.101 267.812C357.923 267.538 358.693 267.394 359.45 267.695C359.502 267.721 359.593 267.812 359.711 267.982C359.828 268.151 359.985 268.386 360.167 268.608C360.363 268.843 360.611 269.078 360.924 269.261C359.789 269.796 358.406 270.592 357.022 271.231C356.135 271.649 355.261 272.001 354.491 272.171C353.734 272.34 353.107 272.301 352.703 272.079C352.259 271.818 351.842 271.27 351.463 270.5C351.085 269.73 350.758 268.726 350.445 267.655C350.015 266.155 349.61 264.497 349.114 262.971C349.31 263.114 349.493 263.245 349.701 263.362Z" fill="#2493EF"/>
<path d="M358.641 263.558C358.915 263.493 358.915 263.075 358.732 262.814C358.68 262.736 358.601 262.67 358.523 262.618C358.353 262.514 358.145 262.514 357.975 262.618C357.74 262.775 357.048 263.336 357.075 263.636C357.127 263.884 358.092 263.688 358.641 263.558Z" fill="#2493EF"/>
<path d="M354.83 262.644C355.156 262.749 355.065 261.339 354.987 260.53C354.974 260.334 354.843 260.191 354.673 260.1C354.478 259.995 354.243 259.956 354.047 260.008C353.682 260.113 353.512 260.517 353.669 260.909C353.838 261.3 354.452 262.527 354.83 262.644Z" fill="#2493EF"/>
<path d="M347.783 258.821C347.3 258.821 346.87 258.847 346.491 258.951C346.113 259.056 345.773 259.277 345.617 259.643C345.46 259.995 345.538 260.387 345.656 260.869C345.773 261.339 345.956 261.887 346.178 262.462C346.608 263.597 347.13 264.837 347.365 265.581C347.744 266.833 348.096 268.699 348.657 270.435C349.179 272.04 349.884 273.567 351.085 274.402L351.072 274.415L351.372 274.598C351.385 274.611 351.385 274.611 351.385 274.611C351.385 274.611 351.398 274.611 351.398 274.624L351.711 274.794L351.724 274.781C353.081 275.394 354.752 274.977 356.37 274.363C358.119 273.698 359.854 272.771 360.964 272.393C361.681 272.158 362.451 271.884 363.104 271.57C363.756 271.257 364.304 270.905 364.539 270.383C364.709 270.018 364.67 269.587 364.526 269.169C364.383 268.765 364.148 268.347 363.874 267.903C363.326 267.016 362.621 266.024 362.151 264.915C361.642 263.688 361.12 262.174 360.598 260.869C360.337 260.217 360.076 259.63 359.815 259.147C359.554 258.664 359.293 258.286 358.928 258.064C358.536 257.842 358.079 257.816 357.466 257.803C356.866 257.803 356.135 257.842 355.365 257.933C353.825 258.103 352.129 258.39 350.915 258.638C349.858 258.886 348.736 258.821 347.783 258.821ZM355.548 258.664C356.305 258.586 357.009 258.534 357.57 258.534C358.132 258.534 358.575 258.638 358.667 258.69C358.771 258.755 359.006 259.029 359.241 259.447C359.476 259.878 359.724 260.439 359.985 261.078C360.494 262.344 361.016 263.871 361.551 265.137C362.06 266.364 362.804 267.394 363.326 268.243C363.587 268.66 363.795 269.039 363.9 269.339C364.004 269.639 364.017 269.848 363.926 270.031C363.808 270.292 363.365 270.644 362.764 270.931C362.164 271.231 361.407 271.492 360.689 271.727C359.476 272.132 357.779 273.058 356.083 273.698C354.386 274.337 352.729 274.637 351.698 274.024L351.672 274.011L351.646 273.998C350.576 273.397 349.832 271.949 349.297 270.292C348.762 268.621 348.422 266.781 348.005 265.45C347.744 264.602 347.222 263.388 346.804 262.279C346.595 261.718 346.413 261.196 346.308 260.778C346.204 260.361 346.217 260.047 346.243 260.008C346.334 259.825 346.478 259.708 346.765 259.63C347.039 259.551 347.431 259.525 347.887 259.512C348.801 259.499 349.988 259.578 351.163 259.343C352.35 259.121 354.047 258.821 355.548 258.664Z" fill="#2493EF"/>
<path d="M346.648 253.222C348.749 254.005 350.576 255.18 351.959 256.537C352.873 255.806 353.682 254.775 354.256 253.47C355.73 250.09 355.052 246.306 352.716 245.001C350.38 243.696 347.3 245.379 345.812 248.759C345.238 250.077 345.003 251.447 345.043 252.726C345.578 252.857 346.113 253.013 346.648 253.222Z" fill="white" stroke="#1893F8" stroke-width="0.4844" stroke-miterlimit="10" stroke-linecap="round" stroke-linejoin="round"/>
<path d="M373.296 256.433C371.469 254.358 368.063 254.814 365.688 257.477C364.761 258.507 364.148 259.734 363.834 260.948C364.291 261.274 364.748 261.613 365.192 261.992C366.953 263.506 368.35 265.28 369.276 267.068C370.346 266.716 371.417 266.024 372.33 265.006C374.692 262.357 375.123 258.507 373.296 256.433Z" fill="white" stroke="#1893F8" stroke-width="0.4844" stroke-miterlimit="10" stroke-linecap="round" stroke-linejoin="round"/>
<path d="M354.347 248.041C354.347 247.337 354.178 246.671 353.903 246.084C353.577 245.64 353.186 245.262 352.716 245.001C350.915 243.996 348.657 244.792 347.039 246.776C346.922 247.18 346.843 247.598 346.843 248.041C346.843 250.377 348.527 252.27 350.589 252.27C352.664 252.27 354.347 250.377 354.347 248.041Z" fill="#F6BF3E"/>
<path d="M346.648 253.222C348.749 254.005 350.576 255.18 351.959 256.537C352.873 255.806 353.682 254.775 354.256 253.47C355.73 250.09 355.052 246.306 352.716 245.001C350.38 243.696 347.3 245.379 345.812 248.759C345.238 250.077 345.003 251.447 345.043 252.726C345.578 252.857 346.113 253.013 346.648 253.222Z" stroke="#1893F8" stroke-width="0.4844" stroke-miterlimit="10" stroke-linecap="round" stroke-linejoin="round"/>
<path d="M370.059 262.54C372.134 262.54 373.805 260.543 373.805 258.077C373.805 257.711 373.753 257.359 373.687 257.02C373.57 256.824 373.452 256.615 373.296 256.446C371.664 254.592 368.794 254.775 366.51 256.694C366.392 257.137 366.301 257.594 366.301 258.077C366.314 260.543 367.984 262.54 370.059 262.54Z" fill="#F6BF3E"/>
<path d="M373.296 256.433C371.469 254.358 368.063 254.814 365.688 257.477C364.761 258.507 364.148 259.734 363.834 260.948C364.291 261.274 364.748 261.613 365.192 261.992C366.953 263.506 368.35 265.28 369.276 267.068C370.346 266.716 371.417 266.024 372.33 265.006C374.692 262.357 375.123 258.507 373.296 256.433Z" stroke="#1893F8" stroke-width="0.4844" stroke-miterlimit="10" stroke-linecap="round" stroke-linejoin="round"/>
<path d="M370.059 260.752C371.494 260.752 372.656 259.443 372.656 257.829C372.656 256.214 371.494 254.906 370.059 254.906C368.625 254.906 367.462 256.214 367.462 257.829C367.462 259.443 368.625 260.752 370.059 260.752Z" fill="#1893F8"/>
<path d="M351.059 250.416C352.493 250.416 353.656 249.108 353.656 247.493C353.656 245.879 352.493 244.57 351.059 244.57C349.624 244.57 348.462 245.879 348.462 247.493C348.462 249.108 349.624 250.416 351.059 250.416Z" fill="#1893F8"/>
<path d="M370.751 257.424C371.119 257.424 371.417 257.091 371.417 256.68C371.417 256.27 371.119 255.937 370.751 255.937C370.383 255.937 370.085 256.27 370.085 256.68C370.085 257.091 370.383 257.424 370.751 257.424Z" fill="white"/>
<path d="M351.059 246.567C351.426 246.567 351.724 246.234 351.724 245.823C351.724 245.412 351.426 245.079 351.059 245.079C350.691 245.079 350.393 245.412 350.393 245.823C350.393 246.234 350.691 246.567 351.059 246.567Z" fill="white"/>
<path d="M351.815 247.441C351.996 247.441 352.142 247.272 352.142 247.063C352.142 246.854 351.996 246.684 351.815 246.684C351.635 246.684 351.489 246.854 351.489 247.063C351.489 247.272 351.635 247.441 351.815 247.441Z" fill="white"/>
<path d="M371.299 258.586C371.479 258.586 371.625 258.416 371.625 258.207C371.625 257.998 371.479 257.829 371.299 257.829C371.119 257.829 370.973 257.998 370.973 258.207C370.973 258.416 371.119 258.586 371.299 258.586Z" fill="white"/>
<path d="M278.892 242.952C280.941 244.113 283.525 244.1 285.756 243.291C287.975 242.482 289.867 240.968 291.511 239.259C299.811 230.659 301.756 216.565 296.105 206.033C299.694 207.351 302.369 210.875 302.682 214.686C304.64 200.304 298.532 185.101 287.192 176.058C292.177 176.762 296.81 179.712 299.55 183.927C298.493 176.527 293.782 169.741 287.218 166.166C302.656 170.394 315.328 183.444 319.086 198.999C320.039 195.215 319.817 191.143 318.447 187.502C327.203 199.822 328.665 216.956 322.14 230.58C325.285 227.318 327.595 223.246 328.756 218.862C327.921 232.029 318.943 244.348 306.649 249.151C311.517 248.524 316.254 246.88 320.469 244.348C316.685 251.656 308.581 256.498 300.359 256.367C304.066 257.881 308.333 257.972 312.104 256.641C304.483 261.496 295.714 264.563 286.722 265.502" fill="#C6E1F5"/>
<path d="M278.892 242.952C280.941 244.113 283.525 244.1 285.756 243.291C287.975 242.482 289.867 240.968 291.511 239.259C299.811 230.659 301.756 216.565 296.105 206.033C299.694 207.351 302.369 210.875 302.682 214.686C304.64 200.304 298.532 185.101 287.192 176.058C292.177 176.762 296.81 179.712 299.55 183.927C298.493 176.527 293.782 169.741 287.218 166.166C302.656 170.394 315.328 183.444 319.086 198.999C320.039 195.215 319.817 191.143 318.447 187.502C327.203 199.822 328.665 216.956 322.14 230.58C325.285 227.318 327.595 223.246 328.756 218.862C327.921 232.029 318.943 244.348 306.649 249.151C311.517 248.524 316.254 246.88 320.469 244.348C316.685 251.656 308.581 256.498 300.359 256.367C304.066 257.881 308.333 257.972 312.104 256.641C304.483 261.496 295.714 264.563 286.722 265.502" stroke="#1893F8" stroke-miterlimit="10" stroke-linecap="round" stroke-linejoin="round"/>
<path d="M301.547 179.516C307.759 190.543 311.152 203.162 311.308 215.821C313.135 214.607 314.74 213.054 315.993 211.253C316.763 216.787 315.328 222.607 312.065 227.148C313.579 226.992 315.054 226.391 316.254 225.452C313.475 231.194 309.494 236.362 304.64 240.498C305.853 241.281 307.315 241.673 308.763 241.608C304.888 246.619 301.442 250.521 296.379 254.331C306.114 260.295 318.303 248.289 320.221 244.844C318.264 245.327 309.272 249.777 305.723 249.633C317.794 245.236 326.577 235.07 328.378 222.15C327.268 225.608 325.18 228.166 321.996 229.889C329.356 217.204 326.72 201.309 319.256 188.69C320.104 192.383 319.96 196.363 318.238 199.743C315.288 191.796 309.038 183.379 301.56 179.398" fill="#A8CBE8"/>
<path d="M278.892 242.952C280.941 244.113 283.525 244.1 285.756 243.291C287.975 242.482 289.867 240.968 291.511 239.259C299.811 230.659 301.756 216.565 296.105 206.033C299.694 207.351 302.369 210.875 302.682 214.686C304.64 200.304 298.532 185.101 287.192 176.058C292.177 176.762 296.81 179.712 299.55 183.927C298.493 176.527 293.782 169.741 287.218 166.166C302.656 170.394 315.328 183.444 319.086 198.999C320.039 195.215 319.817 191.143 318.447 187.502C327.203 199.822 328.665 216.956 322.14 230.58C325.285 227.318 327.595 223.246 328.756 218.862C327.921 232.029 318.943 244.348 306.649 249.151C311.517 248.524 316.254 246.88 320.469 244.348C316.685 251.656 308.581 256.498 300.359 256.367C304.066 257.881 308.333 257.972 312.104 256.641C304.483 261.496 295.714 264.563 286.722 265.502" stroke="#1893F8" stroke-miterlimit="10" stroke-linecap="round" stroke-linejoin="round"/>
<path d="M223.43 300.202C223.364 298.819 224.134 297.423 225.348 296.77C221.981 296.248 218.888 294.199 217.087 291.302C219.449 291.341 221.824 291.38 224.186 291.42C218.34 288.979 214.19 282.95 213.994 276.621C218.327 278.174 222.229 280.94 225.126 284.503C225.739 281.515 224.969 278.265 223.09 275.864C226.653 277.234 229.054 280.732 230.085 284.399C231.116 288.079 230.999 291.968 230.855 295.778C231.912 277.56 237.615 259.63 247.285 244.152C248.564 242.091 249.986 239.794 249.49 237.419C248.838 234.3 245.367 232.838 243.044 230.659C239.703 227.514 238.724 222.124 240.747 218.013C238.633 218.796 236.219 218.796 234.104 217.987C236.245 217.831 238.293 216.63 239.455 214.829C235.488 213.876 231.964 211.214 229.981 207.652C232.865 209.231 236.414 209.544 239.533 208.487C235.67 206.477 232.186 203.737 229.341 200.448C233.361 202.523 238.359 201.087 242.195 198.673C246.032 196.259 249.255 192.944 253.262 190.83C257.268 188.716 262.58 188.064 266.051 190.974C265.411 189.342 264.772 187.724 264.132 186.093C271.454 193.414 275.93 194.954 281.815 199.378C280.68 198.282 281.124 196.063 282.585 195.489C284.751 203.058 286.944 211.097 284.804 218.679C282.885 225.465 277.6 231.442 277.939 238.489C278.161 243.213 280.993 247.506 284.608 250.56C288.223 253.614 292.595 255.597 296.888 257.555C294.774 258.925 292.216 259.604 289.697 259.473C291.877 260.726 294.069 261.992 296.249 263.245C294.683 265.046 292.242 266.037 289.854 265.868C295.244 276.947 295.361 290.454 290.18 301.625C284.999 312.795 274.612 321.435 262.671 324.475" fill="#C6E1F5"/>
<path d="M253.575 313.174C243.683 298.793 240.199 277.26 246.959 261.17C243.344 264.106 239.468 266.272 235.945 269.313C233.726 271.231 233.517 275.825 233.23 278.735C232.447 286.643 229.198 289.449 230.868 295.791C229.406 294.043 230.855 293.012 230.933 290.715C231.012 288.418 230.477 285.116 230.033 282.859C229.589 280.601 226.927 277.26 224.695 276.686C225.1 278.878 226.131 283.237 225.374 285.338C223.873 282.78 216.905 277.156 213.994 276.634C212.742 276.412 215.482 279.374 214.96 280.536C214.621 281.293 214.895 282.18 215.221 282.95C217.048 287.27 219.906 289.488 224.186 291.433C221.955 291.524 220.01 291.837 217.831 291.328C219.645 293.86 222.79 296.496 225.857 297.044C224.369 296.783 223.638 298.714 223.417 300.215C223.195 301.716 223.221 302.59 224.33 303.634C225.439 304.678 226.836 305.318 228.219 305.931C236.127 309.455 244.414 312.534 253.053 312.874" fill="#A8CBE8"/>
<path d="M283.499 251.004C273.359 251.004 264.041 250.795 257.451 257.516C250.861 264.236 248.446 274.755 251.448 283.681C252.962 288.196 255.715 292.203 258.926 295.713C263.545 300.763 269.77 305.057 276.608 304.77C281.946 304.535 287.596 302.695 290.65 298.297C293.691 293.899 294.252 287.087 293.991 281.749C293.73 276.412 292.803 269.835 290.52 264.993C292.856 265.032 294.435 265.333 295.935 263.545C293.221 262.801 290.794 261.065 289.202 258.742C291.485 259.238 293.978 258.638 295.805 257.176C290.989 255.545 286.409 253.248 282.22 250.364" fill="white"/>
<path d="M270.905 257.607C269.587 256.837 268.517 255.623 267.93 254.214C267.682 253.627 267.552 252.883 267.982 252.426C268.348 252.048 268.987 252.048 269.444 252.309C269.901 252.583 270.188 253.053 270.396 253.535C270.214 251.865 270.592 250.142 271.454 248.707C271.793 248.133 272.302 247.559 272.967 247.559C273.476 247.559 273.933 247.937 274.181 248.381C274.429 248.824 274.494 249.346 274.546 249.855C274.951 253.614 274.599 257.463 273.528 261.091" fill="white"/>
<path d="M270.905 257.607C269.587 256.837 268.517 255.623 267.93 254.214C267.682 253.627 267.552 252.883 267.982 252.426C268.348 252.048 268.987 252.048 269.444 252.309C269.901 252.583 270.188 253.053 270.396 253.535C270.214 251.865 270.592 250.142 271.454 248.707C271.793 248.133 272.302 247.559 272.967 247.559C273.476 247.559 273.933 247.937 274.181 248.381C274.429 248.824 274.494 249.346 274.546 249.855C274.951 253.614 274.599 257.463 273.528 261.091" stroke="#1893F8" stroke-width="0.5" stroke-miterlimit="10" stroke-linecap="round" stroke-linejoin="round"/>
<path d="M245.993 246.958C248.694 247.728 250.991 249.764 252.087 252.348C252.113 247.78 252.14 243.226 252.153 238.658C252.153 237.51 252.166 236.336 251.852 235.226C251.396 233.595 250.3 232.238 249.373 230.828C245.967 225.582 244.766 218.953 246.15 212.859C244.636 213.811 242.77 214.19 241.008 213.876C241.465 213.341 241.908 212.806 242.365 212.271C240.59 212.102 238.868 211.436 237.445 210.353C239.546 210.392 243.226 210.457 243.957 208.487C242.717 208.474 239.86 206.451 239.05 205.511C243.957 204.755 247.872 199.9 247.559 194.941C243.083 199.756 236.075 202.079 229.602 200.905C232.121 203.436 236.61 205.955 239.129 208.487C236.923 209.413 232.799 209.596 230.933 208.108C232.839 211.345 236.179 213.067 239.494 214.829C238.672 216.004 236.48 217.374 235.175 217.935C237.315 218.862 238.789 218.366 241.047 217.752C239.024 219.762 240.055 223.834 241.165 226.457C242.287 229.093 243.474 231.05 246.097 233.034C248.381 234.756 251.644 236.897 248.525 242.117L245.993 246.958Z" fill="#A8CBE8"/>
<path d="M223.43 300.202C223.364 298.819 224.134 297.423 225.348 296.77C221.981 296.248 218.888 294.199 217.087 291.302C219.449 291.341 221.824 291.38 224.186 291.42C218.34 288.979 214.19 282.95 213.994 276.621C218.327 278.174 222.229 280.94 225.126 284.503C225.739 281.515 224.969 278.265 223.09 275.864C226.653 277.234 229.054 280.732 230.085 284.399C231.116 288.079 230.999 291.968 230.855 295.778C231.912 277.56 237.615 259.63 247.285 244.152C248.564 242.091 249.986 239.794 249.49 237.419C248.838 234.3 245.367 232.838 243.044 230.659C239.703 227.514 238.724 222.124 240.747 218.013C238.633 218.796 236.219 218.796 234.104 217.987C236.245 217.831 238.293 216.63 239.455 214.829C235.488 213.876 231.964 211.214 229.981 207.652C232.865 209.231 236.414 209.544 239.533 208.487C235.67 206.477 232.186 203.737 229.341 200.448C233.361 202.523 238.359 201.087 242.195 198.673C246.032 196.259 249.255 192.944 253.262 190.83C257.268 188.716 262.58 188.064 266.051 190.974C265.411 189.342 264.772 187.724 264.132 186.093C271.454 193.414 275.93 194.954 281.815 199.378C280.68 198.282 281.124 196.063 282.585 195.489C284.751 203.058 286.944 211.097 284.804 218.679C282.885 225.465 277.6 231.442 277.939 238.489C278.161 243.213 280.993 247.506 284.608 250.56C288.223 253.614 292.595 255.597 296.888 257.555C294.774 258.925 292.216 259.604 289.697 259.473C291.877 260.726 294.069 261.992 296.249 263.245C294.683 265.046 292.242 266.037 289.854 265.868C295.244 276.947 295.361 290.454 290.18 301.625C284.999 312.795 274.612 321.435 262.671 324.475" stroke="#1893F8" stroke-miterlimit="10" stroke-linecap="round" stroke-linejoin="round"/>
<path d="M252.074 251.996C250.952 249.607 248.525 248.067 246.032 247.193C243.54 246.319 240.89 245.993 238.346 245.262C232.147 243.487 226.692 239.22 223.469 233.621C220.245 228.023 219.306 221.171 220.872 214.907C219.41 216.486 217.936 218.065 216.474 219.645C214.203 210.888 216.539 201.074 222.516 194.288C219.567 195.411 216.918 197.277 214.869 199.678C215.926 188.377 222.503 177.715 232.134 171.712C228.402 170.564 224.356 171.725 220.82 173.395C213.329 176.945 206.947 182.791 202.758 189.943C201.649 183 205.421 176.306 209.062 170.289C202.001 174.779 194.941 183.548 192.24 191.457C189.539 199.365 191 206.477 190.374 214.829C187.372 212.506 185.846 208.656 185.506 204.872C185.167 201.087 185.872 197.29 186.563 193.558C180.808 200.696 179.608 210.875 182.374 219.618C185.128 228.362 191.457 235.683 199.026 240.864C193.31 240.642 187.699 238.228 183.588 234.234C189.382 244.674 199.352 252.739 210.784 256.224C205.969 256.733 200.997 255.571 196.912 253C200.331 256.093 204.311 258.56 208.592 260.243C204.625 260.7 200.514 259.669 197.238 257.398C205.877 265.646 218.236 269.835 230.111 268.543C228.245 270.265 225.726 271.257 223.182 271.257C232.069 271.688 241.073 267.864 246.933 261.157" fill="#C6E1F5"/>
<path d="M252.074 251.996C250.952 249.607 248.525 248.067 246.032 247.193C243.54 246.319 240.89 245.993 238.346 245.262C232.147 243.487 226.692 239.22 223.469 233.621C220.245 228.023 219.306 221.171 220.872 214.907C219.41 216.486 217.936 218.065 216.474 219.645C214.203 210.888 216.539 201.074 222.516 194.288C219.567 195.411 216.918 197.277 214.869 199.678C215.926 188.377 222.503 177.715 232.134 171.712C228.402 170.564 224.356 171.725 220.82 173.395C213.329 176.945 206.947 182.791 202.758 189.943C201.649 183 205.421 176.306 209.062 170.289C202.001 174.779 194.941 183.548 192.24 191.457C189.539 199.365 191 206.477 190.374 214.829C187.372 212.506 185.846 208.656 185.506 204.872C185.167 201.087 185.872 197.29 186.563 193.558C180.808 200.696 179.608 210.875 182.374 219.618C185.128 228.362 191.457 235.683 199.026 240.864C193.31 240.642 187.699 238.228 183.588 234.234C189.382 244.674 199.352 252.739 210.784 256.224C205.969 256.733 200.997 255.571 196.912 253C200.331 256.093 204.311 258.56 208.592 260.243C204.624 260.7 200.514 259.669 197.238 257.398C205.877 265.646 218.236 269.835 230.111 268.543C228.245 270.265 225.726 271.257 223.182 271.257C232.069 271.688 241.073 267.864 246.933 261.157" stroke="#1893F8" stroke-miterlimit="10" stroke-linecap="round" stroke-linejoin="round"/>
<path d="M204.833 205.081C207.065 197.029 209.479 188.651 215.143 182.517C208.448 188.168 203.176 195.476 199.9 203.593C198.922 199.091 198.791 194.406 199.496 189.851C193.845 200.513 193.088 213.655 197.499 224.904C193.049 221.824 189.017 218.144 185.545 213.994C193.95 235.435 201.871 240.746 206.765 245.34C200.488 245.627 197.408 245.301 192.123 241.908C192.07 241.869 192.018 241.947 192.07 241.999C201.532 249.438 206.308 254.11 217.022 257.098C214.399 259.369 210.406 257.711 207.091 258.012C209.075 259.708 211.45 260.935 213.981 261.548C212.572 261.783 211.15 262.031 209.74 262.266C217.466 265.789 226.483 266.39 234.6 263.923L234.326 266.82C238.737 266.233 242.9 263.897 245.667 260.413C239.533 260.909 226.157 261.313 212.99 249.764C215.286 250.625 217.609 248.342 217.609 248.342C217.609 248.342 206.217 238.58 203.828 233.726C198.661 223.22 203.842 208.617 204.833 205.081Z" fill="#A8CBE8"/>
<path d="M268.987 222.163C270.383 224.277 272.537 225.869 274.964 226.6C277.391 227.331 280.067 227.161 282.389 226.156C281.724 227.383 281.058 228.623 280.08 229.615C279.114 230.607 277.783 231.35 276.386 231.298C274.298 231.233 272.654 229.484 271.662 227.644C270.671 225.817 270.057 223.755 268.739 222.137" fill="#A8CBE8"/>
<path d="M274.586 221.054C275.969 222.542 278.514 222.32 280.562 221.759C282.598 221.211 284.843 220.467 286.774 221.302C287.805 221.746 288.575 222.594 289.554 223.155C290.533 223.716 291.968 223.873 292.686 223.051C293.077 222.607 293.13 221.98 293.13 221.406C293.13 217.191 290.728 213.041 286.931 210.705C284.53 209.231 281.345 208.487 278.748 209.648C273.724 211.906 273.842 219.592 268.661 221.563C270.618 224.46 274.233 226.326 277.926 226.365C281.619 226.404 285.287 224.604 287.309 221.759" fill="#F8DA88"/>
<path d="M274.586 221.054C275.969 222.542 278.514 222.32 280.562 221.759C282.598 221.211 284.843 220.467 286.774 221.302C287.805 221.746 288.575 222.594 289.554 223.155C290.533 223.716 291.968 223.873 292.686 223.051C293.077 222.607 293.13 221.98 293.13 221.406C293.13 217.191 290.728 213.041 286.931 210.705C284.53 209.231 281.345 208.487 278.748 209.648C273.724 211.906 273.842 219.592 268.661 221.563C270.618 224.46 274.233 226.326 277.926 226.365C281.619 226.404 285.287 224.604 287.309 221.759" stroke="#1893F8" stroke-width="0.9278" stroke-miterlimit="10" stroke-linecap="round" stroke-linejoin="round"/>
<path d="M279.16 215.723C279.418 214.584 279.126 213.547 278.508 213.407C277.889 213.267 277.178 214.076 276.92 215.215C276.662 216.353 276.954 217.39 277.573 217.53C278.191 217.671 278.902 216.861 279.16 215.723Z" fill="#1893F8"/>
<path d="M259.095 217.087C261.261 214.111 264.55 211.958 268.152 211.162C268.922 210.992 269.757 210.862 270.305 210.301C271.114 209.492 270.984 208.108 270.488 207.077C269.3 204.585 266.39 203.149 263.65 203.423C260.909 203.697 258.443 205.511 257.059 207.9C256.172 209.426 255.702 211.24 255.976 212.989C256.237 214.738 257.307 216.395 258.912 217.152" fill="white"/>
<path d="M259.095 217.087C261.261 214.111 264.55 211.958 268.152 211.162C268.922 210.992 269.757 210.862 270.305 210.301C271.114 209.492 270.984 208.108 270.488 207.077C269.3 204.585 266.39 203.149 263.65 203.423C260.909 203.697 258.443 205.511 257.059 207.9C256.172 209.426 255.702 211.24 255.976 212.989C256.237 214.738 257.307 216.395 258.912 217.152" stroke="#1893F8" stroke-width="0.9278" stroke-miterlimit="10" stroke-linecap="round" stroke-linejoin="round"/>
<path d="M262.671 203.893C260.674 204.467 259.043 206.19 258.573 208.213C258.103 210.235 258.795 212.493 260.335 213.903C260.609 214.164 260.935 214.398 261.314 214.464C262.058 214.594 262.475 213.811 263.062 213.328C264.263 212.35 266.703 211.619 268.178 211.149C269.313 210.797 269.809 210.705 270.462 209.713C270.997 208.878 270.892 207.743 270.397 206.895C269.901 206.046 269.131 205.002 268.243 204.546C266.508 203.645 264.093 203.567 262.149 203.724" fill="#F6BF3E"/>
<path d="M264.237 203.776C262.384 203.671 260.622 205.237 260.426 207.09C260.244 208.944 261.575 210.797 263.376 211.293C265.163 211.788 267.212 210.927 268.191 209.348C268.661 208.578 268.909 207.652 268.791 206.764C268.635 205.603 267.865 204.559 266.834 204.024C265.803 203.489 264.524 203.45 263.441 203.867" fill="#1893F8"/>
<path d="M265.02 208.304C265.467 208.304 265.829 207.942 265.829 207.495C265.829 207.048 265.467 206.686 265.02 206.686C264.573 206.686 264.211 207.048 264.211 207.495C264.211 207.942 264.573 208.304 265.02 208.304Z" fill="white"/>
<path d="M266.481 205.629C267.082 205.629 267.525 206.216 267.721 206.999C267.76 207.143 267.826 207.325 267.917 207.273C267.956 207.247 267.982 207.182 267.995 207.117C268.113 206.595 268.034 205.968 267.8 205.498C267.565 205.042 267.186 204.768 266.834 204.807C266.677 204.82 266.403 204.911 266.351 205.068C266.273 205.368 266.39 205.629 266.481 205.629Z" fill="white"/>
<path d="M259.095 217.087C261.261 214.111 264.55 211.958 268.152 211.162C268.922 210.992 269.757 210.862 270.305 210.301C271.114 209.492 270.984 208.108 270.488 207.077C269.3 204.585 266.39 203.149 263.65 203.423C260.909 203.697 258.443 205.511 257.059 207.9C256.172 209.426 255.702 211.24 255.976 212.989C256.237 214.738 257.307 216.395 258.912 217.152" stroke="#1893F8" stroke-width="0.9278" stroke-miterlimit="10" stroke-linecap="round" stroke-linejoin="round"/>
<path d="M210.862 206.321C210.562 206.347 210.367 206.66 210.367 206.96C210.367 207.26 210.51 207.534 210.641 207.795C210.862 208.226 211.15 208.696 211.632 208.774C212.102 208.852 212.559 208.461 212.637 207.991C212.716 207.534 212.481 207.051 212.128 206.738C211.776 206.451 211.306 206.281 210.862 206.321Z" fill="#A8CBE8"/>
<path d="M210.014 211.319C209.753 211.841 209.792 212.506 210.106 213.002C210.419 213.498 210.993 213.811 211.58 213.798C211.724 213.224 211.554 212.584 211.176 212.141C210.784 211.71 210.171 211.475 210.014 211.319Z" fill="#A8CBE8"/>
<path d="M212.963 218.901C212.702 218.77 212.441 218.627 212.141 218.614C211.854 218.601 211.528 218.757 211.45 219.031C211.384 219.266 211.489 219.527 211.671 219.697C211.854 219.866 212.089 219.958 212.311 220.049C212.572 220.153 212.846 220.258 213.133 220.258C213.42 220.258 213.72 220.101 213.825 219.84C213.942 219.527 213.733 219.162 213.446 218.992C213.146 218.835 212.794 218.809 212.963 218.901Z" fill="#A8CBE8"/>
<path d="M215.495 224.721C215.13 224.617 214.751 224.512 214.386 224.577C214.021 224.656 213.668 224.982 213.707 225.347C213.746 225.765 214.229 226 214.647 226.052C214.986 226.091 215.339 226.078 215.639 225.909C215.939 225.739 216.148 225.4 216.095 225.06C216.043 224.721 215.678 224.46 215.495 224.721Z" fill="#A8CBE8"/>
<path d="M218.601 229.236C217.622 228.727 216.409 228.688 215.391 229.119C215.038 229.275 214.647 229.654 214.856 229.993C214.96 230.163 215.182 230.215 215.378 230.254C216.004 230.372 216.644 230.45 217.283 230.489C217.557 230.502 217.831 230.515 218.092 230.424C218.353 230.333 218.575 230.124 218.614 229.85C218.653 229.576 218.431 229.275 218.601 229.236Z" fill="#A8CBE8"/>
<path d="M219.945 232.812C219.384 232.982 218.797 233.177 218.458 233.647C218.118 234.117 218.249 234.952 218.81 235.083C219.201 235.174 219.58 234.9 219.841 234.587C220.076 234.313 220.258 233.986 220.298 233.621C220.324 233.256 220.167 232.877 219.945 232.812Z" fill="#A8CBE8"/>
<path d="M221.576 236.218C221.315 235.787 220.676 235.618 220.245 235.879C219.802 236.14 219.658 236.792 219.932 237.21C220.206 237.627 220.885 237.745 221.276 237.419C221.668 237.105 221.772 236.518 221.576 236.218Z" fill="#A8CBE8"/>
<path d="M224.2 239.598C223.612 239.728 222.895 239.976 222.803 240.577C222.738 241.033 223.182 241.477 223.651 241.464C224.121 241.451 224.513 241.02 224.565 240.564C224.617 240.094 224.343 239.637 224.2 239.598Z" fill="#1893F8"/>
<path d="M275.656 249.699C275.643 249.568 275.878 249.503 275.93 249.621C275.983 249.751 275.8 249.895 275.656 249.699Z" fill="#1893F8"/>
<path d="M253.81 224.186C253.001 224.121 252.166 224.343 251.487 224.799C251.213 224.982 250.926 225.282 250.991 225.608C251.03 225.83 251.239 226 251.461 226.052C251.683 226.104 251.918 226.065 252.14 226C252.87 225.765 253.458 225.139 253.81 224.186Z" fill="#1893F8"/>
<path d="M254.58 225.569C253.693 225.7 252.87 226.222 252.388 226.979C252.192 227.279 252.061 227.696 252.296 227.97C252.557 228.258 253.04 228.14 253.366 227.931C253.823 227.657 254.215 227.279 254.502 226.822C254.723 226.483 254.867 225.974 254.58 225.569Z" fill="#1893F8"/>
<path d="M256.42 227.409C256.055 227.331 255.676 227.579 255.506 227.905C255.337 228.231 255.311 228.623 255.324 229.001C255.337 229.367 255.428 229.797 255.767 229.941C256.146 230.111 256.577 229.784 256.746 229.406C257.033 228.806 256.929 228.036 256.42 227.409Z" fill="#1893F8"/>
<path d="M257.921 228.923C257.738 229.732 257.829 230.607 258.182 231.363C258.312 231.651 258.586 231.977 258.899 231.872C259.226 231.768 259.239 231.337 259.213 230.998C259.174 230.593 259.121 230.163 258.939 229.797C258.756 229.432 258.39 229.119 257.921 228.923Z" fill="#1893F8"/>
<path d="M261.718 230.267C261.562 230.515 261.405 230.776 261.418 231.063C261.431 231.35 261.705 231.637 261.979 231.559C262.24 231.481 262.319 231.116 262.188 230.868C262.058 230.633 261.81 230.476 261.718 230.267Z" fill="#1893F8"/>
<path d="M272.132 202.914C272.21 203.906 272.367 204.885 272.602 205.851C272.68 206.164 272.837 206.542 273.163 206.568C273.476 206.595 273.685 206.268 273.776 205.968C274.129 204.807 273.607 203.449 272.563 202.823C272.458 202.758 272.341 202.706 272.21 202.732C272.08 202.758 272.028 202.914 272.132 202.914Z" fill="#A8CBE8"/>
<path d="M291.381 242.534C290.859 243.252 290.676 244.205 290.924 245.066C290.989 245.301 291.133 245.562 291.368 245.614C291.707 245.679 291.955 245.301 292.06 244.975C292.203 244.518 292.294 244.048 292.321 243.578C292.334 243.239 292.321 242.874 292.086 242.626C291.851 242.378 291.381 242.365 291.381 242.534Z" fill="#A8CBE8"/>
<path d="M294.265 239.52C293.56 240.603 293.391 242.012 293.821 243.226C293.9 243.435 294.043 243.683 294.265 243.67C294.422 243.67 294.539 243.539 294.643 243.409C295.205 242.678 295.518 241.777 295.531 240.851C295.531 240.485 295.479 240.081 295.257 239.794C295.022 239.507 294.578 239.363 294.265 239.52Z" fill="#A8CBE8"/>
<path d="M297.097 236.375C296.927 236.401 296.758 236.427 296.588 236.453C296.588 236.897 296.444 237.327 296.483 237.758C296.523 238.189 296.836 238.671 297.28 238.645C297.671 238.619 297.932 238.215 298.036 237.836C298.154 237.393 298.141 236.871 297.854 236.518C297.567 236.166 296.901 236.101 297.097 236.375Z" fill="#A8CBE8"/>
<path d="M299.459 231.729C298.937 232.042 298.637 232.681 298.728 233.282C298.78 233.595 298.963 233.934 299.276 233.986C299.694 234.065 300.02 233.621 300.124 233.203C300.203 232.877 300.216 232.512 300.046 232.225C299.876 231.938 299.498 231.742 299.459 231.729Z" fill="#A8CBE8"/>
<path d="M300.999 228.558C300.686 228.571 300.411 228.832 300.32 229.132C300.229 229.432 300.268 229.758 300.333 230.072C300.411 230.411 300.607 230.815 300.96 230.815C301.312 230.815 301.521 230.424 301.599 230.085C301.69 229.732 301.73 229.341 301.586 229.001C301.442 228.675 301.064 228.414 300.999 228.558Z" fill="#A8CBE8"/>
<path d="M301.991 225.517C301.86 225.139 301.26 225.086 300.999 225.4C300.738 225.713 300.803 226.196 301.051 226.522C301.286 226.822 301.743 226.992 302.069 226.796C302.343 226.626 302.434 226.248 302.33 225.948C302.225 225.648 301.925 225.426 301.991 225.517Z" fill="#A8CBE8"/>
<path d="M303.074 223.207C302.865 222.894 302.343 222.92 302.121 223.207C301.899 223.507 301.978 223.964 302.265 224.199C302.473 224.369 302.761 224.421 303.008 224.316C303.256 224.212 303.413 223.925 303.348 223.677C303.309 223.416 303.022 223.22 303.074 223.207Z" fill="#A8CBE8"/>
<path d="M303.752 221.145C303.517 221.158 303.296 221.171 303.061 221.184C302.852 221.393 302.878 221.798 303.113 221.98C303.348 222.163 303.739 222.098 303.896 221.837C304.052 221.589 303.935 221.211 303.752 221.145Z" fill="#A8CBE8"/>
<path d="M305.149 218.327C304.953 218.444 304.757 218.574 304.548 218.692C304.483 218.94 304.666 219.214 304.914 219.253C305.162 219.292 305.423 219.096 305.449 218.848C305.475 218.601 305.253 218.353 305.149 218.327Z" fill="#A8CBE8"/>
<path d="M323.523 338.334C333.389 334.289 348.148 335.502 355.352 343.372C359.541 334.25 370.581 320.273 380.486 318.642C381.113 314.022 384.271 310.068 388.094 307.406C391.918 304.744 396.381 303.204 400.792 301.703C407.226 299.498 414.482 297.318 420.602 300.294C425.352 302.603 428.328 307.732 429.045 312.965C429.763 318.198 428.484 323.536 426.527 328.442C431.747 332.357 434.579 339.235 433.626 345.695C432.673 352.154 427.962 357.909 421.829 360.141C425.652 367.449 424.569 377.028 419.206 383.292C413.842 389.556 404.551 392.113 396.734 389.477C388.173 404.041 370.294 412.511 353.603 409.914C351.581 414.207 346.569 416.034 342.041 417.456C336.534 419.179 331.014 420.902 325.507 422.624C321.696 423.812 317.768 425.025 313.801 424.621C307.224 423.968 301.599 418.683 299.655 412.367C297.697 406.051 299.093 398.991 302.5 393.327C305.906 387.663 311.139 383.279 316.868 379.977C309.077 373.191 305.501 361.916 307.954 351.867C310.408 341.832 318.747 340.292 323.523 338.334Z" fill="white" stroke="#D1D1D1" stroke-miterlimit="10" stroke-linecap="round" stroke-linejoin="round"/>
<path d="M368.82 339.848C355.822 328.873 347.822 307.406 354.347 297.866C358.288 292.111 368.324 291.928 373.805 293.521C379.638 295.204 396.681 303.426 396.355 303.948C396.172 304.235 393.197 304.731 392.858 304.731C391.187 304.717 386.959 302.16 386.959 302.16L401.275 310.955C401.875 311.36 402.567 312.078 402.175 312.691C401.94 313.056 401.445 313.135 401.001 313.135C399.2 313.135 397.412 312.521 395.977 311.412C399.161 313.683 403.154 314.779 407.056 314.479C407.656 314.427 408.191 314.949 408.1 315.588C407.943 316.724 407.421 317.794 406.665 318.668C405.934 319.516 406.573 320.873 407.63 320.638C407.669 320.625 407.709 320.625 407.748 320.612C408.531 320.443 409.235 321.2 409.014 322.022C408.374 324.358 406.26 326.302 403.898 327.098C400.949 328.103 397.738 327.712 394.672 327.203C397.334 328.168 400.283 328.299 403.037 327.607C403.846 327.411 404.537 328.286 404.133 329.056C401.249 334.615 395.298 338.4 389.073 339.274C382.835 340.148 376.454 338.4 371.012 335.163C370.268 334.719 369.407 335.45 369.629 336.312C369.824 337.081 370.046 337.838 370.281 338.595C370.529 339.391 369.785 340.174 369.054 339.861" fill="#C6E1F5"/>
<path d="M368.82 339.848C355.822 328.873 347.822 307.406 354.347 297.866C358.288 292.111 368.324 291.928 373.805 293.521C379.638 295.204 396.681 303.426 396.355 303.948C396.172 304.235 393.197 304.731 392.858 304.731C391.187 304.717 386.959 302.16 386.959 302.16L401.275 310.955C401.875 311.36 402.567 312.078 402.175 312.691C401.94 313.056 401.445 313.135 401.001 313.135C399.2 313.135 397.412 312.521 395.977 311.412C399.161 313.683 403.154 314.779 407.056 314.479C407.656 314.427 408.191 314.949 408.1 315.588C407.943 316.724 407.421 317.794 406.665 318.668C405.934 319.516 406.573 320.873 407.63 320.638C407.669 320.625 407.709 320.625 407.748 320.612C408.531 320.443 409.235 321.2 409.014 322.022C408.374 324.358 406.26 326.302 403.898 327.098C400.949 328.103 397.738 327.712 394.672 327.203C397.334 328.168 400.283 328.299 403.037 327.607C403.846 327.411 404.537 328.286 404.133 329.056C401.249 334.615 395.298 338.4 389.073 339.274C382.835 340.148 376.454 338.4 371.012 335.163C370.268 334.719 369.407 335.45 369.629 336.312C369.824 337.081 370.046 337.838 370.281 338.595C370.529 339.391 369.785 340.174 369.054 339.861" stroke="#1893F8" stroke-width="1.0713" stroke-miterlimit="10" stroke-linecap="round" stroke-linejoin="round"/>
<path d="M354.556 305.527C353.355 316.58 358.406 328.09 367.345 334.693C366.458 334.432 366.184 333.18 366.706 332.423C367.228 331.666 368.258 331.405 369.159 331.535C370.072 331.666 370.895 332.122 371.704 332.553C376.663 335.189 382.091 337.251 387.716 337.173C393.328 337.095 399.135 334.55 402.019 329.734C390.117 330.765 382.392 328.756 373.831 325.115C365.257 321.474 358.523 313.97 354.556 305.527Z" fill="#A8CBE8"/>
<path d="M224.487 300.555C218.98 293.142 203.045 288.496 191.901 291.185C179.999 294.069 168.868 300.776 161.599 310.629C154.317 320.482 151.185 333.532 154.186 345.407C157.188 357.283 168.254 368.532 179.529 372.447C180.051 369.746 178.942 366.052 179.464 363.351C178.407 380.538 189.486 397.777 205.551 403.976C221.616 410.175 241.399 404.824 252.153 391.383C246.241 397.764 240.525 400.766 233.974 404.485C237.223 412.015 247.716 416.151 255.911 416.569C264.106 416.987 272.119 414.364 279.897 411.78C284.595 419.427 293.743 423.433 302.682 424.151C311.621 424.869 320.535 422.768 329.252 420.654C337.069 418.761 345.16 416.713 351.437 411.675C357.714 406.638 361.642 397.712 358.432 390.339C364.97 388.446 367.723 378.985 363.221 373.882C368.924 373.321 372.852 366.209 370.281 361.094C373.687 360.428 375.123 355.312 372.552 352.976C375.097 351.815 375.919 348.004 374.066 345.903C372.213 343.802 368.337 344.115 366.849 346.491C366.431 341.819 360.376 338.726 356.344 341.127C356.722 337.016 351.933 333.388 348.083 334.889C343.15 329.017 334.824 326.211 327.347 327.907C319.243 318.159 307.589 311.425 295.087 309.285C282.585 307.145 269.353 309.598 258.469 316.084C263.858 321.474 267.317 327.803 270.853 333.467C261.614 317.363 252.322 308.084 238.737 303.151C225.152 298.219 209.766 301.063 196.338 306.414C204.39 301.533 224.487 300.555 224.487 300.555Z" fill="#F6F6F6" stroke="#D1D1D1" stroke-miterlimit="10" stroke-linecap="round" stroke-linejoin="round"/>
<path d="M187.059 313.983C187.268 308.606 186.524 305.592 193.715 297.657C187.555 296.131 177.624 298.806 172.561 302.629C167.497 306.44 163.869 311.882 161.077 317.572C158.623 322.583 156.718 328.012 156.718 333.597C156.718 339.183 158.858 344.964 163.269 348.396C167.68 351.828 174.492 352.298 178.759 348.709C178.903 350.053 180.273 350.928 181.604 351.202C182.935 351.476 184.319 351.371 185.598 351.776C188.077 352.546 189.604 354.947 191.092 357.061C203.254 374.431 226.927 382.796 247.755 378.241C251.618 376.297 261.705 385.223 259.2 388.746C254.658 395.154 253.144 407.434 258.195 409.9C264.367 412.902 272.811 408.817 280.354 406.26C296.627 400.739 292.96 413.463 330.609 404.785C333.937 404.015 329.017 411.714 326.394 413.907C334.824 412.902 341.389 408.622 345.943 401.47C352.442 391.265 356.54 381.138 351.998 370.803C356.148 368.428 357.205 360.337 353.46 357.361C349.714 354.386 347.17 354.125 342.38 354.033C339.405 344.951 331.34 337.734 321.996 335.763C316.959 329.943 311.791 323.992 305.083 320.234C298.376 316.462 289.697 315.249 283.055 319.125C276.413 323.014 273.398 332.932 278.318 338.856C271.454 336.729 263.441 338.869 258.56 344.155C254.449 331.483 244.597 320.808 232.304 315.706C220.01 310.603 205.486 311.164 193.623 317.193C191.966 315.079 189.239 313.866 186.563 314.022" fill="white"/>
</svg>
