<svg viewBox="0 0 696 728" fill="none" xmlns="http://www.w3.org/2000/svg">
<path d="M529.053 457.283C508.029 427.066 475.907 405.149 438.591 397.434C416.143 364.785 378.526 343.377 335.91 343.377H281.241C216.36 343.377 163.069 392.997 157.245 456.359H113.59C50.8562 456.359 0.000488281 507.215 0.000488281 569.949C0.000488281 632.682 50.8562 683.538 113.59 683.538H372.55C383.897 683.538 393.342 683.538 404.549 683.538H408.194C419.402 683.538 430.669 683.538 441.408 683.538H514.494C577.228 683.538 628.084 632.682 628.084 569.949C628.084 512.147 584.911 464.43 529.053 457.283Z" fill="url(#paint0_radial_2138_1778)"/>
<path opacity="0.3" d="M528.926 458.275L528.485 458.219L528.232 457.854C507.35 427.842 475.447 406.075 438.389 398.414L437.995 398.332L437.767 398.001C415.497 365.612 378.183 344.377 335.91 344.377H281.241C216.882 344.377 164.017 393.599 158.241 456.451L158.158 457.359H157.245H113.59C51.4085 457.359 1.00049 507.767 1.00049 569.949C1.00049 632.13 51.4085 682.538 113.59 682.538H372.55H372.617H372.683H372.75H372.816H372.882H372.949H373.015H373.081H373.147H373.213H373.279H373.345H373.411H373.477H373.543H373.609H373.674H373.74H373.806H373.872H373.937H374.003H374.068H374.134H374.199H374.265H374.33H374.395H374.461H374.526H374.591H374.656H374.722H374.787H374.852H374.917H374.982H375.047H375.112H375.177H375.242H375.306H375.371H375.436H375.501H375.565H375.63H375.694H375.759H375.824H375.888H375.953H376.017H376.081H376.146H376.21H376.274H376.339H376.403H376.467H376.531H376.595H376.659H376.723H376.787H376.851H376.915H376.979H377.043H377.107H377.171H377.235H377.298H377.362H377.426H377.489H377.553H377.617H377.68H377.744H377.807H377.871H377.934H377.998H378.061H378.124H378.188H378.251H378.314H378.378H378.441H378.504H378.567H378.63H378.693H378.756H378.819H378.882H378.945H379.008H379.071H379.134H379.197H379.26H379.323H379.386H379.448H379.511H379.574H379.637H379.699H379.762H379.825H379.887H379.95H380.012H380.075H380.137H380.2H380.262H380.325H380.387H380.449H380.512H380.574H380.636H380.699H380.761H380.823H380.885H380.948H381.01H381.072H381.134H381.196H381.258H381.32H381.382H381.444H381.506H381.568H381.63H381.692H381.754H381.816H381.878H381.94H382.002H382.064H382.125H382.187H382.249H382.311H382.372H382.434H382.496H382.558H382.619H382.681H382.742H382.804H382.866H382.927H382.989H383.05H383.112H383.173H383.235H383.296H383.358H383.419H383.481H383.542H383.603H383.665H383.726H383.788H383.849H383.91H383.972H384.033H384.094H384.155H384.217H384.278H384.339H384.4H384.462H384.523H384.584H384.645H384.706H384.767H384.828H384.89H384.951H385.012H385.073H385.134H385.195H385.256H385.317H385.378H385.439H385.5H385.561H385.622H385.683H385.744H385.805H385.866H385.927H385.988H386.049H386.11H386.171H386.232H386.292H386.353H386.414H386.475H386.536H386.597H386.658H386.718H386.779H386.84H386.901H386.962H387.023H387.083H387.144H387.205H387.266H387.326H387.387H387.448H387.509H387.57H387.63H387.691H387.752H387.813H387.873H387.934H387.995H388.056H388.116H388.177H388.238H388.298H388.359H388.42H388.481H388.541H388.602H388.663H388.723H388.784H388.845H388.906H388.966H389.027H389.088H389.148H389.209H389.27H389.33H389.391H389.452H389.513H389.573H389.634H389.695H389.755H389.816H389.877H389.938H389.998H390.059H390.12H390.18H390.241H390.302H390.363H390.423H390.484H390.545H390.605H390.666H390.727H390.788H390.849H390.909H390.97H391.031H391.092H391.152H391.213H391.274H391.335H391.396H391.456H391.517H391.578H391.639H391.7H391.761H391.821H391.882H391.943H392.004H392.065H392.126H392.187H392.248H392.308H392.369H392.43H392.491H392.552H392.613H392.674H392.735H392.796H392.857H392.918H392.979H393.04H393.101H393.162H393.223H393.284H393.345H393.407H393.468H393.529H393.59H393.651H393.712H393.773H393.834H393.896H393.957H394.018H394.079H394.141H394.202H394.263H394.324H394.386H394.447H394.508H394.57H394.631H394.692H394.754H394.815H394.876H394.938H394.999H395.061H395.122H395.184H395.245H395.307H395.368H395.43H395.491H395.553H395.615H395.676H395.738H395.799H395.861H395.923H395.985H396.046H396.108H396.17H396.232H396.293H396.355H396.417H396.479H396.541H396.603H396.665H396.726H396.788H396.85H396.912H396.974H397.036H397.099H397.161H397.223H397.285H397.347H397.409H397.471H397.534H397.596H397.658H397.72H397.783H397.845H397.907H397.97H398.032H398.094H398.157H398.219H398.282H398.344H398.407H398.469H398.532H398.595H398.657H398.72H398.783H398.845H398.908H398.971H399.034H399.097H399.159H399.222H399.285H399.348H399.411H399.474H399.537H399.6H399.663H399.726H399.789H399.852H399.916H399.979H400.042H400.105H400.169H400.232H400.295H400.359H400.422H400.486H400.549H400.612H400.676H400.74H400.803H400.867H400.93H400.994H401.058H401.122H401.185H401.249H401.313H401.377H401.441H401.505H401.569H401.633H401.697H401.761H401.825H401.889H401.953H402.017H402.082H402.146H402.21H402.275H402.339H402.403H402.468H402.532H402.597H402.661H402.726H402.791H402.855H402.92H402.985H403.049H403.114H403.179H403.244H403.309H403.374H403.439H403.504H403.569H403.634H403.699H403.764H403.829H403.895H403.96H404.025H404.091H404.156H404.222H404.287H404.353H404.418H404.484H404.549H408.194H408.26H408.325H408.391H408.457H408.522H408.588H408.654H408.719H408.785H408.851H408.916H408.982H409.048H409.113H409.179H409.245H409.311H409.376H409.442H409.508H409.573H409.639H409.705H409.77H409.836H409.902H409.967H410.033H410.099H410.165H410.23H410.296H410.362H410.427H410.493H410.559H410.624H410.69H410.756H410.822H410.887H410.953H411.019H411.084H411.15H411.216H411.282H411.347H411.413H411.479H411.544H411.61H411.676H411.741H411.807H411.873H411.939H412.004H412.07H412.136H412.201H412.267H412.333H412.398H412.464H412.53H412.596H412.661H412.727H412.793H412.858H412.924H412.99H413.055H413.121H413.187H413.253H413.318H413.384H413.45H413.515H413.581H413.647H413.712H413.778H413.844H413.91H413.975H414.041H414.107H414.172H414.238H414.304H414.369H414.435H414.501H414.566H414.632H414.698H414.763H414.829H414.895H414.96H415.026H415.092H415.157H415.223H415.289H415.354H415.42H415.486H415.551H415.617H415.683H415.748H415.814H415.88H415.945H416.011H416.077H416.142H416.208H416.274H416.339H416.405H416.47H416.536H416.602H416.667H416.733H416.799H416.864H416.93H416.995H417.061H417.127H417.192H417.258H417.323H417.389H417.455H417.52H417.586H417.651H417.717H417.783H417.848H417.914H417.979H418.045H418.111H418.176H418.242H418.307H418.373H418.438H418.504H418.57H418.635H418.701H418.766H418.832H418.897H418.963H419.028H419.094H419.159H419.225H419.29H419.356H419.422H419.487H419.553H419.618H419.684H419.749H419.815H419.88H419.946H420.011H420.077H420.142H420.208H420.273H420.338H420.404H420.469H420.535H420.6H420.666H420.731H420.797H420.862H420.928H420.993H421.058H421.124H421.189H421.255H421.32H421.386H421.451H421.516H421.582H421.647H421.713H421.778H421.843H421.909H421.974H422.04H422.105H422.17H422.236H422.301H422.366H422.432H422.497H422.562H422.628H422.693H422.758H422.824H422.889H422.954H423.02H423.085H423.15H423.216H423.281H423.346H423.411H423.477H423.542H423.607H423.672H423.738H423.803H423.868H423.933H423.999H424.064H424.129H424.194H424.26H424.325H424.39H424.455H424.52H424.586H424.651H424.716H424.781H424.846H424.911H424.977H425.042H425.107H425.172H425.237H425.302H425.368H425.433H425.498H425.563H425.628H425.693H425.758H425.823H425.888H425.953H426.018H426.084H426.149H426.214H426.279H426.344H426.409H426.474H426.539H426.604H426.669H426.734H426.799H426.864H426.929H426.994H427.059H427.124H427.189H427.254H427.319H427.384H427.449H427.513H427.578H427.643H427.708H427.773H427.838H427.903H427.968H428.033H428.098H428.162H428.227H428.292H428.357H428.422H428.487H428.552H428.616H428.681H428.746H428.811H428.876H428.94H429.005H429.07H429.135H429.199H429.264H429.329H429.394H429.458H429.523H429.588H429.652H429.717H429.782H429.847H429.911H429.976H430.041H430.105H430.17H430.235H430.299H430.364H430.428H430.493H430.558H430.622H430.687H430.751H430.816H430.881H430.945H431.01H431.074H431.139H431.203H431.268H431.332H431.397H431.461H431.526H431.59H431.655H431.719H431.784H431.848H431.913H431.977H432.041H432.106H432.17H432.235H432.299H432.363H432.428H432.492H432.556H432.621H432.685H432.749H432.814H432.878H432.942H433.007H433.071H433.135H433.2H433.264H433.328H433.392H433.456H433.521H433.585H433.649H433.713H433.778H433.842H433.906H433.97H434.034H434.098H434.162H434.227H434.291H434.355H434.419H434.483H434.547H434.611H434.675H434.739H434.803H434.867H434.931H434.995H435.059H435.123H435.187H435.251H435.315H435.379H435.443H435.507H435.571H435.635H435.699H435.763H435.827H435.891H435.954H436.018H436.082H436.146H436.21H436.274H436.338H436.401H436.465H436.529H436.593H436.656H436.72H436.784H436.848H436.911H436.975H437.039H437.102H437.166H437.23H437.293H437.357H437.421H437.484H437.548H437.612H437.675H437.739H437.802H437.866H437.929H437.993H438.057H438.12H438.184H438.247H438.311H438.374H438.438H438.501H438.564H438.628H438.691H438.755H438.818H438.882H438.945H439.008H439.072H439.135H439.198H439.262H439.325H439.388H439.452H439.515H439.578H439.641H439.705H439.768H439.831H439.894H439.957H440.021H440.084H440.147H440.21H440.273H440.336H440.4H440.463H440.526H440.589H440.652H440.715H440.778H440.841H440.904H440.967H441.03H441.093H441.156H441.219H441.282H441.345H441.408H514.494C576.676 682.538 627.084 632.13 627.084 569.949C627.084 512.657 584.291 465.359 528.926 458.275Z" stroke="url(#paint1_linear_2138_1778)" stroke-width="2"/>
<path opacity="0.3" d="M608.053 500.906C587.029 470.689 554.907 448.772 517.591 441.057C495.143 408.408 457.526 387 414.91 387H360.241C295.36 387 242.069 436.62 236.245 499.982H192.59C129.856 499.982 79.0005 550.838 79.0005 613.572C79.0005 676.305 129.856 727.161 192.59 727.161H451.55C462.897 727.161 472.342 727.161 483.549 727.161H487.194C498.402 727.161 509.669 727.161 520.408 727.161H593.494C656.228 727.161 707.084 676.305 707.084 613.572C707.084 555.771 663.911 508.053 608.053 500.906Z" fill="url(#paint2_linear_2138_1778)"/>
<path opacity="0.3" d="M607.926 501.898L607.485 501.842L607.232 501.478C586.35 471.465 554.447 449.698 517.389 442.037L516.995 441.955L516.767 441.624C494.497 409.235 457.183 388 414.91 388H360.241C295.882 388 243.017 437.222 237.241 500.074L237.158 500.982H236.245H192.59C130.409 500.982 80.0005 551.39 80.0005 613.572C80.0005 675.753 130.409 726.161 192.59 726.161H451.55H451.617H451.683H451.75H451.816H451.882H451.949H452.015H452.081H452.147H452.213H452.279H452.345H452.411H452.477H452.543H452.609H452.674H452.74H452.806H452.872H452.937H453.003H453.068H453.134H453.199H453.265H453.33H453.395H453.461H453.526H453.591H453.656H453.722H453.787H453.852H453.917H453.982H454.047H454.112H454.177H454.242H454.306H454.371H454.436H454.501H454.565H454.63H454.694H454.759H454.824H454.888H454.953H455.017H455.081H455.146H455.21H455.274H455.339H455.403H455.467H455.531H455.595H455.659H455.723H455.787H455.851H455.915H455.979H456.043H456.107H456.171H456.235H456.298H456.362H456.426H456.489H456.553H456.617H456.68H456.744H456.807H456.871H456.934H456.998H457.061H457.124H457.188H457.251H457.314H457.378H457.441H457.504H457.567H457.63H457.693H457.756H457.819H457.882H457.945H458.008H458.071H458.134H458.197H458.26H458.323H458.386H458.448H458.511H458.574H458.637H458.699H458.762H458.825H458.887H458.95H459.012H459.075H459.137H459.2H459.262H459.325H459.387H459.449H459.512H459.574H459.636H459.699H459.761H459.823H459.885H459.948H460.01H460.072H460.134H460.196H460.258H460.32H460.382H460.444H460.506H460.568H460.63H460.692H460.754H460.816H460.878H460.94H461.002H461.064H461.125H461.187H461.249H461.311H461.372H461.434H461.496H461.558H461.619H461.681H461.742H461.804H461.866H461.927H461.989H462.05H462.112H462.173H462.235H462.296H462.358H462.419H462.481H462.542H462.603H462.665H462.726H462.788H462.849H462.91H462.972H463.033H463.094H463.155H463.217H463.278H463.339H463.4H463.462H463.523H463.584H463.645H463.706H463.767H463.828H463.89H463.951H464.012H464.073H464.134H464.195H464.256H464.317H464.378H464.439H464.5H464.561H464.622H464.683H464.744H464.805H464.866H464.927H464.988H465.049H465.11H465.171H465.232H465.292H465.353H465.414H465.475H465.536H465.597H465.658H465.718H465.779H465.84H465.901H465.962H466.023H466.083H466.144H466.205H466.266H466.326H466.387H466.448H466.509H466.57H466.63H466.691H466.752H466.813H466.873H466.934H466.995H467.056H467.116H467.177H467.238H467.298H467.359H467.42H467.481H467.541H467.602H467.663H467.723H467.784H467.845H467.906H467.966H468.027H468.088H468.148H468.209H468.27H468.33H468.391H468.452H468.513H468.573H468.634H468.695H468.755H468.816H468.877H468.938H468.998H469.059H469.12H469.18H469.241H469.302H469.363H469.423H469.484H469.545H469.605H469.666H469.727H469.788H469.849H469.909H469.97H470.031H470.092H470.152H470.213H470.274H470.335H470.396H470.456H470.517H470.578H470.639H470.7H470.761H470.821H470.882H470.943H471.004H471.065H471.126H471.187H471.248H471.308H471.369H471.43H471.491H471.552H471.613H471.674H471.735H471.796H471.857H471.918H471.979H472.04H472.101H472.162H472.223H472.284H472.345H472.407H472.468H472.529H472.59H472.651H472.712H472.773H472.834H472.896H472.957H473.018H473.079H473.141H473.202H473.263H473.324H473.386H473.447H473.508H473.57H473.631H473.692H473.754H473.815H473.876H473.938H473.999H474.061H474.122H474.184H474.245H474.307H474.368H474.43H474.491H474.553H474.615H474.676H474.738H474.799H474.861H474.923H474.985H475.046H475.108H475.17H475.232H475.293H475.355H475.417H475.479H475.541H475.603H475.665H475.726H475.788H475.85H475.912H475.974H476.036H476.099H476.161H476.223H476.285H476.347H476.409H476.471H476.534H476.596H476.658H476.72H476.783H476.845H476.907H476.97H477.032H477.094H477.157H477.219H477.282H477.344H477.407H477.469H477.532H477.595H477.657H477.72H477.783H477.845H477.908H477.971H478.034H478.097H478.159H478.222H478.285H478.348H478.411H478.474H478.537H478.6H478.663H478.726H478.789H478.852H478.916H478.979H479.042H479.105H479.169H479.232H479.295H479.359H479.422H479.486H479.549H479.612H479.676H479.74H479.803H479.867H479.93H479.994H480.058H480.122H480.185H480.249H480.313H480.377H480.441H480.505H480.569H480.633H480.697H480.761H480.825H480.889H480.953H481.017H481.082H481.146H481.21H481.275H481.339H481.403H481.468H481.532H481.597H481.661H481.726H481.791H481.855H481.92H481.985H482.049H482.114H482.179H482.244H482.309H482.374H482.439H482.504H482.569H482.634H482.699H482.764H482.829H482.895H482.96H483.025H483.091H483.156H483.222H483.287H483.353H483.418H483.484H483.549H487.194H487.26H487.325H487.391H487.457H487.522H487.588H487.654H487.719H487.785H487.851H487.916H487.982H488.048H488.113H488.179H488.245H488.311H488.376H488.442H488.508H488.573H488.639H488.705H488.77H488.836H488.902H488.967H489.033H489.099H489.165H489.23H489.296H489.362H489.427H489.493H489.559H489.624H489.69H489.756H489.822H489.887H489.953H490.019H490.084H490.15H490.216H490.282H490.347H490.413H490.479H490.544H490.61H490.676H490.741H490.807H490.873H490.939H491.004H491.07H491.136H491.201H491.267H491.333H491.398H491.464H491.53H491.596H491.661H491.727H491.793H491.858H491.924H491.99H492.055H492.121H492.187H492.253H492.318H492.384H492.45H492.515H492.581H492.647H492.712H492.778H492.844H492.91H492.975H493.041H493.107H493.172H493.238H493.304H493.369H493.435H493.501H493.566H493.632H493.698H493.763H493.829H493.895H493.96H494.026H494.092H494.157H494.223H494.289H494.354H494.42H494.486H494.551H494.617H494.683H494.748H494.814H494.88H494.945H495.011H495.077H495.142H495.208H495.274H495.339H495.405H495.47H495.536H495.602H495.667H495.733H495.799H495.864H495.93H495.995H496.061H496.127H496.192H496.258H496.323H496.389H496.455H496.52H496.586H496.651H496.717H496.783H496.848H496.914H496.979H497.045H497.111H497.176H497.242H497.307H497.373H497.438H497.504H497.57H497.635H497.701H497.766H497.832H497.897H497.963H498.028H498.094H498.159H498.225H498.29H498.356H498.422H498.487H498.553H498.618H498.684H498.749H498.815H498.88H498.946H499.011H499.077H499.142H499.208H499.273H499.338H499.404H499.469H499.535H499.6H499.666H499.731H499.797H499.862H499.928H499.993H500.058H500.124H500.189H500.255H500.32H500.386H500.451H500.516H500.582H500.647H500.713H500.778H500.843H500.909H500.974H501.04H501.105H501.17H501.236H501.301H501.366H501.432H501.497H501.562H501.628H501.693H501.758H501.824H501.889H501.954H502.02H502.085H502.15H502.216H502.281H502.346H502.411H502.477H502.542H502.607H502.672H502.738H502.803H502.868H502.933H502.999H503.064H503.129H503.194H503.26H503.325H503.39H503.455H503.52H503.586H503.651H503.716H503.781H503.846H503.911H503.977H504.042H504.107H504.172H504.237H504.302H504.368H504.433H504.498H504.563H504.628H504.693H504.758H504.823H504.888H504.953H505.018H505.084H505.149H505.214H505.279H505.344H505.409H505.474H505.539H505.604H505.669H505.734H505.799H505.864H505.929H505.994H506.059H506.124H506.189H506.254H506.319H506.384H506.449H506.513H506.578H506.643H506.708H506.773H506.838H506.903H506.968H507.033H507.098H507.162H507.227H507.292H507.357H507.422H507.487H507.552H507.616H507.681H507.746H507.811H507.876H507.94H508.005H508.07H508.135H508.199H508.264H508.329H508.394H508.458H508.523H508.588H508.652H508.717H508.782H508.847H508.911H508.976H509.041H509.105H509.17H509.235H509.299H509.364H509.428H509.493H509.558H509.622H509.687H509.751H509.816H509.881H509.945H510.01H510.074H510.139H510.203H510.268H510.332H510.397H510.461H510.526H510.59H510.655H510.719H510.784H510.848H510.913H510.977H511.041H511.106H511.17H511.235H511.299H511.363H511.428H511.492H511.556H511.621H511.685H511.749H511.814H511.878H511.942H512.007H512.071H512.135H512.2H512.264H512.328H512.392H512.456H512.521H512.585H512.649H512.713H512.778H512.842H512.906H512.97H513.034H513.098H513.162H513.227H513.291H513.355H513.419H513.483H513.547H513.611H513.675H513.739H513.803H513.867H513.931H513.995H514.059H514.123H514.187H514.251H514.315H514.379H514.443H514.507H514.571H514.635H514.699H514.763H514.827H514.891H514.954H515.018H515.082H515.146H515.21H515.274H515.338H515.401H515.465H515.529H515.593H515.656H515.72H515.784H515.848H515.911H515.975H516.039H516.102H516.166H516.23H516.293H516.357H516.421H516.484H516.548H516.612H516.675H516.739H516.802H516.866H516.929H516.993H517.057H517.12H517.184H517.247H517.311H517.374H517.438H517.501H517.564H517.628H517.691H517.755H517.818H517.882H517.945H518.008H518.072H518.135H518.198H518.262H518.325H518.388H518.452H518.515H518.578H518.641H518.705H518.768H518.831H518.894H518.957H519.021H519.084H519.147H519.21H519.273H519.336H519.4H519.463H519.526H519.589H519.652H519.715H519.778H519.841H519.904H519.967H520.03H520.093H520.156H520.219H520.282H520.345H520.408H593.494C655.676 726.161 706.084 675.753 706.084 613.572C706.084 556.28 663.291 508.982 607.926 501.898Z" stroke="url(#paint3_linear_2138_1778)" stroke-width="2"/>
<path d="M620.127 320.86C629.862 319.059 635.996 307.51 633.294 297.984C630.593 288.457 620.675 281.984 610.77 281.815C600.865 281.658 591.404 287.035 585.075 294.656C580.99 287.374 573.264 282.271 564.978 281.371C556.678 280.471 548.039 283.798 542.493 290.036C518.728 280.823 489.327 289.175 473.98 309.52C465.315 307.771 457.041 313.774 450.934 320.182C445.179 326.224 440.011 333.258 438.314 341.427C436.618 349.596 439.15 359.071 446.118 363.677C449.929 366.196 455.044 367.41 457.119 371.494C459.964 377.106 454.979 384.088 457.002 390.051C458.581 394.684 463.84 397.072 466.176 401.366C468.029 404.785 467.807 408.896 468.538 412.719C470.313 422.063 478.6 429.802 488.048 430.911C497.496 432.02 507.362 426.435 511.264 417.757C521.43 413.972 531.922 409.992 539.687 402.41C547.452 394.828 551.758 382.587 546.982 372.852C559.484 375.67 573.095 373.139 583.744 366C594.392 358.862 601.909 347.234 604.049 334.602C611.71 335.803 619.657 329.278 619.957 321.539" fill="#E7E7E7"/>
<path d="M620.127 320.86C629.862 319.059 635.996 307.51 633.294 297.984C630.593 288.457 620.675 281.984 610.77 281.815C600.865 281.658 591.404 287.035 585.075 294.656C580.99 287.374 573.264 282.271 564.978 281.371C556.678 280.471 548.039 283.798 542.493 290.036C518.728 280.823 489.327 289.175 473.98 309.52C465.315 307.771 457.041 313.774 450.934 320.182C445.179 326.224 440.011 333.258 438.314 341.427C436.618 349.596 439.15 359.071 446.118 363.677C449.929 366.196 455.044 367.41 457.119 371.494C459.964 377.106 454.979 384.088 457.002 390.051C458.581 394.684 463.84 397.072 466.176 401.366C468.029 404.785 467.807 408.896 468.538 412.719C470.313 422.063 478.6 429.802 488.048 430.911C497.496 432.02 507.362 426.435 511.264 417.757C521.43 413.972 531.922 409.992 539.687 402.41C547.452 394.828 551.758 382.587 546.982 372.852C559.484 375.67 573.095 373.139 583.744 366C594.392 358.862 601.909 347.234 604.049 334.602C611.71 335.803 619.657 329.278 619.957 321.539" stroke="#D1D1D1" stroke-miterlimit="10" stroke-linecap="round" stroke-linejoin="round"/>
<path d="M564.286 330.309C567.092 329.891 570.015 330.491 572.534 331.966C571.15 332.971 569.767 333.976 568.384 334.98C572.364 334.197 576.605 335.202 579.972 337.708C579.059 338.008 578.145 338.321 577.219 338.621C581.134 339 584.827 341.61 586.836 345.407C581.786 347.861 576.031 348.396 570.694 346.908C573.056 347.952 575.522 348.696 578.028 349.127C577.506 351.332 575.418 352.559 573.447 353.081C570.028 353.981 566.348 353.498 563.203 351.75C560.058 350.001 557.474 347 556.025 343.398" fill="#C6E1F5"/>
<path d="M564.286 330.309C567.092 329.891 570.015 330.491 572.534 331.966C571.15 332.971 569.767 333.976 568.384 334.98C572.364 334.197 576.605 335.202 579.972 337.708C579.059 338.008 578.145 338.321 577.219 338.621C581.134 339 584.827 341.61 586.836 345.407C581.786 347.861 576.031 348.396 570.694 346.908C573.056 347.952 575.522 348.696 578.028 349.127C577.506 351.332 575.418 352.559 573.447 353.081C570.028 353.981 566.348 353.498 563.203 351.75C560.058 350.001 557.474 347 556.025 343.398" stroke="#1893F8" stroke-width="0.9385" stroke-miterlimit="10"/>
<path d="M515.414 288.144C510.533 293.547 506.422 300.228 504.426 307.915C502.416 315.601 502.677 324.358 505.926 331.366C508.38 336.638 512.334 340.644 516.601 343.711C527.681 351.645 541.475 353.694 553.781 349.218C558.048 347.665 562.302 345.212 565.03 340.905C567.535 336.964 568.514 331.875 568.945 326.903C569.924 315.601 568.319 303.778 563.425 294.121C558.531 284.477 550.14 277.273 540.914 276.229C530.996 275.094 521.469 281.436 515.414 288.144Z" fill="#C6E1F5" stroke="#1893F8" stroke-width="1.0254" stroke-miterlimit="10"/>
<path d="M530.487 345.251C541.809 345.251 550.988 333.706 550.988 319.464C550.988 305.222 541.809 293.677 530.487 293.677C519.164 293.677 509.985 305.222 509.985 319.464C509.985 333.706 519.164 345.251 530.487 345.251Z" fill="white"/>
<path d="M559.64 293.612C559.875 286.369 553.246 285.325 555.712 285.625C558.14 285.925 560.58 285.743 562.172 285.638C568.384 285.234 573.056 275.068 573.995 266.507C574.53 261.548 574.4 250.795 571.868 246.697C569.715 243.226 566.739 240.772 563.229 239.233C556.182 236.14 549.318 236.179 542.61 240.094C535.889 244.009 527.681 252.504 525.854 260.778C524.014 269.052 526.337 273.384 531.4 280.823" fill="#C6E1F5"/>
<path d="M529.495 277.952C523.087 271.114 523.139 257.842 530.591 250.991C539.726 242.573 541.905 237.719 553.781 236.831" stroke="#1893F8" stroke-width="1.274" stroke-miterlimit="10" stroke-linecap="round" stroke-linejoin="round"/>
<path d="M554.564 238.136C554.629 236.075 555.177 234.117 556.156 232.394C556.417 231.951 556.717 231.507 557.239 231.272C557.761 231.05 558.557 231.116 559.066 231.559C559.471 231.925 559.575 232.421 559.627 232.864C559.875 234.991 559.588 237.066 558.805 238.893" fill="#C6E1F5"/>
<path d="M554.564 238.136C554.629 236.075 555.177 234.117 556.156 232.394C556.417 231.951 556.717 231.507 557.239 231.272C557.761 231.05 558.557 231.116 559.066 231.559C559.471 231.925 559.575 232.421 559.627 232.864C559.875 234.991 559.588 237.066 558.805 238.893" stroke="#1893F8" stroke-miterlimit="10" stroke-linecap="round" stroke-linejoin="round"/>
<path d="M558.753 238.919C558.962 238.306 559.17 237.693 559.379 237.079C560.828 232.642 563.346 228.845 566.492 226.509C566.961 226.17 567.509 225.843 568.005 226.091C568.697 226.431 568.841 227.605 568.788 228.558C568.645 231.037 567.836 233.386 566.753 235.448C565.669 237.51 564.325 239.298 562.968 241.36C564.273 239.989 565.774 238.932 567.366 238.28C567.875 238.071 568.488 237.928 568.88 238.384C569.402 238.985 569.128 240.107 568.749 240.877C567.588 243.278 565.709 245.066 563.621 245.797" fill="#C6E1F5"/>
<path d="M558.753 238.919C558.962 238.306 559.17 237.693 559.379 237.079C560.828 232.642 563.346 228.845 566.492 226.509C566.961 226.17 567.509 225.843 568.005 226.091C568.697 226.431 568.841 227.605 568.788 228.558C568.645 231.037 567.836 233.386 566.753 235.448C565.669 237.51 564.325 239.298 562.968 241.36C564.273 239.989 565.774 238.932 567.366 238.28C567.875 238.071 568.488 237.928 568.88 238.384C569.402 238.985 569.128 240.107 568.749 240.877C567.588 243.278 565.709 245.066 563.621 245.797" stroke="#1893F8" stroke-miterlimit="10" stroke-linecap="round" stroke-linejoin="round"/>
<path d="M572.338 247.793C576.318 265.842 574.804 290.206 554.486 285.834" stroke="#1893F8" stroke-width="1.274" stroke-miterlimit="10" stroke-linecap="round" stroke-linejoin="round"/>
<path d="M552.463 237.862C550.753 236.035 548.678 234.548 546.381 233.53C548.091 234.169 549.226 236.088 548.939 237.888C546.029 236.884 542.754 237.014 539.935 238.254C541.488 237.954 543.171 238.463 544.293 239.572C540.6 239.702 536.985 241.464 534.623 244.309C535.837 244.087 537.038 243.852 538.251 243.63" fill="#C6E1F5"/>
<path d="M552.463 237.862C550.753 236.035 548.678 234.548 546.381 233.53C548.091 234.169 549.226 236.088 548.939 237.888C546.029 236.884 542.754 237.014 539.935 238.254C541.488 237.954 543.171 238.463 544.293 239.572C540.6 239.702 536.985 241.464 534.623 244.309C535.837 244.087 537.038 243.852 538.251 243.63" stroke="#1893F8" stroke-miterlimit="10" stroke-linecap="round" stroke-linejoin="round"/>
<path d="M533.188 294.643C532.614 292.764 532.209 290.793 531.974 288.77C531.883 287.948 531.857 286.983 532.287 286.408C532.836 285.704 533.775 286.147 534.18 287.022C534.584 287.896 534.597 288.992 534.597 290.036C534.806 287.283 535.85 284.686 537.429 283.028C538.082 282.337 538.969 281.802 539.7 282.324C540.718 283.041 540.639 285.116 540.365 286.669C539.517 291.407 538.16 295.961 536.359 300.137" fill="white"/>
<path d="M533.188 294.643C532.614 292.764 532.209 290.793 531.974 288.77C531.883 287.948 531.857 286.983 532.287 286.408C532.836 285.704 533.775 286.147 534.18 287.022C534.584 287.896 534.597 288.992 534.597 290.036C534.806 287.283 535.85 284.686 537.429 283.028C538.082 282.337 538.969 281.802 539.7 282.324C540.718 283.041 540.639 285.116 540.365 286.669C539.517 291.407 538.16 295.961 536.359 300.137" stroke="#1893F8" stroke-width="0.4201" stroke-miterlimit="10"/>
<path d="M567.327 244.205C569.167 242.521 572.012 242.038 574.295 243.043C572.651 242.965 571.007 243.865 570.185 245.288C572.22 244.909 574.4 245.301 576.175 246.358C574.439 246.514 572.756 247.128 571.333 248.12C574.074 248.668 576.396 250.912 577.036 253.64C575.927 252.478 574.295 251.839 572.69 251.93" fill="#C6E1F5"/>
<path d="M567.327 244.205C569.167 242.521 572.012 242.038 574.295 243.043C572.651 242.965 571.007 243.865 570.185 245.288C572.22 244.909 574.4 245.301 576.175 246.358C574.439 246.514 572.756 247.128 571.333 248.12C574.074 248.668 576.396 250.912 577.036 253.64C575.927 252.478 574.295 251.839 572.69 251.93" stroke="#1893F8" stroke-miterlimit="10" stroke-linecap="round" stroke-linejoin="round"/>
<path d="M516.928 287.23C508.093 286.017 498.566 288.04 491.154 293.207C483.741 298.375 478.234 306.414 475.951 315.392C475.729 316.293 475.69 317.533 476.538 317.833C477.099 318.028 477.673 317.624 478.13 317.245C481.875 314.127 483.624 312.039 481.327 314.753C480.714 315.484 480.087 316.606 480.727 317.311C481.392 318.042 482.528 317.376 483.259 316.723C489.875 310.707 486.025 315.614 485.843 316.645C485.738 317.245 485.882 317.95 486.365 318.316C487.134 318.903 488.205 318.381 489.001 317.82C492.12 315.601 494.038 313.709 492.589 315.81C492.172 316.41 491.754 317.037 491.65 317.767C491.545 318.498 491.872 319.347 492.55 319.568C493.32 319.816 494.064 319.177 494.625 318.59C495.969 317.167 496.857 316.489 496.178 317.754C495.956 318.159 495.747 318.642 495.904 319.072C496.139 319.686 496.935 319.764 497.561 319.66C499.597 319.347 501.529 318.276 502.925 316.697" fill="#C6E1F5"/>
<path d="M516.928 287.23C508.093 286.017 498.566 288.04 491.154 293.207C483.741 298.375 478.234 306.414 475.951 315.392C475.729 316.293 475.69 317.533 476.538 317.833C477.099 318.028 477.673 317.624 478.13 317.245C481.875 314.127 483.624 312.039 481.327 314.753C480.714 315.484 480.087 316.606 480.727 317.311C481.392 318.042 482.528 317.376 483.259 316.723C489.875 310.707 486.025 315.614 485.843 316.645C485.738 317.245 485.882 317.95 486.365 318.316C487.134 318.903 488.205 318.381 489.001 317.82C492.12 315.601 494.038 313.709 492.589 315.81C492.172 316.41 491.754 317.037 491.65 317.767C491.545 318.498 491.872 319.347 492.55 319.568C493.32 319.816 494.064 319.177 494.625 318.59C495.969 317.167 496.857 316.489 496.178 317.754C495.956 318.159 495.747 318.642 495.904 319.072C496.139 319.686 496.935 319.764 497.561 319.66C499.597 319.347 501.529 318.276 502.925 316.697" stroke="#1893F8" stroke-width="1.1501" stroke-miterlimit="10" stroke-linecap="round" stroke-linejoin="round"/>
<path d="M503.525 316.697C504.373 309.951 507.179 303.452 511.538 298.219C512.543 297.005 513.678 295.361 512.843 294.03C512.203 293.025 510.781 293.103 509.593 292.986C494.86 291.55 484.903 300.241 477.582 310.473" fill="#A8CBE8"/>
<path d="M538.865 260.086C539.295 259.512 539.961 259.238 540.626 259.147C541.279 259.056 541.944 259.134 542.61 259.147C544.933 259.212 547.217 258.56 549.526 258.299C550.283 258.207 551.106 258.181 551.784 258.586C552.724 259.16 553.141 260.4 553.52 261.522C554.342 263.897 555.373 266.155 556.626 268.282C556.939 268.83 557.291 269.482 557.082 270.083C556.913 270.592 556.417 270.84 555.973 271.035C554.851 271.544 553.729 272.053 552.593 272.562C550.544 273.489 548.43 274.441 546.212 274.494C545.324 274.52 544.398 274.376 543.693 273.763C542.988 273.15 542.636 272.158 542.31 271.218C541.67 269.352 541.501 267.225 540.861 265.359C540.418 264.093 539.674 262.566 539.23 261.3C539.047 260.778 538.825 260.869 538.956 260.334C539.086 259.799 539.582 259.238 538.865 260.086Z" fill="#F8DA88"/>
<path d="M544.724 263.349C543.771 263.153 542.806 262.957 541.853 262.762C542.545 264.093 543.093 265.528 543.458 267.016C543.719 268.047 543.889 269.117 544.28 270.096C544.672 271.075 545.337 271.988 546.238 272.314C547.334 272.719 548.522 272.21 549.592 271.701C551.053 271.009 552.528 270.318 553.99 269.626C554.068 269.587 554.159 269.535 554.172 269.443C554.185 269.352 554.133 269.261 554.068 269.195C553.637 268.673 553.207 268.151 552.685 267.76C552.163 267.368 551.549 267.094 550.923 267.147C549.983 267.225 549.213 267.982 548.3 268.217C547.752 268.36 547.099 268.269 546.76 267.76C546.447 267.29 546.499 266.651 546.408 266.076C546.225 264.967 546.029 263.806 545.142 263.284C544.254 262.775 542.662 262.866 541.67 262.683C542.271 265.306 542.962 268.125 544.385 270.292" fill="#FFA8A2"/>
<path d="M542.806 267.773C543.119 268.869 543.458 269.887 543.876 270.748C544.293 271.597 544.776 272.301 545.455 272.693C546.12 273.084 546.903 273.058 547.752 272.875C548.587 272.693 549.5 272.327 550.401 271.897C552.215 271.048 554.055 269.939 555.164 269.561C555.516 269.443 555.36 268.869 554.968 268.869C554.303 268.856 553.99 268.582 553.689 268.217C553.546 268.034 553.402 267.825 553.259 267.629C553.115 267.434 552.959 267.225 552.711 267.081C552.698 267.068 552.685 267.068 552.658 267.055C551.654 266.651 550.688 266.846 549.814 267.147C549.031 267.408 548.287 267.721 547.569 267.851C547.269 267.029 546.916 266.076 546.538 265.189C546.316 264.693 546.094 264.236 545.859 263.858C545.625 263.479 545.39 263.166 545.063 262.971C544.633 262.723 544.189 262.775 543.798 262.788C543.406 262.801 543.041 262.775 542.988 262.749C542.323 262.37 541.957 261.874 541.449 261.039C541.214 260.648 540.679 260.883 540.848 261.3C541.618 263.114 542.166 265.581 542.806 267.773ZM542.701 263.362C543.119 263.597 543.523 263.519 543.902 263.506C544.293 263.493 544.646 263.519 544.776 263.584C544.881 263.636 545.076 263.858 545.285 264.184C545.494 264.51 545.703 264.941 545.912 265.411C546.329 266.364 546.734 267.473 547.06 268.36C547.125 268.53 547.295 268.647 547.465 268.621C548.404 268.504 549.265 268.099 550.101 267.812C550.923 267.538 551.693 267.394 552.45 267.695C552.502 267.721 552.593 267.812 552.711 267.982C552.828 268.151 552.985 268.386 553.167 268.608C553.363 268.843 553.611 269.078 553.924 269.261C552.789 269.796 551.406 270.592 550.022 271.231C549.135 271.649 548.261 272.001 547.491 272.171C546.734 272.34 546.107 272.301 545.703 272.079C545.259 271.818 544.842 271.27 544.463 270.5C544.085 269.73 543.758 268.726 543.445 267.655C543.015 266.155 542.61 264.497 542.114 262.971C542.31 263.114 542.493 263.245 542.701 263.362Z" fill="#2493EF"/>
<path d="M551.641 263.558C551.915 263.493 551.915 263.075 551.732 262.814C551.68 262.736 551.601 262.67 551.523 262.618C551.353 262.514 551.145 262.514 550.975 262.618C550.74 262.775 550.048 263.336 550.075 263.636C550.127 263.884 551.092 263.688 551.641 263.558Z" fill="#2493EF"/>
<path d="M547.83 262.644C548.156 262.749 548.065 261.339 547.987 260.53C547.974 260.334 547.843 260.191 547.673 260.1C547.478 259.995 547.243 259.956 547.047 260.008C546.682 260.113 546.512 260.517 546.669 260.909C546.838 261.3 547.452 262.527 547.83 262.644Z" fill="#2493EF"/>
<path d="M540.783 258.821C540.3 258.821 539.87 258.847 539.491 258.951C539.113 259.056 538.773 259.277 538.617 259.643C538.46 259.995 538.538 260.387 538.656 260.869C538.773 261.339 538.956 261.887 539.178 262.462C539.608 263.597 540.13 264.837 540.365 265.581C540.744 266.833 541.096 268.699 541.657 270.435C542.179 272.04 542.884 273.567 544.085 274.402L544.072 274.415L544.372 274.598C544.385 274.611 544.385 274.611 544.385 274.611C544.385 274.611 544.398 274.611 544.398 274.624L544.711 274.794L544.724 274.781C546.081 275.394 547.752 274.977 549.37 274.363C551.119 273.698 552.854 272.771 553.964 272.393C554.681 272.158 555.451 271.884 556.104 271.57C556.756 271.257 557.304 270.905 557.539 270.383C557.709 270.018 557.67 269.587 557.526 269.169C557.383 268.765 557.148 268.347 556.874 267.903C556.326 267.016 555.621 266.024 555.151 264.915C554.642 263.688 554.12 262.174 553.598 260.869C553.337 260.217 553.076 259.63 552.815 259.147C552.554 258.664 552.293 258.286 551.928 258.064C551.536 257.842 551.079 257.816 550.466 257.803C549.866 257.803 549.135 257.842 548.365 257.933C546.825 258.103 545.129 258.39 543.915 258.638C542.858 258.886 541.736 258.821 540.783 258.821ZM548.548 258.664C549.305 258.586 550.009 258.534 550.57 258.534C551.132 258.534 551.575 258.638 551.667 258.69C551.771 258.755 552.006 259.029 552.241 259.447C552.476 259.878 552.724 260.439 552.985 261.078C553.494 262.344 554.016 263.871 554.551 265.137C555.06 266.364 555.804 267.394 556.326 268.243C556.587 268.66 556.795 269.039 556.9 269.339C557.004 269.639 557.017 269.848 556.926 270.031C556.808 270.292 556.365 270.644 555.764 270.931C555.164 271.231 554.407 271.492 553.689 271.727C552.476 272.132 550.779 273.058 549.083 273.698C547.386 274.337 545.729 274.637 544.698 274.024L544.672 274.011L544.646 273.998C543.576 273.397 542.832 271.949 542.297 270.292C541.762 268.621 541.422 266.781 541.005 265.45C540.744 264.602 540.222 263.388 539.804 262.279C539.595 261.718 539.413 261.196 539.308 260.778C539.204 260.361 539.217 260.047 539.243 260.008C539.334 259.825 539.478 259.708 539.765 259.63C540.039 259.551 540.431 259.525 540.887 259.512C541.801 259.499 542.988 259.578 544.163 259.343C545.35 259.121 547.047 258.821 548.548 258.664Z" fill="#2493EF"/>
<path d="M539.648 253.222C541.749 254.005 543.576 255.18 544.959 256.537C545.873 255.806 546.682 254.775 547.256 253.47C548.73 250.09 548.052 246.306 545.716 245.001C543.38 243.696 540.3 245.379 538.812 248.759C538.238 250.077 538.003 251.447 538.043 252.726C538.578 252.857 539.113 253.013 539.648 253.222Z" fill="white" stroke="#1893F8" stroke-width="0.4844" stroke-miterlimit="10" stroke-linecap="round" stroke-linejoin="round"/>
<path d="M566.296 256.433C564.469 254.358 561.063 254.814 558.688 257.477C557.761 258.507 557.148 259.734 556.834 260.948C557.291 261.274 557.748 261.613 558.192 261.992C559.953 263.506 561.35 265.28 562.276 267.068C563.346 266.716 564.417 266.024 565.33 265.006C567.692 262.357 568.123 258.507 566.296 256.433Z" fill="white" stroke="#1893F8" stroke-width="0.4844" stroke-miterlimit="10" stroke-linecap="round" stroke-linejoin="round"/>
<path d="M547.347 248.041C547.347 247.337 547.178 246.671 546.903 246.084C546.577 245.64 546.186 245.262 545.716 245.001C543.915 243.996 541.657 244.792 540.039 246.776C539.922 247.18 539.843 247.598 539.843 248.041C539.843 250.377 541.527 252.27 543.589 252.27C545.664 252.27 547.347 250.377 547.347 248.041Z" fill="#F6BF3E"/>
<path d="M539.648 253.222C541.749 254.005 543.576 255.18 544.959 256.537C545.873 255.806 546.682 254.775 547.256 253.47C548.73 250.09 548.052 246.306 545.716 245.001C543.38 243.696 540.3 245.379 538.812 248.759C538.238 250.077 538.003 251.447 538.043 252.726C538.578 252.857 539.113 253.013 539.648 253.222Z" stroke="#1893F8" stroke-width="0.4844" stroke-miterlimit="10" stroke-linecap="round" stroke-linejoin="round"/>
<path d="M563.059 262.54C565.134 262.54 566.805 260.543 566.805 258.077C566.805 257.711 566.753 257.359 566.687 257.02C566.57 256.824 566.452 256.615 566.296 256.446C564.664 254.592 561.794 254.775 559.51 256.694C559.392 257.137 559.301 257.594 559.301 258.077C559.314 260.543 560.984 262.54 563.059 262.54Z" fill="#F6BF3E"/>
<path d="M566.296 256.433C564.469 254.358 561.063 254.814 558.688 257.477C557.761 258.507 557.148 259.734 556.834 260.948C557.291 261.274 557.748 261.613 558.192 261.992C559.953 263.506 561.35 265.28 562.276 267.068C563.346 266.716 564.417 266.024 565.33 265.006C567.692 262.357 568.123 258.507 566.296 256.433Z" stroke="#1893F8" stroke-width="0.4844" stroke-miterlimit="10" stroke-linecap="round" stroke-linejoin="round"/>
<path d="M563.059 260.752C564.494 260.752 565.656 259.443 565.656 257.829C565.656 256.214 564.494 254.906 563.059 254.906C561.625 254.906 560.462 256.214 560.462 257.829C560.462 259.443 561.625 260.752 563.059 260.752Z" fill="#1893F8"/>
<path d="M544.059 250.416C545.493 250.416 546.656 249.108 546.656 247.493C546.656 245.879 545.493 244.57 544.059 244.57C542.624 244.57 541.462 245.879 541.462 247.493C541.462 249.108 542.624 250.416 544.059 250.416Z" fill="#1893F8"/>
<path d="M563.751 257.424C564.119 257.424 564.417 257.091 564.417 256.68C564.417 256.27 564.119 255.937 563.751 255.937C563.383 255.937 563.085 256.27 563.085 256.68C563.085 257.091 563.383 257.424 563.751 257.424Z" fill="white"/>
<path d="M544.059 246.567C544.426 246.567 544.724 246.234 544.724 245.823C544.724 245.412 544.426 245.079 544.059 245.079C543.691 245.079 543.393 245.412 543.393 245.823C543.393 246.234 543.691 246.567 544.059 246.567Z" fill="white"/>
<path d="M544.815 247.441C544.996 247.441 545.142 247.272 545.142 247.063C545.142 246.854 544.996 246.684 544.815 246.684C544.635 246.684 544.489 246.854 544.489 247.063C544.489 247.272 544.635 247.441 544.815 247.441Z" fill="white"/>
<path d="M564.299 258.586C564.479 258.586 564.625 258.416 564.625 258.207C564.625 257.998 564.479 257.829 564.299 257.829C564.119 257.829 563.973 257.998 563.973 258.207C563.973 258.416 564.119 258.586 564.299 258.586Z" fill="white"/>
<path d="M471.892 242.952C473.941 244.113 476.525 244.1 478.756 243.291C480.975 242.482 482.867 240.968 484.511 239.259C492.811 230.659 494.756 216.565 489.105 206.033C492.694 207.351 495.369 210.875 495.682 214.686C497.64 200.304 491.532 185.101 480.192 176.058C485.177 176.762 489.81 179.712 492.55 183.927C491.493 176.527 486.782 169.741 480.218 166.166C495.656 170.394 508.328 183.444 512.086 198.999C513.039 195.215 512.817 191.143 511.447 187.502C520.203 199.822 521.665 216.956 515.14 230.58C518.285 227.318 520.595 223.246 521.756 218.862C520.921 232.029 511.943 244.348 499.649 249.151C504.517 248.524 509.254 246.88 513.469 244.348C509.685 251.656 501.581 256.498 493.359 256.367C497.066 257.881 501.333 257.972 505.104 256.641C497.483 261.496 488.714 264.563 479.722 265.502" fill="#C6E1F5"/>
<path d="M471.892 242.952C473.941 244.113 476.525 244.1 478.756 243.291C480.975 242.482 482.867 240.968 484.511 239.259C492.811 230.659 494.756 216.565 489.105 206.033C492.694 207.351 495.369 210.875 495.682 214.686C497.64 200.304 491.532 185.101 480.192 176.058C485.177 176.762 489.81 179.712 492.55 183.927C491.493 176.527 486.782 169.741 480.218 166.166C495.656 170.394 508.328 183.444 512.086 198.999C513.039 195.215 512.817 191.143 511.447 187.502C520.203 199.822 521.665 216.956 515.14 230.58C518.285 227.318 520.595 223.246 521.756 218.862C520.921 232.029 511.943 244.348 499.649 249.151C504.517 248.524 509.254 246.88 513.469 244.348C509.685 251.656 501.581 256.498 493.359 256.367C497.066 257.881 501.333 257.972 505.104 256.641C497.483 261.496 488.714 264.563 479.722 265.502" stroke="#1893F8" stroke-miterlimit="10" stroke-linecap="round" stroke-linejoin="round"/>
<path d="M494.547 179.516C500.759 190.543 504.152 203.162 504.308 215.821C506.135 214.607 507.74 213.054 508.993 211.253C509.763 216.787 508.328 222.607 505.065 227.148C506.579 226.992 508.054 226.391 509.254 225.452C506.475 231.194 502.494 236.362 497.64 240.498C498.853 241.281 500.315 241.673 501.763 241.608C497.888 246.619 494.442 250.521 489.379 254.331C499.114 260.295 511.303 248.289 513.221 244.844C511.264 245.327 502.272 249.777 498.723 249.633C510.794 245.236 519.577 235.07 521.378 222.15C520.268 225.608 518.18 228.166 514.996 229.889C522.356 217.204 519.72 201.309 512.256 188.69C513.104 192.383 512.96 196.363 511.238 199.743C508.288 191.796 502.038 183.379 494.56 179.398" fill="#A8CBE8"/>
<path d="M471.892 242.952C473.941 244.113 476.525 244.1 478.756 243.291C480.975 242.482 482.867 240.968 484.511 239.259C492.811 230.659 494.756 216.565 489.105 206.033C492.694 207.351 495.369 210.875 495.682 214.686C497.64 200.304 491.532 185.101 480.192 176.058C485.177 176.762 489.81 179.712 492.55 183.927C491.493 176.527 486.782 169.741 480.218 166.166C495.656 170.394 508.328 183.444 512.086 198.999C513.039 195.215 512.817 191.143 511.447 187.502C520.203 199.822 521.665 216.956 515.14 230.58C518.285 227.318 520.595 223.246 521.756 218.862C520.921 232.029 511.943 244.348 499.649 249.151C504.517 248.524 509.254 246.88 513.469 244.348C509.685 251.656 501.581 256.498 493.359 256.367C497.066 257.881 501.333 257.972 505.104 256.641C497.483 261.496 488.714 264.563 479.722 265.502" stroke="#1893F8" stroke-miterlimit="10" stroke-linecap="round" stroke-linejoin="round"/>
<path d="M416.43 300.202C416.364 298.819 417.134 297.423 418.348 296.77C414.981 296.248 411.888 294.199 410.087 291.302C412.449 291.341 414.824 291.38 417.186 291.42C411.34 288.979 407.19 282.95 406.994 276.621C411.327 278.174 415.229 280.94 418.126 284.503C418.739 281.515 417.969 278.265 416.09 275.864C419.653 277.234 422.054 280.732 423.085 284.399C424.116 288.079 423.999 291.968 423.855 295.778C424.912 277.56 430.615 259.63 440.285 244.152C441.564 242.091 442.986 239.794 442.49 237.419C441.838 234.3 438.367 232.838 436.044 230.659C432.703 227.514 431.724 222.124 433.747 218.013C431.633 218.796 429.219 218.796 427.104 217.987C429.245 217.831 431.293 216.63 432.455 214.829C428.488 213.876 424.964 211.214 422.981 207.652C425.865 209.231 429.414 209.544 432.533 208.487C428.67 206.477 425.186 203.737 422.341 200.448C426.361 202.523 431.359 201.087 435.195 198.673C439.032 196.259 442.255 192.944 446.262 190.83C450.268 188.716 455.58 188.064 459.051 190.974C458.411 189.342 457.772 187.724 457.132 186.093C464.454 193.414 468.93 194.954 474.815 199.378C473.68 198.282 474.124 196.063 475.585 195.489C477.751 203.058 479.944 211.097 477.804 218.679C475.885 225.465 470.6 231.442 470.939 238.489C471.161 243.213 473.993 247.506 477.608 250.56C481.223 253.614 485.595 255.597 489.888 257.555C487.774 258.925 485.216 259.604 482.697 259.473C484.877 260.726 487.069 261.992 489.249 263.245C487.683 265.046 485.242 266.037 482.854 265.868C488.244 276.947 488.361 290.454 483.18 301.625C477.999 312.795 467.612 321.435 455.671 324.475" fill="#C6E1F5"/>
<path d="M446.575 313.174C436.683 298.793 433.199 277.26 439.959 261.17C436.344 264.106 432.468 266.272 428.945 269.313C426.726 271.231 426.517 275.825 426.23 278.735C425.447 286.643 422.198 289.449 423.868 295.791C422.406 294.043 423.855 293.012 423.933 290.715C424.012 288.418 423.477 285.116 423.033 282.859C422.589 280.601 419.927 277.26 417.695 276.686C418.1 278.878 419.131 283.237 418.374 285.338C416.873 282.78 409.905 277.156 406.994 276.634C405.742 276.412 408.482 279.374 407.96 280.536C407.621 281.293 407.895 282.18 408.221 282.95C410.048 287.27 412.906 289.488 417.186 291.433C414.955 291.524 413.01 291.837 410.831 291.328C412.645 293.86 415.79 296.496 418.857 297.044C417.369 296.783 416.638 298.714 416.417 300.215C416.195 301.716 416.221 302.59 417.33 303.634C418.439 304.678 419.836 305.318 421.219 305.931C429.127 309.455 437.414 312.534 446.053 312.874" fill="#A8CBE8"/>
<path d="M476.499 251.004C466.359 251.004 457.041 250.795 450.451 257.516C443.861 264.236 441.446 274.755 444.448 283.681C445.962 288.196 448.715 292.203 451.926 295.713C456.545 300.763 462.77 305.057 469.608 304.77C474.946 304.535 480.596 302.695 483.65 298.297C486.691 293.899 487.252 287.087 486.991 281.749C486.73 276.412 485.803 269.835 483.52 264.993C485.856 265.032 487.435 265.333 488.935 263.545C486.221 262.801 483.794 261.065 482.202 258.742C484.485 259.238 486.978 258.638 488.805 257.176C483.989 255.545 479.409 253.248 475.22 250.364" fill="white"/>
<path d="M463.905 257.607C462.587 256.837 461.517 255.623 460.93 254.214C460.682 253.627 460.552 252.883 460.982 252.426C461.348 252.048 461.987 252.048 462.444 252.309C462.901 252.583 463.188 253.053 463.396 253.535C463.214 251.865 463.592 250.142 464.454 248.707C464.793 248.133 465.302 247.559 465.967 247.559C466.476 247.559 466.933 247.937 467.181 248.381C467.429 248.824 467.494 249.346 467.546 249.855C467.951 253.614 467.599 257.463 466.528 261.091" fill="white"/>
<path d="M463.905 257.607C462.587 256.837 461.517 255.623 460.93 254.214C460.682 253.627 460.552 252.883 460.982 252.426C461.348 252.048 461.987 252.048 462.444 252.309C462.901 252.583 463.188 253.053 463.396 253.535C463.214 251.865 463.592 250.142 464.454 248.707C464.793 248.133 465.302 247.559 465.967 247.559C466.476 247.559 466.933 247.937 467.181 248.381C467.429 248.824 467.494 249.346 467.546 249.855C467.951 253.614 467.599 257.463 466.528 261.091" stroke="#1893F8" stroke-width="0.5" stroke-miterlimit="10" stroke-linecap="round" stroke-linejoin="round"/>
<path d="M438.993 246.958C441.694 247.728 443.991 249.764 445.087 252.348C445.113 247.78 445.14 243.226 445.153 238.658C445.153 237.51 445.166 236.336 444.852 235.226C444.396 233.595 443.3 232.238 442.373 230.828C438.967 225.582 437.766 218.953 439.15 212.859C437.636 213.811 435.77 214.19 434.008 213.876C434.465 213.341 434.908 212.806 435.365 212.271C433.59 212.102 431.868 211.436 430.445 210.353C432.546 210.392 436.226 210.457 436.957 208.487C435.717 208.474 432.86 206.451 432.05 205.511C436.957 204.755 440.872 199.9 440.559 194.941C436.083 199.756 429.075 202.079 422.602 200.905C425.121 203.436 429.61 205.955 432.129 208.487C429.923 209.413 425.799 209.596 423.933 208.108C425.839 211.345 429.179 213.067 432.494 214.829C431.672 216.004 429.48 217.374 428.175 217.935C430.315 218.862 431.789 218.366 434.047 217.752C432.024 219.762 433.055 223.834 434.165 226.457C435.287 229.093 436.474 231.05 439.097 233.034C441.381 234.756 444.644 236.897 441.525 242.117L438.993 246.958Z" fill="#A8CBE8"/>
<path d="M416.43 300.202C416.364 298.819 417.134 297.423 418.348 296.77C414.981 296.248 411.888 294.199 410.087 291.302C412.449 291.341 414.824 291.38 417.186 291.42C411.34 288.979 407.19 282.95 406.994 276.621C411.327 278.174 415.229 280.94 418.126 284.503C418.739 281.515 417.969 278.265 416.09 275.864C419.653 277.234 422.054 280.732 423.085 284.399C424.116 288.079 423.999 291.968 423.855 295.778C424.912 277.56 430.615 259.63 440.285 244.152C441.564 242.091 442.986 239.794 442.49 237.419C441.838 234.3 438.367 232.838 436.044 230.659C432.703 227.514 431.724 222.124 433.747 218.013C431.633 218.796 429.219 218.796 427.104 217.987C429.245 217.831 431.293 216.63 432.455 214.829C428.488 213.876 424.964 211.214 422.981 207.652C425.865 209.231 429.414 209.544 432.533 208.487C428.67 206.477 425.186 203.737 422.341 200.448C426.361 202.523 431.359 201.087 435.195 198.673C439.032 196.259 442.255 192.944 446.262 190.83C450.268 188.716 455.58 188.064 459.051 190.974C458.411 189.342 457.772 187.724 457.132 186.093C464.454 193.414 468.93 194.954 474.815 199.378C473.68 198.282 474.124 196.063 475.585 195.489C477.751 203.058 479.944 211.097 477.804 218.679C475.885 225.465 470.6 231.442 470.939 238.489C471.161 243.213 473.993 247.506 477.608 250.56C481.223 253.614 485.595 255.597 489.888 257.555C487.774 258.925 485.216 259.604 482.697 259.473C484.877 260.726 487.069 261.992 489.249 263.245C487.683 265.046 485.242 266.037 482.854 265.868C488.244 276.947 488.361 290.454 483.18 301.625C477.999 312.795 467.612 321.435 455.671 324.475" stroke="#1893F8" stroke-miterlimit="10" stroke-linecap="round" stroke-linejoin="round"/>
<path d="M445.074 251.996C443.952 249.607 441.525 248.067 439.032 247.193C436.54 246.319 433.89 245.993 431.346 245.262C425.147 243.487 419.692 239.22 416.469 233.621C413.245 228.023 412.306 221.171 413.872 214.907C412.41 216.486 410.936 218.065 409.474 219.645C407.203 210.888 409.539 201.074 415.516 194.288C412.567 195.411 409.918 197.277 407.869 199.678C408.926 188.377 415.503 177.715 425.134 171.712C421.402 170.564 417.356 171.725 413.82 173.395C406.329 176.945 399.947 182.791 395.758 189.943C394.649 183 398.421 176.306 402.062 170.289C395.001 174.779 387.941 183.548 385.24 191.457C382.539 199.365 384 206.477 383.374 214.829C380.372 212.506 378.846 208.656 378.506 204.872C378.167 201.087 378.872 197.29 379.563 193.558C373.808 200.696 372.608 210.875 375.374 219.618C378.128 228.362 384.457 235.683 392.026 240.864C386.31 240.642 380.699 238.228 376.588 234.234C382.382 244.674 392.352 252.739 403.784 256.224C398.969 256.733 393.997 255.571 389.912 253C393.331 256.093 397.311 258.56 401.592 260.243C397.625 260.7 393.514 259.669 390.238 257.398C398.877 265.646 411.236 269.835 423.111 268.543C421.245 270.265 418.726 271.257 416.182 271.257C425.069 271.688 434.073 267.864 439.933 261.157" fill="#C6E1F5"/>
<path d="M445.074 251.996C443.952 249.607 441.525 248.067 439.032 247.193C436.54 246.319 433.89 245.993 431.346 245.262C425.147 243.487 419.692 239.22 416.469 233.621C413.245 228.023 412.306 221.171 413.872 214.907C412.41 216.486 410.936 218.065 409.474 219.645C407.203 210.888 409.539 201.074 415.516 194.288C412.567 195.411 409.918 197.277 407.869 199.678C408.926 188.377 415.503 177.715 425.134 171.712C421.402 170.564 417.356 171.725 413.82 173.395C406.329 176.945 399.947 182.791 395.758 189.943C394.649 183 398.421 176.306 402.062 170.289C395.001 174.779 387.941 183.548 385.24 191.457C382.539 199.365 384 206.477 383.374 214.829C380.372 212.506 378.846 208.656 378.506 204.872C378.167 201.087 378.872 197.29 379.563 193.558C373.808 200.696 372.608 210.875 375.374 219.618C378.128 228.362 384.457 235.683 392.026 240.864C386.31 240.642 380.699 238.228 376.588 234.234C382.382 244.674 392.352 252.739 403.784 256.224C398.969 256.733 393.997 255.571 389.912 253C393.331 256.093 397.311 258.56 401.592 260.243C397.624 260.7 393.514 259.669 390.238 257.398C398.877 265.646 411.236 269.835 423.111 268.543C421.245 270.265 418.726 271.257 416.182 271.257C425.069 271.688 434.073 267.864 439.933 261.157" stroke="#1893F8" stroke-miterlimit="10" stroke-linecap="round" stroke-linejoin="round"/>
<path d="M397.833 205.081C400.065 197.029 402.479 188.651 408.143 182.517C401.448 188.168 396.176 195.476 392.9 203.593C391.922 199.091 391.791 194.406 392.496 189.851C386.845 200.513 386.088 213.655 390.499 224.904C386.049 221.824 382.017 218.144 378.545 213.994C386.95 235.435 394.871 240.746 399.765 245.34C393.488 245.627 390.408 245.301 385.123 241.908C385.07 241.869 385.018 241.947 385.07 241.999C394.532 249.438 399.308 254.11 410.022 257.098C407.399 259.369 403.406 257.711 400.091 258.012C402.075 259.708 404.45 260.935 406.981 261.548C405.572 261.783 404.15 262.031 402.74 262.266C410.466 265.789 419.483 266.39 427.6 263.923L427.326 266.82C431.737 266.233 435.9 263.897 438.667 260.413C432.533 260.909 419.157 261.313 405.99 249.764C408.286 250.625 410.609 248.342 410.609 248.342C410.609 248.342 399.217 238.58 396.828 233.726C391.661 223.22 396.842 208.617 397.833 205.081Z" fill="#A8CBE8"/>
<path d="M461.987 222.163C463.383 224.277 465.537 225.869 467.964 226.6C470.391 227.331 473.067 227.161 475.389 226.156C474.724 227.383 474.058 228.623 473.08 229.615C472.114 230.607 470.783 231.35 469.386 231.298C467.298 231.233 465.654 229.484 464.662 227.644C463.671 225.817 463.057 223.755 461.739 222.137" fill="#A8CBE8"/>
<path d="M467.586 221.054C468.969 222.542 471.514 222.32 473.562 221.759C475.598 221.211 477.843 220.467 479.774 221.302C480.805 221.746 481.575 222.594 482.554 223.155C483.533 223.716 484.968 223.873 485.686 223.051C486.077 222.607 486.13 221.98 486.13 221.406C486.13 217.191 483.728 213.041 479.931 210.705C477.53 209.231 474.345 208.487 471.748 209.648C466.724 211.906 466.842 219.592 461.661 221.563C463.618 224.46 467.233 226.326 470.926 226.365C474.619 226.404 478.287 224.604 480.309 221.759" fill="#F8DA88"/>
<path d="M467.586 221.054C468.969 222.542 471.514 222.32 473.562 221.759C475.598 221.211 477.843 220.467 479.774 221.302C480.805 221.746 481.575 222.594 482.554 223.155C483.533 223.716 484.968 223.873 485.686 223.051C486.077 222.607 486.13 221.98 486.13 221.406C486.13 217.191 483.728 213.041 479.931 210.705C477.53 209.231 474.345 208.487 471.748 209.648C466.724 211.906 466.842 219.592 461.661 221.563C463.618 224.46 467.233 226.326 470.926 226.365C474.619 226.404 478.287 224.604 480.309 221.759" stroke="#1893F8" stroke-width="0.9278" stroke-miterlimit="10" stroke-linecap="round" stroke-linejoin="round"/>
<path d="M472.16 215.723C472.418 214.584 472.126 213.547 471.508 213.407C470.889 213.267 470.178 214.076 469.92 215.215C469.662 216.353 469.954 217.39 470.573 217.53C471.191 217.671 471.902 216.861 472.16 215.723Z" fill="#1893F8"/>
<path d="M452.095 217.087C454.261 214.111 457.55 211.958 461.152 211.162C461.922 210.992 462.757 210.862 463.305 210.301C464.114 209.492 463.984 208.108 463.488 207.077C462.3 204.585 459.39 203.149 456.65 203.423C453.909 203.697 451.443 205.511 450.059 207.9C449.172 209.426 448.702 211.24 448.976 212.989C449.237 214.738 450.307 216.395 451.912 217.152" fill="white"/>
<path d="M452.095 217.087C454.261 214.111 457.55 211.958 461.152 211.162C461.922 210.992 462.757 210.862 463.305 210.301C464.114 209.492 463.984 208.108 463.488 207.077C462.3 204.585 459.39 203.149 456.65 203.423C453.909 203.697 451.443 205.511 450.059 207.9C449.172 209.426 448.702 211.24 448.976 212.989C449.237 214.738 450.307 216.395 451.912 217.152" stroke="#1893F8" stroke-width="0.9278" stroke-miterlimit="10" stroke-linecap="round" stroke-linejoin="round"/>
<path d="M455.671 203.893C453.674 204.467 452.043 206.19 451.573 208.213C451.103 210.235 451.795 212.493 453.335 213.903C453.609 214.164 453.935 214.398 454.314 214.464C455.058 214.594 455.475 213.811 456.062 213.328C457.263 212.35 459.703 211.619 461.178 211.149C462.313 210.797 462.809 210.705 463.462 209.713C463.997 208.878 463.892 207.743 463.397 206.895C462.901 206.046 462.131 205.002 461.243 204.546C459.508 203.645 457.093 203.567 455.149 203.724" fill="#F6BF3E"/>
<path d="M457.237 203.776C455.384 203.671 453.622 205.237 453.426 207.09C453.244 208.944 454.575 210.797 456.376 211.293C458.163 211.788 460.212 210.927 461.191 209.348C461.661 208.578 461.909 207.652 461.791 206.764C461.635 205.603 460.865 204.559 459.834 204.024C458.803 203.489 457.524 203.45 456.441 203.867" fill="#1893F8"/>
<path d="M458.02 208.304C458.467 208.304 458.829 207.942 458.829 207.495C458.829 207.048 458.467 206.686 458.02 206.686C457.573 206.686 457.211 207.048 457.211 207.495C457.211 207.942 457.573 208.304 458.02 208.304Z" fill="white"/>
<path d="M459.481 205.629C460.082 205.629 460.525 206.216 460.721 206.999C460.76 207.143 460.826 207.325 460.917 207.273C460.956 207.247 460.982 207.182 460.995 207.117C461.113 206.595 461.034 205.968 460.8 205.498C460.565 205.042 460.186 204.768 459.834 204.807C459.677 204.82 459.403 204.911 459.351 205.068C459.273 205.368 459.39 205.629 459.481 205.629Z" fill="white"/>
<path d="M452.095 217.087C454.261 214.111 457.55 211.958 461.152 211.162C461.922 210.992 462.757 210.862 463.305 210.301C464.114 209.492 463.984 208.108 463.488 207.077C462.3 204.585 459.39 203.149 456.65 203.423C453.909 203.697 451.443 205.511 450.059 207.9C449.172 209.426 448.702 211.24 448.976 212.989C449.237 214.738 450.307 216.395 451.912 217.152" stroke="#1893F8" stroke-width="0.9278" stroke-miterlimit="10" stroke-linecap="round" stroke-linejoin="round"/>
<path d="M403.862 206.321C403.562 206.347 403.367 206.66 403.367 206.96C403.367 207.26 403.51 207.534 403.641 207.795C403.862 208.226 404.15 208.696 404.632 208.774C405.102 208.852 405.559 208.461 405.637 207.991C405.716 207.534 405.481 207.051 405.128 206.738C404.776 206.451 404.306 206.281 403.862 206.321Z" fill="#A8CBE8"/>
<path d="M403.014 211.319C402.753 211.841 402.792 212.506 403.106 213.002C403.419 213.498 403.993 213.811 404.58 213.798C404.724 213.224 404.554 212.584 404.176 212.141C403.784 211.71 403.171 211.475 403.014 211.319Z" fill="#A8CBE8"/>
<path d="M405.963 218.901C405.702 218.77 405.441 218.627 405.141 218.614C404.854 218.601 404.528 218.757 404.45 219.031C404.384 219.266 404.489 219.527 404.671 219.697C404.854 219.866 405.089 219.958 405.311 220.049C405.572 220.153 405.846 220.258 406.133 220.258C406.42 220.258 406.72 220.101 406.825 219.84C406.942 219.527 406.733 219.162 406.446 218.992C406.146 218.835 405.794 218.809 405.963 218.901Z" fill="#A8CBE8"/>
<path d="M408.495 224.721C408.13 224.617 407.751 224.512 407.386 224.577C407.021 224.656 406.668 224.982 406.707 225.347C406.746 225.765 407.229 226 407.647 226.052C407.986 226.091 408.339 226.078 408.639 225.909C408.939 225.739 409.148 225.4 409.095 225.06C409.043 224.721 408.678 224.46 408.495 224.721Z" fill="#A8CBE8"/>
<path d="M411.601 229.236C410.622 228.727 409.409 228.688 408.391 229.119C408.038 229.275 407.647 229.654 407.856 229.993C407.96 230.163 408.182 230.215 408.378 230.254C409.004 230.372 409.644 230.45 410.283 230.489C410.557 230.502 410.831 230.515 411.092 230.424C411.353 230.333 411.575 230.124 411.614 229.85C411.653 229.576 411.431 229.275 411.601 229.236Z" fill="#A8CBE8"/>
<path d="M412.945 232.812C412.384 232.982 411.797 233.177 411.458 233.647C411.118 234.117 411.249 234.952 411.81 235.083C412.201 235.174 412.58 234.9 412.841 234.587C413.076 234.313 413.258 233.986 413.298 233.621C413.324 233.256 413.167 232.877 412.945 232.812Z" fill="#A8CBE8"/>
<path d="M414.576 236.218C414.315 235.787 413.676 235.618 413.245 235.879C412.802 236.14 412.658 236.792 412.932 237.21C413.206 237.627 413.885 237.745 414.276 237.419C414.668 237.105 414.772 236.518 414.576 236.218Z" fill="#A8CBE8"/>
<path d="M417.2 239.598C416.612 239.728 415.895 239.976 415.803 240.577C415.738 241.033 416.182 241.477 416.651 241.464C417.121 241.451 417.513 241.02 417.565 240.564C417.617 240.094 417.343 239.637 417.2 239.598Z" fill="#1893F8"/>
<path d="M468.656 249.699C468.643 249.568 468.878 249.503 468.93 249.621C468.983 249.751 468.8 249.895 468.656 249.699Z" fill="#1893F8"/>
<path d="M446.81 224.186C446.001 224.121 445.166 224.343 444.487 224.799C444.213 224.982 443.926 225.282 443.991 225.608C444.03 225.83 444.239 226 444.461 226.052C444.683 226.104 444.918 226.065 445.14 226C445.87 225.765 446.458 225.139 446.81 224.186Z" fill="#1893F8"/>
<path d="M447.58 225.569C446.693 225.7 445.87 226.222 445.388 226.979C445.192 227.279 445.061 227.696 445.296 227.97C445.557 228.258 446.04 228.14 446.366 227.931C446.823 227.657 447.215 227.279 447.502 226.822C447.723 226.483 447.867 225.974 447.58 225.569Z" fill="#1893F8"/>
<path d="M449.42 227.409C449.055 227.331 448.676 227.579 448.506 227.905C448.337 228.231 448.311 228.623 448.324 229.001C448.337 229.367 448.428 229.797 448.767 229.941C449.146 230.111 449.577 229.784 449.746 229.406C450.033 228.806 449.929 228.036 449.42 227.409Z" fill="#1893F8"/>
<path d="M450.921 228.923C450.738 229.732 450.829 230.607 451.182 231.363C451.312 231.651 451.586 231.977 451.899 231.872C452.226 231.768 452.239 231.337 452.213 230.998C452.174 230.593 452.121 230.163 451.939 229.797C451.756 229.432 451.39 229.119 450.921 228.923Z" fill="#1893F8"/>
<path d="M454.718 230.267C454.562 230.515 454.405 230.776 454.418 231.063C454.431 231.35 454.705 231.637 454.979 231.559C455.24 231.481 455.319 231.116 455.188 230.868C455.058 230.633 454.81 230.476 454.718 230.267Z" fill="#1893F8"/>
<path d="M465.132 202.914C465.21 203.906 465.367 204.885 465.602 205.851C465.68 206.164 465.837 206.542 466.163 206.568C466.476 206.595 466.685 206.268 466.776 205.968C467.129 204.807 466.607 203.449 465.563 202.823C465.458 202.758 465.341 202.706 465.21 202.732C465.08 202.758 465.028 202.914 465.132 202.914Z" fill="#A8CBE8"/>
<path d="M484.381 242.534C483.859 243.252 483.676 244.205 483.924 245.066C483.989 245.301 484.133 245.562 484.368 245.614C484.707 245.679 484.955 245.301 485.06 244.975C485.203 244.518 485.294 244.048 485.321 243.578C485.334 243.239 485.321 242.874 485.086 242.626C484.851 242.378 484.381 242.365 484.381 242.534Z" fill="#A8CBE8"/>
<path d="M487.265 239.52C486.56 240.603 486.391 242.012 486.821 243.226C486.9 243.435 487.043 243.683 487.265 243.67C487.422 243.67 487.539 243.539 487.643 243.409C488.205 242.678 488.518 241.777 488.531 240.851C488.531 240.485 488.479 240.081 488.257 239.794C488.022 239.507 487.578 239.363 487.265 239.52Z" fill="#A8CBE8"/>
<path d="M490.097 236.375C489.927 236.401 489.758 236.427 489.588 236.453C489.588 236.897 489.444 237.327 489.483 237.758C489.523 238.189 489.836 238.671 490.28 238.645C490.671 238.619 490.932 238.215 491.036 237.836C491.154 237.393 491.141 236.871 490.854 236.518C490.567 236.166 489.901 236.101 490.097 236.375Z" fill="#A8CBE8"/>
<path d="M492.459 231.729C491.937 232.042 491.637 232.681 491.728 233.282C491.78 233.595 491.963 233.934 492.276 233.986C492.694 234.065 493.02 233.621 493.124 233.203C493.203 232.877 493.216 232.512 493.046 232.225C492.876 231.938 492.498 231.742 492.459 231.729Z" fill="#A8CBE8"/>
<path d="M493.999 228.558C493.686 228.571 493.411 228.832 493.32 229.132C493.229 229.432 493.268 229.758 493.333 230.072C493.411 230.411 493.607 230.815 493.96 230.815C494.312 230.815 494.521 230.424 494.599 230.085C494.69 229.732 494.73 229.341 494.586 229.001C494.442 228.675 494.064 228.414 493.999 228.558Z" fill="#A8CBE8"/>
<path d="M494.991 225.517C494.86 225.139 494.26 225.086 493.999 225.4C493.738 225.713 493.803 226.196 494.051 226.522C494.286 226.822 494.743 226.992 495.069 226.796C495.343 226.626 495.434 226.248 495.33 225.948C495.225 225.648 494.925 225.426 494.991 225.517Z" fill="#A8CBE8"/>
<path d="M496.074 223.207C495.865 222.894 495.343 222.92 495.121 223.207C494.899 223.507 494.978 223.964 495.265 224.199C495.473 224.369 495.761 224.421 496.008 224.316C496.256 224.212 496.413 223.925 496.348 223.677C496.309 223.416 496.022 223.22 496.074 223.207Z" fill="#A8CBE8"/>
<path d="M496.752 221.145C496.517 221.158 496.296 221.171 496.061 221.184C495.852 221.393 495.878 221.798 496.113 221.98C496.348 222.163 496.739 222.098 496.896 221.837C497.052 221.589 496.935 221.211 496.752 221.145Z" fill="#A8CBE8"/>
<path d="M498.149 218.327C497.953 218.444 497.757 218.574 497.548 218.692C497.483 218.94 497.666 219.214 497.914 219.253C498.162 219.292 498.423 219.096 498.449 218.848C498.475 218.601 498.253 218.353 498.149 218.327Z" fill="#A8CBE8"/>
<path d="M516.523 338.334C526.389 334.289 541.148 335.502 548.352 343.372C552.541 334.25 563.581 320.273 573.486 318.642C574.113 314.022 577.271 310.068 581.094 307.406C584.918 304.744 589.381 303.204 593.792 301.703C600.226 299.498 607.482 297.318 613.602 300.294C618.352 302.603 621.328 307.732 622.045 312.965C622.763 318.198 621.484 323.536 619.527 328.442C624.747 332.357 627.579 339.235 626.626 345.695C625.673 352.154 620.962 357.909 614.829 360.141C618.652 367.449 617.569 377.028 612.206 383.292C606.842 389.556 597.551 392.113 589.734 389.477C581.173 404.041 563.294 412.511 546.603 409.914C544.581 414.207 539.569 416.034 535.041 417.456C529.534 419.179 524.014 420.902 518.507 422.624C514.696 423.812 510.768 425.025 506.801 424.621C500.224 423.968 494.599 418.683 492.655 412.367C490.697 406.051 492.093 398.991 495.5 393.327C498.906 387.663 504.139 383.279 509.868 379.977C502.077 373.191 498.501 361.916 500.954 351.867C503.408 341.832 511.747 340.292 516.523 338.334Z" fill="white" stroke="#D1D1D1" stroke-miterlimit="10" stroke-linecap="round" stroke-linejoin="round"/>
<path d="M561.82 339.848C548.822 328.873 540.822 307.406 547.347 297.866C551.288 292.111 561.324 291.928 566.805 293.521C572.638 295.204 589.681 303.426 589.355 303.948C589.172 304.235 586.197 304.731 585.858 304.731C584.187 304.717 579.959 302.16 579.959 302.16L594.275 310.955C594.875 311.36 595.567 312.078 595.175 312.691C594.94 313.056 594.445 313.135 594.001 313.135C592.2 313.135 590.412 312.521 588.977 311.412C592.161 313.683 596.154 314.779 600.056 314.479C600.656 314.427 601.191 314.949 601.1 315.588C600.943 316.724 600.421 317.794 599.665 318.668C598.934 319.516 599.573 320.873 600.63 320.638C600.669 320.625 600.709 320.625 600.748 320.612C601.531 320.443 602.235 321.2 602.014 322.022C601.374 324.358 599.26 326.302 596.898 327.098C593.949 328.103 590.738 327.712 587.672 327.203C590.334 328.168 593.283 328.299 596.037 327.607C596.846 327.411 597.537 328.286 597.133 329.056C594.249 334.615 588.298 338.4 582.073 339.274C575.835 340.148 569.454 338.4 564.012 335.163C563.268 334.719 562.407 335.45 562.629 336.312C562.824 337.081 563.046 337.838 563.281 338.595C563.529 339.391 562.785 340.174 562.054 339.861" fill="#C6E1F5"/>
<path d="M561.82 339.848C548.822 328.873 540.822 307.406 547.347 297.866C551.288 292.111 561.324 291.928 566.805 293.521C572.638 295.204 589.681 303.426 589.355 303.948C589.172 304.235 586.197 304.731 585.858 304.731C584.187 304.717 579.959 302.16 579.959 302.16L594.275 310.955C594.875 311.36 595.567 312.078 595.175 312.691C594.94 313.056 594.445 313.135 594.001 313.135C592.2 313.135 590.412 312.521 588.977 311.412C592.161 313.683 596.154 314.779 600.056 314.479C600.656 314.427 601.191 314.949 601.1 315.588C600.943 316.724 600.421 317.794 599.665 318.668C598.934 319.516 599.573 320.873 600.63 320.638C600.669 320.625 600.709 320.625 600.748 320.612C601.531 320.443 602.235 321.2 602.014 322.022C601.374 324.358 599.26 326.302 596.898 327.098C593.949 328.103 590.738 327.712 587.672 327.203C590.334 328.168 593.283 328.299 596.037 327.607C596.846 327.411 597.537 328.286 597.133 329.056C594.249 334.615 588.298 338.4 582.073 339.274C575.835 340.148 569.454 338.4 564.012 335.163C563.268 334.719 562.407 335.45 562.629 336.312C562.824 337.081 563.046 337.838 563.281 338.595C563.529 339.391 562.785 340.174 562.054 339.861" stroke="#1893F8" stroke-width="1.0713" stroke-miterlimit="10" stroke-linecap="round" stroke-linejoin="round"/>
<path d="M547.556 305.527C546.355 316.58 551.406 328.09 560.345 334.693C559.458 334.432 559.184 333.18 559.706 332.423C560.228 331.666 561.258 331.405 562.159 331.535C563.072 331.666 563.895 332.122 564.704 332.553C569.663 335.189 575.091 337.251 580.716 337.173C586.328 337.095 592.135 334.55 595.019 329.734C583.117 330.765 575.392 328.756 566.831 325.115C558.257 321.474 551.523 313.97 547.556 305.527Z" fill="#A8CBE8"/>
<path d="M417.487 300.555C411.98 293.142 396.045 288.496 384.901 291.185C372.999 294.069 361.868 300.776 354.599 310.629C347.317 320.482 344.185 333.532 347.186 345.407C350.188 357.283 361.254 368.532 372.529 372.447C373.051 369.746 371.942 366.052 372.464 363.351C371.407 380.538 382.486 397.777 398.551 403.976C414.616 410.175 434.399 404.824 445.153 391.383C439.241 397.764 433.525 400.766 426.974 404.485C430.223 412.015 440.716 416.151 448.911 416.569C457.106 416.987 465.119 414.364 472.897 411.78C477.595 419.427 486.743 423.433 495.682 424.151C504.621 424.869 513.535 422.768 522.252 420.654C530.069 418.761 538.16 416.713 544.437 411.675C550.714 406.638 554.642 397.712 551.432 390.339C557.97 388.446 560.723 378.985 556.221 373.882C561.924 373.321 565.852 366.209 563.281 361.094C566.687 360.428 568.123 355.312 565.552 352.976C568.097 351.815 568.919 348.004 567.066 345.903C565.213 343.802 561.337 344.115 559.849 346.491C559.431 341.819 553.376 338.726 549.344 341.127C549.722 337.016 544.933 333.388 541.083 334.889C536.15 329.017 527.824 326.211 520.347 327.907C512.243 318.159 500.589 311.425 488.087 309.285C475.585 307.145 462.353 309.598 451.469 316.084C456.858 321.474 460.317 327.803 463.853 333.467C454.614 317.363 445.322 308.084 431.737 303.151C418.152 298.219 402.766 301.063 389.338 306.414C397.39 301.533 417.487 300.555 417.487 300.555Z" fill="#F6F6F6" stroke="#D1D1D1" stroke-miterlimit="10" stroke-linecap="round" stroke-linejoin="round"/>
<path d="M380.059 313.983C380.268 308.606 379.524 305.592 386.715 297.657C380.555 296.131 370.624 298.806 365.561 302.629C360.497 306.44 356.869 311.882 354.077 317.572C351.623 322.583 349.718 328.012 349.718 333.597C349.718 339.183 351.858 344.964 356.269 348.396C360.68 351.828 367.492 352.298 371.759 348.709C371.903 350.053 373.273 350.928 374.604 351.202C375.935 351.476 377.319 351.371 378.598 351.776C381.077 352.546 382.604 354.947 384.092 357.061C396.254 374.431 419.927 382.796 440.755 378.241C444.618 376.297 454.705 385.223 452.2 388.746C447.658 395.154 446.144 407.434 451.195 409.9C457.367 412.902 465.811 408.817 473.354 406.26C489.627 400.739 485.96 413.463 523.609 404.785C526.937 404.015 522.017 411.714 519.394 413.907C527.824 412.902 534.389 408.622 538.943 401.47C545.442 391.265 549.54 381.138 544.998 370.803C549.148 368.428 550.205 360.337 546.46 357.361C542.714 354.386 540.17 354.125 535.38 354.033C532.405 344.951 524.34 337.734 514.996 335.763C509.959 329.943 504.791 323.992 498.083 320.234C491.376 316.462 482.697 315.249 476.055 319.125C469.413 323.014 466.398 332.932 471.318 338.856C464.454 336.729 456.441 338.869 451.56 344.155C447.449 331.483 437.597 320.808 425.304 315.706C413.01 310.603 398.486 311.164 386.623 317.193C384.966 315.079 382.239 313.866 379.563 314.022" fill="white"/>
<path d="M469.717 439.906C490.741 409.689 522.862 387.772 560.178 380.057C582.627 347.408 620.243 326 662.86 326H717.529C782.409 326 835.701 375.62 841.524 438.982H885.18C947.913 438.982 998.769 489.838 998.769 552.572C998.769 615.305 947.913 666.161 885.18 666.161H626.219C614.873 666.161 605.428 666.161 594.22 666.161H590.576C579.368 666.161 568.101 666.161 557.362 666.161H484.275C421.541 666.161 370.686 615.305 370.686 552.572C370.686 494.771 413.859 447.053 469.717 439.906Z" fill="url(#paint4_radial_2138_1778)"/>
<path opacity="0.8" d="M469.844 440.898L470.284 440.842L470.538 440.478C491.419 410.465 523.322 388.698 560.381 381.037L560.774 380.955L561.002 380.624C583.272 348.235 620.586 327 662.86 327H717.529C781.888 327 834.752 376.222 840.528 439.074L840.612 439.982H841.524H885.18C947.361 439.982 997.769 490.39 997.769 552.572C997.769 614.753 947.361 665.161 885.18 665.161H626.219H626.153H626.086H626.02H625.954H625.887H625.821H625.755H625.689H625.622H625.556H625.49H625.424H625.358H625.293H625.227H625.161H625.095H625.029H624.964H624.898H624.832H624.767H624.701H624.636H624.57H624.505H624.439H624.374H624.309H624.243H624.178H624.113H624.048H623.983H623.918H623.853H623.788H623.723H623.658H623.593H623.528H623.463H623.398H623.334H623.269H623.204H623.14H623.075H623.01H622.946H622.881H622.817H622.753H622.688H622.624H622.56H622.495H622.431H622.367H622.303H622.238H622.174H622.11H622.046H621.982H621.918H621.854H621.79H621.726H621.663H621.599H621.535H621.471H621.407H621.344H621.28H621.216H621.153H621.089H621.026H620.962H620.899H620.835H620.772H620.709H620.645H620.582H620.519H620.455H620.392H620.329H620.266H620.202H620.139H620.076H620.013H619.95H619.887H619.824H619.761H619.698H619.635H619.572H619.51H619.447H619.384H619.321H619.258H619.196H619.133H619.07H619.008H618.945H618.882H618.82H618.757H618.695H618.632H618.57H618.507H618.445H618.383H618.32H618.258H618.195H618.133H618.071H618.009H617.946H617.884H617.822H617.76H617.698H617.635H617.573H617.511H617.449H617.387H617.325H617.263H617.201H617.139H617.077H617.015H616.953H616.891H616.83H616.768H616.706H616.644H616.582H616.521H616.459H616.397H616.335H616.274H616.212H616.15H616.089H616.027H615.965H615.904H615.842H615.781H615.719H615.658H615.596H615.535H615.473H615.412H615.35H615.289H615.227H615.166H615.105H615.043H614.982H614.921H614.859H614.798H614.737H614.675H614.614H614.553H614.492H614.43H614.369H614.308H614.247H614.186H614.124H614.063H614.002H613.941H613.88H613.819H613.758H613.697H613.636H613.575H613.513H613.452H613.391H613.33H613.269H613.208H613.147H613.086H613.025H612.965H612.904H612.843H612.782H612.721H612.66H612.599H612.538H612.477H612.416H612.355H612.295H612.234H612.173H612.112H612.051H611.99H611.929H611.869H611.808H611.747H611.686H611.625H611.565H611.504H611.443H611.382H611.321H611.261H611.2H611.139H611.078H611.018H610.957H610.896H610.835H610.775H610.714H610.653H610.593H610.532H610.471H610.41H610.35H610.289H610.228H610.168H610.107H610.046H609.985H609.925H609.864H609.803H609.743H609.682H609.621H609.561H609.5H609.439H609.378H609.318H609.257H609.196H609.136H609.075H609.014H608.953H608.893H608.832H608.771H608.711H608.65H608.589H608.528H608.468H608.407H608.346H608.286H608.225H608.164H608.103H608.043H607.982H607.921H607.86H607.799H607.739H607.678H607.617H607.556H607.496H607.435H607.374H607.313H607.252H607.191H607.131H607.07H607.009H606.948H606.887H606.826H606.766H606.705H606.644H606.583H606.522H606.461H606.4H606.339H606.278H606.217H606.156H606.095H606.034H605.973H605.912H605.851H605.79H605.729H605.668H605.607H605.546H605.485H605.424H605.363H605.302H605.241H605.18H605.119H605.057H604.996H604.935H604.874H604.813H604.751H604.69H604.629H604.568H604.507H604.445H604.384H604.323H604.261H604.2H604.139H604.077H604.016H603.955H603.893H603.832H603.77H603.709H603.647H603.586H603.524H603.463H603.401H603.34H603.278H603.217H603.155H603.093H603.032H602.97H602.908H602.847H602.785H602.723H602.662H602.6H602.538H602.476H602.414H602.353H602.291H602.229H602.167H602.105H602.043H601.981H601.919H601.857H601.795H601.733H601.671H601.609H601.547H601.485H601.423H601.36H601.298H601.236H601.174H601.111H601.049H600.987H600.925H600.862H600.8H600.737H600.675H600.613H600.55H600.488H600.425H600.363H600.3H600.237H600.175H600.112H600.05H599.987H599.924H599.861H599.799H599.736H599.673H599.61H599.547H599.484H599.421H599.359H599.296H599.233H599.17H599.106H599.043H598.98H598.917H598.854H598.791H598.727H598.664H598.601H598.538H598.474H598.411H598.347H598.284H598.221H598.157H598.094H598.03H597.966H597.903H597.839H597.775H597.712H597.648H597.584H597.52H597.457H597.393H597.329H597.265H597.201H597.137H597.073H597.009H596.945H596.881H596.816H596.752H596.688H596.624H596.559H596.495H596.431H596.366H596.302H596.237H596.173H596.108H596.044H595.979H595.914H595.85H595.785H595.72H595.655H595.591H595.526H595.461H595.396H595.331H595.266H595.201H595.136H595.07H595.005H594.94H594.875H594.81H594.744H594.679H594.613H594.548H594.482H594.417H594.351H594.286H594.22H590.576H590.51H590.444H590.379H590.313H590.247H590.181H590.116H590.05H589.984H589.919H589.853H589.787H589.722H589.656H589.59H589.525H589.459H589.393H589.328H589.262H589.196H589.131H589.065H588.999H588.933H588.868H588.802H588.736H588.671H588.605H588.539H588.474H588.408H588.342H588.276H588.211H588.145H588.079H588.014H587.948H587.882H587.817H587.751H587.685H587.619H587.554H587.488H587.422H587.357H587.291H587.225H587.16H587.094H587.028H586.962H586.897H586.831H586.765H586.7H586.634H586.568H586.502H586.437H586.371H586.305H586.24H586.174H586.108H586.043H585.977H585.911H585.845H585.78H585.714H585.648H585.583H585.517H585.451H585.386H585.32H585.254H585.188H585.123H585.057H584.991H584.926H584.86H584.794H584.729H584.663H584.597H584.532H584.466H584.4H584.335H584.269H584.203H584.138H584.072H584.006H583.94H583.875H583.809H583.743H583.678H583.612H583.546H583.481H583.415H583.349H583.284H583.218H583.152H583.087H583.021H582.956H582.89H582.824H582.759H582.693H582.627H582.562H582.496H582.43H582.365H582.299H582.233H582.168H582.102H582.037H581.971H581.905H581.84H581.774H581.708H581.643H581.577H581.512H581.446H581.38H581.315H581.249H581.184H581.118H581.052H580.987H580.921H580.856H580.79H580.725H580.659H580.593H580.528H580.462H580.397H580.331H580.266H580.2H580.134H580.069H580.003H579.938H579.872H579.807H579.741H579.676H579.61H579.545H579.479H579.414H579.348H579.282H579.217H579.151H579.086H579.02H578.955H578.889H578.824H578.758H578.693H578.627H578.562H578.497H578.431H578.366H578.3H578.235H578.169H578.104H578.038H577.973H577.907H577.842H577.777H577.711H577.646H577.58H577.515H577.449H577.384H577.319H577.253H577.188H577.122H577.057H576.992H576.926H576.861H576.795H576.73H576.665H576.599H576.534H576.469H576.403H576.338H576.273H576.207H576.142H576.077H576.011H575.946H575.881H575.815H575.75H575.685H575.619H575.554H575.489H575.423H575.358H575.293H575.228H575.162H575.097H575.032H574.967H574.901H574.836H574.771H574.706H574.64H574.575H574.51H574.445H574.38H574.314H574.249H574.184H574.119H574.054H573.988H573.923H573.858H573.793H573.728H573.663H573.597H573.532H573.467H573.402H573.337H573.272H573.207H573.142H573.076H573.011H572.946H572.881H572.816H572.751H572.686H572.621H572.556H572.491H572.426H572.361H572.296H572.231H572.166H572.101H572.036H571.971H571.906H571.841H571.776H571.711H571.646H571.581H571.516H571.451H571.386H571.321H571.256H571.191H571.126H571.061H570.996H570.931H570.867H570.802H570.737H570.672H570.607H570.542H570.477H570.413H570.348H570.283H570.218H570.153H570.088H570.024H569.959H569.894H569.829H569.764H569.7H569.635H569.57H569.505H569.441H569.376H569.311H569.246H569.182H569.117H569.052H568.988H568.923H568.858H568.794H568.729H568.664H568.6H568.535H568.47H568.406H568.341H568.277H568.212H568.147H568.083H568.018H567.954H567.889H567.824H567.76H567.695H567.631H567.566H567.502H567.437H567.373H567.308H567.244H567.179H567.115H567.05H566.986H566.921H566.857H566.793H566.728H566.664H566.599H566.535H566.471H566.406H566.342H566.277H566.213H566.149H566.084H566.02H565.956H565.891H565.827H565.763H565.699H565.634H565.57H565.506H565.442H565.377H565.313H565.249H565.185H565.12H565.056H564.992H564.928H564.864H564.799H564.735H564.671H564.607H564.543H564.479H564.415H564.351H564.287H564.222H564.158H564.094H564.03H563.966H563.902H563.838H563.774H563.71H563.646H563.582H563.518H563.454H563.39H563.326H563.262H563.198H563.134H563.071H563.007H562.943H562.879H562.815H562.751H562.687H562.623H562.56H562.496H562.432H562.368H562.304H562.241H562.177H562.113H562.049H561.986H561.922H561.858H561.794H561.731H561.667H561.603H561.54H561.476H561.412H561.349H561.285H561.222H561.158H561.094H561.031H560.967H560.904H560.84H560.776H560.713H560.649H560.586H560.522H560.459H560.395H560.332H560.269H560.205H560.142H560.078H560.015H559.951H559.888H559.825H559.761H559.698H559.635H559.571H559.508H559.445H559.381H559.318H559.255H559.191H559.128H559.065H559.002H558.938H558.875H558.812H558.749H558.686H558.623H558.559H558.496H558.433H558.37H558.307H558.244H558.181H558.118H558.055H557.992H557.928H557.865H557.802H557.739H557.676H557.613H557.551H557.488H557.425H557.362H484.275C422.094 665.161 371.686 614.753 371.686 552.572C371.686 495.28 414.478 447.982 469.844 440.898Z" stroke="url(#paint5_linear_2138_1778)" stroke-width="2"/>
<path opacity="0.15" d="M357.652 30C341.836 30 347.07 107.3 361.725 103.372L441.68 57.1988C438.538 49.638 438.856 46.1889 441.078 38.5551L357.652 30ZM596.803 30L513.377 38.5551C516.157 46.1739 515.378 49.8503 512.774 57.1988L592.729 103.372C612.48 108.666 611.586 30 596.803 30ZM449.128 66.7278L372.083 161.888C354.13 192.993 411.624 228.788 429.883 197.154L461.506 79.108L449.128 66.7278ZM505.326 66.7278L492.949 79.108L524.572 197.154C547.621 237.087 611.107 211.673 582.371 161.888L505.326 66.7278Z" fill="url(#paint6_radial_2138_1778)"/>
<path d="M502.163 57.1518C505.177 53.8429 506.742 50.0203 506.851 45.3859C506.959 40.7515 505.573 35.9551 502.717 32.629C499.851 29.3054 496.061 27.6451 492.219 27.6371C488.387 27.6265 484.487 30.4458 481.483 33.7521L477.862 37.7279L474.414 33.7361C471.549 30.4125 467.778 27.5836 463.945 27.573C460.113 27.5624 456.242 29.2106 453.228 32.5194C450.215 35.8283 448.657 40.6185 448.548 45.2529C448.44 49.8873 449.809 53.7186 452.675 57.0422C459.771 65.0592 466.322 72.6212 473.002 81.0794C473.95 82.173 475.383 83.2723 476.837 83.2804C478.29 83.2885 479.77 82.1938 480.768 81.1025C487.679 72.5219 494.805 65.2315 502.163 57.1518Z" fill="#FFA8A2"/>
<path d="M463.96 26.425C459.867 26.4166 455.725 28.1855 452.518 31.7112C449.271 35.2765 447.637 40.3487 447.531 45.254C447.424 50.1594 448.914 54.3655 451.937 57.8604C451.937 57.8604 451.939 57.8695 451.948 57.867C459.033 65.8775 465.579 73.4214 472.233 81.8574C472.245 81.864 472.259 81.8795 472.271 81.8861C473.338 83.1224 474.904 84.4187 476.812 84.431C478.718 84.4343 480.357 83.1419 481.478 81.9107C481.494 81.8967 481.511 81.8826 481.525 81.8594C488.404 73.3457 495.495 66.0744 502.867 57.9716C506.034 54.4857 507.764 50.2991 507.868 45.3847C507.982 40.4678 506.533 35.3976 503.448 31.8223C500.395 28.2872 496.337 26.4949 492.244 26.4865C487.969 26.4782 483.903 29.5068 480.78 32.9323L477.89 36.1013L475.153 32.9179C472.175 29.4787 468.235 26.4332 463.96 26.425ZM463.909 28.717C467.299 28.7299 470.913 31.3489 473.674 34.5454L477.112 38.5396C477.3 38.7511 477.555 38.8766 477.826 38.8719C478.099 38.8763 478.358 38.7489 478.554 38.5412L482.184 34.563C485.09 31.3799 488.806 28.7748 492.193 28.7786C495.763 28.7913 499.301 30.3352 501.977 33.4382C504.621 36.5011 505.932 41.017 505.831 45.378C505.73 49.739 504.312 53.2117 501.462 56.3409C494.135 64.3834 487.02 71.6804 480.074 80.2801C479.202 81.2407 477.869 82.1312 476.861 82.1299C475.853 82.1285 474.574 81.2301 473.74 80.2611C467.06 71.8029 460.497 64.2344 453.415 56.2329L453.41 56.2148C450.716 53.0781 449.474 49.6102 449.575 45.2492C449.674 40.8792 451.157 36.371 453.929 33.3302C456.73 30.2432 460.339 28.7043 463.909 28.717ZM463.881 33.4268C463.618 33.42 463.348 33.5795 463.19 33.8545C462.967 34.2633 463.159 34.4929 463.411 35.017C464.7 37.6867 464.86 36.6647 464.445 34.7011C464.323 34.1327 464.543 33.7536 464.224 33.5387C464.113 33.4619 464.002 33.4237 463.881 33.4268ZM461.2 34.5525C460.906 34.5441 460.766 35.0373 461.055 35.968C461.495 37.3434 462.867 37.4994 462.168 35.7572C461.925 35.1532 461.657 34.7889 461.425 34.6378C461.339 34.583 461.261 34.5554 461.2 34.5525ZM492.558 34.9925C492.438 34.9956 492.315 35.0283 492.205 35.1063C491.879 35.3197 492.073 35.7041 491.931 36.2656C491.44 38.2297 491.544 39.2586 492.956 36.5921C493.23 36.0727 493.431 35.8444 493.23 35.4329C493.082 35.143 492.817 34.9813 492.558 34.9925ZM458.314 35.6265C458.043 35.6312 457.733 35.8304 457.587 36.112C457.357 36.5324 457.474 37.0827 457.844 37.3327C458.225 37.5894 459.502 38.2555 459.896 38.0336C460.229 37.8474 459.263 36.5356 458.685 35.8082C458.651 35.759 458.602 35.7238 458.564 35.6952C458.5 35.6445 458.406 35.6309 458.314 35.6265ZM495.181 36.1318C495.11 36.1313 495.037 36.1605 494.951 36.2129C494.709 36.3648 494.424 36.7319 494.163 37.3353C493.38 39.0769 494.768 38.9182 495.269 37.5527C495.594 36.6221 495.482 36.1286 495.181 36.1318ZM498.011 37.2157C497.919 37.2112 497.834 37.2339 497.757 37.2837C497.715 37.3144 497.672 37.3451 497.635 37.3938C497.024 38.12 496.004 39.4306 496.326 39.6159C496.709 39.8428 498.023 39.1805 498.407 38.9224C498.792 38.6643 498.938 38.1208 498.726 37.7028C498.582 37.4309 498.284 37.22 498.011 37.2157ZM457.063 39.0448C456.804 39.056 456.497 39.2643 456.362 39.5137C456.146 39.9109 456.266 40.4316 456.635 40.6816C457.004 40.9317 458.666 41.0392 458.846 40.6224C459.029 40.2146 457.729 39.8747 457.423 39.2586C457.394 39.1888 457.351 39.1421 457.292 39.1094C457.237 39.0562 457.152 39.0402 457.063 39.0448ZM499.108 40.6349C499.026 40.6279 498.941 40.6506 498.871 40.6889C498.819 40.7221 498.772 40.7734 498.74 40.8402C498.403 41.4637 497.101 41.7933 497.259 42.1968C497.42 42.6094 499.087 42.5118 499.464 42.2653C499.842 42.0187 499.996 41.5024 499.788 41.1024C499.673 40.8617 499.374 40.6508 499.108 40.6349ZM457.615 42.6101C457.403 42.6088 457.232 42.6451 457.061 42.8362C456.753 43.1902 456.791 43.5969 457.23 43.6926C457.53 43.7577 457.753 43.6882 457.996 43.4679C458.384 43.1118 458.415 42.8514 458.219 42.7198C458.131 42.656 457.992 42.6255 457.818 42.614C457.757 42.611 457.686 42.6106 457.615 42.6101ZM498.4 44.1986C498.33 44.1982 498.259 44.1977 498.179 44.1998C498.009 44.2064 497.868 44.2442 497.782 44.2965C497.575 44.4294 497.596 44.6952 497.973 45.0499C498.204 45.2694 498.435 45.3431 498.729 45.274C499.166 45.1762 499.231 44.7806 498.934 44.4239C498.785 44.2411 498.605 44.2115 498.4 44.1986ZM484.978 64.4713C484.392 64.5024 484.198 65.6983 483.423 66.604C482.358 67.8588 481.241 69.0307 482.221 69.6021C483.782 70.4636 485.923 64.8773 485.145 64.4943C485.133 64.4878 485.122 64.4813 485.1 64.4773C485.058 64.4693 485.018 64.4703 484.978 64.4713Z" fill="#BE2217"/>
<path d="M517.371 131.606C519.628 129.745 520.989 127.374 521.468 124.291C521.948 121.209 521.468 117.852 519.888 115.302C518.308 112.753 515.981 111.211 513.474 110.764C510.976 110.32 508.18 111.753 505.923 113.615L503.203 115.855L501.307 112.791C499.724 110.25 497.515 107.926 495.016 107.482C492.517 107.038 489.838 107.689 487.581 109.55C485.324 111.411 483.883 114.432 483.404 117.515C482.924 120.597 483.482 123.312 485.064 125.854C488.99 132.019 492.604 137.816 496.216 144.223C496.739 145.065 497.575 145.958 498.526 146.127C499.477 146.296 500.543 145.742 501.284 145.118C506.563 140.205 511.853 136.153 517.371 131.606Z" fill="#FFA8A2"/>
<path d="M495.136 106.718C492.465 106.24 489.601 106.946 487.201 108.929C484.765 110.933 483.252 114.135 482.747 117.397C482.241 120.658 482.847 123.631 484.509 126.312C484.509 126.312 484.509 126.312 484.515 126.323C488.433 132.484 492.041 138.271 495.65 144.659C495.655 144.67 495.664 144.673 495.669 144.683C496.258 145.626 497.166 146.681 498.411 146.901C499.657 147.122 500.839 146.446 501.678 145.753C501.691 145.74 501.702 145.736 501.716 145.723C506.951 140.829 512.227 136.79 517.759 132.231C520.132 130.273 521.628 127.674 522.136 124.404C522.641 121.143 522.149 117.584 520.442 114.844C518.764 112.131 516.267 110.471 513.594 110C510.801 109.505 507.881 111.057 505.543 112.993L503.378 114.775L501.869 112.336C500.229 109.697 497.929 107.213 495.136 106.718ZM494.898 108.238C497.111 108.634 499.241 110.792 500.763 113.245L502.659 116.308C502.758 116.471 502.919 116.587 503.094 116.614C503.268 116.64 503.45 116.593 503.602 116.474L506.321 114.234C508.5 112.44 511.153 111.128 513.365 111.524C515.7 111.936 517.869 113.379 519.344 115.755C520.8 118.107 521.257 121.268 520.814 124.166C520.363 127.061 519.132 129.22 516.994 130.977C511.5 135.507 506.21 139.559 500.915 144.492C500.257 145.034 499.313 145.476 498.657 145.358C498 145.24 497.241 144.495 496.784 143.752C493.164 137.343 489.545 131.535 485.624 125.381L485.621 125.363C484.138 122.959 483.637 120.503 484.079 117.605C484.525 114.699 485.89 111.866 487.977 110.151C490.074 108.432 492.563 107.826 494.898 108.238ZM494.463 111.379C494.291 111.345 494.101 111.416 493.977 111.587C493.791 111.83 493.901 112.014 494.018 112.39C494.627 114.326 494.816 113.654 494.722 112.293C494.692 111.905 494.868 111.666 494.681 111.49C494.618 111.433 494.539 111.397 494.463 111.379ZM492.615 111.831C492.419 111.788 492.29 112.104 492.39 112.764C492.558 113.732 493.438 113.997 493.139 112.751C493.032 112.32 492.889 112.047 492.752 111.913C492.705 111.863 492.659 111.838 492.615 111.831ZM513.048 115.717C512.969 115.707 512.885 115.712 512.806 115.753C512.579 115.853 512.673 116.135 512.529 116.496C512.036 117.748 512.011 118.451 513.165 116.83C513.394 116.516 513.54 116.387 513.443 116.087C513.379 115.876 513.223 115.744 513.048 115.717ZM490.637 112.212C490.454 112.183 490.245 112.281 490.121 112.452C489.932 112.703 489.957 113.081 490.184 113.297C490.403 113.511 491.188 114.102 491.463 114.001C491.696 113.911 491.186 112.927 490.874 112.372C490.858 112.341 490.833 112.306 490.803 112.287C490.754 112.244 490.696 112.224 490.637 112.212ZM514.662 116.778C514.618 116.771 514.561 116.777 514.504 116.809C514.338 116.888 514.119 117.095 513.888 117.468C513.228 118.541 514.146 118.596 514.592 117.74C514.89 117.149 514.86 116.813 514.662 116.778ZM516.416 117.828C516.356 117.816 516.299 117.822 516.245 117.845C516.212 117.86 516.18 117.874 516.15 117.907C515.685 118.319 514.906 119.076 515.098 119.237C515.333 119.431 516.243 119.14 516.525 119.015C516.799 118.888 516.938 118.542 516.843 118.235C516.768 118.028 516.596 117.865 516.416 117.828ZM489.522 114.352C489.356 114.328 489.136 114.432 489.017 114.588C488.842 114.826 488.872 115.188 489.094 115.394C489.315 115.601 490.39 115.864 490.543 115.609C490.696 115.354 489.88 114.983 489.735 114.53C489.716 114.48 489.691 114.446 489.664 114.419C489.631 114.382 489.576 114.354 489.522 114.352ZM516.833 120.237C516.773 120.225 516.726 120.226 516.672 120.25C516.64 120.264 516.602 120.294 516.569 120.334C516.3 120.711 515.413 120.779 515.486 121.07C515.556 121.369 516.653 121.487 516.925 121.367C517.196 121.247 517.338 120.92 517.238 120.628C517.18 120.453 517.002 120.279 516.833 120.237ZM489.569 116.795C489.43 116.772 489.31 116.773 489.188 116.885C488.953 117.086 488.949 117.359 489.222 117.472C489.413 117.555 489.568 117.532 489.739 117.412C490.026 117.221 490.068 117.047 489.951 116.937C489.896 116.884 489.808 116.845 489.697 116.823C489.664 116.811 489.612 116.802 489.569 116.795ZM516.057 122.539C516.013 122.532 515.961 122.522 515.918 122.516C515.803 122.502 515.711 122.504 515.643 122.54C515.499 122.61 515.492 122.787 515.698 123.065C515.83 123.24 515.969 123.314 516.176 123.301C516.475 123.285 516.547 123.027 516.385 122.756C516.299 122.606 516.187 122.559 516.057 122.539ZM505.509 134.52C505.122 134.471 504.896 135.25 504.311 135.766C503.503 136.478 502.666 137.138 503.257 137.627C504.204 138.386 506.094 134.896 505.615 134.558C505.607 134.555 505.601 134.544 505.593 134.541C505.56 134.53 505.533 134.529 505.509 134.52Z" fill="#BE2217"/>
<path d="M462.325 157.2C463.115 155.965 463.399 154.626 463.15 153.092C462.901 151.559 462.154 150.044 461.008 149.085C459.862 148.125 458.51 147.763 457.246 147.949C455.981 148.134 454.868 149.246 454.086 150.485L453.135 151.976L451.757 150.826C450.611 149.867 449.199 149.117 447.935 149.303C446.67 149.488 445.499 150.219 444.708 151.453C443.918 152.688 443.7 154.343 443.949 155.877C444.198 157.41 444.885 158.608 446.029 159.56C448.857 161.861 451.471 164.035 454.19 166.5C454.568 166.816 455.109 167.106 455.586 167.037C456.068 166.967 456.485 166.539 456.745 166.129C458.497 162.967 460.394 160.217 462.325 157.2Z" fill="#FFA8A2"/>
<path d="M447.868 148.917C446.521 149.112 445.267 149.895 444.423 151.215C443.569 152.545 443.347 154.299 443.608 155.92C443.87 157.54 444.622 158.851 445.829 159.862C445.829 159.862 445.829 159.862 445.831 159.869C448.652 162.171 451.265 164.339 453.976 166.799C453.984 166.804 453.984 166.804 453.991 166.808C454.415 167.167 455.013 167.517 455.639 167.426C456.265 167.336 456.726 166.832 457.023 166.369C457.027 166.361 457.033 166.359 457.037 166.351C458.782 163.212 460.676 160.471 462.605 157.446C463.434 156.144 463.746 154.678 463.485 153.058C463.222 151.43 462.437 149.829 461.199 148.799C459.976 147.778 458.531 147.387 457.185 147.582C455.776 147.788 454.622 148.982 453.806 150.266L453.047 151.45L451.952 150.532C450.76 149.53 449.278 148.717 447.868 148.917ZM447.996 149.675C449.111 149.513 450.46 150.204 451.569 151.125L452.947 152.275C453.023 152.336 453.111 152.367 453.205 152.354C453.293 152.342 453.375 152.29 453.423 152.206L454.376 150.722C455.133 149.532 456.203 148.495 457.318 148.333C458.496 148.165 459.754 148.499 460.824 149.396C461.882 150.276 462.59 151.704 462.825 153.144C463.06 154.584 462.805 155.796 462.055 156.97C460.135 159.978 458.237 162.728 456.475 165.899C456.247 166.259 455.861 166.615 455.528 166.663C455.196 166.71 454.718 166.479 454.389 166.197C451.67 163.733 449.048 161.554 446.228 159.258L446.226 159.252C445.148 158.349 444.527 157.266 444.292 155.826C444.056 154.379 444.27 152.823 444.996 151.684C445.723 150.523 446.82 149.849 447.996 149.675ZM448.271 151.229C448.183 151.241 448.104 151.306 448.074 151.405C448.025 151.552 448.104 151.62 448.214 151.777C448.805 152.597 448.79 152.252 448.535 151.621C448.462 151.439 448.507 151.301 448.394 151.25C448.351 151.234 448.309 151.225 448.271 151.229ZM447.457 151.731C447.357 151.746 447.346 151.91 447.498 152.208C447.727 152.637 448.188 152.629 447.853 152.084C447.741 151.9 447.624 151.787 447.541 151.749C447.505 151.738 447.477 151.732 447.457 151.731ZM457.808 150.362C457.77 150.366 457.73 150.384 457.7 150.414C457.606 150.497 457.694 150.618 457.684 150.81C457.637 151.48 457.74 151.813 458.04 150.867C458.097 150.683 458.151 150.597 458.056 150.472C457.991 150.385 457.894 150.344 457.808 150.362ZM446.576 152.224C446.488 152.236 446.4 152.317 446.364 152.418C446.31 152.567 446.386 152.74 446.524 152.811C446.667 152.875 447.124 153.035 447.242 152.945C447.337 152.869 446.944 152.48 446.707 152.27C446.689 152.254 446.673 152.245 446.659 152.242C446.636 152.228 446.608 152.222 446.576 152.224ZM458.741 150.608C458.717 150.615 458.693 150.622 458.668 150.65C458.601 150.711 458.529 150.844 458.473 151.056C458.323 151.665 458.766 151.55 458.85 151.072C458.906 150.748 458.841 150.593 458.741 150.608ZM459.744 150.826C459.712 150.829 459.684 150.844 459.664 150.864C459.648 150.875 459.639 150.892 459.631 150.908C459.474 151.177 459.215 151.657 459.334 151.706C459.475 151.763 459.869 151.481 459.977 151.38C460.091 151.278 460.102 151.093 460.005 150.96C459.941 150.874 459.834 150.821 459.744 150.826ZM446.373 153.414C446.287 153.432 446.199 153.513 446.168 153.606C446.117 153.747 446.191 153.913 446.328 153.979C446.464 154.044 447.02 154.001 447.054 153.852C447.091 153.708 446.639 153.658 446.505 153.466C446.492 153.442 446.476 153.433 446.454 153.425C446.431 153.411 446.397 153.407 446.373 153.414ZM460.312 151.905C460.28 151.907 460.256 151.914 460.235 151.934C460.219 151.945 460.205 151.964 460.198 151.986C460.126 152.21 459.718 152.377 459.795 152.508C459.872 152.64 460.413 152.524 460.527 152.422C460.635 152.321 460.654 152.14 460.561 152.021C460.508 151.952 460.4 151.893 460.312 151.905ZM446.771 154.562C446.703 154.575 446.643 154.592 446.605 154.666C446.527 154.801 446.564 154.929 446.712 154.942C446.811 154.948 446.886 154.913 446.953 154.83C447.058 154.695 447.052 154.606 446.982 154.571C446.951 154.552 446.905 154.551 446.847 154.554C446.815 154.556 446.797 154.562 446.771 154.562ZM460.298 153.117C460.272 153.117 460.254 153.122 460.224 153.131C460.168 153.14 460.127 153.159 460.095 153.182C460.038 153.234 460.058 153.326 460.204 153.423C460.294 153.488 460.37 153.501 460.469 153.458C460.609 153.403 460.604 153.272 460.488 153.166C460.426 153.107 460.366 153.104 460.298 153.117ZM457.113 160.45C456.923 160.491 456.935 160.893 456.733 161.23C456.456 161.695 456.16 162.137 456.521 162.276C457.091 162.488 457.452 160.54 457.173 160.453C457.167 160.455 457.165 160.449 457.159 160.45C457.143 160.441 457.125 160.446 457.113 160.45Z" fill="#BE2217"/>
<defs>
<radialGradient id="paint0_radial_2138_1778" cx="0" cy="0" r="1" gradientUnits="userSpaceOnUse" gradientTransform="translate(473.797 495.842) rotate(116.639) scale(209.987 432.208)">
<stop stop-color="#ECF6FE"/>
<stop offset="0.54591" stop-color="#ECF6FE"/>
<stop offset="0.898177" stop-color="white" stop-opacity="0"/>
</radialGradient>
<linearGradient id="paint1_linear_2138_1778" x1="303" y1="359" x2="267.5" y2="442" gradientUnits="userSpaceOnUse">
<stop stop-color="#1893F8"/>
<stop offset="1" stop-color="#1893F8" stop-opacity="0"/>
</linearGradient>
<linearGradient id="paint2_linear_2138_1778" x1="428.5" y1="451.5" x2="286.5" y2="662" gradientUnits="userSpaceOnUse">
<stop stop-color="#F3F1FA"/>
<stop offset="1" stop-color="#E2DEF2" stop-opacity="0"/>
</linearGradient>
<linearGradient id="paint3_linear_2138_1778" x1="382" y1="402.623" x2="399.5" y2="459" gradientUnits="userSpaceOnUse">
<stop stop-color="#1893F8"/>
<stop offset="1" stop-color="#1893F8" stop-opacity="0"/>
</linearGradient>
<radialGradient id="paint4_radial_2138_1778" cx="0" cy="0" r="1" gradientUnits="userSpaceOnUse" gradientTransform="translate(524.973 478.465) rotate(63.3608) scale(209.987 432.208)">
<stop stop-color="#FAFAFA"/>
<stop offset="0.54591" stop-color="#FAFAFA"/>
<stop offset="0.898177" stop-color="white" stop-opacity="0"/>
</radialGradient>
<linearGradient id="paint5_linear_2138_1778" x1="528" y1="431.5" x2="645.5" y2="544.5" gradientUnits="userSpaceOnUse">
<stop stop-color="#77C0F5"/>
<stop offset="1" stop-color="#666666" stop-opacity="0"/>
</linearGradient>
<radialGradient id="paint6_radial_2138_1778" cx="0" cy="0" r="1" gradientUnits="userSpaceOnUse" gradientTransform="translate(477.154 58.5628) rotate(90) scale(149.423 115.66)">
<stop stop-color="#EF4444"/>
<stop offset="1" stop-color="#EF4444" stop-opacity="0"/>
</radialGradient>
</defs>
</svg>
