<svg width="167" height="167" viewBox="0 0 167 167" fill="none" xmlns="http://www.w3.org/2000/svg">
<g opacity="0.12" filter="url(#filter0_f_2490_39533)">
<circle cx="83.5" cy="83.5" r="59.5" fill="#EA7308"/>
</g>
<circle opacity="0.12" cx="83.5" cy="83.5" r="59.5" fill="white"/>
<g clip-path="url(#clip0_2490_39533)">
<path opacity="0.2" d="M76.0001 60C70.0001 62 65.9997 66 63.9999 68C62 70 58.0001 74 55.9999 80C53.9996 86 54.0004 90 54.0001 94C53.9999 98 53.9999 100 57.9999 102C61.9999 104 65.9999 100 69.9999 100C73.9999 100 73.9999 104 73.9999 106C73.9999 108 76.0001 112 77.7956 112.844C79.591 113.689 80.0001 114 86.0001 114C92.0001 114 96.0002 112 100 108C104 104 110 98 112 92C114 86 114 80 114 76C114 72 110 66 106.007 62C102.014 58 96.0001 58 92.0073 58C88.0145 58 82.0001 58 76.0001 60ZM86.0001 90C89.3138 90 92.0001 92.6863 92.0001 96C92.0001 99.3137 89.3138 102 86.0001 102C82.6864 102 80.0001 99.3137 80.0001 96C80.0001 92.6863 82.6864 90 86.0001 90Z" fill="#F7F7F7"/>
<path d="M96.0001 68C96.0001 70.2091 94.2093 72 92.0001 72C89.791 72 88.0001 70.2091 88.0001 68C88.0001 65.7909 89.791 64 92.0001 64C94.2093 64 96.0001 65.7909 96.0001 68Z" fill="#F7F7F7"/>
<path d="M80.0001 76C82.2092 76 84.0001 74.2091 84.0001 72C84.0001 69.7909 82.2092 68 80.0001 68C77.791 68 76.0001 69.7909 76.0001 72C76.0001 74.2091 77.791 76 80.0001 76Z" fill="#F7F7F7"/>
<path d="M68.0001 84C70.2092 84 72.0001 82.2091 72.0001 80C72.0001 77.7909 70.2092 76 68.0001 76C65.791 76 64.0001 77.7909 64.0001 80C64.0001 82.2091 65.791 84 68.0001 84Z" fill="#F7F7F7"/>
<path d="M100 84C102.209 84 104 82.2091 104 80C104 77.7909 102.209 76 100 76C97.791 76 96.0001 77.7909 96.0001 80C96.0001 82.2091 97.791 84 100 84Z" fill="#F7F7F7"/>
<path d="M76.0001 60C70.0001 62 65.9997 66 63.9999 68C62 70 58.0001 74 55.9999 80C53.9996 86 54.0001 91.5 54.0001 94C54.0001 96.5 53.9999 100 57.9999 102C61.9999 104 65.9999 100 69.9999 100C73.9999 100 73.9999 103.5 73.9999 106C73.9999 108.5 75.0001 111.53 77.7956 112.844C80.591 114.159 80.0001 114 86.0001 114C92.0001 114 96.0002 112 100 108C104 104 106.5 101 109.5 95C112.5 89 114 84 114 76C114 68 112 65 107.5 61.5C103 58 95.9929 57 92.0001 57C88.0073 57 82.0001 58 76.0001 60ZM86.0001 90C89.3138 90 92.0001 92.6863 92.0001 96C92.0001 99.3137 89.3138 102 86.0001 102C82.6864 102 80.0001 99.3137 80.0001 96C80.0001 92.6863 82.6864 90 86.0001 90Z" stroke="#F7F7F7" stroke-width="4" stroke-linecap="round" stroke-linejoin="round"/>
</g>
<path opacity="0.2" d="M103.5 26C103.5 26.3283 103.435 26.6534 103.31 26.9567C103.184 27.26 103 27.5356 102.768 27.7678C102.536 27.9999 102.26 28.1841 101.957 28.3097C101.653 28.4353 101.328 28.5 101 28.5C100.672 28.5 100.347 28.4353 100.043 28.3097C99.74 28.1841 99.4644 27.9999 99.2322 27.7678C99.0001 27.5356 98.8159 27.26 98.6903 26.9567C98.5647 26.6534 98.5 26.3283 98.5 26C98.5 25.6717 98.5647 25.3466 98.6903 25.0433C98.8159 24.74 99.0001 24.4644 99.2322 24.2322C99.4644 24.0001 99.74 23.8159 100.043 23.6903C100.347 23.5647 100.672 23.5 101 23.5C101.328 23.5 101.653 23.5647 101.957 23.6903C102.26 23.8159 102.536 24.0001 102.768 24.2322C103 24.4644 103.184 24.74 103.31 25.0433C103.435 25.3466 103.5 25.6717 103.5 26Z" fill="#737584"/>
<path d="M101 23C99.3491 23 98 24.3491 98 26C98 27.6509 99.3491 29 101 29C102.651 29 104 27.6509 104 26C104 24.3491 102.651 23 101 23ZM101 24C102.11 24 103 24.8895 103 26C103 27.1105 102.11 28 101 28C99.8895 28 99 27.1105 99 26C99 24.8895 99.8895 24 101 24Z" fill="#737584"/>
<path opacity="0.2" d="M142 80.5001C140.067 80.5001 138.5 82.0671 138.5 84.0001C138.5 85.9331 140.067 87.5001 142 87.5001C143.933 87.5001 145.5 85.9331 145.5 84.0001C145.5 82.0671 143.933 80.5001 142 80.5001Z" fill="#737584"/>
<path d="M142 80C139.797 80 138 81.7968 138 84C138 86.2032 139.797 88 142 88C144.203 88 146 86.2032 146 84C146 81.7968 144.203 80 142 80ZM142 81C143.663 81 145 82.3372 145 84C145 85.6628 143.663 87 142 87C140.337 87 139 85.6628 139 84C139 82.3372 140.337 81 142 81Z" fill="#737584"/>
<path opacity="0.2" d="M45 126.5C44.3225 126.5 44.0341 128.069 43.555 128.547C43.0759 129.025 41.5 129.324 41.5 130C41.5 130.676 43.0759 130.975 43.555 131.453C44.0341 131.931 44.3225 133.5 45 133.5C45.6775 133.5 45.9894 131.931 46.4685 131.453C46.9476 130.975 48.5 130.676 48.5 130C48.5 129.324 46.9476 129.025 46.4685 128.547C45.9894 128.069 45.6775 126.5 45 126.5Z" fill="#737584"/>
<path d="M45 126.5C44.3225 126.5 44.0341 128.069 43.555 128.547C43.0759 129.025 41.5 129.324 41.5 130C41.5 130.676 43.0759 130.975 43.555 131.453C44.0341 131.931 44.3225 133.5 45 133.5C45.6775 133.5 45.9894 131.931 46.4685 131.453C46.9476 130.975 48.5 130.676 48.5 130C48.5 129.324 46.9476 129.025 46.4685 128.547C45.9894 128.069 45.6775 126.5 45 126.5Z" stroke="#737584" stroke-linejoin="round"/>
<path opacity="0.2" d="M45 126.5C44.3225 126.5 44.0341 128.069 43.555 128.547C43.0759 129.025 41.5 129.324 41.5 130C41.5 130.676 43.0759 130.975 43.555 131.453C44.0341 131.931 44.3225 133.5 45 133.5C45.6775 133.5 45.9894 131.931 46.4685 131.453C46.9476 130.975 48.5 130.676 48.5 130C48.5 129.324 46.9476 129.025 46.4685 128.547C45.9894 128.069 45.6775 126.5 45 126.5Z" fill="#737584"/>
<path d="M45 126.5C44.3225 126.5 44.0341 128.069 43.555 128.547C43.0759 129.025 41.5 129.324 41.5 130C41.5 130.676 43.0759 130.975 43.555 131.453C44.0341 131.931 44.3225 133.5 45 133.5C45.6775 133.5 45.9894 131.931 46.4685 131.453C46.9476 130.975 48.5 130.676 48.5 130C48.5 129.324 46.9476 129.025 46.4685 128.547C45.9894 128.069 45.6775 126.5 45 126.5Z" stroke="#737584" stroke-linejoin="round"/>
<path opacity="0.2" d="M26 49.9531C24.4812 49.9531 23.8083 56.6604 22.7344 57.7344C21.6604 58.8083 14.9531 59.4812 14.9531 61C14.9531 62.5188 21.6604 63.1917 22.7344 64.2656C23.8083 65.3396 24.4812 72.0469 26 72.0469C27.5188 72.0469 28.1917 65.3396 29.2656 64.2656C30.3396 63.1917 37.0469 62.5188 37.0469 61C37.0469 59.4812 30.3396 58.8083 29.2656 57.7344C28.1917 56.6604 27.5188 49.9531 26 49.9531Z" fill="#737584"/>
<path d="M26 48.9531C25.4421 48.9531 24.9989 49.2691 24.7227 49.5781C24.4464 49.8871 24.2607 50.2296 24.0898 50.6055C23.7481 51.3572 23.4847 52.2589 23.2344 53.1797C22.9841 54.1005 22.7528 55.0341 22.5273 55.7734C22.3019 56.5128 21.9647 57.0899 22.0273 57.0273C22.0899 56.9647 21.5128 57.3019 20.7734 57.5273C20.0341 57.7528 19.1005 57.9841 18.1797 58.2344C17.2589 58.4847 16.3572 58.7481 15.6055 59.0898C15.2296 59.2607 14.8871 59.4464 14.5781 59.7227C14.2691 59.9989 13.9531 60.4421 13.9531 61C13.9531 61.5579 14.2691 62.0011 14.5781 62.2773C14.8871 62.5536 15.2296 62.7393 15.6055 62.9102C16.3572 63.2519 17.2589 63.5153 18.1797 63.7656C19.1005 64.0159 20.0341 64.2472 20.7734 64.4727C21.5128 64.6981 22.0899 65.0353 22.0273 64.9727C21.9647 64.9101 22.3019 65.4872 22.5273 66.2266C22.7528 66.9659 22.9841 67.8995 23.2344 68.8203C23.4847 69.7411 23.7481 70.6428 24.0898 71.3945C24.2607 71.7704 24.4464 72.1129 24.7227 72.4219C24.9989 72.7309 25.4421 73.0469 26 73.0469C26.5579 73.0469 27.0011 72.7309 27.2773 72.4219C27.5536 72.1129 27.7393 71.7704 27.9102 71.3945C28.2519 70.6428 28.5153 69.7411 28.7656 68.8203C29.0159 67.8995 29.2472 66.9659 29.4727 66.2266C29.6981 65.4872 30.0353 64.9101 29.9727 64.9727C29.9101 65.0353 30.4872 64.6981 31.2266 64.4727C31.9659 64.2472 32.8995 64.0159 33.8203 63.7656C34.7411 63.5153 35.6428 63.2519 36.3945 62.9102C36.7704 62.7393 37.1129 62.5536 37.4219 62.2773C37.7309 62.0011 38.0469 61.5579 38.0469 61C38.0469 60.4421 37.7309 59.9989 37.4219 59.7227C37.1129 59.4464 36.7704 59.2607 36.3945 59.0898C35.6428 58.7481 34.7411 58.4847 33.8203 58.2344C32.8995 57.9841 31.9659 57.7528 31.2266 57.5273C30.4872 57.3019 29.9101 56.9647 29.9727 57.0273C30.0353 57.0899 29.6981 56.5128 29.4727 55.7734C29.2472 55.0341 29.0159 54.1005 28.7656 53.1797C28.5153 52.2589 28.2519 51.3572 27.9102 50.6055C27.7393 50.2296 27.5536 49.8871 27.2773 49.5781C27.0011 49.2691 26.5579 48.9531 26 48.9531ZM26 51.2773C26.035 51.3422 26.0534 51.3533 26.0898 51.4336C26.335 51.973 26.5939 52.8128 26.8359 53.7031C27.0779 54.5934 27.3084 55.5351 27.5586 56.3555C27.8088 57.1758 27.959 57.8418 28.5586 58.4414C29.1582 59.041 29.8242 59.1912 30.6445 59.4414C31.4649 59.6916 32.4066 59.922 33.2969 60.1641C34.1872 60.4061 35.027 60.665 35.5664 60.9102C35.6467 60.9466 35.6578 60.965 35.7227 61C35.6578 61.035 35.6467 61.0534 35.5664 61.0898C35.027 61.335 34.1872 61.5939 33.2969 61.8359C32.4066 62.078 31.4649 62.3084 30.6445 62.5586C29.8242 62.8088 29.1582 62.959 28.5586 63.5586C27.959 64.1582 27.8088 64.8242 27.5586 65.6445C27.3084 66.4649 27.0779 67.4066 26.8359 68.2969C26.5939 69.1872 26.335 70.027 26.0898 70.5664C26.0534 70.6467 26.035 70.6578 26 70.7227C25.965 70.6578 25.9466 70.6467 25.9102 70.5664C25.665 70.027 25.4061 69.1872 25.1641 68.2969C24.922 67.4066 24.6916 66.4649 24.4414 65.6445C24.1912 64.8242 24.041 64.1582 23.4414 63.5586C22.8418 62.959 22.1758 62.8088 21.3555 62.5586C20.5351 62.3084 19.5934 62.078 18.7031 61.8359C17.8128 61.5939 16.973 61.335 16.4336 61.0898C16.3533 61.0534 16.3422 61.035 16.2773 61C16.3422 60.965 16.3533 60.9466 16.4336 60.9102C16.973 60.665 17.8128 60.4061 18.7031 60.1641C19.5934 59.922 20.5351 59.6916 21.3555 59.4414C22.1758 59.1912 22.8418 59.041 23.4414 58.4414C24.041 57.8418 24.1912 57.1758 24.4414 56.3555C24.6916 55.5351 24.922 54.5934 25.1641 53.7031C25.4061 52.8128 25.665 51.973 25.9102 51.4336C25.9466 51.3533 25.965 51.3422 26 51.2773Z" fill="#737584"/>
<defs>
<filter id="filter0_f_2490_39533" x="0" y="0" width="167" height="167" filterUnits="userSpaceOnUse" color-interpolation-filters="sRGB">
<feFlood flood-opacity="0" result="BackgroundImageFix"/>
<feBlend mode="normal" in="SourceGraphic" in2="BackgroundImageFix" result="shape"/>
<feGaussianBlur stdDeviation="12" result="effect1_foregroundBlur_2490_39533"/>
</filter>
<clipPath id="clip0_2490_39533">
<rect width="64" height="64" fill="white" transform="translate(52 52)"/>
</clipPath>
</defs>
</svg>
