<svg width="84" height="84" viewBox="0 0 84 84" fill="none" xmlns="http://www.w3.org/2000/svg">
<g opacity="0.12" filter="url(#filter0_f_2490_39407)">
<circle cx="41.75" cy="41.75" r="29.75" fill="#37ADF9"/>
</g>
<circle opacity="0.12" cx="41.75" cy="41.75" r="29.75" fill="white"/>
<path opacity="0.2" d="M69.75 21C69.75 21.1642 69.7177 21.3267 69.6548 21.4784C69.592 21.63 69.5 21.7678 69.3839 21.8839C69.2678 22 69.13 22.092 68.9784 22.1548C68.8267 22.2177 68.6642 22.25 68.5 22.25C68.3358 22.25 68.1733 22.2177 68.0216 22.1548C67.87 22.092 67.7322 22 67.6161 21.8839C67.5 21.7678 67.408 21.63 67.3452 21.4784C67.2823 21.3267 67.25 21.1642 67.25 21C67.25 20.8358 67.2823 20.6733 67.3452 20.5216C67.408 20.37 67.5 20.2322 67.6161 20.1161C67.7322 20 67.87 19.908 68.0216 19.8452C68.1733 19.7823 68.3358 19.75 68.5 19.75C68.6642 19.75 68.8267 19.7823 68.9784 19.8452C69.13 19.908 69.2678 20 69.3839 20.1161C69.5 20.2322 69.592 20.37 69.6548 20.5216C69.7177 20.6733 69.75 20.8358 69.75 21Z" fill="#737584"/>
<path d="M68.5 19.5C67.6745 19.5 67 20.1745 67 21C67 21.8255 67.6745 22.5 68.5 22.5C69.3255 22.5 70 21.8255 70 21C70 20.1745 69.3255 19.5 68.5 19.5ZM68.5 20C69.0552 20 69.5 20.4448 69.5 21C69.5 21.5552 69.0552 22 68.5 22C67.9448 22 67.5 21.5552 67.5 21C67.5 20.4448 67.9448 20 68.5 20Z" fill="#737584"/>
<path opacity="0.2" d="M62 16.25C61.0335 16.25 60.25 17.0335 60.25 18C60.25 18.9665 61.0335 19.75 62 19.75C62.9665 19.75 63.75 18.9665 63.75 18C63.75 17.0335 62.9665 16.25 62 16.25Z" fill="#737584"/>
<path d="M62 16C60.8984 16 60 16.8984 60 18C60 19.1016 60.8984 20 62 20C63.1016 20 64 19.1016 64 18C64 16.8984 63.1016 16 62 16ZM62 16.5C62.8314 16.5 63.5 17.1686 63.5 18C63.5 18.8314 62.8314 19.5 62 19.5C61.1686 19.5 60.5 18.8314 60.5 18C60.5 17.1686 61.1686 16.5 62 16.5Z" fill="#737584"/>
<path opacity="0.2" d="M22.5 63.25C22.1612 63.25 22.017 64.0343 21.7775 64.2733C21.538 64.5123 20.75 64.662 20.75 65C20.75 65.338 21.538 65.4877 21.7775 65.7267C22.017 65.9657 22.1612 66.75 22.5 66.75C22.8388 66.75 22.9947 65.9657 23.2342 65.7267C23.4738 65.4877 24.25 65.338 24.25 65C24.25 64.662 23.4738 64.5123 23.2342 64.2733C22.9947 64.0343 22.8388 63.25 22.5 63.25Z" fill="#737584"/>
<path d="M22.5 63.25C22.1612 63.25 22.017 64.0343 21.7775 64.2733C21.538 64.5123 20.75 64.662 20.75 65C20.75 65.338 21.538 65.4877 21.7775 65.7267C22.017 65.9657 22.1612 66.75 22.5 66.75C22.8388 66.75 22.9947 65.9657 23.2342 65.7267C23.4738 65.4877 24.25 65.338 24.25 65C24.25 64.662 23.4738 64.5123 23.2342 64.2733C22.9947 64.0343 22.8388 63.25 22.5 63.25Z" stroke="#737584" stroke-width="0.5" stroke-linejoin="round"/>
<path opacity="0.2" d="M20 16.4766C19.2406 16.4766 18.9042 19.8302 18.3672 20.3672C17.8302 20.9042 14.4766 21.2406 14.4766 22C14.4766 22.7594 17.8302 23.0958 18.3672 23.6328C18.9042 24.1698 19.2406 27.5234 20 27.5234C20.7594 27.5234 21.0958 24.1698 21.6328 23.6328C22.1698 23.0958 25.5234 22.7594 25.5234 22C25.5234 21.2406 22.1698 20.9042 21.6328 20.3672C21.0958 19.8302 20.7594 16.4766 20 16.4766Z" fill="#737584"/>
<path d="M20 15.9766C19.7211 15.9766 19.4995 16.1346 19.3613 16.2891C19.2232 16.4436 19.1303 16.6148 19.0449 16.8027C18.8741 17.1786 18.7423 17.6295 18.6172 18.0898C18.492 18.5502 18.3764 19.0171 18.2637 19.3867C18.1509 19.7564 17.9824 20.045 18.0137 20.0137C18.045 19.9824 17.7564 20.1509 17.3867 20.2637C17.0171 20.3764 16.5502 20.492 16.0898 20.6172C15.6295 20.7423 15.1786 20.8741 14.8027 21.0449C14.6148 21.1303 14.4436 21.2232 14.2891 21.3613C14.1346 21.4995 13.9766 21.7211 13.9766 22C13.9766 22.2789 14.1346 22.5005 14.2891 22.6387C14.4436 22.7768 14.6148 22.8697 14.8027 22.9551C15.1786 23.1259 15.6295 23.2577 16.0898 23.3828C16.5502 23.508 17.0171 23.6236 17.3867 23.7363C17.7564 23.8491 18.045 24.0176 18.0137 23.9863C17.9824 23.955 18.1509 24.2436 18.2637 24.6133C18.3764 24.9829 18.492 25.4498 18.6172 25.9102C18.7423 26.3705 18.8741 26.8214 19.0449 27.1973C19.1303 27.3852 19.2232 27.5564 19.3613 27.7109C19.4995 27.8654 19.7211 28.0234 20 28.0234C20.2789 28.0234 20.5005 27.8654 20.6387 27.7109C20.7768 27.5564 20.8697 27.3852 20.9551 27.1973C21.1259 26.8214 21.2577 26.3705 21.3828 25.9102C21.508 25.4498 21.6236 24.9829 21.7363 24.6133C21.8491 24.2436 22.0176 23.955 21.9863 23.9863C21.955 24.0176 22.2436 23.8491 22.6133 23.7363C22.9829 23.6236 23.4498 23.508 23.9102 23.3828C24.3705 23.2577 24.8214 23.1259 25.1973 22.9551C25.3852 22.8697 25.5564 22.7768 25.7109 22.6387C25.8654 22.5005 26.0234 22.2789 26.0234 22C26.0234 21.7211 25.8654 21.4995 25.7109 21.3613C25.5564 21.2232 25.3852 21.1303 25.1973 21.0449C24.8214 20.8741 24.3705 20.7423 23.9102 20.6172C23.4498 20.492 22.9829 20.3764 22.6133 20.2637C22.2436 20.1509 21.955 19.9824 21.9863 20.0137C22.0176 20.045 21.8491 19.7564 21.7363 19.3867C21.6236 19.0171 21.508 18.5502 21.3828 18.0898C21.2577 17.6295 21.1259 17.1786 20.9551 16.8027C20.8697 16.6148 20.7768 16.4436 20.6387 16.2891C20.5005 16.1346 20.2789 15.9766 20 15.9766ZM20 17.1387C20.0175 17.1711 20.0267 17.1767 20.0449 17.2168C20.1675 17.4865 20.297 17.9064 20.418 18.3516C20.539 18.7967 20.6542 19.2676 20.7793 19.6777C20.9044 20.0879 20.9795 20.4209 21.2793 20.7207C21.5791 21.0205 21.9121 21.0956 22.3223 21.2207C22.7324 21.3458 23.2033 21.461 23.6484 21.582C24.0936 21.703 24.5135 21.8325 24.7832 21.9551C24.8233 21.9733 24.8289 21.9825 24.8613 22C24.8289 22.0175 24.8233 22.0267 24.7832 22.0449C24.5135 22.1675 24.0936 22.297 23.6484 22.418C23.2033 22.539 22.7324 22.6542 22.3223 22.7793C21.9121 22.9044 21.5791 22.9795 21.2793 23.2793C20.9795 23.5791 20.9044 23.9121 20.7793 24.3223C20.6542 24.7324 20.539 25.2033 20.418 25.6484C20.297 26.0936 20.1675 26.5135 20.0449 26.7832C20.0267 26.8233 20.0175 26.8289 20 26.8613C19.9825 26.8289 19.9733 26.8233 19.9551 26.7832C19.8325 26.5135 19.703 26.0936 19.582 25.6484C19.461 25.2033 19.3458 24.7324 19.2207 24.3223C19.0956 23.9121 19.0205 23.5791 18.7207 23.2793C18.4209 22.9795 18.0879 22.9044 17.6777 22.7793C17.2676 22.6542 16.7967 22.539 16.3516 22.418C15.9064 22.297 15.4865 22.1675 15.2168 22.0449C15.1767 22.0267 15.1711 22.0175 15.1387 22C15.1711 21.9825 15.1767 21.9733 15.2168 21.9551C15.4865 21.8325 15.9064 21.703 16.3516 21.582C16.7967 21.461 17.2676 21.3458 17.6777 21.2207C18.0879 21.0956 18.4209 21.0205 18.7207 20.7207C19.0205 20.4209 19.0956 20.0879 19.2207 19.6777C19.3458 19.2676 19.461 18.7967 19.582 18.3516C19.703 17.9064 19.8325 17.4865 19.9551 17.2168C19.9733 17.1767 19.9825 17.1711 20 17.1387Z" fill="#737584"/>
<g clip-path="url(#clip0_2490_39407)">
<path opacity="0.2" d="M42.1328 29C38.4198 29 34.8588 30.475 32.2333 33.1005C29.6078 35.726 28.1328 39.287 28.1328 43C28.138 45.2514 28.6861 47.4684 29.7306 49.4629C30.7751 51.4574 32.2852 53.1705 34.1328 54.457V52C34.1328 50.338 35.4708 49 37.1328 49H38.1328V45.4336C37.5084 44.8751 37.0079 44.1922 36.6634 43.4286C36.319 42.665 36.1382 41.8377 36.1328 41C36.1328 39.4087 36.765 37.8825 37.8902 36.7573C39.0154 35.6321 40.5415 35 42.1328 35C43.7241 35 45.2502 35.6321 46.3755 36.7573C47.5007 37.8825 48.1328 39.4087 48.1328 41C48.1274 41.8377 47.9467 42.665 47.6022 43.4286C47.2578 44.1922 46.7572 44.8751 46.1328 45.4336V49H47.1328C48.7948 49 50.1328 50.338 50.1328 52V54.457C51.9805 53.1705 53.4906 51.4574 54.5351 49.4629C55.5796 47.4684 56.1276 45.2514 56.1328 43C56.1328 39.287 54.6578 35.726 52.0323 33.1005C49.4068 30.475 45.8458 29 42.1328 29Z" fill="#EEEEF0"/>
<path d="M42.1328 28C33.8604 28 27.1328 34.7276 27.1328 43C27.1328 51.2724 33.8604 58 42.1328 58C50.4052 58 57.1328 51.2724 57.1328 43C57.1328 34.7276 50.4052 28 42.1328 28ZM42.1328 30C49.3243 30 55.1328 35.8085 55.1328 43C55.1328 46.6936 53.5977 50.0185 51.1328 52.3828V52C51.1328 49.8013 49.3315 48 47.1328 48H46.1328C45.8676 48 45.6132 48.1053 45.4257 48.2928C45.2382 48.4804 45.1328 48.7348 45.1328 49C45.1328 49.2652 45.2382 49.5196 45.4257 49.7072C45.6132 49.8947 45.8676 50 46.1328 50H47.1328C48.2581 50 49.1328 50.8747 49.1328 52V53.957C47.113 55.2482 44.7132 56 42.1328 56C39.5524 56 37.1526 55.2482 35.1328 53.957V52C35.1328 50.8747 36.0075 50 37.1328 50H38.1406C38.4058 50 38.6602 49.8947 38.8477 49.7072C39.0353 49.5196 39.1406 49.2652 39.1406 49C39.1406 48.7348 39.0353 48.4804 38.8477 48.2928C38.6602 48.1053 38.4058 48 38.1406 48H37.1328C34.9341 48 33.1328 49.8013 33.1328 52V52.3828C30.6679 50.0185 29.1328 46.6936 29.1328 43C29.1328 35.8085 34.9413 30 42.1328 30ZM42.1328 34C38.2787 34 35.1328 37.1459 35.1328 41C35.1328 44.8541 38.2787 48 42.1328 48C45.987 48 49.1328 44.8541 49.1328 41C49.1328 37.1459 45.987 34 42.1328 34ZM42.1328 36C44.9061 36 47.1328 38.2267 47.1328 41C47.1328 43.7733 44.9061 46 42.1328 46C39.3595 46 37.1328 43.7733 37.1328 41C37.1328 38.2267 39.3595 36 42.1328 36Z" fill="#EEEEF0"/>
</g>
<defs>
<filter id="filter0_f_2490_39407" x="0" y="0" width="83.5" height="83.5" filterUnits="userSpaceOnUse" color-interpolation-filters="sRGB">
<feFlood flood-opacity="0" result="BackgroundImageFix"/>
<feBlend mode="normal" in="SourceGraphic" in2="BackgroundImageFix" result="shape"/>
<feGaussianBlur stdDeviation="6" result="effect1_foregroundBlur_2490_39407"/>
</filter>
<clipPath id="clip0_2490_39407">
<rect width="32" height="32" fill="white" transform="translate(27.1328 28)"/>
</clipPath>
</defs>
</svg>
