<svg width="167" height="167" viewBox="0 0 167 167" fill="none" xmlns="http://www.w3.org/2000/svg">
<g opacity="0.12" filter="url(#filter0_f_2490_40093)">
<circle cx="83.5" cy="83.5" r="59.5" fill="#37ADF9"/>
</g>
<circle opacity="0.12" cx="83.5" cy="83.5" r="59.5" fill="white"/>
<path opacity="0.2" d="M139.5 42C139.5 42.3283 139.435 42.6534 139.31 42.9567C139.184 43.26 139 43.5356 138.768 43.7678C138.536 43.9999 138.26 44.1841 137.957 44.3097C137.653 44.4353 137.328 44.5 137 44.5C136.672 44.5 136.347 44.4353 136.043 44.3097C135.74 44.1841 135.464 43.9999 135.232 43.7678C135 43.5356 134.816 43.26 134.69 42.9567C134.565 42.6534 134.5 42.3283 134.5 42C134.5 41.6717 134.565 41.3466 134.69 41.0433C134.816 40.74 135 40.4644 135.232 40.2322C135.464 40.0001 135.74 39.8159 136.043 39.6903C136.347 39.5647 136.672 39.5 137 39.5C137.328 39.5 137.653 39.5647 137.957 39.6903C138.26 39.8159 138.536 40.0001 138.768 40.2322C139 40.4644 139.184 40.74 139.31 41.0433C139.435 41.3466 139.5 41.6717 139.5 42Z" fill="#737584"/>
<path d="M137 39C135.349 39 134 40.3491 134 42C134 43.6509 135.349 45 137 45C138.651 45 140 43.6509 140 42C140 40.3491 138.651 39 137 39ZM137 40C138.11 40 139 40.8895 139 42C139 43.1105 138.11 44 137 44C135.89 44 135 43.1105 135 42C135 40.8895 135.89 40 137 40Z" fill="#737584"/>
<path opacity="0.2" d="M124 32.5001C122.067 32.5001 120.5 34.0671 120.5 36.0001C120.5 37.9331 122.067 39.5001 124 39.5001C125.933 39.5001 127.5 37.9331 127.5 36.0001C127.5 34.0671 125.933 32.5001 124 32.5001Z" fill="#737584"/>
<path d="M124 32C121.797 32 120 33.7968 120 36C120 38.2032 121.797 40 124 40C126.203 40 128 38.2032 128 36C128 33.7968 126.203 32 124 32ZM124 33C125.663 33 127 34.3372 127 36C127 37.6628 125.663 39 124 39C122.337 39 121 37.6628 121 36C121 34.3372 122.337 33 124 33Z" fill="#737584"/>
<path opacity="0.2" d="M45 126.5C44.3225 126.5 44.0341 128.069 43.555 128.547C43.0759 129.025 41.5 129.324 41.5 130C41.5 130.676 43.0759 130.975 43.555 131.453C44.0341 131.931 44.3225 133.5 45 133.5C45.6775 133.5 45.9894 131.931 46.4685 131.453C46.9476 130.975 48.5 130.676 48.5 130C48.5 129.324 46.9476 129.025 46.4685 128.547C45.9894 128.069 45.6775 126.5 45 126.5Z" fill="#737584"/>
<path d="M45 126.5C44.3225 126.5 44.0341 128.069 43.555 128.547C43.0759 129.025 41.5 129.324 41.5 130C41.5 130.676 43.0759 130.975 43.555 131.453C44.0341 131.931 44.3225 133.5 45 133.5C45.6775 133.5 45.9894 131.931 46.4685 131.453C46.9476 130.975 48.5 130.676 48.5 130C48.5 129.324 46.9476 129.025 46.4685 128.547C45.9894 128.069 45.6775 126.5 45 126.5Z" stroke="#737584" stroke-linejoin="round"/>
<path opacity="0.2" d="M40 32.9531C38.4812 32.9531 37.8083 39.6604 36.7344 40.7344C35.6604 41.8083 28.9531 42.4812 28.9531 44C28.9531 45.5188 35.6604 46.1917 36.7344 47.2656C37.8083 48.3396 38.4812 55.0469 40 55.0469C41.5188 55.0469 42.1917 48.3396 43.2656 47.2656C44.3396 46.1917 51.0469 45.5188 51.0469 44C51.0469 42.4812 44.3396 41.8083 43.2656 40.7344C42.1917 39.6604 41.5188 32.9531 40 32.9531Z" fill="#737584"/>
<path d="M40 31.9531C39.4421 31.9531 38.9989 32.2691 38.7227 32.5781C38.4464 32.8871 38.2607 33.2296 38.0898 33.6055C37.7481 34.3572 37.4847 35.2589 37.2344 36.1797C36.9841 37.1005 36.7528 38.0341 36.5273 38.7734C36.3019 39.5128 35.9647 40.0899 36.0273 40.0273C36.0899 39.9647 35.5128 40.3019 34.7734 40.5273C34.0341 40.7528 33.1005 40.9841 32.1797 41.2344C31.2589 41.4847 30.3572 41.7481 29.6055 42.0898C29.2296 42.2607 28.8871 42.4464 28.5781 42.7227C28.2691 42.9989 27.9531 43.4421 27.9531 44C27.9531 44.5579 28.2691 45.0011 28.5781 45.2773C28.8871 45.5536 29.2296 45.7393 29.6055 45.9102C30.3572 46.2519 31.2589 46.5153 32.1797 46.7656C33.1005 47.0159 34.0341 47.2472 34.7734 47.4727C35.5128 47.6981 36.0899 48.0353 36.0273 47.9727C35.9647 47.9101 36.3019 48.4872 36.5273 49.2266C36.7528 49.9659 36.9841 50.8995 37.2344 51.8203C37.4847 52.7411 37.7481 53.6428 38.0898 54.3945C38.2607 54.7704 38.4464 55.1129 38.7227 55.4219C38.9989 55.7309 39.4421 56.0469 40 56.0469C40.5579 56.0469 41.0011 55.7309 41.2773 55.4219C41.5536 55.1129 41.7393 54.7704 41.9102 54.3945C42.2519 53.6428 42.5153 52.7411 42.7656 51.8203C43.0159 50.8995 43.2472 49.9659 43.4727 49.2266C43.6981 48.4872 44.0353 47.9101 43.9727 47.9727C43.9101 48.0353 44.4872 47.6981 45.2266 47.4727C45.9659 47.2472 46.8995 47.0159 47.8203 46.7656C48.7411 46.5153 49.6428 46.2519 50.3945 45.9102C50.7704 45.7393 51.1129 45.5536 51.4219 45.2773C51.7309 45.0011 52.0469 44.5579 52.0469 44C52.0469 43.4421 51.7309 42.9989 51.4219 42.7227C51.1129 42.4464 50.7704 42.2607 50.3945 42.0898C49.6428 41.7481 48.7411 41.4847 47.8203 41.2344C46.8995 40.9841 45.9659 40.7528 45.2266 40.5273C44.4872 40.3019 43.9101 39.9647 43.9727 40.0273C44.0353 40.0899 43.6981 39.5128 43.4727 38.7734C43.2472 38.0341 43.0159 37.1005 42.7656 36.1797C42.5153 35.2589 42.2519 34.3572 41.9102 33.6055C41.7393 33.2296 41.5536 32.8871 41.2773 32.5781C41.0011 32.2691 40.5579 31.9531 40 31.9531ZM40 34.2773C40.035 34.3422 40.0534 34.3533 40.0898 34.4336C40.335 34.973 40.5939 35.8128 40.8359 36.7031C41.0779 37.5934 41.3084 38.5351 41.5586 39.3555C41.8088 40.1758 41.959 40.8418 42.5586 41.4414C43.1582 42.041 43.8242 42.1912 44.6445 42.4414C45.4649 42.6916 46.4066 42.922 47.2969 43.1641C48.1872 43.4061 49.027 43.665 49.5664 43.9102C49.6467 43.9466 49.6578 43.965 49.7227 44C49.6578 44.035 49.6467 44.0534 49.5664 44.0898C49.027 44.335 48.1872 44.5939 47.2969 44.8359C46.4066 45.078 45.4649 45.3084 44.6445 45.5586C43.8242 45.8088 43.1582 45.959 42.5586 46.5586C41.959 47.1582 41.8088 47.8242 41.5586 48.6445C41.3084 49.4649 41.0779 50.4066 40.8359 51.2969C40.5939 52.1872 40.335 53.027 40.0898 53.5664C40.0534 53.6467 40.035 53.6578 40 53.7227C39.965 53.6578 39.9466 53.6467 39.9102 53.5664C39.665 53.027 39.4061 52.1872 39.1641 51.2969C38.922 50.4066 38.6916 49.4649 38.4414 48.6445C38.1912 47.8242 38.041 47.1582 37.4414 46.5586C36.8418 45.959 36.1758 45.8088 35.3555 45.5586C34.5351 45.3084 33.5934 45.078 32.7031 44.8359C31.8128 44.5939 30.973 44.335 30.4336 44.0898C30.3533 44.0534 30.3422 44.035 30.2773 44C30.3422 43.965 30.3533 43.9466 30.4336 43.9102C30.973 43.665 31.8128 43.4061 32.7031 43.1641C33.5934 42.922 34.5351 42.6916 35.3555 42.4414C36.1758 42.1912 36.8418 42.041 37.4414 41.4414C38.041 40.8418 38.1912 40.1758 38.4414 39.3555C38.6916 38.5351 38.922 37.5934 39.1641 36.7031C39.4061 35.8128 39.665 34.973 39.9102 34.4336C39.9466 34.3533 39.965 34.3422 40 34.2773Z" fill="#737584"/>
<path d="M106 60C106.53 60 107.039 60.2107 107.414 60.5858C107.789 60.9609 108 61.4696 108 62V68C108 70.1814 106.181 72 104 72H80C77.8186 72 76 70.1814 76 68V62C76 61.4696 76.2107 60.9609 76.5858 60.5858C76.9609 60.2107 77.4696 60 78 60C78.5304 60 79.0391 60.2107 79.4142 60.5858C79.7893 60.9609 80 61.4696 80 62V68H104V62C104 61.4696 104.211 60.9609 104.586 60.5858C104.961 60.2107 105.47 60 106 60ZM66 60C67.1046 60 68 60.8954 68 62V74C68 75.1046 67.1046 76 66 76C64.8954 76 64 75.1046 64 74V62C64 60.8954 64.8954 60 66 60ZM104 76C106.181 76 108 77.8186 108 80V88C108 90.1814 106.181 92 104 92H80C77.8186 92 76 90.1814 76 88V80C76 77.8186 77.8186 76 80 76H104ZM104 80H80V88H104V80ZM65.9766 80.0234C69.2536 80.0234 71.9531 82.7229 71.9531 86C71.9531 88.5663 70.2919 90.7705 68 91.6094V106C68 107.105 67.1046 108 66 108C64.8954 108 64 107.105 64 106V91.625C61.6841 90.7992 60 88.5836 60 86C60 82.7229 62.6995 80.0234 65.9766 80.0234ZM65.9766 84.0234C64.8614 84.0234 64 84.8847 64 86C64 87.1153 64.8612 87.9766 65.9766 87.9766C67.0919 87.9766 67.9531 87.1153 67.9531 86C67.9531 84.8847 67.0919 84.0234 65.9766 84.0234ZM104 96C106.181 96 108 97.8186 108 100V106C108 106.53 107.789 107.039 107.414 107.414C107.039 107.789 106.53 108 106 108C105.47 108 104.961 107.789 104.586 107.414C104.211 107.039 104 106.53 104 106V100H80V106C80 106.53 79.7893 107.039 79.4142 107.414C79.0391 107.789 78.5304 108 78 108C77.4696 108 76.9609 107.789 76.5858 107.414C76.2107 107.039 76 106.53 76 106V100C76 97.8186 77.8186 96 80 96H104Z" fill="#F7F7F7"/>
<defs>
<filter id="filter0_f_2490_40093" x="0" y="0" width="167" height="167" filterUnits="userSpaceOnUse" color-interpolation-filters="sRGB">
<feFlood flood-opacity="0" result="BackgroundImageFix"/>
<feBlend mode="normal" in="SourceGraphic" in2="BackgroundImageFix" result="shape"/>
<feGaussianBlur stdDeviation="12" result="effect1_foregroundBlur_2490_40093"/>
</filter>
</defs>
</svg>
