<svg width="84" height="84" viewBox="0 0 84 84" fill="none" xmlns="http://www.w3.org/2000/svg">
<g opacity="0.12" filter="url(#filter0_f_2490_39379)">
<circle cx="42.25" cy="41.75" r="29.75" fill="#E247C4"/>
</g>
<circle opacity="0.12" cx="42.25" cy="41.75" r="29.75" fill="white"/>
<g clip-path="url(#clip0_2490_39379)">
<path opacity="0.2" d="M34.5 29C31.73 29 29.5 31.23 29.5 34V48C29.5 52 31.73 55 34.5 55H50.8672C56.2344 55 55.5 50 55.5 50V37V34C55.5 31.23 53.27 29 50.5 29H34.5Z" fill="#EEEEF0"/>
<path fill-rule="evenodd" clip-rule="evenodd" d="M28.8672 34C28.8672 30.6933 31.5605 28 34.8672 28H50.8672C54.1739 28 56.8672 30.6933 56.8672 34V50C56.8672 53.3067 54.1739 56 50.8672 56H34.8672C31.5605 56 28.8672 53.3067 28.8672 50V34ZM36.8672 30H34.8672C32.6339 30 30.8672 31.7667 30.8672 34V50C30.8672 52.2333 32.6339 54 34.8672 54H36.8672H38.8672H50.8672C53.1005 54 54.8672 52.2333 54.8672 50V34C54.8672 31.7667 53.1005 30 50.8672 30H38.8672H36.8672ZM36.8672 36C36.8672 35.8687 36.8413 35.7386 36.7911 35.6173C36.7408 35.496 36.6672 35.3857 36.5743 35.2928C36.4814 35.2 36.3712 35.1264 36.2499 35.0762C36.1285 35.0259 35.9985 35 35.8672 35C35.7359 35 35.6058 35.0259 35.4845 35.0762C35.3632 35.1264 35.2529 35.2 35.1601 35.2928C35.0672 35.3857 34.9936 35.496 34.9433 35.6173C34.8931 35.7386 34.8672 35.8687 34.8672 36C34.8672 36.1313 34.8931 36.2614 34.9433 36.3827C34.9936 36.504 35.0672 36.6143 35.1601 36.7072C35.2529 36.8 35.3632 36.8736 35.4845 36.9238C35.6058 36.9741 35.7359 37 35.8672 37C35.9985 37 36.1285 36.9741 36.2499 36.9238C36.3712 36.8736 36.4814 36.8 36.5743 36.7072C36.6672 36.6143 36.7408 36.504 36.7911 36.3827C36.8413 36.2614 36.8672 36.1313 36.8672 36ZM36.8672 42C36.8672 41.8687 36.8413 41.7386 36.7911 41.6173C36.7408 41.496 36.6672 41.3857 36.5743 41.2928C36.4814 41.2 36.3712 41.1264 36.2499 41.0762C36.1285 41.0259 35.9985 41 35.8672 41C35.7359 41 35.6058 41.0259 35.4845 41.0762C35.3632 41.1264 35.2529 41.2 35.1601 41.2928C35.0672 41.3857 34.9936 41.496 34.9433 41.6173C34.8931 41.7386 34.8672 41.8687 34.8672 42C34.8672 42.1313 34.8931 42.2614 34.9433 42.3827C34.9936 42.504 35.0672 42.6143 35.1601 42.7072C35.2529 42.8 35.3632 42.8736 35.4845 42.9238C35.6058 42.9741 35.7359 43 35.8672 43C35.9985 43 36.1285 42.9741 36.2499 42.9238C36.3712 42.8736 36.4814 42.8 36.5743 42.7072C36.6672 42.6143 36.7408 42.504 36.7911 42.3827C36.8413 42.2614 36.8672 42.1313 36.8672 42ZM36.8672 48C36.8672 48.1313 36.8413 48.2614 36.7911 48.3827C36.7408 48.504 36.6672 48.6143 36.5743 48.7072C36.4814 48.8 36.3712 48.8736 36.2499 48.9238C36.1285 48.9741 35.9985 49 35.8672 49C35.7359 49 35.6058 48.9741 35.4845 48.9238C35.3632 48.8736 35.2529 48.8 35.1601 48.7072C35.0672 48.6143 34.9936 48.504 34.9433 48.3827C34.8931 48.2614 34.8672 48.1313 34.8672 48C34.8672 47.8687 34.8931 47.7386 34.9433 47.6173C34.9936 47.496 35.0672 47.3857 35.1601 47.2928C35.2529 47.2 35.3632 47.1264 35.4845 47.0762C35.6058 47.0259 35.7359 47 35.8672 47C35.9985 47 36.1285 47.0259 36.2499 47.0762C36.3712 47.1264 36.4814 47.2 36.5743 47.2928C36.6672 47.3857 36.7408 47.496 36.7911 47.6173C36.8413 47.7386 36.8672 47.8687 36.8672 48ZM40.8672 35.8789C40.8672 35.393 41.3132 35 41.8672 35H49.8672C50.4212 35 50.8672 35.393 50.8672 35.8789V36.1211C50.8672 36.6071 50.4212 37 49.8672 37H41.8672C41.3132 37 40.8672 36.6071 40.8672 36.1211V35.8789ZM40.8672 41.918C40.8672 41.4101 41.3132 41 41.8672 41H49.8672C50.4212 41 50.8672 41.4101 50.8672 41.918V42.082C50.8672 42.5899 50.4212 43 49.8672 43H41.8672C41.3132 43 40.8672 42.5899 40.8672 42.082V41.918ZM40.8672 48C40.8672 47.446 41.3132 47 41.8672 47H49.8672C50.4212 47 50.8672 47.446 50.8672 48C50.8672 48.554 50.4212 49 49.8672 49H41.8672C41.3132 49 40.8672 48.554 40.8672 48Z" fill="#EEEEF0"/>
</g>
<path opacity="0.2" d="M61.5 15.25C61.1612 15.25 61.017 16.0343 60.7775 16.2733C60.538 16.5123 59.75 16.662 59.75 17C59.75 17.338 60.538 17.4877 60.7775 17.7267C61.017 17.9657 61.1612 18.75 61.5 18.75C61.8388 18.75 61.9947 17.9657 62.2342 17.7267C62.4738 17.4877 63.25 17.338 63.25 17C63.25 16.662 62.4738 16.5123 62.2342 16.2733C61.9947 16.0343 61.8388 15.25 61.5 15.25Z" fill="#737584"/>
<path d="M61.5 15.25C61.1612 15.25 61.017 16.0343 60.7775 16.2733C60.538 16.5123 59.75 16.662 59.75 17C59.75 17.338 60.538 17.4877 60.7775 17.7267C61.017 17.9657 61.1612 18.75 61.5 18.75C61.8388 18.75 61.9947 17.9657 62.2342 17.7267C62.4738 17.4877 63.25 17.338 63.25 17C63.25 16.662 62.4738 16.5123 62.2342 16.2733C61.9947 16.0343 61.8388 15.25 61.5 15.25Z" stroke="#737584" stroke-width="0.5" stroke-linejoin="round"/>
<path opacity="0.2" d="M23 63.25C22.6612 63.25 22.517 64.0343 22.2775 64.2733C22.038 64.5123 21.25 64.662 21.25 65C21.25 65.338 22.038 65.4877 22.2775 65.7267C22.517 65.9657 22.6612 66.75 23 66.75C23.3388 66.75 23.4947 65.9657 23.7342 65.7267C23.9738 65.4877 24.75 65.338 24.75 65C24.75 64.662 23.9738 64.5123 23.7342 64.2733C23.4947 64.0343 23.3388 63.25 23 63.25Z" fill="#737584"/>
<path d="M23 63.25C22.6612 63.25 22.517 64.0343 22.2775 64.2733C22.038 64.5123 21.25 64.662 21.25 65C21.25 65.338 22.038 65.4877 22.2775 65.7267C22.517 65.9657 22.6612 66.75 23 66.75C23.3388 66.75 23.4947 65.9657 23.7342 65.7267C23.9738 65.4877 24.75 65.338 24.75 65C24.75 64.662 23.9738 64.5123 23.7342 64.2733C23.4947 64.0343 23.3388 63.25 23 63.25Z" stroke="#737584" stroke-width="0.5" stroke-linejoin="round"/>
<path opacity="0.2" d="M62.5 60.4766C61.7406 60.4766 61.4042 63.8302 60.8672 64.3672C60.3302 64.9042 56.9766 65.2406 56.9766 66C56.9766 66.7594 60.3302 67.0958 60.8672 67.6328C61.4042 68.1698 61.7406 71.5234 62.5 71.5234C63.2594 71.5234 63.5958 68.1698 64.1328 67.6328C64.6698 67.0958 68.0234 66.7594 68.0234 66C68.0234 65.2406 64.6698 64.9042 64.1328 64.3672C63.5958 63.8302 63.2594 60.4766 62.5 60.4766Z" fill="#737584"/>
<path d="M62.5 59.9766C62.2211 59.9766 61.9995 60.1346 61.8613 60.2891C61.7232 60.4436 61.6303 60.6148 61.5449 60.8027C61.3741 61.1786 61.2423 61.6295 61.1172 62.0898C60.992 62.5502 60.8764 63.0171 60.7637 63.3867C60.6509 63.7564 60.4824 64.045 60.5137 64.0137C60.545 63.9824 60.2564 64.1509 59.8867 64.2637C59.5171 64.3764 59.0502 64.492 58.5898 64.6172C58.1295 64.7423 57.6786 64.8741 57.3027 65.0449C57.1148 65.1303 56.9436 65.2232 56.7891 65.3613C56.6346 65.4995 56.4766 65.7211 56.4766 66C56.4766 66.2789 56.6346 66.5005 56.7891 66.6387C56.9436 66.7768 57.1148 66.8697 57.3027 66.9551C57.6786 67.1259 58.1295 67.2577 58.5898 67.3828C59.0502 67.508 59.5171 67.6236 59.8867 67.7363C60.2564 67.8491 60.545 68.0176 60.5137 67.9863C60.4824 67.955 60.6509 68.2436 60.7637 68.6133C60.8764 68.9829 60.992 69.4498 61.1172 69.9102C61.2423 70.3705 61.3741 70.8214 61.5449 71.1973C61.6303 71.3852 61.7232 71.5564 61.8613 71.7109C61.9995 71.8654 62.2211 72.0234 62.5 72.0234C62.7789 72.0234 63.0005 71.8654 63.1387 71.7109C63.2768 71.5564 63.3697 71.3852 63.4551 71.1973C63.6259 70.8214 63.7577 70.3705 63.8828 69.9102C64.008 69.4498 64.1236 68.9829 64.2363 68.6133C64.3491 68.2436 64.5176 67.955 64.4863 67.9863C64.455 68.0176 64.7436 67.8491 65.1133 67.7363C65.4829 67.6236 65.9498 67.508 66.4102 67.3828C66.8705 67.2577 67.3214 67.1259 67.6973 66.9551C67.8852 66.8697 68.0564 66.7768 68.2109 66.6387C68.3654 66.5005 68.5234 66.2789 68.5234 66C68.5234 65.7211 68.3654 65.4995 68.2109 65.3613C68.0564 65.2232 67.8852 65.1303 67.6973 65.0449C67.3214 64.8741 66.8705 64.7423 66.4102 64.6172C65.9498 64.492 65.4829 64.3764 65.1133 64.2637C64.7436 64.1509 64.455 63.9824 64.4863 64.0137C64.5176 64.045 64.3491 63.7564 64.2363 63.3867C64.1236 63.0171 64.008 62.5502 63.8828 62.0898C63.7577 61.6295 63.6259 61.1786 63.4551 60.8027C63.3697 60.6148 63.2768 60.4436 63.1387 60.2891C63.0005 60.1346 62.7789 59.9766 62.5 59.9766ZM62.5 61.1387C62.5175 61.1711 62.5267 61.1767 62.5449 61.2168C62.6675 61.4865 62.797 61.9064 62.918 62.3516C63.039 62.7967 63.1542 63.2676 63.2793 63.6777C63.4044 64.0879 63.4795 64.4209 63.7793 64.7207C64.0791 65.0205 64.4121 65.0956 64.8223 65.2207C65.2324 65.3458 65.7033 65.461 66.1484 65.582C66.5936 65.703 67.0135 65.8325 67.2832 65.9551C67.3233 65.9733 67.3289 65.9825 67.3613 66C67.3289 66.0175 67.3233 66.0267 67.2832 66.0449C67.0135 66.1675 66.5936 66.297 66.1484 66.418C65.7033 66.539 65.2324 66.6542 64.8223 66.7793C64.4121 66.9044 64.0791 66.9795 63.7793 67.2793C63.4795 67.5791 63.4044 67.9121 63.2793 68.3223C63.1542 68.7324 63.039 69.2033 62.918 69.6484C62.797 70.0936 62.6675 70.5135 62.5449 70.7832C62.5267 70.8233 62.5175 70.8289 62.5 70.8613C62.4825 70.8289 62.4733 70.8233 62.4551 70.7832C62.3325 70.5135 62.203 70.0936 62.082 69.6484C61.961 69.2033 61.8458 68.7324 61.7207 68.3223C61.5956 67.9121 61.5205 67.5791 61.2207 67.2793C60.9209 66.9795 60.5879 66.9044 60.1777 66.7793C59.7676 66.6542 59.2967 66.539 58.8516 66.418C58.4064 66.297 57.9865 66.1675 57.7168 66.0449C57.6767 66.0267 57.6711 66.0175 57.6387 66C57.6711 65.9825 57.6767 65.9733 57.7168 65.9551C57.9865 65.8325 58.4064 65.703 58.8516 65.582C59.2967 65.461 59.7676 65.3458 60.1777 65.2207C60.5879 65.0956 60.9209 65.0205 61.2207 64.7207C61.5205 64.4209 61.5956 64.0879 61.7207 63.6777C61.8458 63.2676 61.961 62.7967 62.082 62.3516C62.203 61.9064 62.3325 61.4865 62.4551 61.2168C62.4733 61.1767 62.4825 61.1711 62.5 61.1387Z" fill="#737584"/>
<path opacity="0.2" d="M20.5 19.2383C20.1203 19.2383 19.9521 20.9151 19.6836 21.1836C19.4151 21.4521 17.7383 21.6203 17.7383 22C17.7383 22.3797 19.4151 22.5479 19.6836 22.8164C19.9521 23.0849 20.1203 24.7617 20.5 24.7617C20.8797 24.7617 21.0479 23.0849 21.3164 22.8164C21.5849 22.5479 23.2617 22.3797 23.2617 22C23.2617 21.6203 21.5849 21.4521 21.3164 21.1836C21.0479 20.9151 20.8797 19.2383 20.5 19.2383Z" fill="#737584"/>
<path d="M20.5 18.9883C20.3605 18.9883 20.2497 19.0673 20.1807 19.1445C20.1116 19.2218 20.0652 19.3074 20.0225 19.4014C19.937 19.5893 19.8712 19.8147 19.8086 20.0449C19.746 20.2751 19.6882 20.5085 19.6318 20.6934C19.5755 20.8782 19.4912 21.0225 19.5068 21.0068C19.5225 20.9912 19.3782 21.0755 19.1934 21.1318C19.0085 21.1882 18.7751 21.246 18.5449 21.3086C18.3147 21.3712 18.0893 21.437 17.9014 21.5225C17.8074 21.5652 17.7218 21.6116 17.6445 21.6807C17.5673 21.7497 17.4883 21.8605 17.4883 22C17.4883 22.1395 17.5673 22.2503 17.6445 22.3193C17.7218 22.3884 17.8074 22.4348 17.9014 22.4775C18.0893 22.563 18.3147 22.6288 18.5449 22.6914C18.7751 22.754 19.0085 22.8118 19.1934 22.8682C19.3782 22.9245 19.5225 23.0088 19.5068 22.9932C19.4912 22.9775 19.5755 23.1218 19.6318 23.3066C19.6882 23.4915 19.746 23.7249 19.8086 23.9551C19.8712 24.1853 19.937 24.4107 20.0225 24.5986C20.0652 24.6926 20.1116 24.7782 20.1807 24.8555C20.2497 24.9327 20.3605 25.0117 20.5 25.0117C20.6395 25.0117 20.7503 24.9327 20.8193 24.8555C20.8884 24.7782 20.9348 24.6926 20.9775 24.5986C21.063 24.4107 21.1288 24.1853 21.1914 23.9551C21.254 23.7249 21.3118 23.4915 21.3682 23.3066C21.4245 23.1218 21.5088 22.9775 21.4932 22.9932C21.4775 23.0088 21.6218 22.9245 21.8066 22.8682C21.9915 22.8118 22.2249 22.754 22.4551 22.6914C22.6853 22.6288 22.9107 22.563 23.0986 22.4775C23.1926 22.4348 23.2782 22.3884 23.3555 22.3193C23.4327 22.2503 23.5117 22.1395 23.5117 22C23.5117 21.8605 23.4327 21.7497 23.3555 21.6807C23.2782 21.6116 23.1926 21.5652 23.0986 21.5225C22.9107 21.437 22.6853 21.3712 22.4551 21.3086C22.2249 21.246 21.9915 21.1882 21.8066 21.1318C21.6218 21.0755 21.4775 20.9912 21.4932 21.0068C21.5088 21.0225 21.4245 20.8782 21.3682 20.6934C21.3118 20.5085 21.254 20.2751 21.1914 20.0449C21.1288 19.8147 21.063 19.5893 20.9775 19.4014C20.9348 19.3074 20.8884 19.2218 20.8193 19.1445C20.7503 19.0673 20.6395 18.9883 20.5 18.9883ZM20.5 19.5693C20.5087 19.5856 20.5133 19.5883 20.5225 19.6084C20.5838 19.7432 20.6485 19.9532 20.709 20.1758C20.7695 20.3984 20.8271 20.6338 20.8896 20.8389C20.9522 21.044 20.9898 21.2105 21.1396 21.3604C21.2895 21.5102 21.456 21.5478 21.6611 21.6104C21.8662 21.6729 22.1016 21.7305 22.3242 21.791C22.5468 21.8515 22.7567 21.9162 22.8916 21.9775C22.9117 21.9867 22.9144 21.9913 22.9307 22C22.9144 22.0087 22.9117 22.0133 22.8916 22.0225C22.7567 22.0838 22.5468 22.1485 22.3242 22.209C22.1016 22.2695 21.8662 22.3271 21.6611 22.3896C21.456 22.4522 21.2895 22.4898 21.1396 22.6396C20.9898 22.7895 20.9522 22.956 20.8896 23.1611C20.8271 23.3662 20.7695 23.6016 20.709 23.8242C20.6485 24.0468 20.5838 24.2568 20.5225 24.3916C20.5133 24.4117 20.5087 24.4144 20.5 24.4307C20.4913 24.4144 20.4867 24.4117 20.4775 24.3916C20.4162 24.2568 20.3515 24.0468 20.291 23.8242C20.2305 23.6016 20.1729 23.3662 20.1104 23.1611C20.0478 22.956 20.0102 22.7895 19.8604 22.6396C19.7105 22.4898 19.544 22.4522 19.3389 22.3896C19.1338 22.3271 18.8984 22.2695 18.6758 22.209C18.4532 22.1485 18.2432 22.0838 18.1084 22.0225C18.0883 22.0133 18.0856 22.0087 18.0693 22C18.0856 21.9913 18.0883 21.9867 18.1084 21.9775C18.2432 21.9162 18.4532 21.8515 18.6758 21.791C18.8984 21.7305 19.1338 21.6729 19.3389 21.6104C19.544 21.5478 19.7105 21.5102 19.8604 21.3604C20.0102 21.2105 20.0478 21.044 20.1104 20.8389C20.1729 20.6338 20.2305 20.3984 20.291 20.1758C20.3515 19.9532 20.4162 19.7432 20.4775 19.6084C20.4867 19.5883 20.4913 19.5856 20.5 19.5693Z" fill="#737584"/>
<defs>
<filter id="filter0_f_2490_39379" x="0.5" y="0" width="83.5" height="83.5" filterUnits="userSpaceOnUse" color-interpolation-filters="sRGB">
<feFlood flood-opacity="0" result="BackgroundImageFix"/>
<feBlend mode="normal" in="SourceGraphic" in2="BackgroundImageFix" result="shape"/>
<feGaussianBlur stdDeviation="6" result="effect1_foregroundBlur_2490_39379"/>
</filter>
<clipPath id="clip0_2490_39379">
<rect width="32" height="32" fill="white" transform="translate(26.5 26)"/>
</clipPath>
</defs>
</svg>
