<svg width="389" height="389" viewBox="0 0 389 389" fill="none" xmlns="http://www.w3.org/2000/svg">
<g clip-path="url(#clip0_2490_40122)">
<g filter="url(#filter0_f_2490_40122)">
<path d="M152.555 202.502C152.555 202.502 63.2625 319.091 18.6275 377.374C77.2332 334.973 190.899 244.048 190.899 244.048L152.555 202.502Z" fill="url(#paint0_linear_2490_40122)"/>
</g>
<g filter="url(#filter1_dd_2490_40122)">
<path d="M193.944 246.437C195.7 248.338 198.379 249.049 200.846 248.282C226.087 240.491 293.306 200.969 327.849 158.834C357.691 122.424 377.085 77.4777 373.496 30.8422C373.24 27.5746 370.617 24.9739 367.349 24.7405C323.826 21.6173 278.002 36.7661 243.325 63.1181C200.868 95.3717 169.048 140.618 147.764 190.532C146.742 192.922 147.242 195.689 148.987 197.612L193.955 246.426L193.944 246.437Z" fill="#19192C" stroke="#37ADF9" stroke-width="2" stroke-miterlimit="10"/>
<path d="M232.689 234.222C231.333 234.934 230.666 236.479 231.033 237.968C233.945 249.827 232.533 265.076 228.132 276.001C224.842 284.17 220.307 291.639 215.406 298.863C213.494 301.675 216.573 305.187 219.641 303.72C242.491 292.75 261.786 273.6 273.378 249.994C279.246 238.035 283.025 222.33 278.313 209.938C277.524 207.848 274.967 207.07 273.178 208.415C260.074 218.218 248.782 225.687 232.689 234.222Z" fill="#19192C" stroke="#37ADF9" stroke-width="2" stroke-miterlimit="10"/>
<path d="M162.735 158.534C162.002 159.879 160.446 160.524 158.968 160.146C147.142 157.067 131.882 158.279 120.89 162.535C112.677 165.714 105.141 170.149 97.8613 174.95C95.016 176.817 91.5484 173.694 93.0599 170.649C104.33 147.942 123.746 128.903 147.498 117.634C159.523 111.921 175.283 108.353 187.62 113.232C189.699 114.055 190.443 116.622 189.076 118.389C179.096 131.36 171.482 142.552 162.724 158.534H162.735Z" fill="#19192C" stroke="#37ADF9" stroke-width="2" stroke-miterlimit="10"/>
</g>
<path d="M282.792 40.0337C304.865 66.3634 330.506 91.4261 356.958 113.366" stroke="#37ADF9" stroke-width="2" stroke-miterlimit="10"/>
<path d="M244.648 63.1403C272.2 94.7271 301.675 124.625 332.873 152.621" stroke="#37ADF9" stroke-miterlimit="10"/>
<path d="M194.055 110.932C222.219 142.652 252.128 172.816 283.592 201.269" stroke="#37ADF9" stroke-miterlimit="10"/>
<path d="M221.868 171.936L220.948 171.016C219.646 169.714 217.535 169.714 216.233 171.016L133.069 254.18C131.767 255.482 131.767 257.593 133.069 258.895L133.988 259.815C135.291 261.117 137.402 261.117 138.704 259.815L221.868 176.651C223.17 175.349 223.17 173.238 221.868 171.936Z" fill="#19192C" stroke="#37ADF9" stroke-width="2" stroke-miterlimit="10"/>
<path fill-rule="evenodd" clip-rule="evenodd" d="M268.466 117.448C264.822 115.925 262.171 118.02 261.313 119.712C261.313 119.712 261.304 119.72 261.288 119.737C263.837 120.183 266.312 121.53 268.121 123.331C272.505 127.715 273.162 134.178 269.585 137.755C266.009 141.331 259.546 140.683 255.161 136.29C255.127 136.257 255.094 136.215 255.052 136.173C254.85 135.954 254.589 135.676 254.303 135.743C253.966 135.828 253.924 136.434 253.899 136.787C253.671 140.439 255.918 143.174 256.508 143.89C256.55 143.932 256.575 143.974 256.6 143.999C250.28 138.79 247.2 128.355 253.596 121.95C255.102 120.444 256.945 119.72 258.855 119.586C258.855 119.586 258.855 119.586 258.847 119.577C262.314 116.497 264.974 111.322 263.391 108.199C263.282 107.981 262.987 107.938 262.794 108.09C259.891 110.371 258.325 110.598 256.634 110.842C254.101 111.212 251.626 112.104 249.817 113.981C250.246 112.761 250.785 111.582 251.441 110.463C251.534 110.312 251.702 109.739 251.357 109.647C251.088 109.571 250.684 109.714 250.305 109.899C248.605 110.884 246.981 112.138 245.593 113.526C236.798 122.321 236.807 137.048 245.593 145.825C254.513 154.746 268.971 154.746 277.891 145.825C281.291 142.425 283.395 138.218 284.203 133.816C284.279 133.892 284.355 133.968 284.43 134.035C285.129 134.734 285.752 135.474 286.29 136.24C286.4 134.153 285.954 131.931 284.977 129.802C286.391 130.458 287.754 131.359 289 132.495C288.647 129.003 286.837 125.216 283.715 122.093C279.196 117.574 273.027 114.881 268.458 117.423L268.466 117.448ZM274.357 120.865C274.357 120.865 273.591 121.782 272.472 121.201C271.193 120.537 271.58 119.291 271.58 119.291C271.58 119.291 272.261 118.853 273.313 119.384C274.433 119.947 274.357 120.873 274.357 120.873V120.865Z" fill="#37ADF9"/>
<path d="M257.046 130.702C257.097 128.312 257.635 120.764 257.635 120.764L257.896 121.05L259.285 130.635C259.394 131.342 259.983 131.931 260.698 132.032L270.157 133.328L270.469 133.589C270.469 133.589 263.13 134.144 260.53 134.153C257.93 134.153 257.004 133.092 257.046 130.711V130.702Z" fill="#37ADF9"/>
</g>
<defs>
<filter id="filter0_f_2490_40122" x="14.6275" y="198.502" width="180.271" height="182.872" filterUnits="userSpaceOnUse" color-interpolation-filters="sRGB">
<feFlood flood-opacity="0" result="BackgroundImageFix"/>
<feBlend mode="normal" in="SourceGraphic" in2="BackgroundImageFix" result="shape"/>
<feGaussianBlur stdDeviation="2" result="effect1_foregroundBlur_2490_40122"/>
</filter>
<filter id="filter1_dd_2490_40122" x="46.6908" y="-21.6644" width="373.232" height="371.731" filterUnits="userSpaceOnUse" color-interpolation-filters="sRGB">
<feFlood flood-opacity="0" result="BackgroundImageFix"/>
<feColorMatrix in="SourceAlpha" type="matrix" values="0 0 0 0 0 0 0 0 0 0 0 0 0 0 0 0 0 0 127 0" result="hardAlpha"/>
<feOffset/>
<feGaussianBlur stdDeviation="22.5"/>
<feComposite in2="hardAlpha" operator="out"/>
<feColorMatrix type="matrix" values="0 0 0 0 0.388235 0 0 0 0 0.435294 0 0 0 0 0.607843 0 0 0 0.25 0"/>
<feBlend mode="normal" in2="BackgroundImageFix" result="effect1_dropShadow_2490_40122"/>
<feColorMatrix in="SourceAlpha" type="matrix" values="0 0 0 0 0 0 0 0 0 0 0 0 0 0 0 0 0 0 127 0" result="hardAlpha"/>
<feOffset dy="4"/>
<feGaussianBlur stdDeviation="2"/>
<feComposite in2="hardAlpha" operator="out"/>
<feColorMatrix type="matrix" values="0 0 0 0 0 0 0 0 0 0 0 0 0 0 0 0 0 0 0.25 0"/>
<feBlend mode="normal" in2="effect1_dropShadow_2490_40122" result="effect2_dropShadow_2490_40122"/>
<feBlend mode="normal" in="SourceGraphic" in2="effect2_dropShadow_2490_40122" result="shape"/>
</filter>
<linearGradient id="paint0_linear_2490_40122" x1="71.287" y1="326.327" x2="171.938" y2="223.064" gradientUnits="userSpaceOnUse">
<stop offset="0.09" stop-color="#242E50" stop-opacity="0"/>
<stop offset="0.41" stop-color="#8022CE" stop-opacity="0.6"/>
<stop offset="0.83" stop-color="#1373D9" stop-opacity="0.6"/>
</linearGradient>
<clipPath id="clip0_2490_40122">
<rect width="389" height="389" fill="white"/>
</clipPath>
</defs>
</svg>
