<svg width="546" height="397" viewBox="0 0 546 397" fill="none" xmlns="http://www.w3.org/2000/svg">
<g opacity="0.8" filter="url(#filter0_f_2490_40117)">
<path d="M94.1238 10.0081C94.1238 13.3263 91.4339 16.0162 88.1156 16.0162C84.7974 16.0162 82.1074 13.3263 82.1074 10.0081C82.1074 6.68991 84.7974 4 88.1156 4C91.4339 4 94.1238 6.68991 94.1238 10.0081Z" fill="url(#paint0_linear_2490_40117)" fill-opacity="0.6"/>
<path d="M214.992 16.8484C214.251 19.1165 213.551 21.2591 212.787 22.0241C212.022 22.7895 209.878 23.4897 207.609 24.2308C204.321 25.3045 200.77 26.464 200.77 28.0322C200.77 29.6003 204.321 30.7599 207.609 31.8335C209.878 32.5746 212.022 33.2748 212.787 34.0403C213.551 34.8053 214.251 36.9479 214.992 39.2159C216.067 42.5043 217.228 46.0564 218.795 46.0564C220.362 46.0564 221.523 42.5043 222.597 39.2159C223.339 36.9479 224.039 34.8053 224.803 34.0403C225.568 33.2748 227.712 32.5746 229.981 31.8335C233.269 30.7599 236.82 29.6003 236.82 28.0322C236.82 26.464 233.269 25.3045 229.981 24.2308C227.712 23.4897 225.568 22.7895 224.803 22.0241C224.039 21.2591 223.339 19.1165 222.597 16.8484C221.523 13.56 220.362 10.0079 218.795 10.0079C217.228 10.0079 216.067 13.56 214.992 16.8484Z" fill="url(#paint1_linear_2490_40117)" fill-opacity="0.6"/>
<path d="M81.3099 339.784C80.5686 342.052 79.8683 344.195 79.1042 344.96C78.3397 345.725 76.1955 346.425 73.9261 347.166C70.6384 348.24 67.0877 349.4 67.0877 350.968C67.0877 352.536 70.6383 353.695 73.9259 354.769C76.1953 355.51 78.3397 356.21 79.1042 356.976C79.8683 357.741 80.5686 359.883 81.3099 362.151C82.3847 365.44 83.5456 368.992 85.1124 368.992C86.6792 368.992 87.8401 365.44 88.9149 362.151C89.6562 359.883 90.3565 357.741 91.1206 356.976C91.8851 356.21 94.0292 355.51 96.2987 354.769C99.5863 353.695 103.137 352.536 103.137 350.968C103.137 349.4 99.5864 348.24 96.2987 347.166C94.0293 346.425 91.8851 345.725 91.1206 344.96C90.3565 344.195 89.6562 342.052 88.9149 339.784C87.8401 336.496 86.6792 332.943 85.1124 332.943C83.5456 332.943 82.3847 336.495 81.3099 339.784Z" fill="url(#paint2_linear_2490_40117)" fill-opacity="0.6"/>
<path d="M284.482 330.355C285.019 328.711 285.599 326.935 286.383 326.935C287.166 326.935 287.747 328.711 288.284 330.355C288.655 331.489 289.005 332.56 289.387 332.943C289.769 333.325 290.841 333.675 291.976 334.046C293.62 334.583 295.395 335.163 295.395 335.947C295.395 336.731 293.62 337.311 291.976 337.847C290.841 338.218 289.769 338.568 289.387 338.951C289.005 339.333 288.655 340.404 288.284 341.538C287.747 343.182 287.166 344.959 286.383 344.959C285.599 344.959 285.019 343.183 284.482 341.539C284.111 340.405 283.761 339.333 283.379 338.951C282.996 338.568 281.924 338.218 280.79 337.847C279.146 337.311 277.37 336.731 277.37 335.947C277.37 335.163 279.146 334.583 280.79 334.046C281.924 333.675 282.996 333.325 283.379 332.943C283.761 332.56 284.111 331.489 284.482 330.355Z" fill="url(#paint3_linear_2490_40117)" fill-opacity="0.6"/>
<path d="M56.1737 189.165C55.8031 190.299 55.4529 191.37 55.0709 191.753C54.6886 192.135 53.6166 192.485 52.4818 192.856C50.838 193.393 49.0627 193.973 49.0627 194.757C49.0627 195.541 50.8379 196.12 52.4817 196.657C53.6165 197.028 54.6886 197.378 55.0709 197.761C55.4529 198.143 55.8031 199.215 56.1737 200.349C56.7111 201.993 57.2916 203.769 58.075 203.769C58.8584 203.769 59.4389 201.993 59.9763 200.349C60.3469 199.215 60.697 198.143 61.0791 197.761C61.4613 197.378 62.5334 197.028 63.6681 196.657C65.312 196.121 67.0873 195.541 67.0873 194.757C67.0873 193.973 65.312 193.393 63.6681 192.856C62.5334 192.485 61.4614 192.135 61.0791 191.753C60.697 191.37 60.3469 190.299 59.9763 189.165C59.4389 187.521 58.8584 185.745 58.075 185.745C57.2916 185.745 56.7111 187.521 56.1737 189.165Z" fill="url(#paint4_linear_2490_40117)" fill-opacity="0.6"/>
<path d="M248.437 171.14C248.974 169.496 249.555 167.72 250.338 167.72C251.121 167.72 251.702 169.496 252.239 171.14C252.61 172.274 252.96 173.345 253.342 173.728C253.724 174.111 254.797 174.461 255.931 174.831C257.575 175.368 259.35 175.948 259.35 176.732C259.35 177.516 257.575 178.096 255.931 178.633C254.796 179.003 253.724 179.353 253.342 179.736C252.96 180.119 252.61 181.19 252.239 182.324C251.702 183.968 251.121 185.744 250.338 185.744C249.555 185.744 248.974 183.968 248.437 182.324C248.066 181.19 247.716 180.119 247.334 179.736C246.952 179.353 245.88 179.003 244.745 178.633C243.101 178.096 241.326 177.516 241.326 176.732C241.326 175.948 243.101 175.368 244.745 174.831C245.88 174.461 246.952 174.111 247.334 173.728C247.716 173.346 248.066 172.274 248.437 171.14Z" fill="url(#paint5_linear_2490_40117)" fill-opacity="0.6"/>
<path d="M11.1111 44.9704C10.7404 46.1044 10.3903 47.1757 10.0082 47.5582C9.62598 47.9409 8.55392 48.291 7.41921 48.6616C5.77535 49.1984 4 49.7782 4 50.5623C4 51.3463 5.77535 51.9261 7.41921 52.4629C8.55391 52.8335 9.62599 53.1836 10.0082 53.5663C10.3903 53.9488 10.7404 55.0201 11.1111 56.1541C11.6485 57.7983 12.229 59.5744 13.0123 59.5744C13.7957 59.5744 14.3762 57.7983 14.9136 56.1541C15.2842 55.0201 15.6344 53.9488 16.0165 53.5663C16.3987 53.1836 17.4707 52.8335 18.6054 52.463C20.2493 51.9261 22.0247 51.3463 22.0247 50.5623C22.0247 49.7782 20.2493 49.1984 18.6055 48.6616C17.4708 48.291 16.3987 47.9409 16.0165 47.5582C15.6344 47.1757 15.2842 46.1044 14.9136 44.9704C14.3762 43.3262 13.7957 41.5501 13.0123 41.5501C12.229 41.5501 11.6485 43.3262 11.1111 44.9704Z" fill="url(#paint6_linear_2490_40117)" fill-opacity="0.6"/>
<path d="M146.697 185.744C146.697 190.722 150.732 194.756 155.71 194.756C160.687 194.756 164.722 190.722 164.722 185.744C164.722 180.767 160.687 176.732 155.71 176.732C150.732 176.732 146.697 180.767 146.697 185.744Z" fill="url(#paint7_linear_2490_40117)" fill-opacity="0.6"/>
<path d="M82.1085 164.716C85.4267 164.716 88.1167 162.026 88.1167 158.708C88.1167 155.39 85.4267 152.7 82.1085 152.7C78.7902 152.7 76.1002 155.39 76.1002 158.708C76.1002 162.026 78.7902 164.716 82.1085 164.716Z" fill="url(#paint8_linear_2490_40117)" fill-opacity="0.6"/>
<path d="M212.787 375C216.106 375 218.796 372.31 218.796 368.992C218.796 365.674 216.106 362.984 212.787 362.984C209.469 362.984 206.779 365.674 206.779 368.992C206.779 372.31 209.469 375 212.787 375Z" fill="url(#paint9_linear_2490_40117)" fill-opacity="0.6"/>
<path d="M372 185.744C372 192.38 366.62 197.76 359.984 197.76C353.347 197.76 347.967 192.38 347.967 185.744C347.967 179.108 353.347 173.728 359.984 173.728C366.62 173.728 372 179.108 372 185.744Z" fill="url(#paint10_linear_2490_40117)" fill-opacity="0.6"/>
<path d="M224.804 220.292C228.122 220.292 230.812 217.602 230.812 214.283C230.812 210.965 228.122 208.275 224.804 208.275C221.485 208.275 218.795 210.965 218.795 214.283C218.795 217.602 221.485 220.292 224.804 220.292Z" fill="url(#paint11_linear_2490_40117)" fill-opacity="0.6"/>
</g>
<g opacity="0.8" filter="url(#filter1_f_2490_40117)">
<path d="M470.734 104.745C470.734 107.365 472.861 109.49 475.485 109.49C478.109 109.49 480.236 107.365 480.236 104.745C480.236 102.124 478.109 100 475.485 100C472.861 100 470.734 102.124 470.734 104.745Z" fill="url(#paint12_linear_2490_40117)" fill-opacity="0.6"/>
<path d="M375.155 110.147C375.742 111.938 376.295 113.63 376.9 114.235C377.504 114.839 379.2 115.392 380.994 115.977C383.594 116.825 386.402 117.741 386.402 118.98C386.402 120.218 383.594 121.134 380.994 121.982C379.2 122.567 377.504 123.12 376.9 123.725C376.295 124.329 375.742 126.021 375.155 127.812C374.306 130.409 373.387 133.214 372.149 133.214C370.91 133.214 369.992 130.409 369.142 127.812C368.555 126.021 368.002 124.329 367.397 123.725C366.793 123.12 365.097 122.567 363.303 121.982C360.703 121.134 357.895 120.218 357.895 118.98C357.895 117.741 360.703 116.825 363.303 115.977C365.097 115.392 366.793 114.839 367.397 114.235C368.002 113.63 368.555 111.938 369.142 110.147C369.992 107.55 370.91 104.745 372.149 104.745C373.387 104.745 374.306 107.55 375.155 110.147Z" fill="url(#paint13_linear_2490_40117)" fill-opacity="0.6"/>
<path d="M480.866 365.188C481.453 366.979 482.006 368.671 482.611 369.275C483.215 369.88 484.911 370.433 486.705 371.018C489.305 371.866 492.113 372.782 492.113 374.02C492.113 375.259 489.305 376.174 486.705 377.022C484.911 377.608 483.215 378.161 482.611 378.765C482.006 379.369 481.453 381.062 480.866 382.853C480.016 385.45 479.098 388.255 477.859 388.255C476.621 388.255 475.702 385.45 474.853 382.853C474.266 381.061 473.713 379.369 473.108 378.765C472.504 378.161 470.808 377.608 469.014 377.022C466.414 376.174 463.606 375.259 463.606 374.02C463.606 372.782 466.414 371.866 469.014 371.018C470.808 370.433 472.504 369.88 473.108 369.275C473.713 368.671 474.266 366.979 474.853 365.188C475.702 362.591 476.621 359.785 477.859 359.785C479.098 359.785 480.016 362.591 480.866 365.188Z" fill="url(#paint14_linear_2490_40117)" fill-opacity="0.6"/>
<path d="M320.206 357.741C319.781 356.443 319.322 355.04 318.703 355.04C318.083 355.04 317.624 356.443 317.199 357.741C316.906 358.637 316.629 359.483 316.327 359.785C316.025 360.087 315.177 360.364 314.28 360.656C312.98 361.08 311.576 361.538 311.576 362.157C311.576 362.777 312.98 363.234 314.28 363.658C315.177 363.951 316.025 364.228 316.327 364.53C316.629 364.832 316.906 365.678 317.199 366.573C317.624 367.872 318.083 369.275 318.703 369.275C319.322 369.275 319.781 367.872 320.206 366.574C320.499 365.678 320.776 364.832 321.078 364.53C321.381 364.228 322.228 363.951 323.126 363.658C324.425 363.234 325.829 362.777 325.829 362.157C325.829 361.538 324.425 361.08 323.126 360.656C322.228 360.364 321.381 360.087 321.078 359.785C320.776 359.483 320.499 358.637 320.206 357.741Z" fill="url(#paint15_linear_2490_40117)" fill-opacity="0.6"/>
<path d="M500.743 246.235C501.036 247.131 501.313 247.977 501.615 248.279C501.917 248.581 502.765 248.858 503.662 249.15C504.962 249.574 506.366 250.032 506.366 250.651C506.366 251.271 504.962 251.729 503.663 252.153C502.765 252.445 501.917 252.722 501.615 253.024C501.313 253.326 501.036 254.172 500.743 255.068C500.318 256.366 499.859 257.769 499.24 257.769C498.62 257.769 498.161 256.366 497.736 255.068C497.443 254.172 497.166 253.326 496.864 253.024C496.562 252.722 495.714 252.445 494.817 252.153C493.517 251.729 492.113 251.271 492.113 250.651C492.113 250.032 493.517 249.574 494.817 249.15C495.714 248.858 496.562 248.581 496.864 248.279C497.166 247.977 497.443 247.131 497.736 246.235C498.161 244.937 498.62 243.534 499.24 243.534C499.859 243.534 500.318 244.937 500.743 246.235Z" fill="url(#paint16_linear_2490_40117)" fill-opacity="0.6"/>
<path d="M348.709 232C348.284 230.702 347.825 229.299 347.205 229.299C346.586 229.299 346.127 230.702 345.702 232C345.409 232.896 345.132 233.742 344.83 234.044C344.528 234.346 343.68 234.623 342.783 234.915C341.483 235.339 340.079 235.797 340.079 236.416C340.079 237.036 341.483 237.493 342.783 237.917C343.68 238.21 344.528 238.487 344.83 238.789C345.132 239.091 345.409 239.937 345.702 240.833C346.127 242.131 346.586 243.534 347.205 243.534C347.825 243.534 348.284 242.131 348.709 240.833C349.002 239.937 349.279 239.091 349.581 238.789C349.883 238.487 350.731 238.21 351.628 237.917C352.928 237.493 354.332 237.036 354.332 236.416C354.332 235.797 352.928 235.339 351.628 234.915C350.731 234.623 349.883 234.346 349.581 234.044C349.279 233.742 349.002 232.896 348.709 232Z" fill="url(#paint17_linear_2490_40117)" fill-opacity="0.6"/>
<path d="M536.377 132.357C536.67 133.252 536.947 134.098 537.249 134.4C537.551 134.703 538.399 134.979 539.296 135.272C540.596 135.696 542 136.154 542 136.773C542 137.392 540.596 137.85 539.296 138.274C538.399 138.567 537.551 138.843 537.249 139.145C536.947 139.447 536.67 140.294 536.377 141.189C535.952 142.488 535.493 143.89 534.873 143.89C534.254 143.89 533.795 142.488 533.37 141.189C533.077 140.294 532.8 139.447 532.498 139.145C532.196 138.843 531.348 138.567 530.451 138.274C529.151 137.85 527.747 137.392 527.747 136.773C527.747 136.154 529.151 135.696 530.451 135.272C531.348 134.979 532.196 134.703 532.498 134.4C532.8 134.098 533.077 133.252 533.37 132.357C533.795 131.058 534.254 129.655 534.873 129.655C535.493 129.655 535.952 131.058 536.377 132.357Z" fill="url(#paint18_linear_2490_40117)" fill-opacity="0.6"/>
<path d="M429.161 243.534C429.161 247.465 425.97 250.651 422.034 250.651C418.098 250.651 414.907 247.465 414.907 243.534C414.907 239.603 418.098 236.417 422.034 236.417C425.97 236.417 429.161 239.603 429.161 243.534Z" fill="url(#paint19_linear_2490_40117)" fill-opacity="0.6"/>
<path d="M480.235 226.927C477.611 226.927 475.484 224.802 475.484 222.182C475.484 219.561 477.611 217.437 480.235 217.437C482.859 217.437 484.986 219.561 484.986 222.182C484.986 224.802 482.859 226.927 480.235 226.927Z" fill="url(#paint20_linear_2490_40117)" fill-opacity="0.6"/>
<path d="M376.899 393C374.275 393 372.148 390.876 372.148 388.255C372.148 385.635 374.275 383.51 376.899 383.51C379.523 383.51 381.65 385.635 381.65 388.255C381.65 390.876 379.523 393 376.899 393Z" fill="url(#paint21_linear_2490_40117)" fill-opacity="0.6"/>
<path d="M251 243.534C251 248.775 255.254 253.024 260.502 253.024C265.75 253.024 270.004 248.775 270.004 243.534C270.004 238.293 265.75 234.044 260.502 234.044C255.254 234.044 251 238.293 251 243.534Z" fill="url(#paint22_linear_2490_40117)" fill-opacity="0.6"/>
<path d="M367.397 270.818C364.773 270.818 362.646 268.693 362.646 266.073C362.646 263.452 364.773 261.328 367.397 261.328C370.021 261.328 372.148 263.452 372.148 266.073C372.148 268.693 370.021 270.818 367.397 270.818Z" fill="url(#paint23_linear_2490_40117)" fill-opacity="0.6"/>
</g>
<defs>
<filter id="filter0_f_2490_40117" x="0" y="0" width="376" height="379" filterUnits="userSpaceOnUse" color-interpolation-filters="sRGB">
<feFlood flood-opacity="0" result="BackgroundImageFix"/>
<feBlend mode="normal" in="SourceGraphic" in2="BackgroundImageFix" result="shape"/>
<feGaussianBlur stdDeviation="2" result="effect1_foregroundBlur_2490_40117"/>
</filter>
<filter id="filter1_f_2490_40117" x="247" y="96" width="299" height="301" filterUnits="userSpaceOnUse" color-interpolation-filters="sRGB">
<feFlood flood-opacity="0" result="BackgroundImageFix"/>
<feBlend mode="normal" in="SourceGraphic" in2="BackgroundImageFix" result="shape"/>
<feGaussianBlur stdDeviation="2" result="effect1_foregroundBlur_2490_40117"/>
</filter>
<linearGradient id="paint0_linear_2490_40117" x1="4" y1="189.5" x2="372" y2="189.5" gradientUnits="userSpaceOnUse">
<stop stop-color="#37ADF9"/>
<stop offset="1" stop-color="#AE55F7"/>
</linearGradient>
<linearGradient id="paint1_linear_2490_40117" x1="4" y1="189.5" x2="372" y2="189.5" gradientUnits="userSpaceOnUse">
<stop stop-color="#37ADF9"/>
<stop offset="1" stop-color="#AE55F7"/>
</linearGradient>
<linearGradient id="paint2_linear_2490_40117" x1="4" y1="189.5" x2="372" y2="189.5" gradientUnits="userSpaceOnUse">
<stop stop-color="#37ADF9"/>
<stop offset="1" stop-color="#AE55F7"/>
</linearGradient>
<linearGradient id="paint3_linear_2490_40117" x1="4" y1="189.5" x2="372" y2="189.5" gradientUnits="userSpaceOnUse">
<stop stop-color="#37ADF9"/>
<stop offset="1" stop-color="#AE55F7"/>
</linearGradient>
<linearGradient id="paint4_linear_2490_40117" x1="4" y1="189.5" x2="372" y2="189.5" gradientUnits="userSpaceOnUse">
<stop stop-color="#37ADF9"/>
<stop offset="1" stop-color="#AE55F7"/>
</linearGradient>
<linearGradient id="paint5_linear_2490_40117" x1="4" y1="189.5" x2="372" y2="189.5" gradientUnits="userSpaceOnUse">
<stop stop-color="#37ADF9"/>
<stop offset="1" stop-color="#AE55F7"/>
</linearGradient>
<linearGradient id="paint6_linear_2490_40117" x1="4" y1="189.5" x2="372" y2="189.5" gradientUnits="userSpaceOnUse">
<stop stop-color="#37ADF9"/>
<stop offset="1" stop-color="#AE55F7"/>
</linearGradient>
<linearGradient id="paint7_linear_2490_40117" x1="4" y1="189.5" x2="372" y2="189.5" gradientUnits="userSpaceOnUse">
<stop stop-color="#37ADF9"/>
<stop offset="1" stop-color="#AE55F7"/>
</linearGradient>
<linearGradient id="paint8_linear_2490_40117" x1="4" y1="189.5" x2="372" y2="189.5" gradientUnits="userSpaceOnUse">
<stop stop-color="#37ADF9"/>
<stop offset="1" stop-color="#AE55F7"/>
</linearGradient>
<linearGradient id="paint9_linear_2490_40117" x1="4" y1="189.5" x2="372" y2="189.5" gradientUnits="userSpaceOnUse">
<stop stop-color="#37ADF9"/>
<stop offset="1" stop-color="#AE55F7"/>
</linearGradient>
<linearGradient id="paint10_linear_2490_40117" x1="4" y1="189.5" x2="372" y2="189.5" gradientUnits="userSpaceOnUse">
<stop stop-color="#37ADF9"/>
<stop offset="1" stop-color="#AE55F7"/>
</linearGradient>
<linearGradient id="paint11_linear_2490_40117" x1="4" y1="189.5" x2="372" y2="189.5" gradientUnits="userSpaceOnUse">
<stop stop-color="#37ADF9"/>
<stop offset="1" stop-color="#AE55F7"/>
</linearGradient>
<linearGradient id="paint12_linear_2490_40117" x1="542" y1="246.5" x2="251" y2="246.5" gradientUnits="userSpaceOnUse">
<stop stop-color="#37ADF9"/>
<stop offset="1" stop-color="#AE55F7"/>
</linearGradient>
<linearGradient id="paint13_linear_2490_40117" x1="542" y1="246.5" x2="251" y2="246.5" gradientUnits="userSpaceOnUse">
<stop stop-color="#37ADF9"/>
<stop offset="1" stop-color="#AE55F7"/>
</linearGradient>
<linearGradient id="paint14_linear_2490_40117" x1="542" y1="246.5" x2="251" y2="246.5" gradientUnits="userSpaceOnUse">
<stop stop-color="#37ADF9"/>
<stop offset="1" stop-color="#AE55F7"/>
</linearGradient>
<linearGradient id="paint15_linear_2490_40117" x1="542" y1="246.5" x2="251" y2="246.5" gradientUnits="userSpaceOnUse">
<stop stop-color="#37ADF9"/>
<stop offset="1" stop-color="#AE55F7"/>
</linearGradient>
<linearGradient id="paint16_linear_2490_40117" x1="542" y1="246.5" x2="251" y2="246.5" gradientUnits="userSpaceOnUse">
<stop stop-color="#37ADF9"/>
<stop offset="1" stop-color="#AE55F7"/>
</linearGradient>
<linearGradient id="paint17_linear_2490_40117" x1="542" y1="246.5" x2="251" y2="246.5" gradientUnits="userSpaceOnUse">
<stop stop-color="#37ADF9"/>
<stop offset="1" stop-color="#AE55F7"/>
</linearGradient>
<linearGradient id="paint18_linear_2490_40117" x1="542" y1="246.5" x2="251" y2="246.5" gradientUnits="userSpaceOnUse">
<stop stop-color="#37ADF9"/>
<stop offset="1" stop-color="#AE55F7"/>
</linearGradient>
<linearGradient id="paint19_linear_2490_40117" x1="542" y1="246.5" x2="251" y2="246.5" gradientUnits="userSpaceOnUse">
<stop stop-color="#37ADF9"/>
<stop offset="1" stop-color="#AE55F7"/>
</linearGradient>
<linearGradient id="paint20_linear_2490_40117" x1="542" y1="246.5" x2="251" y2="246.5" gradientUnits="userSpaceOnUse">
<stop stop-color="#37ADF9"/>
<stop offset="1" stop-color="#AE55F7"/>
</linearGradient>
<linearGradient id="paint21_linear_2490_40117" x1="542" y1="246.5" x2="251" y2="246.5" gradientUnits="userSpaceOnUse">
<stop stop-color="#37ADF9"/>
<stop offset="1" stop-color="#AE55F7"/>
</linearGradient>
<linearGradient id="paint22_linear_2490_40117" x1="542" y1="246.5" x2="251" y2="246.5" gradientUnits="userSpaceOnUse">
<stop stop-color="#37ADF9"/>
<stop offset="1" stop-color="#AE55F7"/>
</linearGradient>
<linearGradient id="paint23_linear_2490_40117" x1="542" y1="246.5" x2="251" y2="246.5" gradientUnits="userSpaceOnUse">
<stop stop-color="#37ADF9"/>
<stop offset="1" stop-color="#AE55F7"/>
</linearGradient>
</defs>
</svg>
