<svg width="519" height="553" viewBox="0 0 519 553" fill="none" xmlns="http://www.w3.org/2000/svg">
<g filter="url(#filter0_d_2490_39446)">
<rect x="20" y="20.2354" width="495" height="529" rx="24" fill="#121420"/>
<rect x="21" y="21.2354" width="493" height="527" rx="23" stroke="url(#paint0_linear_2490_39446)" stroke-width="2"/>
</g>
<path d="M63.9381 91.1648H68.2383V104.373C68.2383 105.856 67.8841 107.154 67.1757 108.266C66.4739 109.379 65.4907 110.246 64.2261 110.868C62.9616 111.484 61.4884 111.792 59.8068 111.792C58.1185 111.792 56.642 111.484 55.3774 110.868C54.1129 110.246 53.1297 109.379 52.4279 108.266C51.7261 107.154 51.3752 105.856 51.3752 104.373V91.1648H55.6754V104.006C55.6754 104.78 55.8442 105.469 56.1819 106.072C56.5262 106.674 57.0095 107.147 57.6318 107.492C58.2542 107.836 58.9792 108.008 59.8068 108.008C60.641 108.008 61.366 107.836 61.9817 107.492C62.604 107.147 63.0841 106.674 63.4217 106.072C63.766 105.469 63.9381 104.78 63.9381 104.006V91.1648ZM76.3471 102.685V111.504H72.1164V96.2496H76.1484V98.9409H76.3272C76.6649 98.0538 77.2309 97.352 78.0254 96.8355C78.8199 96.3125 79.7833 96.051 80.9154 96.051C81.9747 96.051 82.8983 96.2827 83.6862 96.7462C84.4741 97.2096 85.0865 97.8717 85.5235 98.7324C85.9605 99.5865 86.1789 100.606 86.1789 101.791V111.504H81.9483V102.546C81.9549 101.612 81.7165 100.884 81.2332 100.361C80.7499 99.8314 80.0845 99.5666 79.237 99.5666C78.6677 99.5666 78.1645 99.6891 77.7275 99.9341C77.2971 100.179 76.9595 100.537 76.7145 101.007C76.4762 101.47 76.3537 102.03 76.3471 102.685ZM89.9328 111.504V96.2496H94.1635V111.504H89.9328ZM92.0581 94.2832C91.4291 94.2832 90.8895 94.0747 90.4393 93.6575C89.9957 93.2338 89.7739 92.7273 89.7739 92.1381C89.7739 91.5554 89.9957 91.0556 90.4393 90.6385C90.8895 90.2147 91.4291 90.0029 92.0581 90.0029C92.6871 90.0029 93.2234 90.2147 93.667 90.6385C94.1172 91.0556 94.3423 91.5554 94.3423 92.1381C94.3423 92.7273 94.1172 93.2338 93.667 93.6575C93.2234 94.0747 92.6871 94.2832 92.0581 94.2832ZM106.175 96.2496V99.4276H96.7604V96.2496H106.175ZM98.9155 111.504V95.1472C98.9155 94.0416 99.1307 93.1246 99.561 92.3963C99.998 91.668 100.594 91.1218 101.349 90.7576C102.103 90.3935 102.961 90.2114 103.921 90.2114C104.57 90.2114 105.162 90.2611 105.699 90.3604C106.241 90.4597 106.645 90.5491 106.91 90.6285L106.155 93.8065C105.99 93.7536 105.785 93.7039 105.54 93.6575C105.301 93.6112 105.056 93.588 104.805 93.588C104.182 93.588 103.749 93.7337 103.504 94.025C103.259 94.3097 103.136 94.7103 103.136 95.2267V111.504H98.9155ZM109.179 111.504V96.2496H113.41V111.504H109.179ZM111.305 94.2832C110.676 94.2832 110.136 94.0747 109.686 93.6575C109.242 93.2338 109.02 92.7273 109.02 92.1381C109.02 91.5554 109.242 91.0556 109.686 90.6385C110.136 90.2147 110.676 90.0029 111.305 90.0029C111.934 90.0029 112.47 90.2147 112.913 90.6385C113.364 91.0556 113.589 91.5554 113.589 92.1381C113.589 92.7273 113.364 93.2338 112.913 93.6575C112.47 94.0747 111.934 94.2832 111.305 94.2832ZM124.17 111.802C122.601 111.802 121.251 111.484 120.118 110.848C118.993 110.206 118.126 109.299 117.516 108.127C116.907 106.949 116.603 105.555 116.603 103.946C116.603 102.377 116.907 101 117.516 99.8149C118.126 98.6298 118.983 97.7062 120.089 97.0441C121.201 96.382 122.505 96.051 124.001 96.051C125.008 96.051 125.945 96.2132 126.812 96.5376C127.686 96.8554 128.447 97.3354 129.096 97.9776C129.752 98.6198 130.261 99.4276 130.626 100.401C130.99 101.367 131.172 102.5 131.172 103.797V104.959H118.291V102.337H127.189C127.189 101.728 127.057 101.189 126.792 100.719C126.527 100.249 126.16 99.8811 125.69 99.6163C125.226 99.3448 124.687 99.2091 124.071 99.2091C123.429 99.2091 122.859 99.3581 122.363 99.656C121.873 99.9473 121.489 100.341 121.211 100.838C120.933 101.328 120.79 101.874 120.784 102.476V104.969C120.784 105.724 120.923 106.376 121.201 106.926C121.486 107.475 121.886 107.899 122.403 108.197C122.919 108.495 123.531 108.644 124.24 108.644C124.71 108.644 125.14 108.578 125.531 108.445C125.922 108.313 126.256 108.114 126.534 107.849C126.812 107.584 127.024 107.26 127.17 106.876L131.082 107.134C130.884 108.074 130.477 108.895 129.861 109.597C129.252 110.292 128.464 110.835 127.497 111.226C126.537 111.61 125.428 111.802 124.17 111.802ZM139.973 111.752C138.815 111.752 137.765 111.454 136.825 110.858C135.892 110.256 135.15 109.372 134.6 108.207C134.058 107.035 133.786 105.598 133.786 103.897C133.786 102.149 134.067 100.695 134.63 99.5368C135.193 98.3716 135.941 97.5009 136.875 96.9249C137.815 96.3423 138.844 96.051 139.963 96.051C140.817 96.051 141.529 96.1966 142.099 96.4879C142.675 96.7726 143.138 97.1302 143.489 97.5605C143.846 97.9842 144.118 98.4014 144.303 98.8118H144.432V91.1648H148.653V111.504H144.482V109.061H144.303C144.105 109.485 143.823 109.905 143.459 110.322C143.102 110.733 142.635 111.074 142.059 111.345C141.489 111.616 140.794 111.752 139.973 111.752ZM141.314 108.386C141.996 108.386 142.572 108.2 143.042 107.829C143.519 107.452 143.883 106.926 144.134 106.25C144.393 105.575 144.522 104.784 144.522 103.877C144.522 102.97 144.396 102.182 144.144 101.513C143.893 100.844 143.529 100.328 143.052 99.9639C142.575 99.5997 141.996 99.4176 141.314 99.4176C140.619 99.4176 140.033 99.6063 139.556 99.9837C139.079 100.361 138.719 100.884 138.474 101.553C138.229 102.222 138.106 102.996 138.106 103.877C138.106 104.764 138.229 105.549 138.474 106.23C138.725 106.906 139.086 107.435 139.556 107.819C140.033 108.197 140.619 108.386 141.314 108.386ZM159.523 111.504V91.1648H172.989V94.7103H163.823V99.5567H172.095V103.102H163.823V111.504H159.523ZM181.994 111.802C180.452 111.802 179.118 111.474 177.992 110.819C176.873 110.157 176.009 109.236 175.4 108.058C174.791 106.873 174.486 105.499 174.486 103.936C174.486 102.361 174.791 100.983 175.4 99.805C176.009 98.6198 176.873 97.6995 177.992 97.0441C179.118 96.382 180.452 96.051 181.994 96.051C183.537 96.051 184.868 96.382 185.987 97.0441C187.112 97.6995 187.98 98.6198 188.589 99.805C189.198 100.983 189.502 102.361 189.502 103.936C189.502 105.499 189.198 106.873 188.589 108.058C187.98 109.236 187.112 110.157 185.987 110.819C184.868 111.474 183.537 111.802 181.994 111.802ZM182.014 108.525C182.716 108.525 183.302 108.326 183.772 107.929C184.242 107.525 184.596 106.975 184.835 106.28C185.08 105.585 185.202 104.794 185.202 103.907C185.202 103.019 185.08 102.228 184.835 101.533C184.596 100.838 184.242 100.288 183.772 99.8844C183.302 99.4805 182.716 99.2786 182.014 99.2786C181.306 99.2786 180.71 99.4805 180.227 99.8844C179.75 100.288 179.389 100.838 179.144 101.533C178.906 102.228 178.787 103.019 178.787 103.907C178.787 104.794 178.906 105.585 179.144 106.28C179.389 106.975 179.75 107.525 180.227 107.929C180.71 108.326 181.306 108.525 182.014 108.525ZM196.903 91.1648V111.504H192.673V91.1648H196.903ZM206.333 111.752C205.174 111.752 204.125 111.454 203.185 110.858C202.251 110.256 201.51 109.372 200.96 108.207C200.417 107.035 200.146 105.598 200.146 103.897C200.146 102.149 200.427 100.695 200.99 99.5368C201.553 98.3716 202.301 97.5009 203.234 96.9249C204.175 96.3423 205.204 96.051 206.323 96.051C207.177 96.051 207.889 96.1966 208.458 96.4879C209.034 96.7726 209.498 97.1302 209.849 97.5605C210.206 97.9842 210.478 98.4014 210.663 98.8118H210.792V91.1648H215.013V111.504H210.842V109.061H210.663C210.464 109.485 210.183 109.905 209.819 110.322C209.461 110.733 208.995 111.074 208.419 111.345C207.849 111.616 207.154 111.752 206.333 111.752ZM207.674 108.386C208.356 108.386 208.932 108.2 209.402 107.829C209.878 107.452 210.243 106.926 210.494 106.25C210.752 105.575 210.881 104.784 210.881 103.877C210.881 102.97 210.756 102.182 210.504 101.513C210.252 100.844 209.888 100.328 209.412 99.9639C208.935 99.5997 208.356 99.4176 207.674 99.4176C206.979 99.4176 206.393 99.6063 205.916 99.9837C205.439 100.361 205.078 100.884 204.833 101.553C204.588 102.222 204.466 102.996 204.466 103.877C204.466 104.764 204.588 105.549 204.833 106.23C205.085 106.906 205.446 107.435 205.916 107.819C206.393 108.197 206.979 108.386 207.674 108.386ZM225.863 111.802C224.293 111.802 222.943 111.484 221.811 110.848C220.685 110.206 219.818 109.299 219.209 108.127C218.6 106.949 218.295 105.555 218.295 103.946C218.295 102.377 218.6 101 219.209 99.8149C219.818 98.6298 220.675 97.7062 221.781 97.0441C222.893 96.382 224.197 96.051 225.694 96.051C226.7 96.051 227.637 96.2132 228.504 96.5376C229.378 96.8554 230.14 97.3354 230.788 97.9776C231.444 98.6198 231.954 99.4276 232.318 100.401C232.682 101.367 232.864 102.5 232.864 103.797V104.959H219.983V102.337H228.882C228.882 101.728 228.749 101.189 228.484 100.719C228.22 100.249 227.852 99.8811 227.382 99.6163C226.919 99.3448 226.379 99.2091 225.763 99.2091C225.121 99.2091 224.552 99.3581 224.055 99.656C223.565 99.9473 223.181 100.341 222.903 100.838C222.625 101.328 222.483 101.874 222.476 102.476V104.969C222.476 105.724 222.615 106.376 222.893 106.926C223.178 107.475 223.578 107.899 224.095 108.197C224.611 108.495 225.224 108.644 225.932 108.644C226.402 108.644 226.833 108.578 227.223 108.445C227.614 108.313 227.948 108.114 228.226 107.849C228.504 107.584 228.716 107.26 228.862 106.876L232.775 107.134C232.576 108.074 232.169 108.895 231.553 109.597C230.944 110.292 230.156 110.835 229.19 111.226C228.23 111.61 227.121 111.802 225.863 111.802ZM236.044 111.504V96.2496H240.146V98.9112H240.305C240.583 97.9644 241.05 97.2493 241.705 96.766C242.361 96.2761 243.115 96.0311 243.97 96.0311C244.181 96.0311 244.41 96.0443 244.655 96.0708C244.9 96.0973 245.115 96.1337 245.3 96.1801V99.9341C245.102 99.8745 244.827 99.8215 244.476 99.7752C244.125 99.7288 243.804 99.7056 243.513 99.7056C242.89 99.7056 242.334 99.8414 241.844 100.113C241.361 100.378 240.977 100.748 240.692 101.225C240.414 101.702 240.275 102.251 240.275 102.874V111.504H236.044ZM260.599 100.599L256.726 100.838C256.66 100.507 256.517 100.209 256.299 99.944C256.081 99.6725 255.793 99.4574 255.435 99.2985C255.084 99.1329 254.664 99.0502 254.174 99.0502C253.518 99.0502 252.965 99.1892 252.515 99.4673C252.065 99.7388 251.84 100.103 251.84 100.56C251.84 100.924 251.986 101.232 252.277 101.483C252.568 101.735 253.068 101.937 253.776 102.089L256.537 102.645C258.02 102.95 259.126 103.44 259.854 104.115C260.583 104.79 260.947 105.678 260.947 106.777C260.947 107.776 260.652 108.654 260.063 109.408C259.48 110.163 258.679 110.752 257.66 111.176C256.647 111.593 255.478 111.802 254.154 111.802C252.135 111.802 250.526 111.381 249.327 110.541C248.136 109.693 247.437 108.541 247.232 107.085L251.393 106.866C251.519 107.482 251.823 107.952 252.307 108.276C252.79 108.594 253.409 108.753 254.164 108.753C254.905 108.753 255.501 108.611 255.951 108.326C256.408 108.035 256.64 107.661 256.647 107.204C256.64 106.82 256.478 106.505 256.16 106.26C255.842 106.009 255.352 105.817 254.69 105.684L252.048 105.158C250.559 104.86 249.45 104.344 248.722 103.609C248 102.874 247.639 101.937 247.639 100.798C247.639 99.8182 247.904 98.974 248.433 98.2656C248.97 97.5572 249.721 97.011 250.688 96.627C251.661 96.243 252.8 96.051 254.104 96.051C256.031 96.051 257.547 96.4581 258.653 97.2725C259.765 98.0869 260.414 99.1958 260.599 100.599Z" fill="#E4E4E7"/>
<path d="M474.694 93.8258C474.694 93.3317 474.497 92.857 474.147 92.5076C473.798 92.1583 473.323 91.9614 472.829 91.9614C472.335 91.9614 471.86 92.1583 471.511 92.5076C471.162 92.857 470.965 93.3317 470.965 93.8258C470.965 94.32 471.162 94.7947 471.511 95.144C471.86 95.4934 472.335 95.6903 472.829 95.6903H472.833H472.837C473.329 95.6883 473.803 95.4897 474.151 95.1404C474.499 94.7912 474.694 94.3187 474.694 93.8258ZM474.694 101.284C474.694 100.789 474.497 100.315 474.147 99.9653C473.798 99.6159 473.323 99.4191 472.829 99.4191C472.335 99.4191 471.86 99.6159 471.511 99.9653C471.162 100.315 470.965 100.789 470.965 101.284C470.965 101.778 471.162 102.252 471.511 102.602C471.86 102.951 472.335 103.148 472.829 103.148H472.833H472.837C473.329 103.146 473.803 102.947 474.151 102.598C474.499 102.249 474.694 101.776 474.694 101.284ZM474.694 108.741C474.694 108.247 474.497 107.772 474.147 107.423C473.798 107.074 473.323 106.877 472.829 106.877C472.335 106.877 471.86 107.074 471.511 107.423C471.162 107.772 470.965 108.247 470.965 108.741C470.965 109.235 471.162 109.71 471.511 110.059C471.86 110.408 472.335 110.606 472.829 110.606H472.833H472.837C473.329 110.604 473.803 110.405 474.151 110.056C474.499 109.706 474.694 109.234 474.694 108.741Z" fill="#FAFAFA"/>
<rect x="46.8112" y="135.775" width="453.053" height="50.3392" rx="4.66104" fill="#15427C" fill-opacity="0.3" stroke="#124C9A" stroke-width="1.86442"/>
<rect x="33.7605" y="141.368" width="5.59325" height="39.1527" rx="2.79662" fill="#4CB1F9" stroke="#2493EF" stroke-width="1.86442"/>
<rect x="46.8112" y="292.167" width="453.053" height="50.3392" rx="4.66104" fill="#15427C" fill-opacity="0.3" stroke="#124C9A" stroke-width="1.86442"/>
<rect x="33.7605" y="297.761" width="5.59325" height="39.1527" rx="2.79662" fill="#4CB1F9" stroke="#2493EF" stroke-width="1.86442"/>
<path opacity="0.2" d="M86.8954 148.826C84.3211 148.826 82.2343 150.913 82.2343 153.487V168.403C82.2343 170.977 84.3211 173.064 86.8954 173.064H101.811C104.385 173.064 106.472 170.977 106.472 168.403V153.487C106.472 150.913 104.385 148.826 101.811 148.826H86.8954ZM88.7598 154.419H99.9463C100.463 154.419 100.878 154.835 100.878 155.352V158.148H101.811C102.327 158.148 102.743 158.564 102.743 159.081V162.809C102.743 163.326 102.327 163.742 101.811 163.742H99.0141C99.0141 165.807 97.351 167.47 95.2852 167.47H93.4208C91.355 167.47 89.692 165.807 89.692 163.742H86.8954C86.3789 163.742 85.9631 163.326 85.9631 162.809V159.081C85.9631 158.564 86.3789 158.148 86.8954 158.148H87.8276V155.352C87.8276 154.835 88.2433 154.419 88.7598 154.419Z" fill="#88CCFC"/>
<path d="M86.8959 147.894C83.8179 147.894 81.3027 150.409 81.3027 153.487V163.734V168.402C81.3027 171.48 83.8179 173.995 86.8959 173.995H101.811C104.889 173.995 107.404 171.48 107.404 168.402V163.741V153.487C107.404 150.409 104.889 147.894 101.811 147.894H86.8959ZM86.8959 149.758H101.811C103.882 149.758 105.54 151.416 105.54 153.487V162.809H103.676V159.08C103.676 158.063 102.828 157.216 101.811 157.216V155.351C101.811 154.335 100.964 153.487 99.9468 153.487H88.7603C87.7436 153.487 86.8959 154.335 86.8959 155.351V157.216C85.8792 157.216 85.0315 158.063 85.0315 159.08V162.813C84.3946 162.813 83.7833 162.81 83.1671 162.809V153.487C83.1671 151.416 84.8255 149.758 86.8959 149.758ZM88.7603 155.351H99.9468V157.216H88.7603V155.351ZM86.8959 159.08H101.811V162.809H99.0146C98.4998 162.809 98.0825 163.226 98.0824 163.741C98.0824 164.984 96.7361 166.538 94.3536 166.538C91.9711 166.538 90.6248 164.984 90.6248 163.741C90.6247 163.226 90.2074 162.809 89.6925 162.809C88.9487 162.809 87.9187 162.814 86.8959 162.816V159.08ZM88.7603 164.673C89.3167 166.695 91.6016 168.402 94.3536 168.402C97.1056 168.402 99.3905 166.695 99.9468 164.673H102.743H105.54V168.402C105.54 170.473 103.882 172.131 101.811 172.131H86.8959C84.8255 172.131 83.1671 170.473 83.1671 168.402V164.677C85.1521 164.683 87.1322 164.675 88.7603 164.673Z" fill="#88CCFC"/>
<path d="M81.2692 142.805C81.6296 142.376 82.2549 141.835 83.1681 141.835C84.0772 141.835 84.7038 142.371 85.0664 142.796C85.4331 143.225 85.7153 143.753 85.9303 144.189C86.0361 144.404 86.1383 144.624 86.2319 144.825L86.2483 144.86C86.3492 145.078 86.44 145.272 86.5296 145.451C86.7269 145.845 86.8459 146.011 86.8936 146.059C86.9417 146.107 87.1065 146.225 87.4971 146.419C87.6747 146.507 87.8675 146.597 88.0828 146.696L88.1192 146.713C88.3185 146.805 88.5362 146.905 88.7491 147.009C89.1821 147.221 89.7074 147.5 90.1351 147.865C90.5603 148.228 91.0919 148.853 91.0919 149.759C91.0919 150.664 90.5603 151.289 90.1351 151.652C89.7074 152.017 89.1821 152.296 88.7491 152.508C88.5362 152.612 88.3184 152.713 88.1191 152.804L88.0828 152.821C87.8675 152.921 87.6747 153.01 87.4971 153.098C87.1066 153.292 86.9417 153.41 86.8936 153.458L81.2692 142.805ZM81.2692 142.805C80.9065 143.236 80.6304 143.766 80.4215 144.202M81.2692 142.805L80.4215 144.202M80.4215 144.202C80.3206 144.413 80.223 144.628 80.1336 144.826M80.4215 144.202L80.1336 144.826M80.1336 144.826C80.1264 144.842 80.1193 144.857 80.1122 144.873M80.1336 144.826L80.1122 144.873M80.1122 144.873C80.0141 145.09 79.9257 145.283 79.8385 145.461M80.1122 144.873L79.8385 145.461M79.8385 145.461C79.646 145.854 79.5301 146.015 79.4864 146.059M79.8385 145.461L79.4864 146.059M79.4864 146.059C79.4409 146.104 79.2768 146.222 78.8812 146.416M79.4864 146.059L78.8812 146.416M78.8812 146.416C78.7018 146.505 78.5068 146.594 78.2892 146.693M78.8812 146.416L78.2892 146.693M78.2892 146.693C78.2751 146.7 78.261 146.706 78.2468 146.713M78.2892 146.693L78.2468 146.713M78.2468 146.713C78.0468 146.804 77.8287 146.903 77.6155 147.006M78.2468 146.713L77.6155 147.006M77.6155 147.006C77.1777 147.217 76.6474 147.495 76.2155 147.859M77.6155 147.006L76.2155 147.859M76.2155 147.859C75.7884 148.218 75.2444 148.844 75.2444 149.759M76.2155 147.859L75.2444 149.759M75.2444 149.759C75.2444 150.673 75.7884 151.299 76.2155 151.658M75.2444 149.759L76.2155 151.658M76.2155 151.658C76.6474 152.022 77.1777 152.3 77.6155 152.511M76.2155 151.658L77.6155 152.511M77.6155 152.511C77.8287 152.614 78.0468 152.713 78.2468 152.805M77.6155 152.511L78.2468 152.805M78.2468 152.805C78.261 152.811 78.2751 152.817 78.2892 152.824M78.2468 152.805L78.2892 152.824M78.2892 152.824C78.5068 152.923 78.7018 153.013 78.8812 153.101M78.2892 152.824L78.8812 153.101M78.8812 153.101C79.2767 153.295 79.4409 153.413 79.4864 153.458L78.8812 153.101ZM79.4864 153.458C79.5301 153.502 79.646 153.663 79.8385 154.056C79.9257 154.234 80.0141 154.428 80.1122 154.644C80.1193 154.66 80.1264 154.676 80.1336 154.692C80.223 154.889 80.3206 155.104 80.4215 155.315C80.6304 155.751 80.9065 156.281 81.2692 156.712C81.6296 157.142 82.2549 157.682 83.1681 157.682C84.0772 157.682 84.7038 157.146 85.0664 156.721C85.4331 156.292 85.7153 155.765 85.9303 155.328C86.0361 155.113 86.1383 154.893 86.2319 154.692L86.2483 154.657C86.3492 154.44 86.44 154.245 86.5296 154.066C86.7268 153.672 86.8458 153.506 86.8936 153.458L79.4864 153.458Z" stroke="#222F43" stroke-width="2.79662"/>
<path d="M83.1681 143.233C81.9049 143.233 81.3672 146.158 80.474 147.049C79.5808 147.94 76.6427 148.498 76.6427 149.759C76.6427 151.019 79.5808 151.577 80.474 152.468C81.3672 153.359 81.9049 156.284 83.1681 156.284C84.4313 156.284 85.0128 153.359 85.906 152.468C86.7992 151.577 89.6936 151.019 89.6936 149.759C89.6936 148.498 86.7992 147.94 85.906 147.049C85.0128 146.158 84.4313 143.233 83.1681 143.233Z" fill="#FDE047" stroke="#F59E0B" stroke-width="1.86442"/>
<path opacity="0.2" d="M86.8964 201.03C85.3471 201.03 84.0998 202.278 84.0998 203.827V222.471C84.0998 224.02 85.3471 225.268 86.8964 225.268H101.812C103.361 225.268 104.608 224.02 104.608 222.471V208.488H99.0151C97.9822 208.488 97.1507 207.656 97.1507 206.624V201.03H86.8964Z" fill="#D8B4FE"/>
<path d="M86.8967 200.097C84.8471 200.097 83.1679 201.776 83.1679 203.826V222.47C83.1679 224.519 84.8471 226.199 86.8967 226.199H101.812C103.862 226.199 105.541 224.519 105.541 222.47V208.487H105.534C105.535 208.24 105.44 208.003 105.268 207.827L97.8101 200.37C97.6336 200.199 97.3967 200.105 97.151 200.108V200.097H86.8967ZM86.8967 201.961H96.2188V206.622C96.2188 208.155 97.4822 209.419 99.0154 209.419H103.676V222.47C103.676 223.519 102.861 224.334 101.812 224.334H86.8967C85.8477 224.334 85.0323 223.519 85.0323 222.47V203.826C85.0323 202.777 85.8477 201.961 86.8967 201.961ZM98.0832 203.279L102.358 207.554H99.0154C98.4829 207.554 98.0832 207.155 98.0832 206.622V203.279ZM89.6934 205.69C89.1769 205.69 88.7612 206.106 88.7612 206.622C88.7612 207.139 89.1769 207.554 89.6934 207.554H94.3544V205.69H89.6934ZM89.6934 209.419C89.1769 209.419 88.7612 209.835 88.7612 210.351C88.7612 210.867 89.1769 211.283 89.6934 211.283H94.3544V209.419H89.6934ZM89.6934 213.148C89.1769 213.148 88.7612 213.563 88.7612 214.08C88.7612 214.596 89.1769 215.012 89.6934 215.012H99.0154C99.5319 215.012 99.9477 214.596 99.9477 214.08C99.9477 213.563 99.5319 213.148 99.0154 213.148H89.6934ZM91.5578 218.741C91.0413 218.741 90.6256 219.157 90.6256 219.673C90.6256 220.189 91.0413 220.605 91.5578 220.605H99.0154C99.5319 220.605 99.9477 220.189 99.9477 219.673C99.9477 219.157 99.5319 218.741 99.0154 218.741H91.5578Z" fill="#D8B4FE"/>
<path opacity="0.2" d="M85.032 253.234C84.5155 253.234 84.0998 253.65 84.0998 254.166V276.539C84.0998 277.055 84.5155 277.471 85.032 277.471H92.4896C93.0061 277.471 93.4218 277.055 93.4218 276.539V254.166C93.4218 253.65 93.0061 253.234 92.4896 253.234H85.032ZM99.0151 258.827V270.014H104.608V258.827H99.0151Z" fill="#D4D4D8"/>
<path d="M85.0323 252.301C84.0156 252.301 83.1679 253.149 83.1679 254.166V256.962V260.691V264.42V268.149V271.878V276.539C83.1679 277.555 84.0156 278.403 85.0323 278.403H92.49C93.5067 278.403 94.3544 277.555 94.3544 276.539V254.166C94.3544 253.149 93.5067 252.301 92.49 252.301H85.0323ZM100.88 252.301C99.3467 252.301 98.0832 253.565 98.0832 255.098V258.827V270.013V271.878C98.0832 272.045 98.1285 272.21 98.2143 272.355C98.4186 272.696 99.1553 274.149 99.7838 275.428C100.412 276.707 100.971 277.875 100.971 277.875C101.046 278.03 101.162 278.161 101.306 278.254C101.451 278.347 101.618 278.398 101.79 278.402C101.962 278.405 102.131 278.362 102.28 278.275C102.428 278.189 102.55 278.063 102.631 277.911C102.631 277.911 104.729 274.038 105.472 272.231C105.517 272.119 105.541 271.999 105.541 271.878V270.013V258.827V255.098C105.541 253.565 104.277 252.301 102.744 252.301H100.88ZM85.0323 254.166H92.49V276.539H85.0323V272.81H87.8289C88.3454 272.81 88.7612 272.394 88.7612 271.878C88.7612 271.361 88.3454 270.945 87.8289 270.945H85.0323V269.081H87.8289C88.3454 269.081 88.7612 268.665 88.7612 268.149C88.7612 267.632 88.3454 267.216 87.8289 267.216H85.0323V265.352H87.8289C88.3454 265.352 88.7612 264.936 88.7612 264.42C88.7612 263.903 88.3454 263.488 87.8289 263.488H85.0323V261.623H87.8289C88.3454 261.623 88.7612 261.207 88.7612 260.691C88.7612 260.175 88.3454 259.759 87.8289 259.759H85.0323V257.894H87.8289C88.3454 257.894 88.7612 257.479 88.7612 256.962C88.7612 256.446 88.3454 256.03 87.8289 256.03H85.0323V254.166ZM100.88 254.166H102.744C103.277 254.166 103.676 254.565 103.676 255.098V257.894H99.9477V255.098C99.9477 254.565 100.347 254.166 100.88 254.166ZM99.9477 259.759H103.676V269.081H99.9477V259.759ZM99.9477 270.945H103.676V271.663C103.209 272.761 102.466 274.14 101.823 275.366C101.656 275.022 101.65 275.005 101.455 274.609C100.873 273.423 100.309 272.293 99.9477 271.655V270.945Z" fill="#D4D4D8"/>
<path opacity="0.2" fill-rule="evenodd" clip-rule="evenodd" d="M95.08 327.863C95.2156 328.877 96.12 329.674 97.1496 329.674C98.1794 329.674 98.9143 328.868 99.3465 327.911L105.708 309.931C106.033 308.932 106.472 308.233 106.472 307.301C106.472 306.271 105.637 305.436 104.607 305.436C103.578 305.436 102.805 305.755 101.609 306.237L84.0987 312.563C83.0566 312.842 82.2343 313.74 82.2343 314.769C82.2343 315.799 83.0218 316.651 84.023 316.787L91.5564 320.352L95.08 327.863Z" fill="#86EFAC"/>
<path fill-rule="evenodd" clip-rule="evenodd" d="M104.608 304.504C103.389 304.504 102.458 304.888 101.269 305.367C101.266 305.368 101.264 305.37 101.261 305.371L83.7825 311.685C82.4113 312.084 81.3027 313.271 81.3027 314.769C81.3027 316.307 82.4681 317.388 83.7315 317.679L90.8542 321.051L94.2006 328.177C94.3621 328.778 94.6933 329.33 95.1656 329.776C95.6649 330.247 96.354 330.606 97.1502 330.606C98.6661 330.606 99.6835 329.433 100.198 328.294C100.209 328.27 100.219 328.246 100.227 328.221L106.589 310.243C106.591 310.235 106.594 310.226 106.596 310.218C106.885 309.332 107.404 308.525 107.404 307.301C107.404 305.767 106.141 304.504 104.608 304.504ZM104.608 306.369C105.134 306.369 105.54 306.775 105.54 307.301C105.54 307.941 105.185 308.531 104.823 309.642L98.4939 327.533C98.1445 328.303 97.6922 328.742 97.1502 328.742C96.9167 328.742 96.6742 328.635 96.4474 328.421C96.2206 328.207 96.0441 327.887 95.9886 327.649C95.9731 327.586 95.9511 327.525 95.923 327.467L92.6785 320.548L97.8093 315.418C97.9841 315.243 98.0823 315.006 98.0823 314.759C98.0823 314.511 97.9841 314.274 97.8093 314.099C97.6345 313.925 97.3974 313.826 97.1502 313.826C96.903 313.826 96.6659 313.925 96.4911 314.099L91.3603 319.23L84.4234 315.946C84.3515 315.912 84.2757 315.887 84.1976 315.873C83.7716 315.792 83.1671 315.243 83.1671 314.769C83.1671 314.236 83.6614 313.644 84.3396 313.462C84.3654 313.456 84.3909 313.449 84.4161 313.44L101.928 307.115C101.938 307.11 101.947 307.106 101.957 307.101C103.156 306.617 103.77 306.369 104.608 306.369Z" fill="#86EFAC"/>
<path opacity="0.2" d="M86.8954 357.641C84.3211 357.641 82.2343 359.728 82.2343 362.302V377.217C82.2343 379.791 84.3211 381.878 86.8954 381.878H101.811C104.385 381.878 106.472 379.791 106.472 377.217V362.302C106.472 359.728 104.385 357.641 101.811 357.641H86.8954ZM85.9631 361.37H93.4208H95.2852H102.743V365.099H99.0141C99.0141 367.164 97.351 368.827 95.2852 368.827H93.4208C91.355 368.827 89.692 367.164 89.692 365.099H85.9631V361.37Z" fill="#E4CDAB"/>
<path d="M86.8959 356.709C83.8179 356.709 81.3027 359.224 81.3027 362.302V365.095V377.217C81.3027 380.295 83.8179 382.811 86.8959 382.811H101.811C104.889 382.811 107.404 380.295 107.404 377.217V365.099V362.302C107.404 359.224 104.889 356.709 101.811 356.709H86.8959ZM86.8959 358.573H101.811C103.882 358.573 105.54 360.232 105.54 362.302V364.166H103.676V362.302C103.676 361.285 102.828 360.438 101.811 360.438H86.8959C85.8792 360.438 85.0315 361.285 85.0315 362.302V364.17C84.3946 364.17 83.7833 364.168 83.1671 364.166V362.302C83.1671 360.232 84.8255 358.573 86.8959 358.573ZM86.8959 362.302H101.811V364.166H99.0146C98.7674 364.166 98.5303 364.265 98.3555 364.439C98.1807 364.614 98.0824 364.851 98.0824 365.099C98.0824 366.342 96.7361 367.895 94.3536 367.895C91.9711 367.895 90.6248 366.342 90.6248 365.099C90.6247 364.851 90.5265 364.614 90.3517 364.439C90.1769 364.265 89.9398 364.166 89.6925 364.166C88.9487 364.166 87.9187 364.172 86.8959 364.174V362.302ZM89.2155 366.031C89.7719 368.053 91.6016 369.76 94.3536 369.76C97.1056 369.76 98.9353 368.053 99.4917 366.031H102.743H105.54V377.217C105.54 379.288 103.882 380.946 101.811 380.946H96.218V379.082H94.3536V380.946H86.8959C84.8255 380.946 83.1671 379.288 83.1671 377.217V366.034C85.2612 366.041 87.571 366.032 89.2155 366.031ZM94.3536 379.082V377.217H92.4892V379.082H94.3536ZM94.3536 377.217H96.218V375.353H94.3536V377.217ZM94.3536 375.353V373.488H92.4892V375.353H94.3536ZM94.3536 373.488H96.218V371.624H94.3536V373.488ZM94.3536 371.624V369.76H92.4892V371.624H94.3536Z" fill="#E4CDAB"/>
<path opacity="0.2" fill-rule="evenodd" clip-rule="evenodd" d="M92.4896 409.844C94.354 414.505 92.4896 420.098 90.6252 420.098C88.7608 420.12 88.7608 418.234 87.8286 417.301C85.032 418.234 84.0998 422.165 84.0998 424.759C84.0998 428.02 87.4588 432.421 89.693 434.081C89.693 431.285 89.693 427.556 93.4218 427.556C97.1507 427.556 97.1507 431.285 97.1507 434.081C99.3849 432.421 102.744 427.953 102.744 424.693C101.812 415.437 99.0151 412.64 92.4896 409.844Z" fill="#FCA5A5"/>
<path fill-rule="evenodd" clip-rule="evenodd" d="M91.4309 409.35C91.632 409.029 92.0074 408.861 92.3805 408.926C95.4721 409.464 102.78 412.961 103.673 423.684C103.675 423.71 103.676 423.736 103.676 423.761C103.676 423.856 103.671 423.95 103.66 424.045C103.671 424.259 103.676 424.476 103.676 424.694C103.676 429.418 100.984 433.512 97.101 435.139C96.753 435.285 96.3514 435.206 96.0837 434.941C95.816 434.675 95.735 434.274 95.8785 433.925C96.0938 433.401 96.2188 432.798 96.2188 432.151C96.2188 429.887 94.7834 428.423 93.4222 428.423C92.061 428.423 90.6256 429.887 90.6256 432.151C90.6256 432.798 90.7506 433.401 90.9659 433.925C91.1094 434.274 91.0284 434.675 90.7606 434.941C90.493 435.206 90.0914 435.285 89.7434 435.139C85.8609 433.512 83.1679 429.418 83.1679 424.694C83.1679 420.979 84.8295 417.664 87.4198 415.622C87.6767 415.419 88.0208 415.366 88.3267 415.482C88.6326 415.597 88.8556 415.865 88.9142 416.187C89.093 417.169 89.4089 417.951 89.7678 418.462C90.1359 418.987 90.4484 419.1 90.6256 419.1C90.8545 419.1 91.3128 418.891 91.7693 417.977C92.1979 417.12 92.49 415.871 92.49 414.439C92.49 412.66 92.0405 411.191 91.4638 410.389C91.2428 410.081 91.2297 409.67 91.4309 409.35ZM93.9352 411.355C94.208 412.287 94.3544 413.343 94.3544 414.439C94.3544 416.097 94.0204 417.644 93.4369 418.811C92.8812 419.923 91.9412 420.965 90.6256 420.965C89.5945 420.965 88.7881 420.312 88.2418 419.534C87.9499 419.118 87.7025 418.629 87.5028 418.089C85.9844 419.769 85.0323 422.1 85.0323 424.694C85.0323 427.954 86.5334 430.789 88.7676 432.449C88.7633 432.35 88.7612 432.251 88.7612 432.151C88.7612 429.267 90.6646 426.558 93.4222 426.558C96.1798 426.558 98.0832 429.267 98.0832 432.151C98.0832 432.251 98.0811 432.35 98.0768 432.449C100.311 430.789 101.812 427.954 101.812 424.694C101.812 424.48 101.806 424.268 101.793 424.058C101.788 423.981 101.793 423.905 101.807 423.83C101.809 423.822 101.81 423.81 101.811 423.791C101.15 416.057 96.8659 412.633 93.9352 411.355Z" fill="#FCA5A5"/>
<path opacity="0.2" d="M86.8964 463.912C85.3471 463.912 84.0998 465.159 84.0998 466.708V469.505H85.9642V472.302V476.03V483.488C85.9642 485.037 87.2115 486.285 88.7608 486.285H99.9473C101.497 486.285 102.744 485.037 102.744 483.488V476.03V472.302V469.505H104.608V466.708C104.608 465.159 103.361 463.912 101.812 463.912H86.8964Z" fill="#CDD0E5"/>
<path d="M92.49 461.117C91.4587 461.117 90.6256 461.95 90.6256 462.981H86.8967C84.8326 462.981 83.1679 464.646 83.1679 466.71V468.574C83.1679 469.606 84.001 470.439 85.0323 470.439V483.49C85.0323 485.554 86.697 487.219 88.7612 487.219H99.9477C102.012 487.219 103.676 485.554 103.676 483.49V470.439C104.708 470.439 105.541 469.606 105.541 468.574V466.71C105.541 464.646 103.876 462.981 101.812 462.981H98.0832C98.0832 461.95 97.2501 461.117 96.2188 461.117H92.49ZM86.8967 464.846H101.812C102.847 464.846 103.676 465.676 103.676 466.71V468.574H85.0323V466.71C85.0323 465.676 85.8623 464.846 86.8967 464.846ZM86.8967 470.439H101.812V483.49C101.812 484.524 100.982 485.354 99.9477 485.354H88.7612C87.7267 485.354 86.8967 484.524 86.8967 483.49V470.439ZM91.5578 472.303C91.0429 472.303 90.6256 472.721 90.6256 473.236V482.558C90.6256 483.072 91.0429 483.49 91.5578 483.49C92.0726 483.49 92.49 483.072 92.49 482.558V473.236C92.49 472.721 92.0726 472.303 91.5578 472.303ZM97.151 472.303C96.6362 472.303 96.2188 472.721 96.2188 473.236V482.558C96.2188 483.072 96.6362 483.49 97.151 483.49C97.6659 483.49 98.0832 483.072 98.0832 482.558V473.236C98.0832 472.721 97.6659 472.303 97.151 472.303Z" fill="#CDD0E5"/>
<path d="M127.579 151.402V169.029H123.852V151.402H127.579ZM134.607 161.386V169.029H130.94V155.809H134.435V158.141H134.59C134.882 157.373 135.373 156.764 136.061 156.317C136.75 155.863 137.585 155.637 138.566 155.637C139.484 155.637 140.285 155.838 140.967 156.239C141.65 156.641 142.181 157.215 142.56 157.961C142.938 158.701 143.128 159.585 143.128 160.612V169.029H139.461V161.266C139.467 160.457 139.26 159.826 138.841 159.372C138.423 158.913 137.846 158.684 137.111 158.684C136.618 158.684 136.182 158.79 135.803 159.002C135.43 159.214 135.138 159.524 134.925 159.932C134.719 160.333 134.613 160.818 134.607 161.386ZM146.45 169.029V151.402H150.117V158.03H150.228C150.389 157.674 150.622 157.312 150.926 156.945C151.235 156.572 151.637 156.262 152.131 156.015C152.63 155.763 153.25 155.637 153.99 155.637C154.954 155.637 155.843 155.889 156.658 156.394C157.473 156.893 158.124 157.648 158.612 158.658C159.099 159.662 159.343 160.921 159.343 162.436C159.343 163.911 159.105 165.156 158.629 166.172C158.158 167.182 157.516 167.948 156.701 168.47C155.892 168.986 154.985 169.244 153.981 169.244C153.27 169.244 152.664 169.127 152.165 168.892C151.672 168.656 151.267 168.361 150.951 168.005C150.636 167.644 150.395 167.279 150.228 166.912H150.065V169.029H146.45ZM150.039 162.419C150.039 163.205 150.148 163.891 150.366 164.476C150.584 165.061 150.9 165.518 151.313 165.845C151.726 166.166 152.228 166.327 152.819 166.327C153.416 166.327 153.921 166.163 154.334 165.836C154.747 165.503 155.06 165.044 155.272 164.459C155.49 163.868 155.599 163.188 155.599 162.419C155.599 161.656 155.493 160.985 155.281 160.405C155.068 159.826 154.756 159.372 154.343 159.045C153.929 158.718 153.422 158.555 152.819 158.555C152.222 158.555 151.717 158.712 151.304 159.028C150.897 159.344 150.584 159.791 150.366 160.371C150.148 160.95 150.039 161.633 150.039 162.419ZM168.127 169.288C166.79 169.288 165.634 169.003 164.658 168.435C163.688 167.862 162.94 167.064 162.412 166.043C161.884 165.016 161.62 163.825 161.62 162.471C161.62 161.105 161.884 159.912 162.412 158.89C162.94 157.863 163.688 157.066 164.658 156.497C165.634 155.924 166.79 155.637 168.127 155.637C169.464 155.637 170.617 155.924 171.587 156.497C172.562 157.066 173.314 157.863 173.842 158.89C174.37 159.912 174.634 161.105 174.634 162.471C174.634 163.825 174.37 165.016 173.842 166.043C173.314 167.064 172.562 167.862 171.587 168.435C170.617 169.003 169.464 169.288 168.127 169.288ZM168.144 166.447C168.752 166.447 169.26 166.275 169.667 165.931C170.075 165.581 170.382 165.104 170.588 164.502C170.801 163.9 170.907 163.214 170.907 162.445C170.907 161.676 170.801 160.99 170.588 160.388C170.382 159.785 170.075 159.309 169.667 158.959C169.26 158.609 168.752 158.434 168.144 158.434C167.53 158.434 167.014 158.609 166.595 158.959C166.182 159.309 165.869 159.785 165.656 160.388C165.45 160.99 165.347 161.676 165.347 162.445C165.347 163.214 165.45 163.9 165.656 164.502C165.869 165.104 166.182 165.581 166.595 165.931C167.014 166.275 167.53 166.447 168.144 166.447ZM179.972 155.809L182.399 160.431L184.887 155.809H188.648L184.818 162.419L188.751 169.029H185.007L182.399 164.459L179.834 169.029H176.047L179.972 162.419L176.185 155.809H179.972Z" fill="#BCE0FD"/>
<path d="M129.895 221.233H124.455V203.606H130.136C131.845 203.606 133.309 203.959 134.525 204.665C135.742 205.365 136.674 206.372 137.322 207.686C137.971 208.994 138.295 210.561 138.295 212.385C138.295 214.222 137.968 215.802 137.314 217.128C136.66 218.448 135.707 219.463 134.456 220.175C133.205 220.881 131.685 221.233 129.895 221.233ZM126.589 219.34H129.757C131.214 219.34 132.422 219.059 133.38 218.496C134.339 217.934 135.053 217.134 135.524 216.095C135.994 215.056 136.229 213.82 136.229 212.385C136.229 210.962 135.997 209.737 135.532 208.71C135.067 207.677 134.373 206.885 133.449 206.335C132.525 205.778 131.375 205.5 129.998 205.5H126.589V219.34ZM141.964 221.233V208.013H143.926V210.01H144.064C144.305 209.356 144.741 208.825 145.372 208.418C146.003 208.01 146.715 207.806 147.507 207.806C147.656 207.806 147.842 207.809 148.066 207.815C148.29 207.821 148.459 207.829 148.574 207.841V209.907C148.505 209.889 148.347 209.864 148.1 209.829C147.859 209.789 147.604 209.769 147.334 209.769C146.692 209.769 146.118 209.904 145.613 210.173C145.114 210.437 144.718 210.805 144.425 211.275C144.138 211.74 143.995 212.271 143.995 212.867V221.233H141.964ZM155.236 221.543C154.398 221.543 153.638 221.385 152.955 221.07C152.272 220.749 151.73 220.287 151.328 219.684C150.926 219.076 150.726 218.341 150.726 217.481C150.726 216.723 150.875 216.109 151.173 215.639C151.471 215.163 151.87 214.79 152.369 214.52C152.869 214.25 153.42 214.049 154.022 213.917C154.63 213.78 155.241 213.671 155.855 213.59C156.659 213.487 157.31 213.41 157.809 213.358C158.314 213.301 158.681 213.206 158.911 213.074C159.146 212.942 159.264 212.712 159.264 212.385V212.317C159.264 211.467 159.031 210.807 158.567 210.337C158.107 209.866 157.41 209.631 156.475 209.631C155.505 209.631 154.745 209.843 154.194 210.268C153.643 210.693 153.256 211.146 153.032 211.628L151.104 210.939C151.448 210.136 151.908 209.511 152.481 209.063C153.061 208.61 153.692 208.294 154.375 208.116C155.063 207.933 155.741 207.841 156.406 207.841C156.831 207.841 157.318 207.892 157.869 207.996C158.426 208.093 158.962 208.297 159.479 208.607C160.001 208.917 160.434 209.384 160.779 210.01C161.123 210.635 161.295 211.473 161.295 212.523V221.233H159.264V219.443H159.16C159.023 219.73 158.793 220.037 158.472 220.364C158.151 220.691 157.723 220.969 157.189 221.199C156.656 221.428 156.004 221.543 155.236 221.543ZM155.545 219.719C156.349 219.719 157.026 219.561 157.577 219.245C158.133 218.93 158.552 218.522 158.833 218.023C159.12 217.524 159.264 216.999 159.264 216.448V214.589C159.178 214.692 158.988 214.787 158.696 214.873C158.409 214.953 158.076 215.025 157.697 215.088C157.324 215.145 156.96 215.197 156.604 215.243C156.254 215.283 155.97 215.317 155.752 215.346C155.224 215.415 154.731 215.527 154.272 215.682C153.818 215.831 153.451 216.058 153.17 216.362C152.894 216.66 152.757 217.068 152.757 217.584C152.757 218.29 153.018 218.823 153.54 219.185C154.068 219.541 154.736 219.719 155.545 219.719ZM171.253 208.013V209.734H164.127V208.013H171.253ZM166.261 221.233V206.188C166.261 205.431 166.439 204.8 166.795 204.295C167.151 203.79 167.612 203.411 168.18 203.159C168.749 202.906 169.348 202.78 169.979 202.78C170.479 202.78 170.886 202.82 171.202 202.9C171.517 202.981 171.752 203.055 171.907 203.124L171.322 204.88C171.219 204.846 171.075 204.803 170.892 204.751C170.714 204.699 170.479 204.673 170.186 204.673C169.515 204.673 169.03 204.843 168.731 205.181C168.439 205.52 168.292 206.016 168.292 206.67V221.233H166.261ZM180.213 208.013V209.734H173.362V208.013H180.213ZM175.359 204.846H177.39V217.446C177.39 218.02 177.473 218.45 177.64 218.737C177.812 219.019 178.03 219.208 178.294 219.305C178.563 219.397 178.847 219.443 179.146 219.443C179.37 219.443 179.553 219.432 179.697 219.409C179.84 219.38 179.955 219.357 180.041 219.34L180.454 221.165C180.316 221.216 180.124 221.268 179.877 221.319C179.631 221.377 179.318 221.406 178.939 221.406C178.365 221.406 177.803 221.282 177.252 221.035C176.707 220.789 176.254 220.413 175.892 219.908C175.537 219.403 175.359 218.766 175.359 217.997V204.846ZM192.76 210.974L190.935 211.49C190.82 211.186 190.651 210.891 190.427 210.604C190.209 210.311 189.911 210.07 189.532 209.881C189.154 209.691 188.669 209.597 188.078 209.597C187.269 209.597 186.594 209.783 186.055 210.156C185.521 210.523 185.255 210.991 185.255 211.559C185.255 212.064 185.438 212.463 185.805 212.755C186.173 213.048 186.746 213.292 187.527 213.487L189.489 213.969C190.671 214.256 191.552 214.695 192.132 215.286C192.711 215.871 193.001 216.626 193.001 217.55C193.001 218.307 192.783 218.984 192.347 219.581C191.916 220.178 191.314 220.648 190.539 220.992C189.765 221.337 188.864 221.509 187.837 221.509C186.488 221.509 185.372 221.216 184.488 220.631C183.605 220.046 183.045 219.191 182.81 218.066L184.738 217.584C184.922 218.296 185.269 218.829 185.78 219.185C186.296 219.541 186.97 219.719 187.802 219.719C188.749 219.719 189.501 219.518 190.057 219.116C190.62 218.709 190.901 218.221 190.901 217.653C190.901 217.194 190.74 216.809 190.419 216.5C190.097 216.184 189.604 215.949 188.938 215.794L186.735 215.277C185.524 214.99 184.635 214.546 184.067 213.943C183.504 213.335 183.223 212.575 183.223 211.662C183.223 210.916 183.433 210.257 183.852 209.683C184.276 209.109 184.853 208.659 185.582 208.331C186.316 208.004 187.148 207.841 188.078 207.841C189.386 207.841 190.413 208.128 191.159 208.702C191.911 209.275 192.444 210.033 192.76 210.974Z" fill="#FAFAFA"/>
<path d="M123.491 257.703V255.81H136.711V257.703H131.168V273.437H129.034V257.703H123.491ZM143.719 273.712C142.446 273.712 141.347 273.431 140.423 272.869C139.505 272.301 138.796 271.509 138.297 270.493C137.804 269.472 137.557 268.284 137.557 266.93C137.557 265.576 137.804 264.382 138.297 263.35C138.796 262.311 139.491 261.502 140.38 260.922C141.275 260.337 142.319 260.044 143.513 260.044C144.201 260.044 144.881 260.159 145.553 260.389C146.224 260.618 146.835 260.991 147.386 261.508C147.937 262.018 148.376 262.695 148.703 263.539C149.03 264.382 149.194 265.421 149.194 266.655V267.515H139.003V265.76H147.128C147.128 265.014 146.979 264.348 146.68 263.763C146.388 263.177 145.969 262.716 145.424 262.377C144.884 262.038 144.247 261.869 143.513 261.869C142.704 261.869 142.004 262.07 141.413 262.472C140.828 262.868 140.377 263.384 140.061 264.021C139.746 264.658 139.588 265.341 139.588 266.069V267.24C139.588 268.238 139.76 269.085 140.105 269.779C140.455 270.468 140.939 270.993 141.559 271.354C142.179 271.71 142.899 271.888 143.719 271.888C144.253 271.888 144.735 271.813 145.165 271.664C145.602 271.509 145.977 271.28 146.293 270.975C146.609 270.666 146.852 270.281 147.025 269.822L148.987 270.373C148.78 271.039 148.433 271.624 147.946 272.129C147.458 272.628 146.855 273.018 146.138 273.299C145.421 273.575 144.615 273.712 143.719 273.712ZM152.647 273.437V260.217H154.609V262.282H154.782C155.057 261.577 155.502 261.029 156.116 260.638C156.73 260.242 157.467 260.044 158.328 260.044C159.2 260.044 159.926 260.242 160.505 260.638C161.091 261.029 161.547 261.577 161.874 262.282H162.011C162.35 261.599 162.858 261.057 163.535 260.656C164.212 260.248 165.024 260.044 165.971 260.044C167.153 260.044 168.12 260.415 168.871 261.155C169.623 261.889 169.999 263.034 169.999 264.589V273.437H167.968V264.589C167.968 263.614 167.701 262.916 167.167 262.497C166.633 262.079 166.005 261.869 165.282 261.869C164.353 261.869 163.632 262.15 163.122 262.713C162.611 263.269 162.356 263.975 162.356 264.83V273.437H160.29V264.382C160.29 263.631 160.046 263.025 159.558 262.566C159.071 262.102 158.442 261.869 157.674 261.869C157.146 261.869 156.652 262.01 156.193 262.291C155.74 262.572 155.373 262.962 155.091 263.461C154.816 263.955 154.678 264.526 154.678 265.174V273.437H152.647ZM174.076 278.395V260.217H176.039V262.317H176.28C176.429 262.087 176.635 261.795 176.899 261.439C177.169 261.077 177.554 260.756 178.053 260.475C178.558 260.188 179.241 260.044 180.101 260.044C181.214 260.044 182.196 260.323 183.045 260.879C183.894 261.436 184.557 262.225 185.033 263.246C185.509 264.268 185.747 265.473 185.747 266.861C185.747 268.261 185.509 269.475 185.033 270.502C184.557 271.523 183.897 272.315 183.053 272.878C182.21 273.434 181.237 273.712 180.136 273.712C179.286 273.712 178.606 273.572 178.096 273.291C177.585 273.004 177.192 272.68 176.917 272.318C176.641 271.951 176.429 271.647 176.28 271.406H176.108V278.395H174.076ZM176.073 266.827C176.073 267.825 176.219 268.706 176.512 269.469C176.805 270.227 177.232 270.82 177.795 271.251C178.357 271.675 179.045 271.888 179.86 271.888C180.709 271.888 181.418 271.664 181.986 271.216C182.56 270.763 182.99 270.155 183.277 269.392C183.57 268.623 183.716 267.768 183.716 266.827C183.716 265.897 183.573 265.059 183.286 264.314C183.005 263.562 182.577 262.968 182.003 262.532C181.435 262.09 180.721 261.869 179.86 261.869C179.034 261.869 178.34 262.079 177.777 262.497C177.215 262.911 176.79 263.49 176.503 264.236C176.217 264.976 176.073 265.84 176.073 266.827ZM191.241 255.81V273.437H189.21V255.81H191.241ZM199.215 273.747C198.377 273.747 197.617 273.589 196.934 273.273C196.251 272.952 195.709 272.49 195.308 271.888C194.906 271.28 194.705 270.545 194.705 269.684C194.705 268.927 194.854 268.313 195.153 267.842C195.451 267.366 195.85 266.993 196.349 266.724C196.848 266.454 197.399 266.253 198.002 266.121C198.61 265.983 199.221 265.874 199.835 265.794C200.638 265.691 201.289 265.613 201.789 265.562C202.294 265.504 202.661 265.41 202.89 265.278C203.126 265.146 203.243 264.916 203.243 264.589V264.52C203.243 263.671 203.011 263.011 202.546 262.541C202.087 262.07 201.39 261.835 200.455 261.835C199.485 261.835 198.725 262.047 198.174 262.472C197.623 262.896 197.236 263.35 197.012 263.832L195.084 263.143C195.428 262.34 195.887 261.714 196.461 261.267C197.04 260.813 197.672 260.498 198.354 260.32C199.043 260.136 199.72 260.044 200.386 260.044C200.81 260.044 201.298 260.096 201.849 260.199C202.405 260.297 202.942 260.501 203.458 260.81C203.981 261.12 204.414 261.588 204.758 262.213C205.102 262.839 205.274 263.677 205.274 264.727V273.437H203.243V271.647H203.14C203.002 271.934 202.773 272.241 202.451 272.568C202.13 272.895 201.703 273.173 201.169 273.403C200.635 273.632 199.984 273.747 199.215 273.747ZM199.525 271.922C200.328 271.922 201.005 271.764 201.556 271.449C202.113 271.133 202.532 270.726 202.813 270.227C203.1 269.727 203.243 269.202 203.243 268.652V266.792C203.157 266.896 202.968 266.99 202.675 267.076C202.388 267.157 202.055 267.228 201.677 267.292C201.304 267.349 200.939 267.401 200.584 267.447C200.234 267.487 199.95 267.521 199.732 267.55C199.204 267.619 198.71 267.731 198.251 267.885C197.798 268.035 197.431 268.261 197.149 268.565C196.874 268.864 196.736 269.271 196.736 269.788C196.736 270.493 196.997 271.027 197.52 271.389C198.047 271.744 198.716 271.922 199.525 271.922ZM215.095 260.217V261.938H208.244V260.217H215.095ZM210.241 257.049H212.272V269.65C212.272 270.224 212.355 270.654 212.522 270.941C212.694 271.222 212.912 271.411 213.176 271.509C213.445 271.601 213.729 271.647 214.028 271.647C214.252 271.647 214.435 271.635 214.579 271.612C214.722 271.584 214.837 271.561 214.923 271.543L215.336 273.368C215.198 273.42 215.006 273.471 214.759 273.523C214.513 273.58 214.2 273.609 213.821 273.609C213.247 273.609 212.685 273.486 212.134 273.239C211.589 272.992 211.136 272.616 210.774 272.112C210.419 271.607 210.241 270.97 210.241 270.201V257.049ZM223.915 273.712C222.641 273.712 221.542 273.431 220.619 272.869C219.7 272.301 218.992 271.509 218.493 270.493C217.999 269.472 217.752 268.284 217.752 266.93C217.752 265.576 217.999 264.382 218.493 263.35C218.992 262.311 219.686 261.502 220.575 260.922C221.471 260.337 222.515 260.044 223.708 260.044C224.397 260.044 225.077 260.159 225.748 260.389C226.42 260.618 227.031 260.991 227.582 261.508C228.132 262.018 228.571 262.695 228.898 263.539C229.226 264.382 229.389 265.421 229.389 266.655V267.515H219.198V265.76H227.323C227.323 265.014 227.174 264.348 226.876 263.763C226.583 263.177 226.164 262.716 225.619 262.377C225.08 262.038 224.443 261.869 223.708 261.869C222.899 261.869 222.199 262.07 221.608 262.472C221.023 262.868 220.573 263.384 220.257 264.021C219.941 264.658 219.784 265.341 219.784 266.069V267.24C219.784 268.238 219.956 269.085 220.3 269.779C220.65 270.468 221.135 270.993 221.755 271.354C222.374 271.71 223.094 271.888 223.915 271.888C224.449 271.888 224.931 271.813 225.361 271.664C225.797 271.509 226.173 271.28 226.489 270.975C226.804 270.666 227.048 270.281 227.22 269.822L229.183 270.373C228.976 271.039 228.629 271.624 228.141 272.129C227.653 272.628 227.051 273.018 226.334 273.299C225.616 273.575 224.81 273.712 223.915 273.712ZM242.207 263.177L240.382 263.694C240.268 263.39 240.098 263.094 239.875 262.807C239.656 262.515 239.358 262.274 238.979 262.084C238.601 261.895 238.116 261.8 237.525 261.8C236.716 261.8 236.042 261.987 235.502 262.36C234.968 262.727 234.702 263.195 234.702 263.763C234.702 264.268 234.885 264.666 235.253 264.959C235.62 265.252 236.194 265.496 236.974 265.691L238.936 266.173C240.118 266.46 240.999 266.899 241.579 267.49C242.158 268.075 242.448 268.829 242.448 269.753C242.448 270.511 242.23 271.188 241.794 271.784C241.364 272.381 240.761 272.852 239.986 273.196C239.212 273.54 238.311 273.712 237.284 273.712C235.935 273.712 234.819 273.42 233.936 272.835C233.052 272.249 232.493 271.394 232.257 270.27L234.185 269.788C234.369 270.499 234.716 271.033 235.227 271.389C235.743 271.744 236.417 271.922 237.249 271.922C238.196 271.922 238.948 271.721 239.504 271.32C240.067 270.912 240.348 270.425 240.348 269.856C240.348 269.397 240.187 269.013 239.866 268.703C239.545 268.388 239.051 268.152 238.385 267.997L236.182 267.481C234.971 267.194 234.082 266.749 233.514 266.147C232.952 265.539 232.67 264.778 232.67 263.866C232.67 263.12 232.88 262.46 233.299 261.886C233.723 261.313 234.3 260.862 235.029 260.535C235.763 260.208 236.595 260.044 237.525 260.044C238.833 260.044 239.86 260.331 240.606 260.905C241.358 261.479 241.891 262.236 242.207 263.177Z" fill="#FAFAFA"/>
<path d="M134.095 312.42C133.991 311.548 133.573 310.87 132.838 310.388C132.104 309.906 131.203 309.665 130.136 309.665C129.355 309.665 128.672 309.792 128.087 310.044C127.507 310.297 127.054 310.644 126.727 311.086C126.406 311.527 126.245 312.03 126.245 312.592C126.245 313.062 126.357 313.467 126.581 313.805C126.81 314.138 127.103 314.417 127.459 314.64C127.814 314.858 128.187 315.039 128.578 315.183C128.968 315.32 129.326 315.432 129.654 315.518L131.444 316C131.903 316.121 132.413 316.287 132.976 316.499C133.544 316.712 134.086 317.002 134.603 317.369C135.125 317.73 135.555 318.195 135.894 318.763C136.232 319.331 136.401 320.028 136.401 320.855C136.401 321.807 136.152 322.668 135.653 323.437C135.159 324.206 134.436 324.817 133.484 325.27C132.537 325.723 131.386 325.95 130.032 325.95C128.77 325.95 127.677 325.746 126.753 325.339C125.835 324.931 125.112 324.363 124.584 323.635C124.062 322.906 123.766 322.06 123.697 321.096H125.901C125.958 321.761 126.182 322.312 126.572 322.748C126.968 323.179 127.467 323.5 128.07 323.712C128.678 323.919 129.332 324.022 130.032 324.022C130.847 324.022 131.579 323.89 132.227 323.626C132.875 323.356 133.389 322.983 133.768 322.507C134.146 322.025 134.336 321.463 134.336 320.82C134.336 320.235 134.172 319.759 133.845 319.391C133.518 319.024 133.088 318.726 132.554 318.496C132.02 318.267 131.444 318.066 130.824 317.894L128.655 317.274C127.278 316.878 126.188 316.313 125.384 315.579C124.581 314.844 124.179 313.883 124.179 312.695C124.179 311.708 124.446 310.848 124.98 310.113C125.519 309.373 126.242 308.799 127.149 308.392C128.061 307.979 129.08 307.772 130.204 307.772C131.34 307.772 132.35 307.976 133.234 308.383C134.118 308.785 134.818 309.336 135.334 310.036C135.856 310.736 136.132 311.53 136.16 312.42H134.095ZM145.542 325.916C144.268 325.916 143.169 325.634 142.246 325.072C141.327 324.504 140.619 323.712 140.12 322.697C139.626 321.675 139.379 320.487 139.379 319.133C139.379 317.779 139.626 316.586 140.12 315.553C140.619 314.514 141.313 313.705 142.202 313.126C143.098 312.54 144.142 312.248 145.335 312.248C146.024 312.248 146.704 312.362 147.375 312.592C148.047 312.821 148.658 313.194 149.209 313.711C149.759 314.221 150.198 314.899 150.525 315.742C150.853 316.586 151.016 317.624 151.016 318.858V319.718H140.825V317.963H148.95C148.95 317.217 148.801 316.551 148.503 315.966C148.21 315.381 147.791 314.919 147.246 314.58C146.707 314.242 146.07 314.072 145.335 314.072C144.526 314.072 143.826 314.273 143.235 314.675C142.65 315.071 142.2 315.587 141.884 316.224C141.568 316.861 141.411 317.544 141.411 318.273V319.443C141.411 320.441 141.583 321.288 141.927 321.982C142.277 322.671 142.762 323.196 143.382 323.557C144.001 323.913 144.721 324.091 145.542 324.091C146.076 324.091 146.558 324.016 146.988 323.867C147.424 323.712 147.8 323.483 148.116 323.179C148.431 322.869 148.675 322.484 148.847 322.025L150.81 322.576C150.603 323.242 150.256 323.827 149.768 324.332C149.28 324.831 148.678 325.221 147.961 325.502C147.243 325.778 146.437 325.916 145.542 325.916ZM156.501 317.687V325.64H154.47V312.42H156.432V314.485H156.604C156.914 313.814 157.384 313.275 158.016 312.867C158.647 312.454 159.462 312.248 160.46 312.248C161.355 312.248 162.138 312.431 162.81 312.798C163.481 313.16 164.003 313.711 164.376 314.451C164.749 315.185 164.936 316.115 164.936 317.24V325.64H162.904V317.377C162.904 316.339 162.635 315.53 162.095 314.95C161.556 314.365 160.816 314.072 159.875 314.072C159.226 314.072 158.647 314.213 158.136 314.494C157.631 314.775 157.232 315.185 156.94 315.725C156.647 316.264 156.501 316.918 156.501 317.687ZM174.761 312.42V314.141H167.909V312.42H174.761ZM169.906 309.252H171.937V321.853C171.937 322.427 172.021 322.857 172.187 323.144C172.359 323.425 172.577 323.615 172.841 323.712C173.111 323.804 173.395 323.85 173.693 323.85C173.917 323.85 174.101 323.838 174.244 323.815C174.388 323.787 174.502 323.764 174.588 323.747L175.002 325.571C174.864 325.623 174.672 325.675 174.425 325.726C174.178 325.784 173.865 325.812 173.487 325.812C172.913 325.812 172.351 325.689 171.8 325.442C171.255 325.195 170.801 324.82 170.44 324.315C170.084 323.81 169.906 323.173 169.906 322.404V309.252Z" fill="#FAFAFA"/>
<path d="M125.178 377.844H122.94L129.413 360.217H131.616L138.088 377.844H135.851L130.583 363.006H130.445L125.178 377.844ZM126.004 370.959H135.024V372.852H126.004V370.959ZM140.922 377.844V364.624H142.885V366.621H143.022C143.263 365.967 143.699 365.436 144.331 365.028C144.962 364.621 145.673 364.417 146.465 364.417C146.614 364.417 146.801 364.42 147.025 364.426C147.248 364.432 147.418 364.44 147.532 364.452V366.517C147.464 366.5 147.306 366.474 147.059 366.44C146.818 366.4 146.563 366.38 146.293 366.38C145.65 366.38 145.077 366.515 144.572 366.784C144.072 367.048 143.676 367.415 143.384 367.886C143.097 368.351 142.953 368.881 142.953 369.478V377.844H140.922ZM155.272 378.12C154.033 378.12 152.965 377.827 152.07 377.242C151.175 376.656 150.487 375.85 150.005 374.823C149.523 373.796 149.282 372.623 149.282 371.303C149.282 369.96 149.528 368.775 150.022 367.748C150.521 366.715 151.215 365.909 152.105 365.33C153 364.744 154.044 364.452 155.238 364.452C156.167 364.452 157.005 364.624 157.751 364.968C158.497 365.312 159.108 365.794 159.584 366.414C160.061 367.034 160.356 367.757 160.471 368.583H158.44C158.285 367.981 157.94 367.447 157.407 366.982C156.879 366.512 156.167 366.276 155.272 366.276C154.48 366.276 153.786 366.483 153.189 366.896C152.598 367.303 152.136 367.88 151.804 368.626C151.476 369.366 151.313 370.236 151.313 371.234C151.313 372.255 151.474 373.145 151.795 373.902C152.122 374.66 152.581 375.248 153.172 375.667C153.769 376.086 154.469 376.295 155.272 376.295C155.8 376.295 156.279 376.203 156.71 376.02C157.14 375.836 157.504 375.572 157.803 375.228C158.101 374.883 158.313 374.47 158.44 373.988H160.471C160.356 374.769 160.072 375.472 159.619 376.097C159.171 376.717 158.577 377.21 157.837 377.577C157.103 377.939 156.248 378.12 155.272 378.12ZM165.835 369.891V377.844H163.804V360.217H165.835V366.69H166.007C166.317 366.007 166.782 365.464 167.402 365.063C168.027 364.655 168.859 364.452 169.898 364.452C170.798 364.452 171.587 364.632 172.265 364.994C172.942 365.35 173.467 365.898 173.84 366.638C174.218 367.372 174.408 368.308 174.408 369.444V377.844H172.376V369.581C172.376 368.531 172.104 367.719 171.559 367.146C171.019 366.566 170.271 366.276 169.312 366.276C168.647 366.276 168.05 366.417 167.522 366.698C167 366.979 166.587 367.39 166.283 367.929C165.984 368.468 165.835 369.122 165.835 369.891ZM178.487 377.844V364.624H180.519V377.844H178.487ZM179.52 362.42C179.124 362.42 178.783 362.286 178.496 362.016C178.215 361.746 178.074 361.422 178.074 361.043C178.074 360.665 178.215 360.34 178.496 360.071C178.783 359.801 179.124 359.666 179.52 359.666C179.916 359.666 180.255 359.801 180.536 360.071C180.823 360.34 180.966 360.665 180.966 361.043C180.966 361.422 180.823 361.746 180.536 362.016C180.255 362.286 179.916 362.42 179.52 362.42ZM195.413 364.624L190.524 377.844H188.458L183.57 364.624H185.773L189.422 375.159H189.56L193.21 364.624H195.413ZM203.527 378.12C202.253 378.12 201.154 377.839 200.231 377.276C199.313 376.708 198.604 375.916 198.105 374.901C197.611 373.879 197.365 372.691 197.365 371.337C197.365 369.983 197.611 368.79 198.105 367.757C198.604 366.718 199.298 365.909 200.188 365.33C201.083 364.744 202.127 364.452 203.321 364.452C204.009 364.452 204.689 364.566 205.36 364.796C206.032 365.025 206.643 365.398 207.194 365.915C207.745 366.426 208.184 367.103 208.511 367.946C208.838 368.79 209.001 369.828 209.001 371.062V371.923H198.811V370.167H206.936C206.936 369.421 206.786 368.755 206.488 368.17C206.195 367.585 205.776 367.123 205.231 366.784C204.692 366.446 204.055 366.276 203.321 366.276C202.512 366.276 201.811 366.477 201.22 366.879C200.635 367.275 200.185 367.791 199.869 368.428C199.554 369.065 199.396 369.748 199.396 370.477V371.647C199.396 372.646 199.568 373.492 199.912 374.186C200.262 374.875 200.747 375.4 201.367 375.761C201.987 376.117 202.707 376.295 203.527 376.295C204.061 376.295 204.543 376.22 204.973 376.071C205.409 375.916 205.785 375.687 206.101 375.383C206.416 375.073 206.66 374.688 206.832 374.229L208.795 374.78C208.588 375.446 208.241 376.031 207.753 376.536C207.265 377.035 206.663 377.425 205.946 377.707C205.228 377.982 204.422 378.12 203.527 378.12Z" fill="#FAFAFA"/>
<path d="M134.095 416.826C133.991 415.954 133.573 415.277 132.838 414.795C132.104 414.313 131.203 414.072 130.136 414.072C129.355 414.072 128.672 414.198 128.087 414.451C127.507 414.703 127.054 415.051 126.727 415.492C126.406 415.934 126.245 416.436 126.245 416.999C126.245 417.469 126.357 417.874 126.581 418.212C126.81 418.545 127.103 418.823 127.459 419.047C127.814 419.265 128.187 419.446 128.578 419.589C128.968 419.727 129.326 419.839 129.654 419.925L131.444 420.407C131.903 420.527 132.413 420.694 132.976 420.906C133.544 421.119 134.086 421.408 134.603 421.776C135.125 422.137 135.555 422.602 135.894 423.17C136.232 423.738 136.401 424.435 136.401 425.261C136.401 426.214 136.152 427.075 135.653 427.843C135.159 428.612 134.436 429.223 133.484 429.677C132.537 430.13 131.386 430.357 130.032 430.357C128.77 430.357 127.677 430.153 126.753 429.746C125.835 429.338 125.112 428.77 124.584 428.041C124.062 427.313 123.766 426.466 123.697 425.502H125.901C125.958 426.168 126.182 426.719 126.572 427.155C126.968 427.585 127.467 427.907 128.07 428.119C128.678 428.325 129.332 428.429 130.032 428.429C130.847 428.429 131.579 428.297 132.227 428.033C132.875 427.763 133.389 427.39 133.768 426.914C134.146 426.432 134.336 425.87 134.336 425.227C134.336 424.642 134.172 424.165 133.845 423.798C133.518 423.431 133.088 423.133 132.554 422.903C132.02 422.674 131.444 422.473 130.824 422.301L128.655 421.681C127.278 421.285 126.188 420.72 125.384 419.985C124.581 419.251 124.179 418.29 124.179 417.102C124.179 416.115 124.446 415.254 124.98 414.52C125.519 413.78 126.242 413.206 127.149 412.798C128.061 412.385 129.08 412.179 130.204 412.179C131.34 412.179 132.35 412.382 133.234 412.79C134.118 413.191 134.818 413.742 135.334 414.442C135.856 415.142 136.132 415.937 136.16 416.826H134.095ZM139.999 435.005V416.826H141.961V418.927H142.202C142.352 418.697 142.558 418.404 142.822 418.049C143.092 417.687 143.476 417.366 143.976 417.085C144.48 416.798 145.163 416.654 146.024 416.654C147.137 416.654 148.118 416.933 148.968 417.489C149.817 418.046 150.48 418.835 150.956 419.856C151.432 420.878 151.67 422.082 151.67 423.471C151.67 424.871 151.432 426.085 150.956 427.112C150.48 428.133 149.82 428.925 148.976 429.487C148.133 430.044 147.16 430.322 146.058 430.322C145.209 430.322 144.529 430.182 144.019 429.901C143.508 429.614 143.115 429.289 142.839 428.928C142.564 428.561 142.352 428.257 142.202 428.016H142.03V435.005H139.999ZM141.996 423.437C141.996 424.435 142.142 425.316 142.435 426.079C142.728 426.836 143.155 427.43 143.717 427.861C144.28 428.285 144.968 428.498 145.783 428.498C146.632 428.498 147.341 428.274 147.909 427.826C148.483 427.373 148.913 426.765 149.2 426.002C149.493 425.233 149.639 424.378 149.639 423.437C149.639 422.507 149.496 421.669 149.209 420.923C148.927 420.172 148.5 419.578 147.926 419.142C147.358 418.7 146.644 418.479 145.783 418.479C144.957 418.479 144.262 418.688 143.7 419.107C143.138 419.52 142.713 420.1 142.426 420.846C142.139 421.586 141.996 422.45 141.996 423.437ZM159.023 430.357C158.185 430.357 157.425 430.199 156.742 429.883C156.059 429.562 155.517 429.1 155.115 428.498C154.713 427.889 154.513 427.155 154.513 426.294C154.513 425.537 154.662 424.923 154.96 424.452C155.259 423.976 155.657 423.603 156.157 423.333C156.656 423.064 157.207 422.863 157.809 422.731C158.417 422.593 159.028 422.484 159.642 422.404C160.446 422.301 161.097 422.223 161.596 422.171C162.101 422.114 162.468 422.019 162.698 421.887C162.933 421.755 163.051 421.526 163.051 421.199V421.13C163.051 420.281 162.818 419.621 162.354 419.15C161.895 418.68 161.197 418.445 160.262 418.445C159.292 418.445 158.532 418.657 157.981 419.082C157.43 419.506 157.043 419.959 156.819 420.441L154.891 419.753C155.236 418.95 155.695 418.324 156.268 417.877C156.848 417.423 157.479 417.108 158.162 416.93C158.851 416.746 159.528 416.654 160.193 416.654C160.618 416.654 161.106 416.706 161.656 416.809C162.213 416.907 162.75 417.111 163.266 417.42C163.788 417.73 164.221 418.198 164.566 418.823C164.91 419.449 165.082 420.286 165.082 421.337V430.047H163.051V428.257H162.947C162.81 428.544 162.58 428.85 162.259 429.178C161.938 429.505 161.51 429.783 160.976 430.012C160.443 430.242 159.792 430.357 159.023 430.357ZM159.333 428.532C160.136 428.532 160.813 428.374 161.364 428.059C161.92 427.743 162.339 427.336 162.62 426.836C162.907 426.337 163.051 425.812 163.051 425.261V423.402C162.965 423.506 162.775 423.6 162.483 423.686C162.196 423.767 161.863 423.838 161.484 423.901C161.111 423.959 160.747 424.01 160.391 424.056C160.041 424.097 159.757 424.131 159.539 424.16C159.011 424.229 158.518 424.34 158.059 424.495C157.605 424.645 157.238 424.871 156.957 425.175C156.682 425.474 156.544 425.881 156.544 426.397C156.544 427.103 156.805 427.637 157.327 427.998C157.855 428.354 158.523 428.532 159.333 428.532ZM169.153 430.047V416.826H171.115V418.892H171.288C171.563 418.186 172.008 417.638 172.622 417.248C173.236 416.852 173.973 416.654 174.834 416.654C175.706 416.654 176.432 416.852 177.011 417.248C177.597 417.638 178.053 418.186 178.38 418.892H178.518C178.856 418.209 179.364 417.667 180.041 417.265C180.718 416.858 181.53 416.654 182.477 416.654C183.659 416.654 184.626 417.024 185.377 417.765C186.129 418.499 186.505 419.644 186.505 421.199V430.047H184.474V421.199C184.474 420.223 184.207 419.526 183.673 419.107C183.14 418.688 182.511 418.479 181.788 418.479C180.859 418.479 180.139 418.76 179.628 419.323C179.117 419.879 178.862 420.585 178.862 421.44V430.047H176.796V420.992C176.796 420.241 176.552 419.635 176.065 419.176C175.577 418.711 174.948 418.479 174.18 418.479C173.652 418.479 173.158 418.62 172.699 418.901C172.246 419.182 171.879 419.572 171.597 420.071C171.322 420.565 171.184 421.136 171.184 421.784V430.047H169.153Z" fill="#FAFAFA"/>
<path d="M123.491 466.517V464.624H136.711V466.517H131.168V482.251H129.034V466.517H123.491ZM138.721 482.251V469.031H140.683V471.027H140.821C141.062 470.373 141.498 469.843 142.129 469.435C142.76 469.028 143.472 468.824 144.264 468.824C144.413 468.824 144.6 468.827 144.823 468.833C145.047 468.838 145.216 468.847 145.331 468.858V470.924C145.262 470.907 145.104 470.881 144.858 470.847C144.617 470.806 144.361 470.786 144.092 470.786C143.449 470.786 142.875 470.921 142.37 471.191C141.871 471.455 141.475 471.822 141.183 472.293C140.896 472.757 140.752 473.288 140.752 473.885V482.251H138.721ZM151.993 482.561C151.155 482.561 150.395 482.403 149.712 482.087C149.029 481.766 148.487 481.304 148.085 480.702C147.684 480.093 147.483 479.359 147.483 478.498C147.483 477.741 147.632 477.127 147.93 476.656C148.229 476.18 148.628 475.807 149.127 475.537C149.626 475.268 150.177 475.067 150.779 474.935C151.388 474.797 151.999 474.688 152.613 474.608C153.416 474.505 154.067 474.427 154.566 474.376C155.071 474.318 155.439 474.223 155.668 474.092C155.903 473.96 156.021 473.73 156.021 473.403V473.334C156.021 472.485 155.789 471.825 155.324 471.354C154.865 470.884 154.168 470.649 153.232 470.649C152.263 470.649 151.502 470.861 150.951 471.286C150.401 471.71 150.013 472.164 149.789 472.646L147.862 471.957C148.206 471.154 148.665 470.528 149.239 470.081C149.818 469.627 150.449 469.312 151.132 469.134C151.821 468.95 152.498 468.858 153.163 468.858C153.588 468.858 154.076 468.91 154.627 469.013C155.183 469.111 155.72 469.315 156.236 469.624C156.758 469.934 157.192 470.402 157.536 471.027C157.88 471.653 158.052 472.491 158.052 473.541V482.251H156.021V480.461H155.918C155.78 480.748 155.55 481.055 155.229 481.382C154.908 481.709 154.48 481.987 153.947 482.217C153.413 482.446 152.762 482.561 151.993 482.561ZM152.303 480.736C153.106 480.736 153.783 480.578 154.334 480.263C154.891 479.947 155.309 479.54 155.591 479.041C155.878 478.541 156.021 478.016 156.021 477.465V475.606C155.935 475.71 155.746 475.804 155.453 475.89C155.166 475.971 154.833 476.042 154.455 476.106C154.082 476.163 153.717 476.215 153.361 476.26C153.011 476.301 152.727 476.335 152.509 476.364C151.981 476.433 151.488 476.545 151.029 476.699C150.576 476.849 150.208 477.075 149.927 477.379C149.652 477.678 149.514 478.085 149.514 478.602C149.514 479.307 149.775 479.841 150.297 480.203C150.825 480.558 151.494 480.736 152.303 480.736ZM171.488 471.991L169.663 472.508C169.548 472.204 169.379 471.908 169.155 471.621C168.937 471.329 168.639 471.088 168.26 470.898C167.881 470.709 167.397 470.614 166.806 470.614C165.996 470.614 165.322 470.801 164.783 471.174C164.249 471.541 163.982 472.009 163.982 472.577C163.982 473.082 164.166 473.48 164.533 473.773C164.9 474.066 165.474 474.31 166.255 474.505L168.217 474.987C169.399 475.274 170.28 475.712 170.859 476.304C171.439 476.889 171.729 477.643 171.729 478.567C171.729 479.325 171.511 480.002 171.075 480.598C170.644 481.195 170.042 481.666 169.267 482.01C168.492 482.354 167.592 482.526 166.565 482.526C165.216 482.526 164.1 482.234 163.216 481.648C162.333 481.063 161.773 480.208 161.538 479.084L163.466 478.602C163.65 479.313 163.997 479.847 164.507 480.203C165.024 480.558 165.698 480.736 166.53 480.736C167.477 480.736 168.229 480.535 168.785 480.134C169.347 479.726 169.629 479.239 169.629 478.67C169.629 478.211 169.468 477.827 169.147 477.517C168.825 477.202 168.332 476.966 167.666 476.811L165.463 476.295C164.252 476.008 163.363 475.563 162.795 474.961C162.232 474.353 161.951 473.592 161.951 472.68C161.951 471.934 162.161 471.274 162.579 470.7C163.004 470.127 163.581 469.676 164.309 469.349C165.044 469.022 165.876 468.858 166.806 468.858C168.114 468.858 169.141 469.145 169.887 469.719C170.639 470.293 171.172 471.05 171.488 471.991ZM177.181 474.298V482.251H175.15V464.624H177.181V471.096H177.353C177.663 470.413 178.128 469.871 178.748 469.47C179.373 469.062 180.205 468.858 181.244 468.858C182.145 468.858 182.934 469.039 183.611 469.401C184.288 469.756 184.813 470.304 185.186 471.045C185.564 471.779 185.754 472.714 185.754 473.851V482.251H183.723V473.988C183.723 472.938 183.45 472.126 182.905 471.552C182.366 470.973 181.617 470.683 180.658 470.683C179.993 470.683 179.396 470.824 178.868 471.105C178.346 471.386 177.933 471.796 177.629 472.336C177.33 472.875 177.181 473.529 177.181 474.298Z" fill="#FAFAFA"/>
<rect x="446.729" y="146.03" width="42.8816" height="29.8307" rx="14.9153" fill="#88CCFC"/>
<path d="M463.283 151.403V169.03H459.556V154.94H459.453L455.416 157.471V154.165L459.78 151.403H463.283ZM474.748 169.417C473.267 169.411 471.993 169.047 470.926 168.324C469.865 167.601 469.047 166.554 468.473 165.183C467.905 163.811 467.624 162.161 467.63 160.233C467.63 158.311 467.914 156.673 468.482 155.319C469.056 153.965 469.873 152.935 470.935 152.229C472.002 151.517 473.273 151.162 474.748 151.162C476.222 151.162 477.49 151.517 478.552 152.229C479.619 152.94 480.44 153.973 481.014 155.327C481.587 156.676 481.871 158.311 481.866 160.233C481.866 162.167 481.579 163.82 481.005 165.191C480.437 166.562 479.622 167.61 478.561 168.333C477.499 169.056 476.228 169.417 474.748 169.417ZM474.748 166.327C475.758 166.327 476.564 165.819 477.166 164.804C477.769 163.788 478.067 162.265 478.061 160.233C478.061 158.896 477.924 157.783 477.648 156.894C477.379 156.005 476.994 155.336 476.495 154.888C476.001 154.441 475.419 154.217 474.748 154.217C473.744 154.217 472.94 154.719 472.338 155.723C471.735 156.728 471.431 158.231 471.425 160.233C471.425 161.588 471.56 162.718 471.83 163.625C472.105 164.525 472.493 165.203 472.992 165.656C473.491 166.103 474.076 166.327 474.748 166.327Z" fill="#15427C"/>
<defs>
<filter id="filter0_d_2490_39446" x="0.299999" y="0.535351" width="518.4" height="552.4" filterUnits="userSpaceOnUse" color-interpolation-filters="sRGB">
<feFlood flood-opacity="0" result="BackgroundImageFix"/>
<feColorMatrix in="SourceAlpha" type="matrix" values="0 0 0 0 0 0 0 0 0 0 0 0 0 0 0 0 0 0 127 0" result="hardAlpha"/>
<feMorphology radius="7" operator="erode" in="SourceAlpha" result="effect1_dropShadow_2490_39446"/>
<feOffset dx="-8" dy="-8"/>
<feGaussianBlur stdDeviation="9.35"/>
<feComposite in2="hardAlpha" operator="out"/>
<feColorMatrix type="matrix" values="0 0 0 0 0 0 0 0 0 0.52 0 0 0 0 1 0 0 0 0.25 0"/>
<feBlend mode="normal" in2="BackgroundImageFix" result="effect1_dropShadow_2490_39446"/>
<feBlend mode="normal" in="SourceGraphic" in2="effect1_dropShadow_2490_39446" result="shape"/>
</filter>
<linearGradient id="paint0_linear_2490_39446" x1="-3.32462" y1="-4.3922" x2="614.086" y2="503.066" gradientUnits="userSpaceOnUse">
<stop stop-color="#37ADF9"/>
<stop offset="1" stop-color="#AE55F7"/>
</linearGradient>
</defs>
</svg>
