<svg width="167" height="168" viewBox="0 0 167 168" fill="none" xmlns="http://www.w3.org/2000/svg">
<g opacity="0.12" filter="url(#filter0_f_2490_39508)">
<circle cx="83.5" cy="83.7354" r="59.5" fill="#AE55F7"/>
</g>
<circle opacity="0.12" cx="83.5" cy="83.7354" r="59.5" fill="white"/>
<path opacity="0.2" d="M68 58.2354C62.46 58.2354 58 62.6954 58 68.2354V100.235C58 105.775 60.46 110.235 66 110.235H78C78.0098 100.235 78 74.2354 78 74.2354H110V68.2354C110 62.6954 105.54 58.2354 100 58.2354H68Z" fill="#EEEEF0"/>
<path d="M68 56.2354C61.3726 56.2354 56 61.608 56 68.2354V74.2354V100.235C56 106.863 61.3726 112.235 68 112.235H78H100C106.628 112.235 112 106.863 112 100.235V74.2354V68.2354C112 61.608 106.628 56.2354 100 56.2354H68ZM68 60.2354H100C100.277 60.2354 100.551 60.2472 100.82 60.2744C101.089 60.3017 101.349 60.3461 101.609 60.3994H101.617C102.135 60.506 102.641 60.6589 103.117 60.8604C105.033 61.6678 106.568 63.2027 107.375 65.1182C107.577 65.5971 107.73 66.0965 107.836 66.6182V66.626C107.889 66.8844 107.934 67.148 107.961 67.415C107.988 67.684 108 67.9592 108 68.2354V72.2354H60V68.2354C60 67.9592 60.0118 67.684 60.0391 67.415C60.066 67.148 60.1117 66.8844 60.1641 66.626V66.6182C60.2702 66.0964 60.4231 65.597 60.625 65.1182C61.4325 63.2027 62.9673 61.6678 64.8828 60.8604C65.8406 60.4566 66.892 60.2354 68 60.2354ZM60 76.2354H76V108.235H68C67.4486 108.235 66.91 108.176 66.3906 108.071H66.3828C65.8611 107.965 65.3617 107.812 64.8828 107.61C62.9673 106.803 61.4325 105.268 60.625 103.353C60.4222 102.871 60.2703 102.369 60.1641 101.845C60.1108 101.584 60.0664 101.324 60.0391 101.056C60.0118 100.786 60 100.513 60 100.235V76.2354ZM80 76.2354H108V100.235C108 101.34 107.78 102.395 107.375 103.353C106.567 105.268 105.033 106.803 103.117 107.61C102.16 108.015 101.104 108.235 100 108.235H80V76.2354Z" fill="#EEEEF0"/>
<path opacity="0.2" d="M122 30.7354C121.322 30.7354 121.034 32.304 120.555 32.782C120.076 33.26 118.5 33.5594 118.5 34.2354C118.5 34.9113 120.076 35.2108 120.555 35.6887C121.034 36.1667 121.322 37.7354 122 37.7354C122.678 37.7354 122.989 36.1667 123.468 35.6887C123.948 35.2108 125.5 34.9113 125.5 34.2354C125.5 33.5594 123.948 33.26 123.468 32.782C122.989 32.304 122.678 30.7354 122 30.7354Z" fill="#737584"/>
<path d="M122 30.7354C121.322 30.7354 121.034 32.304 120.555 32.782C120.076 33.26 118.5 33.5594 118.5 34.2354C118.5 34.9113 120.076 35.2108 120.555 35.6887C121.034 36.1667 121.322 37.7354 122 37.7354C122.678 37.7354 122.989 36.1667 123.468 35.6887C123.948 35.2108 125.5 34.9113 125.5 34.2354C125.5 33.5594 123.948 33.26 123.468 32.782C122.989 32.304 122.678 30.7354 122 30.7354Z" stroke="#737584" stroke-linejoin="round"/>
<path opacity="0.2" d="M45 18.4285C44.3225 18.4285 44.0341 19.9523 43.555 20.4167C43.0759 20.881 41.5 21.1718 41.5 21.8285C41.5 22.4851 43.0759 22.776 43.555 23.2403C44.0341 23.7046 44.3225 25.2284 45 25.2284C45.6775 25.2284 45.9894 23.7046 46.4685 23.2403C46.9476 22.776 48.5 22.4851 48.5 21.8285C48.5 21.1718 46.9476 20.881 46.4685 20.4167C45.9894 19.9523 45.6775 18.4285 45 18.4285Z" fill="#737584"/>
<path d="M45 18.4285C44.3225 18.4285 44.0341 19.9523 43.555 20.4167C43.0759 20.881 41.5 21.1718 41.5 21.8285C41.5 22.4851 43.0759 22.776 43.555 23.2403C44.0341 23.7046 44.3225 25.2284 45 25.2284C45.6775 25.2284 45.9894 23.7046 46.4685 23.2403C46.9476 22.776 48.5 22.4851 48.5 21.8285C48.5 21.1718 46.9476 20.881 46.4685 20.4167C45.9894 19.9523 45.6775 18.4285 45 18.4285Z" stroke="#737584" stroke-linejoin="round"/>
<path opacity="0.2" d="M124 121.188C122.481 121.188 121.808 127.896 120.734 128.97C119.66 130.044 112.953 130.717 112.953 132.235C112.953 133.754 119.66 134.427 120.734 135.501C121.808 136.575 122.481 143.282 124 143.282C125.519 143.282 126.192 136.575 127.266 135.501C128.34 134.427 135.047 133.754 135.047 132.235C135.047 130.717 128.34 130.044 127.266 128.97C126.192 127.896 125.519 121.188 124 121.188Z" fill="#737584"/>
<path d="M124 120.188C123.442 120.188 122.999 120.504 122.723 120.813C122.446 121.122 122.261 121.465 122.09 121.841C121.748 122.593 121.485 123.494 121.234 124.415C120.984 125.336 120.753 126.269 120.527 127.009C120.302 127.748 119.965 128.325 120.027 128.263C120.09 128.2 119.513 128.537 118.773 128.763C118.034 128.988 117.1 129.219 116.18 129.47C115.259 129.72 114.357 129.983 113.605 130.325C113.23 130.496 112.887 130.682 112.578 130.958C112.269 131.234 111.953 131.677 111.953 132.235C111.953 132.793 112.269 133.236 112.578 133.513C112.887 133.789 113.23 133.975 113.605 134.146C114.357 134.487 115.259 134.751 116.18 135.001C117.1 135.251 118.034 135.483 118.773 135.708C119.513 135.933 120.09 136.271 120.027 136.208C119.965 136.145 120.302 136.723 120.527 137.462C120.753 138.201 120.984 139.135 121.234 140.056C121.485 140.976 121.748 141.878 122.09 142.63C122.261 143.006 122.446 143.348 122.723 143.657C122.999 143.966 123.442 144.282 124 144.282C124.558 144.282 125.001 143.966 125.277 143.657C125.554 143.348 125.739 143.006 125.91 142.63C126.252 141.878 126.515 140.976 126.766 140.056C127.016 139.135 127.247 138.201 127.473 137.462C127.698 136.723 128.035 136.145 127.973 136.208C127.91 136.271 128.487 135.933 129.227 135.708C129.966 135.483 130.9 135.251 131.82 135.001C132.741 134.751 133.643 134.487 134.395 134.146C134.77 133.975 135.113 133.789 135.422 133.513C135.731 133.236 136.047 132.793 136.047 132.235C136.047 131.677 135.731 131.234 135.422 130.958C135.113 130.682 134.77 130.496 134.395 130.325C133.643 129.983 132.741 129.72 131.82 129.47C130.9 129.219 129.966 128.988 129.227 128.763C128.487 128.537 127.91 128.2 127.973 128.263C128.035 128.325 127.698 127.748 127.473 127.009C127.247 126.269 127.016 125.336 126.766 124.415C126.515 123.494 126.252 122.593 125.91 121.841C125.739 121.465 125.554 121.122 125.277 120.813C125.001 120.504 124.558 120.188 124 120.188ZM124 122.513C124.035 122.578 124.053 122.589 124.09 122.669C124.335 123.208 124.594 124.048 124.836 124.938C125.078 125.829 125.308 126.77 125.559 127.591C125.809 128.411 125.959 129.077 126.559 129.677C127.158 130.276 127.824 130.427 128.645 130.677C129.465 130.927 130.407 131.157 131.297 131.399C132.187 131.641 133.027 131.9 133.566 132.146C133.647 132.182 133.658 132.2 133.723 132.235C133.658 132.27 133.647 132.289 133.566 132.325C133.027 132.57 132.187 132.829 131.297 133.071C130.407 133.313 129.465 133.544 128.645 133.794C127.824 134.044 127.158 134.194 126.559 134.794C125.959 135.394 125.809 136.06 125.559 136.88C125.308 137.7 125.078 138.642 124.836 139.532C124.594 140.423 124.335 141.262 124.09 141.802C124.053 141.882 124.035 141.893 124 141.958C123.965 141.893 123.947 141.882 123.91 141.802C123.665 141.262 123.406 140.423 123.164 139.532C122.922 138.642 122.692 137.7 122.441 136.88C122.191 136.06 122.041 135.394 121.441 134.794C120.842 134.194 120.176 134.044 119.355 133.794C118.535 133.544 117.593 133.313 116.703 133.071C115.813 132.829 114.973 132.57 114.434 132.325C114.353 132.289 114.342 132.27 114.277 132.235C114.342 132.2 114.353 132.182 114.434 132.146C114.973 131.9 115.813 131.641 116.703 131.399C117.593 131.157 118.535 130.927 119.355 130.677C120.176 130.427 120.842 130.276 121.441 129.677C122.041 129.077 122.191 128.411 122.441 127.591C122.692 126.77 122.922 125.829 123.164 124.938C123.406 124.048 123.665 123.208 123.91 122.669C123.947 122.589 123.965 122.578 124 122.513Z" fill="#737584"/>
<path opacity="0.2" d="M40 38.7119C39.2406 38.7119 38.9042 42.0656 38.3672 42.6025C37.8302 43.1395 34.4766 43.4759 34.4766 44.2354C34.4766 44.9948 37.8302 45.3312 38.3672 45.8682C38.9042 46.4051 39.2406 49.7588 40 49.7588C40.7594 49.7588 41.0958 46.4051 41.6328 45.8682C42.1698 45.3312 45.5234 44.9948 45.5234 44.2354C45.5234 43.4759 42.1698 43.1395 41.6328 42.6025C41.0958 42.0656 40.7594 38.7119 40 38.7119Z" fill="#737584"/>
<path d="M40 38.2119C39.7211 38.2119 39.4995 38.3699 39.3613 38.5244C39.2232 38.6789 39.1303 38.8501 39.0449 39.0381C38.8741 39.414 38.7423 39.8648 38.6172 40.3252C38.492 40.7856 38.3764 41.2524 38.2637 41.6221C38.1509 41.9917 37.9824 42.2803 38.0137 42.249C38.045 42.2177 37.7564 42.3863 37.3867 42.499C37.0171 42.6118 36.5502 42.7274 36.0898 42.8525C35.6295 42.9777 35.1786 43.1094 34.8027 43.2803C34.6148 43.3657 34.4436 43.4586 34.2891 43.5967C34.1346 43.7348 33.9766 43.9564 33.9766 44.2354C33.9766 44.5143 34.1346 44.7359 34.2891 44.874C34.4436 45.0122 34.6148 45.105 34.8027 45.1904C35.1786 45.3613 35.6295 45.493 36.0898 45.6182C36.5502 45.7433 37.0171 45.8589 37.3867 45.9717C37.7564 46.0844 38.045 46.253 38.0137 46.2217C37.9824 46.1904 38.1509 46.479 38.2637 46.8486C38.3764 47.2183 38.492 47.6851 38.6172 48.1455C38.7423 48.6059 38.8741 49.0567 39.0449 49.4326C39.1303 49.6206 39.2232 49.7918 39.3613 49.9463C39.4995 50.1008 39.7211 50.2588 40 50.2588C40.2789 50.2588 40.5005 50.1008 40.6387 49.9463C40.7768 49.7918 40.8697 49.6206 40.9551 49.4326C41.1259 49.0567 41.2577 48.6059 41.3828 48.1455C41.508 47.6851 41.6236 47.2183 41.7363 46.8486C41.8491 46.479 42.0176 46.1904 41.9863 46.2217C41.955 46.253 42.2436 46.0844 42.6133 45.9717C42.9829 45.8589 43.4498 45.7433 43.9102 45.6182C44.3705 45.493 44.8214 45.3613 45.1973 45.1904C45.3852 45.105 45.5564 45.0122 45.7109 44.874C45.8654 44.7359 46.0234 44.5143 46.0234 44.2354C46.0234 43.9564 45.8654 43.7348 45.7109 43.5967C45.5564 43.4586 45.3852 43.3657 45.1973 43.2803C44.8214 43.1094 44.3705 42.9777 43.9102 42.8525C43.4498 42.7274 42.9829 42.6118 42.6133 42.499C42.2436 42.3863 41.955 42.2177 41.9863 42.249C42.0176 42.2803 41.8491 41.9917 41.7363 41.6221C41.6236 41.2524 41.508 40.7856 41.3828 40.3252C41.2577 39.8648 41.1259 39.414 40.9551 39.0381C40.8697 38.8501 40.7768 38.6789 40.6387 38.5244C40.5005 38.3699 40.2789 38.2119 40 38.2119ZM40 39.374C40.0175 39.4065 40.0267 39.412 40.0449 39.4521C40.1675 39.7219 40.297 40.1418 40.418 40.5869C40.539 41.0321 40.6542 41.5029 40.7793 41.9131C40.9044 42.3233 40.9795 42.6563 41.2793 42.9561C41.5791 43.2558 41.9121 43.331 42.3223 43.4561C42.7324 43.5812 43.2033 43.6964 43.6484 43.8174C44.0936 43.9384 44.5135 44.0678 44.7832 44.1904C44.8233 44.2087 44.8289 44.2179 44.8613 44.2354C44.8289 44.2528 44.8233 44.262 44.7832 44.2803C44.5135 44.4029 44.0936 44.5323 43.6484 44.6533C43.2033 44.7743 42.7324 44.8896 42.3223 45.0146C41.9121 45.1397 41.5791 45.2149 41.2793 45.5146C40.9795 45.8144 40.9044 46.1474 40.7793 46.5576C40.6542 46.9678 40.539 47.4386 40.418 47.8838C40.297 48.3289 40.1675 48.7489 40.0449 49.0186C40.0267 49.0587 40.0175 49.0642 40 49.0967C39.9825 49.0642 39.9733 49.0587 39.9551 49.0186C39.8325 48.7489 39.703 48.3289 39.582 47.8838C39.461 47.4386 39.3458 46.9678 39.2207 46.5576C39.0956 46.1474 39.0205 45.8144 38.7207 45.5146C38.4209 45.2149 38.0879 45.1397 37.6777 45.0146C37.2676 44.8896 36.7967 44.7743 36.3516 44.6533C35.9064 44.5323 35.4865 44.4029 35.2168 44.2803C35.1767 44.262 35.1711 44.2528 35.1387 44.2354C35.1711 44.2179 35.1767 44.2087 35.2168 44.1904C35.4865 44.0678 35.9064 43.9384 36.3516 43.8174C36.7967 43.6964 37.2676 43.5812 37.6777 43.4561C38.0879 43.331 38.4209 43.2558 38.7207 42.9561C39.0205 42.6563 39.0956 42.3233 39.2207 41.9131C39.3458 41.5029 39.461 41.0321 39.582 40.5869C39.703 40.1418 39.8325 39.7219 39.9551 39.4521C39.9733 39.412 39.9825 39.4065 40 39.374Z" fill="#737584"/>
<defs>
<filter id="filter0_f_2490_39508" x="0" y="0.235352" width="167" height="167" filterUnits="userSpaceOnUse" color-interpolation-filters="sRGB">
<feFlood flood-opacity="0" result="BackgroundImageFix"/>
<feBlend mode="normal" in="SourceGraphic" in2="BackgroundImageFix" result="shape"/>
<feGaussianBlur stdDeviation="12" result="effect1_foregroundBlur_2490_39508"/>
</filter>
</defs>
</svg>
