<svg width="84" height="84" viewBox="0 0 84 84" fill="none" xmlns="http://www.w3.org/2000/svg">
<g opacity="0.12" filter="url(#filter0_f_2490_39346)">
<circle cx="42.25" cy="41.75" r="29.75" fill="#AE55F7"/>
</g>
<circle opacity="0.12" cx="42.25" cy="41.75" r="29.75" fill="white"/>
<path opacity="0.2" d="M41.5977 33C38.2737 33 34.5977 35.676 34.5977 39V43V44V45.0039C33.4832 45.0374 32.5937 45.9488 32.5938 47.0782V48.3086C32.5938 48.6922 32.8999 49 33.2813 49H34.5977H48.5977H50.0352C50.4165 49 50.7266 48.6922 50.7266 48.3086V47.0782C50.7266 45.9275 49.8041 45.0001 48.6602 45.0001H48.5977V44V43V39C48.5977 35.676 44.9217 33 41.5977 33Z" fill="#EEEEF0"/>
<path d="M48.6031 30.0038C48.4459 30.0032 48.2908 30.0397 48.1503 30.1103C48.0098 30.1809 47.8879 30.2837 47.7945 30.4102C47.6387 30.6238 47.5738 30.8904 47.6141 31.1518C47.6543 31.4131 47.7965 31.6479 48.0094 31.8047C50.9796 33.9837 51.3874 37.2632 51.5992 41.0547C51.6062 41.186 51.6391 41.3148 51.6959 41.4334C51.7527 41.5521 51.8324 41.6584 51.9304 41.7462C52.0284 41.834 52.1427 41.9017 52.2669 41.9452C52.391 41.9888 52.5226 42.0074 52.6539 42C52.7853 41.993 52.914 41.9601 53.0327 41.9033C53.1514 41.8465 53.2577 41.7668 53.3455 41.6689C53.4333 41.5709 53.5009 41.4565 53.5445 41.3324C53.588 41.2082 53.6066 41.0767 53.5992 40.9453C53.3826 37.0668 52.8712 32.8965 49.1891 30.1953C49.0188 30.0714 48.8137 30.0044 48.6031 30.0038ZM34.4899 30.0078C34.3161 30.0272 34.1504 30.0918 34.0094 30.1953C30.3273 32.8965 29.8159 37.0668 29.5992 40.9453C29.5918 41.0767 29.6105 41.2082 29.654 41.3324C29.6976 41.4565 29.7652 41.5709 29.853 41.6689C29.9408 41.7668 30.0471 41.8465 30.1658 41.9033C30.2844 41.9601 30.4132 41.993 30.5445 42C30.6759 42.0074 30.8074 41.9888 30.9316 41.9452C31.0558 41.9017 31.1701 41.834 31.2681 41.7462C31.3661 41.6584 31.4457 41.5521 31.5026 41.4334C31.5594 41.3148 31.5922 41.186 31.5992 41.0547C31.811 37.2632 32.2189 33.9837 35.1891 31.8047C35.402 31.6479 35.5441 31.4131 35.5844 31.1518C35.6246 30.8904 35.5598 30.6238 35.4039 30.4102C35.2478 30.1962 35.0132 30.0529 34.7516 30.0117C34.6649 29.9989 34.5769 29.9977 34.4899 30.0078ZM41.5992 31.9961C39.6712 31.9961 37.7343 32.7455 36.2242 33.9726C34.7142 35.1998 33.5992 36.9661 33.5992 39V43V44V44.4296C32.4886 44.8933 31.5992 45.8013 31.5992 47.0781V48.3086C31.5992 49.229 32.3679 50.0039 33.2828 50.0039H34.5992H37.5992C37.5999 51.169 37.9073 52.2221 38.6422 52.957C39.3779 53.6927 40.4326 54 41.5992 54C42.7659 54 43.8206 53.6927 44.5563 52.957C45.2911 52.2221 45.5985 51.169 45.5992 50.0039H48.5992H50.0367C50.9516 50.0039 51.7242 49.2358 51.7242 48.3086V47.0781C51.7242 45.7539 50.7715 44.8184 49.5953 44.3867V44V43V39C49.5953 36.9661 48.4804 35.1998 46.9703 33.9726C45.4603 32.7455 43.5273 31.9961 41.5992 31.9961ZM41.5992 34.0039C42.9952 34.0039 44.5614 34.5933 45.7203 35.5351C46.8793 36.477 47.6031 37.7098 47.6031 39V43V44V46.0039H48.6617C49.2698 46.0039 49.732 46.4666 49.732 47.0781V47.9999H48.5992H44.5992H38.5992H34.5992H33.5914V47.0781C33.5914 46.4785 34.0361 46.0216 34.6266 46.0039L35.5953 45.9765V44V43V39C35.5953 37.7098 36.3192 36.477 37.4781 35.5351C38.6371 34.5933 40.2033 34.0039 41.5992 34.0039ZM39.5992 50.0039H43.5992C43.5986 50.8345 43.4061 51.2791 43.1422 51.543C42.8779 51.8072 42.4326 52 41.5992 52C40.7659 52 40.3206 51.8072 40.0563 51.543C39.7924 51.2791 39.5999 50.8345 39.5992 50.0039Z" fill="#EEEEF0"/>
<path opacity="0.2" d="M52.25 13C52.25 13.1642 52.2177 13.3267 52.1548 13.4784C52.092 13.63 52 13.7678 51.8839 13.8839C51.7678 14 51.63 14.092 51.4784 14.1548C51.3267 14.2177 51.1642 14.25 51 14.25C50.8358 14.25 50.6733 14.2177 50.5216 14.1548C50.37 14.092 50.2322 14 50.1161 13.8839C50 13.7678 49.908 13.63 49.8452 13.4784C49.7823 13.3267 49.75 13.1642 49.75 13C49.75 12.8358 49.7823 12.6733 49.8452 12.5216C49.908 12.37 50 12.2322 50.1161 12.1161C50.2322 12 50.37 11.908 50.5216 11.8452C50.6733 11.7823 50.8358 11.75 51 11.75C51.1642 11.75 51.3267 11.7823 51.4784 11.8452C51.63 11.908 51.7678 12 51.8839 12.1161C52 12.2322 52.092 12.37 52.1548 12.5216C52.2177 12.6733 52.25 12.8358 52.25 13Z" fill="#737584"/>
<path d="M51 11.5C50.1745 11.5 49.5 12.1745 49.5 13C49.5 13.8255 50.1745 14.5 51 14.5C51.8255 14.5 52.5 13.8255 52.5 13C52.5 12.1745 51.8255 11.5 51 11.5ZM51 12C51.5552 12 52 12.4448 52 13C52 13.5552 51.5552 14 51 14C50.4448 14 50 13.5552 50 13C50 12.4448 50.4448 12 51 12Z" fill="#737584"/>
<path opacity="0.2" d="M71.5 40.25C70.5335 40.25 69.75 41.0335 69.75 42C69.75 42.9665 70.5335 43.75 71.5 43.75C72.4665 43.75 73.25 42.9665 73.25 42C73.25 41.0335 72.4665 40.25 71.5 40.25Z" fill="#737584"/>
<path d="M71.5 40C70.3984 40 69.5 40.8984 69.5 42C69.5 43.1016 70.3984 44 71.5 44C72.6016 44 73.5 43.1016 73.5 42C73.5 40.8984 72.6016 40 71.5 40ZM71.5 40.5C72.3314 40.5 73 41.1686 73 42C73 42.8314 72.3314 43.5 71.5 43.5C70.6686 43.5 70 42.8314 70 42C70 41.1686 70.6686 40.5 71.5 40.5Z" fill="#737584"/>
<path opacity="0.2" d="M23 63.25C22.6612 63.25 22.517 64.0343 22.2775 64.2733C22.038 64.5123 21.25 64.662 21.25 65C21.25 65.338 22.038 65.4877 22.2775 65.7267C22.517 65.9657 22.6612 66.75 23 66.75C23.3388 66.75 23.4947 65.9657 23.7342 65.7267C23.9738 65.4877 24.75 65.338 24.75 65C24.75 64.662 23.9738 64.5123 23.7342 64.2733C23.4947 64.0343 23.3388 63.25 23 63.25Z" fill="#737584"/>
<path d="M23 63.25C22.6612 63.25 22.517 64.0343 22.2775 64.2733C22.038 64.5123 21.25 64.662 21.25 65C21.25 65.338 22.038 65.4877 22.2775 65.7267C22.517 65.9657 22.6612 66.75 23 66.75C23.3388 66.75 23.4947 65.9657 23.7342 65.7267C23.9738 65.4877 24.75 65.338 24.75 65C24.75 64.662 23.9738 64.5123 23.7342 64.2733C23.4947 64.0343 23.3388 63.25 23 63.25Z" stroke="#737584" stroke-width="0.5" stroke-linejoin="round"/>
<path opacity="0.2" d="M23 63.25C22.6612 63.25 22.517 64.0343 22.2775 64.2733C22.038 64.5123 21.25 64.662 21.25 65C21.25 65.338 22.038 65.4877 22.2775 65.7267C22.517 65.9657 22.6612 66.75 23 66.75C23.3388 66.75 23.4947 65.9657 23.7342 65.7267C23.9738 65.4877 24.75 65.338 24.75 65C24.75 64.662 23.9738 64.5123 23.7342 64.2733C23.4947 64.0343 23.3388 63.25 23 63.25Z" fill="#737584"/>
<path d="M23 63.25C22.6612 63.25 22.517 64.0343 22.2775 64.2733C22.038 64.5123 21.25 64.662 21.25 65C21.25 65.338 22.038 65.4877 22.2775 65.7267C22.517 65.9657 22.6612 66.75 23 66.75C23.3388 66.75 23.4947 65.9657 23.7342 65.7267C23.9738 65.4877 24.75 65.338 24.75 65C24.75 64.662 23.9738 64.5123 23.7342 64.2733C23.4947 64.0343 23.3388 63.25 23 63.25Z" stroke="#737584" stroke-width="0.5" stroke-linejoin="round"/>
<path opacity="0.2" d="M13.5 24.9766C12.7406 24.9766 12.4042 28.3302 11.8672 28.8672C11.3302 29.4042 7.97656 29.7406 7.97656 30.5C7.97656 31.2594 11.3302 31.5958 11.8672 32.1328C12.4042 32.6698 12.7406 36.0234 13.5 36.0234C14.2594 36.0234 14.5958 32.6698 15.1328 32.1328C15.6698 31.5958 19.0234 31.2594 19.0234 30.5C19.0234 29.7406 15.6698 29.4042 15.1328 28.8672C14.5958 28.3302 14.2594 24.9766 13.5 24.9766Z" fill="#737584"/>
<path d="M13.5 24.4766C13.2211 24.4766 12.9995 24.6346 12.8613 24.7891C12.7232 24.9436 12.6303 25.1148 12.5449 25.3027C12.3741 25.6786 12.2423 26.1295 12.1172 26.5898C11.992 27.0502 11.8764 27.5171 11.7637 27.8867C11.6509 28.2564 11.4824 28.545 11.5137 28.5137C11.545 28.4824 11.2564 28.6509 10.8867 28.7637C10.5171 28.8764 10.0502 28.992 9.58984 29.1172C9.12946 29.2423 8.67862 29.3741 8.30273 29.5449C8.11479 29.6303 7.94355 29.7232 7.78906 29.8613C7.63457 29.9995 7.47656 30.2211 7.47656 30.5C7.47656 30.7789 7.63457 31.0005 7.78906 31.1387C7.94355 31.2768 8.11479 31.3697 8.30273 31.4551C8.67862 31.6259 9.12946 31.7577 9.58984 31.8828C10.0502 32.008 10.5171 32.1236 10.8867 32.2363C11.2564 32.3491 11.545 32.5176 11.5137 32.4863C11.4824 32.455 11.6509 32.7436 11.7637 33.1133C11.8764 33.4829 11.992 33.9498 12.1172 34.4102C12.2423 34.8705 12.3741 35.3214 12.5449 35.6973C12.6303 35.8852 12.7232 36.0564 12.8613 36.2109C12.9995 36.3654 13.2211 36.5234 13.5 36.5234C13.7789 36.5234 14.0005 36.3654 14.1387 36.2109C14.2768 36.0564 14.3697 35.8852 14.4551 35.6973C14.6259 35.3214 14.7577 34.8705 14.8828 34.4102C15.008 33.9498 15.1236 33.4829 15.2363 33.1133C15.3491 32.7436 15.5176 32.455 15.4863 32.4863C15.455 32.5176 15.7436 32.3491 16.1133 32.2363C16.4829 32.1236 16.9498 32.008 17.4102 31.8828C17.8705 31.7577 18.3214 31.6259 18.6973 31.4551C18.8852 31.3697 19.0564 31.2768 19.2109 31.1387C19.3654 31.0005 19.5234 30.7789 19.5234 30.5C19.5234 30.2211 19.3654 29.9995 19.2109 29.8613C19.0564 29.7232 18.8852 29.6303 18.6973 29.5449C18.3214 29.3741 17.8705 29.2423 17.4102 29.1172C16.9498 28.992 16.4829 28.8764 16.1133 28.7637C15.7436 28.6509 15.455 28.4824 15.4863 28.5137C15.5176 28.545 15.3491 28.2564 15.2363 27.8867C15.1236 27.5171 15.008 27.0502 14.8828 26.5898C14.7577 26.1295 14.6259 25.6786 14.4551 25.3027C14.3697 25.1148 14.2768 24.9436 14.1387 24.7891C14.0005 24.6346 13.7789 24.4766 13.5 24.4766ZM13.5 25.6387C13.5175 25.6711 13.5267 25.6767 13.5449 25.7168C13.6675 25.9865 13.797 26.4064 13.918 26.8516C14.039 27.2967 14.1542 27.7676 14.2793 28.1777C14.4044 28.5879 14.4795 28.9209 14.7793 29.2207C15.0791 29.5205 15.4121 29.5956 15.8223 29.7207C16.2324 29.8458 16.7033 29.961 17.1484 30.082C17.5936 30.203 18.0135 30.3325 18.2832 30.4551C18.3233 30.4733 18.3289 30.4825 18.3613 30.5C18.3289 30.5175 18.3233 30.5267 18.2832 30.5449C18.0135 30.6675 17.5936 30.797 17.1484 30.918C16.7033 31.039 16.2324 31.1542 15.8223 31.2793C15.4121 31.4044 15.0791 31.4795 14.7793 31.7793C14.4795 32.0791 14.4044 32.4121 14.2793 32.8223C14.1542 33.2324 14.039 33.7033 13.918 34.1484C13.797 34.5936 13.6675 35.0135 13.5449 35.2832C13.5267 35.3233 13.5175 35.3289 13.5 35.3613C13.4825 35.3289 13.4733 35.3233 13.4551 35.2832C13.3325 35.0135 13.203 34.5936 13.082 34.1484C12.961 33.7033 12.8458 33.2324 12.7207 32.8223C12.5956 32.4121 12.5205 32.0791 12.2207 31.7793C11.9209 31.4795 11.5879 31.4044 11.1777 31.2793C10.7676 31.1542 10.2967 31.039 9.85156 30.918C9.40641 30.797 8.9865 30.6675 8.7168 30.5449C8.67667 30.5267 8.67111 30.5175 8.63867 30.5C8.67111 30.4825 8.67667 30.4733 8.7168 30.4551C8.9865 30.3325 9.40641 30.203 9.85156 30.082C10.2967 29.961 10.7676 29.8458 11.1777 29.7207C11.5879 29.5956 11.9209 29.5205 12.2207 29.2207C12.5205 28.9209 12.5956 28.5879 12.7207 28.1777C12.8458 27.7676 12.961 27.2967 13.082 26.8516C13.203 26.4064 13.3325 25.9865 13.4551 25.7168C13.4733 25.6767 13.4825 25.6711 13.5 25.6387Z" fill="#737584"/>
<defs>
<filter id="filter0_f_2490_39346" x="0.5" y="0" width="83.5" height="83.5" filterUnits="userSpaceOnUse" color-interpolation-filters="sRGB">
<feFlood flood-opacity="0" result="BackgroundImageFix"/>
<feBlend mode="normal" in="SourceGraphic" in2="BackgroundImageFix" result="shape"/>
<feGaussianBlur stdDeviation="6" result="effect1_foregroundBlur_2490_39346"/>
</filter>
</defs>
</svg>
