<svg width="1045" height="281" viewBox="0 0 1045 281" fill="none" xmlns="http://www.w3.org/2000/svg">
<g clip-path="url(#clip0_2490_46630)">
<g opacity="0.62">
<g filter="url(#filter0_f_2490_46630)">
<ellipse cx="-269.5" cy="142" rx="1065.5" ry="4" fill="url(#paint0_linear_2490_46630)"/>
</g>
<g filter="url(#filter1_f_2490_46630)">
<ellipse cx="-269.501" cy="142" rx="537.273" ry="1" fill="white"/>
</g>
</g>
</g>
<g filter="url(#filter2_d_2490_46630)">
<g opacity="0.4">
<path d="M515.124 158.315C515.772 158.548 515.431 159.494 514.755 159.365C505.703 157.631 496.067 158.364 486.862 162.004C483.73 163.243 480.792 164.761 478.064 166.519C477.995 166.563 477.92 166.598 477.841 166.621C471.251 168.537 465.154 171.612 459.785 175.61C459.006 176.19 457.994 175.281 458.594 174.518C463.909 167.749 471.035 162.258 479.616 158.865C491.459 154.181 504.016 154.31 515.124 158.315Z" fill="url(#paint1_linear_2490_46630)"/>
<path d="M455.881 224.238C455.937 223.32 457.21 223.234 457.492 224.11C457.828 225.151 458.199 226.189 458.607 227.221C462.248 236.427 468.303 243.958 475.759 249.375C476.316 249.78 475.859 250.676 475.245 250.363C467.783 246.557 461.245 240.885 456.404 233.681C456.335 233.58 456.29 233.464 456.272 233.343C455.962 231.243 455.801 229.094 455.801 226.905C455.801 226.01 455.828 225.12 455.881 224.238Z" fill="url(#paint2_linear_2490_46630)"/>
<path d="M544.606 178.517C544.591 178.368 544.536 178.227 544.446 178.108C539.785 171.879 533.803 166.924 527.068 163.489C526.455 163.176 525.997 164.072 526.554 164.477C534.01 169.895 540.066 177.426 543.706 186.631C543.908 187.141 544.658 187.052 544.702 186.505C544.792 185.361 544.837 184.205 544.837 183.038C544.837 181.511 544.759 180.002 544.606 178.517Z" fill="url(#paint3_linear_2490_46630)"/>
<path d="M534.826 238.257C534.744 238.304 534.669 238.364 534.607 238.435C529.532 244.175 523.064 248.838 515.452 251.848C506.246 255.489 496.61 256.222 487.559 254.487C486.883 254.358 486.542 255.304 487.189 255.538C498.297 259.542 510.854 259.671 522.698 254.988C535.87 249.779 545.615 239.623 550.643 227.496C551.002 226.631 549.859 225.995 549.233 226.692C545.105 231.284 540.24 235.201 534.826 238.257Z" fill="url(#paint4_linear_2490_46630)"/>
<path fill-rule="evenodd" clip-rule="evenodd" d="M501.591 221.321C510.843 221.321 518.343 213.821 518.343 204.569C518.343 195.316 510.843 187.816 501.591 187.816C492.339 187.816 484.838 195.316 484.838 204.569C484.838 213.821 492.339 221.321 501.591 221.321ZM501.591 219.087C509.609 219.087 516.11 212.587 516.11 204.569C516.11 196.55 509.609 190.05 501.591 190.05C493.572 190.05 487.072 196.55 487.072 204.569C487.072 212.587 493.572 219.087 501.591 219.087Z" fill="url(#paint5_linear_2490_46630)"/>
</g>
<g opacity="0.9">
<path d="M477.446 227.295C476.537 226.805 475.576 227.968 476.397 228.595C484.85 235.047 495.41 238.88 506.865 238.88C534.621 238.88 557.123 216.379 557.123 188.622C557.123 177.167 553.29 166.607 546.837 158.154C546.211 157.333 545.048 158.294 545.538 159.203C549.366 166.296 551.538 174.413 551.538 183.038C551.538 210.795 529.037 233.296 501.281 233.296C492.656 233.296 484.539 231.123 477.446 227.295Z" fill="url(#paint6_linear_2490_46630)"/>
<path d="M523.192 182.648C524.101 183.138 525.062 181.975 524.241 181.349C515.789 174.896 505.228 171.063 493.773 171.063C466.017 171.063 443.516 193.564 443.516 221.321C443.516 232.776 447.348 243.336 453.801 251.789C454.428 252.61 455.591 251.649 455.1 250.74C451.272 243.647 449.1 235.53 449.1 226.905C449.1 199.149 471.601 176.648 499.357 176.648C507.982 176.648 516.1 178.82 523.192 182.648Z" fill="url(#paint7_linear_2490_46630)"/>
</g>
<g opacity="0.8">
<path d="M478.695 139.234C478.695 140.467 477.695 141.467 476.461 141.467C475.227 141.467 474.227 140.467 474.227 139.234C474.227 138 475.227 137 476.461 137C477.695 137 478.695 138 478.695 139.234Z" fill="url(#paint8_linear_2490_46630)"/>
<path d="M523.63 141.777C523.354 142.62 523.094 143.417 522.81 143.701C522.526 143.986 521.728 144.246 520.885 144.521C519.662 144.921 518.342 145.352 518.342 145.935C518.342 146.518 519.662 146.949 520.885 147.348C521.728 147.623 522.526 147.884 522.81 148.168C523.094 148.453 523.354 149.249 523.63 150.092C524.029 151.315 524.461 152.636 525.043 152.636C525.626 152.636 526.058 151.315 526.457 150.092C526.733 149.249 526.993 148.453 527.277 148.168C527.561 147.884 528.358 147.623 529.202 147.348C530.424 146.949 531.744 146.518 531.744 145.935C531.744 145.352 530.424 144.921 529.202 144.521C528.358 144.246 527.561 143.986 527.277 143.701C526.993 143.417 526.733 142.62 526.457 141.777C526.058 140.554 525.626 139.234 525.043 139.234C524.461 139.234 524.029 140.554 523.63 141.777Z" fill="url(#paint9_linear_2490_46630)"/>
<path d="M473.931 261.837C473.655 262.68 473.395 263.477 473.111 263.761C472.827 264.046 472.029 264.306 471.186 264.581C469.964 264.981 468.643 265.412 468.643 265.995C468.643 266.578 469.963 267.009 471.186 267.408C472.029 267.683 472.827 267.944 473.111 268.228C473.395 268.513 473.655 269.309 473.931 270.153C474.33 271.375 474.762 272.696 475.344 272.696C475.927 272.696 476.359 271.375 476.758 270.153C477.034 269.309 477.294 268.513 477.578 268.228C477.862 267.944 478.659 267.683 479.503 267.408C480.725 267.009 482.046 266.578 482.046 265.995C482.046 265.412 480.725 264.981 479.503 264.581C478.66 264.306 477.862 264.046 477.578 263.761C477.294 263.477 477.034 262.68 476.758 261.837C476.359 260.614 475.927 259.294 475.344 259.294C474.762 259.294 474.33 260.614 473.931 261.837Z" fill="url(#paint10_linear_2490_46630)"/>
<path d="M549.464 258.331C549.663 257.72 549.879 257.06 550.17 257.06C550.462 257.06 550.678 257.72 550.877 258.331C551.015 258.753 551.145 259.151 551.287 259.293C551.429 259.436 551.828 259.566 552.25 259.704C552.861 259.903 553.521 260.119 553.521 260.41C553.521 260.702 552.861 260.917 552.25 261.117C551.828 261.255 551.429 261.385 551.287 261.527C551.145 261.669 551.015 262.067 550.877 262.489C550.678 263.1 550.462 263.761 550.17 263.761C549.879 263.761 549.663 263.1 549.464 262.489C549.326 262.068 549.196 261.669 549.054 261.527C548.912 261.385 548.513 261.255 548.091 261.117C547.48 260.917 546.82 260.702 546.82 260.41C546.82 260.119 547.48 259.903 548.091 259.704C548.513 259.566 548.912 259.436 549.054 259.293C549.196 259.151 549.326 258.753 549.464 258.331Z" fill="url(#paint11_linear_2490_46630)"/>
<path d="M464.586 205.84C464.448 206.262 464.318 206.66 464.176 206.802C464.034 206.944 463.635 207.075 463.213 207.212C462.602 207.412 461.942 207.627 461.942 207.919C461.942 208.21 462.602 208.426 463.213 208.626C463.635 208.763 464.034 208.894 464.176 209.036C464.318 209.178 464.448 209.576 464.586 209.998C464.786 210.609 465.002 211.269 465.293 211.269C465.584 211.269 465.8 210.609 466 209.998C466.137 209.576 466.268 209.178 466.41 209.036C466.552 208.894 466.95 208.763 467.372 208.626C467.983 208.426 468.643 208.21 468.643 207.919C468.643 207.627 467.983 207.412 467.372 207.212C466.95 207.075 466.552 206.944 466.41 206.802C466.268 206.66 466.137 206.262 466 205.84C465.8 205.229 465.584 204.568 465.293 204.568C465.002 204.568 464.786 205.229 464.586 205.84Z" fill="url(#paint12_linear_2490_46630)"/>
<path d="M536.063 199.139C536.263 198.528 536.479 197.867 536.77 197.867C537.061 197.867 537.277 198.528 537.477 199.139C537.615 199.561 537.745 199.959 537.887 200.101C538.029 200.243 538.428 200.373 538.85 200.511C539.461 200.711 540.121 200.926 540.121 201.218C540.121 201.509 539.461 201.725 538.85 201.924C538.428 202.062 538.029 202.192 537.887 202.335C537.745 202.477 537.615 202.875 537.477 203.297C537.277 203.908 537.061 204.568 536.77 204.568C536.479 204.568 536.263 203.908 536.063 203.297C535.926 202.875 535.795 202.477 535.653 202.335C535.511 202.192 535.113 202.062 534.691 201.924C534.08 201.725 533.42 201.509 533.42 201.218C533.42 200.926 534.08 200.711 534.691 200.511C535.113 200.373 535.511 200.243 535.653 200.101C535.795 199.959 535.926 199.56 536.063 199.139Z" fill="url(#paint13_linear_2490_46630)"/>
<path d="M447.833 152.232C447.695 152.653 447.565 153.052 447.423 153.194C447.281 153.336 446.882 153.466 446.461 153.604C445.849 153.804 445.189 154.019 445.189 154.311C445.189 154.602 445.849 154.818 446.461 155.017C446.882 155.155 447.281 155.285 447.423 155.428C447.565 155.57 447.695 155.968 447.833 156.39C448.033 157.001 448.249 157.661 448.54 157.661C448.831 157.661 449.047 157.001 449.247 156.39C449.385 155.968 449.515 155.57 449.657 155.428C449.799 155.285 450.197 155.155 450.619 155.017C451.23 154.818 451.89 154.602 451.89 154.311C451.89 154.019 451.23 153.804 450.619 153.604C450.197 153.466 449.799 153.336 449.657 153.194C449.515 153.052 449.385 152.653 449.247 152.232C449.047 151.621 448.831 150.96 448.54 150.96C448.249 150.96 448.033 151.621 447.833 152.232Z" fill="url(#paint14_linear_2490_46630)"/>
<path d="M498.24 204.568C498.24 206.419 499.74 207.919 501.59 207.919C503.441 207.919 504.941 206.419 504.941 204.568C504.941 202.718 503.441 201.218 501.59 201.218C499.74 201.218 498.24 202.718 498.24 204.568Z" fill="url(#paint15_linear_2490_46630)"/>
<path d="M474.228 196.75C475.461 196.75 476.461 195.75 476.461 194.517C476.461 193.283 475.461 192.283 474.228 192.283C472.994 192.283 471.994 193.283 471.994 194.517C471.994 195.75 472.994 196.75 474.228 196.75Z" fill="url(#paint16_linear_2490_46630)"/>
<path d="M522.81 274.929C524.044 274.929 525.044 273.929 525.044 272.696C525.044 271.462 524.044 270.462 522.81 270.462C521.576 270.462 520.576 271.462 520.576 272.696C520.576 273.929 521.576 274.929 522.81 274.929Z" fill="url(#paint17_linear_2490_46630)"/>
<path d="M582 204.568C582 207.036 580 209.036 577.533 209.036C575.066 209.036 573.066 207.036 573.066 204.568C573.066 202.101 575.066 200.101 577.533 200.101C580 200.101 582 202.101 582 204.568Z" fill="url(#paint18_linear_2490_46630)"/>
<path d="M527.277 217.412C528.511 217.412 529.511 216.412 529.511 215.179C529.511 213.945 528.511 212.945 527.277 212.945C526.044 212.945 525.044 213.945 525.044 215.179C525.044 216.412 526.044 217.412 527.277 217.412Z" fill="url(#paint19_linear_2490_46630)"/>
</g>
<path fill-rule="evenodd" clip-rule="evenodd" d="M231.492 241.039C225.604 241.039 220.282 239.681 215.526 236.963C210.77 234.245 206.996 230.547 204.203 225.866C201.485 221.186 200.051 215.902 199.9 210.014V155.322C199.9 154.265 200.202 153.435 200.806 152.831C201.485 152.227 202.316 151.925 203.297 151.925C204.354 151.925 205.184 152.227 205.788 152.831C206.392 153.435 206.694 154.265 206.694 155.322V190.651C209.11 186.725 212.469 183.593 216.772 181.252C221.15 178.912 226.057 177.742 231.492 177.742C237.531 177.742 242.929 179.139 247.684 181.932C252.516 184.649 256.29 188.386 259.008 193.142C261.801 197.898 263.197 203.295 263.197 209.334C263.197 215.373 261.801 220.809 259.008 225.64C256.29 230.396 252.516 234.17 247.684 236.963C242.929 239.681 237.531 241.039 231.492 241.039ZM231.492 234.698C236.248 234.698 240.475 233.604 244.174 231.415C247.949 229.15 250.93 226.13 253.12 222.356C255.309 218.506 256.403 214.165 256.403 209.334C256.403 204.503 255.309 200.2 253.12 196.426C250.93 192.651 247.949 189.669 244.174 187.48C240.475 185.216 236.248 184.083 231.492 184.083C226.812 184.083 222.584 185.216 218.81 187.48C215.036 189.669 212.054 192.651 209.865 196.426C207.751 200.2 206.694 204.503 206.694 209.334C206.694 214.165 207.751 218.506 209.865 222.356C212.054 226.13 215.036 229.15 218.81 231.415C222.584 233.604 226.812 234.698 231.492 234.698Z" fill="url(#paint20_linear_2490_46630)"/>
<path d="M161.964 179.976C171.157 180.292 180.013 184.761 185.671 192.606C186.251 193.411 186.797 194.255 187.308 195.133C187.318 195.153 187.327 195.173 187.335 195.194C187.347 195.221 187.359 195.249 187.374 195.276L187.357 195.246C187.458 195.423 187.54 195.602 187.608 195.782C188.002 197.005 187.526 198.376 186.343 199.059L152.133 218.81C150.771 219.596 149.095 219.148 148.309 217.786C147.522 216.424 147.971 214.748 149.333 213.962L177.206 197.869C179.029 196.817 179.429 194.108 177.852 192.615C172.758 187.792 165.86 185.412 158.971 185.959C155.435 186.24 151.897 187.295 148.628 189.183C145.691 190.879 143.227 193.097 141.298 195.649C141.083 195.934 140.873 196.225 140.67 196.52L140.666 196.526L140.664 196.528L140.663 196.53L140.641 196.561L140.61 196.607L140.609 196.608L140.588 196.64C135.441 204.208 134.748 214.365 139.62 222.802C144.491 231.24 153.633 235.718 162.76 235.045L162.788 235.043L162.809 235.042L162.811 235.041L162.816 235.041L162.847 235.039L162.853 235.038L162.858 235.038L162.889 235.036L163.229 235.009L163.265 234.995C166.678 234.672 170.083 233.633 173.239 231.811C179.71 228.075 183.859 221.817 185.13 214.995C185.143 214.925 185.156 214.852 185.169 214.778C185.436 213.369 186.157 212.212 187.169 211.628C188.266 210.995 189.419 211.067 190.202 211.486C190.985 211.905 191.422 212.467 191.3 213.633C190.321 223.034 185.02 231.84 176.197 236.934C161.573 245.376 142.939 240.384 134.496 225.76C126.581 212.051 130.491 194.811 143.044 185.758C143.88 185.155 144.756 184.588 145.67 184.06C150.811 181.092 156.448 179.786 161.964 179.976Z" fill="url(#paint21_linear_2490_46630)"/>
<path d="M115.439 229.028H115.485V237.773C115.485 239.577 116.947 241.039 118.751 241.039C120.556 241.039 122.018 239.577 122.018 237.773V209.991C122.018 195.351 110.15 183.482 95.5091 183.482C80.8685 183.482 69 195.351 69 209.991L69.0012 237.773C69.0012 239.577 70.4637 241.039 72.268 241.039C74.0722 241.039 75.5347 239.577 75.5347 237.773V237.665L75.603 236.87C75.5746 236.435 75.5602 235.996 75.5602 235.555V208.796C75.5602 197.784 84.4875 188.857 95.4997 188.857C106.512 188.857 115.439 197.784 115.439 208.796V229.028Z" fill="url(#paint22_linear_2490_46630)"/>
<path d="M318.013 195.493H318.058V186.749C318.058 184.945 319.521 183.482 321.325 183.482C323.129 183.482 324.592 184.945 324.592 186.749V214.53C324.592 229.171 312.723 241.04 298.083 241.04C283.442 241.04 271.573 229.171 271.573 214.53L271.575 186.749C271.575 184.945 273.037 183.482 274.841 183.482C276.646 183.482 278.108 184.945 278.108 186.749V186.857L278.176 187.652C278.148 188.087 278.134 188.526 278.134 188.967V215.726C278.134 226.738 287.061 235.665 298.073 235.665C309.085 235.665 318.013 226.738 318.013 215.726V195.493Z" fill="url(#paint23_linear_2490_46630)"/>
<path d="M347.688 241.04C344.82 241.04 342.253 240.247 339.989 238.662C337.799 237.076 336.063 234.887 334.78 232.094C333.572 229.301 332.968 226.055 332.968 222.356V156.002C332.968 154.945 333.27 154.114 333.874 153.51C334.553 152.907 335.384 152.605 336.365 152.605C337.422 152.605 338.252 152.907 338.856 153.51C339.46 154.114 339.762 154.945 339.762 156.002V222.356C339.762 225.829 340.479 228.697 341.913 230.962C343.423 233.151 345.348 234.246 347.688 234.246H350.519C351.35 234.246 352.029 234.548 352.557 235.152C353.086 235.755 353.35 236.586 353.35 237.643C353.35 238.624 353.048 239.454 352.444 240.134C351.84 240.738 351.01 241.04 349.953 241.04H347.688Z" fill="url(#paint24_linear_2490_46630)"/>
<path fill-rule="evenodd" clip-rule="evenodd" d="M377.126 236.963C381.957 239.681 387.393 241.04 393.432 241.04C398.942 241.04 403.849 239.87 408.152 237.529C412.39 235.15 415.749 231.965 418.23 227.975V236.963C418.23 237.945 418.532 238.775 419.136 239.454C419.815 240.058 420.645 240.36 421.627 240.36C422.684 240.36 423.514 240.058 424.118 239.454C424.722 238.775 425.024 237.945 425.024 236.963V209.448C425.024 203.408 423.627 198.011 420.834 193.255C418.117 188.424 414.38 184.65 409.624 181.932C404.868 179.139 399.471 177.742 393.432 177.742C387.393 177.742 381.957 179.139 377.126 181.932C372.37 184.65 368.596 188.424 365.803 193.255C363.085 198.011 361.726 203.408 361.726 209.448C361.726 215.411 363.085 220.809 365.803 225.64C368.596 230.396 372.37 234.17 377.126 236.963ZM406.114 231.415C402.415 233.604 398.188 234.699 393.432 234.699C388.751 234.699 384.524 233.604 380.75 231.415C376.975 229.15 373.993 226.131 371.804 222.356C369.615 218.506 368.52 214.203 368.52 209.448C368.52 204.616 369.615 200.313 371.804 196.539C373.993 192.689 376.975 189.67 380.75 187.48C384.524 185.216 388.751 184.083 393.432 184.083C398.188 184.083 402.415 185.216 406.114 187.48C409.888 189.67 412.832 192.689 414.946 196.539C417.135 200.313 418.23 204.616 418.23 209.448C418.23 214.203 417.135 218.506 414.946 222.356C412.832 226.131 409.888 229.15 406.114 231.415Z" fill="url(#paint25_linear_2490_46630)"/>
</g>
<mask id="mask0_2490_46630" style="mask-type:luminance" maskUnits="userSpaceOnUse" x="337" y="0" width="327" height="144">
<g clip-path="url(#clip1_2490_46630)">
<rect width="327" height="144" transform="translate(337)" fill="white"/>
<mask id="path-7-outside-1_2490_46630" maskUnits="userSpaceOnUse" x="63" y="80" width="376" height="56" fill="black">
<rect fill="white" x="63" y="80" width="376" height="56"/>
<path d="M81.448 94.328H67.368V87.032H103.464V94.328H89.448V131H81.448V94.328ZM127.891 97.144C130.28 97.144 132.392 97.6987 134.227 98.808C136.104 99.8747 137.555 101.389 138.579 103.352C139.646 105.272 140.179 107.469 140.179 109.944V131H132.563V111.48C132.563 109.219 131.923 107.384 130.643 105.976C129.363 104.525 127.699 103.8 125.651 103.8C123.39 103.8 121.47 104.504 119.891 105.912C118.355 107.277 117.587 108.963 117.587 110.968V131H109.779V86.264H117.587V102.392C118.611 100.813 120.04 99.5547 121.875 98.616C123.71 97.6347 125.715 97.144 127.891 97.144ZM176.722 97.912V131H168.85V126.648C167.826 128.227 166.397 129.485 164.562 130.424C162.77 131.32 160.786 131.768 158.61 131.768C156.221 131.768 154.087 131.235 152.21 130.168C150.375 129.059 148.925 127.544 147.858 125.624C146.834 123.661 146.322 121.443 146.322 118.968V97.912H153.874V117.432C153.874 119.693 154.514 121.549 155.794 123C157.117 124.408 158.802 125.112 160.85 125.112C163.111 125.112 165.01 124.429 166.546 123.064C168.082 121.656 168.85 119.949 168.85 117.944V97.912H176.722ZM202.009 97.144C204.398 97.144 206.531 97.6987 208.409 98.808C210.286 99.8747 211.737 101.389 212.761 103.352C213.827 105.272 214.361 107.469 214.361 109.944V131H206.745V111.48C206.745 109.219 206.083 107.384 204.761 105.976C203.481 104.525 201.817 103.8 199.769 103.8C197.507 103.8 195.609 104.504 194.073 105.912C192.537 107.277 191.769 108.963 191.769 110.968V131H183.961V97.912H191.769V102.264C192.793 100.685 194.201 99.448 195.993 98.552C197.827 97.6133 199.833 97.144 202.009 97.144ZM253.855 86.264V131H246.047V125.816C244.767 127.693 243.124 129.165 241.119 130.232C239.156 131.256 236.98 131.768 234.591 131.768C231.69 131.768 229.087 131.043 226.783 129.592C224.479 128.099 222.666 126.029 221.343 123.384C220.02 120.739 219.359 117.752 219.359 114.424C219.359 111.096 220.02 108.131 221.343 105.528C222.666 102.883 224.479 100.835 226.783 99.384C229.087 97.8907 231.69 97.144 234.591 97.144C236.98 97.144 239.156 97.6773 241.119 98.744C243.124 99.768 244.767 101.219 246.047 103.096V86.264H253.855ZM236.703 125.112C238.495 125.112 240.095 124.664 241.503 123.768C242.954 122.829 244.063 121.549 244.831 119.928C245.642 118.307 246.047 116.472 246.047 114.424C246.047 111.309 245.172 108.771 243.423 106.808C241.674 104.803 239.434 103.8 236.703 103.8C233.887 103.8 231.583 104.803 229.791 106.808C227.999 108.771 227.103 111.309 227.103 114.424C227.103 117.539 227.999 120.099 229.791 122.104C231.583 124.109 233.887 125.112 236.703 125.112ZM276.758 125.496C278.465 125.496 280.15 125.176 281.814 124.536C283.521 123.896 284.907 123.064 285.974 122.04L290.454 126.648C289.046 128.141 287.062 129.379 284.502 130.36C281.942 131.299 279.446 131.768 277.014 131.768C273.857 131.768 270.955 131.021 268.31 129.528C265.665 128.035 263.553 125.965 261.974 123.32C260.438 120.675 259.67 117.688 259.67 114.36C259.67 111.075 260.417 108.131 261.91 105.528C263.403 102.925 265.43 100.877 267.99 99.384C270.593 97.8907 273.451 97.144 276.566 97.144C281.643 97.144 285.611 98.8933 288.47 102.392C291.371 105.891 292.822 110.669 292.822 116.728H267.222C267.649 119.373 268.715 121.507 270.422 123.128C272.129 124.707 274.241 125.496 276.758 125.496ZM276.694 103.416C274.347 103.416 272.321 104.163 270.614 105.656C268.907 107.107 267.798 109.069 267.286 111.544H285.27C284.886 109.112 283.947 107.149 282.454 105.656C281.003 104.163 279.083 103.416 276.694 103.416ZM305.894 104.184C306.96 102.008 308.539 100.301 310.63 99.064C312.72 97.784 315.088 97.144 317.734 97.144V103.8C314.192 103.8 311.334 104.76 309.158 106.68C306.982 108.6 305.894 111.139 305.894 114.296V131H298.086V97.912H305.894V104.184ZM342.418 97.144C345.319 97.144 347.922 97.8907 350.226 99.384C352.53 100.835 354.343 102.883 355.666 105.528C356.989 108.131 357.65 111.096 357.65 114.424C357.65 117.752 356.989 120.739 355.666 123.384C354.343 126.029 352.53 128.099 350.226 129.592C347.922 131.043 345.319 131.768 342.418 131.768C340.029 131.768 337.831 131.256 335.826 130.232C333.863 129.165 332.242 127.693 330.962 125.816V131H323.154V86.264H330.962V103.096C332.242 101.219 333.863 99.768 335.826 98.744C337.831 97.6773 340.029 97.144 342.418 97.144ZM340.306 125.112C343.122 125.112 345.426 124.109 347.218 122.104C349.01 120.099 349.906 117.539 349.906 114.424C349.906 111.309 349.01 108.771 347.218 106.808C345.426 104.803 343.122 103.8 340.306 103.8C337.575 103.8 335.335 104.803 333.586 106.808C331.837 108.771 330.962 111.309 330.962 114.424C330.962 116.472 331.346 118.307 332.114 119.928C332.925 121.549 334.034 122.829 335.442 123.768C336.893 124.664 338.514 125.112 340.306 125.112ZM363.211 97.912H371.019V131H363.211V97.912ZM367.115 92.92C365.877 92.92 364.811 92.472 363.915 91.576C363.061 90.68 362.635 89.6347 362.635 88.44C362.635 87.2453 363.061 86.2213 363.915 85.368C364.811 84.472 365.877 84.024 367.115 84.024C368.309 84.024 369.333 84.472 370.187 85.368C371.04 86.2213 371.467 87.2453 371.467 88.44C371.467 89.6347 371.04 90.68 370.187 91.576C369.333 92.472 368.309 92.92 367.115 92.92ZM386.081 104.184C387.148 102.008 388.726 100.301 390.817 99.064C392.908 97.784 395.276 97.144 397.921 97.144V103.8C394.38 103.8 391.521 104.76 389.345 106.68C387.169 108.6 386.081 111.139 386.081 114.296V131H378.273V97.912H386.081V104.184ZM434.543 86.264V131H426.735V125.816C425.455 127.693 423.812 129.165 421.807 130.232C419.844 131.256 417.668 131.768 415.279 131.768C412.377 131.768 409.775 131.043 407.47 129.592C405.167 128.099 403.353 126.029 402.031 123.384C400.708 120.739 400.047 117.752 400.047 114.424C400.047 111.096 400.708 108.131 402.031 105.528C403.353 102.883 405.167 100.835 407.47 99.384C409.775 97.8907 412.377 97.144 415.279 97.144C417.668 97.144 419.844 97.6773 421.807 98.744C423.812 99.768 425.455 101.219 426.735 103.096V86.264H434.543ZM417.391 125.112C419.183 125.112 420.783 124.664 422.191 123.768C423.641 122.829 424.751 121.549 425.519 119.928C426.329 118.307 426.735 116.472 426.735 114.424C426.735 111.309 425.86 108.771 424.111 106.808C422.361 104.803 420.121 103.8 417.391 103.8C414.575 103.8 412.271 104.803 410.479 106.808C408.687 108.771 407.791 111.309 407.791 114.424C407.791 117.539 408.687 120.099 410.479 122.104C412.271 124.109 414.575 125.112 417.391 125.112Z"/>
</mask>
<path d="M81.448 94.328H67.368V87.032H103.464V94.328H89.448V131H81.448V94.328ZM127.891 97.144C130.28 97.144 132.392 97.6987 134.227 98.808C136.104 99.8747 137.555 101.389 138.579 103.352C139.646 105.272 140.179 107.469 140.179 109.944V131H132.563V111.48C132.563 109.219 131.923 107.384 130.643 105.976C129.363 104.525 127.699 103.8 125.651 103.8C123.39 103.8 121.47 104.504 119.891 105.912C118.355 107.277 117.587 108.963 117.587 110.968V131H109.779V86.264H117.587V102.392C118.611 100.813 120.04 99.5547 121.875 98.616C123.71 97.6347 125.715 97.144 127.891 97.144ZM176.722 97.912V131H168.85V126.648C167.826 128.227 166.397 129.485 164.562 130.424C162.77 131.32 160.786 131.768 158.61 131.768C156.221 131.768 154.087 131.235 152.21 130.168C150.375 129.059 148.925 127.544 147.858 125.624C146.834 123.661 146.322 121.443 146.322 118.968V97.912H153.874V117.432C153.874 119.693 154.514 121.549 155.794 123C157.117 124.408 158.802 125.112 160.85 125.112C163.111 125.112 165.01 124.429 166.546 123.064C168.082 121.656 168.85 119.949 168.85 117.944V97.912H176.722ZM202.009 97.144C204.398 97.144 206.531 97.6987 208.409 98.808C210.286 99.8747 211.737 101.389 212.761 103.352C213.827 105.272 214.361 107.469 214.361 109.944V131H206.745V111.48C206.745 109.219 206.083 107.384 204.761 105.976C203.481 104.525 201.817 103.8 199.769 103.8C197.507 103.8 195.609 104.504 194.073 105.912C192.537 107.277 191.769 108.963 191.769 110.968V131H183.961V97.912H191.769V102.264C192.793 100.685 194.201 99.448 195.993 98.552C197.827 97.6133 199.833 97.144 202.009 97.144ZM253.855 86.264V131H246.047V125.816C244.767 127.693 243.124 129.165 241.119 130.232C239.156 131.256 236.98 131.768 234.591 131.768C231.69 131.768 229.087 131.043 226.783 129.592C224.479 128.099 222.666 126.029 221.343 123.384C220.02 120.739 219.359 117.752 219.359 114.424C219.359 111.096 220.02 108.131 221.343 105.528C222.666 102.883 224.479 100.835 226.783 99.384C229.087 97.8907 231.69 97.144 234.591 97.144C236.98 97.144 239.156 97.6773 241.119 98.744C243.124 99.768 244.767 101.219 246.047 103.096V86.264H253.855ZM236.703 125.112C238.495 125.112 240.095 124.664 241.503 123.768C242.954 122.829 244.063 121.549 244.831 119.928C245.642 118.307 246.047 116.472 246.047 114.424C246.047 111.309 245.172 108.771 243.423 106.808C241.674 104.803 239.434 103.8 236.703 103.8C233.887 103.8 231.583 104.803 229.791 106.808C227.999 108.771 227.103 111.309 227.103 114.424C227.103 117.539 227.999 120.099 229.791 122.104C231.583 124.109 233.887 125.112 236.703 125.112ZM276.758 125.496C278.465 125.496 280.15 125.176 281.814 124.536C283.521 123.896 284.907 123.064 285.974 122.04L290.454 126.648C289.046 128.141 287.062 129.379 284.502 130.36C281.942 131.299 279.446 131.768 277.014 131.768C273.857 131.768 270.955 131.021 268.31 129.528C265.665 128.035 263.553 125.965 261.974 123.32C260.438 120.675 259.67 117.688 259.67 114.36C259.67 111.075 260.417 108.131 261.91 105.528C263.403 102.925 265.43 100.877 267.99 99.384C270.593 97.8907 273.451 97.144 276.566 97.144C281.643 97.144 285.611 98.8933 288.47 102.392C291.371 105.891 292.822 110.669 292.822 116.728H267.222C267.649 119.373 268.715 121.507 270.422 123.128C272.129 124.707 274.241 125.496 276.758 125.496ZM276.694 103.416C274.347 103.416 272.321 104.163 270.614 105.656C268.907 107.107 267.798 109.069 267.286 111.544H285.27C284.886 109.112 283.947 107.149 282.454 105.656C281.003 104.163 279.083 103.416 276.694 103.416ZM305.894 104.184C306.96 102.008 308.539 100.301 310.63 99.064C312.72 97.784 315.088 97.144 317.734 97.144V103.8C314.192 103.8 311.334 104.76 309.158 106.68C306.982 108.6 305.894 111.139 305.894 114.296V131H298.086V97.912H305.894V104.184ZM342.418 97.144C345.319 97.144 347.922 97.8907 350.226 99.384C352.53 100.835 354.343 102.883 355.666 105.528C356.989 108.131 357.65 111.096 357.65 114.424C357.65 117.752 356.989 120.739 355.666 123.384C354.343 126.029 352.53 128.099 350.226 129.592C347.922 131.043 345.319 131.768 342.418 131.768C340.029 131.768 337.831 131.256 335.826 130.232C333.863 129.165 332.242 127.693 330.962 125.816V131H323.154V86.264H330.962V103.096C332.242 101.219 333.863 99.768 335.826 98.744C337.831 97.6773 340.029 97.144 342.418 97.144ZM340.306 125.112C343.122 125.112 345.426 124.109 347.218 122.104C349.01 120.099 349.906 117.539 349.906 114.424C349.906 111.309 349.01 108.771 347.218 106.808C345.426 104.803 343.122 103.8 340.306 103.8C337.575 103.8 335.335 104.803 333.586 106.808C331.837 108.771 330.962 111.309 330.962 114.424C330.962 116.472 331.346 118.307 332.114 119.928C332.925 121.549 334.034 122.829 335.442 123.768C336.893 124.664 338.514 125.112 340.306 125.112ZM363.211 97.912H371.019V131H363.211V97.912ZM367.115 92.92C365.877 92.92 364.811 92.472 363.915 91.576C363.061 90.68 362.635 89.6347 362.635 88.44C362.635 87.2453 363.061 86.2213 363.915 85.368C364.811 84.472 365.877 84.024 367.115 84.024C368.309 84.024 369.333 84.472 370.187 85.368C371.04 86.2213 371.467 87.2453 371.467 88.44C371.467 89.6347 371.04 90.68 370.187 91.576C369.333 92.472 368.309 92.92 367.115 92.92ZM386.081 104.184C387.148 102.008 388.726 100.301 390.817 99.064C392.908 97.784 395.276 97.144 397.921 97.144V103.8C394.38 103.8 391.521 104.76 389.345 106.68C387.169 108.6 386.081 111.139 386.081 114.296V131H378.273V97.912H386.081V104.184ZM434.543 86.264V131H426.735V125.816C425.455 127.693 423.812 129.165 421.807 130.232C419.844 131.256 417.668 131.768 415.279 131.768C412.377 131.768 409.775 131.043 407.47 129.592C405.167 128.099 403.353 126.029 402.031 123.384C400.708 120.739 400.047 117.752 400.047 114.424C400.047 111.096 400.708 108.131 402.031 105.528C403.353 102.883 405.167 100.835 407.47 99.384C409.775 97.8907 412.377 97.144 415.279 97.144C417.668 97.144 419.844 97.6773 421.807 98.744C423.812 99.768 425.455 101.219 426.735 103.096V86.264H434.543ZM417.391 125.112C419.183 125.112 420.783 124.664 422.191 123.768C423.641 122.829 424.751 121.549 425.519 119.928C426.329 118.307 426.735 116.472 426.735 114.424C426.735 111.309 425.86 108.771 424.111 106.808C422.361 104.803 420.121 103.8 417.391 103.8C414.575 103.8 412.271 104.803 410.479 106.808C408.687 108.771 407.791 111.309 407.791 114.424C407.791 117.539 408.687 120.099 410.479 122.104C412.271 124.109 414.575 125.112 417.391 125.112Z" fill="black"/>
<path d="M81.448 94.328H85.448C85.448 92.1189 83.6571 90.328 81.448 90.328V94.328ZM67.368 94.328H63.368C63.368 96.5371 65.1589 98.328 67.368 98.328V94.328ZM67.368 87.032V83.032C65.1589 83.032 63.368 84.8229 63.368 87.032H67.368ZM103.464 87.032H107.464C107.464 84.8229 105.673 83.032 103.464 83.032V87.032ZM103.464 94.328V98.328C105.673 98.328 107.464 96.5371 107.464 94.328H103.464ZM89.448 94.328V90.328C87.2389 90.328 85.448 92.1189 85.448 94.328H89.448ZM89.448 131V135C91.6571 135 93.448 133.209 93.448 131H89.448ZM81.448 131H77.448C77.448 133.209 79.2389 135 81.448 135V131ZM81.448 90.328H67.368V98.328H81.448V90.328ZM71.368 94.328V87.032H63.368V94.328H71.368ZM67.368 91.032H103.464V83.032H67.368V91.032ZM99.464 87.032V94.328H107.464V87.032H99.464ZM103.464 90.328H89.448V98.328H103.464V90.328ZM85.448 94.328V131H93.448V94.328H85.448ZM89.448 127H81.448V135H89.448V127ZM85.448 131V94.328H77.448V131H85.448ZM134.227 98.808L132.157 102.231C132.188 102.25 132.22 102.268 132.251 102.286L134.227 98.808ZM138.579 103.352L135.033 105.202C135.049 105.233 135.065 105.264 135.082 105.295L138.579 103.352ZM140.179 131V135C142.388 135 144.179 133.209 144.179 131H140.179ZM132.563 131H128.563C128.563 133.209 130.354 135 132.563 135V131ZM130.643 105.976L127.644 108.622C127.657 108.637 127.67 108.652 127.683 108.667L130.643 105.976ZM119.891 105.912L122.548 108.902L122.553 108.897L119.891 105.912ZM117.587 131V135C119.796 135 121.587 133.209 121.587 131H117.587ZM109.779 131H105.779C105.779 133.209 107.57 135 109.779 135V131ZM109.779 86.264V82.264C107.57 82.264 105.779 84.0549 105.779 86.264H109.779ZM117.587 86.264H121.587C121.587 84.0549 119.796 82.264 117.587 82.264V86.264ZM117.587 102.392H113.587C113.587 104.164 114.753 105.725 116.452 106.228C118.151 106.73 119.979 106.055 120.943 104.569L117.587 102.392ZM121.875 98.616L123.697 102.177C123.719 102.166 123.74 102.155 123.762 102.143L121.875 98.616ZM127.891 101.144C129.637 101.144 131.017 101.541 132.157 102.231L136.297 95.3851C133.768 93.8562 130.924 93.144 127.891 93.144V101.144ZM132.251 102.286C133.442 102.962 134.355 103.904 135.033 105.202L142.125 101.502C140.755 98.875 138.767 96.787 136.203 95.3302L132.251 102.286ZM135.082 105.295C135.779 106.548 136.179 108.062 136.179 109.944H144.179C144.179 106.877 143.512 103.996 142.076 101.409L135.082 105.295ZM136.179 109.944V131H144.179V109.944H136.179ZM140.179 127H132.563V135H140.179V127ZM136.563 131V111.48H128.563V131H136.563ZM136.563 111.48C136.563 108.422 135.675 105.564 133.603 103.285L127.683 108.667C128.171 109.204 128.563 110.015 128.563 111.48H136.563ZM133.642 103.33C131.554 100.963 128.77 99.8 125.651 99.8V107.8C126.628 107.8 127.172 108.088 127.644 108.622L133.642 103.33ZM125.651 99.8C122.481 99.8 119.593 100.818 117.229 102.927L122.553 108.897C123.346 108.19 124.298 107.8 125.651 107.8V99.8ZM117.234 102.922C114.868 105.025 113.587 107.788 113.587 110.968H121.587C121.587 110.137 121.842 109.529 122.548 108.902L117.234 102.922ZM113.587 110.968V131H121.587V110.968H113.587ZM117.587 127H109.779V135H117.587V127ZM113.779 131V86.264H105.779V131H113.779ZM109.779 90.264H117.587V82.264H109.779V90.264ZM113.587 86.264V102.392H121.587V86.264H113.587ZM120.943 104.569C121.55 103.633 122.425 102.828 123.697 102.177L120.053 95.055C117.656 96.2815 115.672 97.9938 114.231 100.215L120.943 104.569ZM123.762 102.143C124.989 101.487 126.342 101.144 127.891 101.144V93.144C125.088 93.144 122.43 93.7827 119.988 95.0889L123.762 102.143ZM176.722 97.912H180.722C180.722 95.7029 178.931 93.912 176.722 93.912V97.912ZM176.722 131V135C178.931 135 180.722 133.209 180.722 131H176.722ZM168.85 131H164.85C164.85 133.209 166.641 135 168.85 135V131ZM168.85 126.648H172.85C172.85 124.876 171.684 123.315 169.985 122.812C168.286 122.31 166.458 122.985 165.494 124.471L168.85 126.648ZM164.562 130.424L166.351 134.002C166.362 133.996 166.373 133.991 166.384 133.985L164.562 130.424ZM152.21 130.168L150.14 133.591C150.171 133.61 150.202 133.628 150.234 133.646L152.21 130.168ZM147.858 125.624L144.312 127.474C144.328 127.505 144.344 127.536 144.361 127.567L147.858 125.624ZM146.322 97.912V93.912C144.113 93.912 142.322 95.7029 142.322 97.912H146.322ZM153.874 97.912H157.874C157.874 95.7029 156.083 93.912 153.874 93.912V97.912ZM155.794 123L152.795 125.646C152.822 125.678 152.85 125.708 152.879 125.739L155.794 123ZM166.546 123.064L169.203 126.054C169.219 126.04 169.234 126.026 169.249 126.013L166.546 123.064ZM168.85 97.912V93.912C166.641 93.912 164.85 95.7029 164.85 97.912H168.85ZM172.722 97.912V131H180.722V97.912H172.722ZM176.722 127H168.85V135H176.722V127ZM172.85 131V126.648H164.85V131H172.85ZM165.494 124.471C164.887 125.407 164.012 126.212 162.74 126.863L166.384 133.985C168.781 132.758 170.765 131.046 172.206 128.825L165.494 124.471ZM162.773 126.846C161.583 127.441 160.22 127.768 158.61 127.768V135.768C161.352 135.768 163.957 135.199 166.351 134.002L162.773 126.846ZM158.61 127.768C156.838 127.768 155.399 127.379 154.186 126.69L150.234 133.646C152.776 135.09 155.603 135.768 158.61 135.768V127.768ZM154.28 126.745C153.057 126.006 152.091 125.008 151.355 123.681L144.361 127.567C145.758 130.08 147.694 132.112 150.14 133.591L154.28 126.745ZM151.404 123.774C150.712 122.447 150.322 120.875 150.322 118.968H142.322C142.322 122.01 142.956 124.876 144.312 127.474L151.404 123.774ZM150.322 118.968V97.912H142.322V118.968H150.322ZM146.322 101.912H153.874V93.912H146.322V101.912ZM149.874 97.912V117.432H157.874V97.912H149.874ZM149.874 117.432C149.874 120.494 150.763 123.344 152.795 125.646L158.793 120.354C158.265 119.755 157.874 118.893 157.874 117.432H149.874ZM152.879 125.739C155.007 128.004 157.772 129.112 160.85 129.112V121.112C159.832 121.112 159.227 120.812 158.709 120.261L152.879 125.739ZM160.85 129.112C163.985 129.112 166.86 128.137 169.203 126.054L163.889 120.074C163.16 120.722 162.238 121.112 160.85 121.112V129.112ZM169.249 126.013C171.575 123.88 172.85 121.119 172.85 117.944H164.85C164.85 118.779 164.589 119.432 163.843 120.115L169.249 126.013ZM172.85 117.944V97.912H164.85V117.944H172.85ZM168.85 101.912H176.722V93.912H168.85V101.912ZM208.409 98.808L206.374 102.252C206.393 102.263 206.413 102.275 206.432 102.286L208.409 98.808ZM212.76 103.352L209.214 105.202C209.23 105.233 209.247 105.264 209.264 105.295L212.76 103.352ZM214.361 131V135C216.57 135 218.361 133.209 218.361 131H214.361ZM206.745 131H202.745C202.745 133.209 204.535 135 206.745 135V131ZM204.76 105.976L201.761 108.622C201.789 108.654 201.817 108.684 201.845 108.715L204.76 105.976ZM194.072 105.912L196.73 108.902C196.745 108.888 196.76 108.874 196.775 108.861L194.072 105.912ZM191.769 131V135C193.978 135 195.768 133.209 195.768 131H191.769ZM183.961 131H179.961C179.961 133.209 181.751 135 183.961 135V131ZM183.961 97.912V93.912C181.751 93.912 179.961 95.7029 179.961 97.912H183.961ZM191.769 97.912H195.768C195.768 95.7029 193.978 93.912 191.769 93.912V97.912ZM191.769 102.264H187.769C187.769 104.036 188.934 105.597 190.633 106.1C192.333 106.602 194.16 105.927 195.124 104.441L191.769 102.264ZM195.992 98.552L197.781 102.13C197.792 102.124 197.803 102.119 197.814 102.113L195.992 98.552ZM202.008 101.144C203.753 101.144 205.171 101.541 206.374 102.252L210.443 95.3643C207.892 93.8565 205.043 93.144 202.008 93.144V101.144ZM206.432 102.286C207.623 102.962 208.537 103.904 209.214 105.202L216.307 101.502C214.936 98.875 212.949 96.787 210.385 95.3302L206.432 102.286ZM209.264 105.295C209.96 106.548 210.361 108.062 210.361 109.944H218.361C218.361 106.877 217.694 103.996 216.257 101.409L209.264 105.295ZM210.361 109.944V131H218.361V109.944H210.361ZM214.361 127H206.745V135H214.361V127ZM210.745 131V111.48H202.745V131H210.745ZM210.745 111.48C210.745 108.386 209.813 105.512 207.676 103.237L201.845 108.715C202.354 109.256 202.745 110.051 202.745 111.48H210.745ZM207.76 103.33C205.672 100.963 202.888 99.8 199.768 99.8V107.8C200.745 107.8 201.289 108.088 201.761 108.622L207.76 103.33ZM199.768 99.8C196.599 99.8 193.709 100.819 191.37 102.963L196.775 108.861C197.508 108.189 198.415 107.8 199.768 107.8V99.8ZM191.415 102.922C189.049 105.025 187.769 107.788 187.769 110.968H195.768C195.768 110.137 196.024 109.529 196.73 108.902L191.415 102.922ZM187.769 110.968V131H195.768V110.968H187.769ZM191.769 127H183.961V135H191.769V127ZM187.961 131V97.912H179.961V131H187.961ZM183.961 101.912H191.769V93.912H183.961V101.912ZM187.769 97.912V102.264H195.768V97.912H187.769ZM195.124 104.441C195.735 103.499 196.584 102.728 197.781 102.13L194.204 94.9743C191.817 96.1678 189.85 97.8713 188.413 100.087L195.124 104.441ZM197.814 102.113C199.054 101.479 200.43 101.144 202.008 101.144V93.144C199.235 93.144 196.601 93.7477 194.171 94.991L197.814 102.113ZM253.855 86.264H257.855C257.855 84.0549 256.064 82.264 253.855 82.264V86.264ZM253.855 131V135C256.064 135 257.855 133.209 257.855 131H253.855ZM246.047 131H242.047C242.047 133.209 243.838 135 246.047 135V131ZM246.047 125.816H250.047C250.047 124.061 248.903 122.511 247.226 121.994C245.549 121.476 243.731 122.113 242.742 123.563L246.047 125.816ZM241.119 130.232L242.969 133.778C242.979 133.773 242.988 133.768 242.997 133.763L241.119 130.232ZM226.783 129.592L224.607 132.949C224.622 132.958 224.637 132.968 224.652 132.977L226.783 129.592ZM221.343 123.384L217.765 125.173L221.343 123.384ZM221.343 105.528L224.909 107.34C224.913 107.332 224.917 107.325 224.921 107.317L221.343 105.528ZM226.783 99.384L228.914 102.769C228.929 102.76 228.944 102.75 228.959 102.741L226.783 99.384ZM241.119 98.744L239.209 102.258C239.239 102.275 239.269 102.291 239.3 102.306L241.119 98.744ZM246.047 103.096L242.742 105.349C243.731 106.799 245.549 107.436 247.226 106.918C248.903 106.401 250.047 104.851 250.047 103.096H246.047ZM246.047 86.264V82.264C243.838 82.264 242.047 84.0549 242.047 86.264H246.047ZM241.503 123.768L243.65 127.143C243.659 127.137 243.668 127.132 243.676 127.126L241.503 123.768ZM244.831 119.928L241.253 118.139C241.241 118.165 241.228 118.19 241.216 118.216L244.831 119.928ZM243.423 106.808L240.409 109.437C240.418 109.448 240.427 109.459 240.437 109.469L243.423 106.808ZM229.791 106.808L232.745 109.505C232.755 109.495 232.764 109.484 232.774 109.473L229.791 106.808ZM229.791 122.104L226.808 124.769L229.791 122.104ZM249.855 86.264V131H257.855V86.264H249.855ZM253.855 127H246.047V135H253.855V127ZM250.047 131V125.816H242.047V131H250.047ZM242.742 123.563C241.827 124.905 240.674 125.938 239.241 126.701L242.997 133.763C245.575 132.392 247.707 130.482 249.352 128.069L242.742 123.563ZM239.269 126.686C237.922 127.388 236.388 127.768 234.591 127.768V135.768C237.572 135.768 240.391 135.124 242.969 133.778L239.269 126.686ZM234.591 127.768C232.392 127.768 230.538 127.229 228.914 126.207L224.652 132.977C227.636 134.856 230.987 135.768 234.591 135.768V127.768ZM228.959 126.235C227.3 125.16 225.95 123.653 224.921 121.595L217.765 125.173C219.382 128.405 221.658 131.037 224.607 132.949L228.959 126.235ZM224.921 121.595C223.909 119.571 223.359 117.209 223.359 114.424H215.359C215.359 118.295 216.132 121.906 217.765 125.173L224.921 121.595ZM223.359 114.424C223.359 111.637 223.909 109.307 224.909 107.34L217.777 103.716C216.131 106.954 215.359 110.555 215.359 114.424H223.359ZM224.921 107.317C225.945 105.267 227.282 103.796 228.914 102.769L224.652 95.9991C221.676 97.8729 219.386 100.498 217.765 103.739L224.921 107.317ZM228.959 102.741C230.577 101.692 232.416 101.144 234.591 101.144V93.144C230.964 93.144 227.597 94.0898 224.607 96.0274L228.959 102.741ZM234.591 101.144C236.361 101.144 237.873 101.533 239.209 102.258L243.029 95.2295C240.44 93.8221 237.6 93.144 234.591 93.144V101.144ZM239.3 102.306C240.702 103.023 241.836 104.021 242.742 105.349L249.352 100.843C247.698 98.4166 245.546 96.5134 242.938 95.1816L239.3 102.306ZM250.047 103.096V86.264H242.047V103.096H250.047ZM246.047 90.264H253.855V82.264H246.047V90.264ZM236.703 129.112C239.197 129.112 241.553 128.477 243.65 127.143L239.355 120.393C238.637 120.851 237.793 121.112 236.703 121.112V129.112ZM243.676 127.126C245.776 125.768 247.372 123.907 248.446 121.64L241.216 118.216C240.754 119.192 240.132 119.891 239.33 120.41L243.676 127.126ZM248.409 121.717C249.531 119.472 250.047 117.012 250.047 114.424H242.047C242.047 115.932 241.752 117.142 241.253 118.139L248.409 121.717ZM250.047 114.424C250.047 110.519 248.929 106.973 246.409 104.147L240.437 109.469C241.416 110.568 242.047 112.099 242.047 114.424H250.047ZM246.437 104.179C243.906 101.277 240.555 99.8 236.703 99.8V107.8C238.313 107.8 239.441 108.329 240.409 109.437L246.437 104.179ZM236.703 99.8C232.809 99.8 229.399 101.244 226.808 104.143L232.774 109.473C233.767 108.362 234.965 107.8 236.703 107.8V99.8ZM226.837 104.111C224.258 106.935 223.103 110.494 223.103 114.424H231.103C231.103 112.125 231.74 110.606 232.745 109.505L226.837 104.111ZM223.103 114.424C223.103 118.356 224.259 121.916 226.808 124.769L232.774 119.439C231.739 118.281 231.103 116.721 231.103 114.424H223.103ZM226.808 124.769C229.399 127.668 232.809 129.112 236.703 129.112V121.112C234.965 121.112 233.767 120.55 232.774 119.439L226.808 124.769ZM281.814 124.536L280.41 120.791C280.399 120.795 280.389 120.799 280.378 120.803L281.814 124.536ZM285.974 122.04L288.842 119.252C287.309 117.675 284.79 117.631 283.204 119.154L285.974 122.04ZM290.454 126.648L293.364 129.392C294.833 127.834 294.815 125.395 293.322 123.86L290.454 126.648ZM284.502 130.36L285.879 134.116C285.897 134.109 285.916 134.102 285.934 134.095L284.502 130.36ZM268.31 129.528L266.344 133.011L268.31 129.528ZM261.974 123.32L258.515 125.329C258.523 125.342 258.531 125.356 258.539 125.37L261.974 123.32ZM261.91 105.528L258.441 103.537V103.537L261.91 105.528ZM267.99 99.384L265.999 95.9145C265.991 95.9193 265.983 95.9241 265.975 95.9289L267.99 99.384ZM288.47 102.392L285.372 104.923C285.379 104.93 285.385 104.938 285.391 104.945L288.47 102.392ZM292.822 116.728V120.728C295.031 120.728 296.822 118.937 296.822 116.728H292.822ZM267.222 116.728V112.728C266.05 112.728 264.937 113.242 264.177 114.135C263.417 115.027 263.086 116.208 263.273 117.365L267.222 116.728ZM270.422 123.128L267.667 126.028C267.68 126.04 267.693 126.052 267.706 126.064L270.422 123.128ZM270.614 105.656L273.205 108.704C273.219 108.691 273.234 108.679 273.248 108.666L270.614 105.656ZM267.286 111.544L263.369 110.734C263.125 111.912 263.425 113.137 264.184 114.07C264.944 115.003 266.083 115.544 267.286 115.544V111.544ZM285.27 111.544V115.544C286.44 115.544 287.551 115.032 288.311 114.143C289.071 113.253 289.404 112.076 289.221 110.92L285.27 111.544ZM282.454 105.656L279.585 108.443C279.598 108.457 279.612 108.471 279.626 108.484L282.454 105.656ZM276.758 129.496C278.977 129.496 281.148 129.078 283.25 128.269L280.378 120.803C279.152 121.274 277.952 121.496 276.758 121.496V129.496ZM283.218 128.281C285.319 127.494 287.205 126.403 288.744 124.926L283.204 119.154C282.609 119.725 281.722 120.298 280.41 120.791L283.218 128.281ZM283.106 124.828L287.586 129.436L293.322 123.86L288.842 119.252L283.106 124.828ZM287.544 123.904C286.662 124.839 285.249 125.79 283.07 126.625L285.934 134.095C288.875 132.967 291.43 131.444 293.364 129.392L287.544 123.904ZM283.125 126.604C280.953 127.401 278.923 127.768 277.014 127.768V135.768C279.969 135.768 282.931 135.196 285.879 134.116L283.125 126.604ZM277.014 127.768C274.517 127.768 272.298 127.186 270.276 126.045L266.344 133.011C269.613 134.857 273.196 135.768 277.014 135.768V127.768ZM270.276 126.045C268.246 124.898 266.636 123.327 265.409 121.27L258.539 125.37C260.469 128.604 263.084 131.171 266.344 133.011L270.276 126.045ZM265.433 121.311C264.282 119.329 263.67 117.046 263.67 114.36H255.67C255.67 118.33 256.594 122.02 258.515 125.329L265.433 121.311ZM263.67 114.36C263.67 111.705 264.266 109.459 265.379 107.519L258.441 103.537C256.567 106.802 255.67 110.444 255.67 114.36H263.67ZM265.379 107.519C266.529 105.515 268.058 103.975 270.005 102.839L265.975 95.9289C262.802 97.7794 260.278 100.336 258.441 103.537L265.379 107.519ZM269.981 102.853C271.954 101.721 274.122 101.144 276.566 101.144V93.144C272.781 93.144 269.231 94.0601 265.999 95.9145L269.981 102.853ZM276.566 101.144C280.611 101.144 283.374 102.477 285.372 104.923L291.568 99.8611C287.849 95.31 282.676 93.144 276.566 93.144V101.144ZM285.391 104.945C287.524 107.518 288.822 111.289 288.822 116.728H296.822C296.822 110.049 295.218 104.263 291.549 99.8387L285.391 104.945ZM292.822 112.728H267.222V120.728H292.822V112.728ZM263.273 117.365C263.819 120.75 265.239 123.722 267.667 126.028L273.177 120.228C272.192 119.292 271.478 117.997 271.171 116.091L263.273 117.365ZM267.706 126.064C270.216 128.386 273.325 129.496 276.758 129.496V121.496C275.157 121.496 274.041 121.027 273.138 120.192L267.706 126.064ZM276.694 99.416C273.415 99.416 270.443 100.49 267.98 102.646L273.248 108.666C274.198 107.835 275.279 107.416 276.694 107.416V99.416ZM268.023 102.608C265.551 104.709 264.037 107.504 263.369 110.734L271.203 112.354C271.559 110.635 272.263 109.504 273.205 108.704L268.023 102.608ZM267.286 115.544H285.27V107.544H267.286V115.544ZM289.221 110.92C288.728 107.796 287.468 105.014 285.282 102.828L279.626 108.484C280.426 109.285 281.044 110.428 281.319 112.168L289.221 110.92ZM285.323 102.869C283.006 100.484 279.99 99.416 276.694 99.416V107.416C278.176 107.416 279.001 107.842 279.585 108.443L285.323 102.869ZM305.893 104.184H301.893C301.893 106.045 303.177 107.66 304.99 108.081C306.803 108.501 308.666 107.616 309.485 105.945L305.893 104.184ZM310.63 99.064L312.667 102.506C312.684 102.496 312.701 102.486 312.718 102.475L310.63 99.064ZM317.734 97.144H321.733C321.733 94.9349 319.943 93.144 317.734 93.144V97.144ZM317.734 103.8V107.8C319.943 107.8 321.733 106.009 321.733 103.8H317.734ZM309.158 106.68L306.511 103.681L309.158 106.68ZM305.893 131V135C308.103 135 309.893 133.209 309.893 131H305.893ZM298.085 131H294.085C294.085 133.209 295.876 135 298.085 135V131ZM298.085 97.912V93.912C295.876 93.912 294.085 95.7029 294.085 97.912H298.085ZM305.893 97.912H309.893C309.893 95.7029 308.103 93.912 305.893 93.912V97.912ZM309.485 105.945C310.208 104.471 311.245 103.348 312.667 102.506L308.592 95.6217C305.832 97.2551 303.713 99.5455 302.302 102.423L309.485 105.945ZM312.718 102.475C314.13 101.611 315.765 101.144 317.734 101.144V93.144C314.412 93.144 311.31 93.9573 308.541 95.6526L312.718 102.475ZM313.734 97.144V103.8H321.733V97.144H313.734ZM317.734 99.8C313.442 99.8 309.57 100.981 306.511 103.681L311.804 109.679C313.097 108.539 314.942 107.8 317.734 107.8V99.8ZM306.511 103.681C303.393 106.432 301.893 110.105 301.893 114.296H309.893C309.893 112.173 310.57 110.768 311.804 109.679L306.511 103.681ZM301.893 114.296V131H309.893V114.296H301.893ZM305.893 127H298.085V135H305.893V127ZM302.085 131V97.912H294.085V131H302.085ZM298.085 101.912H305.893V93.912H298.085V101.912ZM301.893 97.912V104.184H309.893V97.912H301.893ZM350.226 99.384L348.05 102.741C348.065 102.75 348.08 102.76 348.095 102.769L350.226 99.384ZM355.666 105.528L352.088 107.317C352.092 107.325 352.096 107.332 352.1 107.34L355.666 105.528ZM355.666 123.384L352.088 121.595L355.666 123.384ZM350.226 129.592L352.357 132.977C352.372 132.968 352.387 132.958 352.402 132.949L350.226 129.592ZM335.826 130.232L333.916 133.746C333.946 133.763 333.976 133.779 334.007 133.794L335.826 130.232ZM330.962 125.816L334.267 123.563C333.278 122.113 331.46 121.476 329.783 121.994C328.106 122.511 326.962 124.061 326.962 125.816H330.962ZM330.962 131V135C333.171 135 334.962 133.209 334.962 131H330.962ZM323.154 131H319.154C319.154 133.209 320.945 135 323.154 135V131ZM323.154 86.264V82.264C320.945 82.264 319.154 84.0549 319.154 86.264H323.154ZM330.962 86.264H334.962C334.962 84.0549 333.171 82.264 330.962 82.264V86.264ZM330.962 103.096H326.962C326.962 104.851 328.106 106.401 329.783 106.918C331.46 107.436 333.278 106.799 334.267 105.349L330.962 103.096ZM335.826 98.744L337.676 102.29C337.686 102.285 337.695 102.28 337.704 102.275L335.826 98.744ZM347.218 122.104L344.235 119.439L347.218 122.104ZM347.218 106.808L344.235 109.473C344.245 109.484 344.254 109.495 344.264 109.505L347.218 106.808ZM333.586 106.808L336.572 109.469C336.582 109.459 336.591 109.448 336.6 109.437L333.586 106.808ZM332.114 119.928L328.499 121.64C328.511 121.666 328.524 121.691 328.536 121.717L332.114 119.928ZM335.442 123.768L333.223 127.096C333.262 127.122 333.301 127.147 333.34 127.171L335.442 123.768ZM342.418 101.144C344.593 101.144 346.432 101.692 348.05 102.741L352.402 96.0274C349.412 94.0898 346.045 93.144 342.418 93.144V101.144ZM348.095 102.769C349.727 103.796 351.064 105.267 352.088 107.317L359.244 103.739C357.623 100.498 355.333 97.8729 352.357 95.9991L348.095 102.769ZM352.1 107.34C353.1 109.307 353.65 111.637 353.65 114.424H361.65C361.65 110.555 360.878 106.954 359.232 103.716L352.1 107.34ZM353.65 114.424C353.65 117.209 353.1 119.571 352.088 121.595L359.244 125.173C360.877 121.906 361.65 118.295 361.65 114.424H353.65ZM352.088 121.595C351.059 123.653 349.709 125.16 348.05 126.235L352.402 132.949C355.351 131.037 357.627 128.405 359.244 125.173L352.088 121.595ZM348.095 126.207C346.471 127.229 344.617 127.768 342.418 127.768V135.768C346.022 135.768 349.373 134.856 352.357 132.977L348.095 126.207ZM342.418 127.768C340.621 127.768 339.053 127.388 337.645 126.67L334.007 133.794C336.61 135.124 339.436 135.768 342.418 135.768V127.768ZM337.736 126.718C336.342 125.96 335.195 124.924 334.267 123.563L327.657 128.069C329.289 130.463 331.385 132.371 333.916 133.746L337.736 126.718ZM326.962 125.816V131H334.962V125.816H326.962ZM330.962 127H323.154V135H330.962V127ZM327.154 131V86.264H319.154V131H327.154ZM323.154 90.264H330.962V82.264H323.154V90.264ZM326.962 86.264V103.096H334.962V86.264H326.962ZM334.267 105.349C335.186 104.001 336.313 103.001 337.676 102.29L333.976 95.1977C331.413 96.5346 329.298 98.4361 327.657 100.843L334.267 105.349ZM337.704 102.275C339.101 101.533 340.649 101.144 342.418 101.144V93.144C339.409 93.144 336.561 93.8221 333.948 95.2125L337.704 102.275ZM340.306 129.112C344.2 129.112 347.61 127.668 350.201 124.769L344.235 119.439C343.242 120.55 342.044 121.112 340.306 121.112V129.112ZM350.201 124.769C352.75 121.916 353.906 118.356 353.906 114.424H345.906C345.906 116.721 345.27 118.281 344.235 119.439L350.201 124.769ZM353.906 114.424C353.906 110.494 352.751 106.935 350.172 104.111L344.264 109.505C345.269 110.606 345.906 112.125 345.906 114.424H353.906ZM350.201 104.143C347.61 101.244 344.2 99.8 340.306 99.8V107.8C342.044 107.8 343.242 108.362 344.235 109.473L350.201 104.143ZM340.306 99.8C336.454 99.8 333.103 101.277 330.572 104.179L336.6 109.437C337.568 108.329 338.696 107.8 340.306 107.8V99.8ZM330.6 104.147C328.08 106.973 326.962 110.519 326.962 114.424H334.962C334.962 112.099 335.593 110.568 336.572 109.469L330.6 104.147ZM326.962 114.424C326.962 116.98 327.444 119.413 328.499 121.64L335.729 118.216C335.248 117.201 334.962 115.964 334.962 114.424H326.962ZM328.536 121.717C329.635 123.915 331.195 125.744 333.223 127.096L337.661 120.44C336.873 119.915 336.214 119.184 335.692 118.139L328.536 121.717ZM333.34 127.171C335.455 128.478 337.811 129.112 340.306 129.112V121.112C339.217 121.112 338.33 120.85 337.544 120.365L333.34 127.171ZM363.211 97.912V93.912C361.001 93.912 359.211 95.7029 359.211 97.912H363.211ZM371.018 97.912H375.018C375.018 95.7029 373.228 93.912 371.018 93.912V97.912ZM371.018 131V135C373.228 135 375.018 133.209 375.018 131H371.018ZM363.211 131H359.211C359.211 133.209 361.001 135 363.211 135V131ZM363.914 91.576L361.018 94.3346C361.04 94.3582 361.063 94.3814 361.086 94.4044L363.914 91.576ZM363.914 85.368L361.086 82.5396L361.086 82.5396L363.914 85.368ZM370.186 85.368L367.29 88.1266C367.312 88.1502 367.335 88.1734 367.358 88.1964L370.186 85.368ZM370.186 91.576L367.29 88.8174V88.8174L370.186 91.576ZM363.211 101.912H371.018V93.912H363.211V101.912ZM367.018 97.912V131H375.018V97.912H367.018ZM371.018 127H363.211V135H371.018V127ZM367.211 131V97.912H359.211V131H367.211ZM367.115 88.92C366.99 88.92 366.945 88.9001 366.935 88.8961C366.924 88.8913 366.859 88.8639 366.743 88.7476L361.086 94.4044C362.712 96.0303 364.788 96.92 367.115 96.92V88.92ZM366.811 88.8174C366.696 88.6963 366.665 88.6262 366.658 88.6084C366.652 88.5931 366.634 88.5495 366.634 88.44H358.634C358.634 90.7017 359.484 92.7243 361.018 94.3346L366.811 88.8174ZM366.634 88.44C366.634 88.3804 366.64 88.346 366.643 88.3314C366.644 88.3237 366.645 88.3193 366.646 88.3174C366.646 88.3155 366.647 88.3148 366.647 88.3145C366.647 88.3142 366.647 88.3128 366.649 88.3101C366.651 88.3073 366.654 88.3017 366.659 88.2933C366.67 88.2771 366.695 88.2442 366.743 88.1964L361.086 82.5396C359.491 84.1345 358.634 86.1724 358.634 88.44H366.634ZM366.743 88.1964C366.859 88.0801 366.924 88.0527 366.935 88.0479C366.945 88.0439 366.99 88.024 367.115 88.024V80.024C364.788 80.024 362.712 80.9137 361.086 82.5396L366.743 88.1964ZM367.115 88.024C367.162 88.024 367.184 88.0283 367.187 88.0289C367.189 88.0293 367.183 88.0281 367.175 88.0246C367.168 88.0213 367.171 88.0214 367.186 88.0324C367.202 88.044 367.238 88.0718 367.29 88.1266L373.083 82.6094C371.505 80.9525 369.447 80.024 367.115 80.024V88.024ZM367.358 88.1964C367.406 88.2442 367.431 88.2771 367.442 88.2933C367.447 88.3017 367.45 88.3073 367.452 88.31C367.453 88.3128 367.454 88.3142 367.454 88.3145C367.454 88.3148 367.455 88.3155 367.455 88.3174C367.456 88.3193 367.457 88.3237 367.458 88.3314C367.461 88.346 367.466 88.3804 367.466 88.44H375.466C375.466 86.1724 374.61 84.1345 373.015 82.5396L367.358 88.1964ZM367.466 88.44C367.466 88.5495 367.449 88.5931 367.443 88.6084C367.436 88.6262 367.405 88.6963 367.29 88.8174L373.083 94.3346C374.617 92.7243 375.466 90.7017 375.466 88.44H367.466ZM367.29 88.8174C367.238 88.8722 367.202 88.9 367.186 88.9116C367.171 88.9226 367.168 88.9227 367.175 88.9194C367.183 88.9159 367.189 88.9147 367.187 88.9151C367.184 88.9157 367.162 88.92 367.115 88.92V96.92C369.447 96.92 371.505 95.9915 373.083 94.3346L367.29 88.8174ZM386.081 104.184H382.081C382.081 106.045 383.364 107.66 385.177 108.081C386.99 108.501 388.854 107.616 389.673 105.945L386.081 104.184ZM390.817 99.064L392.854 102.506C392.871 102.496 392.889 102.486 392.906 102.475L390.817 99.064ZM397.921 97.144H401.921C401.921 94.9349 400.13 93.144 397.921 93.144V97.144ZM397.921 103.8V107.8C400.13 107.8 401.921 106.009 401.921 103.8H397.921ZM389.345 106.68L386.699 103.681L389.345 106.68ZM386.081 131V135C388.29 135 390.081 133.209 390.081 131H386.081ZM378.273 131H374.273C374.273 133.209 376.064 135 378.273 135V131ZM378.273 97.912V93.912C376.064 93.912 374.273 95.7029 374.273 97.912H378.273ZM386.081 97.912H390.081C390.081 95.7029 388.29 93.912 386.081 93.912V97.912ZM389.673 105.945C390.395 104.471 391.433 103.348 392.854 102.506L388.78 95.6217C386.02 97.2551 383.9 99.5455 382.489 102.423L389.673 105.945ZM392.906 102.475C394.318 101.611 395.952 101.144 397.921 101.144V93.144C394.599 93.144 391.497 93.9573 388.728 95.6526L392.906 102.475ZM393.921 97.144V103.8H401.921V97.144H393.921ZM397.921 99.8C393.629 99.8 389.758 100.981 386.699 103.681L391.991 109.679C393.284 108.539 395.13 107.8 397.921 107.8V99.8ZM386.699 103.681C383.58 106.432 382.081 110.105 382.081 114.296H390.081C390.081 112.173 390.758 110.768 391.991 109.679L386.699 103.681ZM382.081 114.296V131H390.081V114.296H382.081ZM386.081 127H378.273V135H386.081V127ZM382.273 131V97.912H374.273V131H382.273ZM378.273 101.912H386.081V93.912H378.273V101.912ZM382.081 97.912V104.184H390.081V97.912H382.081ZM434.543 86.264H438.543C438.543 84.0549 436.752 82.264 434.543 82.264V86.264ZM434.543 131V135C436.752 135 438.543 133.209 438.543 131H434.543ZM426.734 131H422.734C422.734 133.209 424.525 135 426.734 135V131ZM426.734 125.816H430.734C430.734 124.061 429.591 122.511 427.914 121.994C426.237 121.476 424.418 122.113 423.43 123.563L426.734 125.816ZM421.806 130.232L423.657 133.778C423.666 133.773 423.676 133.768 423.685 133.763L421.806 130.232ZM407.47 129.592L405.295 132.949C405.31 132.958 405.324 132.968 405.339 132.977L407.47 129.592ZM402.03 123.384L398.453 125.173L402.03 123.384ZM402.03 105.528L405.596 107.34C405.6 107.332 405.604 107.325 405.608 107.317L402.03 105.528ZM407.47 99.384L409.602 102.769C409.617 102.76 409.631 102.75 409.646 102.741L407.47 99.384ZM421.806 98.744L419.896 102.258C419.927 102.275 419.957 102.291 419.987 102.306L421.806 98.744ZM426.734 103.096L423.43 105.349C424.418 106.799 426.237 107.436 427.914 106.918C429.591 106.401 430.734 104.851 430.734 103.096H426.734ZM426.734 86.264V82.264C424.525 82.264 422.734 84.0549 422.734 86.264H426.734ZM422.19 123.768L424.338 127.143C424.347 127.137 424.355 127.132 424.363 127.126L422.19 123.768ZM425.518 119.928L421.941 118.139C421.928 118.165 421.916 118.19 421.904 118.216L425.518 119.928ZM424.111 106.808L421.096 109.437C421.106 109.448 421.115 109.459 421.124 109.469L424.111 106.808ZM410.479 106.808L413.432 109.505C413.442 109.495 413.452 109.484 413.461 109.473L410.479 106.808ZM410.479 122.104L407.496 124.769L410.479 122.104ZM430.543 86.264V131H438.543V86.264H430.543ZM434.543 127H426.734V135H434.543V127ZM430.734 131V125.816H422.734V131H430.734ZM423.43 123.563C422.514 124.905 421.361 125.938 419.928 126.701L423.685 133.763C426.262 132.392 428.395 130.482 430.039 128.069L423.43 123.563ZM419.956 126.686C418.609 127.388 417.076 127.768 415.279 127.768V135.768C418.26 135.768 421.078 135.124 423.657 133.778L419.956 126.686ZM415.279 127.768C413.08 127.768 411.225 127.229 409.602 126.207L405.339 132.977C408.324 134.856 411.675 135.768 415.279 135.768V127.768ZM409.646 126.235C407.987 125.16 406.637 123.653 405.608 121.595L398.453 125.173C400.069 128.405 402.346 131.037 405.295 132.949L409.646 126.235ZM405.608 121.595C404.596 119.571 404.047 117.209 404.047 114.424H396.047C396.047 118.295 396.819 121.906 398.453 125.173L405.608 121.595ZM404.047 114.424C404.047 111.637 404.597 109.307 405.596 107.34L398.465 103.716C396.819 106.954 396.047 110.555 396.047 114.424H404.047ZM405.608 107.317C406.633 105.267 407.97 103.796 409.602 102.769L405.339 95.9991C402.363 97.8729 400.073 100.498 398.453 103.739L405.608 107.317ZM409.646 102.741C411.265 101.692 413.103 101.144 415.279 101.144V93.144C411.651 93.144 408.284 94.0898 405.295 96.0274L409.646 102.741ZM415.279 101.144C417.048 101.144 418.561 101.533 419.896 102.258L423.717 95.2295C421.127 93.8221 418.287 93.144 415.279 93.144V101.144ZM419.987 102.306C421.39 103.023 422.524 104.021 423.43 105.349L430.039 100.843C428.385 98.4166 426.234 96.5134 423.626 95.1816L419.987 102.306ZM430.734 103.096V86.264H422.734V103.096H430.734ZM426.734 90.264H434.543V82.264H426.734V90.264ZM417.391 129.112C419.885 129.112 422.241 128.477 424.338 127.143L420.043 120.393C419.324 120.851 418.48 121.112 417.391 121.112V129.112ZM424.363 127.126C426.463 125.768 428.06 123.907 429.133 121.64L421.904 118.216C421.441 119.192 420.819 119.891 420.017 120.41L424.363 127.126ZM429.096 121.717C430.219 119.472 430.734 117.012 430.734 114.424H422.734C422.734 115.932 422.44 117.142 421.941 118.139L429.096 121.717ZM430.734 114.424C430.734 110.519 429.616 106.973 427.097 104.147L421.124 109.469C422.104 110.568 422.734 112.099 422.734 114.424H430.734ZM427.125 104.179C424.593 101.277 421.242 99.8 417.391 99.8V107.8C419 107.8 420.129 108.329 421.096 109.437L427.125 104.179ZM417.391 99.8C413.496 99.8 410.086 101.244 407.496 104.143L413.461 109.473C414.455 108.362 415.653 107.8 417.391 107.8V99.8ZM407.525 104.111C404.946 106.935 403.79 110.494 403.79 114.424H411.79C411.79 112.125 412.427 110.606 413.432 109.505L407.525 104.111ZM403.79 114.424C403.79 118.356 404.946 121.916 407.496 124.769L413.461 119.439C412.427 118.281 411.79 116.721 411.79 114.424H403.79ZM407.496 124.769C410.086 127.668 413.496 129.112 417.391 129.112V121.112C415.653 121.112 414.455 120.55 413.461 119.439L407.496 124.769Z" fill="black" mask="url(#path-7-outside-1_2490_46630)"/>
</g>
</mask>
<g mask="url(#mask0_2490_46630)">
<path opacity="0.5" fill-rule="evenodd" clip-rule="evenodd" d="M485.2 79.9197C485.133 78.2658 484.734 76.8365 484.002 75.6321C483.221 74.3063 482.132 73.2883 480.735 72.5781C479.339 71.8442 477.729 71.4772 475.906 71.4772C474.083 71.4772 472.473 71.8442 471.076 72.5781C469.703 73.312 468.638 74.3892 467.88 75.8096C467.123 77.2301 466.744 78.9583 466.744 80.9943H447.994C447.994 80.6579 447.999 80.3245 448.009 79.9943H466.744C466.744 77.9583 467.123 76.2301 467.88 74.8096C468.638 73.3892 469.703 72.312 471.076 71.5781C472.473 70.8442 474.083 70.4772 475.906 70.4772C477.729 70.4772 479.339 70.8442 480.735 71.5781C482.132 72.2883 483.221 73.3063 484.002 74.6321C484.807 75.9578 485.21 77.5558 485.21 79.4261C485.21 79.5921 485.207 79.7566 485.2 79.9197ZM504.452 78.1907C504.39 80.8266 503.812 83.4519 502.717 86.0667C501.557 88.8129 499.474 91.8551 496.467 95.1931C493.46 98.5312 489.187 102.508 483.647 107.125L476.829 112.807V113.233H477.518L483.647 108.125C489.187 103.508 493.46 99.5312 496.467 96.1931C499.474 92.8551 501.557 89.8129 502.717 87.0667C503.877 84.2968 504.457 81.5151 504.457 78.7215C504.457 78.5437 504.455 78.3667 504.452 78.1907ZM505.238 129H449.414V130H505.238V129ZM434.482 129H414.738V130H434.482V129ZM414.311 74.4545L398.402 83.9715V84.9715L414.311 75.4545H414.738V74.4545H414.311ZM528.019 127.26C532.635 129.083 537.879 129.994 543.75 129.994C549.622 129.994 554.854 129.083 559.446 127.26C564.063 125.437 567.685 122.963 570.313 119.838C572.852 116.845 574.175 113.484 574.283 109.753C574.288 109.92 574.29 110.087 574.29 110.256C574.29 114.186 572.964 117.713 570.313 120.838C567.685 123.963 564.063 126.437 559.446 128.26C554.854 130.083 549.622 130.994 543.75 130.994C537.879 130.994 532.635 130.083 528.019 128.26C523.426 126.437 519.804 123.963 517.152 120.838C514.525 117.713 513.211 114.186 513.211 110.256C513.211 110.087 513.213 109.919 513.218 109.752C513.324 113.483 514.636 116.845 517.152 119.838C519.804 122.963 523.426 125.437 528.019 127.26ZM528.965 91.8437C529.344 91.7675 529.727 91.7003 530.114 91.642V91.0738C525.971 90.3636 522.562 88.5288 519.887 85.5696C517.346 82.7109 516.022 79.3631 515.916 75.526C515.912 75.6907 515.909 75.8563 515.909 76.0227C515.909 80.071 517.235 83.5866 519.887 86.5696C522.31 89.2506 525.337 91.0087 528.965 91.8437ZM558.522 91.8425C562.092 91.0071 565.099 89.2494 567.543 86.5696C570.242 83.6103 571.591 80.0947 571.591 76.0227C571.591 75.8565 571.589 75.6912 571.584 75.5267C571.477 79.3854 570.13 82.7331 567.543 85.5696C564.844 88.5288 561.459 90.3636 557.387 91.0738V91.642C557.769 91.7 558.148 91.7668 558.522 91.8425ZM553.397 108.051C553.405 107.886 553.409 107.72 553.409 107.551C553.409 105.87 552.983 104.379 552.131 103.077C551.302 101.775 550.166 100.757 548.722 100.023C547.278 99.2651 545.621 98.8863 543.75 98.8863C541.904 98.8863 540.247 99.2651 538.779 100.023C537.335 100.757 536.186 101.775 535.334 103.077C534.506 104.379 534.091 105.87 534.091 107.551C534.091 107.72 534.095 107.886 534.104 108.051C534.178 106.573 534.589 105.248 535.334 104.077C536.186 102.775 537.335 101.757 538.779 101.023C540.247 100.265 541.904 99.8863 543.75 99.8863C545.621 99.8863 547.278 100.265 548.722 101.023C550.166 101.757 551.302 102.775 552.131 104.077C552.898 105.248 553.32 106.573 553.397 108.051ZM552.259 77.7959C552.269 77.631 552.273 77.4641 552.273 77.2954C552.273 75.7803 551.906 74.4427 551.172 73.2826C550.438 72.0989 549.432 71.1756 548.154 70.5127C546.875 69.8262 545.408 69.4829 543.75 69.4829C542.117 69.4829 540.649 69.8262 539.347 70.5127C538.069 71.1756 537.062 72.0989 536.328 73.2826C535.595 74.4427 535.228 75.7803 535.228 77.2954C535.228 77.4641 535.232 77.631 535.241 77.7959C535.314 76.4846 535.676 75.3135 536.328 74.2826C537.062 73.0989 538.069 72.1756 539.347 71.5127C540.649 70.8262 542.117 70.4829 543.75 70.4829C545.408 70.4829 546.875 70.8262 548.154 71.5127C549.432 72.1756 550.438 73.0989 551.172 74.2826C551.824 75.3135 552.187 76.4846 552.259 77.7959Z" fill="white"/>
<g filter="url(#filter3_i_2490_46630)">
<path d="M434.483 56.2727V129H414.739V74.4545H414.312L398.403 83.9716V67.2102L416.301 56.2727H434.483ZM449.415 129V114.795L476.546 92.3523C478.345 90.8608 479.884 89.464 481.163 88.1619C482.465 86.8362 483.459 85.4749 484.146 84.0781C484.856 82.6813 485.211 81.1307 485.211 79.4261C485.211 77.5559 484.808 75.9579 484.004 74.6321C483.222 73.3063 482.133 72.2884 480.737 71.5781C479.34 70.8442 477.73 70.4773 475.907 70.4773C474.084 70.4773 472.474 70.8442 471.077 71.5781C469.704 72.312 468.639 73.3892 467.881 74.8097C467.124 76.2301 466.745 77.9583 466.745 79.9943H447.995C447.995 74.8807 449.143 70.4773 451.44 66.7841C453.736 63.0909 456.979 60.25 461.17 58.2614C465.36 56.2727 470.272 55.2784 475.907 55.2784C481.731 55.2784 486.773 56.2135 491.035 58.0838C495.32 59.9304 498.622 62.5346 500.942 65.8963C503.286 69.258 504.458 73.1998 504.458 77.7216C504.458 80.5152 503.878 83.2969 502.718 86.0668C501.558 88.813 499.475 91.8551 496.468 95.1932C493.461 98.5312 489.188 102.509 483.648 107.125L476.83 112.807V113.233H505.239V129H449.415ZM543.751 129.994C537.88 129.994 532.636 129.083 528.02 127.26C523.427 125.437 519.805 122.963 517.153 119.838C514.526 116.713 513.212 113.186 513.212 109.256C513.212 106.249 513.957 103.503 515.449 101.017C516.964 98.5312 519 96.4716 521.557 94.8381C524.114 93.1809 526.966 92.1155 530.115 91.642V91.0739C525.972 90.3636 522.563 88.5289 519.888 85.5696C517.236 82.5866 515.911 79.071 515.911 75.0227C515.911 71.2112 517.118 67.8258 519.533 64.8665C521.947 61.8835 525.25 59.5398 529.44 57.8352C533.631 56.1307 538.401 55.2784 543.751 55.2784C549.102 55.2784 553.872 56.1425 558.062 57.8707C562.253 59.5753 565.555 61.919 567.97 64.902C570.385 67.8613 571.592 71.2348 571.592 75.0227C571.592 79.0947 570.243 82.6103 567.544 85.5696C564.845 88.5289 561.46 90.3636 557.388 91.0739V91.642C560.513 92.1155 563.354 93.1809 565.911 94.8381C568.467 96.4716 570.503 98.5312 572.018 101.017C573.534 103.503 574.291 106.249 574.291 109.256C574.291 113.186 572.965 116.713 570.314 119.838C567.686 122.963 564.064 125.437 559.447 127.26C554.855 129.083 549.623 129.994 543.751 129.994ZM543.751 116.358C545.622 116.358 547.279 115.979 548.723 115.222C550.167 114.464 551.304 113.422 552.132 112.097C552.984 110.747 553.411 109.232 553.411 107.551C553.411 105.87 552.984 104.379 552.132 103.077C551.304 101.775 550.167 100.757 548.723 100.023C547.279 99.2652 545.622 98.8864 543.751 98.8864C541.905 98.8864 540.248 99.2652 538.78 100.023C537.336 100.757 536.188 101.775 535.335 103.077C534.507 104.379 534.092 105.87 534.092 107.551C534.092 109.232 534.507 110.735 535.335 112.061C536.188 113.387 537.336 114.44 538.78 115.222C540.248 115.979 541.905 116.358 543.751 116.358ZM543.751 85.25C545.409 85.25 546.876 84.9067 548.155 84.2202C549.433 83.5336 550.439 82.5866 551.173 81.3793C551.907 80.1719 552.274 78.8106 552.274 77.2955C552.274 75.7803 551.907 74.4427 551.173 73.2827C550.439 72.099 549.433 71.1757 548.155 70.5128C546.876 69.8262 545.409 69.483 543.751 69.483C542.118 69.483 540.65 69.8262 539.348 70.5128C538.07 71.1757 537.063 72.099 536.33 73.2827C535.596 74.4427 535.229 75.7803 535.229 77.2955C535.229 78.8106 535.596 80.1719 536.33 81.3793C537.063 82.563 538.07 83.5099 539.348 84.2202C540.65 84.9067 542.118 85.25 543.751 85.25Z" fill="#03AFD7"/>
</g>
</g>
<g filter="url(#filter4_d_2490_46630)">
<path d="M81.448 131V94.328H67.368V87.032H103.464V94.328H89.448V131H81.448ZM127.891 97.144C135.123 97.144 140.179 102.392 140.179 109.944V131H132.563V111.48C132.563 106.936 129.747 103.8 125.651 103.8C121.171 103.8 117.587 106.936 117.587 110.968V131H109.779V86.264H117.587V102.392C119.571 99.256 123.475 97.144 127.891 97.144ZM168.85 97.912H176.722V131H168.85V126.648C166.866 129.72 163.026 131.768 158.61 131.768C151.378 131.768 146.322 126.52 146.322 118.968V97.912H153.874V117.432C153.874 121.976 156.754 125.112 160.85 125.112C165.33 125.112 168.85 121.976 168.85 117.944V97.912ZM202.009 97.144C209.305 97.144 214.361 102.392 214.361 109.944V131H206.745V111.48C206.745 106.936 203.865 103.8 199.769 103.8C195.289 103.8 191.769 106.936 191.769 110.968V131H183.961V97.912H191.769V102.264C193.753 99.192 197.593 97.144 202.009 97.144ZM246.047 86.264H253.855V131H246.047V125.816C243.487 129.528 239.455 131.768 234.591 131.768C225.823 131.768 219.359 124.6 219.359 114.424C219.359 104.312 225.823 97.144 234.591 97.144C239.455 97.144 243.487 99.384 246.047 103.096V86.264ZM236.703 125.112C242.143 125.112 246.047 120.632 246.047 114.424C246.047 108.216 242.143 103.8 236.703 103.8C231.071 103.8 227.103 108.216 227.103 114.424C227.103 120.632 231.071 125.112 236.703 125.112ZM276.758 125.496C280.15 125.496 283.862 124.088 285.974 122.04L290.454 126.648C287.574 129.72 281.814 131.768 277.014 131.768C267.478 131.768 259.67 124.536 259.67 114.36C259.67 104.376 267.094 97.144 276.566 97.144C286.806 97.144 292.822 104.696 292.822 116.728H267.222C268.054 121.912 271.638 125.496 276.758 125.496ZM276.694 103.416C271.958 103.416 268.31 106.616 267.286 111.544H285.27C284.566 106.872 281.622 103.416 276.694 103.416ZM305.894 104.184C308.006 99.896 312.358 97.144 317.734 97.144V103.8C310.63 103.8 305.894 108.024 305.894 114.296V131H298.086V97.912H305.894V104.184ZM342.418 97.144C351.186 97.144 357.65 104.312 357.65 114.424C357.65 124.6 351.186 131.768 342.418 131.768C337.554 131.768 333.522 129.528 330.962 125.816V131H323.154V86.264H330.962V103.096C333.522 99.384 337.554 97.144 342.418 97.144ZM340.306 125.112C345.938 125.112 349.906 120.632 349.906 114.424C349.906 108.216 345.938 103.8 340.306 103.8C334.866 103.8 330.962 108.216 330.962 114.424C330.962 120.632 334.866 125.112 340.306 125.112ZM367.115 92.92C364.619 92.92 362.635 90.808 362.635 88.44C362.635 86.072 364.619 84.024 367.115 84.024C369.547 84.024 371.467 86.072 371.467 88.44C371.467 90.808 369.547 92.92 367.115 92.92ZM363.211 131V97.912H371.019V131H363.211ZM386.081 104.184C388.193 99.896 392.545 97.144 397.921 97.144V103.8C390.817 103.8 386.081 108.024 386.081 114.296V131H378.273V97.912H386.081V104.184ZM426.735 86.264H434.543V131H426.735V125.816C424.175 129.528 420.143 131.768 415.279 131.768C406.51 131.768 400.047 124.6 400.047 114.424C400.047 104.312 406.51 97.144 415.279 97.144C420.143 97.144 424.175 99.384 426.735 103.096V86.264ZM417.391 125.112C422.831 125.112 426.735 120.632 426.735 114.424C426.735 108.216 422.831 103.8 417.391 103.8C411.759 103.8 407.791 108.216 407.791 114.424C407.791 120.632 411.759 125.112 417.391 125.112Z" fill="#FEFFFF"/>
</g>
<defs>
<filter id="filter0_f_2490_46630" x="-1352.5" y="120.5" width="2166" height="43" filterUnits="userSpaceOnUse" color-interpolation-filters="sRGB">
<feFlood flood-opacity="0" result="BackgroundImageFix"/>
<feBlend mode="normal" in="SourceGraphic" in2="BackgroundImageFix" result="shape"/>
<feGaussianBlur stdDeviation="8.75" result="effect1_foregroundBlur_2490_46630"/>
</filter>
<filter id="filter1_f_2490_46630" x="-812.073" y="135.7" width="1085.15" height="12.6" filterUnits="userSpaceOnUse" color-interpolation-filters="sRGB">
<feFlood flood-opacity="0" result="BackgroundImageFix"/>
<feBlend mode="normal" in="SourceGraphic" in2="BackgroundImageFix" result="shape"/>
<feGaussianBlur stdDeviation="2.65" result="effect1_foregroundBlur_2490_46630"/>
</filter>
<filter id="filter2_d_2490_46630" x="66" y="137" width="519" height="143.929" filterUnits="userSpaceOnUse" color-interpolation-filters="sRGB">
<feFlood flood-opacity="0" result="BackgroundImageFix"/>
<feColorMatrix in="SourceAlpha" type="matrix" values="0 0 0 0 0 0 0 0 0 0 0 0 0 0 0 0 0 0 127 0" result="hardAlpha"/>
<feOffset dy="3"/>
<feGaussianBlur stdDeviation="1.5"/>
<feComposite in2="hardAlpha" operator="out"/>
<feColorMatrix type="matrix" values="0 0 0 0 0 0 0 0 0 0 0 0 0 0 0 0 0 0 0.25 0"/>
<feBlend mode="normal" in2="BackgroundImageFix" result="effect1_dropShadow_2490_46630"/>
<feBlend mode="normal" in="SourceGraphic" in2="effect1_dropShadow_2490_46630" result="shape"/>
</filter>
<filter id="filter3_i_2490_46630" x="398.403" y="55.2783" width="175.888" height="75.7161" filterUnits="userSpaceOnUse" color-interpolation-filters="sRGB">
<feFlood flood-opacity="0" result="BackgroundImageFix"/>
<feBlend mode="normal" in="SourceGraphic" in2="BackgroundImageFix" result="shape"/>
<feColorMatrix in="SourceAlpha" type="matrix" values="0 0 0 0 0 0 0 0 0 0 0 0 0 0 0 0 0 0 127 0" result="hardAlpha"/>
<feOffset dy="1"/>
<feGaussianBlur stdDeviation="1"/>
<feComposite in2="hardAlpha" operator="arithmetic" k2="-1" k3="1"/>
<feColorMatrix type="matrix" values="0 0 0 0 0.0745098 0 0 0 0 0.101961 0 0 0 0 0.164706 0 0 0 0.5 0"/>
<feBlend mode="normal" in2="shape" result="effect1_innerShadow_2490_46630"/>
</filter>
<filter id="filter4_d_2490_46630" x="65.368" y="84.0239" width="371.174" height="51.7441" filterUnits="userSpaceOnUse" color-interpolation-filters="sRGB">
<feFlood flood-opacity="0" result="BackgroundImageFix"/>
<feColorMatrix in="SourceAlpha" type="matrix" values="0 0 0 0 0 0 0 0 0 0 0 0 0 0 0 0 0 0 127 0" result="hardAlpha"/>
<feOffset dy="2"/>
<feGaussianBlur stdDeviation="1"/>
<feComposite in2="hardAlpha" operator="out"/>
<feColorMatrix type="matrix" values="0 0 0 0 0 0 0 0 0 0 0 0 0 0 0 0 0 0 0.3 0"/>
<feBlend mode="normal" in2="BackgroundImageFix" result="effect1_dropShadow_2490_46630"/>
<feBlend mode="normal" in="SourceGraphic" in2="effect1_dropShadow_2490_46630" result="shape"/>
</filter>
<linearGradient id="paint0_linear_2490_46630" x1="-1335" y1="142" x2="796" y2="142" gradientUnits="userSpaceOnUse">
<stop stop-color="#37ADF9"/>
<stop offset="0.515" stop-color="#AE55F7"/>
<stop offset="1" stop-color="#25A6A0"/>
</linearGradient>
<linearGradient id="paint1_linear_2490_46630" x1="455.801" y1="206.926" x2="550.712" y2="206.926" gradientUnits="userSpaceOnUse">
<stop stop-color="#37ADF9"/>
<stop offset="1" stop-color="#AE55F7"/>
</linearGradient>
<linearGradient id="paint2_linear_2490_46630" x1="455.801" y1="206.926" x2="550.712" y2="206.926" gradientUnits="userSpaceOnUse">
<stop stop-color="#37ADF9"/>
<stop offset="1" stop-color="#AE55F7"/>
</linearGradient>
<linearGradient id="paint3_linear_2490_46630" x1="455.801" y1="206.926" x2="550.712" y2="206.926" gradientUnits="userSpaceOnUse">
<stop stop-color="#37ADF9"/>
<stop offset="1" stop-color="#AE55F7"/>
</linearGradient>
<linearGradient id="paint4_linear_2490_46630" x1="455.801" y1="206.926" x2="550.712" y2="206.926" gradientUnits="userSpaceOnUse">
<stop stop-color="#37ADF9"/>
<stop offset="1" stop-color="#AE55F7"/>
</linearGradient>
<linearGradient id="paint5_linear_2490_46630" x1="455.801" y1="206.926" x2="550.712" y2="206.926" gradientUnits="userSpaceOnUse">
<stop stop-color="#37ADF9"/>
<stop offset="1" stop-color="#AE55F7"/>
</linearGradient>
<linearGradient id="paint6_linear_2490_46630" x1="443.516" y1="204.972" x2="557.123" y2="204.972" gradientUnits="userSpaceOnUse">
<stop stop-color="#37ADF9"/>
<stop offset="1" stop-color="#AE55F7"/>
</linearGradient>
<linearGradient id="paint7_linear_2490_46630" x1="443.516" y1="204.972" x2="557.123" y2="204.972" gradientUnits="userSpaceOnUse">
<stop stop-color="#37ADF9"/>
<stop offset="1" stop-color="#AE55F7"/>
</linearGradient>
<linearGradient id="paint8_linear_2490_46630" x1="445.189" y1="205.965" x2="582" y2="205.965" gradientUnits="userSpaceOnUse">
<stop stop-color="#37ADF9"/>
<stop offset="1" stop-color="#AE55F7"/>
</linearGradient>
<linearGradient id="paint9_linear_2490_46630" x1="445.189" y1="205.965" x2="582" y2="205.965" gradientUnits="userSpaceOnUse">
<stop stop-color="#37ADF9"/>
<stop offset="1" stop-color="#AE55F7"/>
</linearGradient>
<linearGradient id="paint10_linear_2490_46630" x1="445.189" y1="205.965" x2="582" y2="205.965" gradientUnits="userSpaceOnUse">
<stop stop-color="#37ADF9"/>
<stop offset="1" stop-color="#AE55F7"/>
</linearGradient>
<linearGradient id="paint11_linear_2490_46630" x1="445.189" y1="205.965" x2="582" y2="205.965" gradientUnits="userSpaceOnUse">
<stop stop-color="#37ADF9"/>
<stop offset="1" stop-color="#AE55F7"/>
</linearGradient>
<linearGradient id="paint12_linear_2490_46630" x1="445.189" y1="205.965" x2="582" y2="205.965" gradientUnits="userSpaceOnUse">
<stop stop-color="#37ADF9"/>
<stop offset="1" stop-color="#AE55F7"/>
</linearGradient>
<linearGradient id="paint13_linear_2490_46630" x1="445.189" y1="205.965" x2="582" y2="205.965" gradientUnits="userSpaceOnUse">
<stop stop-color="#37ADF9"/>
<stop offset="1" stop-color="#AE55F7"/>
</linearGradient>
<linearGradient id="paint14_linear_2490_46630" x1="445.189" y1="205.965" x2="582" y2="205.965" gradientUnits="userSpaceOnUse">
<stop stop-color="#37ADF9"/>
<stop offset="1" stop-color="#AE55F7"/>
</linearGradient>
<linearGradient id="paint15_linear_2490_46630" x1="445.189" y1="205.965" x2="582" y2="205.965" gradientUnits="userSpaceOnUse">
<stop stop-color="#37ADF9"/>
<stop offset="1" stop-color="#AE55F7"/>
</linearGradient>
<linearGradient id="paint16_linear_2490_46630" x1="445.189" y1="205.965" x2="582" y2="205.965" gradientUnits="userSpaceOnUse">
<stop stop-color="#37ADF9"/>
<stop offset="1" stop-color="#AE55F7"/>
</linearGradient>
<linearGradient id="paint17_linear_2490_46630" x1="445.189" y1="205.965" x2="582" y2="205.965" gradientUnits="userSpaceOnUse">
<stop stop-color="#37ADF9"/>
<stop offset="1" stop-color="#AE55F7"/>
</linearGradient>
<linearGradient id="paint18_linear_2490_46630" x1="445.189" y1="205.965" x2="582" y2="205.965" gradientUnits="userSpaceOnUse">
<stop stop-color="#37ADF9"/>
<stop offset="1" stop-color="#AE55F7"/>
</linearGradient>
<linearGradient id="paint19_linear_2490_46630" x1="445.189" y1="205.965" x2="582" y2="205.965" gradientUnits="userSpaceOnUse">
<stop stop-color="#37ADF9"/>
<stop offset="1" stop-color="#AE55F7"/>
</linearGradient>
<linearGradient id="paint20_linear_2490_46630" x1="69" y1="196.482" x2="425.024" y2="196.482" gradientUnits="userSpaceOnUse">
<stop stop-color="#37ADF9"/>
<stop offset="1" stop-color="#AE55F7"/>
</linearGradient>
<linearGradient id="paint21_linear_2490_46630" x1="69" y1="196.482" x2="425.024" y2="196.482" gradientUnits="userSpaceOnUse">
<stop stop-color="#37ADF9"/>
<stop offset="1" stop-color="#AE55F7"/>
</linearGradient>
<linearGradient id="paint22_linear_2490_46630" x1="69" y1="196.482" x2="425.024" y2="196.482" gradientUnits="userSpaceOnUse">
<stop stop-color="#37ADF9"/>
<stop offset="1" stop-color="#AE55F7"/>
</linearGradient>
<linearGradient id="paint23_linear_2490_46630" x1="69" y1="196.482" x2="425.024" y2="196.482" gradientUnits="userSpaceOnUse">
<stop stop-color="#37ADF9"/>
<stop offset="1" stop-color="#AE55F7"/>
</linearGradient>
<linearGradient id="paint24_linear_2490_46630" x1="69" y1="196.482" x2="425.024" y2="196.482" gradientUnits="userSpaceOnUse">
<stop stop-color="#37ADF9"/>
<stop offset="1" stop-color="#AE55F7"/>
</linearGradient>
<linearGradient id="paint25_linear_2490_46630" x1="69" y1="196.482" x2="425.024" y2="196.482" gradientUnits="userSpaceOnUse">
<stop stop-color="#37ADF9"/>
<stop offset="1" stop-color="#AE55F7"/>
</linearGradient>
<clipPath id="clip0_2490_46630">
<rect width="1045" height="75" fill="white" transform="translate(0 104)"/>
</clipPath>
<clipPath id="clip1_2490_46630">
<rect width="327" height="144" fill="white" transform="translate(337)"/>
</clipPath>
</defs>
</svg>
