<svg width="683" height="238" viewBox="0 0 683 238" fill="none" xmlns="http://www.w3.org/2000/svg">
<g clip-path="url(#clip0_2658_106448)">
<g opacity="0.62">
<g filter="url(#filter0_f_2658_106448)">
<ellipse cx="-227.721" cy="120.109" rx="900.322" ry="3.3799" fill="url(#paint0_linear_2658_106448)"/>
</g>
<g filter="url(#filter1_f_2658_106448)">
<ellipse cx="-227.722" cy="120.109" rx="453.982" ry="0.844976" fill="white"/>
</g>
</g>
</g>
<g filter="url(#filter2_d_2658_106448)">
<g opacity="0.4">
<path d="M435.268 133.772C435.815 133.969 435.527 134.769 434.955 134.659C427.307 133.194 419.165 133.813 411.387 136.889C408.74 137.936 406.257 139.219 403.953 140.704C403.894 140.742 403.831 140.771 403.764 140.79C398.196 142.409 393.044 145.007 388.507 148.386C387.849 148.876 386.994 148.108 387.501 147.463C391.992 141.744 398.014 137.104 405.264 134.236C415.271 130.279 425.882 130.388 435.268 133.772Z" fill="url(#paint1_linear_2658_106448)"/>
<path d="M385.209 189.476C385.255 188.7 386.331 188.627 386.57 189.367C386.853 190.247 387.167 191.124 387.512 191.996C390.588 199.775 395.705 206.138 402.005 210.716C402.476 211.058 402.089 211.815 401.571 211.551C395.266 208.335 389.741 203.542 385.65 197.455C385.592 197.369 385.554 197.271 385.539 197.169C385.277 195.395 385.141 193.578 385.141 191.729C385.141 190.972 385.164 190.221 385.209 189.476Z" fill="url(#paint2_linear_2658_106448)"/>
<path d="M460.179 150.842C460.166 150.717 460.119 150.597 460.044 150.497C456.105 145.233 451.051 141.047 445.36 138.144C444.842 137.88 444.455 138.637 444.926 138.979C451.226 143.557 456.343 149.92 459.419 157.698C459.589 158.129 460.223 158.054 460.26 157.592C460.336 156.626 460.375 155.649 460.375 154.663C460.375 153.372 460.308 152.097 460.179 150.842Z" fill="url(#paint3_linear_2658_106448)"/>
<path d="M451.915 201.321C451.845 201.361 451.783 201.411 451.73 201.471C447.442 206.322 441.977 210.262 435.544 212.806C427.766 215.881 419.624 216.501 411.975 215.035C411.404 214.926 411.116 215.726 411.663 215.923C421.049 219.307 431.66 219.416 441.667 215.458C452.798 211.057 461.032 202.476 465.281 192.229C465.584 191.498 464.618 190.96 464.089 191.549C460.6 195.429 456.49 198.739 451.915 201.321Z" fill="url(#paint4_linear_2658_106448)"/>
<path fill-rule="evenodd" clip-rule="evenodd" d="M423.832 187.011C431.65 187.011 437.988 180.673 437.988 172.855C437.988 165.037 431.65 158.7 423.832 158.7C416.014 158.7 409.677 165.037 409.677 172.855C409.677 180.673 416.014 187.011 423.832 187.011ZM423.832 185.123C430.608 185.123 436.1 179.631 436.1 172.855C436.1 166.08 430.608 160.587 423.832 160.587C417.057 160.587 411.564 166.08 411.564 172.855C411.564 179.631 417.057 185.123 423.832 185.123Z" fill="url(#paint5_linear_2658_106448)"/>
</g>
<g opacity="0.9">
<path d="M403.43 192.059C402.662 191.644 401.85 192.627 402.544 193.157C409.686 198.609 418.609 201.847 428.289 201.847C451.742 201.847 470.755 182.835 470.755 159.381C470.755 149.702 467.517 140.778 462.064 133.636C461.535 132.942 460.552 133.755 460.967 134.523C464.201 140.516 466.037 147.375 466.037 154.662C466.037 178.116 447.024 197.129 423.57 197.129C416.282 197.129 409.423 195.293 403.43 192.059Z" fill="url(#paint6_linear_2658_106448)"/>
<path d="M442.085 154.333C442.853 154.747 443.665 153.764 442.971 153.235C435.829 147.783 426.906 144.544 417.227 144.544C393.773 144.544 374.76 163.557 374.76 187.011C374.76 196.69 377.998 205.613 383.451 212.755C383.98 213.449 384.963 212.637 384.549 211.869C381.314 205.876 379.479 199.017 379.479 191.729C379.479 168.275 398.491 149.263 421.945 149.263C429.233 149.263 436.092 151.098 442.085 154.333Z" fill="url(#paint7_linear_2658_106448)"/>
</g>
<g opacity="0.8">
<path d="M404.486 117.649C404.486 118.691 403.641 119.537 402.598 119.537C401.556 119.537 400.711 118.691 400.711 117.649C400.711 116.607 401.556 115.762 402.598 115.762C403.641 115.762 404.486 116.607 404.486 117.649Z" fill="url(#paint8_linear_2658_106448)"/>
<path d="M442.455 119.798C442.222 120.51 442.002 121.184 441.762 121.424C441.522 121.664 440.848 121.884 440.135 122.117C439.102 122.454 437.987 122.819 437.987 123.311C437.987 123.804 439.102 124.168 440.135 124.505C440.848 124.738 441.522 124.958 441.762 125.199C442.002 125.439 442.222 126.112 442.455 126.825C442.792 127.858 443.157 128.973 443.649 128.973C444.141 128.973 444.506 127.858 444.844 126.825C445.077 126.112 445.297 125.439 445.537 125.199C445.777 124.958 446.45 124.738 447.163 124.505C448.196 124.168 449.311 123.804 449.311 123.311C449.311 122.819 448.196 122.454 447.163 122.117C446.45 121.884 445.777 121.664 445.537 121.424C445.297 121.184 445.077 120.51 444.844 119.798C444.506 118.765 444.141 117.649 443.649 117.649C443.157 117.649 442.792 118.765 442.455 119.798Z" fill="url(#paint9_linear_2658_106448)"/>
<path d="M400.46 221.246C400.227 221.958 400.007 222.631 399.767 222.872C399.527 223.112 398.854 223.332 398.141 223.565C397.108 223.902 395.993 224.267 395.993 224.759C395.993 225.252 397.108 225.616 398.141 225.953C398.854 226.186 399.527 226.406 399.767 226.647C400.007 226.887 400.227 227.56 400.46 228.272C400.798 229.305 401.163 230.421 401.655 230.421C402.147 230.421 402.512 229.305 402.849 228.272C403.082 227.56 403.302 226.887 403.542 226.647C403.782 226.406 404.456 226.186 405.169 225.953C406.201 225.616 407.317 225.252 407.317 224.759C407.317 224.267 406.202 223.902 405.169 223.565C404.456 223.332 403.782 223.112 403.542 222.872C403.302 222.631 403.082 221.958 402.849 221.246C402.512 220.213 402.147 219.097 401.655 219.097C401.163 219.097 400.798 220.213 400.46 221.246Z" fill="url(#paint10_linear_2658_106448)"/>
<path d="M464.284 218.284C464.452 217.767 464.635 217.209 464.881 217.209C465.127 217.209 465.309 217.767 465.478 218.284C465.595 218.64 465.705 218.977 465.825 219.097C465.945 219.217 466.281 219.327 466.638 219.443C467.154 219.612 467.712 219.794 467.712 220.04C467.712 220.287 467.154 220.469 466.638 220.637C466.281 220.754 465.945 220.864 465.825 220.984C465.705 221.104 465.595 221.441 465.478 221.797C465.309 222.313 465.127 222.871 464.881 222.871C464.635 222.871 464.452 222.314 464.284 221.797C464.167 221.441 464.057 221.104 463.937 220.984C463.817 220.864 463.48 220.754 463.124 220.637C462.608 220.469 462.05 220.287 462.05 220.04C462.05 219.794 462.608 219.612 463.124 219.443C463.48 219.327 463.817 219.217 463.937 219.097C464.057 218.977 464.167 218.64 464.284 218.284Z" fill="url(#paint11_linear_2658_106448)"/>
<path d="M392.564 173.93C392.448 174.286 392.338 174.623 392.218 174.743C392.098 174.863 391.761 174.973 391.404 175.089C390.888 175.258 390.33 175.44 390.33 175.687C390.33 175.933 390.888 176.115 391.404 176.284C391.761 176.4 392.098 176.51 392.218 176.63C392.338 176.75 392.448 177.087 392.564 177.443C392.733 177.96 392.915 178.518 393.161 178.518C393.407 178.518 393.59 177.96 393.759 177.443C393.875 177.087 393.985 176.75 394.105 176.63C394.225 176.51 394.562 176.4 394.918 176.284C395.435 176.115 395.992 175.933 395.992 175.687C395.992 175.44 395.435 175.258 394.918 175.089C394.562 174.973 394.225 174.863 394.105 174.743C393.985 174.623 393.875 174.286 393.759 173.93C393.59 173.413 393.407 172.855 393.161 172.855C392.915 172.855 392.733 173.413 392.564 173.93Z" fill="url(#paint12_linear_2658_106448)"/>
<path d="M452.961 168.268C453.13 167.751 453.312 167.193 453.558 167.193C453.804 167.193 453.986 167.751 454.155 168.268C454.272 168.624 454.382 168.96 454.502 169.081C454.622 169.201 454.959 169.311 455.315 169.427C455.831 169.596 456.389 169.778 456.389 170.024C456.389 170.271 455.831 170.453 455.315 170.621C454.959 170.738 454.622 170.848 454.502 170.968C454.382 171.088 454.272 171.425 454.155 171.781C453.986 172.297 453.804 172.855 453.558 172.855C453.312 172.855 453.13 172.297 452.961 171.781C452.844 171.425 452.734 171.088 452.614 170.968C452.494 170.848 452.157 170.738 451.801 170.621C451.285 170.453 450.727 170.271 450.727 170.024C450.727 169.778 451.285 169.596 451.801 169.427C452.157 169.311 452.494 169.201 452.614 169.081C452.734 168.96 452.844 168.624 452.961 168.268Z" fill="url(#paint13_linear_2658_106448)"/>
<path d="M378.408 128.632C378.292 128.989 378.182 129.325 378.062 129.445C377.942 129.565 377.605 129.675 377.249 129.792C376.732 129.96 376.174 130.143 376.174 130.389C376.174 130.635 376.732 130.817 377.249 130.986C377.605 131.102 377.942 131.212 378.062 131.333C378.182 131.453 378.292 131.789 378.408 132.146C378.577 132.662 378.759 133.22 379.006 133.22C379.252 133.22 379.434 132.662 379.603 132.146C379.719 131.789 379.829 131.453 379.949 131.333C380.069 131.212 380.406 131.102 380.763 130.986C381.279 130.817 381.837 130.635 381.837 130.389C381.837 130.143 381.279 129.96 380.763 129.792C380.406 129.675 380.069 129.565 379.949 129.445C379.829 129.325 379.719 128.989 379.603 128.632C379.434 128.116 379.252 127.558 379.006 127.558C378.759 127.558 378.577 128.116 378.408 128.632Z" fill="url(#paint14_linear_2658_106448)"/>
<path d="M421.001 172.855C421.001 174.419 422.268 175.687 423.832 175.687C425.395 175.687 426.663 174.419 426.663 172.855C426.663 171.292 425.395 170.024 423.832 170.024C422.268 170.024 421.001 171.292 421.001 172.855Z" fill="url(#paint15_linear_2658_106448)"/>
<path d="M400.711 166.249C401.753 166.249 402.598 165.404 402.598 164.362C402.598 163.32 401.753 162.475 400.711 162.475C399.669 162.475 398.824 163.32 398.824 164.362C398.824 165.404 399.669 166.249 400.711 166.249Z" fill="url(#paint16_linear_2658_106448)"/>
<path d="M441.762 232.309C442.804 232.309 443.649 231.464 443.649 230.421C443.649 229.379 442.804 228.534 441.762 228.534C440.72 228.534 439.875 229.379 439.875 230.421C439.875 231.464 440.72 232.309 441.762 232.309Z" fill="url(#paint17_linear_2658_106448)"/>
<path d="M491.776 172.855C491.776 174.94 490.086 176.63 488.002 176.63C485.917 176.63 484.227 174.94 484.227 172.855C484.227 170.771 485.917 169.08 488.002 169.08C490.086 169.08 491.776 170.771 491.776 172.855Z" fill="url(#paint18_linear_2658_106448)"/>
<path d="M445.537 183.708C446.579 183.708 447.424 182.863 447.424 181.821C447.424 180.778 446.579 179.933 445.537 179.933C444.494 179.933 443.649 180.778 443.649 181.821C443.649 182.863 444.494 183.708 445.537 183.708Z" fill="url(#paint19_linear_2658_106448)"/>
</g>
<path fill-rule="evenodd" clip-rule="evenodd" d="M195.605 203.673C190.63 203.673 186.133 202.524 182.115 200.228C178.096 197.932 174.907 194.806 172.547 190.852C170.25 186.897 169.038 182.432 168.911 177.457V131.243C168.911 130.35 169.166 129.649 169.676 129.138C170.25 128.628 170.952 128.373 171.781 128.373C172.674 128.373 173.376 128.628 173.886 129.138C174.396 129.649 174.652 130.35 174.652 131.243V161.095C176.693 157.778 179.531 155.131 183.167 153.154C186.867 151.177 191.013 150.188 195.605 150.188C200.708 150.188 205.269 151.368 209.287 153.728C213.37 156.024 216.559 159.182 218.855 163.2C221.215 167.219 222.395 171.78 222.395 176.882C222.395 181.985 221.215 186.578 218.855 190.66C216.559 194.679 213.37 197.868 209.287 200.228C205.269 202.524 200.708 203.673 195.605 203.673ZM195.605 198.315C199.624 198.315 203.196 197.39 206.321 195.54C209.511 193.626 212.03 191.075 213.88 187.886C215.73 184.632 216.655 180.965 216.655 176.882C216.655 172.8 215.73 169.164 213.88 165.975C212.03 162.786 209.511 160.266 206.321 158.416C203.196 156.503 199.624 155.546 195.605 155.546C191.651 155.546 188.079 156.503 184.889 158.416C181.7 160.266 179.18 162.786 177.331 165.975C175.545 169.164 174.652 172.8 174.652 176.882C174.652 180.965 175.545 184.632 177.331 187.886C179.18 191.075 181.7 193.626 184.889 195.54C188.079 197.39 191.651 198.315 195.605 198.315Z" fill="url(#paint20_linear_2658_106448)"/>
<path d="M136.856 152.076C144.624 152.343 152.107 156.119 156.888 162.747C157.378 163.427 157.839 164.141 158.271 164.882C158.279 164.899 158.286 164.917 158.294 164.934C158.304 164.957 158.314 164.981 158.327 165.004L158.312 164.979C158.398 165.128 158.467 165.279 158.525 165.431C158.857 166.465 158.455 167.623 157.456 168.2L128.549 184.889C127.398 185.554 125.982 185.175 125.317 184.024C124.653 182.873 125.032 181.457 126.183 180.792L149.735 167.195C151.275 166.305 151.613 164.017 150.281 162.755C145.977 158.68 140.148 156.669 134.327 157.131C131.338 157.368 128.35 158.26 125.587 159.855C123.105 161.288 121.023 163.162 119.394 165.319C119.212 165.56 119.034 165.805 118.862 166.055L118.859 166.06L118.858 166.062L118.856 166.063L118.839 166.089L118.812 166.128L118.811 166.129L118.793 166.156C114.444 172.551 113.859 181.134 117.975 188.263C122.091 195.392 129.816 199.177 137.529 198.608L137.552 198.606L137.57 198.605L137.571 198.604L137.576 198.604L137.602 198.602L137.607 198.602L137.611 198.601L137.637 198.599L137.925 198.577L137.955 198.565C140.839 198.292 143.716 197.414 146.382 195.875C151.85 192.718 155.356 187.43 156.43 181.666C156.442 181.606 156.453 181.545 156.464 181.483C156.689 180.292 157.298 179.314 158.153 178.821C159.08 178.285 160.054 178.347 160.716 178.7C161.378 179.054 161.747 179.53 161.644 180.515C160.817 188.458 156.337 195.899 148.882 200.203C136.525 207.337 120.78 203.119 113.646 190.762C106.958 179.178 110.262 164.611 120.869 156.962C121.576 156.452 122.315 155.972 123.088 155.526C127.432 153.018 132.195 151.915 136.856 152.076Z" fill="url(#paint21_linear_2658_106448)"/>
<path d="M97.5434 193.524H97.5819V200.912C97.5819 202.437 98.8177 203.673 100.342 203.673C101.867 203.673 103.102 202.437 103.102 200.912V177.438C103.102 165.067 93.0739 155.038 80.7029 155.038C68.332 155.038 58.3033 165.067 58.3033 177.438L58.3044 200.912C58.3044 202.437 59.5402 203.673 61.0647 203.673C62.5892 203.673 63.825 202.437 63.825 200.912V200.821L63.8827 200.15C63.8587 199.782 63.8466 199.411 63.8466 199.038V176.428C63.8466 167.123 71.3899 159.579 80.695 159.579C90.0001 159.579 97.5434 167.123 97.5434 176.428V193.524Z" fill="url(#paint22_linear_2658_106448)"/>
<path d="M268.713 165.187H268.752V157.798C268.752 156.274 269.987 155.038 271.512 155.038C273.036 155.038 274.272 156.274 274.272 157.798V181.273C274.272 193.644 264.244 203.673 251.873 203.673C239.502 203.673 229.473 193.644 229.473 181.273L229.474 157.798C229.474 156.274 230.71 155.038 232.234 155.038C233.759 155.038 234.995 156.274 234.995 157.798V157.889L235.052 158.561C235.028 158.929 235.016 159.3 235.016 159.673V182.283C235.016 191.588 242.56 199.131 251.865 199.131C261.17 199.131 268.713 191.588 268.713 182.283V165.187Z" fill="url(#paint23_linear_2658_106448)"/>
<path d="M293.788 203.673C291.364 203.673 289.196 203.003 287.282 201.663C285.432 200.324 283.965 198.474 282.881 196.114C281.86 193.754 281.35 191.011 281.35 187.886V131.818C281.35 130.925 281.605 130.223 282.116 129.713C282.69 129.202 283.391 128.947 284.22 128.947C285.113 128.947 285.815 129.202 286.325 129.713C286.836 130.223 287.091 130.925 287.091 131.818V187.886C287.091 190.82 287.697 193.244 288.909 195.157C290.184 197.007 291.811 197.932 293.788 197.932H296.18C296.882 197.932 297.456 198.187 297.903 198.697C298.349 199.208 298.572 199.909 298.572 200.802C298.572 201.632 298.317 202.333 297.807 202.907C297.297 203.418 296.595 203.673 295.702 203.673H293.788Z" fill="url(#paint24_linear_2658_106448)"/>
<path fill-rule="evenodd" clip-rule="evenodd" d="M318.663 200.228C322.745 202.525 327.338 203.673 332.44 203.673C337.097 203.673 341.243 202.684 344.879 200.707C348.46 198.696 351.298 196.005 353.394 192.633V200.228C353.394 201.058 353.649 201.759 354.16 202.333C354.734 202.844 355.435 203.099 356.265 203.099C357.158 203.099 357.859 202.844 358.369 202.333C358.88 201.759 359.135 201.058 359.135 200.228V176.978C359.135 171.875 357.955 167.315 355.595 163.296C353.298 159.214 350.141 156.024 346.123 153.728C342.104 151.368 337.543 150.188 332.44 150.188C327.338 150.188 322.745 151.368 318.663 153.728C314.644 156.024 311.455 159.214 309.095 163.296C306.798 167.315 305.65 171.875 305.65 176.978C305.65 182.017 306.798 186.578 309.095 190.66C311.455 194.679 314.644 197.868 318.663 200.228ZM343.156 195.54C340.031 197.39 336.459 198.315 332.44 198.315C328.486 198.315 324.914 197.39 321.724 195.54C318.535 193.626 316.015 191.075 314.166 187.886C312.316 184.633 311.391 180.997 311.391 176.978C311.391 172.896 312.316 169.26 314.166 166.071C316.015 162.818 318.535 160.266 321.724 158.416C324.914 156.503 328.486 155.546 332.44 155.546C336.459 155.546 340.031 156.503 343.156 158.416C346.346 160.266 348.833 162.818 350.619 166.071C352.469 169.26 353.394 172.896 353.394 176.978C353.394 180.997 352.469 184.633 350.619 187.886C348.833 191.075 346.346 193.626 343.156 195.54Z" fill="url(#paint25_linear_2658_106448)"/>
</g>
<mask id="mask0_2658_106448" style="mask-type:luminance" maskUnits="userSpaceOnUse" x="284" y="0" width="278" height="122">
<g clip-path="url(#clip1_2658_106448)">
<rect width="276.307" height="121.677" transform="translate(284.757)" fill="white"/>
<mask id="path-7-outside-1_2658_106448" maskUnits="userSpaceOnUse" x="52.9234" y="66.5981" width="318" height="49" fill="black">
<rect fill="white" x="52.9234" y="66.5981" width="318" height="49"/>
<path d="M68.8216 79.6112H56.9243V73.4462H87.4246V79.6112H75.5814V110.598H68.8216V79.6112ZM108.065 81.9906C110.084 81.9906 111.868 82.4593 113.419 83.3967C115.005 84.298 116.231 85.5778 117.096 87.2362C117.997 88.8586 118.448 90.7153 118.448 92.8063V110.598H112.013V94.1042C112.013 92.1934 111.472 90.6432 110.39 89.4535C109.309 88.2277 107.903 87.6148 106.172 87.6148C104.261 87.6148 102.639 88.2097 101.305 89.3994C100.007 90.5531 99.3582 91.9771 99.3582 93.6716V110.598H92.7606V72.7973H99.3582V86.4251C100.223 85.0911 101.431 84.0276 102.981 83.2344C104.532 82.4052 106.226 81.9906 108.065 81.9906ZM149.326 82.6396V110.598H142.674V106.921C141.809 108.255 140.601 109.318 139.051 110.111C137.537 110.869 135.86 111.247 134.022 111.247C132.003 111.247 130.2 110.796 128.614 109.895C127.064 108.958 125.838 107.678 124.936 106.056C124.071 104.397 123.639 102.522 123.639 100.431V82.6396H130.02V99.1335C130.02 101.044 130.561 102.613 131.642 103.838C132.76 105.028 134.184 105.623 135.914 105.623C137.825 105.623 139.429 105.046 140.727 103.892C142.025 102.703 142.674 101.261 142.674 99.5661V82.6396H149.326ZM170.692 81.9906C172.711 81.9906 174.514 82.4593 176.1 83.3967C177.686 84.298 178.912 85.5778 179.777 87.2362C180.679 88.8586 181.129 90.7153 181.129 92.8063V110.598H174.694V94.1042C174.694 92.1934 174.135 90.6432 173.018 89.4535C171.936 88.2277 170.53 87.6148 168.8 87.6148C166.889 87.6148 165.284 88.2097 163.987 89.3994C162.689 90.5531 162.04 91.9771 162.04 93.6716V110.598H155.442V82.6396H162.04V86.3169C162.905 84.983 164.095 83.9375 165.609 83.1804C167.159 82.3872 168.854 81.9906 170.692 81.9906ZM214.501 72.7973V110.598H207.904V106.218C206.822 107.804 205.434 109.048 203.74 109.949C202.081 110.814 200.243 111.247 198.224 111.247C195.772 111.247 193.573 110.634 191.626 109.408C189.679 108.147 188.147 106.398 187.029 104.163C185.912 101.928 185.353 99.4039 185.353 96.5918C185.353 93.7797 185.912 91.2741 187.029 89.0749C188.147 86.8397 189.679 85.1092 191.626 83.8834C193.573 82.6215 195.772 81.9906 198.224 81.9906C200.243 81.9906 202.081 82.4413 203.74 83.3426C205.434 84.2079 206.822 85.4336 207.904 87.0199V72.7973H214.501ZM200.008 105.623C201.523 105.623 202.874 105.244 204.064 104.487C205.29 103.694 206.227 102.613 206.876 101.243C207.561 99.8726 207.904 98.3223 207.904 96.5918C207.904 93.96 207.165 91.8149 205.687 90.1565C204.208 88.462 202.316 87.6148 200.008 87.6148C197.629 87.6148 195.682 88.462 194.168 90.1565C192.654 91.8149 191.897 93.96 191.897 96.5918C191.897 99.2236 192.654 101.387 194.168 103.081C195.682 104.776 197.629 105.623 200.008 105.623ZM233.854 105.947C235.296 105.947 236.72 105.677 238.126 105.136C239.568 104.595 240.74 103.892 241.641 103.027L245.427 106.921C244.237 108.183 242.56 109.228 240.397 110.057C238.234 110.851 236.125 111.247 234.07 111.247C231.402 111.247 228.951 110.616 226.715 109.354C224.48 108.093 222.696 106.344 221.362 104.109C220.064 101.873 219.415 99.3498 219.415 96.5377C219.415 93.7617 220.046 91.2741 221.308 89.0749C222.569 86.8757 224.282 85.1452 226.445 83.8834C228.644 82.6215 231.06 81.9906 233.692 81.9906C237.982 81.9906 241.335 83.4688 243.75 86.4251C246.202 89.3814 247.428 93.4192 247.428 98.5386H225.796C226.157 100.774 227.058 102.577 228.5 103.946C229.942 105.28 231.727 105.947 233.854 105.947ZM233.8 87.2903C231.817 87.2903 230.104 87.9212 228.662 89.1831C227.22 90.4088 226.283 92.0673 225.85 94.1583H241.046C240.722 92.1033 239.929 90.4449 238.667 89.1831C237.441 87.9212 235.819 87.2903 233.8 87.2903ZM258.473 87.9393C259.374 86.1006 260.708 84.6585 262.474 83.613C264.241 82.5314 266.242 81.9906 268.477 81.9906V87.6148C265.485 87.6148 263.069 88.426 261.231 90.0483C259.392 91.6707 258.473 93.8158 258.473 96.4837V110.598H251.875V82.6396H258.473V87.9393ZM289.335 81.9906C291.787 81.9906 293.986 82.6215 295.933 83.8834C297.879 85.1092 299.412 86.8397 300.529 89.0749C301.647 91.2741 302.206 93.7797 302.206 96.5918C302.206 99.4039 301.647 101.928 300.529 104.163C299.412 106.398 297.879 108.147 295.933 109.408C293.986 110.634 291.787 111.247 289.335 111.247C287.316 111.247 285.459 110.814 283.765 109.949C282.106 109.048 280.736 107.804 279.655 106.218V110.598H273.057V72.7973H279.655V87.0199C280.736 85.4336 282.106 84.2079 283.765 83.3426C285.459 82.4413 287.316 81.9906 289.335 81.9906ZM287.55 105.623C289.93 105.623 291.877 104.776 293.391 103.081C294.905 101.387 295.662 99.2236 295.662 96.5918C295.662 93.96 294.905 91.8149 293.391 90.1565C291.877 88.462 289.93 87.6148 287.55 87.6148C285.243 87.6148 283.35 88.462 281.872 90.1565C280.394 91.8149 279.655 93.96 279.655 96.5918C279.655 98.3223 279.979 99.8726 280.628 101.243C281.313 102.613 282.251 103.694 283.44 104.487C284.666 105.244 286.036 105.623 287.55 105.623ZM306.904 82.6396H313.502V110.598H306.904V82.6396ZM310.203 78.4215C309.157 78.4215 308.256 78.0429 307.499 77.2858C306.778 76.5287 306.417 75.6454 306.417 74.636C306.417 73.6265 306.778 72.7612 307.499 72.0402C308.256 71.2831 309.157 70.9045 310.203 70.9045C311.212 70.9045 312.078 71.2831 312.799 72.0402C313.52 72.7612 313.88 73.6265 313.88 74.636C313.88 75.6454 313.52 76.5287 312.799 77.2858C312.078 78.0429 311.212 78.4215 310.203 78.4215ZM326.229 87.9393C327.13 86.1006 328.464 84.6585 330.231 83.613C331.998 82.5314 333.998 81.9906 336.234 81.9906V87.6148C333.241 87.6148 330.826 88.426 328.987 90.0483C327.148 91.6707 326.229 93.8158 326.229 96.4837V110.598H319.632V82.6396H326.229V87.9393ZM367.178 72.7973V110.598H360.58V106.218C359.499 107.804 358.111 109.048 356.416 109.949C354.758 110.814 352.919 111.247 350.9 111.247C348.449 111.247 346.25 110.634 344.303 109.408C342.356 108.147 340.824 106.398 339.706 104.163C338.588 101.928 338.03 99.4039 338.03 96.5918C338.03 93.7797 338.588 91.2741 339.706 89.0749C340.824 86.8397 342.356 85.1092 344.303 83.8834C346.25 82.6215 348.449 81.9906 350.9 81.9906C352.919 81.9906 354.758 82.4413 356.416 83.3426C358.111 84.2079 359.499 85.4336 360.58 87.0199V72.7973H367.178ZM352.685 105.623C354.199 105.623 355.551 105.244 356.741 104.487C357.967 103.694 358.904 102.613 359.553 101.243C360.238 99.8726 360.58 98.3223 360.58 96.5918C360.58 93.96 359.841 91.8149 358.363 90.1565C356.885 88.462 354.992 87.6148 352.685 87.6148C350.305 87.6148 348.359 88.462 346.844 90.1565C345.33 91.8149 344.573 93.96 344.573 96.5918C344.573 99.2236 345.33 101.387 346.844 103.081C348.359 104.776 350.305 105.623 352.685 105.623Z"/>
</mask>
<path d="M68.8216 79.6112H56.9243V73.4462H87.4246V79.6112H75.5814V110.598H68.8216V79.6112ZM108.065 81.9906C110.084 81.9906 111.868 82.4593 113.419 83.3967C115.005 84.298 116.231 85.5778 117.096 87.2362C117.997 88.8586 118.448 90.7153 118.448 92.8063V110.598H112.013V94.1042C112.013 92.1934 111.472 90.6432 110.39 89.4535C109.309 88.2277 107.903 87.6148 106.172 87.6148C104.261 87.6148 102.639 88.2097 101.305 89.3994C100.007 90.5531 99.3582 91.9771 99.3582 93.6716V110.598H92.7606V72.7973H99.3582V86.4251C100.223 85.0911 101.431 84.0276 102.981 83.2344C104.532 82.4052 106.226 81.9906 108.065 81.9906ZM149.326 82.6396V110.598H142.674V106.921C141.809 108.255 140.601 109.318 139.051 110.111C137.537 110.869 135.86 111.247 134.022 111.247C132.003 111.247 130.2 110.796 128.614 109.895C127.064 108.958 125.838 107.678 124.936 106.056C124.071 104.397 123.639 102.522 123.639 100.431V82.6396H130.02V99.1335C130.02 101.044 130.561 102.613 131.642 103.838C132.76 105.028 134.184 105.623 135.914 105.623C137.825 105.623 139.429 105.046 140.727 103.892C142.025 102.703 142.674 101.261 142.674 99.5661V82.6396H149.326ZM170.692 81.9906C172.711 81.9906 174.514 82.4593 176.1 83.3967C177.686 84.298 178.912 85.5778 179.777 87.2362C180.679 88.8586 181.129 90.7153 181.129 92.8063V110.598H174.694V94.1042C174.694 92.1934 174.135 90.6432 173.018 89.4535C171.936 88.2277 170.53 87.6148 168.8 87.6148C166.889 87.6148 165.284 88.2097 163.987 89.3994C162.689 90.5531 162.04 91.9771 162.04 93.6716V110.598H155.442V82.6396H162.04V86.3169C162.905 84.983 164.095 83.9375 165.609 83.1804C167.159 82.3872 168.854 81.9906 170.692 81.9906ZM214.501 72.7973V110.598H207.904V106.218C206.822 107.804 205.434 109.048 203.74 109.949C202.081 110.814 200.243 111.247 198.224 111.247C195.772 111.247 193.573 110.634 191.626 109.408C189.679 108.147 188.147 106.398 187.029 104.163C185.912 101.928 185.353 99.4039 185.353 96.5918C185.353 93.7797 185.912 91.2741 187.029 89.0749C188.147 86.8397 189.679 85.1092 191.626 83.8834C193.573 82.6215 195.772 81.9906 198.224 81.9906C200.243 81.9906 202.081 82.4413 203.74 83.3426C205.434 84.2079 206.822 85.4336 207.904 87.0199V72.7973H214.501ZM200.008 105.623C201.523 105.623 202.874 105.244 204.064 104.487C205.29 103.694 206.227 102.613 206.876 101.243C207.561 99.8726 207.904 98.3223 207.904 96.5918C207.904 93.96 207.165 91.8149 205.687 90.1565C204.208 88.462 202.316 87.6148 200.008 87.6148C197.629 87.6148 195.682 88.462 194.168 90.1565C192.654 91.8149 191.897 93.96 191.897 96.5918C191.897 99.2236 192.654 101.387 194.168 103.081C195.682 104.776 197.629 105.623 200.008 105.623ZM233.854 105.947C235.296 105.947 236.72 105.677 238.126 105.136C239.568 104.595 240.74 103.892 241.641 103.027L245.427 106.921C244.237 108.183 242.56 109.228 240.397 110.057C238.234 110.851 236.125 111.247 234.07 111.247C231.402 111.247 228.951 110.616 226.715 109.354C224.48 108.093 222.696 106.344 221.362 104.109C220.064 101.873 219.415 99.3498 219.415 96.5377C219.415 93.7617 220.046 91.2741 221.308 89.0749C222.569 86.8757 224.282 85.1452 226.445 83.8834C228.644 82.6215 231.06 81.9906 233.692 81.9906C237.982 81.9906 241.335 83.4688 243.75 86.4251C246.202 89.3814 247.428 93.4192 247.428 98.5386H225.796C226.157 100.774 227.058 102.577 228.5 103.946C229.942 105.28 231.727 105.947 233.854 105.947ZM233.8 87.2903C231.817 87.2903 230.104 87.9212 228.662 89.1831C227.22 90.4088 226.283 92.0673 225.85 94.1583H241.046C240.722 92.1033 239.929 90.4449 238.667 89.1831C237.441 87.9212 235.819 87.2903 233.8 87.2903ZM258.473 87.9393C259.374 86.1006 260.708 84.6585 262.474 83.613C264.241 82.5314 266.242 81.9906 268.477 81.9906V87.6148C265.485 87.6148 263.069 88.426 261.231 90.0483C259.392 91.6707 258.473 93.8158 258.473 96.4837V110.598H251.875V82.6396H258.473V87.9393ZM289.335 81.9906C291.787 81.9906 293.986 82.6215 295.933 83.8834C297.879 85.1092 299.412 86.8397 300.529 89.0749C301.647 91.2741 302.206 93.7797 302.206 96.5918C302.206 99.4039 301.647 101.928 300.529 104.163C299.412 106.398 297.879 108.147 295.933 109.408C293.986 110.634 291.787 111.247 289.335 111.247C287.316 111.247 285.459 110.814 283.765 109.949C282.106 109.048 280.736 107.804 279.655 106.218V110.598H273.057V72.7973H279.655V87.0199C280.736 85.4336 282.106 84.2079 283.765 83.3426C285.459 82.4413 287.316 81.9906 289.335 81.9906ZM287.55 105.623C289.93 105.623 291.877 104.776 293.391 103.081C294.905 101.387 295.662 99.2236 295.662 96.5918C295.662 93.96 294.905 91.8149 293.391 90.1565C291.877 88.462 289.93 87.6148 287.55 87.6148C285.243 87.6148 283.35 88.462 281.872 90.1565C280.394 91.8149 279.655 93.96 279.655 96.5918C279.655 98.3223 279.979 99.8726 280.628 101.243C281.313 102.613 282.251 103.694 283.44 104.487C284.666 105.244 286.036 105.623 287.55 105.623ZM306.904 82.6396H313.502V110.598H306.904V82.6396ZM310.203 78.4215C309.157 78.4215 308.256 78.0429 307.499 77.2858C306.778 76.5287 306.417 75.6454 306.417 74.636C306.417 73.6265 306.778 72.7612 307.499 72.0402C308.256 71.2831 309.157 70.9045 310.203 70.9045C311.212 70.9045 312.078 71.2831 312.799 72.0402C313.52 72.7612 313.88 73.6265 313.88 74.636C313.88 75.6454 313.52 76.5287 312.799 77.2858C312.078 78.0429 311.212 78.4215 310.203 78.4215ZM326.229 87.9393C327.13 86.1006 328.464 84.6585 330.231 83.613C331.998 82.5314 333.998 81.9906 336.234 81.9906V87.6148C333.241 87.6148 330.826 88.426 328.987 90.0483C327.148 91.6707 326.229 93.8158 326.229 96.4837V110.598H319.632V82.6396H326.229V87.9393ZM367.178 72.7973V110.598H360.58V106.218C359.499 107.804 358.111 109.048 356.416 109.949C354.758 110.814 352.919 111.247 350.9 111.247C348.449 111.247 346.25 110.634 344.303 109.408C342.356 108.147 340.824 106.398 339.706 104.163C338.588 101.928 338.03 99.4039 338.03 96.5918C338.03 93.7797 338.588 91.2741 339.706 89.0749C340.824 86.8397 342.356 85.1092 344.303 83.8834C346.25 82.6215 348.449 81.9906 350.9 81.9906C352.919 81.9906 354.758 82.4413 356.416 83.3426C358.111 84.2079 359.499 85.4336 360.58 87.0199V72.7973H367.178ZM352.685 105.623C354.199 105.623 355.551 105.244 356.741 104.487C357.967 103.694 358.904 102.613 359.553 101.243C360.238 99.8726 360.58 98.3223 360.58 96.5918C360.58 93.96 359.841 91.8149 358.363 90.1565C356.885 88.462 354.992 87.6148 352.685 87.6148C350.305 87.6148 348.359 88.462 346.844 90.1565C345.33 91.8149 344.573 93.96 344.573 96.5918C344.573 99.2236 345.33 101.387 346.844 103.081C348.359 104.776 350.305 105.623 352.685 105.623Z" fill="black"/>
<path d="M68.8216 79.6112H72.2015C72.2015 77.7445 70.6882 76.2313 68.8216 76.2313V79.6112ZM56.9243 79.6112H53.5444C53.5444 81.4779 55.0576 82.9911 56.9243 82.9911V79.6112ZM56.9243 73.4462V70.0663C55.0576 70.0663 53.5444 71.5796 53.5444 73.4462H56.9243ZM87.4246 73.4462H90.8045C90.8045 71.5796 89.2912 70.0663 87.4246 70.0663V73.4462ZM87.4246 79.6112V82.9911C89.2912 82.9911 90.8045 81.4779 90.8045 79.6112H87.4246ZM75.5814 79.6112V76.2313C73.7147 76.2313 72.2015 77.7445 72.2015 79.6112H75.5814ZM75.5814 110.598V113.978C77.448 113.978 78.9613 112.465 78.9613 110.598H75.5814ZM68.8216 110.598H65.4417C65.4417 112.465 66.9549 113.978 68.8216 113.978V110.598ZM68.8216 76.2313H56.9243V82.9911H68.8216V76.2313ZM60.3042 79.6112V73.4462H53.5444V79.6112H60.3042ZM56.9243 76.8261H87.4246V70.0663H56.9243V76.8261ZM84.0447 73.4462V79.6112H90.8045V73.4462H84.0447ZM87.4246 76.2313H75.5814V82.9911H87.4246V76.2313ZM72.2015 79.6112V110.598H78.9613V79.6112H72.2015ZM75.5814 107.218H68.8216V113.978H75.5814V107.218ZM72.2015 110.598V79.6112H65.4417V110.598H72.2015ZM113.419 83.3967L111.67 86.289C111.696 86.3048 111.722 86.3202 111.749 86.3354L113.419 83.3967ZM117.096 87.2362L114.099 88.7997C114.113 88.8259 114.127 88.8519 114.141 88.8777L117.096 87.2362ZM118.448 110.598V113.978C120.315 113.978 121.828 112.465 121.828 110.598H118.448ZM112.013 110.598H108.633C108.633 112.465 110.146 113.978 112.013 113.978V110.598ZM110.39 89.4535L107.856 91.6897C107.867 91.7022 107.878 91.7147 107.889 91.727L110.39 89.4535ZM101.305 89.3994L103.55 91.9256L103.555 91.9218L101.305 89.3994ZM99.3582 110.598V113.978C101.225 113.978 102.738 112.465 102.738 110.598H99.3582ZM92.7606 110.598H89.3807C89.3807 112.465 90.8939 113.978 92.7606 113.978V110.598ZM92.7606 72.7973V69.4174C90.8939 69.4174 89.3807 70.9306 89.3807 72.7973H92.7606ZM99.3582 72.7973H102.738C102.738 70.9306 101.225 69.4174 99.3582 69.4174V72.7973ZM99.3582 86.4251H95.9783C95.9783 87.9223 96.9633 89.2412 98.3991 89.666C99.8348 90.0909 101.379 89.5205 102.194 88.2644L99.3582 86.4251ZM102.981 83.2344L104.521 86.2434C104.539 86.234 104.557 86.2245 104.576 86.2148L102.981 83.2344ZM108.065 85.3705C109.54 85.3705 110.706 85.7061 111.67 86.289L115.167 80.5044C113.031 79.2125 110.628 78.6107 108.065 78.6107V85.3705ZM111.749 86.3354C112.755 86.9069 113.527 87.7024 114.099 88.7997L120.092 85.6728C118.934 83.4533 117.255 81.689 115.088 80.458L111.749 86.3354ZM114.141 88.8777C114.73 89.937 115.068 91.2157 115.068 92.8063H121.828C121.828 90.2149 121.265 87.7802 120.05 85.5948L114.141 88.8777ZM115.068 92.8063V110.598H121.828V92.8063H115.068ZM118.448 107.218H112.013V113.978H118.448V107.218ZM115.392 110.598V94.1042H108.633V110.598H115.392ZM115.392 94.1042C115.392 91.5203 114.642 89.1056 112.891 87.1799L107.889 91.727C108.302 92.1808 108.633 92.8666 108.633 94.1042H115.392ZM112.925 87.2172C111.16 85.2174 108.808 84.2349 106.172 84.2349V90.9947C106.997 90.9947 107.457 91.238 107.856 91.6897L112.925 87.2172ZM106.172 84.2349C103.494 84.2349 101.053 85.0948 99.0553 86.877L103.555 91.9218C104.224 91.3245 105.029 90.9947 106.172 90.9947V84.2349ZM99.0595 86.8732C97.0605 88.6501 95.9783 90.9847 95.9783 93.6716H102.738C102.738 92.9696 102.954 92.456 103.55 91.9256L99.0595 86.8732ZM95.9783 93.6716V110.598H102.738V93.6716H95.9783ZM99.3582 107.218H92.7606V113.978H99.3582V107.218ZM96.1405 110.598V72.7973H89.3807V110.598H96.1405ZM92.7606 76.1772H99.3582V69.4174H92.7606V76.1772ZM95.9783 72.7973V86.4251H102.738V72.7973H95.9783ZM102.194 88.2644C102.707 87.4736 103.446 86.7933 104.521 86.2434L101.442 80.2255C99.4163 81.2619 97.7401 82.7087 96.5225 84.5858L102.194 88.2644ZM104.576 86.2148C105.613 85.6601 106.756 85.3705 108.065 85.3705V78.6107C105.696 78.6107 103.451 79.1504 101.387 80.2541L104.576 86.2148ZM149.326 82.6396H152.706C152.706 80.7729 151.192 79.2597 149.326 79.2597V82.6396ZM149.326 110.598V113.978C151.192 113.978 152.706 112.465 152.706 110.598H149.326ZM142.674 110.598H139.294C139.294 112.465 140.807 113.978 142.674 113.978V110.598ZM142.674 106.921H146.054C146.054 105.424 145.069 104.105 143.633 103.68C142.198 103.255 140.653 103.825 139.839 105.081L142.674 106.921ZM139.051 110.111L140.562 113.135C140.572 113.13 140.581 113.125 140.59 113.12L139.051 110.111ZM128.614 109.895L126.865 112.787C126.891 112.803 126.917 112.819 126.944 112.834L128.614 109.895ZM124.936 106.056L121.94 107.619C121.954 107.645 121.968 107.671 121.982 107.697L124.936 106.056ZM123.639 82.6396V79.2597C121.772 79.2597 120.259 80.7729 120.259 82.6396H123.639ZM130.02 82.6396H133.4C133.4 80.7729 131.886 79.2597 130.02 79.2597V82.6396ZM131.642 103.838L129.108 106.075C129.131 106.101 129.155 106.127 129.179 106.152L131.642 103.838ZM140.727 103.892L142.973 106.419C142.986 106.407 142.999 106.396 143.011 106.384L140.727 103.892ZM142.674 82.6396V79.2597C140.807 79.2597 139.294 80.7729 139.294 82.6396H142.674ZM145.946 82.6396V110.598H152.706V82.6396H145.946ZM149.326 107.218H142.674V113.978H149.326V107.218ZM146.054 110.598V106.921H139.294V110.598H146.054ZM139.839 105.081C139.326 105.872 138.586 106.553 137.511 107.102L140.59 113.12C142.616 112.084 144.292 110.637 145.51 108.76L139.839 105.081ZM137.539 107.088C136.534 107.591 135.382 107.867 134.022 107.867V114.627C136.339 114.627 138.539 114.146 140.562 113.135L137.539 107.088ZM134.022 107.867C132.524 107.867 131.308 107.539 130.283 106.956L126.944 112.834C129.092 114.054 131.481 114.627 134.022 114.627V107.867ZM130.363 107.003C129.329 106.378 128.514 105.535 127.891 104.414L121.982 107.697C123.162 109.821 124.798 111.538 126.865 112.787L130.363 107.003ZM127.933 104.492C127.348 103.371 127.018 102.043 127.018 100.431H120.259C120.259 103.002 120.794 105.423 121.94 107.619L127.933 104.492ZM127.018 100.431V82.6396H120.259V100.431H127.018ZM123.639 86.0195H130.02V79.2597H123.639V86.0195ZM126.64 82.6396V99.1335H133.4V82.6396H126.64ZM126.64 99.1335C126.64 101.721 127.391 104.129 129.108 106.075L134.177 101.602C133.73 101.096 133.4 100.368 133.4 99.1335H126.64ZM129.179 106.152C130.977 108.067 133.314 109.003 135.914 109.003V102.243C135.054 102.243 134.543 101.989 134.106 101.524L129.179 106.152ZM135.914 109.003C138.563 109.003 140.992 108.179 142.973 106.419L138.482 101.366C137.867 101.913 137.087 102.243 135.914 102.243V109.003ZM143.011 106.384C144.977 104.582 146.054 102.249 146.054 99.5661H139.294C139.294 100.272 139.074 100.823 138.443 101.401L143.011 106.384ZM146.054 99.5661V82.6396H139.294V99.5661H146.054ZM142.674 86.0195H149.326V79.2597H142.674V86.0195ZM176.1 83.3967L174.381 86.3065C174.397 86.3163 174.414 86.3259 174.43 86.3354L176.1 83.3967ZM179.777 87.2362L176.781 88.7997C176.795 88.8259 176.809 88.8519 176.823 88.8777L179.777 87.2362ZM181.129 110.598V113.978C182.996 113.978 184.509 112.465 184.509 110.598H181.129ZM174.694 110.598H171.314C171.314 112.465 172.827 113.978 174.694 113.978V110.598ZM173.018 89.4535L170.483 91.6897C170.507 91.716 170.53 91.742 170.554 91.7676L173.018 89.4535ZM163.987 89.3994L166.232 91.9256C166.245 91.9141 166.258 91.9025 166.27 91.8909L163.987 89.3994ZM162.04 110.598V113.978C163.906 113.978 165.42 112.465 165.42 110.598H162.04ZM155.442 110.598H152.062C152.062 112.465 153.576 113.978 155.442 113.978V110.598ZM155.442 82.6396V79.2597C153.576 79.2597 152.062 80.7729 152.062 82.6396H155.442ZM162.04 82.6396H165.42C165.42 80.7729 163.906 79.2597 162.04 79.2597V82.6396ZM162.04 86.3169H158.66C158.66 87.8142 159.645 89.133 161.081 89.5579C162.516 89.9828 164.061 89.4124 164.875 88.1562L162.04 86.3169ZM165.609 83.1804L167.12 86.2034C167.13 86.1988 167.139 86.1941 167.148 86.1893L165.609 83.1804ZM170.692 85.3705C172.166 85.3705 173.364 85.7059 174.381 86.3065L177.82 80.4868C175.663 79.2127 173.256 78.6107 170.692 78.6107V85.3705ZM174.43 86.3354C175.436 86.9069 176.208 87.7024 176.781 88.7997L182.774 85.6728C181.616 83.4533 179.936 81.689 177.77 80.458L174.43 86.3354ZM176.823 88.8777C177.411 89.937 177.75 91.2157 177.75 92.8063H184.509C184.509 90.2149 183.946 87.7802 182.732 85.5948L176.823 88.8777ZM177.75 92.8063V110.598H184.509V92.8063H177.75ZM181.129 107.218H174.694V113.978H181.129V107.218ZM178.074 110.598V94.1042H171.314V110.598H178.074ZM178.074 94.1042C178.074 91.4903 177.287 89.0613 175.481 87.1393L170.554 91.7676C170.984 92.225 171.314 92.8966 171.314 94.1042H178.074ZM175.552 87.2172C173.787 85.2174 171.435 84.2349 168.8 84.2349V90.9947C169.625 90.9947 170.085 91.238 170.483 91.6897L175.552 87.2172ZM168.8 84.2349C166.122 84.2349 163.679 85.0958 161.703 86.9079L166.27 91.8909C166.889 91.3235 167.656 90.9947 168.8 90.9947V84.2349ZM161.741 86.8732C159.742 88.6501 158.66 90.9847 158.66 93.6716H165.42C165.42 92.9696 165.635 92.456 166.232 91.9256L161.741 86.8732ZM158.66 93.6716V110.598H165.42V93.6716H158.66ZM162.04 107.218H155.442V113.978H162.04V107.218ZM158.822 110.598V82.6396H152.062V110.598H158.822ZM155.442 86.0195H162.04V79.2597H155.442V86.0195ZM158.66 82.6396V86.3169H165.42V82.6396H158.66ZM164.875 88.1562C165.391 87.3608 166.109 86.7092 167.12 86.2034L164.097 80.1573C162.08 81.1658 160.419 82.6052 159.204 84.4776L164.875 88.1562ZM167.148 86.1893C168.195 85.6536 169.358 85.3705 170.692 85.3705V78.6107C168.349 78.6107 166.123 79.1208 164.069 80.1714L167.148 86.1893ZM214.501 72.7973H217.881C217.881 70.9306 216.368 69.4174 214.501 69.4174V72.7973ZM214.501 110.598V113.978C216.368 113.978 217.881 112.465 217.881 110.598H214.501ZM207.904 110.598H204.524C204.524 112.465 206.037 113.978 207.904 113.978V110.598ZM207.904 106.218H211.284C211.284 104.735 210.317 103.425 208.9 102.988C207.483 102.551 205.947 103.089 205.111 104.314L207.904 106.218ZM203.74 109.949L205.303 112.946C205.311 112.942 205.319 112.937 205.327 112.933L203.74 109.949ZM191.626 109.408L189.788 112.245C189.8 112.253 189.813 112.261 189.825 112.269L191.626 109.408ZM187.029 104.163L184.006 105.674L184.006 105.674L187.029 104.163ZM187.029 89.0749L190.043 90.6062C190.046 90.5996 190.049 90.593 190.053 90.5865L187.029 89.0749ZM191.626 83.8834L193.427 86.7436C193.44 86.7357 193.452 86.7277 193.464 86.7196L191.626 83.8834ZM203.74 83.3426L202.126 86.3123C202.151 86.3261 202.177 86.3396 202.203 86.3528L203.74 83.3426ZM207.904 87.0199L205.111 88.924C205.947 90.1492 207.483 90.6868 208.9 90.2497C210.317 89.8126 211.284 88.5028 211.284 87.0199H207.904ZM207.904 72.7973V69.4174C206.037 69.4174 204.524 70.9306 204.524 72.7973H207.904ZM204.064 104.487L205.879 107.339C205.886 107.334 205.893 107.33 205.9 107.325L204.064 104.487ZM206.876 101.243L203.853 99.731C203.842 99.7525 203.832 99.774 203.822 99.7957L206.876 101.243ZM205.687 90.1565L203.14 92.3783C203.147 92.3874 203.155 92.3964 203.163 92.4054L205.687 90.1565ZM194.168 90.1565L196.664 92.4354C196.672 92.4265 196.68 92.4176 196.688 92.4086L194.168 90.1565ZM194.168 103.081L191.648 105.333L191.648 105.333L194.168 103.081ZM211.121 72.7973V110.598H217.881V72.7973H211.121ZM214.501 107.218H207.904V113.978H214.501V107.218ZM211.284 110.598V106.218H204.524V110.598H211.284ZM205.111 104.314C204.338 105.448 203.363 106.321 202.152 106.965L205.327 112.933C207.505 111.775 209.307 110.16 210.696 108.122L205.111 104.314ZM202.176 106.953C201.038 107.546 199.742 107.867 198.224 107.867V114.627C200.743 114.627 203.124 114.083 205.303 112.946L202.176 106.953ZM198.224 107.867C196.366 107.867 194.799 107.412 193.427 106.548L189.825 112.269C192.347 113.856 195.179 114.627 198.224 114.627V107.867ZM193.464 106.572C192.063 105.664 190.922 104.39 190.053 102.651L184.006 105.674C185.372 108.406 187.296 110.63 189.788 112.245L193.464 106.572ZM190.053 102.651C189.198 100.941 188.733 98.9455 188.733 96.5918H181.973C181.973 99.8623 182.626 102.914 184.006 105.674L190.053 102.651ZM188.733 96.5918C188.733 94.237 189.198 92.2684 190.043 90.6062L184.016 87.5436C182.626 90.2798 181.973 93.3225 181.973 96.5918H188.733ZM190.053 90.5865C190.918 88.8547 192.048 87.6118 193.427 86.7436L189.825 81.0232C187.311 82.6065 185.376 84.8247 184.006 87.5634L190.053 90.5865ZM193.464 86.7196C194.832 85.8332 196.386 85.3705 198.224 85.3705V78.6107C195.159 78.6107 192.314 79.4099 189.788 81.0471L193.464 86.7196ZM198.224 85.3705C199.719 85.3705 200.997 85.6988 202.126 86.3123L205.354 80.3729C203.166 79.1837 200.766 78.6107 198.224 78.6107V85.3705ZM202.203 86.3528C203.388 86.9579 204.346 87.8013 205.111 88.924L210.696 85.1159C209.299 83.066 207.481 81.4578 205.277 80.3324L202.203 86.3528ZM211.284 87.0199V72.7973H204.524V87.0199H211.284ZM207.904 76.1772H214.501V69.4174H207.904V76.1772ZM200.008 109.003C202.116 109.003 204.106 108.467 205.879 107.339L202.25 101.636C201.642 102.022 200.929 102.243 200.008 102.243V109.003ZM205.9 107.325C207.674 106.177 209.024 104.604 209.931 102.689L203.822 99.7957C203.431 100.621 202.906 101.211 202.228 101.65L205.9 107.325ZM209.899 102.754C210.848 100.857 211.284 98.7784 211.284 96.5918H204.524C204.524 97.8663 204.275 98.8881 203.853 99.731L209.899 102.754ZM211.284 96.5918C211.284 93.2924 210.339 90.2961 208.21 87.9076L203.163 92.4054C203.991 93.3337 204.524 94.6276 204.524 96.5918H211.284ZM208.234 87.9346C206.095 85.4826 203.263 84.2349 200.008 84.2349V90.9947C201.368 90.9947 202.322 91.4414 203.14 92.3783L208.234 87.9346ZM200.008 84.2349C196.718 84.2349 193.836 85.4549 191.648 87.9043L196.688 92.4086C197.528 91.4692 198.54 90.9947 200.008 90.9947V84.2349ZM191.672 87.8775C189.493 90.2639 188.517 93.2709 188.517 96.5918H195.276C195.276 94.6491 195.814 93.3659 196.664 92.4354L191.672 87.8775ZM188.517 96.5918C188.517 99.9147 189.493 102.922 191.648 105.333L196.688 100.829C195.814 99.8511 195.276 98.5326 195.276 96.5918H188.517ZM191.648 105.333C193.836 107.783 196.718 109.003 200.008 109.003V102.243C198.54 102.243 197.528 101.769 196.688 100.829L191.648 105.333ZM238.126 105.136L236.939 101.972C236.93 101.975 236.922 101.978 236.913 101.982L238.126 105.136ZM241.641 103.027L244.065 100.671C242.769 99.3387 240.641 99.302 239.3 100.589L241.641 103.027ZM245.427 106.921L247.886 109.239C249.127 107.923 249.111 105.862 247.85 104.565L245.427 106.921ZM240.397 110.057L241.561 113.231C241.576 113.225 241.592 113.219 241.607 113.213L240.397 110.057ZM226.715 109.354L225.054 112.298L225.054 112.298L226.715 109.354ZM221.362 104.109L218.439 105.806C218.446 105.818 218.452 105.829 218.459 105.841L221.362 104.109ZM221.308 89.0749L218.376 87.3928L218.376 87.3928L221.308 89.0749ZM226.445 83.8834L224.763 80.9518C224.756 80.9558 224.749 80.9598 224.742 80.9639L226.445 83.8834ZM243.75 86.4251L241.133 88.5636C241.138 88.57 241.143 88.5763 241.148 88.5826L243.75 86.4251ZM247.428 98.5386V101.919C249.294 101.919 250.807 100.405 250.807 98.5386H247.428ZM225.796 98.5386V95.1587C224.806 95.1587 223.865 95.5932 223.223 96.3472C222.581 97.1013 222.302 98.099 222.459 99.0768L225.796 98.5386ZM228.5 103.946L226.172 106.397C226.183 106.407 226.194 106.417 226.205 106.428L228.5 103.946ZM228.662 89.1831L230.851 91.7584C230.864 91.7479 230.876 91.7373 230.888 91.7267L228.662 89.1831ZM225.85 94.1583L222.54 93.4735C222.334 94.4689 222.587 95.5042 223.229 96.2924C223.871 97.0807 224.834 97.5382 225.85 97.5382V94.1583ZM241.046 94.1583V97.5382C242.035 97.5382 242.974 97.1055 243.616 96.354C244.258 95.6025 244.539 94.6075 244.385 93.6312L241.046 94.1583ZM238.667 89.1831L236.242 91.5381C236.254 91.5498 236.265 91.5615 236.277 91.573L238.667 89.1831ZM233.854 109.327C235.729 109.327 237.564 108.974 239.339 108.291L236.913 101.982C235.876 102.38 234.863 102.567 233.854 102.567V109.327ZM239.313 108.301C241.088 107.635 242.682 106.713 243.982 105.465L239.3 100.589C238.798 101.071 238.049 101.556 236.939 101.972L239.313 108.301ZM239.218 105.383L243.003 109.277L247.85 104.565L244.065 100.671L239.218 105.383ZM242.967 104.602C242.223 105.392 241.028 106.196 239.188 106.901L241.607 113.213C244.093 112.261 246.251 110.973 247.886 109.239L242.967 104.602ZM239.234 106.884C237.399 107.557 235.683 107.867 234.07 107.867V114.627C236.567 114.627 239.07 114.144 241.561 113.231L239.234 106.884ZM234.07 107.867C231.961 107.867 230.085 107.375 228.377 106.411L225.054 112.298C227.817 113.857 230.844 114.627 234.07 114.627V107.867ZM228.377 106.411C226.661 105.442 225.301 104.115 224.264 102.377L218.459 105.841C220.09 108.573 222.299 110.743 225.054 112.298L228.377 106.411ZM224.285 102.412C223.312 100.737 222.795 98.8078 222.795 96.5377H216.035C216.035 99.8919 216.816 103.01 218.439 105.806L224.285 102.412ZM222.795 96.5377C222.795 94.2944 223.299 92.3965 224.239 90.757L218.376 87.3928C216.793 90.1517 216.035 93.2291 216.035 96.5377H222.795ZM224.239 90.757C225.211 89.0639 226.502 87.7629 228.148 86.8029L224.742 80.9639C222.062 82.5275 219.928 84.6875 218.376 87.3928L224.239 90.757ZM228.127 86.815C229.795 85.8583 231.627 85.3705 233.692 85.3705V78.6107C230.493 78.6107 227.494 79.3848 224.763 80.9518L228.127 86.815ZM233.692 85.3705C237.109 85.3705 239.444 86.4966 241.133 88.5636L246.368 84.2865C243.225 80.441 238.855 78.6107 233.692 78.6107V85.3705ZM241.148 88.5826C242.951 90.7563 244.048 93.9432 244.048 98.5386H250.807C250.807 92.8952 249.452 88.0064 246.352 84.2676L241.148 88.5826ZM247.428 95.1587H225.796V101.919H247.428V95.1587ZM222.459 99.0768C222.921 101.937 224.121 104.448 226.172 106.397L230.828 101.496C229.995 100.705 229.393 99.6108 229.133 98.0005L222.459 99.0768ZM226.205 106.428C228.326 108.39 230.953 109.327 233.854 109.327V102.567C232.501 102.567 231.558 102.171 230.795 101.465L226.205 106.428ZM233.8 83.9104C231.029 83.9104 228.518 84.8183 226.437 86.6394L230.888 91.7267C231.691 91.0242 232.604 90.6702 233.8 90.6702V83.9104ZM226.473 86.6078C224.385 88.3833 223.105 90.7446 222.54 93.4735L229.16 94.8431C229.461 93.3899 230.056 92.4344 230.851 91.7584L226.473 86.6078ZM225.85 97.5382H241.046V90.7784H225.85V97.5382ZM244.385 93.6312C243.968 90.9916 242.904 88.6403 241.057 86.7931L236.277 91.573C236.953 92.2495 237.476 93.215 237.708 94.6854L244.385 93.6312ZM241.091 86.828C239.133 84.8126 236.585 83.9104 233.8 83.9104V90.6702C235.052 90.6702 235.749 91.0299 236.242 91.5381L241.091 86.828ZM258.473 87.9393H255.093C255.093 89.5118 256.177 90.8765 257.709 91.2318C259.241 91.587 260.815 90.8389 261.508 89.427L258.473 87.9393ZM262.474 83.613L264.196 86.5217C264.21 86.5131 264.225 86.5044 264.239 86.4955L262.474 83.613ZM268.477 81.9906H271.857C271.857 80.124 270.344 78.6107 268.477 78.6107V81.9906ZM268.477 87.6148V90.9947C270.344 90.9947 271.857 89.4815 271.857 87.6148H268.477ZM261.231 90.0483L258.994 87.5139L258.994 87.5139L261.231 90.0483ZM258.473 110.598V113.978C260.339 113.978 261.853 112.465 261.853 110.598H258.473ZM251.875 110.598H248.495C248.495 112.465 250.008 113.978 251.875 113.978V110.598ZM251.875 82.6396V79.2597C250.008 79.2597 248.495 80.7729 248.495 82.6396H251.875ZM258.473 82.6396H261.853C261.853 80.7729 260.339 79.2597 258.473 79.2597V82.6396ZM261.508 89.427C262.118 88.1814 262.995 87.2325 264.196 86.5217L260.753 80.7043C258.421 82.0845 256.63 84.0198 255.438 86.4516L261.508 89.427ZM264.239 86.4955C265.433 85.7649 266.814 85.3705 268.477 85.3705V78.6107C265.67 78.6107 263.049 79.2979 260.71 80.7304L264.239 86.4955ZM265.097 81.9906V87.6148H271.857V81.9906H265.097ZM268.477 84.2349C264.851 84.2349 261.579 85.2331 258.994 87.5139L263.467 92.5827C264.559 91.6188 266.119 90.9947 268.477 90.9947V84.2349ZM258.994 87.5139C256.36 89.8388 255.093 92.942 255.093 96.4837H261.853C261.853 94.6895 262.424 93.5026 263.467 92.5827L258.994 87.5139ZM255.093 96.4837V110.598H261.853V96.4837H255.093ZM258.473 107.218H251.875V113.978H258.473V107.218ZM255.255 110.598V82.6396H248.495V110.598H255.255ZM251.875 86.0195H258.473V79.2597H251.875V86.0195ZM255.093 82.6396V87.9393H261.853V82.6396H255.093ZM295.933 83.8834L294.094 86.7196C294.107 86.7277 294.119 86.7357 294.132 86.7436L295.933 83.8834ZM300.529 89.0749L297.506 90.5865C297.509 90.593 297.513 90.5996 297.516 90.6062L300.529 89.0749ZM300.529 104.163L297.506 102.651L297.506 102.651L300.529 104.163ZM295.933 109.408L297.733 112.269C297.746 112.261 297.758 112.253 297.771 112.245L295.933 109.408ZM283.765 109.949L282.151 112.919C282.176 112.933 282.202 112.946 282.228 112.959L283.765 109.949ZM279.655 106.218L282.447 104.314C281.612 103.089 280.076 102.551 278.659 102.988C277.242 103.425 276.275 104.735 276.275 106.218H279.655ZM279.655 110.598V113.978C281.522 113.978 283.035 112.465 283.035 110.598H279.655ZM273.057 110.598H269.677C269.677 112.465 271.191 113.978 273.057 113.978V110.598ZM273.057 72.7973V69.4174C271.191 69.4174 269.677 70.9306 269.677 72.7973H273.057ZM279.655 72.7973H283.035C283.035 70.9306 281.522 69.4174 279.655 69.4174V72.7973ZM279.655 87.0199H276.275C276.275 88.5028 277.242 89.8126 278.659 90.2497C280.076 90.6868 281.612 90.1492 282.447 88.924L279.655 87.0199ZM283.765 83.3426L285.328 86.3392C285.336 86.335 285.344 86.3308 285.352 86.3266L283.765 83.3426ZM293.391 103.081L290.871 100.829L290.871 100.829L293.391 103.081ZM293.391 90.1565L290.871 92.4086C290.879 92.4176 290.887 92.4265 290.895 92.4354L293.391 90.1565ZM281.872 90.1565L284.395 92.4054C284.403 92.3964 284.411 92.3874 284.419 92.3783L281.872 90.1565ZM280.628 101.243L277.574 102.689C277.584 102.711 277.595 102.733 277.605 102.754L280.628 101.243ZM283.44 104.487L281.566 107.3C281.598 107.321 281.631 107.342 281.664 107.363L283.44 104.487ZM289.335 85.3705C291.173 85.3705 292.727 85.8332 294.094 86.7196L297.771 81.0471C295.245 79.4099 292.4 78.6107 289.335 78.6107V85.3705ZM294.132 86.7436C295.511 87.6118 296.64 88.8547 297.506 90.5865L303.552 87.5634C302.183 84.8247 300.248 82.6065 297.733 81.0232L294.132 86.7436ZM297.516 90.6062C298.361 92.2684 298.826 94.237 298.826 96.5918H305.586C305.586 93.3225 304.933 90.2798 303.542 87.5436L297.516 90.6062ZM298.826 96.5918C298.826 98.9455 298.361 100.941 297.506 102.651L303.552 105.674C304.933 102.914 305.586 99.8623 305.586 96.5918H298.826ZM297.506 102.651C296.637 104.39 295.496 105.664 294.094 106.572L297.771 112.245C300.263 110.63 302.187 108.406 303.552 105.674L297.506 102.651ZM294.132 106.548C292.76 107.412 291.193 107.867 289.335 107.867V114.627C292.38 114.627 295.211 113.856 297.733 112.269L294.132 106.548ZM289.335 107.867C287.817 107.867 286.491 107.546 285.302 106.939L282.228 112.959C284.427 114.082 286.815 114.627 289.335 114.627V107.867ZM285.379 106.98C284.201 106.339 283.232 105.464 282.447 104.314L276.862 108.122C278.241 110.144 280.012 111.757 282.151 112.919L285.379 106.98ZM276.275 106.218V110.598H283.035V106.218H276.275ZM279.655 107.218H273.057V113.978H279.655V107.218ZM276.437 110.598V72.7973H269.677V110.598H276.437ZM273.057 76.1772H279.655V69.4174H273.057V76.1772ZM276.275 72.7973V87.0199H283.035V72.7973H276.275ZM282.447 88.924C283.224 87.7849 284.177 86.94 285.328 86.3392L282.201 80.346C280.036 81.4757 278.249 83.0824 276.862 85.1159L282.447 88.924ZM285.352 86.3266C286.532 85.6988 287.84 85.3705 289.335 85.3705V78.6107C286.792 78.6107 284.386 79.1837 282.178 80.3586L285.352 86.3266ZM287.55 109.003C290.841 109.003 293.722 107.783 295.911 105.333L290.871 100.829C290.031 101.769 289.019 102.243 287.55 102.243V109.003ZM295.911 105.333C298.065 102.922 299.042 99.9147 299.042 96.5918H292.282C292.282 98.5326 291.745 99.8511 290.871 100.829L295.911 105.333ZM299.042 96.5918C299.042 93.2709 298.066 90.2639 295.887 87.8775L290.895 92.4354C291.744 93.3659 292.282 94.6491 292.282 96.5918H299.042ZM295.911 87.9043C293.722 85.4549 290.841 84.2349 287.55 84.2349V90.9947C289.019 90.9947 290.031 91.4692 290.871 92.4086L295.911 87.9043ZM287.55 84.2349C284.296 84.2349 281.464 85.4826 279.325 87.9346L284.419 92.3783C285.236 91.4414 286.19 90.9947 287.55 90.9947V84.2349ZM279.349 87.9076C277.22 90.2961 276.275 93.2924 276.275 96.5918H283.035C283.035 94.6276 283.568 93.3337 284.395 92.4054L279.349 87.9076ZM276.275 96.5918C276.275 98.7518 276.682 100.807 277.574 102.689L283.683 99.7957C283.277 98.9379 283.035 97.8928 283.035 96.5918H276.275ZM277.605 102.754C278.534 104.611 279.852 106.157 281.566 107.3L285.315 101.675C284.65 101.231 284.093 100.614 283.651 99.731L277.605 102.754ZM281.664 107.363C283.452 108.467 285.442 109.003 287.55 109.003V102.243C286.63 102.243 285.881 102.022 285.217 101.612L281.664 107.363ZM306.904 82.6396V79.2597C305.037 79.2597 303.524 80.7729 303.524 82.6396H306.904ZM313.502 82.6396H316.882C316.882 80.7729 315.368 79.2597 313.502 79.2597V82.6396ZM313.502 110.598V113.978C315.368 113.978 316.882 112.465 316.882 110.598H313.502ZM306.904 110.598H303.524C303.524 112.465 305.037 113.978 306.904 113.978V110.598ZM307.499 77.2858L305.051 79.6168C305.07 79.6367 305.09 79.6563 305.109 79.6758L307.499 77.2858ZM307.499 72.0402L305.109 69.6502L305.109 69.6502L307.499 72.0402ZM312.799 72.0402L310.351 74.3712C310.37 74.3911 310.389 74.4107 310.409 74.4301L312.799 72.0402ZM312.799 77.2858L310.351 74.9548L310.351 74.9548L312.799 77.2858ZM306.904 86.0195H313.502V79.2597H306.904V86.0195ZM310.122 82.6396V110.598H316.882V82.6396H310.122ZM313.502 107.218H306.904V113.978H313.502V107.218ZM310.284 110.598V82.6396H303.524V110.598H310.284ZM310.203 75.0416C310.098 75.0416 310.06 75.0247 310.052 75.0213C310.042 75.0173 309.987 74.9942 309.889 74.8959L305.109 79.6758C306.483 81.0496 308.237 81.8014 310.203 81.8014V75.0416ZM309.947 74.9548C309.849 74.8525 309.823 74.7933 309.817 74.7783C309.812 74.7653 309.797 74.7285 309.797 74.636H303.038C303.038 76.5471 303.756 78.2561 305.051 79.6168L309.947 74.9548ZM309.797 74.636C309.797 74.5856 309.802 74.5565 309.804 74.5442C309.805 74.5377 309.806 74.5339 309.807 74.5324C309.807 74.5308 309.808 74.5301 309.808 74.5299C309.808 74.5296 309.808 74.5285 309.81 74.5262C309.811 74.5238 309.814 74.5191 309.818 74.512C309.828 74.4984 309.849 74.4705 309.889 74.4301L305.109 69.6502C303.761 70.9979 303.038 72.7199 303.038 74.636H309.797ZM309.889 74.4301C309.987 74.3318 310.042 74.3087 310.052 74.3047C310.06 74.3013 310.098 74.2845 310.203 74.2845V67.5246C308.237 67.5246 306.483 68.2764 305.109 69.6502L309.889 74.4301ZM310.203 74.2845C310.243 74.2845 310.262 74.2881 310.264 74.2886C310.266 74.2889 310.261 74.2879 310.254 74.285C310.248 74.2821 310.25 74.2823 310.263 74.2916C310.277 74.3014 310.307 74.3248 310.351 74.3712L315.246 69.7092C313.913 68.3092 312.174 67.5246 310.203 67.5246V74.2845ZM310.409 74.4301C310.449 74.4705 310.47 74.4984 310.479 74.512C310.484 74.5191 310.487 74.5238 310.488 74.5262C310.489 74.5285 310.49 74.5296 310.49 74.5299C310.49 74.5301 310.49 74.5308 310.491 74.5324C310.491 74.5339 310.492 74.5377 310.494 74.5442C310.496 74.5565 310.5 74.5856 310.5 74.636H317.26C317.26 72.7199 316.536 70.9979 315.189 69.6502L310.409 74.4301ZM310.5 74.636C310.5 74.7285 310.486 74.7653 310.481 74.7783C310.474 74.7933 310.449 74.8525 310.351 74.9548L315.246 79.6168C316.542 78.2561 317.26 76.5471 317.26 74.636H310.5ZM310.351 74.9548C310.307 75.0012 310.277 75.0246 310.263 75.0344C310.25 75.0437 310.248 75.0439 310.254 75.041C310.261 75.0381 310.266 75.0371 310.264 75.0374C310.262 75.0379 310.243 75.0416 310.203 75.0416V81.8014C312.174 81.8014 313.913 81.0168 315.246 79.6168L310.351 74.9548ZM326.229 87.9393H322.849C322.849 89.5118 323.934 90.8765 325.466 91.2318C326.997 91.587 328.572 90.8389 329.264 89.427L326.229 87.9393ZM330.231 83.613L331.952 86.5217C331.967 86.5131 331.981 86.5044 331.996 86.4955L330.231 83.613ZM336.234 81.9906H339.614C339.614 80.124 338.1 78.6107 336.234 78.6107V81.9906ZM336.234 87.6148V90.9947C338.1 90.9947 339.614 89.4815 339.614 87.6148H336.234ZM328.987 90.0483L326.751 87.5139L326.751 87.5139L328.987 90.0483ZM326.229 110.598V113.978C328.096 113.978 329.609 112.465 329.609 110.598H326.229ZM319.632 110.598H316.252C316.252 112.465 317.765 113.978 319.632 113.978V110.598ZM319.632 82.6396V79.2597C317.765 79.2597 316.252 80.7729 316.252 82.6396H319.632ZM326.229 82.6396H329.609C329.609 80.7729 328.096 79.2597 326.229 79.2597V82.6396ZM329.264 89.427C329.875 88.1814 330.751 87.2325 331.952 86.5217L328.51 80.7043C326.177 82.0845 324.386 84.0198 323.194 86.4516L329.264 89.427ZM331.996 86.4955C333.189 85.7649 334.57 85.3705 336.234 85.3705V78.6107C333.427 78.6107 330.806 79.2979 328.466 80.7304L331.996 86.4955ZM332.854 81.9906V87.6148H339.614V81.9906H332.854ZM336.234 84.2349C332.607 84.2349 329.336 85.2331 326.751 87.5139L331.223 92.5827C332.316 91.6188 333.875 90.9947 336.234 90.9947V84.2349ZM326.751 87.5139C324.116 89.8388 322.849 92.942 322.849 96.4837H329.609C329.609 94.6895 330.181 93.5026 331.223 92.5827L326.751 87.5139ZM322.849 96.4837V110.598H329.609V96.4837H322.849ZM326.229 107.218H319.632V113.978H326.229V107.218ZM323.011 110.598V82.6396H316.252V110.598H323.011ZM319.632 86.0195H326.229V79.2597H319.632V86.0195ZM322.849 82.6396V87.9393H329.609V82.6396H322.849ZM367.178 72.7973H370.558C370.558 70.9306 369.045 69.4174 367.178 69.4174V72.7973ZM367.178 110.598V113.978C369.045 113.978 370.558 112.465 370.558 110.598H367.178ZM360.58 110.598H357.2C357.2 112.465 358.714 113.978 360.58 113.978V110.598ZM360.58 106.218H363.96C363.96 104.735 362.994 103.425 361.577 102.988C360.16 102.551 358.623 103.089 357.788 104.314L360.58 106.218ZM356.416 109.949L357.98 112.946C357.988 112.942 357.996 112.937 358.004 112.933L356.416 109.949ZM344.303 109.408L342.464 112.245C342.477 112.253 342.489 112.261 342.502 112.269L344.303 109.408ZM339.706 104.163L336.683 105.674L336.683 105.674L339.706 104.163ZM339.706 89.0749L342.719 90.6062C342.723 90.5996 342.726 90.593 342.729 90.5865L339.706 89.0749ZM344.303 83.8834L346.104 86.7436C346.116 86.7357 346.129 86.7277 346.141 86.7196L344.303 83.8834ZM356.416 83.3426L354.802 86.3123C354.828 86.3261 354.853 86.3396 354.879 86.3528L356.416 83.3426ZM360.58 87.0199L357.788 88.924C358.623 90.1492 360.16 90.6868 361.577 90.2497C362.994 89.8126 363.96 88.5028 363.96 87.0199H360.58ZM360.58 72.7973V69.4174C358.714 69.4174 357.2 70.9306 357.2 72.7973H360.58ZM356.741 104.487L358.555 107.339C358.563 107.334 358.57 107.33 358.577 107.325L356.741 104.487ZM359.553 101.243L356.53 99.731C356.519 99.7525 356.509 99.774 356.498 99.7957L359.553 101.243ZM358.363 90.1565L355.816 92.3783C355.824 92.3874 355.832 92.3964 355.84 92.4054L358.363 90.1565ZM346.844 90.1565L349.34 92.4354C349.349 92.4265 349.357 92.4176 349.365 92.4086L346.844 90.1565ZM346.844 103.081L344.324 105.333L344.324 105.333L346.844 103.081ZM363.798 72.7973V110.598H370.558V72.7973H363.798ZM367.178 107.218H360.58V113.978H367.178V107.218ZM363.96 110.598V106.218H357.2V110.598H363.96ZM357.788 104.314C357.015 105.448 356.04 106.321 354.829 106.965L358.004 112.933C360.182 111.775 361.983 110.16 363.373 108.122L357.788 104.314ZM354.853 106.953C353.715 107.546 352.419 107.867 350.9 107.867V114.627C353.419 114.627 355.801 114.083 357.98 112.946L354.853 106.953ZM350.9 107.867C349.042 107.867 347.475 107.412 346.104 106.548L342.502 112.269C345.024 113.856 347.855 114.627 350.9 114.627V107.867ZM346.141 106.572C344.739 105.664 343.599 104.39 342.729 102.651L336.683 105.674C338.049 108.406 339.973 110.63 342.464 112.245L346.141 106.572ZM342.729 102.651C341.874 100.941 341.41 98.9455 341.41 96.5918H334.65C334.65 99.8623 335.303 102.914 336.683 105.674L342.729 102.651ZM341.41 96.5918C341.41 94.237 341.875 92.2684 342.719 90.6062L336.693 87.5436C335.302 90.2798 334.65 93.3225 334.65 96.5918H341.41ZM342.729 90.5865C343.595 88.8547 344.725 87.6118 346.104 86.7436L342.502 81.0232C339.987 82.6065 338.052 84.8247 336.683 87.5634L342.729 90.5865ZM346.141 86.7196C347.509 85.8332 349.062 85.3705 350.9 85.3705V78.6107C347.835 78.6107 344.99 79.4099 342.464 81.0471L346.141 86.7196ZM350.9 85.3705C352.396 85.3705 353.674 85.6988 354.802 86.3123L358.03 80.3729C355.842 79.1837 353.443 78.6107 350.9 78.6107V85.3705ZM354.879 86.3528C356.064 86.9579 357.022 87.8013 357.788 88.924L363.373 85.1159C361.975 83.066 360.157 81.4578 357.953 80.3324L354.879 86.3528ZM363.96 87.0199V72.7973H357.2V87.0199H363.96ZM360.58 76.1772H367.178V69.4174H360.58V76.1772ZM352.685 109.003C354.792 109.003 356.783 108.467 358.555 107.339L354.926 101.636C354.319 102.022 353.606 102.243 352.685 102.243V109.003ZM358.577 107.325C360.351 106.177 361.7 104.604 362.607 102.689L356.498 99.7957C356.108 100.621 355.582 101.211 354.905 101.65L358.577 107.325ZM362.576 102.754C363.525 100.857 363.96 98.7784 363.96 96.5918H357.2C357.2 97.8663 356.951 98.8881 356.53 99.731L362.576 102.754ZM363.96 96.5918C363.96 93.2924 363.015 90.2961 360.886 87.9076L355.84 92.4054C356.667 93.3337 357.2 94.6276 357.2 96.5918H363.96ZM360.91 87.9346C358.771 85.4826 355.939 84.2349 352.685 84.2349V90.9947C354.045 90.9947 354.999 91.4414 355.816 92.3783L360.91 87.9346ZM352.685 84.2349C349.395 84.2349 346.513 85.4549 344.324 87.9043L349.365 92.4086C350.204 91.4692 351.216 90.9947 352.685 90.9947V84.2349ZM344.348 87.8775C342.17 90.2639 341.193 93.2709 341.193 96.5918H347.953C347.953 94.6491 348.491 93.3659 349.34 92.4354L344.348 87.8775ZM341.193 96.5918C341.193 99.9147 342.17 102.922 344.324 105.333L349.365 100.829C348.491 99.8511 347.953 98.5326 347.953 96.5918H341.193ZM344.324 105.333C346.513 107.783 349.395 109.003 352.685 109.003V102.243C351.216 102.243 350.204 101.769 349.365 100.829L344.324 105.333Z" fill="black" mask="url(#path-7-outside-1_2658_106448)"/>
</g>
</mask>
<g mask="url(#mask0_2658_106448)">
<path opacity="0.5" fill-rule="evenodd" clip-rule="evenodd" d="M409.982 67.5306C409.926 66.133 409.588 64.9254 408.971 63.9076C408.31 62.7873 407.39 61.9272 406.21 61.327C405.03 60.7069 403.669 60.3968 402.129 60.3968C400.589 60.3968 399.228 60.7069 398.048 61.327C396.888 61.9472 395.988 62.8574 395.348 64.0576C394.708 65.2579 394.387 66.7182 394.387 68.4385H378.544C378.544 68.1543 378.548 67.8728 378.557 67.5938H394.387C394.387 65.8734 394.708 64.4131 395.348 63.2129C395.988 62.0126 396.888 61.1024 398.048 60.4823C399.228 59.8622 400.589 59.5521 402.129 59.5521C403.669 59.5521 405.03 59.8622 406.21 60.4823C407.39 61.0824 408.31 61.9426 408.971 63.0628C409.651 64.1831 409.991 65.5333 409.991 67.1137C409.991 67.2539 409.988 67.3929 409.982 67.5306ZM426.25 66.0694C426.198 68.2968 425.709 70.5153 424.784 72.7248C423.804 75.0453 422.043 77.6159 419.503 80.4364C416.962 83.257 413.351 86.6177 408.67 90.5185L402.909 95.3195V95.6796H403.491L408.67 91.3633C413.351 87.4625 416.962 84.1018 419.503 81.2812C422.043 78.4606 423.804 75.8901 424.784 73.5696C425.764 71.2291 426.254 68.8786 426.254 66.5181C426.254 66.3678 426.253 66.2182 426.25 66.0694ZM426.914 109.002H379.744V109.847H426.914V109.002ZM367.127 109.002H350.443V109.847H367.127V109.002ZM350.083 62.9128L336.64 70.9545V71.7992L350.083 63.7575H350.443V62.9128H350.083ZM446.163 107.532C450.064 109.072 454.495 109.843 459.456 109.843C464.417 109.843 468.838 109.072 472.719 107.532C476.62 105.992 479.68 103.901 481.901 101.261C484.046 98.732 485.165 95.8914 485.255 92.7389C485.259 92.8798 485.261 93.0214 485.261 93.1637C485.261 96.4844 484.141 99.465 481.901 102.106C479.68 104.746 476.62 106.837 472.719 108.377C468.838 109.917 464.417 110.687 459.456 110.687C454.495 110.687 450.064 109.917 446.163 108.377C442.282 106.837 439.222 104.746 436.981 102.106C434.761 99.465 433.651 96.4844 433.651 93.1637C433.651 93.0211 433.653 92.8793 433.657 92.7382C433.746 95.891 434.855 98.7318 436.981 101.261C439.222 103.901 442.282 105.992 446.163 107.532ZM446.963 77.6061C447.283 77.5418 447.606 77.485 447.934 77.4358V76.9557C444.433 76.3556 441.552 74.8053 439.292 72.3047C437.145 69.8892 436.026 67.0603 435.937 63.818C435.933 63.9572 435.931 64.0971 435.931 64.2376C435.931 67.6584 437.051 70.629 439.292 73.1495C441.34 75.4151 443.897 76.9006 446.963 77.6061ZM471.937 77.6052C474.954 76.8993 477.495 75.414 479.56 73.1495C481.841 70.649 482.981 67.6784 482.981 64.2376C482.981 64.0973 482.979 63.9576 482.975 63.8186C482.884 67.0792 481.746 69.9079 479.56 72.3047C477.28 74.8053 474.419 76.3556 470.978 76.9557V77.4358C471.302 77.4848 471.621 77.5412 471.937 77.6052ZM467.607 91.3013C467.614 91.1618 467.618 91.0209 467.618 90.8786C467.618 89.4583 467.258 88.1981 466.538 87.0978C465.837 85.9976 464.877 85.1374 463.657 84.5173C462.437 83.8772 461.036 83.5571 459.456 83.5571C457.896 83.5571 456.495 83.8772 455.255 84.5173C454.035 85.1374 453.065 85.9976 452.345 87.0978C451.644 88.1981 451.294 89.4583 451.294 90.8786C451.294 91.021 451.298 91.1618 451.305 91.3011C451.368 90.0521 451.715 88.9325 452.345 87.9426C453.065 86.8424 454.035 85.9822 455.255 85.362C456.495 84.7219 457.896 84.4018 459.456 84.4018C461.036 84.4018 462.437 84.7219 463.657 85.362C464.877 85.9822 465.837 86.8424 466.538 87.9426C467.186 88.9326 467.542 90.0522 467.607 91.3013ZM466.646 65.7361C466.654 65.5968 466.658 65.4558 466.658 65.3133C466.658 64.033 466.347 62.9028 465.727 61.9226C465.107 60.9224 464.257 60.1422 463.177 59.5821C462.097 59.002 460.856 58.7119 459.456 58.7119C458.076 58.7119 456.835 59.002 455.735 59.5821C454.655 60.1422 453.805 60.9224 453.185 61.9226C452.565 62.9028 452.255 64.033 452.255 65.3133C452.255 65.4558 452.258 65.5967 452.266 65.736C452.327 64.628 452.634 63.6384 453.185 62.7673C453.805 61.7671 454.655 60.987 455.735 60.4268C456.835 59.8467 458.076 59.5567 459.456 59.5567C460.856 59.5567 462.097 59.8467 463.177 60.4268C464.257 60.987 465.107 61.7671 465.727 62.7673C466.278 63.6384 466.585 64.628 466.646 65.7361Z" fill="white"/>
<g filter="url(#filter3_i_2658_106448)">
<path d="M367.128 47.5863V109.039H350.444V62.9495H350.084L336.641 70.9911V56.8282L351.765 47.5863H367.128ZM379.745 109.039V97.0366L402.67 78.0726C404.19 76.8123 405.491 75.6321 406.571 74.5319C407.671 73.4116 408.511 72.2614 409.091 71.0812C409.692 69.9009 409.992 68.5906 409.992 67.1503C409.992 65.57 409.652 64.2197 408.971 63.0995C408.311 61.9793 407.391 61.1191 406.211 60.519C405.031 59.8988 403.67 59.5888 402.13 59.5888C400.59 59.5888 399.229 59.8988 398.049 60.519C396.889 61.1391 395.989 62.0493 395.349 63.2495C394.708 64.4498 394.388 65.9101 394.388 67.6304H378.545C378.545 63.3095 379.515 59.5888 381.456 56.4681C383.396 53.3475 386.137 50.947 389.677 49.2666C393.218 47.5863 397.369 46.7461 402.13 46.7461C407.051 46.7461 411.312 47.5362 414.913 49.1166C418.533 50.6769 421.324 52.8774 423.284 55.718C425.265 58.5585 426.255 61.8892 426.255 65.71C426.255 68.0705 425.765 70.421 424.785 72.7615C423.805 75.082 422.044 77.6525 419.504 80.4731C416.963 83.2937 413.352 86.6544 408.671 90.5552L402.91 95.3562V95.7163H426.915V109.039H379.745ZM459.457 109.879C454.496 109.879 450.065 109.109 446.164 107.569C442.283 106.028 439.223 103.938 436.982 101.297C434.762 98.6569 433.652 95.6763 433.652 92.3556C433.652 89.8151 434.282 87.4946 435.542 85.3941C436.822 83.2937 438.543 81.5533 440.703 80.173C442.863 78.7728 445.274 77.8726 447.935 77.4725V76.9924C444.434 76.3923 441.553 74.8419 439.293 72.3414C437.052 69.8209 435.932 66.8503 435.932 63.4296C435.932 60.2089 436.952 57.3483 438.993 54.8478C441.033 52.3272 443.824 50.3468 447.364 48.9065C450.905 47.4662 454.936 46.7461 459.457 46.7461C463.978 46.7461 468.009 47.4762 471.549 48.9365C475.09 50.3768 477.881 52.3573 479.921 54.8778C481.962 57.3783 482.982 60.2289 482.982 63.4296C482.982 66.8703 481.842 69.8409 479.561 72.3414C477.281 74.8419 474.42 76.3923 470.979 76.9924V77.4725C473.62 77.8726 476.02 78.7728 478.181 80.173C480.341 81.5533 482.062 83.2937 483.342 85.3941C484.622 87.4946 485.262 89.8151 485.262 92.3556C485.262 95.6763 484.142 98.6569 481.902 101.297C479.681 103.938 476.621 106.028 472.72 107.569C468.839 109.109 464.418 109.879 459.457 109.879ZM459.457 98.3568C461.037 98.3568 462.438 98.0368 463.658 97.3966C464.878 96.7565 465.838 95.8763 466.538 94.7561C467.259 93.6158 467.619 92.3356 467.619 90.9153C467.619 89.495 467.259 88.2347 466.538 87.1345C465.838 86.0343 464.878 85.1741 463.658 84.554C462.438 83.9138 461.037 83.5938 459.457 83.5938C457.897 83.5938 456.496 83.9138 455.256 84.554C454.036 85.1741 453.066 86.0343 452.345 87.1345C451.645 88.2347 451.295 89.495 451.295 90.9153C451.295 92.3356 451.645 93.6058 452.345 94.7261C453.066 95.8463 454.036 96.7365 455.256 97.3966C456.496 98.0368 457.897 98.3568 459.457 98.3568ZM459.457 72.0714C460.857 72.0714 462.098 71.7813 463.178 71.2012C464.258 70.6211 465.108 69.8209 465.728 68.8007C466.348 67.7805 466.658 66.6302 466.658 65.35C466.658 64.0697 466.348 62.9395 465.728 61.9593C465.108 60.959 464.258 60.1789 463.178 59.6188C462.098 59.0386 460.857 58.7486 459.457 58.7486C458.077 58.7486 456.836 59.0386 455.736 59.6188C454.656 60.1789 453.806 60.959 453.186 61.9593C452.566 62.9395 452.255 64.0697 452.255 65.35C452.255 66.6302 452.566 67.7805 453.186 68.8007C453.806 69.8009 454.656 70.6011 455.736 71.2012C456.836 71.7813 458.077 72.0714 459.457 72.0714Z" fill="#03AFD7"/>
</g>
</g>
<g filter="url(#filter4_d_2658_106448)">
<path d="M68.8216 79.6112H56.9243V73.4462H87.4246V79.6112H75.5814V110.598H68.8216V79.6112ZM108.065 81.9906C110.084 81.9906 111.868 82.4593 113.419 83.3967C115.005 84.298 116.231 85.5778 117.096 87.2362C117.997 88.8586 118.448 90.7153 118.448 92.8063V110.598H112.013V94.1042C112.013 92.1934 111.472 90.6432 110.39 89.4535C109.309 88.2277 107.903 87.6148 106.172 87.6148C104.261 87.6148 102.639 88.2097 101.305 89.3994C100.007 90.5531 99.3582 91.9771 99.3582 93.6716V110.598H92.7606V72.7973H99.3582V86.4251C100.223 85.0911 101.431 84.0276 102.981 83.2344C104.532 82.4052 106.226 81.9906 108.065 81.9906ZM149.326 82.6396V110.598H142.674V106.921C141.809 108.255 140.601 109.318 139.051 110.111C137.537 110.869 135.86 111.247 134.022 111.247C132.003 111.247 130.2 110.796 128.614 109.895C127.064 108.958 125.838 107.678 124.936 106.056C124.071 104.397 123.639 102.522 123.639 100.431V82.6396H130.02V99.1335C130.02 101.044 130.561 102.613 131.642 103.838C132.76 105.028 134.184 105.623 135.914 105.623C137.825 105.623 139.429 105.046 140.727 103.892C142.025 102.703 142.674 101.261 142.674 99.5661V82.6396H149.326ZM170.692 81.9906C172.711 81.9906 174.514 82.4593 176.1 83.3967C177.686 84.298 178.912 85.5778 179.778 87.2362C180.679 88.8586 181.129 90.7153 181.129 92.8063V110.598H174.694V94.1042C174.694 92.1934 174.135 90.6432 173.018 89.4535C171.936 88.2277 170.53 87.6148 168.8 87.6148C166.889 87.6148 165.284 88.2097 163.987 89.3994C162.689 90.5531 162.04 91.9771 162.04 93.6716V110.598H155.442V82.6396H162.04V86.3169C162.905 84.983 164.095 83.9375 165.609 83.1804C167.159 82.3872 168.854 81.9906 170.692 81.9906ZM214.501 72.7973V110.598H207.904V106.218C206.822 107.804 205.434 109.048 203.74 109.949C202.081 110.814 200.243 111.247 198.224 111.247C195.772 111.247 193.573 110.634 191.626 109.408C189.679 108.147 188.147 106.398 187.03 104.163C185.912 101.928 185.353 99.4039 185.353 96.5918C185.353 93.7797 185.912 91.2741 187.03 89.0749C188.147 86.8397 189.679 85.1092 191.626 83.8834C193.573 82.6215 195.772 81.9906 198.224 81.9906C200.243 81.9906 202.081 82.4413 203.74 83.3426C205.434 84.2079 206.822 85.4336 207.904 87.0199V72.7973H214.501ZM200.008 105.623C201.523 105.623 202.875 105.244 204.064 104.487C205.29 103.694 206.227 102.613 206.876 101.243C207.561 99.8726 207.904 98.3223 207.904 96.5918C207.904 93.96 207.165 91.8149 205.687 90.1565C204.208 88.462 202.316 87.6148 200.008 87.6148C197.629 87.6148 195.682 88.462 194.168 90.1565C192.654 91.8149 191.897 93.96 191.897 96.5918C191.897 99.2236 192.654 101.387 194.168 103.081C195.682 104.776 197.629 105.623 200.008 105.623ZM233.854 105.947C235.296 105.947 236.72 105.677 238.126 105.136C239.568 104.595 240.74 103.892 241.641 103.027L245.427 106.921C244.237 108.183 242.561 109.228 240.397 110.057C238.234 110.851 236.125 111.247 234.07 111.247C231.402 111.247 228.951 110.616 226.716 109.354C224.48 108.093 222.696 106.344 221.362 104.109C220.064 101.873 219.415 99.3498 219.415 96.5377C219.415 93.7617 220.046 91.2741 221.308 89.0749C222.57 86.8757 224.282 85.1452 226.445 83.8834C228.644 82.6215 231.06 81.9906 233.692 81.9906C237.982 81.9906 241.335 83.4688 243.75 86.4251C246.202 89.3814 247.428 93.4192 247.428 98.5386H225.796C226.157 100.774 227.058 102.577 228.5 103.946C229.942 105.28 231.727 105.947 233.854 105.947ZM233.8 87.2903C231.817 87.2903 230.104 87.9212 228.662 89.1831C227.22 90.4088 226.283 92.0673 225.85 94.1583H241.046C240.722 92.1033 239.929 90.4449 238.667 89.1831C237.441 87.9212 235.819 87.2903 233.8 87.2903ZM258.473 87.9393C259.374 86.1006 260.708 84.6585 262.474 83.613C264.241 82.5314 266.242 81.9906 268.477 81.9906V87.6148C265.485 87.6148 263.069 88.426 261.231 90.0483C259.392 91.6707 258.473 93.8158 258.473 96.4837V110.598H251.875V82.6396H258.473V87.9393ZM289.335 81.9906C291.787 81.9906 293.986 82.6215 295.933 83.8834C297.879 85.1092 299.412 86.8397 300.529 89.0749C301.647 91.2741 302.206 93.7797 302.206 96.5918C302.206 99.4039 301.647 101.928 300.529 104.163C299.412 106.398 297.879 108.147 295.933 109.408C293.986 110.634 291.787 111.247 289.335 111.247C287.316 111.247 285.459 110.814 283.765 109.949C282.107 109.048 280.737 107.804 279.655 106.218V110.598H273.057V72.7973H279.655V87.0199C280.737 85.4336 282.107 84.2079 283.765 83.3426C285.459 82.4413 287.316 81.9906 289.335 81.9906ZM287.55 105.623C289.93 105.623 291.877 104.776 293.391 103.081C294.905 101.387 295.662 99.2236 295.662 96.5918C295.662 93.96 294.905 91.8149 293.391 90.1565C291.877 88.462 289.93 87.6148 287.55 87.6148C285.243 87.6148 283.35 88.462 281.872 90.1565C280.394 91.8149 279.655 93.96 279.655 96.5918C279.655 98.3223 279.979 99.8726 280.628 101.243C281.313 102.613 282.251 103.694 283.44 104.487C284.666 105.244 286.036 105.623 287.55 105.623ZM306.904 82.6396H313.502V110.598H306.904V82.6396ZM310.203 78.4215C309.157 78.4215 308.256 78.0429 307.499 77.2858C306.778 76.5287 306.417 75.6454 306.417 74.636C306.417 73.6265 306.778 72.7612 307.499 72.0402C308.256 71.2831 309.157 70.9045 310.203 70.9045C311.212 70.9045 312.078 71.2831 312.799 72.0402C313.52 72.7612 313.88 73.6265 313.88 74.636C313.88 75.6454 313.52 76.5287 312.799 77.2858C312.078 78.0429 311.212 78.4215 310.203 78.4215ZM326.229 87.9393C327.13 86.1006 328.464 84.6585 330.231 83.613C331.998 82.5314 333.998 81.9906 336.234 81.9906V87.6148C333.241 87.6148 330.826 88.426 328.987 90.0483C327.149 91.6707 326.229 93.8158 326.229 96.4837V110.598H319.632V82.6396H326.229V87.9393ZM367.178 72.7973V110.598H360.58V106.218C359.499 107.804 358.111 109.048 356.416 109.949C354.758 110.814 352.919 111.247 350.9 111.247C348.449 111.247 346.25 110.634 344.303 109.408C342.356 108.147 340.824 106.398 339.706 104.163C338.589 101.928 338.03 99.4039 338.03 96.5918C338.03 93.7797 338.589 91.2741 339.706 89.0749C340.824 86.8397 342.356 85.1092 344.303 83.8834C346.25 82.6215 348.449 81.9906 350.9 81.9906C352.919 81.9906 354.758 82.4413 356.416 83.3426C358.111 84.2079 359.499 85.4336 360.58 87.0199V72.7973H367.178ZM352.685 105.623C354.199 105.623 355.551 105.244 356.741 104.487C357.967 103.694 358.904 102.613 359.553 101.243C360.238 99.8726 360.58 98.3223 360.58 96.5918C360.58 93.96 359.841 91.8149 358.363 90.1565C356.885 88.462 354.992 87.6148 352.685 87.6148C350.306 87.6148 348.359 88.462 346.844 90.1565C345.33 91.8149 344.573 93.96 344.573 96.5918C344.573 99.2236 345.33 101.387 346.844 103.081C348.359 104.776 350.306 105.623 352.685 105.623Z" fill="#FEFFFF"/>
</g>
<defs>
<filter id="filter0_f_2658_106448" x="-1142.83" y="101.942" width="1830.22" height="36.3339" filterUnits="userSpaceOnUse" color-interpolation-filters="sRGB">
<feFlood flood-opacity="0" result="BackgroundImageFix"/>
<feBlend mode="normal" in="SourceGraphic" in2="BackgroundImageFix" result="shape"/>
<feGaussianBlur stdDeviation="7.39354" result="effect1_foregroundBlur_2658_106448"/>
</filter>
<filter id="filter1_f_2658_106448" x="-686.183" y="114.785" width="916.922" height="10.6467" filterUnits="userSpaceOnUse" color-interpolation-filters="sRGB">
<feFlood flood-opacity="0" result="BackgroundImageFix"/>
<feBlend mode="normal" in="SourceGraphic" in2="BackgroundImageFix" result="shape"/>
<feGaussianBlur stdDeviation="2.23919" result="effect1_foregroundBlur_2658_106448"/>
</filter>
<filter id="filter2_d_2658_106448" x="55.7684" y="115.762" width="438.543" height="121.617" filterUnits="userSpaceOnUse" color-interpolation-filters="sRGB">
<feFlood flood-opacity="0" result="BackgroundImageFix"/>
<feColorMatrix in="SourceAlpha" type="matrix" values="0 0 0 0 0 0 0 0 0 0 0 0 0 0 0 0 0 0 127 0" result="hardAlpha"/>
<feOffset dy="2.53493"/>
<feGaussianBlur stdDeviation="1.26746"/>
<feComposite in2="hardAlpha" operator="out"/>
<feColorMatrix type="matrix" values="0 0 0 0 0 0 0 0 0 0 0 0 0 0 0 0 0 0 0.25 0"/>
<feBlend mode="normal" in2="BackgroundImageFix" result="effect1_dropShadow_2658_106448"/>
<feBlend mode="normal" in="SourceGraphic" in2="effect1_dropShadow_2658_106448" result="shape"/>
</filter>
<filter id="filter3_i_2658_106448" x="336.641" y="46.7461" width="148.621" height="63.9783" filterUnits="userSpaceOnUse" color-interpolation-filters="sRGB">
<feFlood flood-opacity="0" result="BackgroundImageFix"/>
<feBlend mode="normal" in="SourceGraphic" in2="BackgroundImageFix" result="shape"/>
<feColorMatrix in="SourceAlpha" type="matrix" values="0 0 0 0 0 0 0 0 0 0 0 0 0 0 0 0 0 0 127 0" result="hardAlpha"/>
<feOffset dy="0.844976"/>
<feGaussianBlur stdDeviation="0.844976"/>
<feComposite in2="hardAlpha" operator="arithmetic" k2="-1" k3="1"/>
<feColorMatrix type="matrix" values="0 0 0 0 0.0745098 0 0 0 0 0.101961 0 0 0 0 0.164706 0 0 0 0.5 0"/>
<feBlend mode="normal" in2="shape" result="effect1_innerShadow_2658_106448"/>
</filter>
<filter id="filter4_d_2658_106448" x="55.2344" y="70.9048" width="313.634" height="43.7222" filterUnits="userSpaceOnUse" color-interpolation-filters="sRGB">
<feFlood flood-opacity="0" result="BackgroundImageFix"/>
<feColorMatrix in="SourceAlpha" type="matrix" values="0 0 0 0 0 0 0 0 0 0 0 0 0 0 0 0 0 0 127 0" result="hardAlpha"/>
<feOffset dy="1.68995"/>
<feGaussianBlur stdDeviation="0.844976"/>
<feComposite in2="hardAlpha" operator="out"/>
<feColorMatrix type="matrix" values="0 0 0 0 0 0 0 0 0 0 0 0 0 0 0 0 0 0 0.3 0"/>
<feBlend mode="normal" in2="BackgroundImageFix" result="effect1_dropShadow_2658_106448"/>
<feBlend mode="normal" in="SourceGraphic" in2="effect1_dropShadow_2658_106448" result="shape"/>
</filter>
<linearGradient id="paint0_linear_2658_106448" x1="-1128.04" y1="120.109" x2="672.601" y2="120.109" gradientUnits="userSpaceOnUse">
<stop stop-color="#37ADF9"/>
<stop offset="0.515" stop-color="#AE55F7"/>
<stop offset="1" stop-color="#25A6A0"/>
</linearGradient>
<linearGradient id="paint1_linear_2658_106448" x1="385.141" y1="174.847" x2="465.338" y2="174.847" gradientUnits="userSpaceOnUse">
<stop stop-color="#37ADF9"/>
<stop offset="1" stop-color="#AE55F7"/>
</linearGradient>
<linearGradient id="paint2_linear_2658_106448" x1="385.141" y1="174.847" x2="465.338" y2="174.847" gradientUnits="userSpaceOnUse">
<stop stop-color="#37ADF9"/>
<stop offset="1" stop-color="#AE55F7"/>
</linearGradient>
<linearGradient id="paint3_linear_2658_106448" x1="385.141" y1="174.847" x2="465.338" y2="174.847" gradientUnits="userSpaceOnUse">
<stop stop-color="#37ADF9"/>
<stop offset="1" stop-color="#AE55F7"/>
</linearGradient>
<linearGradient id="paint4_linear_2658_106448" x1="385.141" y1="174.847" x2="465.338" y2="174.847" gradientUnits="userSpaceOnUse">
<stop stop-color="#37ADF9"/>
<stop offset="1" stop-color="#AE55F7"/>
</linearGradient>
<linearGradient id="paint5_linear_2658_106448" x1="385.141" y1="174.847" x2="465.338" y2="174.847" gradientUnits="userSpaceOnUse">
<stop stop-color="#37ADF9"/>
<stop offset="1" stop-color="#AE55F7"/>
</linearGradient>
<linearGradient id="paint6_linear_2658_106448" x1="374.76" y1="173.196" x2="470.755" y2="173.196" gradientUnits="userSpaceOnUse">
<stop stop-color="#37ADF9"/>
<stop offset="1" stop-color="#AE55F7"/>
</linearGradient>
<linearGradient id="paint7_linear_2658_106448" x1="374.76" y1="173.196" x2="470.755" y2="173.196" gradientUnits="userSpaceOnUse">
<stop stop-color="#37ADF9"/>
<stop offset="1" stop-color="#AE55F7"/>
</linearGradient>
<linearGradient id="paint8_linear_2658_106448" x1="376.174" y1="174.035" x2="491.776" y2="174.035" gradientUnits="userSpaceOnUse">
<stop stop-color="#37ADF9"/>
<stop offset="1" stop-color="#AE55F7"/>
</linearGradient>
<linearGradient id="paint9_linear_2658_106448" x1="376.174" y1="174.035" x2="491.776" y2="174.035" gradientUnits="userSpaceOnUse">
<stop stop-color="#37ADF9"/>
<stop offset="1" stop-color="#AE55F7"/>
</linearGradient>
<linearGradient id="paint10_linear_2658_106448" x1="376.174" y1="174.035" x2="491.776" y2="174.035" gradientUnits="userSpaceOnUse">
<stop stop-color="#37ADF9"/>
<stop offset="1" stop-color="#AE55F7"/>
</linearGradient>
<linearGradient id="paint11_linear_2658_106448" x1="376.174" y1="174.035" x2="491.776" y2="174.035" gradientUnits="userSpaceOnUse">
<stop stop-color="#37ADF9"/>
<stop offset="1" stop-color="#AE55F7"/>
</linearGradient>
<linearGradient id="paint12_linear_2658_106448" x1="376.174" y1="174.035" x2="491.776" y2="174.035" gradientUnits="userSpaceOnUse">
<stop stop-color="#37ADF9"/>
<stop offset="1" stop-color="#AE55F7"/>
</linearGradient>
<linearGradient id="paint13_linear_2658_106448" x1="376.174" y1="174.035" x2="491.776" y2="174.035" gradientUnits="userSpaceOnUse">
<stop stop-color="#37ADF9"/>
<stop offset="1" stop-color="#AE55F7"/>
</linearGradient>
<linearGradient id="paint14_linear_2658_106448" x1="376.174" y1="174.035" x2="491.776" y2="174.035" gradientUnits="userSpaceOnUse">
<stop stop-color="#37ADF9"/>
<stop offset="1" stop-color="#AE55F7"/>
</linearGradient>
<linearGradient id="paint15_linear_2658_106448" x1="376.174" y1="174.035" x2="491.776" y2="174.035" gradientUnits="userSpaceOnUse">
<stop stop-color="#37ADF9"/>
<stop offset="1" stop-color="#AE55F7"/>
</linearGradient>
<linearGradient id="paint16_linear_2658_106448" x1="376.174" y1="174.035" x2="491.776" y2="174.035" gradientUnits="userSpaceOnUse">
<stop stop-color="#37ADF9"/>
<stop offset="1" stop-color="#AE55F7"/>
</linearGradient>
<linearGradient id="paint17_linear_2658_106448" x1="376.174" y1="174.035" x2="491.776" y2="174.035" gradientUnits="userSpaceOnUse">
<stop stop-color="#37ADF9"/>
<stop offset="1" stop-color="#AE55F7"/>
</linearGradient>
<linearGradient id="paint18_linear_2658_106448" x1="376.174" y1="174.035" x2="491.776" y2="174.035" gradientUnits="userSpaceOnUse">
<stop stop-color="#37ADF9"/>
<stop offset="1" stop-color="#AE55F7"/>
</linearGradient>
<linearGradient id="paint19_linear_2658_106448" x1="376.174" y1="174.035" x2="491.776" y2="174.035" gradientUnits="userSpaceOnUse">
<stop stop-color="#37ADF9"/>
<stop offset="1" stop-color="#AE55F7"/>
</linearGradient>
<linearGradient id="paint20_linear_2658_106448" x1="58.3033" y1="166.023" x2="359.135" y2="166.023" gradientUnits="userSpaceOnUse">
<stop stop-color="#37ADF9"/>
<stop offset="1" stop-color="#AE55F7"/>
</linearGradient>
<linearGradient id="paint21_linear_2658_106448" x1="58.3033" y1="166.023" x2="359.135" y2="166.023" gradientUnits="userSpaceOnUse">
<stop stop-color="#37ADF9"/>
<stop offset="1" stop-color="#AE55F7"/>
</linearGradient>
<linearGradient id="paint22_linear_2658_106448" x1="58.3033" y1="166.023" x2="359.135" y2="166.023" gradientUnits="userSpaceOnUse">
<stop stop-color="#37ADF9"/>
<stop offset="1" stop-color="#AE55F7"/>
</linearGradient>
<linearGradient id="paint23_linear_2658_106448" x1="58.3033" y1="166.023" x2="359.135" y2="166.023" gradientUnits="userSpaceOnUse">
<stop stop-color="#37ADF9"/>
<stop offset="1" stop-color="#AE55F7"/>
</linearGradient>
<linearGradient id="paint24_linear_2658_106448" x1="58.3033" y1="166.023" x2="359.135" y2="166.023" gradientUnits="userSpaceOnUse">
<stop stop-color="#37ADF9"/>
<stop offset="1" stop-color="#AE55F7"/>
</linearGradient>
<linearGradient id="paint25_linear_2658_106448" x1="58.3033" y1="166.023" x2="359.135" y2="166.023" gradientUnits="userSpaceOnUse">
<stop stop-color="#37ADF9"/>
<stop offset="1" stop-color="#AE55F7"/>
</linearGradient>
<clipPath id="clip0_2658_106448">
<rect width="683" height="63" fill="white" transform="translate(0 88)"/>
</clipPath>
<clipPath id="clip1_2658_106448">
<rect width="276.307" height="121.677" fill="white" transform="translate(284.757)"/>
</clipPath>
</defs>
</svg>
