<svg width="540" height="553" viewBox="0 0 540 553" fill="none" xmlns="http://www.w3.org/2000/svg">
<g clip-path="url(#clip0_2490_39437)">
<g opacity="0.4" filter="url(#filter0_dd_2490_39437)">
<mask id="path-1-outside-1_2490_39437" maskUnits="userSpaceOnUse" x="253" y="10" width="134" height="134" fill="black">
<rect fill="white" x="253" y="10" width="134" height="134"/>
<path fill-rule="evenodd" clip-rule="evenodd" d="M319.536 141.072C319.591 141.072 319.646 141.07 319.7 141.065C319.755 141.07 319.81 141.072 319.865 141.072C320.506 141.072 321.102 140.74 321.44 140.195L324.836 134.711C325.338 134.668 325.838 134.619 326.336 134.564L330.739 139.274C331.177 139.743 331.826 139.951 332.454 139.826C333.083 139.701 333.603 139.259 333.827 138.659L336.089 132.624C336.57 132.485 337.05 132.339 337.526 132.187L342.77 135.956C343.291 136.331 343.968 136.409 344.56 136.163C345.153 135.918 345.576 135.383 345.68 134.75L346.722 128.361C347.162 128.132 347.598 127.898 348.031 127.658L353.927 130.345C354.511 130.611 355.192 130.556 355.725 130.199C356.259 129.843 356.57 129.235 356.547 128.594L356.317 122.1C356.695 121.797 357.069 121.49 357.439 121.177L363.769 122.669C364.394 122.816 365.05 122.629 365.504 122.175C365.958 121.722 366.144 121.065 365.997 120.44L364.506 114.111C364.818 113.741 365.126 113.367 365.429 112.989L371.922 113.219C372.564 113.241 373.171 112.93 373.528 112.397C373.885 111.863 373.94 111.183 373.673 110.599L370.987 104.703C371.226 104.27 371.461 103.833 371.69 103.394L378.079 102.351C378.712 102.248 379.246 101.824 379.492 101.232C379.738 100.639 379.659 99.962 379.285 99.4412L375.516 94.198C375.668 93.7212 375.814 93.2418 375.953 92.7598L381.988 90.499C382.588 90.274 383.029 89.7547 383.155 89.1259C383.28 88.4972 383.071 87.8484 382.603 87.4106L377.893 83.0077C377.948 82.5094 377.997 82.0091 378.04 81.5071L383.523 78.1113C384.069 77.7735 384.401 77.1776 384.401 76.5361C384.401 75.8946 384.069 75.2987 383.523 74.961L378.04 71.5652C377.997 71.0631 377.948 70.5628 377.893 70.0644L382.603 65.6617C383.071 65.2239 383.28 64.5751 383.155 63.9463C383.029 63.3175 382.588 62.7982 381.988 62.5733L375.954 60.3126C375.814 59.8304 375.668 59.3509 375.516 58.8739L379.285 53.631C379.659 53.1102 379.738 52.4328 379.492 51.8403C379.246 51.2478 378.712 50.8244 378.079 50.7211L371.691 49.6788C371.461 49.2387 371.227 48.8019 370.987 48.3684L373.673 42.4735C373.94 41.8894 373.885 41.2091 373.528 40.6755C373.171 40.1418 372.564 39.8309 371.922 39.8536L365.43 40.0835C365.127 39.7052 364.819 39.3309 364.506 38.9604L365.997 32.6318C366.144 32.007 365.958 31.3507 365.504 30.8968C365.05 30.443 364.394 30.2564 363.769 30.4036L357.44 31.8945C357.07 31.5821 356.696 31.2742 356.317 30.9709L356.547 24.4787C356.57 23.8372 356.259 23.2297 355.725 22.8729C355.192 22.5162 354.511 22.4611 353.927 22.7273L348.033 25.4138C347.599 25.1738 347.162 24.9391 346.722 24.7099L345.68 18.322C345.576 17.689 345.153 17.1544 344.56 16.9088C343.968 16.6632 343.291 16.7416 342.77 17.116L337.527 20.8842C337.05 20.7322 336.57 20.5863 336.088 20.4464L333.827 14.4131C333.603 13.8128 333.083 13.3714 332.454 13.2461C331.826 13.1209 331.177 13.3296 330.739 13.798L326.337 18.5073C325.838 18.452 325.338 18.403 324.835 18.3604L321.44 12.8773C321.102 12.3319 320.506 12 319.865 12C319.81 12 319.755 12.0025 319.7 12.0073C319.646 12.0025 319.591 12 319.536 12C318.895 12 318.299 12.3319 317.961 12.8773L314.566 18.3604C314.063 18.403 313.563 18.452 313.064 18.5073L308.662 13.798C308.224 13.3296 307.575 13.1209 306.946 13.2461C306.318 13.3714 305.798 13.8128 305.573 14.4131L303.313 20.4464C302.83 20.5863 302.351 20.7322 301.873 20.8842L296.631 17.116C296.11 16.7416 295.433 16.6632 294.84 16.9088C294.248 17.1544 293.824 17.689 293.721 18.322L292.679 24.7099C292.239 24.9391 291.802 25.1738 291.368 25.4138L285.474 22.7273C284.889 22.4611 284.209 22.5162 283.675 22.8729C283.142 23.2297 282.831 23.8372 282.854 24.4787L283.083 30.9709C282.705 31.2742 282.331 31.5821 281.96 31.8945L275.632 30.4036C275.007 30.2564 274.351 30.443 273.897 30.8968C273.443 31.3507 273.256 32.007 273.404 32.6318L274.895 38.9604C274.582 39.3309 274.274 39.7052 273.971 40.0835L267.479 39.8536C266.837 39.8309 266.23 40.1418 265.873 40.6755C265.516 41.2091 265.461 41.8894 265.727 42.4735L268.414 48.3684C268.174 48.8019 267.939 49.2387 267.71 49.6788L261.322 50.7211C260.689 50.8244 260.154 51.2478 259.909 51.8403C259.663 52.4328 259.742 53.1102 260.116 53.631L263.885 58.8739C263.733 59.3509 263.587 59.8304 263.447 60.3126L257.413 62.5733C256.813 62.7982 256.371 63.3175 256.246 63.9463C256.121 64.5751 256.33 65.2239 256.798 65.6617L261.508 70.0644C261.453 70.5628 261.404 71.0631 261.361 71.5652L255.877 74.961C255.332 75.2987 255 75.8946 255 76.5361C255 77.1776 255.332 77.7735 255.877 78.1113L261.361 81.5071C261.404 82.0091 261.453 82.5094 261.508 83.0077L256.798 87.4106C256.33 87.8484 256.121 88.4972 256.246 89.1259C256.371 89.7547 256.813 90.274 257.413 90.499L263.447 92.7598C263.587 93.2418 263.733 93.7212 263.885 94.198L260.116 99.4412C259.742 99.962 259.663 100.639 259.909 101.232C260.154 101.824 260.689 102.248 261.322 102.351L267.711 103.394C267.94 103.833 268.174 104.27 268.414 104.703L265.727 110.599C265.461 111.183 265.516 111.863 265.873 112.397C266.23 112.93 266.837 113.241 267.479 113.219L273.972 112.989C274.275 113.367 274.583 113.741 274.895 114.111L273.404 120.44C273.256 121.065 273.443 121.722 273.897 122.175C274.351 122.629 275.007 122.816 275.632 122.669L281.961 121.177C282.332 121.49 282.706 121.797 283.084 122.1L282.854 128.594C282.831 129.235 283.142 129.843 283.675 130.199C284.209 130.556 284.889 130.611 285.474 130.345L291.369 127.658C291.802 127.898 292.239 128.132 292.679 128.361L293.721 134.75C293.824 135.383 294.248 135.918 294.84 136.163C295.433 136.409 296.11 136.331 296.631 135.956L301.875 132.187C302.351 132.339 302.83 132.485 303.312 132.624L305.573 138.659C305.798 139.259 306.318 139.701 306.946 139.826C307.575 139.951 308.224 139.743 308.662 139.274L313.065 134.564C313.563 134.619 314.063 134.668 314.565 134.711L317.961 140.195C318.299 140.74 318.895 141.072 319.536 141.072ZM319.7 23.3365C319.674 23.3367 319.649 23.3372 319.623 23.338C318.624 23.3638 317.676 23.7799 316.979 24.4975C316.282 25.2151 315.892 26.1774 315.892 27.1793C315.892 28.198 316.297 29.1751 317.018 29.8955C317.73 30.608 318.694 31.0117 319.7 31.0204C320.707 31.0117 321.671 30.608 322.383 29.8955C323.104 29.1751 323.508 28.198 323.508 27.1793C323.509 26.1774 323.119 25.2151 322.422 24.4975C321.725 23.7799 320.776 23.3638 319.778 23.338C319.752 23.3372 319.726 23.3367 319.7 23.3365ZM319.69 36.9431C318.88 36.9042 318.081 36.5833 317.449 35.9735L310.828 29.6619C310.478 29.7276 310.128 29.7973 309.779 29.8708L309.773 29.8651C296.58 32.4979 284.77 41.1125 278.057 52.2668L279.528 55.1009L283.001 62.9366C283.779 64.7028 282.976 66.7779 281.222 67.5684L272.502 71.4344C272.476 71.6949 272.452 71.9555 272.431 72.2164L272.296 72.2766C272.198 73.5205 272.148 74.7779 272.148 76.0471C272.148 88.6571 277.104 100.109 285.174 108.563L285.178 108.562C285.397 108.791 285.618 109.017 285.842 109.242L293.956 107.5C295.846 107.093 297.711 108.303 298.119 110.193L300.046 119.185C306.217 121.98 312.916 123.416 319.69 123.396V123.396C319.693 123.396 319.697 123.396 319.7 123.396C319.704 123.396 319.708 123.396 319.711 123.396V123.396C326.485 123.416 333.184 121.98 339.355 119.185L341.282 110.193C341.69 108.303 343.555 107.093 345.444 107.5L353.559 109.242C353.783 109.017 354.004 108.791 354.223 108.562L354.227 108.563C362.297 100.109 367.253 88.6571 367.253 76.0471C367.253 74.7779 367.203 73.5205 367.105 72.2766L366.97 72.2164C366.948 71.9555 366.925 71.6949 366.899 71.4344L358.179 67.5684C356.425 66.7779 355.622 64.7028 356.4 62.9366L359.873 55.1009L361.344 52.2668C354.63 41.1125 342.821 32.4979 329.628 29.8651L329.622 29.8708C329.273 29.7973 328.923 29.7276 328.572 29.6619L321.952 35.9735C321.32 36.5833 320.52 36.9042 319.711 36.9431V36.9441C319.708 36.9439 319.704 36.9438 319.7 36.9436C319.697 36.9438 319.693 36.9439 319.69 36.9441V36.9431ZM271.191 59.4314C271.888 58.7141 272.837 58.2967 273.836 58.2678C274.35 58.2529 274.861 58.3413 275.34 58.5276C275.819 58.714 276.256 58.9946 276.624 59.3528C276.993 59.711 277.286 60.1395 277.486 60.6129C277.686 61.0864 277.789 61.5951 277.788 62.1091C277.788 63.1278 277.384 64.1049 276.663 64.8253C275.943 65.5456 274.966 65.9503 273.947 65.9503C272.928 65.9503 271.951 65.5456 271.231 64.8253C270.511 64.1049 270.106 63.1278 270.106 62.1091C270.105 61.1092 270.495 60.1487 271.191 59.4314ZM288.545 113.518C289.242 112.801 290.19 112.384 291.19 112.355C291.703 112.34 292.215 112.428 292.694 112.614C293.173 112.801 293.609 113.081 293.978 113.44C294.347 113.798 294.639 114.226 294.839 114.7C295.039 115.173 295.142 115.682 295.142 116.196C295.142 117.215 294.737 118.192 294.017 118.912C293.297 119.632 292.32 120.037 291.301 120.037C290.282 120.037 289.305 119.632 288.585 118.912C287.864 118.192 287.46 117.215 287.46 116.196C287.459 115.196 287.849 114.236 288.545 113.518ZM368.209 59.4314C367.513 58.7141 366.564 58.2967 365.565 58.2678C365.051 58.2529 364.54 58.3413 364.061 58.5276C363.582 58.714 363.145 58.9946 362.777 59.3528C362.408 59.711 362.115 60.1395 361.915 60.6129C361.715 61.0864 361.612 61.5951 361.612 62.1091C361.612 63.1278 362.017 64.1049 362.737 64.8253C363.458 65.5456 364.435 65.9503 365.454 65.9503C366.472 65.9503 367.45 65.5456 368.17 64.8253C368.89 64.1049 369.295 63.1278 369.295 62.1091C369.295 61.1092 368.906 60.1487 368.209 59.4314ZM350.856 113.518C350.159 112.801 349.211 112.384 348.211 112.355C347.697 112.34 347.186 112.428 346.707 112.614C346.228 112.801 345.791 113.081 345.423 113.44C345.054 113.798 344.761 114.226 344.561 114.7C344.361 115.173 344.258 115.682 344.259 116.196C344.259 117.215 344.663 118.192 345.384 118.912C346.104 119.632 347.081 120.037 348.1 120.037C349.119 120.037 350.096 119.632 350.816 118.912C351.537 118.192 351.941 117.215 351.941 116.196C351.942 115.196 351.552 114.236 350.856 113.518Z"/>
</mask>
<path fill-rule="evenodd" clip-rule="evenodd" d="M319.536 141.072C319.591 141.072 319.646 141.07 319.7 141.065C319.755 141.07 319.81 141.072 319.865 141.072C320.506 141.072 321.102 140.74 321.44 140.195L324.836 134.711C325.338 134.668 325.838 134.619 326.336 134.564L330.739 139.274C331.177 139.743 331.826 139.951 332.454 139.826C333.083 139.701 333.603 139.259 333.827 138.659L336.089 132.624C336.57 132.485 337.05 132.339 337.526 132.187L342.77 135.956C343.291 136.331 343.968 136.409 344.56 136.163C345.153 135.918 345.576 135.383 345.68 134.75L346.722 128.361C347.162 128.132 347.598 127.898 348.031 127.658L353.927 130.345C354.511 130.611 355.192 130.556 355.725 130.199C356.259 129.843 356.57 129.235 356.547 128.594L356.317 122.1C356.695 121.797 357.069 121.49 357.439 121.177L363.769 122.669C364.394 122.816 365.05 122.629 365.504 122.175C365.958 121.722 366.144 121.065 365.997 120.44L364.506 114.111C364.818 113.741 365.126 113.367 365.429 112.989L371.922 113.219C372.564 113.241 373.171 112.93 373.528 112.397C373.885 111.863 373.94 111.183 373.673 110.599L370.987 104.703C371.226 104.27 371.461 103.833 371.69 103.394L378.079 102.351C378.712 102.248 379.246 101.824 379.492 101.232C379.738 100.639 379.659 99.962 379.285 99.4412L375.516 94.198C375.668 93.7212 375.814 93.2418 375.953 92.7598L381.988 90.499C382.588 90.274 383.029 89.7547 383.155 89.1259C383.28 88.4972 383.071 87.8484 382.603 87.4106L377.893 83.0077C377.948 82.5094 377.997 82.0091 378.04 81.5071L383.523 78.1113C384.069 77.7735 384.401 77.1776 384.401 76.5361C384.401 75.8946 384.069 75.2987 383.523 74.961L378.04 71.5652C377.997 71.0631 377.948 70.5628 377.893 70.0644L382.603 65.6617C383.071 65.2239 383.28 64.5751 383.155 63.9463C383.029 63.3175 382.588 62.7982 381.988 62.5733L375.954 60.3126C375.814 59.8304 375.668 59.3509 375.516 58.8739L379.285 53.631C379.659 53.1102 379.738 52.4328 379.492 51.8403C379.246 51.2478 378.712 50.8244 378.079 50.7211L371.691 49.6788C371.461 49.2387 371.227 48.8019 370.987 48.3684L373.673 42.4735C373.94 41.8894 373.885 41.2091 373.528 40.6755C373.171 40.1418 372.564 39.8309 371.922 39.8536L365.43 40.0835C365.127 39.7052 364.819 39.3309 364.506 38.9604L365.997 32.6318C366.144 32.007 365.958 31.3507 365.504 30.8968C365.05 30.443 364.394 30.2564 363.769 30.4036L357.44 31.8945C357.07 31.5821 356.696 31.2742 356.317 30.9709L356.547 24.4787C356.57 23.8372 356.259 23.2297 355.725 22.8729C355.192 22.5162 354.511 22.4611 353.927 22.7273L348.033 25.4138C347.599 25.1738 347.162 24.9391 346.722 24.7099L345.68 18.322C345.576 17.689 345.153 17.1544 344.56 16.9088C343.968 16.6632 343.291 16.7416 342.77 17.116L337.527 20.8842C337.05 20.7322 336.57 20.5863 336.088 20.4464L333.827 14.4131C333.603 13.8128 333.083 13.3714 332.454 13.2461C331.826 13.1209 331.177 13.3296 330.739 13.798L326.337 18.5073C325.838 18.452 325.338 18.403 324.835 18.3604L321.44 12.8773C321.102 12.3319 320.506 12 319.865 12C319.81 12 319.755 12.0025 319.7 12.0073C319.646 12.0025 319.591 12 319.536 12C318.895 12 318.299 12.3319 317.961 12.8773L314.566 18.3604C314.063 18.403 313.563 18.452 313.064 18.5073L308.662 13.798C308.224 13.3296 307.575 13.1209 306.946 13.2461C306.318 13.3714 305.798 13.8128 305.573 14.4131L303.313 20.4464C302.83 20.5863 302.351 20.7322 301.873 20.8842L296.631 17.116C296.11 16.7416 295.433 16.6632 294.84 16.9088C294.248 17.1544 293.824 17.689 293.721 18.322L292.679 24.7099C292.239 24.9391 291.802 25.1738 291.368 25.4138L285.474 22.7273C284.889 22.4611 284.209 22.5162 283.675 22.8729C283.142 23.2297 282.831 23.8372 282.854 24.4787L283.083 30.9709C282.705 31.2742 282.331 31.5821 281.96 31.8945L275.632 30.4036C275.007 30.2564 274.351 30.443 273.897 30.8968C273.443 31.3507 273.256 32.007 273.404 32.6318L274.895 38.9604C274.582 39.3309 274.274 39.7052 273.971 40.0835L267.479 39.8536C266.837 39.8309 266.23 40.1418 265.873 40.6755C265.516 41.2091 265.461 41.8894 265.727 42.4735L268.414 48.3684C268.174 48.8019 267.939 49.2387 267.71 49.6788L261.322 50.7211C260.689 50.8244 260.154 51.2478 259.909 51.8403C259.663 52.4328 259.742 53.1102 260.116 53.631L263.885 58.8739C263.733 59.3509 263.587 59.8304 263.447 60.3126L257.413 62.5733C256.813 62.7982 256.371 63.3175 256.246 63.9463C256.121 64.5751 256.33 65.2239 256.798 65.6617L261.508 70.0644C261.453 70.5628 261.404 71.0631 261.361 71.5652L255.877 74.961C255.332 75.2987 255 75.8946 255 76.5361C255 77.1776 255.332 77.7735 255.877 78.1113L261.361 81.5071C261.404 82.0091 261.453 82.5094 261.508 83.0077L256.798 87.4106C256.33 87.8484 256.121 88.4972 256.246 89.1259C256.371 89.7547 256.813 90.274 257.413 90.499L263.447 92.7598C263.587 93.2418 263.733 93.7212 263.885 94.198L260.116 99.4412C259.742 99.962 259.663 100.639 259.909 101.232C260.154 101.824 260.689 102.248 261.322 102.351L267.711 103.394C267.94 103.833 268.174 104.27 268.414 104.703L265.727 110.599C265.461 111.183 265.516 111.863 265.873 112.397C266.23 112.93 266.837 113.241 267.479 113.219L273.972 112.989C274.275 113.367 274.583 113.741 274.895 114.111L273.404 120.44C273.256 121.065 273.443 121.722 273.897 122.175C274.351 122.629 275.007 122.816 275.632 122.669L281.961 121.177C282.332 121.49 282.706 121.797 283.084 122.1L282.854 128.594C282.831 129.235 283.142 129.843 283.675 130.199C284.209 130.556 284.889 130.611 285.474 130.345L291.369 127.658C291.802 127.898 292.239 128.132 292.679 128.361L293.721 134.75C293.824 135.383 294.248 135.918 294.84 136.163C295.433 136.409 296.11 136.331 296.631 135.956L301.875 132.187C302.351 132.339 302.83 132.485 303.312 132.624L305.573 138.659C305.798 139.259 306.318 139.701 306.946 139.826C307.575 139.951 308.224 139.743 308.662 139.274L313.065 134.564C313.563 134.619 314.063 134.668 314.565 134.711L317.961 140.195C318.299 140.74 318.895 141.072 319.536 141.072ZM319.7 23.3365C319.674 23.3367 319.649 23.3372 319.623 23.338C318.624 23.3638 317.676 23.7799 316.979 24.4975C316.282 25.2151 315.892 26.1774 315.892 27.1793C315.892 28.198 316.297 29.1751 317.018 29.8955C317.73 30.608 318.694 31.0117 319.7 31.0204C320.707 31.0117 321.671 30.608 322.383 29.8955C323.104 29.1751 323.508 28.198 323.508 27.1793C323.509 26.1774 323.119 25.2151 322.422 24.4975C321.725 23.7799 320.776 23.3638 319.778 23.338C319.752 23.3372 319.726 23.3367 319.7 23.3365ZM319.69 36.9431C318.88 36.9042 318.081 36.5833 317.449 35.9735L310.828 29.6619C310.478 29.7276 310.128 29.7973 309.779 29.8708L309.773 29.8651C296.58 32.4979 284.77 41.1125 278.057 52.2668L279.528 55.1009L283.001 62.9366C283.779 64.7028 282.976 66.7779 281.222 67.5684L272.502 71.4344C272.476 71.6949 272.452 71.9555 272.431 72.2164L272.296 72.2766C272.198 73.5205 272.148 74.7779 272.148 76.0471C272.148 88.6571 277.104 100.109 285.174 108.563L285.178 108.562C285.397 108.791 285.618 109.017 285.842 109.242L293.956 107.5C295.846 107.093 297.711 108.303 298.119 110.193L300.046 119.185C306.217 121.98 312.916 123.416 319.69 123.396V123.396C319.693 123.396 319.697 123.396 319.7 123.396C319.704 123.396 319.708 123.396 319.711 123.396V123.396C326.485 123.416 333.184 121.98 339.355 119.185L341.282 110.193C341.69 108.303 343.555 107.093 345.444 107.5L353.559 109.242C353.783 109.017 354.004 108.791 354.223 108.562L354.227 108.563C362.297 100.109 367.253 88.6571 367.253 76.0471C367.253 74.7779 367.203 73.5205 367.105 72.2766L366.97 72.2164C366.948 71.9555 366.925 71.6949 366.899 71.4344L358.179 67.5684C356.425 66.7779 355.622 64.7028 356.4 62.9366L359.873 55.1009L361.344 52.2668C354.63 41.1125 342.821 32.4979 329.628 29.8651L329.622 29.8708C329.273 29.7973 328.923 29.7276 328.572 29.6619L321.952 35.9735C321.32 36.5833 320.52 36.9042 319.711 36.9431V36.9441C319.708 36.9439 319.704 36.9438 319.7 36.9436C319.697 36.9438 319.693 36.9439 319.69 36.9441V36.9431ZM271.191 59.4314C271.888 58.7141 272.837 58.2967 273.836 58.2678C274.35 58.2529 274.861 58.3413 275.34 58.5276C275.819 58.714 276.256 58.9946 276.624 59.3528C276.993 59.711 277.286 60.1395 277.486 60.6129C277.686 61.0864 277.789 61.5951 277.788 62.1091C277.788 63.1278 277.384 64.1049 276.663 64.8253C275.943 65.5456 274.966 65.9503 273.947 65.9503C272.928 65.9503 271.951 65.5456 271.231 64.8253C270.511 64.1049 270.106 63.1278 270.106 62.1091C270.105 61.1092 270.495 60.1487 271.191 59.4314ZM288.545 113.518C289.242 112.801 290.19 112.384 291.19 112.355C291.703 112.34 292.215 112.428 292.694 112.614C293.173 112.801 293.609 113.081 293.978 113.44C294.347 113.798 294.639 114.226 294.839 114.7C295.039 115.173 295.142 115.682 295.142 116.196C295.142 117.215 294.737 118.192 294.017 118.912C293.297 119.632 292.32 120.037 291.301 120.037C290.282 120.037 289.305 119.632 288.585 118.912C287.864 118.192 287.46 117.215 287.46 116.196C287.459 115.196 287.849 114.236 288.545 113.518ZM368.209 59.4314C367.513 58.7141 366.564 58.2967 365.565 58.2678C365.051 58.2529 364.54 58.3413 364.061 58.5276C363.582 58.714 363.145 58.9946 362.777 59.3528C362.408 59.711 362.115 60.1395 361.915 60.6129C361.715 61.0864 361.612 61.5951 361.612 62.1091C361.612 63.1278 362.017 64.1049 362.737 64.8253C363.458 65.5456 364.435 65.9503 365.454 65.9503C366.472 65.9503 367.45 65.5456 368.17 64.8253C368.89 64.1049 369.295 63.1278 369.295 62.1091C369.295 61.1092 368.906 60.1487 368.209 59.4314ZM350.856 113.518C350.159 112.801 349.211 112.384 348.211 112.355C347.697 112.34 347.186 112.428 346.707 112.614C346.228 112.801 345.791 113.081 345.423 113.44C345.054 113.798 344.761 114.226 344.561 114.7C344.361 115.173 344.258 115.682 344.259 116.196C344.259 117.215 344.663 118.192 345.384 118.912C346.104 119.632 347.081 120.037 348.1 120.037C349.119 120.037 350.096 119.632 350.816 118.912C351.537 118.192 351.941 117.215 351.941 116.196C351.942 115.196 351.552 114.236 350.856 113.518Z" fill="#19192C"/>
<path fill-rule="evenodd" clip-rule="evenodd" d="M319.536 141.072C319.591 141.072 319.646 141.07 319.7 141.065C319.755 141.07 319.81 141.072 319.865 141.072C320.506 141.072 321.102 140.74 321.44 140.195L324.836 134.711C325.338 134.668 325.838 134.619 326.336 134.564L330.739 139.274C331.177 139.743 331.826 139.951 332.454 139.826C333.083 139.701 333.603 139.259 333.827 138.659L336.089 132.624C336.57 132.485 337.05 132.339 337.526 132.187L342.77 135.956C343.291 136.331 343.968 136.409 344.56 136.163C345.153 135.918 345.576 135.383 345.68 134.75L346.722 128.361C347.162 128.132 347.598 127.898 348.031 127.658L353.927 130.345C354.511 130.611 355.192 130.556 355.725 130.199C356.259 129.843 356.57 129.235 356.547 128.594L356.317 122.1C356.695 121.797 357.069 121.49 357.439 121.177L363.769 122.669C364.394 122.816 365.05 122.629 365.504 122.175C365.958 121.722 366.144 121.065 365.997 120.44L364.506 114.111C364.818 113.741 365.126 113.367 365.429 112.989L371.922 113.219C372.564 113.241 373.171 112.93 373.528 112.397C373.885 111.863 373.94 111.183 373.673 110.599L370.987 104.703C371.226 104.27 371.461 103.833 371.69 103.394L378.079 102.351C378.712 102.248 379.246 101.824 379.492 101.232C379.738 100.639 379.659 99.962 379.285 99.4412L375.516 94.198C375.668 93.7212 375.814 93.2418 375.953 92.7598L381.988 90.499C382.588 90.274 383.029 89.7547 383.155 89.1259C383.28 88.4972 383.071 87.8484 382.603 87.4106L377.893 83.0077C377.948 82.5094 377.997 82.0091 378.04 81.5071L383.523 78.1113C384.069 77.7735 384.401 77.1776 384.401 76.5361C384.401 75.8946 384.069 75.2987 383.523 74.961L378.04 71.5652C377.997 71.0631 377.948 70.5628 377.893 70.0644L382.603 65.6617C383.071 65.2239 383.28 64.5751 383.155 63.9463C383.029 63.3175 382.588 62.7982 381.988 62.5733L375.954 60.3126C375.814 59.8304 375.668 59.3509 375.516 58.8739L379.285 53.631C379.659 53.1102 379.738 52.4328 379.492 51.8403C379.246 51.2478 378.712 50.8244 378.079 50.7211L371.691 49.6788C371.461 49.2387 371.227 48.8019 370.987 48.3684L373.673 42.4735C373.94 41.8894 373.885 41.2091 373.528 40.6755C373.171 40.1418 372.564 39.8309 371.922 39.8536L365.43 40.0835C365.127 39.7052 364.819 39.3309 364.506 38.9604L365.997 32.6318C366.144 32.007 365.958 31.3507 365.504 30.8968C365.05 30.443 364.394 30.2564 363.769 30.4036L357.44 31.8945C357.07 31.5821 356.696 31.2742 356.317 30.9709L356.547 24.4787C356.57 23.8372 356.259 23.2297 355.725 22.8729C355.192 22.5162 354.511 22.4611 353.927 22.7273L348.033 25.4138C347.599 25.1738 347.162 24.9391 346.722 24.7099L345.68 18.322C345.576 17.689 345.153 17.1544 344.56 16.9088C343.968 16.6632 343.291 16.7416 342.77 17.116L337.527 20.8842C337.05 20.7322 336.57 20.5863 336.088 20.4464L333.827 14.4131C333.603 13.8128 333.083 13.3714 332.454 13.2461C331.826 13.1209 331.177 13.3296 330.739 13.798L326.337 18.5073C325.838 18.452 325.338 18.403 324.835 18.3604L321.44 12.8773C321.102 12.3319 320.506 12 319.865 12C319.81 12 319.755 12.0025 319.7 12.0073C319.646 12.0025 319.591 12 319.536 12C318.895 12 318.299 12.3319 317.961 12.8773L314.566 18.3604C314.063 18.403 313.563 18.452 313.064 18.5073L308.662 13.798C308.224 13.3296 307.575 13.1209 306.946 13.2461C306.318 13.3714 305.798 13.8128 305.573 14.4131L303.313 20.4464C302.83 20.5863 302.351 20.7322 301.873 20.8842L296.631 17.116C296.11 16.7416 295.433 16.6632 294.84 16.9088C294.248 17.1544 293.824 17.689 293.721 18.322L292.679 24.7099C292.239 24.9391 291.802 25.1738 291.368 25.4138L285.474 22.7273C284.889 22.4611 284.209 22.5162 283.675 22.8729C283.142 23.2297 282.831 23.8372 282.854 24.4787L283.083 30.9709C282.705 31.2742 282.331 31.5821 281.96 31.8945L275.632 30.4036C275.007 30.2564 274.351 30.443 273.897 30.8968C273.443 31.3507 273.256 32.007 273.404 32.6318L274.895 38.9604C274.582 39.3309 274.274 39.7052 273.971 40.0835L267.479 39.8536C266.837 39.8309 266.23 40.1418 265.873 40.6755C265.516 41.2091 265.461 41.8894 265.727 42.4735L268.414 48.3684C268.174 48.8019 267.939 49.2387 267.71 49.6788L261.322 50.7211C260.689 50.8244 260.154 51.2478 259.909 51.8403C259.663 52.4328 259.742 53.1102 260.116 53.631L263.885 58.8739C263.733 59.3509 263.587 59.8304 263.447 60.3126L257.413 62.5733C256.813 62.7982 256.371 63.3175 256.246 63.9463C256.121 64.5751 256.33 65.2239 256.798 65.6617L261.508 70.0644C261.453 70.5628 261.404 71.0631 261.361 71.5652L255.877 74.961C255.332 75.2987 255 75.8946 255 76.5361C255 77.1776 255.332 77.7735 255.877 78.1113L261.361 81.5071C261.404 82.0091 261.453 82.5094 261.508 83.0077L256.798 87.4106C256.33 87.8484 256.121 88.4972 256.246 89.1259C256.371 89.7547 256.813 90.274 257.413 90.499L263.447 92.7598C263.587 93.2418 263.733 93.7212 263.885 94.198L260.116 99.4412C259.742 99.962 259.663 100.639 259.909 101.232C260.154 101.824 260.689 102.248 261.322 102.351L267.711 103.394C267.94 103.833 268.174 104.27 268.414 104.703L265.727 110.599C265.461 111.183 265.516 111.863 265.873 112.397C266.23 112.93 266.837 113.241 267.479 113.219L273.972 112.989C274.275 113.367 274.583 113.741 274.895 114.111L273.404 120.44C273.256 121.065 273.443 121.722 273.897 122.175C274.351 122.629 275.007 122.816 275.632 122.669L281.961 121.177C282.332 121.49 282.706 121.797 283.084 122.1L282.854 128.594C282.831 129.235 283.142 129.843 283.675 130.199C284.209 130.556 284.889 130.611 285.474 130.345L291.369 127.658C291.802 127.898 292.239 128.132 292.679 128.361L293.721 134.75C293.824 135.383 294.248 135.918 294.84 136.163C295.433 136.409 296.11 136.331 296.631 135.956L301.875 132.187C302.351 132.339 302.83 132.485 303.312 132.624L305.573 138.659C305.798 139.259 306.318 139.701 306.946 139.826C307.575 139.951 308.224 139.743 308.662 139.274L313.065 134.564C313.563 134.619 314.063 134.668 314.565 134.711L317.961 140.195C318.299 140.74 318.895 141.072 319.536 141.072ZM319.7 23.3365C319.674 23.3367 319.649 23.3372 319.623 23.338C318.624 23.3638 317.676 23.7799 316.979 24.4975C316.282 25.2151 315.892 26.1774 315.892 27.1793C315.892 28.198 316.297 29.1751 317.018 29.8955C317.73 30.608 318.694 31.0117 319.7 31.0204C320.707 31.0117 321.671 30.608 322.383 29.8955C323.104 29.1751 323.508 28.198 323.508 27.1793C323.509 26.1774 323.119 25.2151 322.422 24.4975C321.725 23.7799 320.776 23.3638 319.778 23.338C319.752 23.3372 319.726 23.3367 319.7 23.3365ZM319.69 36.9431C318.88 36.9042 318.081 36.5833 317.449 35.9735L310.828 29.6619C310.478 29.7276 310.128 29.7973 309.779 29.8708L309.773 29.8651C296.58 32.4979 284.77 41.1125 278.057 52.2668L279.528 55.1009L283.001 62.9366C283.779 64.7028 282.976 66.7779 281.222 67.5684L272.502 71.4344C272.476 71.6949 272.452 71.9555 272.431 72.2164L272.296 72.2766C272.198 73.5205 272.148 74.7779 272.148 76.0471C272.148 88.6571 277.104 100.109 285.174 108.563L285.178 108.562C285.397 108.791 285.618 109.017 285.842 109.242L293.956 107.5C295.846 107.093 297.711 108.303 298.119 110.193L300.046 119.185C306.217 121.98 312.916 123.416 319.69 123.396V123.396C319.693 123.396 319.697 123.396 319.7 123.396C319.704 123.396 319.708 123.396 319.711 123.396V123.396C326.485 123.416 333.184 121.98 339.355 119.185L341.282 110.193C341.69 108.303 343.555 107.093 345.444 107.5L353.559 109.242C353.783 109.017 354.004 108.791 354.223 108.562L354.227 108.563C362.297 100.109 367.253 88.6571 367.253 76.0471C367.253 74.7779 367.203 73.5205 367.105 72.2766L366.97 72.2164C366.948 71.9555 366.925 71.6949 366.899 71.4344L358.179 67.5684C356.425 66.7779 355.622 64.7028 356.4 62.9366L359.873 55.1009L361.344 52.2668C354.63 41.1125 342.821 32.4979 329.628 29.8651L329.622 29.8708C329.273 29.7973 328.923 29.7276 328.572 29.6619L321.952 35.9735C321.32 36.5833 320.52 36.9042 319.711 36.9431V36.9441C319.708 36.9439 319.704 36.9438 319.7 36.9436C319.697 36.9438 319.693 36.9439 319.69 36.9441V36.9431ZM271.191 59.4314C271.888 58.7141 272.837 58.2967 273.836 58.2678C274.35 58.2529 274.861 58.3413 275.34 58.5276C275.819 58.714 276.256 58.9946 276.624 59.3528C276.993 59.711 277.286 60.1395 277.486 60.6129C277.686 61.0864 277.789 61.5951 277.788 62.1091C277.788 63.1278 277.384 64.1049 276.663 64.8253C275.943 65.5456 274.966 65.9503 273.947 65.9503C272.928 65.9503 271.951 65.5456 271.231 64.8253C270.511 64.1049 270.106 63.1278 270.106 62.1091C270.105 61.1092 270.495 60.1487 271.191 59.4314ZM288.545 113.518C289.242 112.801 290.19 112.384 291.19 112.355C291.703 112.34 292.215 112.428 292.694 112.614C293.173 112.801 293.609 113.081 293.978 113.44C294.347 113.798 294.639 114.226 294.839 114.7C295.039 115.173 295.142 115.682 295.142 116.196C295.142 117.215 294.737 118.192 294.017 118.912C293.297 119.632 292.32 120.037 291.301 120.037C290.282 120.037 289.305 119.632 288.585 118.912C287.864 118.192 287.46 117.215 287.46 116.196C287.459 115.196 287.849 114.236 288.545 113.518ZM368.209 59.4314C367.513 58.7141 366.564 58.2967 365.565 58.2678C365.051 58.2529 364.54 58.3413 364.061 58.5276C363.582 58.714 363.145 58.9946 362.777 59.3528C362.408 59.711 362.115 60.1395 361.915 60.6129C361.715 61.0864 361.612 61.5951 361.612 62.1091C361.612 63.1278 362.017 64.1049 362.737 64.8253C363.458 65.5456 364.435 65.9503 365.454 65.9503C366.472 65.9503 367.45 65.5456 368.17 64.8253C368.89 64.1049 369.295 63.1278 369.295 62.1091C369.295 61.1092 368.906 60.1487 368.209 59.4314ZM350.856 113.518C350.159 112.801 349.211 112.384 348.211 112.355C347.697 112.34 347.186 112.428 346.707 112.614C346.228 112.801 345.791 113.081 345.423 113.44C345.054 113.798 344.761 114.226 344.561 114.7C344.361 115.173 344.258 115.682 344.259 116.196C344.259 117.215 344.663 118.192 345.384 118.912C346.104 119.632 347.081 120.037 348.1 120.037C349.119 120.037 350.096 119.632 350.816 118.912C351.537 118.192 351.941 117.215 351.941 116.196C351.942 115.196 351.552 114.236 350.856 113.518Z" stroke="#AE55F7" stroke-width="4" stroke-linecap="round" stroke-linejoin="round" mask="url(#path-1-outside-1_2490_39437)"/>
</g>
<g opacity="0.2" filter="url(#filter1_dd_2490_39437)">
<mask id="path-2-outside-2_2490_39437" maskUnits="userSpaceOnUse" x="303" y="293" width="263" height="263" fill="black">
<rect fill="white" x="303" y="293" width="263" height="263"/>
<path fill-rule="evenodd" clip-rule="evenodd" d="M434.072 553.145C434.183 553.145 434.292 553.14 434.401 553.13C434.509 553.14 434.619 553.145 434.729 553.145C436.012 553.145 437.204 552.481 437.88 551.39L444.672 540.421C445.676 540.336 446.675 540.238 447.672 540.128L456.478 549.549C457.354 550.485 458.651 550.903 459.909 550.652C461.166 550.402 462.205 549.519 462.655 548.318L467.177 536.249C468.141 535.969 469.099 535.678 470.052 535.374L480.539 542.913C481.581 543.661 482.936 543.818 484.121 543.327C485.306 542.836 486.153 541.767 486.359 540.5L488.444 527.722C489.324 527.264 490.197 526.795 491.063 526.316L502.855 531.69C504.023 532.222 505.383 532.112 506.451 531.399C507.518 530.685 508.14 529.47 508.094 528.187L507.635 515.2C508.39 514.594 509.138 513.979 509.879 513.355L522.538 516.337C523.787 516.632 525.1 516.258 526.008 515.351C526.916 514.443 527.289 513.13 526.994 511.881L524.012 499.222C524.636 498.481 525.252 497.733 525.858 496.977L538.844 497.437C540.127 497.483 541.342 496.861 542.056 495.794C542.769 494.726 542.879 493.366 542.347 492.197L536.973 480.406C537.453 479.54 537.922 478.667 538.38 477.787L551.158 475.702C552.424 475.496 553.493 474.649 553.984 473.464C554.475 472.279 554.318 470.924 553.57 469.882L546.032 459.396C546.336 458.442 546.627 457.484 546.907 456.52L558.975 451.998C560.176 451.548 561.059 450.509 561.309 449.252C561.56 447.994 561.142 446.697 560.206 445.821L550.786 437.015C550.896 436.019 550.994 435.018 551.079 434.014L562.047 427.223C563.138 426.547 563.802 425.355 563.802 424.072C563.802 422.789 563.138 421.597 562.047 420.922L551.08 414.13C550.994 413.126 550.896 412.126 550.786 411.129L560.206 402.323C561.142 401.448 561.56 400.15 561.309 398.893C561.059 397.635 560.176 396.596 558.975 396.147L546.908 391.625C546.628 390.661 546.336 389.702 546.033 388.748L553.57 378.262C554.318 377.22 554.475 375.866 553.984 374.681C553.493 373.496 552.424 372.649 551.158 372.442L538.381 370.358C537.923 369.477 537.454 368.604 536.974 367.737L542.347 355.947C542.879 354.779 542.769 353.418 542.056 352.351C541.342 351.284 540.127 350.662 538.844 350.707L525.86 351.167C525.253 350.41 524.637 349.662 524.013 348.921L526.994 336.264C527.289 335.014 526.916 333.701 526.008 332.794C525.1 331.886 523.787 331.513 522.538 331.807L509.881 334.789C509.14 334.164 508.391 333.548 507.635 332.942L508.094 319.957C508.14 318.674 507.518 317.459 506.451 316.746C505.383 316.032 504.023 315.922 502.855 316.455L491.065 321.828C490.198 321.348 489.324 320.878 488.444 320.42L486.359 307.644C486.153 306.378 485.306 305.309 484.121 304.818C482.936 304.326 481.581 304.483 480.539 305.232L470.055 312.768C469.1 312.464 468.141 312.173 467.176 311.893L462.655 299.826C462.205 298.626 461.166 297.743 459.909 297.492C458.651 297.242 457.354 297.659 456.478 298.596L447.674 308.015C446.676 307.904 445.675 307.806 444.67 307.721L437.88 296.755C437.204 295.664 436.012 295 434.729 295C434.619 295 434.509 295.005 434.401 295.015C434.292 295.005 434.183 295 434.072 295C432.789 295 431.597 295.664 430.922 296.755L424.131 307.721C423.126 307.806 422.125 307.904 421.128 308.015L412.323 298.596C411.448 297.659 410.15 297.242 408.893 297.492C407.635 297.743 406.596 298.626 406.147 299.826L401.626 311.893C400.661 312.173 399.701 312.464 398.747 312.768L388.262 305.232C387.22 304.483 385.866 304.326 384.681 304.818C383.496 305.309 382.649 306.378 382.442 307.644L380.358 320.42C379.477 320.878 378.603 321.348 377.736 321.828L365.947 316.455C364.779 315.922 363.418 316.032 362.351 316.746C361.284 317.459 360.662 318.674 360.707 319.957L361.167 332.942C360.41 333.548 359.662 334.164 358.921 334.789L346.264 331.807C345.014 331.513 343.701 331.886 342.794 332.794C341.886 333.701 341.513 335.014 341.807 336.264L344.789 348.921C344.164 349.662 343.549 350.41 342.942 351.167L329.957 350.707C328.674 350.662 327.459 351.284 326.746 352.351C326.032 353.418 325.922 354.779 326.455 355.947L331.828 367.737C331.348 368.604 330.879 369.477 330.421 370.358L317.644 372.442C316.378 372.649 315.309 373.496 314.818 374.681C314.327 375.866 314.483 377.22 315.232 378.262L322.769 388.748C322.465 389.702 322.173 390.661 321.894 391.625L309.826 396.147C308.626 396.596 307.743 397.635 307.492 398.893C307.242 400.15 307.659 401.448 308.596 402.323L318.016 411.129C317.905 412.126 317.807 413.126 317.722 414.13L306.755 420.922C305.664 421.597 305 422.789 305 424.072C305 425.355 305.664 426.547 306.755 427.223L317.722 434.014C317.807 435.018 317.905 436.019 318.016 437.015L308.596 445.821C307.659 446.697 307.242 447.994 307.492 449.252C307.743 450.509 308.626 451.548 309.826 451.998L321.895 456.52C322.174 457.484 322.466 458.442 322.77 459.396L315.232 469.882C314.483 470.924 314.327 472.279 314.818 473.464C315.309 474.649 316.378 475.496 317.644 475.702L330.422 477.787C330.88 478.667 331.349 479.54 331.829 480.406L326.455 492.197C325.922 493.366 326.032 494.726 326.746 495.794C327.459 496.861 328.674 497.483 329.957 497.437L342.944 496.977C343.55 497.733 344.165 498.481 344.79 499.222L341.807 511.881C341.513 513.13 341.886 514.443 342.794 515.351C343.701 516.258 345.014 516.632 346.264 516.337L358.923 513.355C359.663 513.979 360.411 514.594 361.167 515.2L360.707 528.187C360.662 529.47 361.284 530.685 362.351 531.399C363.418 532.112 364.779 532.222 365.947 531.69L377.739 526.316C378.605 526.795 379.478 527.264 380.357 527.722L382.442 540.5C382.649 541.767 383.496 542.836 384.681 543.327C385.866 543.818 387.22 543.661 388.262 542.913L398.749 535.374C399.703 535.678 400.661 535.969 401.625 536.249L406.147 548.318C406.596 549.519 407.635 550.402 408.893 550.652C410.15 550.903 411.448 550.485 412.323 549.549L421.13 540.128C422.126 540.238 423.126 540.336 424.13 540.421L430.922 551.39C431.597 552.481 432.789 553.145 434.072 553.145ZM434.401 317.673C434.349 317.673 434.297 317.674 434.245 317.676C432.249 317.728 430.351 318.56 428.958 319.995C427.564 321.43 426.784 323.355 426.785 325.359C426.785 327.396 427.594 329.35 429.035 330.791C430.46 332.216 432.387 333.023 434.401 333.041C436.414 333.023 438.341 332.216 439.766 330.791C441.207 329.35 442.017 327.396 442.017 325.359C442.017 323.355 441.238 321.43 439.844 319.995C438.45 318.56 436.553 317.728 434.556 317.676C434.504 317.674 434.453 317.673 434.401 317.673ZM434.379 344.886C432.761 344.808 431.162 344.167 429.898 342.947L416.657 330.324C415.955 330.455 415.255 330.595 414.557 330.742L414.546 330.73C388.16 335.996 364.541 353.225 351.114 375.534L354.055 381.202L361.001 396.873C362.558 400.406 360.952 404.556 357.444 406.137L340.004 413.869C339.952 414.39 339.905 414.911 339.862 415.433L339.593 415.553C339.395 418.041 339.295 420.556 339.295 423.094C339.295 448.314 349.207 471.219 365.348 488.125L365.356 488.123C365.793 488.581 366.236 489.035 366.683 489.484L382.913 486.001C386.692 485.186 390.422 487.607 391.238 491.386L395.091 509.37C407.433 514.961 420.832 517.833 434.379 517.793V517.793C434.387 517.793 434.394 517.793 434.401 517.793C434.408 517.793 434.415 517.793 434.422 517.793V517.793C447.97 517.833 461.369 514.961 473.71 509.37L477.564 491.386C478.379 487.607 482.109 485.186 485.889 486.001L502.119 489.484C502.566 489.035 503.008 488.581 503.446 488.123L503.453 488.125C519.594 471.219 529.507 448.314 529.507 423.094C529.507 420.556 529.406 418.041 529.209 415.553L528.94 415.433C528.897 414.911 528.849 414.39 528.798 413.869L511.357 406.137C507.85 404.556 506.244 400.406 507.8 396.873L514.746 381.202L517.687 375.534C504.261 353.225 480.642 335.996 454.256 330.73L454.244 330.742C453.546 330.595 452.847 330.455 452.145 330.324L438.904 342.947C437.64 344.167 436.041 344.808 434.422 344.886V344.888C434.415 344.888 434.408 344.888 434.401 344.887C434.394 344.888 434.387 344.888 434.379 344.888V344.886ZM337.383 389.863C338.776 388.428 340.673 387.593 342.672 387.536C343.699 387.506 344.722 387.683 345.68 388.055C346.638 388.428 347.511 388.989 348.249 389.706C348.986 390.422 349.572 391.279 349.971 392.226C350.371 393.173 350.577 394.19 350.577 395.218C350.577 397.256 349.767 399.21 348.327 400.651C346.886 402.091 344.932 402.901 342.894 402.901C340.857 402.901 338.903 402.091 337.462 400.651C336.021 399.21 335.212 397.256 335.212 395.218C335.211 393.218 335.99 391.297 337.383 389.863ZM372.09 498.036C373.483 496.602 375.381 495.767 377.379 495.709C378.407 495.679 379.43 495.856 380.388 496.229C381.346 496.602 382.219 497.163 382.956 497.879C383.693 498.596 384.279 499.453 384.679 500.399C385.079 501.346 385.285 502.364 385.284 503.392C385.284 505.429 384.475 507.383 383.034 508.824C381.593 510.265 379.639 511.074 377.602 511.074C375.564 511.074 373.61 510.265 372.169 508.824C370.728 507.383 369.919 505.429 369.919 503.392C369.918 501.392 370.697 499.471 372.09 498.036ZM531.419 389.863C530.026 388.428 528.128 387.593 526.13 387.536C525.102 387.506 524.079 387.683 523.121 388.055C522.163 388.428 521.29 388.989 520.553 389.706C519.816 390.422 519.23 391.279 518.83 392.226C518.43 393.173 518.224 394.19 518.225 395.218C518.225 397.256 519.034 399.21 520.475 400.651C521.916 402.091 523.87 402.901 525.907 402.901C527.945 402.901 529.899 402.091 531.34 400.651C532.781 399.21 533.59 397.256 533.59 395.218C533.591 393.218 532.812 391.297 531.419 389.863ZM496.712 498.036C495.318 496.602 493.421 495.767 491.422 495.709C490.395 495.679 489.372 495.856 488.414 496.229C487.456 496.602 486.583 497.163 485.846 497.879C485.108 498.596 484.523 499.453 484.123 500.399C483.723 501.346 483.517 502.364 483.517 503.392C483.517 505.429 484.327 507.383 485.768 508.824C487.208 510.265 489.162 511.074 491.2 511.074C493.237 511.074 495.192 510.265 496.632 508.824C498.073 507.383 498.882 505.429 498.882 503.392C498.883 501.392 498.105 499.471 496.712 498.036Z"/>
</mask>
<path fill-rule="evenodd" clip-rule="evenodd" d="M434.072 553.145C434.183 553.145 434.292 553.14 434.401 553.13C434.509 553.14 434.619 553.145 434.729 553.145C436.012 553.145 437.204 552.481 437.88 551.39L444.672 540.421C445.676 540.336 446.675 540.238 447.672 540.128L456.478 549.549C457.354 550.485 458.651 550.903 459.909 550.652C461.166 550.402 462.205 549.519 462.655 548.318L467.177 536.249C468.141 535.969 469.099 535.678 470.052 535.374L480.539 542.913C481.581 543.661 482.936 543.818 484.121 543.327C485.306 542.836 486.153 541.767 486.359 540.5L488.444 527.722C489.324 527.264 490.197 526.795 491.063 526.316L502.855 531.69C504.023 532.222 505.383 532.112 506.451 531.399C507.518 530.685 508.14 529.47 508.094 528.187L507.635 515.2C508.39 514.594 509.138 513.979 509.879 513.355L522.538 516.337C523.787 516.632 525.1 516.258 526.008 515.351C526.916 514.443 527.289 513.13 526.994 511.881L524.012 499.222C524.636 498.481 525.252 497.733 525.858 496.977L538.844 497.437C540.127 497.483 541.342 496.861 542.056 495.794C542.769 494.726 542.879 493.366 542.347 492.197L536.973 480.406C537.453 479.54 537.922 478.667 538.38 477.787L551.158 475.702C552.424 475.496 553.493 474.649 553.984 473.464C554.475 472.279 554.318 470.924 553.57 469.882L546.032 459.396C546.336 458.442 546.627 457.484 546.907 456.52L558.975 451.998C560.176 451.548 561.059 450.509 561.309 449.252C561.56 447.994 561.142 446.697 560.206 445.821L550.786 437.015C550.896 436.019 550.994 435.018 551.079 434.014L562.047 427.223C563.138 426.547 563.802 425.355 563.802 424.072C563.802 422.789 563.138 421.597 562.047 420.922L551.08 414.13C550.994 413.126 550.896 412.126 550.786 411.129L560.206 402.323C561.142 401.448 561.56 400.15 561.309 398.893C561.059 397.635 560.176 396.596 558.975 396.147L546.908 391.625C546.628 390.661 546.336 389.702 546.033 388.748L553.57 378.262C554.318 377.22 554.475 375.866 553.984 374.681C553.493 373.496 552.424 372.649 551.158 372.442L538.381 370.358C537.923 369.477 537.454 368.604 536.974 367.737L542.347 355.947C542.879 354.779 542.769 353.418 542.056 352.351C541.342 351.284 540.127 350.662 538.844 350.707L525.86 351.167C525.253 350.41 524.637 349.662 524.013 348.921L526.994 336.264C527.289 335.014 526.916 333.701 526.008 332.794C525.1 331.886 523.787 331.513 522.538 331.807L509.881 334.789C509.14 334.164 508.391 333.548 507.635 332.942L508.094 319.957C508.14 318.674 507.518 317.459 506.451 316.746C505.383 316.032 504.023 315.922 502.855 316.455L491.065 321.828C490.198 321.348 489.324 320.878 488.444 320.42L486.359 307.644C486.153 306.378 485.306 305.309 484.121 304.818C482.936 304.326 481.581 304.483 480.539 305.232L470.055 312.768C469.1 312.464 468.141 312.173 467.176 311.893L462.655 299.826C462.205 298.626 461.166 297.743 459.909 297.492C458.651 297.242 457.354 297.659 456.478 298.596L447.674 308.015C446.676 307.904 445.675 307.806 444.67 307.721L437.88 296.755C437.204 295.664 436.012 295 434.729 295C434.619 295 434.509 295.005 434.401 295.015C434.292 295.005 434.183 295 434.072 295C432.789 295 431.597 295.664 430.922 296.755L424.131 307.721C423.126 307.806 422.125 307.904 421.128 308.015L412.323 298.596C411.448 297.659 410.15 297.242 408.893 297.492C407.635 297.743 406.596 298.626 406.147 299.826L401.626 311.893C400.661 312.173 399.701 312.464 398.747 312.768L388.262 305.232C387.22 304.483 385.866 304.326 384.681 304.818C383.496 305.309 382.649 306.378 382.442 307.644L380.358 320.42C379.477 320.878 378.603 321.348 377.736 321.828L365.947 316.455C364.779 315.922 363.418 316.032 362.351 316.746C361.284 317.459 360.662 318.674 360.707 319.957L361.167 332.942C360.41 333.548 359.662 334.164 358.921 334.789L346.264 331.807C345.014 331.513 343.701 331.886 342.794 332.794C341.886 333.701 341.513 335.014 341.807 336.264L344.789 348.921C344.164 349.662 343.549 350.41 342.942 351.167L329.957 350.707C328.674 350.662 327.459 351.284 326.746 352.351C326.032 353.418 325.922 354.779 326.455 355.947L331.828 367.737C331.348 368.604 330.879 369.477 330.421 370.358L317.644 372.442C316.378 372.649 315.309 373.496 314.818 374.681C314.327 375.866 314.483 377.22 315.232 378.262L322.769 388.748C322.465 389.702 322.173 390.661 321.894 391.625L309.826 396.147C308.626 396.596 307.743 397.635 307.492 398.893C307.242 400.15 307.659 401.448 308.596 402.323L318.016 411.129C317.905 412.126 317.807 413.126 317.722 414.13L306.755 420.922C305.664 421.597 305 422.789 305 424.072C305 425.355 305.664 426.547 306.755 427.223L317.722 434.014C317.807 435.018 317.905 436.019 318.016 437.015L308.596 445.821C307.659 446.697 307.242 447.994 307.492 449.252C307.743 450.509 308.626 451.548 309.826 451.998L321.895 456.52C322.174 457.484 322.466 458.442 322.77 459.396L315.232 469.882C314.483 470.924 314.327 472.279 314.818 473.464C315.309 474.649 316.378 475.496 317.644 475.702L330.422 477.787C330.88 478.667 331.349 479.54 331.829 480.406L326.455 492.197C325.922 493.366 326.032 494.726 326.746 495.794C327.459 496.861 328.674 497.483 329.957 497.437L342.944 496.977C343.55 497.733 344.165 498.481 344.79 499.222L341.807 511.881C341.513 513.13 341.886 514.443 342.794 515.351C343.701 516.258 345.014 516.632 346.264 516.337L358.923 513.355C359.663 513.979 360.411 514.594 361.167 515.2L360.707 528.187C360.662 529.47 361.284 530.685 362.351 531.399C363.418 532.112 364.779 532.222 365.947 531.69L377.739 526.316C378.605 526.795 379.478 527.264 380.357 527.722L382.442 540.5C382.649 541.767 383.496 542.836 384.681 543.327C385.866 543.818 387.22 543.661 388.262 542.913L398.749 535.374C399.703 535.678 400.661 535.969 401.625 536.249L406.147 548.318C406.596 549.519 407.635 550.402 408.893 550.652C410.15 550.903 411.448 550.485 412.323 549.549L421.13 540.128C422.126 540.238 423.126 540.336 424.13 540.421L430.922 551.39C431.597 552.481 432.789 553.145 434.072 553.145ZM434.401 317.673C434.349 317.673 434.297 317.674 434.245 317.676C432.249 317.728 430.351 318.56 428.958 319.995C427.564 321.43 426.784 323.355 426.785 325.359C426.785 327.396 427.594 329.35 429.035 330.791C430.46 332.216 432.387 333.023 434.401 333.041C436.414 333.023 438.341 332.216 439.766 330.791C441.207 329.35 442.017 327.396 442.017 325.359C442.017 323.355 441.238 321.43 439.844 319.995C438.45 318.56 436.553 317.728 434.556 317.676C434.504 317.674 434.453 317.673 434.401 317.673ZM434.379 344.886C432.761 344.808 431.162 344.167 429.898 342.947L416.657 330.324C415.955 330.455 415.255 330.595 414.557 330.742L414.546 330.73C388.16 335.996 364.541 353.225 351.114 375.534L354.055 381.202L361.001 396.873C362.558 400.406 360.952 404.556 357.444 406.137L340.004 413.869C339.952 414.39 339.905 414.911 339.862 415.433L339.593 415.553C339.395 418.041 339.295 420.556 339.295 423.094C339.295 448.314 349.207 471.219 365.348 488.125L365.356 488.123C365.793 488.581 366.236 489.035 366.683 489.484L382.913 486.001C386.692 485.186 390.422 487.607 391.238 491.386L395.091 509.37C407.433 514.961 420.832 517.833 434.379 517.793V517.793C434.387 517.793 434.394 517.793 434.401 517.793C434.408 517.793 434.415 517.793 434.422 517.793V517.793C447.97 517.833 461.369 514.961 473.71 509.37L477.564 491.386C478.379 487.607 482.109 485.186 485.889 486.001L502.119 489.484C502.566 489.035 503.008 488.581 503.446 488.123L503.453 488.125C519.594 471.219 529.507 448.314 529.507 423.094C529.507 420.556 529.406 418.041 529.209 415.553L528.94 415.433C528.897 414.911 528.849 414.39 528.798 413.869L511.357 406.137C507.85 404.556 506.244 400.406 507.8 396.873L514.746 381.202L517.687 375.534C504.261 353.225 480.642 335.996 454.256 330.73L454.244 330.742C453.546 330.595 452.847 330.455 452.145 330.324L438.904 342.947C437.64 344.167 436.041 344.808 434.422 344.886V344.888C434.415 344.888 434.408 344.888 434.401 344.887C434.394 344.888 434.387 344.888 434.379 344.888V344.886ZM337.383 389.863C338.776 388.428 340.673 387.593 342.672 387.536C343.699 387.506 344.722 387.683 345.68 388.055C346.638 388.428 347.511 388.989 348.249 389.706C348.986 390.422 349.572 391.279 349.971 392.226C350.371 393.173 350.577 394.19 350.577 395.218C350.577 397.256 349.767 399.21 348.327 400.651C346.886 402.091 344.932 402.901 342.894 402.901C340.857 402.901 338.903 402.091 337.462 400.651C336.021 399.21 335.212 397.256 335.212 395.218C335.211 393.218 335.99 391.297 337.383 389.863ZM372.09 498.036C373.483 496.602 375.381 495.767 377.379 495.709C378.407 495.679 379.43 495.856 380.388 496.229C381.346 496.602 382.219 497.163 382.956 497.879C383.693 498.596 384.279 499.453 384.679 500.399C385.079 501.346 385.285 502.364 385.284 503.392C385.284 505.429 384.475 507.383 383.034 508.824C381.593 510.265 379.639 511.074 377.602 511.074C375.564 511.074 373.61 510.265 372.169 508.824C370.728 507.383 369.919 505.429 369.919 503.392C369.918 501.392 370.697 499.471 372.09 498.036ZM531.419 389.863C530.026 388.428 528.128 387.593 526.13 387.536C525.102 387.506 524.079 387.683 523.121 388.055C522.163 388.428 521.29 388.989 520.553 389.706C519.816 390.422 519.23 391.279 518.83 392.226C518.43 393.173 518.224 394.19 518.225 395.218C518.225 397.256 519.034 399.21 520.475 400.651C521.916 402.091 523.87 402.901 525.907 402.901C527.945 402.901 529.899 402.091 531.34 400.651C532.781 399.21 533.59 397.256 533.59 395.218C533.591 393.218 532.812 391.297 531.419 389.863ZM496.712 498.036C495.318 496.602 493.421 495.767 491.422 495.709C490.395 495.679 489.372 495.856 488.414 496.229C487.456 496.602 486.583 497.163 485.846 497.879C485.108 498.596 484.523 499.453 484.123 500.399C483.723 501.346 483.517 502.364 483.517 503.392C483.517 505.429 484.327 507.383 485.768 508.824C487.208 510.265 489.162 511.074 491.2 511.074C493.237 511.074 495.192 510.265 496.632 508.824C498.073 507.383 498.882 505.429 498.882 503.392C498.883 501.392 498.105 499.471 496.712 498.036Z" fill="#19192C"/>
<path fill-rule="evenodd" clip-rule="evenodd" d="M434.072 553.145C434.183 553.145 434.292 553.14 434.401 553.13C434.509 553.14 434.619 553.145 434.729 553.145C436.012 553.145 437.204 552.481 437.88 551.39L444.672 540.421C445.676 540.336 446.675 540.238 447.672 540.128L456.478 549.549C457.354 550.485 458.651 550.903 459.909 550.652C461.166 550.402 462.205 549.519 462.655 548.318L467.177 536.249C468.141 535.969 469.099 535.678 470.052 535.374L480.539 542.913C481.581 543.661 482.936 543.818 484.121 543.327C485.306 542.836 486.153 541.767 486.359 540.5L488.444 527.722C489.324 527.264 490.197 526.795 491.063 526.316L502.855 531.69C504.023 532.222 505.383 532.112 506.451 531.399C507.518 530.685 508.14 529.47 508.094 528.187L507.635 515.2C508.39 514.594 509.138 513.979 509.879 513.355L522.538 516.337C523.787 516.632 525.1 516.258 526.008 515.351C526.916 514.443 527.289 513.13 526.994 511.881L524.012 499.222C524.636 498.481 525.252 497.733 525.858 496.977L538.844 497.437C540.127 497.483 541.342 496.861 542.056 495.794C542.769 494.726 542.879 493.366 542.347 492.197L536.973 480.406C537.453 479.54 537.922 478.667 538.38 477.787L551.158 475.702C552.424 475.496 553.493 474.649 553.984 473.464C554.475 472.279 554.318 470.924 553.57 469.882L546.032 459.396C546.336 458.442 546.627 457.484 546.907 456.52L558.975 451.998C560.176 451.548 561.059 450.509 561.309 449.252C561.56 447.994 561.142 446.697 560.206 445.821L550.786 437.015C550.896 436.019 550.994 435.018 551.079 434.014L562.047 427.223C563.138 426.547 563.802 425.355 563.802 424.072C563.802 422.789 563.138 421.597 562.047 420.922L551.08 414.13C550.994 413.126 550.896 412.126 550.786 411.129L560.206 402.323C561.142 401.448 561.56 400.15 561.309 398.893C561.059 397.635 560.176 396.596 558.975 396.147L546.908 391.625C546.628 390.661 546.336 389.702 546.033 388.748L553.57 378.262C554.318 377.22 554.475 375.866 553.984 374.681C553.493 373.496 552.424 372.649 551.158 372.442L538.381 370.358C537.923 369.477 537.454 368.604 536.974 367.737L542.347 355.947C542.879 354.779 542.769 353.418 542.056 352.351C541.342 351.284 540.127 350.662 538.844 350.707L525.86 351.167C525.253 350.41 524.637 349.662 524.013 348.921L526.994 336.264C527.289 335.014 526.916 333.701 526.008 332.794C525.1 331.886 523.787 331.513 522.538 331.807L509.881 334.789C509.14 334.164 508.391 333.548 507.635 332.942L508.094 319.957C508.14 318.674 507.518 317.459 506.451 316.746C505.383 316.032 504.023 315.922 502.855 316.455L491.065 321.828C490.198 321.348 489.324 320.878 488.444 320.42L486.359 307.644C486.153 306.378 485.306 305.309 484.121 304.818C482.936 304.326 481.581 304.483 480.539 305.232L470.055 312.768C469.1 312.464 468.141 312.173 467.176 311.893L462.655 299.826C462.205 298.626 461.166 297.743 459.909 297.492C458.651 297.242 457.354 297.659 456.478 298.596L447.674 308.015C446.676 307.904 445.675 307.806 444.67 307.721L437.88 296.755C437.204 295.664 436.012 295 434.729 295C434.619 295 434.509 295.005 434.401 295.015C434.292 295.005 434.183 295 434.072 295C432.789 295 431.597 295.664 430.922 296.755L424.131 307.721C423.126 307.806 422.125 307.904 421.128 308.015L412.323 298.596C411.448 297.659 410.15 297.242 408.893 297.492C407.635 297.743 406.596 298.626 406.147 299.826L401.626 311.893C400.661 312.173 399.701 312.464 398.747 312.768L388.262 305.232C387.22 304.483 385.866 304.326 384.681 304.818C383.496 305.309 382.649 306.378 382.442 307.644L380.358 320.42C379.477 320.878 378.603 321.348 377.736 321.828L365.947 316.455C364.779 315.922 363.418 316.032 362.351 316.746C361.284 317.459 360.662 318.674 360.707 319.957L361.167 332.942C360.41 333.548 359.662 334.164 358.921 334.789L346.264 331.807C345.014 331.513 343.701 331.886 342.794 332.794C341.886 333.701 341.513 335.014 341.807 336.264L344.789 348.921C344.164 349.662 343.549 350.41 342.942 351.167L329.957 350.707C328.674 350.662 327.459 351.284 326.746 352.351C326.032 353.418 325.922 354.779 326.455 355.947L331.828 367.737C331.348 368.604 330.879 369.477 330.421 370.358L317.644 372.442C316.378 372.649 315.309 373.496 314.818 374.681C314.327 375.866 314.483 377.22 315.232 378.262L322.769 388.748C322.465 389.702 322.173 390.661 321.894 391.625L309.826 396.147C308.626 396.596 307.743 397.635 307.492 398.893C307.242 400.15 307.659 401.448 308.596 402.323L318.016 411.129C317.905 412.126 317.807 413.126 317.722 414.13L306.755 420.922C305.664 421.597 305 422.789 305 424.072C305 425.355 305.664 426.547 306.755 427.223L317.722 434.014C317.807 435.018 317.905 436.019 318.016 437.015L308.596 445.821C307.659 446.697 307.242 447.994 307.492 449.252C307.743 450.509 308.626 451.548 309.826 451.998L321.895 456.52C322.174 457.484 322.466 458.442 322.77 459.396L315.232 469.882C314.483 470.924 314.327 472.279 314.818 473.464C315.309 474.649 316.378 475.496 317.644 475.702L330.422 477.787C330.88 478.667 331.349 479.54 331.829 480.406L326.455 492.197C325.922 493.366 326.032 494.726 326.746 495.794C327.459 496.861 328.674 497.483 329.957 497.437L342.944 496.977C343.55 497.733 344.165 498.481 344.79 499.222L341.807 511.881C341.513 513.13 341.886 514.443 342.794 515.351C343.701 516.258 345.014 516.632 346.264 516.337L358.923 513.355C359.663 513.979 360.411 514.594 361.167 515.2L360.707 528.187C360.662 529.47 361.284 530.685 362.351 531.399C363.418 532.112 364.779 532.222 365.947 531.69L377.739 526.316C378.605 526.795 379.478 527.264 380.357 527.722L382.442 540.5C382.649 541.767 383.496 542.836 384.681 543.327C385.866 543.818 387.22 543.661 388.262 542.913L398.749 535.374C399.703 535.678 400.661 535.969 401.625 536.249L406.147 548.318C406.596 549.519 407.635 550.402 408.893 550.652C410.15 550.903 411.448 550.485 412.323 549.549L421.13 540.128C422.126 540.238 423.126 540.336 424.13 540.421L430.922 551.39C431.597 552.481 432.789 553.145 434.072 553.145ZM434.401 317.673C434.349 317.673 434.297 317.674 434.245 317.676C432.249 317.728 430.351 318.56 428.958 319.995C427.564 321.43 426.784 323.355 426.785 325.359C426.785 327.396 427.594 329.35 429.035 330.791C430.46 332.216 432.387 333.023 434.401 333.041C436.414 333.023 438.341 332.216 439.766 330.791C441.207 329.35 442.017 327.396 442.017 325.359C442.017 323.355 441.238 321.43 439.844 319.995C438.45 318.56 436.553 317.728 434.556 317.676C434.504 317.674 434.453 317.673 434.401 317.673ZM434.379 344.886C432.761 344.808 431.162 344.167 429.898 342.947L416.657 330.324C415.955 330.455 415.255 330.595 414.557 330.742L414.546 330.73C388.16 335.996 364.541 353.225 351.114 375.534L354.055 381.202L361.001 396.873C362.558 400.406 360.952 404.556 357.444 406.137L340.004 413.869C339.952 414.39 339.905 414.911 339.862 415.433L339.593 415.553C339.395 418.041 339.295 420.556 339.295 423.094C339.295 448.314 349.207 471.219 365.348 488.125L365.356 488.123C365.793 488.581 366.236 489.035 366.683 489.484L382.913 486.001C386.692 485.186 390.422 487.607 391.238 491.386L395.091 509.37C407.433 514.961 420.832 517.833 434.379 517.793V517.793C434.387 517.793 434.394 517.793 434.401 517.793C434.408 517.793 434.415 517.793 434.422 517.793V517.793C447.97 517.833 461.369 514.961 473.71 509.37L477.564 491.386C478.379 487.607 482.109 485.186 485.889 486.001L502.119 489.484C502.566 489.035 503.008 488.581 503.446 488.123L503.453 488.125C519.594 471.219 529.507 448.314 529.507 423.094C529.507 420.556 529.406 418.041 529.209 415.553L528.94 415.433C528.897 414.911 528.849 414.39 528.798 413.869L511.357 406.137C507.85 404.556 506.244 400.406 507.8 396.873L514.746 381.202L517.687 375.534C504.261 353.225 480.642 335.996 454.256 330.73L454.244 330.742C453.546 330.595 452.847 330.455 452.145 330.324L438.904 342.947C437.64 344.167 436.041 344.808 434.422 344.886V344.888C434.415 344.888 434.408 344.888 434.401 344.887C434.394 344.888 434.387 344.888 434.379 344.888V344.886ZM337.383 389.863C338.776 388.428 340.673 387.593 342.672 387.536C343.699 387.506 344.722 387.683 345.68 388.055C346.638 388.428 347.511 388.989 348.249 389.706C348.986 390.422 349.572 391.279 349.971 392.226C350.371 393.173 350.577 394.19 350.577 395.218C350.577 397.256 349.767 399.21 348.327 400.651C346.886 402.091 344.932 402.901 342.894 402.901C340.857 402.901 338.903 402.091 337.462 400.651C336.021 399.21 335.212 397.256 335.212 395.218C335.211 393.218 335.99 391.297 337.383 389.863ZM372.09 498.036C373.483 496.602 375.381 495.767 377.379 495.709C378.407 495.679 379.43 495.856 380.388 496.229C381.346 496.602 382.219 497.163 382.956 497.879C383.693 498.596 384.279 499.453 384.679 500.399C385.079 501.346 385.285 502.364 385.284 503.392C385.284 505.429 384.475 507.383 383.034 508.824C381.593 510.265 379.639 511.074 377.602 511.074C375.564 511.074 373.61 510.265 372.169 508.824C370.728 507.383 369.919 505.429 369.919 503.392C369.918 501.392 370.697 499.471 372.09 498.036ZM531.419 389.863C530.026 388.428 528.128 387.593 526.13 387.536C525.102 387.506 524.079 387.683 523.121 388.055C522.163 388.428 521.29 388.989 520.553 389.706C519.816 390.422 519.23 391.279 518.83 392.226C518.43 393.173 518.224 394.19 518.225 395.218C518.225 397.256 519.034 399.21 520.475 400.651C521.916 402.091 523.87 402.901 525.907 402.901C527.945 402.901 529.899 402.091 531.34 400.651C532.781 399.21 533.59 397.256 533.59 395.218C533.591 393.218 532.812 391.297 531.419 389.863ZM496.712 498.036C495.318 496.602 493.421 495.767 491.422 495.709C490.395 495.679 489.372 495.856 488.414 496.229C487.456 496.602 486.583 497.163 485.846 497.879C485.108 498.596 484.523 499.453 484.123 500.399C483.723 501.346 483.517 502.364 483.517 503.392C483.517 505.429 484.327 507.383 485.768 508.824C487.208 510.265 489.162 511.074 491.2 511.074C493.237 511.074 495.192 510.265 496.632 508.824C498.073 507.383 498.882 505.429 498.882 503.392C498.883 501.392 498.105 499.471 496.712 498.036Z" stroke="#EA7308" stroke-width="4" stroke-linecap="round" stroke-linejoin="round" mask="url(#path-2-outside-2_2490_39437)"/>
</g>
<g filter="url(#filter2_dd_2490_39437)">
<mask id="path-3-outside-3_2490_39437" maskUnits="userSpaceOnUse" x="-17.7321" y="37.2679" width="454.886" height="454.886" fill="black">
<rect fill="white" x="-17.7321" y="37.2679" width="454.886" height="454.886"/>
<path fill-rule="evenodd" clip-rule="evenodd" d="M132.056 122.179C130.616 121.406 128.877 121.432 127.461 122.25C126.045 123.068 125.153 124.56 125.102 126.194L124.595 142.625C123.54 143.359 122.497 144.105 121.467 144.863L105.748 140.078C104.184 139.602 102.486 139.968 101.258 141.046C100.029 142.124 99.4456 143.76 99.7142 145.372L102.413 161.567C101.525 162.492 100.651 163.427 99.7897 164.372L83.4192 162.735C81.7924 162.573 80.1972 163.263 79.2023 164.56C78.2073 165.858 77.954 167.577 78.5328 169.106L84.3704 184.528C83.6888 185.598 83.0215 186.676 82.3684 187.761L65.9409 189.342C64.3122 189.499 62.8808 190.488 62.1574 191.955C61.4341 193.423 61.522 195.16 62.3897 196.548L71.1657 210.577C70.7157 211.732 70.2801 212.893 69.859 214.059L53.9988 218.83C52.4322 219.302 51.2212 220.55 50.7978 222.13C50.3743 223.711 50.7989 225.397 51.92 226.589L63.2701 238.652C63.0519 239.871 62.8489 241.094 62.661 242.32L48.0452 250.082C46.6002 250.849 45.6553 252.31 45.5479 253.943C45.4405 255.575 46.1859 257.147 47.518 258.097L60.9557 267.682C60.9786 268.947 61.0177 270.214 61.0731 271.48L48.3049 281.918C47.0392 282.953 46.3987 284.569 46.6117 286.19C46.8248 287.811 47.8611 289.206 49.3512 289.879L64.3489 296.648C64.6219 297.896 64.9115 299.141 65.2177 300.385L54.7815 313.063C53.7429 314.325 53.4304 316.034 53.9553 317.581C54.4802 319.129 55.7679 320.295 57.3597 320.665L73.3671 324.381C73.8804 325.552 74.41 326.719 74.956 327.881L67.1791 342.366C66.4056 343.807 66.4324 345.545 67.25 346.961C68.0676 348.377 69.5596 349.27 71.1941 349.32L87.6272 349.827C88.361 350.881 89.1068 351.923 89.864 352.953L85.0782 368.675C84.6023 370.238 84.9685 371.936 86.0463 373.165C87.1241 374.393 88.7603 374.977 90.3722 374.708L106.574 372.008C107.497 372.894 108.43 373.767 109.372 374.626L107.735 391.003C107.573 392.63 108.263 394.225 109.56 395.22C110.858 396.215 112.577 396.468 114.106 395.89L129.538 390.048C130.604 390.727 131.678 391.392 132.76 392.043L134.342 408.481C134.499 410.11 135.488 411.542 136.955 412.265C138.423 412.988 140.16 412.9 141.547 412.033L155.588 403.25C156.739 403.698 157.894 404.131 159.055 404.551L163.83 420.424C164.302 421.99 165.55 423.201 167.13 423.625C168.711 424.048 170.397 423.623 171.589 422.502L183.661 411.144C184.876 411.361 186.093 411.563 187.314 411.75L195.082 426.377C195.849 427.822 197.31 428.767 198.943 428.874C200.575 428.982 202.147 428.236 203.097 426.904L212.688 413.459C213.949 413.436 215.212 413.397 216.474 413.342L226.918 426.117C227.953 427.383 229.569 428.024 231.19 427.811C232.811 427.598 234.206 426.561 234.879 425.071L241.65 410.068C242.896 409.796 244.14 409.507 245.381 409.201L258.063 419.641C259.325 420.679 261.034 420.992 262.581 420.467C264.129 419.942 265.295 418.655 265.665 417.063L269.381 401.053C270.551 400.54 271.717 400.011 272.879 399.465L287.366 407.243C288.807 408.017 290.545 407.99 291.961 407.172C293.377 406.355 294.27 404.863 294.32 403.228L294.827 386.793C295.881 386.06 296.922 385.315 297.951 384.558L313.675 389.344C315.238 389.82 316.936 389.454 318.165 388.376C319.393 387.298 319.977 385.662 319.708 384.05L317.008 367.847C317.894 366.925 318.766 365.992 319.624 365.05L336.003 366.687C337.63 366.85 339.225 366.159 340.22 364.862C341.215 363.565 341.468 361.845 340.89 360.316L335.048 344.883C335.727 343.817 336.391 342.744 337.042 341.663L353.481 340.08C355.11 339.923 356.542 338.935 357.265 337.467C357.988 335.999 357.9 334.262 357.033 332.875L348.249 318.834C348.697 317.684 349.131 316.528 349.55 315.367L365.423 310.592C366.99 310.121 368.201 308.872 368.625 307.292C369.048 305.712 368.623 304.025 367.502 302.833L356.144 290.762C356.361 289.547 356.563 288.329 356.751 287.108L371.377 279.34C372.822 278.573 373.767 277.112 373.874 275.48C373.982 273.847 373.236 272.275 371.904 271.325L358.459 261.735C358.436 260.473 358.398 259.211 358.343 257.948L371.117 247.504C372.383 246.469 373.024 244.853 372.811 243.232C372.598 241.612 371.561 240.216 370.071 239.544L355.069 232.773C354.797 231.527 354.508 230.282 354.202 229.04L364.641 216.359C365.679 215.097 365.992 213.388 365.467 211.841C364.942 210.293 363.655 209.127 362.063 208.758L346.054 205.041C345.541 203.871 345.012 202.704 344.466 201.542L352.243 187.056C353.017 185.616 352.99 183.877 352.172 182.461C351.355 181.045 349.863 180.153 348.228 180.102L331.795 179.595C331.061 178.541 330.316 177.499 329.558 176.469L334.344 160.748C334.82 159.184 334.454 157.486 333.376 156.258C332.298 155.029 330.662 154.446 329.05 154.714L312.85 157.414C311.926 156.528 310.993 155.655 310.05 154.796L311.687 138.419C311.85 136.792 311.159 135.197 309.862 134.202C308.565 133.207 306.845 132.954 305.316 133.533L289.886 139.374C288.819 138.694 287.744 138.029 286.662 137.378L285.08 120.941C284.923 119.312 283.935 117.881 282.467 117.157C280.999 116.434 279.262 116.522 277.875 117.39L263.836 126.171C262.685 125.723 261.528 125.289 260.366 124.869L255.592 108.999C255.121 107.432 253.872 106.221 252.292 105.798C250.712 105.374 249.025 105.799 247.833 106.92L235.764 118.277C234.548 118.059 233.329 117.857 232.107 117.669L224.34 103.045C223.573 101.6 222.112 100.655 220.48 100.548C218.847 100.441 217.275 101.186 216.325 102.518L206.737 115.961C205.474 115.984 204.21 116.023 202.946 116.078L192.504 103.305C191.469 102.039 189.853 101.399 188.232 101.612C186.612 101.825 185.216 102.861 184.544 104.351L177.774 119.351C176.527 119.624 175.281 119.913 174.038 120.219L161.359 109.782C160.097 108.743 158.388 108.43 156.841 108.955C155.293 109.48 154.127 110.768 153.758 112.36L150.042 128.366C148.87 128.879 147.703 129.409 146.54 129.955L132.056 122.179ZM141.72 147.388C143.957 146.173 146.581 145.883 149.034 146.579C151.487 147.275 153.574 148.902 154.85 151.114C156.148 153.363 156.5 156.035 155.828 158.544C155.156 161.052 153.515 163.191 151.266 164.489C149.017 165.787 146.345 166.139 143.836 165.467C141.328 164.795 139.189 163.154 137.891 160.905C137.236 159.771 136.814 158.517 136.652 157.217C136.49 155.917 136.591 154.598 136.948 153.337C137.305 152.077 137.911 150.901 138.731 149.879C139.551 148.857 140.567 148.01 141.72 147.388ZM169.193 150.14C185.688 144.334 203.25 142.188 220.659 143.852C238.067 145.516 254.905 150.949 270.002 159.774L273.03 188.127C273.563 193.018 277.98 196.575 282.859 196.085L307.035 193.505C311.106 199.177 314.677 205.193 317.706 211.483L306.991 217.67C305.927 218.284 305.9 219.245 306.498 220.281L309.332 225.188C316.006 236.749 310.954 243.047 305.59 246.98C300.499 250.755 292.789 251.317 290.105 248.431C276.772 232.592 269.246 231.497 257.438 229.778L257.388 229.77C257.121 229.731 256.851 229.692 256.579 229.652C263.235 216.939 268.458 200.8 260.871 187.658C252.67 173.453 237.773 170.129 228.613 169.565C215.746 168.814 204.732 173.537 201.95 175.143L91.2534 239.054C96.6876 213.117 110.521 189.695 130.612 172.415L151.575 178.562C156.298 179.942 161.258 177.261 162.623 172.51L169.193 150.14ZM84.9175 282.483C87.1605 281.273 89.7868 280.985 92.2384 281.681C94.6901 282.377 96.7739 284.001 98.0472 286.208C99.3457 288.457 99.6975 291.13 99.0254 293.638C98.3533 296.147 96.7123 298.285 94.4634 299.584C92.2145 300.882 89.5419 301.234 87.0336 300.562C84.5252 299.89 82.3867 298.249 81.0882 296C80.4328 294.865 80.0116 293.611 79.8496 292.311C79.6876 291.011 79.7881 289.692 80.1451 288.432C80.5022 287.171 81.1086 285.995 81.9283 284.974C82.7481 283.952 83.7645 283.105 84.9175 282.483ZM287.31 166.14C289.553 164.931 292.179 164.643 294.631 165.339C297.083 166.034 299.167 167.658 300.44 169.866C301.738 172.115 302.09 174.787 301.418 177.296C300.746 179.804 299.105 181.943 296.856 183.241C294.607 184.54 291.934 184.891 289.426 184.219C286.918 183.547 284.779 181.906 283.481 179.657C282.825 178.523 282.404 177.269 282.242 175.969C282.08 174.669 282.181 173.35 282.538 172.089C282.895 170.829 283.501 169.653 284.321 168.631C285.141 167.609 286.157 166.762 287.31 166.14ZM101.902 275.003L116.68 266.471L155.153 333.108L125.325 350.329C114.172 339.52 105.214 326.656 98.9451 312.446L112.522 293.774C115.413 289.778 114.557 284.202 110.561 281.31L101.902 275.003ZM163.986 240.105L199.185 219.782C201.012 218.727 213.239 214.467 218.009 222.729C221.96 229.572 214.925 236.906 207.972 240.92L175.308 259.779L163.986 240.105ZM191.628 287.982L218.593 272.414C221.047 270.997 232.172 265.52 243.482 277.239C244.714 278.505 246.79 280.859 249.145 283.527L249.145 283.527C253.46 288.417 258.707 294.364 261.387 296.603C265.829 300.582 278.013 306.635 284.966 302.621L328.972 277.214C328.303 282.866 327.234 288.464 325.774 293.965L305.641 300.463C300.95 301.972 298.376 307.021 299.884 311.712L307.091 334.017C296.99 348.109 283.968 359.856 268.912 368.454C253.856 377.053 237.121 382.301 219.851 383.839L204.138 366.446C200.83 362.794 195.197 362.483 191.545 365.791L176.186 379.676C170.995 378.198 165.909 376.373 160.963 374.214L246.222 324.99C247.176 324.439 247.736 323.897 247.216 322.998L229.806 292.842C229.302 291.97 228.538 292.157 227.583 292.708L202.636 307.111L191.628 287.982ZM192.158 379.761C194.401 378.551 197.027 378.263 199.479 378.959C201.93 379.654 204.014 381.279 205.288 383.486C206.586 385.735 206.938 388.408 206.266 390.916C205.594 393.424 203.953 395.563 201.704 396.861C199.455 398.16 196.782 398.512 194.274 397.839C191.766 397.167 189.627 395.526 188.329 393.277C187.673 392.143 187.252 390.889 187.09 389.589C186.928 388.289 187.028 386.97 187.385 385.709C187.743 384.449 188.349 383.273 189.169 382.251C189.988 381.229 191.005 380.383 192.158 379.761ZM317.935 307.652C320.178 306.442 322.804 306.155 325.256 306.85C327.707 307.546 329.791 309.17 331.065 311.378C332.363 313.627 332.715 316.299 332.043 318.808C331.371 321.316 329.73 323.454 327.481 324.753C325.232 326.051 322.559 326.403 320.051 325.731C317.543 325.059 315.404 323.418 314.106 321.169C313.45 320.035 313.029 318.781 312.867 317.481C312.705 316.181 312.805 314.861 313.163 313.601C313.52 312.341 314.126 311.165 314.946 310.143C315.765 309.121 316.782 308.274 317.935 307.652Z"/>
</mask>
<path fill-rule="evenodd" clip-rule="evenodd" d="M132.056 122.179C130.616 121.406 128.877 121.432 127.461 122.25C126.045 123.068 125.153 124.56 125.102 126.194L124.595 142.625C123.54 143.359 122.497 144.105 121.467 144.863L105.748 140.078C104.184 139.602 102.486 139.968 101.258 141.046C100.029 142.124 99.4456 143.76 99.7142 145.372L102.413 161.567C101.525 162.492 100.651 163.427 99.7897 164.372L83.4192 162.735C81.7924 162.573 80.1972 163.263 79.2023 164.56C78.2073 165.858 77.954 167.577 78.5328 169.106L84.3704 184.528C83.6888 185.598 83.0215 186.676 82.3684 187.761L65.9409 189.342C64.3122 189.499 62.8808 190.488 62.1574 191.955C61.4341 193.423 61.522 195.16 62.3897 196.548L71.1657 210.577C70.7157 211.732 70.2801 212.893 69.859 214.059L53.9988 218.83C52.4322 219.302 51.2212 220.55 50.7978 222.13C50.3743 223.711 50.7989 225.397 51.92 226.589L63.2701 238.652C63.0519 239.871 62.8489 241.094 62.661 242.32L48.0452 250.082C46.6002 250.849 45.6553 252.31 45.5479 253.943C45.4405 255.575 46.1859 257.147 47.518 258.097L60.9557 267.682C60.9786 268.947 61.0177 270.214 61.0731 271.48L48.3049 281.918C47.0392 282.953 46.3987 284.569 46.6117 286.19C46.8248 287.811 47.8611 289.206 49.3512 289.879L64.3489 296.648C64.6219 297.896 64.9115 299.141 65.2177 300.385L54.7815 313.063C53.7429 314.325 53.4304 316.034 53.9553 317.581C54.4802 319.129 55.7679 320.295 57.3597 320.665L73.3671 324.381C73.8804 325.552 74.41 326.719 74.956 327.881L67.1791 342.366C66.4056 343.807 66.4324 345.545 67.25 346.961C68.0676 348.377 69.5596 349.27 71.1941 349.32L87.6272 349.827C88.361 350.881 89.1068 351.923 89.864 352.953L85.0782 368.675C84.6023 370.238 84.9685 371.936 86.0463 373.165C87.1241 374.393 88.7603 374.977 90.3722 374.708L106.574 372.008C107.497 372.894 108.43 373.767 109.372 374.626L107.735 391.003C107.573 392.63 108.263 394.225 109.56 395.22C110.858 396.215 112.577 396.468 114.106 395.89L129.538 390.048C130.604 390.727 131.678 391.392 132.76 392.043L134.342 408.481C134.499 410.11 135.488 411.542 136.955 412.265C138.423 412.988 140.16 412.9 141.547 412.033L155.588 403.25C156.739 403.698 157.894 404.131 159.055 404.551L163.83 420.424C164.302 421.99 165.55 423.201 167.13 423.625C168.711 424.048 170.397 423.623 171.589 422.502L183.661 411.144C184.876 411.361 186.093 411.563 187.314 411.75L195.082 426.377C195.849 427.822 197.31 428.767 198.943 428.874C200.575 428.982 202.147 428.236 203.097 426.904L212.688 413.459C213.949 413.436 215.212 413.397 216.474 413.342L226.918 426.117C227.953 427.383 229.569 428.024 231.19 427.811C232.811 427.598 234.206 426.561 234.879 425.071L241.65 410.068C242.896 409.796 244.14 409.507 245.381 409.201L258.063 419.641C259.325 420.679 261.034 420.992 262.581 420.467C264.129 419.942 265.295 418.655 265.665 417.063L269.381 401.053C270.551 400.54 271.717 400.011 272.879 399.465L287.366 407.243C288.807 408.017 290.545 407.99 291.961 407.172C293.377 406.355 294.27 404.863 294.32 403.228L294.827 386.793C295.881 386.06 296.922 385.315 297.951 384.558L313.675 389.344C315.238 389.82 316.936 389.454 318.165 388.376C319.393 387.298 319.977 385.662 319.708 384.05L317.008 367.847C317.894 366.925 318.766 365.992 319.624 365.05L336.003 366.687C337.63 366.85 339.225 366.159 340.22 364.862C341.215 363.565 341.468 361.845 340.89 360.316L335.048 344.883C335.727 343.817 336.391 342.744 337.042 341.663L353.481 340.08C355.11 339.923 356.542 338.935 357.265 337.467C357.988 335.999 357.9 334.262 357.033 332.875L348.249 318.834C348.697 317.684 349.131 316.528 349.55 315.367L365.423 310.592C366.99 310.121 368.201 308.872 368.625 307.292C369.048 305.712 368.623 304.025 367.502 302.833L356.144 290.762C356.361 289.547 356.563 288.329 356.751 287.108L371.377 279.34C372.822 278.573 373.767 277.112 373.874 275.48C373.982 273.847 373.236 272.275 371.904 271.325L358.459 261.735C358.436 260.473 358.398 259.211 358.343 257.948L371.117 247.504C372.383 246.469 373.024 244.853 372.811 243.232C372.598 241.612 371.561 240.216 370.071 239.544L355.069 232.773C354.797 231.527 354.508 230.282 354.202 229.04L364.641 216.359C365.679 215.097 365.992 213.388 365.467 211.841C364.942 210.293 363.655 209.127 362.063 208.758L346.054 205.041C345.541 203.871 345.012 202.704 344.466 201.542L352.243 187.056C353.017 185.616 352.99 183.877 352.172 182.461C351.355 181.045 349.863 180.153 348.228 180.102L331.795 179.595C331.061 178.541 330.316 177.499 329.558 176.469L334.344 160.748C334.82 159.184 334.454 157.486 333.376 156.258C332.298 155.029 330.662 154.446 329.05 154.714L312.85 157.414C311.926 156.528 310.993 155.655 310.05 154.796L311.687 138.419C311.85 136.792 311.159 135.197 309.862 134.202C308.565 133.207 306.845 132.954 305.316 133.533L289.886 139.374C288.819 138.694 287.744 138.029 286.662 137.378L285.08 120.941C284.923 119.312 283.935 117.881 282.467 117.157C280.999 116.434 279.262 116.522 277.875 117.39L263.836 126.171C262.685 125.723 261.528 125.289 260.366 124.869L255.592 108.999C255.121 107.432 253.872 106.221 252.292 105.798C250.712 105.374 249.025 105.799 247.833 106.92L235.764 118.277C234.548 118.059 233.329 117.857 232.107 117.669L224.34 103.045C223.573 101.6 222.112 100.655 220.48 100.548C218.847 100.441 217.275 101.186 216.325 102.518L206.737 115.961C205.474 115.984 204.21 116.023 202.946 116.078L192.504 103.305C191.469 102.039 189.853 101.399 188.232 101.612C186.612 101.825 185.216 102.861 184.544 104.351L177.774 119.351C176.527 119.624 175.281 119.913 174.038 120.219L161.359 109.782C160.097 108.743 158.388 108.43 156.841 108.955C155.293 109.48 154.127 110.768 153.758 112.36L150.042 128.366C148.87 128.879 147.703 129.409 146.54 129.955L132.056 122.179ZM141.72 147.388C143.957 146.173 146.581 145.883 149.034 146.579C151.487 147.275 153.574 148.902 154.85 151.114C156.148 153.363 156.5 156.035 155.828 158.544C155.156 161.052 153.515 163.191 151.266 164.489C149.017 165.787 146.345 166.139 143.836 165.467C141.328 164.795 139.189 163.154 137.891 160.905C137.236 159.771 136.814 158.517 136.652 157.217C136.49 155.917 136.591 154.598 136.948 153.337C137.305 152.077 137.911 150.901 138.731 149.879C139.551 148.857 140.567 148.01 141.72 147.388ZM169.193 150.14C185.688 144.334 203.25 142.188 220.659 143.852C238.067 145.516 254.905 150.949 270.002 159.774L273.03 188.127C273.563 193.018 277.98 196.575 282.859 196.085L307.035 193.505C311.106 199.177 314.677 205.193 317.706 211.483L306.991 217.67C305.927 218.284 305.9 219.245 306.498 220.281L309.332 225.188C316.006 236.749 310.954 243.047 305.59 246.98C300.499 250.755 292.789 251.317 290.105 248.431C276.772 232.592 269.246 231.497 257.438 229.778L257.388 229.77C257.121 229.731 256.851 229.692 256.579 229.652C263.235 216.939 268.458 200.8 260.871 187.658C252.67 173.453 237.773 170.129 228.613 169.565C215.746 168.814 204.732 173.537 201.95 175.143L91.2534 239.054C96.6876 213.117 110.521 189.695 130.612 172.415L151.575 178.562C156.298 179.942 161.258 177.261 162.623 172.51L169.193 150.14ZM84.9175 282.483C87.1605 281.273 89.7868 280.985 92.2384 281.681C94.6901 282.377 96.7739 284.001 98.0472 286.208C99.3457 288.457 99.6975 291.13 99.0254 293.638C98.3533 296.147 96.7123 298.285 94.4634 299.584C92.2145 300.882 89.5419 301.234 87.0336 300.562C84.5252 299.89 82.3867 298.249 81.0882 296C80.4328 294.865 80.0116 293.611 79.8496 292.311C79.6876 291.011 79.7881 289.692 80.1451 288.432C80.5022 287.171 81.1086 285.995 81.9283 284.974C82.7481 283.952 83.7645 283.105 84.9175 282.483ZM287.31 166.14C289.553 164.931 292.179 164.643 294.631 165.339C297.083 166.034 299.167 167.658 300.44 169.866C301.738 172.115 302.09 174.787 301.418 177.296C300.746 179.804 299.105 181.943 296.856 183.241C294.607 184.54 291.934 184.891 289.426 184.219C286.918 183.547 284.779 181.906 283.481 179.657C282.825 178.523 282.404 177.269 282.242 175.969C282.08 174.669 282.181 173.35 282.538 172.089C282.895 170.829 283.501 169.653 284.321 168.631C285.141 167.609 286.157 166.762 287.31 166.14ZM101.902 275.003L116.68 266.471L155.153 333.108L125.325 350.329C114.172 339.52 105.214 326.656 98.9451 312.446L112.522 293.774C115.413 289.778 114.557 284.202 110.561 281.31L101.902 275.003ZM163.986 240.105L199.185 219.782C201.012 218.727 213.239 214.467 218.009 222.729C221.96 229.572 214.925 236.906 207.972 240.92L175.308 259.779L163.986 240.105ZM191.628 287.982L218.593 272.414C221.047 270.997 232.172 265.52 243.482 277.239C244.714 278.505 246.79 280.859 249.145 283.527L249.145 283.527C253.46 288.417 258.707 294.364 261.387 296.603C265.829 300.582 278.013 306.635 284.966 302.621L328.972 277.214C328.303 282.866 327.234 288.464 325.774 293.965L305.641 300.463C300.95 301.972 298.376 307.021 299.884 311.712L307.091 334.017C296.99 348.109 283.968 359.856 268.912 368.454C253.856 377.053 237.121 382.301 219.851 383.839L204.138 366.446C200.83 362.794 195.197 362.483 191.545 365.791L176.186 379.676C170.995 378.198 165.909 376.373 160.963 374.214L246.222 324.99C247.176 324.439 247.736 323.897 247.216 322.998L229.806 292.842C229.302 291.97 228.538 292.157 227.583 292.708L202.636 307.111L191.628 287.982ZM192.158 379.761C194.401 378.551 197.027 378.263 199.479 378.959C201.93 379.654 204.014 381.279 205.288 383.486C206.586 385.735 206.938 388.408 206.266 390.916C205.594 393.424 203.953 395.563 201.704 396.861C199.455 398.16 196.782 398.512 194.274 397.839C191.766 397.167 189.627 395.526 188.329 393.277C187.673 392.143 187.252 390.889 187.09 389.589C186.928 388.289 187.028 386.97 187.385 385.709C187.743 384.449 188.349 383.273 189.169 382.251C189.988 381.229 191.005 380.383 192.158 379.761ZM317.935 307.652C320.178 306.442 322.804 306.155 325.256 306.85C327.707 307.546 329.791 309.17 331.065 311.378C332.363 313.627 332.715 316.299 332.043 318.808C331.371 321.316 329.73 323.454 327.481 324.753C325.232 326.051 322.559 326.403 320.051 325.731C317.543 325.059 315.404 323.418 314.106 321.169C313.45 320.035 313.029 318.781 312.867 317.481C312.705 316.181 312.805 314.861 313.163 313.601C313.52 312.341 314.126 311.165 314.946 310.143C315.765 309.121 316.782 308.274 317.935 307.652Z" fill="#19192C"/>
<path fill-rule="evenodd" clip-rule="evenodd" d="M132.056 122.179C130.616 121.406 128.877 121.432 127.461 122.25C126.045 123.068 125.153 124.56 125.102 126.194L124.595 142.625C123.54 143.359 122.497 144.105 121.467 144.863L105.748 140.078C104.184 139.602 102.486 139.968 101.258 141.046C100.029 142.124 99.4456 143.76 99.7142 145.372L102.413 161.567C101.525 162.492 100.651 163.427 99.7897 164.372L83.4192 162.735C81.7924 162.573 80.1972 163.263 79.2023 164.56C78.2073 165.858 77.954 167.577 78.5328 169.106L84.3704 184.528C83.6888 185.598 83.0215 186.676 82.3684 187.761L65.9409 189.342C64.3122 189.499 62.8808 190.488 62.1574 191.955C61.4341 193.423 61.522 195.16 62.3897 196.548L71.1657 210.577C70.7157 211.732 70.2801 212.893 69.859 214.059L53.9988 218.83C52.4322 219.302 51.2212 220.55 50.7978 222.13C50.3743 223.711 50.7989 225.397 51.92 226.589L63.2701 238.652C63.0519 239.871 62.8489 241.094 62.661 242.32L48.0452 250.082C46.6002 250.849 45.6553 252.31 45.5479 253.943C45.4405 255.575 46.1859 257.147 47.518 258.097L60.9557 267.682C60.9786 268.947 61.0177 270.214 61.0731 271.48L48.3049 281.918C47.0392 282.953 46.3987 284.569 46.6117 286.19C46.8248 287.811 47.8611 289.206 49.3512 289.879L64.3489 296.648C64.6219 297.896 64.9115 299.141 65.2177 300.385L54.7815 313.063C53.7429 314.325 53.4304 316.034 53.9553 317.581C54.4802 319.129 55.7679 320.295 57.3597 320.665L73.3671 324.381C73.8804 325.552 74.41 326.719 74.956 327.881L67.1791 342.366C66.4056 343.807 66.4324 345.545 67.25 346.961C68.0676 348.377 69.5596 349.27 71.1941 349.32L87.6272 349.827C88.361 350.881 89.1068 351.923 89.864 352.953L85.0782 368.675C84.6023 370.238 84.9685 371.936 86.0463 373.165C87.1241 374.393 88.7603 374.977 90.3722 374.708L106.574 372.008C107.497 372.894 108.43 373.767 109.372 374.626L107.735 391.003C107.573 392.63 108.263 394.225 109.56 395.22C110.858 396.215 112.577 396.468 114.106 395.89L129.538 390.048C130.604 390.727 131.678 391.392 132.76 392.043L134.342 408.481C134.499 410.11 135.488 411.542 136.955 412.265C138.423 412.988 140.16 412.9 141.547 412.033L155.588 403.25C156.739 403.698 157.894 404.131 159.055 404.551L163.83 420.424C164.302 421.99 165.55 423.201 167.13 423.625C168.711 424.048 170.397 423.623 171.589 422.502L183.661 411.144C184.876 411.361 186.093 411.563 187.314 411.75L195.082 426.377C195.849 427.822 197.31 428.767 198.943 428.874C200.575 428.982 202.147 428.236 203.097 426.904L212.688 413.459C213.949 413.436 215.212 413.397 216.474 413.342L226.918 426.117C227.953 427.383 229.569 428.024 231.19 427.811C232.811 427.598 234.206 426.561 234.879 425.071L241.65 410.068C242.896 409.796 244.14 409.507 245.381 409.201L258.063 419.641C259.325 420.679 261.034 420.992 262.581 420.467C264.129 419.942 265.295 418.655 265.665 417.063L269.381 401.053C270.551 400.54 271.717 400.011 272.879 399.465L287.366 407.243C288.807 408.017 290.545 407.99 291.961 407.172C293.377 406.355 294.27 404.863 294.32 403.228L294.827 386.793C295.881 386.06 296.922 385.315 297.951 384.558L313.675 389.344C315.238 389.82 316.936 389.454 318.165 388.376C319.393 387.298 319.977 385.662 319.708 384.05L317.008 367.847C317.894 366.925 318.766 365.992 319.624 365.05L336.003 366.687C337.63 366.85 339.225 366.159 340.22 364.862C341.215 363.565 341.468 361.845 340.89 360.316L335.048 344.883C335.727 343.817 336.391 342.744 337.042 341.663L353.481 340.08C355.11 339.923 356.542 338.935 357.265 337.467C357.988 335.999 357.9 334.262 357.033 332.875L348.249 318.834C348.697 317.684 349.131 316.528 349.55 315.367L365.423 310.592C366.99 310.121 368.201 308.872 368.625 307.292C369.048 305.712 368.623 304.025 367.502 302.833L356.144 290.762C356.361 289.547 356.563 288.329 356.751 287.108L371.377 279.34C372.822 278.573 373.767 277.112 373.874 275.48C373.982 273.847 373.236 272.275 371.904 271.325L358.459 261.735C358.436 260.473 358.398 259.211 358.343 257.948L371.117 247.504C372.383 246.469 373.024 244.853 372.811 243.232C372.598 241.612 371.561 240.216 370.071 239.544L355.069 232.773C354.797 231.527 354.508 230.282 354.202 229.04L364.641 216.359C365.679 215.097 365.992 213.388 365.467 211.841C364.942 210.293 363.655 209.127 362.063 208.758L346.054 205.041C345.541 203.871 345.012 202.704 344.466 201.542L352.243 187.056C353.017 185.616 352.99 183.877 352.172 182.461C351.355 181.045 349.863 180.153 348.228 180.102L331.795 179.595C331.061 178.541 330.316 177.499 329.558 176.469L334.344 160.748C334.82 159.184 334.454 157.486 333.376 156.258C332.298 155.029 330.662 154.446 329.05 154.714L312.85 157.414C311.926 156.528 310.993 155.655 310.05 154.796L311.687 138.419C311.85 136.792 311.159 135.197 309.862 134.202C308.565 133.207 306.845 132.954 305.316 133.533L289.886 139.374C288.819 138.694 287.744 138.029 286.662 137.378L285.08 120.941C284.923 119.312 283.935 117.881 282.467 117.157C280.999 116.434 279.262 116.522 277.875 117.39L263.836 126.171C262.685 125.723 261.528 125.289 260.366 124.869L255.592 108.999C255.121 107.432 253.872 106.221 252.292 105.798C250.712 105.374 249.025 105.799 247.833 106.92L235.764 118.277C234.548 118.059 233.329 117.857 232.107 117.669L224.34 103.045C223.573 101.6 222.112 100.655 220.48 100.548C218.847 100.441 217.275 101.186 216.325 102.518L206.737 115.961C205.474 115.984 204.21 116.023 202.946 116.078L192.504 103.305C191.469 102.039 189.853 101.399 188.232 101.612C186.612 101.825 185.216 102.861 184.544 104.351L177.774 119.351C176.527 119.624 175.281 119.913 174.038 120.219L161.359 109.782C160.097 108.743 158.388 108.43 156.841 108.955C155.293 109.48 154.127 110.768 153.758 112.36L150.042 128.366C148.87 128.879 147.703 129.409 146.54 129.955L132.056 122.179ZM141.72 147.388C143.957 146.173 146.581 145.883 149.034 146.579C151.487 147.275 153.574 148.902 154.85 151.114C156.148 153.363 156.5 156.035 155.828 158.544C155.156 161.052 153.515 163.191 151.266 164.489C149.017 165.787 146.345 166.139 143.836 165.467C141.328 164.795 139.189 163.154 137.891 160.905C137.236 159.771 136.814 158.517 136.652 157.217C136.49 155.917 136.591 154.598 136.948 153.337C137.305 152.077 137.911 150.901 138.731 149.879C139.551 148.857 140.567 148.01 141.72 147.388ZM169.193 150.14C185.688 144.334 203.25 142.188 220.659 143.852C238.067 145.516 254.905 150.949 270.002 159.774L273.03 188.127C273.563 193.018 277.98 196.575 282.859 196.085L307.035 193.505C311.106 199.177 314.677 205.193 317.706 211.483L306.991 217.67C305.927 218.284 305.9 219.245 306.498 220.281L309.332 225.188C316.006 236.749 310.954 243.047 305.59 246.98C300.499 250.755 292.789 251.317 290.105 248.431C276.772 232.592 269.246 231.497 257.438 229.778L257.388 229.77C257.121 229.731 256.851 229.692 256.579 229.652C263.235 216.939 268.458 200.8 260.871 187.658C252.67 173.453 237.773 170.129 228.613 169.565C215.746 168.814 204.732 173.537 201.95 175.143L91.2534 239.054C96.6876 213.117 110.521 189.695 130.612 172.415L151.575 178.562C156.298 179.942 161.258 177.261 162.623 172.51L169.193 150.14ZM84.9175 282.483C87.1605 281.273 89.7868 280.985 92.2384 281.681C94.6901 282.377 96.7739 284.001 98.0472 286.208C99.3457 288.457 99.6975 291.13 99.0254 293.638C98.3533 296.147 96.7123 298.285 94.4634 299.584C92.2145 300.882 89.5419 301.234 87.0336 300.562C84.5252 299.89 82.3867 298.249 81.0882 296C80.4328 294.865 80.0116 293.611 79.8496 292.311C79.6876 291.011 79.7881 289.692 80.1451 288.432C80.5022 287.171 81.1086 285.995 81.9283 284.974C82.7481 283.952 83.7645 283.105 84.9175 282.483ZM287.31 166.14C289.553 164.931 292.179 164.643 294.631 165.339C297.083 166.034 299.167 167.658 300.44 169.866C301.738 172.115 302.09 174.787 301.418 177.296C300.746 179.804 299.105 181.943 296.856 183.241C294.607 184.54 291.934 184.891 289.426 184.219C286.918 183.547 284.779 181.906 283.481 179.657C282.825 178.523 282.404 177.269 282.242 175.969C282.08 174.669 282.181 173.35 282.538 172.089C282.895 170.829 283.501 169.653 284.321 168.631C285.141 167.609 286.157 166.762 287.31 166.14ZM101.902 275.003L116.68 266.471L155.153 333.108L125.325 350.329C114.172 339.52 105.214 326.656 98.9451 312.446L112.522 293.774C115.413 289.778 114.557 284.202 110.561 281.31L101.902 275.003ZM163.986 240.105L199.185 219.782C201.012 218.727 213.239 214.467 218.009 222.729C221.96 229.572 214.925 236.906 207.972 240.92L175.308 259.779L163.986 240.105ZM191.628 287.982L218.593 272.414C221.047 270.997 232.172 265.52 243.482 277.239C244.714 278.505 246.79 280.859 249.145 283.527L249.145 283.527C253.46 288.417 258.707 294.364 261.387 296.603C265.829 300.582 278.013 306.635 284.966 302.621L328.972 277.214C328.303 282.866 327.234 288.464 325.774 293.965L305.641 300.463C300.95 301.972 298.376 307.021 299.884 311.712L307.091 334.017C296.99 348.109 283.968 359.856 268.912 368.454C253.856 377.053 237.121 382.301 219.851 383.839L204.138 366.446C200.83 362.794 195.197 362.483 191.545 365.791L176.186 379.676C170.995 378.198 165.909 376.373 160.963 374.214L246.222 324.99C247.176 324.439 247.736 323.897 247.216 322.998L229.806 292.842C229.302 291.97 228.538 292.157 227.583 292.708L202.636 307.111L191.628 287.982ZM192.158 379.761C194.401 378.551 197.027 378.263 199.479 378.959C201.93 379.654 204.014 381.279 205.288 383.486C206.586 385.735 206.938 388.408 206.266 390.916C205.594 393.424 203.953 395.563 201.704 396.861C199.455 398.16 196.782 398.512 194.274 397.839C191.766 397.167 189.627 395.526 188.329 393.277C187.673 392.143 187.252 390.889 187.09 389.589C186.928 388.289 187.028 386.97 187.385 385.709C187.743 384.449 188.349 383.273 189.169 382.251C189.988 381.229 191.005 380.383 192.158 379.761ZM317.935 307.652C320.178 306.442 322.804 306.155 325.256 306.85C327.707 307.546 329.791 309.17 331.065 311.378C332.363 313.627 332.715 316.299 332.043 318.808C331.371 321.316 329.73 323.454 327.481 324.753C325.232 326.051 322.559 326.403 320.051 325.731C317.543 325.059 315.404 323.418 314.106 321.169C313.45 320.035 313.029 318.781 312.867 317.481C312.705 316.181 312.805 314.861 313.163 313.601C313.52 312.341 314.126 311.165 314.946 310.143C315.765 309.121 316.782 308.274 317.935 307.652Z" stroke="#37ADF9" stroke-width="4" stroke-linecap="round" stroke-linejoin="round" mask="url(#path-3-outside-3_2490_39437)"/>
</g>
</g>
<defs>
<filter id="filter0_dd_2490_39437" x="207.9" y="-31.1" width="223.601" height="223.272" filterUnits="userSpaceOnUse" color-interpolation-filters="sRGB">
<feFlood flood-opacity="0" result="BackgroundImageFix"/>
<feColorMatrix in="SourceAlpha" type="matrix" values="0 0 0 0 0 0 0 0 0 0 0 0 0 0 0 0 0 0 127 0" result="hardAlpha"/>
<feOffset dy="4"/>
<feGaussianBlur stdDeviation="22.55"/>
<feComposite in2="hardAlpha" operator="out"/>
<feColorMatrix type="matrix" values="0 0 0 0 0.431373 0 0 0 0 0.435294 0 0 0 0 0.607843 0 0 0 0.1 0"/>
<feBlend mode="normal" in2="BackgroundImageFix" result="effect1_dropShadow_2490_39437"/>
<feColorMatrix in="SourceAlpha" type="matrix" values="0 0 0 0 0 0 0 0 0 0 0 0 0 0 0 0 0 0 127 0" result="hardAlpha"/>
<feOffset/>
<feGaussianBlur stdDeviation="5.1"/>
<feComposite in2="hardAlpha" operator="out"/>
<feColorMatrix type="matrix" values="0 0 0 0 1 0 0 0 0 1 0 0 0 0 1 0 0 0 0.19 0"/>
<feBlend mode="normal" in2="effect1_dropShadow_2490_39437" result="effect2_dropShadow_2490_39437"/>
<feBlend mode="normal" in="SourceGraphic" in2="effect2_dropShadow_2490_39437" result="shape"/>
</filter>
<filter id="filter1_dd_2490_39437" x="257.9" y="251.9" width="353.002" height="352.345" filterUnits="userSpaceOnUse" color-interpolation-filters="sRGB">
<feFlood flood-opacity="0" result="BackgroundImageFix"/>
<feColorMatrix in="SourceAlpha" type="matrix" values="0 0 0 0 0 0 0 0 0 0 0 0 0 0 0 0 0 0 127 0" result="hardAlpha"/>
<feOffset dy="4"/>
<feGaussianBlur stdDeviation="22.55"/>
<feComposite in2="hardAlpha" operator="out"/>
<feColorMatrix type="matrix" values="0 0 0 0 0.431373 0 0 0 0 0.435294 0 0 0 0 0.607843 0 0 0 0.1 0"/>
<feBlend mode="normal" in2="BackgroundImageFix" result="effect1_dropShadow_2490_39437"/>
<feColorMatrix in="SourceAlpha" type="matrix" values="0 0 0 0 0 0 0 0 0 0 0 0 0 0 0 0 0 0 127 0" result="hardAlpha"/>
<feOffset/>
<feGaussianBlur stdDeviation="5.1"/>
<feComposite in2="hardAlpha" operator="out"/>
<feColorMatrix type="matrix" values="0 0 0 0 1 0 0 0 0 1 0 0 0 0 1 0 0 0 0.19 0"/>
<feBlend mode="normal" in2="effect1_dropShadow_2490_39437" result="effect2_dropShadow_2490_39437"/>
<feBlend mode="normal" in="SourceGraphic" in2="effect2_dropShadow_2490_39437" result="shape"/>
</filter>
<filter id="filter2_dd_2490_39437" x="-1.56228" y="57.4377" width="422.547" height="422.547" filterUnits="userSpaceOnUse" color-interpolation-filters="sRGB">
<feFlood flood-opacity="0" result="BackgroundImageFix"/>
<feColorMatrix in="SourceAlpha" type="matrix" values="0 0 0 0 0 0 0 0 0 0 0 0 0 0 0 0 0 0 127 0" result="hardAlpha"/>
<feOffset dy="4"/>
<feGaussianBlur stdDeviation="22.55"/>
<feComposite in2="hardAlpha" operator="out"/>
<feColorMatrix type="matrix" values="0 0 0 0 0.431373 0 0 0 0 0.435294 0 0 0 0 0.607843 0 0 0 0.1 0"/>
<feBlend mode="normal" in2="BackgroundImageFix" result="effect1_dropShadow_2490_39437"/>
<feColorMatrix in="SourceAlpha" type="matrix" values="0 0 0 0 0 0 0 0 0 0 0 0 0 0 0 0 0 0 127 0" result="hardAlpha"/>
<feOffset/>
<feGaussianBlur stdDeviation="5.1"/>
<feComposite in2="hardAlpha" operator="out"/>
<feColorMatrix type="matrix" values="0 0 0 0 1 0 0 0 0 1 0 0 0 0 1 0 0 0 0.19 0"/>
<feBlend mode="normal" in2="effect1_dropShadow_2490_39437" result="effect2_dropShadow_2490_39437"/>
<feBlend mode="normal" in="SourceGraphic" in2="effect2_dropShadow_2490_39437" result="shape"/>
</filter>
<clipPath id="clip0_2490_39437">
<rect width="579" height="565" fill="white"/>
</clipPath>
</defs>
</svg>
