<svg width="640" height="248" viewBox="0 0 640 248" fill="none" xmlns="http://www.w3.org/2000/svg">
<g opacity="0.3" clip-path="url(#clip0_2490_46586)">
<path d="M155.735 75.969H155.754C162.551 52.207 192.169 40.6082 222.352 40.6082C243.209 40.6082 261.932 47.211 274.768 57.6934C267.108 58.0546 259.544 59.5576 252.329 62.1528C262.7 66.0078 271.61 71.9383 278.212 79.2751C273.231 78.4176 268.179 78.0355 263.126 78.134C275.547 96.1268 282.183 117.481 282.147 139.345C282.147 198.958 233.822 247.284 174.208 247.284C115.514 247.284 66.2693 198.141 66.2693 139.345C66.2693 130.059 67.5029 120.471 69.8992 111.478C70.5283 109.591 71.4042 107.78 72.5668 107.117C74.0225 106.288 75.3486 108.761 75.5614 109.566C77.1396 115.478 79.2633 121.23 81.9051 126.75C81.6738 114.426 86.9381 103.201 94.1793 93.4922C99.0088 87.0189 103.487 81.0206 105.553 63.7102C105.692 62.5476 106.793 61.7118 107.906 62.0757C123.622 67.2198 132.023 93.3904 130.718 115.274C139.4 116.517 139.36 107.447 139.36 107.447C136.584 98.9169 138.434 83.0622 155.705 75.969H155.735Z" fill="url(#paint0_linear_2490_46586)"/>
<path opacity="0.9" d="M278.617 111.856C281.242 171.223 232.438 222.408 172.927 222.408C117.215 222.408 71.5625 179.346 67.4331 124.692C66.6963 129.81 66.3089 134.972 66.2735 140.143C66.696 198.621 115.821 247.283 174.213 247.283C233.826 247.283 282.152 198.957 282.152 139.344C282.152 129.845 280.921 120.633 278.617 111.856Z" fill="url(#paint1_radial_2490_46586)"/>
<path style="mix-blend-mode:screen" d="M171.579 83.8363C170.416 81.7792 165.047 78.7354 162.7 78.2049C171.582 49.7552 216.83 41.0214 244.524 46.0545C256.049 48.1516 270.402 54.4305 274.769 57.6934C261.933 47.211 243.207 40.6082 222.354 40.6082C192.171 40.6082 162.552 52.207 155.755 75.969H155.706C138.436 83.0622 136.585 98.9231 139.361 107.45C142.025 97.2762 154.703 84.7738 171.579 83.8363Z" fill="url(#paint2_radial_2490_46586)"/>
<path d="M202.944 64.1874C178.697 68.9583 170.775 70.5188 162.661 78.2318C171.774 54.1059 195.036 49.2147 222.755 60.2121C216.158 61.572 209.554 62.8981 202.944 64.1905V64.1874Z" fill="url(#paint3_linear_2490_46586)"/>
<path d="M72.1263 108.176C65.5019 135.296 70.6213 167.172 100.715 193.923C91.7558 184.125 80.817 147.95 104.955 122.106C106.58 120.364 109.378 121.644 109.467 124.024C111.456 177.735 154.795 210.539 204.762 204.405C189.28 203.536 138.08 185.602 176.167 178.509C196.074 174.799 227.287 168.986 227.287 140.977C227.287 95.5748 192.182 82.3013 170.894 84.2751C156.325 85.6258 143.357 94.8716 139.366 107.445C140.899 112.401 134.79 115.87 130.716 115.288C132.023 93.4067 123.622 67.2207 107.903 62.0766C106.793 61.7127 105.689 62.5484 105.55 63.7111C103.484 81.0215 99.0062 87.0198 94.1798 93.4931C86.9356 103.205 81.6712 114.427 81.9025 126.751C79.2608 121.231 77.1371 115.479 75.5588 109.567C75.383 108.901 74.4177 107.041 73.252 106.955C72.6197 106.908 72.2836 107.525 72.1263 108.176Z" fill="url(#paint4_radial_2490_46586)"/>
<path style="mix-blend-mode:screen" d="M162.793 181.256C192.103 205.055 251.047 187.211 251.047 129.347C227.251 165.417 196.942 190.298 162.796 181.256H162.793Z" fill="url(#paint5_linear_2490_46586)"/>
<path style="mix-blend-mode:screen" d="M104.958 122.105C105.225 121.807 105.561 121.579 105.936 121.441C106.311 121.304 106.715 121.261 107.111 121.316C85.5046 147.668 102.932 193.95 114.892 205.32C115.561 207.214 103.546 197.367 101.89 195.063C92.792 187.344 79.753 149.093 104.958 122.105Z" fill="url(#paint6_linear_2490_46586)"/>
<g filter="url(#filter0_i_2490_46586)">
<path d="M174.208 183.435C203.524 183.435 227.292 164.043 227.292 140.121C227.292 116.198 203.524 96.8064 174.208 96.8064C149.197 96.8064 121.111 113.077 121.123 140.753C121.136 183.519 166.316 208.123 204.829 204.397C201.936 204.061 183.888 203.102 171.691 189.304C170.59 188.061 168.681 185.89 169.548 184.481C170.411 183.071 172.792 183.432 174.205 183.432L174.208 183.435Z" fill="url(#paint7_linear_2490_46586)"/>
</g>
<mask id="mask0_2490_46586" style="mask-type:alpha" maskUnits="userSpaceOnUse" x="121" y="96" width="107" height="109">
<path d="M174.208 183.435C203.524 183.435 227.292 164.043 227.292 140.121C227.292 116.198 203.524 96.8062 174.208 96.8062C149.197 96.8062 121.111 113.077 121.123 140.753C121.136 183.518 166.316 208.122 204.828 204.397C201.936 204.061 183.888 203.102 171.691 189.304C170.59 188.061 168.681 185.89 169.548 184.481C170.411 183.071 172.792 183.432 174.205 183.432L174.208 183.435Z" fill="url(#paint8_linear_2490_46586)"/>
</mask>
<g mask="url(#mask0_2490_46586)">
<g filter="url(#filter1_d_2490_46586)">
<g opacity="0.4">
<path d="M183.557 103.057C184.103 103.254 183.815 104.052 183.246 103.943C175.617 102.481 167.496 103.099 159.738 106.167C157.098 107.211 154.622 108.49 152.323 109.972C152.265 110.009 152.202 110.038 152.135 110.058C146.581 111.673 141.443 114.264 136.918 117.634C136.262 118.122 135.409 117.357 135.914 116.713C140.394 111.009 146.4 106.381 153.631 103.521C163.613 99.5738 174.195 99.6824 183.557 103.057Z" fill="url(#paint9_linear_2490_46586)"/>
<path d="M133.628 158.617C133.675 157.843 134.748 157.77 134.985 158.508C135.268 159.386 135.582 160.261 135.926 161.131C138.993 168.889 144.097 175.236 150.381 179.802C150.85 180.143 150.465 180.898 149.948 180.634C143.659 177.427 138.149 172.646 134.068 166.575C134.011 166.49 133.973 166.392 133.958 166.29C133.696 164.52 133.56 162.709 133.56 160.864C133.56 160.11 133.583 159.36 133.628 158.617Z" fill="url(#paint10_linear_2490_46586)"/>
<path d="M208.404 120.083C208.391 119.958 208.344 119.839 208.269 119.739C204.34 114.489 199.299 110.313 193.623 107.419C193.106 107.155 192.721 107.91 193.19 108.251C199.474 112.817 204.577 119.164 207.645 126.922C207.815 127.352 208.448 127.277 208.484 126.816C208.56 125.852 208.599 124.878 208.599 123.894C208.599 122.607 208.533 121.336 208.404 120.083Z" fill="url(#paint11_linear_2490_46586)"/>
<path d="M200.161 170.432C200.092 170.471 200.029 170.521 199.976 170.581C195.7 175.419 190.249 179.349 183.833 181.886C176.075 184.954 167.954 185.572 160.325 184.11C159.755 184.001 159.468 184.799 160.014 184.995C169.376 188.37 179.958 188.479 189.94 184.532C201.041 180.142 209.254 171.583 213.492 161.363C213.794 160.633 212.831 160.098 212.303 160.685C208.824 164.554 204.724 167.856 200.161 170.432Z" fill="url(#paint12_linear_2490_46586)"/>
<path fill-rule="evenodd" clip-rule="evenodd" d="M172.151 156.158C179.949 156.158 186.27 149.837 186.27 142.039C186.27 134.242 179.949 127.921 172.151 127.921C164.354 127.921 158.033 134.242 158.033 142.039C158.033 149.837 164.354 156.158 172.151 156.158ZM172.151 154.276C178.909 154.276 184.387 148.797 184.387 142.039C184.387 135.282 178.909 129.803 172.151 129.803C165.393 129.803 159.915 135.282 159.915 142.039C159.915 148.797 165.393 154.276 172.151 154.276Z" fill="url(#paint13_linear_2490_46586)"/>
</g>
<g opacity="0.9">
<path d="M151.801 161.193C151.035 160.779 150.225 161.759 150.917 162.287C158.041 167.726 166.941 170.956 176.595 170.956C199.988 170.956 218.951 151.992 218.951 128.6C218.951 118.945 215.721 110.045 210.283 102.922C209.755 102.23 208.775 103.04 209.188 103.806C212.414 109.783 214.245 116.624 214.245 123.893C214.245 147.286 195.281 166.25 171.889 166.25C164.62 166.25 157.779 164.418 151.801 161.193Z" fill="url(#paint14_linear_2490_46586)"/>
<path d="M190.355 123.564C191.121 123.978 191.931 122.998 191.24 122.47C184.116 117.031 175.216 113.801 165.561 113.801C142.169 113.801 123.205 132.765 123.205 156.157C123.205 165.812 126.435 174.712 131.874 181.835C132.402 182.527 133.382 181.717 132.969 180.951C129.743 174.974 127.912 168.133 127.912 160.864C127.912 137.471 146.875 118.507 170.268 118.507C177.537 118.507 184.378 120.338 190.355 123.564Z" fill="url(#paint15_linear_2490_46586)"/>
</g>
<g opacity="0.8">
<path d="M152.852 86.977C152.852 88.0167 152.01 88.8595 150.97 88.8595C149.93 88.8595 149.087 88.0167 149.087 86.977C149.087 85.9373 149.93 85.0945 150.97 85.0945C152.01 85.0945 152.852 85.9373 152.852 86.977Z" fill="url(#paint16_linear_2490_46586)"/>
<path d="M190.723 89.1202C190.491 89.8309 190.271 90.5022 190.032 90.7419C189.792 90.9817 189.121 91.2011 188.409 91.4333C187.379 91.7698 186.267 92.1331 186.267 92.6244C186.267 93.1158 187.379 93.4791 188.409 93.8155C189.121 94.0477 189.792 94.2671 190.032 94.5069C190.271 94.7466 190.491 95.4179 190.723 96.1286C191.06 97.1589 191.423 98.2719 191.914 98.2719C192.405 98.2719 192.769 97.1589 193.106 96.1286C193.338 95.4179 193.557 94.7466 193.797 94.5069C194.036 94.2671 194.708 94.0477 195.419 93.8155C196.449 93.4791 197.562 93.1158 197.562 92.6244C197.562 92.1331 196.449 91.7698 195.419 91.4333C194.708 91.2011 194.036 90.9817 193.797 90.7419C193.557 90.5022 193.338 89.8309 193.106 89.1202C192.769 88.0899 192.405 86.9769 191.914 86.9769C191.423 86.9769 191.06 88.0899 190.723 89.1202Z" fill="url(#paint17_linear_2490_46586)"/>
<path d="M148.838 190.305C148.605 191.015 148.386 191.687 148.146 191.926C147.907 192.166 147.235 192.386 146.524 192.618C145.494 192.954 144.381 193.318 144.381 193.809C144.381 194.3 145.494 194.663 146.524 195C147.235 195.232 147.907 195.452 148.146 195.691C148.386 195.931 148.605 196.602 148.838 197.313C149.174 198.343 149.538 199.456 150.029 199.456C150.52 199.456 150.884 198.343 151.22 197.313C151.453 196.602 151.672 195.931 151.911 195.691C152.151 195.452 152.823 195.232 153.534 195C154.564 194.664 155.676 194.3 155.676 193.809C155.676 193.318 154.564 192.954 153.534 192.618C152.823 192.386 152.151 192.166 151.911 191.926C151.672 191.687 151.453 191.015 151.22 190.305C150.884 189.274 150.52 188.161 150.029 188.161C149.538 188.161 149.174 189.274 148.838 190.305Z" fill="url(#paint18_linear_2490_46586)"/>
<path d="M212.495 187.35C212.664 186.835 212.846 186.279 213.091 186.279C213.336 186.279 213.518 186.835 213.687 187.35C213.803 187.706 213.912 188.041 214.032 188.161C214.152 188.281 214.488 188.391 214.843 188.507C215.358 188.675 215.915 188.857 215.915 189.102C215.915 189.348 215.358 189.53 214.843 189.698C214.488 189.814 214.152 189.924 214.032 190.044C213.913 190.163 213.803 190.499 213.687 190.854C213.518 191.37 213.336 191.926 213.091 191.926C212.846 191.926 212.664 191.37 212.495 190.854C212.379 190.499 212.269 190.163 212.15 190.044C212.03 189.924 211.694 189.814 211.339 189.698C210.823 189.53 210.267 189.348 210.267 189.102C210.267 188.857 210.823 188.675 211.339 188.507C211.694 188.391 212.03 188.281 212.15 188.161C212.269 188.041 212.379 187.706 212.495 187.35Z" fill="url(#paint19_linear_2490_46586)"/>
<path d="M140.962 143.112C140.846 143.467 140.736 143.803 140.616 143.922C140.497 144.042 140.161 144.152 139.805 144.268C139.29 144.436 138.734 144.618 138.734 144.864C138.734 145.109 139.29 145.291 139.805 145.459C140.161 145.575 140.497 145.685 140.616 145.805C140.736 145.925 140.846 146.26 140.962 146.616C141.13 147.131 141.312 147.687 141.558 147.687C141.803 147.687 141.985 147.131 142.153 146.616C142.269 146.26 142.379 145.925 142.499 145.805C142.619 145.685 142.955 145.575 143.31 145.459C143.825 145.291 144.381 145.109 144.381 144.864C144.381 144.618 143.825 144.436 143.31 144.268C142.955 144.152 142.619 144.042 142.499 143.922C142.379 143.803 142.269 143.467 142.153 143.112C141.985 142.596 141.803 142.04 141.558 142.04C141.312 142.04 141.13 142.596 140.962 143.112Z" fill="url(#paint20_linear_2490_46586)"/>
<path d="M201.202 137.464C201.37 136.949 201.552 136.392 201.797 136.392C202.043 136.392 202.225 136.949 202.393 137.464C202.509 137.819 202.619 138.155 202.739 138.275C202.858 138.395 203.194 138.504 203.55 138.621C204.065 138.789 204.621 138.97 204.621 139.216C204.621 139.462 204.065 139.643 203.55 139.812C203.194 139.928 202.858 140.037 202.739 140.157C202.619 140.277 202.509 140.613 202.393 140.968C202.225 141.483 202.043 142.04 201.797 142.04C201.552 142.04 201.37 141.483 201.202 140.968C201.086 140.613 200.976 140.277 200.856 140.157C200.736 140.037 200.401 139.928 200.045 139.812C199.53 139.643 198.974 139.462 198.974 139.216C198.974 138.97 199.53 138.789 200.045 138.621C200.401 138.504 200.736 138.395 200.856 138.275C200.976 138.155 201.086 137.819 201.202 137.464Z" fill="url(#paint21_linear_2490_46586)"/>
<path d="M126.843 97.9316C126.727 98.2869 126.617 98.6226 126.497 98.7425C126.378 98.8624 126.042 98.9721 125.686 99.0882C125.171 99.2564 124.615 99.438 124.615 99.6837C124.615 99.9294 125.171 100.111 125.686 100.279C126.042 100.395 126.378 100.505 126.497 100.625C126.617 100.745 126.727 101.08 126.843 101.436C127.011 101.951 127.193 102.507 127.439 102.507C127.684 102.507 127.866 101.951 128.034 101.436C128.15 101.08 128.26 100.745 128.38 100.625C128.5 100.505 128.835 100.395 129.191 100.279C129.706 100.111 130.262 99.9294 130.262 99.6837C130.262 99.438 129.706 99.2564 129.191 99.0882C128.835 98.9721 128.5 98.8624 128.38 98.7425C128.26 98.6226 128.15 98.2869 128.034 97.9316C127.866 97.4164 127.684 96.86 127.439 96.86C127.193 96.86 127.011 97.4164 126.843 97.9316Z" fill="url(#paint22_linear_2490_46586)"/>
<path d="M169.325 142.04C169.325 143.599 170.589 144.864 172.148 144.864C173.708 144.864 174.972 143.599 174.972 142.04C174.972 140.48 173.708 139.216 172.148 139.216C170.589 139.216 169.325 140.48 169.325 142.04Z" fill="url(#paint23_linear_2490_46586)"/>
<path d="M149.088 135.451C150.127 135.451 150.97 134.608 150.97 133.569C150.97 132.529 150.127 131.686 149.088 131.686C148.048 131.686 147.205 132.529 147.205 133.569C147.205 134.608 148.048 135.451 149.088 135.451Z" fill="url(#paint24_linear_2490_46586)"/>
<path d="M190.032 201.339C191.072 201.339 191.915 200.496 191.915 199.456C191.915 198.417 191.072 197.574 190.032 197.574C188.992 197.574 188.15 198.417 188.15 199.456C188.15 200.496 188.992 201.339 190.032 201.339Z" fill="url(#paint25_linear_2490_46586)"/>
<path d="M239.917 142.04C239.917 144.119 238.231 145.805 236.152 145.805C234.072 145.805 232.387 144.119 232.387 142.04C232.387 139.96 234.072 138.275 236.152 138.275C238.231 138.275 239.917 139.96 239.917 142.04Z" fill="url(#paint26_linear_2490_46586)"/>
<path d="M193.797 152.864C194.837 152.864 195.679 152.022 195.679 150.982C195.679 149.942 194.837 149.099 193.797 149.099C192.757 149.099 191.914 149.942 191.914 150.982C191.914 152.022 192.757 152.864 193.797 152.864Z" fill="url(#paint27_linear_2490_46586)"/>
</g>
</g>
</g>
<path d="M181.655 75.1406C187.336 73.3519 186.836 67.7298 186.836 67.7298C186.836 67.7298 183.996 64.3837 178.368 66.2371C173.1 67.9734 172.283 71.7266 172.283 71.7266C172.283 71.7266 175.16 77.1853 181.655 75.1406Z" fill="white"/>
<path opacity="0.3" d="M91.8404 97.9939C92.4868 96.8144 93.1559 95.6492 93.8473 94.4989C38.8176 87.9088 0.0670664 91.2632 -3.43561 105.283C-8.7508 126.557 69.1122 164.333 170.476 189.658C271.84 214.983 358.321 218.268 363.636 196.994C367.158 182.899 334.166 161.559 282.018 141.397C282.077 142.554 282.116 143.716 282.136 144.882C324.063 161.275 350.151 177.74 347.5 188.351C343.233 205.43 266.123 200.874 175.271 178.175C84.4189 155.476 14.2277 123.23 18.4948 106.151C21.0503 95.9226 49.7299 93.4536 91.8404 97.9939Z" fill="#EEEEF0"/>
</g>
<g opacity="0.2" clip-path="url(#clip1_2490_46586)">
<g style="mix-blend-mode:luminosity">
<mask id="mask1_2490_46586" style="mask-type:alpha" maskUnits="userSpaceOnUse" x="395" y="3" width="121" height="121">
<circle cx="455.5" cy="63.5001" r="59.5" transform="rotate(3.44303 455.5 63.5001)" fill="white"/>
</mask>
<g mask="url(#mask1_2490_46586)">
<path d="M367.516 11.3053L376.456 10.9513C385.395 10.5973 403.275 9.88938 421.082 10.3662C438.89 10.8431 456.627 12.5047 474.345 14.4626C492.064 16.4205 509.765 18.6745 527.448 21.2248C545.131 23.7751 562.796 26.6215 580.658 26.2098C598.519 25.798 616.576 22.128 625.605 20.293L634.633 18.458L635.293 7.49854L626.407 6.96392C617.521 6.42929 599.749 5.36003 581.976 4.29078C564.204 3.22152 546.432 2.15227 528.66 1.08301C510.888 0.0137573 493.116 -1.0555 475.343 -2.12475C457.571 -3.19401 439.799 -4.26326 422.027 -5.33252C404.255 -6.40177 386.483 -7.47103 377.596 -8.00566L368.71 -8.54028L367.516 11.3053Z" fill="#61B3FF"/>
<path d="M365.912 37.9636L374.656 40.8679C383.4 43.7721 400.887 49.5806 418.409 54.7967C435.932 60.0128 453.49 64.6365 471.316 64.8172C489.141 64.9978 507.234 60.7354 525.203 58.5464C543.171 56.3575 561.014 56.2419 578.786 57.3112C596.559 58.3804 614.259 60.6345 623.11 61.7615L631.96 62.8885L634.669 17.8657L625.64 19.7007C616.612 21.5357 598.555 25.2057 580.693 25.6175C562.832 26.0292 545.167 23.1828 527.484 20.6325C509.801 18.0822 492.1 15.8281 474.381 13.8703C456.662 11.9124 438.926 10.2508 421.118 9.77391C403.31 9.29706 385.431 10.005 376.492 10.359L367.552 10.713L365.912 37.9636Z" fill="#4950FF"/>
<path d="M363.881 71.7306L372.803 71.6728C381.724 71.6151 399.568 71.4995 416.984 78.4928C434.399 85.4861 451.387 99.5883 469.053 102.435C486.718 105.281 505.06 96.872 523.26 90.8324C541.46 84.7928 559.517 81.1228 577.218 83.3769C594.919 85.6309 612.263 93.809 620.936 97.8981L629.608 101.987L631.996 62.296L623.146 61.169C614.295 60.0419 596.594 57.7879 578.822 56.7186C561.05 55.6494 543.206 55.7649 525.238 57.9539C507.27 60.1429 489.177 64.4053 471.351 64.2246C453.526 64.044 435.968 59.4203 418.445 54.2042C400.922 48.9881 383.435 43.1796 374.692 40.2753L365.948 37.3711L363.881 71.7306Z" fill="#2D8EFF"/>
<path d="M362.384 96.6117L371.377 95.3691C380.37 94.1265 398.356 91.6413 415.914 96.265C433.473 100.889 450.603 112.621 468.304 114.875C486.005 117.129 504.276 109.905 522.494 103.569C540.712 97.2333 558.876 91.7861 576.505 95.225C594.135 98.6639 611.23 110.989 619.777 117.151L628.325 123.314L629.644 101.395L620.971 97.3057C612.299 93.2167 594.955 85.0385 577.254 82.7845C559.553 80.5304 541.496 84.2004 523.296 90.24C505.096 96.2796 486.753 104.689 469.088 101.842C451.423 98.9959 434.435 84.8937 417.019 77.9004C399.603 70.9071 381.76 71.0227 372.838 71.0805L363.917 71.1382L362.384 96.6117Z" fill="#35CFFF"/>
<path d="M361.422 112.607L370.486 110.179C379.55 107.752 397.679 102.897 415.326 106.04C432.974 109.182 450.14 120.322 467.841 122.577C485.542 124.831 503.777 118.199 521.977 112.159C540.177 106.119 558.341 100.672 575.953 104.407C593.565 108.142 610.624 121.06 619.154 127.518L627.683 133.977L628.36 122.721L619.813 116.559C611.266 110.396 594.171 98.0714 576.541 94.6325C558.911 91.1937 540.747 96.6409 522.529 102.977C504.312 109.312 486.041 116.537 468.34 114.283C450.639 112.029 433.508 100.296 415.95 95.6725C398.392 91.0488 380.406 93.534 371.413 94.7766L362.42 96.0192L361.422 112.607Z" fill="#5214A4"/>
<path d="M358.748 157.037L367.617 157.868C376.485 158.699 394.222 160.36 412.065 160.245C429.908 160.129 447.859 158.237 465.631 159.306C483.403 160.375 500.997 164.406 518.751 165.772C536.506 167.137 554.42 165.837 572.317 164.833C590.214 163.829 608.093 163.121 617.033 162.767L625.972 162.413L627.719 133.385L619.189 126.926C610.66 120.467 593.6 107.55 575.989 103.815C558.377 100.08 540.213 105.527 522.013 111.567C503.813 117.606 485.577 124.238 467.876 121.984C450.176 119.73 433.009 108.59 415.362 105.447C397.714 102.305 379.586 107.159 370.522 109.587L361.457 112.014L358.748 157.037Z" fill="#565D87"/>
</g>
</g>
</g>
<circle opacity="0.12" cx="600.5" cy="208.5" r="39" fill="white"/>
<g opacity="0.12">
<path d="M607.327 176.026C607.138 177.096 605.396 177.682 603.435 177.336C601.474 176.989 600.038 175.842 600.227 174.772C600.416 173.703 602.158 173.116 604.119 173.463C606.08 173.809 607.516 174.957 607.327 176.026Z" fill="black"/>
<path d="M592.192 190.169C591.832 192.204 589.952 193.572 587.991 193.226C586.03 192.88 584.732 190.95 585.092 188.915C585.451 186.881 587.332 185.512 589.292 185.858C591.253 186.205 592.551 188.135 592.192 190.169Z" fill="black"/>
<path d="M606.932 235.93C608.266 236.166 609.548 235.228 609.794 233.835C610.04 232.441 609.158 231.121 607.823 230.885C606.488 230.649 605.207 231.588 604.961 232.981C604.714 234.374 605.597 235.695 606.932 235.93Z" fill="black"/>
<path d="M596.172 213.365C595.847 215.203 594.053 216.423 592.164 216.089C590.275 215.756 589.008 213.995 589.332 212.157C589.657 210.318 591.452 209.098 593.34 209.432C595.229 209.766 596.497 211.526 596.172 213.365Z" fill="black"/>
<path d="M614.475 216.865C615.988 217.132 617.383 216.392 617.592 215.211C617.8 214.03 616.743 212.856 615.23 212.589C613.717 212.322 612.322 213.062 612.113 214.243C611.905 215.424 612.962 216.598 614.475 216.865Z" fill="black"/>
<path d="M616 201.623C615.063 202.172 613.487 201.224 612.481 199.506C611.475 197.788 611.419 195.95 612.356 195.401C613.293 194.853 614.869 195.8 615.875 197.519C616.881 199.237 616.937 201.074 616 201.623Z" fill="black"/>
<path d="M629.64 211.96C630.646 213.678 632.221 214.626 633.158 214.077C634.095 213.528 634.039 211.69 633.033 209.972C632.027 208.254 630.452 207.306 629.515 207.855C628.578 208.404 628.634 210.242 629.64 211.96Z" fill="black"/>
<path d="M572.839 194.831C573.899 195.065 574.411 196.831 573.982 198.775C573.553 200.72 572.346 202.106 571.285 201.872C570.225 201.638 569.713 199.872 570.142 197.928C570.571 195.984 571.778 194.597 572.839 194.831Z" fill="black"/>
<path d="M588.312 234.427C586.657 233.321 584.826 233.156 584.222 234.06C583.619 234.963 584.472 236.591 586.128 237.697C587.783 238.803 589.614 238.968 590.218 238.065C590.821 237.162 589.968 235.533 588.312 234.427Z" fill="black"/>
</g>
<defs>
<filter id="filter0_i_2490_46586" x="121.123" y="96.8064" width="106.169" height="107.961" filterUnits="userSpaceOnUse" color-interpolation-filters="sRGB">
<feFlood flood-opacity="0" result="BackgroundImageFix"/>
<feBlend mode="normal" in="SourceGraphic" in2="BackgroundImageFix" result="shape"/>
<feColorMatrix in="SourceAlpha" type="matrix" values="0 0 0 0 0 0 0 0 0 0 0 0 0 0 0 0 0 0 127 0" result="hardAlpha"/>
<feOffset/>
<feGaussianBlur stdDeviation="16.0479"/>
<feComposite in2="hardAlpha" operator="arithmetic" k2="-1" k3="1"/>
<feColorMatrix type="matrix" values="0 0 0 0 0 0 0 0 0 0 0 0 0 0 0 0 0 0 1 0"/>
<feBlend mode="normal" in2="shape" result="effect1_innerShadow_2490_46586"/>
</filter>
<filter id="filter1_d_2490_46586" x="120.782" y="85.0945" width="121.557" height="121.09" filterUnits="userSpaceOnUse" color-interpolation-filters="sRGB">
<feFlood flood-opacity="0" result="BackgroundImageFix"/>
<feColorMatrix in="SourceAlpha" type="matrix" values="0 0 0 0 0 0 0 0 0 0 0 0 0 0 0 0 0 0 127 0" result="hardAlpha"/>
<feOffset dy="2.423"/>
<feGaussianBlur stdDeviation="1.2115"/>
<feComposite in2="hardAlpha" operator="out"/>
<feColorMatrix type="matrix" values="0 0 0 0 0 0 0 0 0 0 0 0 0 0 0 0 0 0 0.25 0"/>
<feBlend mode="normal" in2="BackgroundImageFix" result="effect1_dropShadow_2490_46586"/>
<feBlend mode="normal" in="SourceGraphic" in2="effect1_dropShadow_2490_46586" result="shape"/>
</filter>
<linearGradient id="paint0_linear_2490_46586" x1="103.733" y1="76.1849" x2="255.897" y2="218.115" gradientUnits="userSpaceOnUse">
<stop stop-color="#1B91F3"/>
<stop offset="1" stop-color="#0B68CB"/>
</linearGradient>
<radialGradient id="paint1_radial_2490_46586" cx="0" cy="0" r="1" gradientUnits="userSpaceOnUse" gradientTransform="translate(103.454 125.019) rotate(66.5178) scale(91.2735 87.4365)">
<stop offset="0.53" stop-color="#0B4186" stop-opacity="0"/>
<stop offset="1" stop-color="#0B4186" stop-opacity="0.45"/>
</radialGradient>
<radialGradient id="paint2_radial_2490_46586" cx="0" cy="0" r="1" gradientUnits="userSpaceOnUse" gradientTransform="translate(176.985 87.5339) rotate(-127.996) scale(19.5124 32.2886)">
<stop stop-color="#EF3ACC" stop-opacity="0"/>
<stop offset="1" stop-color="#EF3ACC" stop-opacity="0.64"/>
</radialGradient>
<linearGradient id="paint3_linear_2490_46586" x1="146.072" y1="112.516" x2="200.825" y2="51.5647" gradientUnits="userSpaceOnUse">
<stop stop-color="#0F5DB0"/>
<stop offset="1" stop-color="#0F5DB0" stop-opacity="0"/>
</linearGradient>
<radialGradient id="paint4_radial_2490_46586" cx="0" cy="0" r="1" gradientUnits="userSpaceOnUse" gradientTransform="translate(133.497 198.157) rotate(-64.2625) scale(142.392 175.896)">
<stop offset="0.02" stop-color="#094188"/>
<stop offset="0.97" stop-color="#0B4186" stop-opacity="0"/>
</radialGradient>
<linearGradient id="paint5_linear_2490_46586" x1="242.03" y1="156.649" x2="216.572" y2="219.158" gradientUnits="userSpaceOnUse">
<stop stop-color="#E247C4" stop-opacity="0"/>
<stop offset="1" stop-color="#E247C4" stop-opacity="0.64"/>
</linearGradient>
<linearGradient id="paint6_linear_2490_46586" x1="84.16" y1="100.591" x2="106.59" y2="190.866" gradientUnits="userSpaceOnUse">
<stop offset="0.1" stop-color="#EF3ACC"/>
<stop offset="1" stop-color="#EF3ACC" stop-opacity="0"/>
</linearGradient>
<linearGradient id="paint7_linear_2490_46586" x1="174.208" y1="112.667" x2="174.208" y2="203.953" gradientUnits="userSpaceOnUse">
<stop stop-color="#0D2241"/>
<stop offset="0.58" stop-color="#1C0C36"/>
<stop offset="1" stop-color="#2E0B5B"/>
</linearGradient>
<linearGradient id="paint8_linear_2490_46586" x1="174.208" y1="112.667" x2="174.208" y2="203.953" gradientUnits="userSpaceOnUse">
<stop stop-color="white"/>
<stop offset="0.91" stop-color="#BEE1FE"/>
<stop offset="1" stop-color="#96CEFD"/>
</linearGradient>
<linearGradient id="paint9_linear_2490_46586" x1="133.56" y1="144.026" x2="243.765" y2="145.147" gradientUnits="userSpaceOnUse">
<stop stop-color="#37ADF9"/>
<stop offset="1" stop-color="#AE55F7"/>
</linearGradient>
<linearGradient id="paint10_linear_2490_46586" x1="133.56" y1="144.026" x2="243.765" y2="145.147" gradientUnits="userSpaceOnUse">
<stop stop-color="#37ADF9"/>
<stop offset="1" stop-color="#AE55F7"/>
</linearGradient>
<linearGradient id="paint11_linear_2490_46586" x1="133.56" y1="144.026" x2="243.765" y2="145.147" gradientUnits="userSpaceOnUse">
<stop stop-color="#37ADF9"/>
<stop offset="1" stop-color="#AE55F7"/>
</linearGradient>
<linearGradient id="paint12_linear_2490_46586" x1="133.56" y1="144.026" x2="243.765" y2="145.147" gradientUnits="userSpaceOnUse">
<stop stop-color="#37ADF9"/>
<stop offset="1" stop-color="#AE55F7"/>
</linearGradient>
<linearGradient id="paint13_linear_2490_46586" x1="133.56" y1="144.026" x2="243.765" y2="145.147" gradientUnits="userSpaceOnUse">
<stop stop-color="#37ADF9"/>
<stop offset="1" stop-color="#AE55F7"/>
</linearGradient>
<linearGradient id="paint14_linear_2490_46586" x1="123.205" y1="142.378" x2="255.109" y2="144.135" gradientUnits="userSpaceOnUse">
<stop stop-color="#37ADF9"/>
<stop offset="1" stop-color="#AE55F7"/>
</linearGradient>
<linearGradient id="paint15_linear_2490_46586" x1="123.205" y1="142.378" x2="255.109" y2="144.135" gradientUnits="userSpaceOnUse">
<stop stop-color="#37ADF9"/>
<stop offset="1" stop-color="#AE55F7"/>
</linearGradient>
<linearGradient id="paint16_linear_2490_46586" x1="124.615" y1="143.217" x2="283.468" y2="144.958" gradientUnits="userSpaceOnUse">
<stop stop-color="#37ADF9"/>
<stop offset="1" stop-color="#AE55F7"/>
</linearGradient>
<linearGradient id="paint17_linear_2490_46586" x1="124.615" y1="143.217" x2="283.468" y2="144.958" gradientUnits="userSpaceOnUse">
<stop stop-color="#37ADF9"/>
<stop offset="1" stop-color="#AE55F7"/>
</linearGradient>
<linearGradient id="paint18_linear_2490_46586" x1="124.615" y1="143.217" x2="283.468" y2="144.958" gradientUnits="userSpaceOnUse">
<stop stop-color="#37ADF9"/>
<stop offset="1" stop-color="#AE55F7"/>
</linearGradient>
<linearGradient id="paint19_linear_2490_46586" x1="124.615" y1="143.217" x2="283.468" y2="144.958" gradientUnits="userSpaceOnUse">
<stop stop-color="#37ADF9"/>
<stop offset="1" stop-color="#AE55F7"/>
</linearGradient>
<linearGradient id="paint20_linear_2490_46586" x1="124.615" y1="143.217" x2="283.468" y2="144.958" gradientUnits="userSpaceOnUse">
<stop stop-color="#37ADF9"/>
<stop offset="1" stop-color="#AE55F7"/>
</linearGradient>
<linearGradient id="paint21_linear_2490_46586" x1="124.615" y1="143.217" x2="283.468" y2="144.958" gradientUnits="userSpaceOnUse">
<stop stop-color="#37ADF9"/>
<stop offset="1" stop-color="#AE55F7"/>
</linearGradient>
<linearGradient id="paint22_linear_2490_46586" x1="124.615" y1="143.217" x2="283.468" y2="144.958" gradientUnits="userSpaceOnUse">
<stop stop-color="#37ADF9"/>
<stop offset="1" stop-color="#AE55F7"/>
</linearGradient>
<linearGradient id="paint23_linear_2490_46586" x1="124.615" y1="143.217" x2="283.468" y2="144.958" gradientUnits="userSpaceOnUse">
<stop stop-color="#37ADF9"/>
<stop offset="1" stop-color="#AE55F7"/>
</linearGradient>
<linearGradient id="paint24_linear_2490_46586" x1="124.615" y1="143.217" x2="283.468" y2="144.958" gradientUnits="userSpaceOnUse">
<stop stop-color="#37ADF9"/>
<stop offset="1" stop-color="#AE55F7"/>
</linearGradient>
<linearGradient id="paint25_linear_2490_46586" x1="124.615" y1="143.217" x2="283.468" y2="144.958" gradientUnits="userSpaceOnUse">
<stop stop-color="#37ADF9"/>
<stop offset="1" stop-color="#AE55F7"/>
</linearGradient>
<linearGradient id="paint26_linear_2490_46586" x1="124.615" y1="143.217" x2="283.468" y2="144.958" gradientUnits="userSpaceOnUse">
<stop stop-color="#37ADF9"/>
<stop offset="1" stop-color="#AE55F7"/>
</linearGradient>
<linearGradient id="paint27_linear_2490_46586" x1="124.615" y1="143.217" x2="283.468" y2="144.958" gradientUnits="userSpaceOnUse">
<stop stop-color="#37ADF9"/>
<stop offset="1" stop-color="#AE55F7"/>
</linearGradient>
<clipPath id="clip0_2490_46586">
<rect width="367.145" height="213" fill="white" transform="translate(-3.71686 35.0002)"/>
</clipPath>
<clipPath id="clip1_2490_46586">
<rect width="119" height="119" fill="white" transform="translate(399.681 0.53418) rotate(3.44303)"/>
</clipPath>
</defs>
</svg>
