<!-- This Source Code Form is subject to the terms of the Mozilla Public
   - License, v. 2.0. If a copy of the MPL was not distributed with this
   - file, You can obtain one at http://mozilla.org/MPL/2.0/. -->
<svg xmlns="http://www.w3.org/2000/svg" fill="currentColor" viewBox="0 0 20 20" height="20px" width="20px">
  <path d="M9.5 1.5c-.653 0-1.222.453-1.5 1L.824 14.96C.5 15.5.502 15.611.5 16A1.5 1.5 0 0 0 2 17.5h15a1.5 1.5 0 0 0 1.5-1.5c0-.394 0-.5-.332-1.053L11 2.5c-.282-.553-.844-1-1.5-1z" opacity=".2"/>
  <path d="M9.5 1c-.884 0-1.593.58-1.945 1.273l.011-.023L.395 14.703v.002c-.34.565-.393.907-.395 1.293A.5.5 0 0 0 0 16c0 1.099.901 2 2 2h15c1.099 0 2-.901 2-2 0-.394-.058-.733-.404-1.31L11.434 2.25l.011.023C11.091 1.578 10.383 1 9.5 1Zm0 1c.429 0 .845.318 1.055.729a.5.5 0 0 0 .011.021l7.168 12.447a.5.5 0 0 0 .006.008c.318.529.26.401.26.795 0 .558-.442 1-1 1H2a.993.993 0 0 1-1-.998V16c.001-.385-.055-.272.252-.783a.5.5 0 0 0 .006-.006L8.434 2.75a.5.5 0 0 0 .011-.023C8.65 2.326 9.078 2 9.5 2Zm0 4a.5.5 0 0 0-.5.5v5a.5.5 0 0 0 .5.5.5.5 0 0 0 .5-.5v-5a.5.5 0 0 0-.5-.5Zm0 7a.5.5 0 0 0-.5.5.5.5 0 0 0 .5.5.5.5 0 0 0 .5-.5.5.5 0 0 0-.5-.5Z"/>
</svg>
