<svg xmlns="http://www.w3.org/2000/svg" viewBox="0 0 24 24" fill="currentColor" height="24" width="24">
  <path fill-opacity="context-fill-opacity" d="M18 23.5a1.5 1.5 0 0 1-1.155-.555L12.39 17.5H3.63A3.645 3.645 0 0 1 0 13.87V4.63A3.645 3.645 0 0 1 3.63 1h16.74A3.645 3.645 0 0 1 24 4.63v9.24a3.645 3.645 0 0 1-3.63 3.63h-.87V22a1.5 1.5 0 0 1-1.5 1.5ZM3.63 4a.63.63 0 0 0-.63.63v9.24c0 .348.282.63.63.63h9.465a1.5 1.5 0 0 1 1.155.555l2.25 2.73V16a1.5 1.5 0 0 1 1.5-1.5h2.37a.63.63 0 0 0 .63-.63V4.63a.63.63 0 0 0-.63-.63Z"/>
</svg>
