<svg width="20" height="20" viewBox="0 0 20 20" fill="none" xmlns="http://www.w3.org/2000/svg">
<path d="M4.49992 7C4.36732 7.00002 4.24016 7.05271 4.14641 7.14648C4.05266 7.24025 4 7.36741 4 7.5C4 7.63259 4.05266 7.75975 4.14641 7.85352L5.14641 8.85352L9.14641 12.8535C9.19415 12.9012 9.24983 12.9365 9.30852 12.9609C9.30982 12.9615 9.31112 12.9623 9.31242 12.9629C9.37261 12.9873 9.43595 13 9.49992 13C9.56389 13 9.62724 12.9873 9.68742 12.9629C9.68873 12.9622 9.69003 12.9616 9.69132 12.9609C9.75 12.9365 9.8057 12.9012 9.85343 12.8535L13.8534 8.85347L14.8534 7.85347C14.9472 7.7597 14.9998 7.63254 14.9998 7.49995C14.9998 7.36736 14.9472 7.2402 14.8534 7.14644C14.7597 7.05269 14.6325 7.00003 14.4999 7.00003C14.3673 7.00003 14.2402 7.05269 14.1464 7.14644L13.1464 8.14644L9.49992 11.793L5.85344 8.14648L4.85344 7.14648C4.75969 7.05271 4.63252 7.00002 4.49992 7Z" fill="currentColor"/>
</svg>
