<svg viewBox="0 0 7 12" version="1.1" xmlns="http://www.w3.org/2000/svg" xmlns:xlink="http://www.w3.org/1999/xlink">
    <g id="UI" stroke="none" stroke-width="1" fill="currentColor" fill-rule="evenodd">
        <path d="M6.91574413,5.89284986 C6.91574413,5.97767139 6.87333336,6.07309561 6.80971722,6.13671176 L1.86886311,11.0775659 C1.80524696,11.141182 1.70982274,11.1835928 1.62500121,11.1835928 C1.54017968,11.1835928 1.44475546,11.141182 1.38113932,11.0775659 L0.851004755,10.5474313 C0.787388608,10.4838152 0.744977843,10.3989936 0.744977843,10.3035694 C0.744977843,10.2187479 0.787388608,10.1233237 0.851004755,10.0597075 L5.0178624,5.89284986 L0.851004755,1.72599222 C0.787388608,1.66237607 0.744977843,1.56695185 0.744977843,1.48213032 C0.744977843,1.39730879 0.787388608,1.30188457 0.851004755,1.23826842 L1.38113932,0.70813386 C1.44475546,0.644517713 1.54017968,0.602106948 1.62500121,0.602106948 C1.70982274,0.602106948 1.80524696,0.644517713 1.86886311,0.70813386 L6.80971722,5.64898796 C6.87333336,5.71260411 6.91574413,5.80802833 6.91574413,5.89284986 Z"></path>
    </g>
</svg>
