<svg viewBox="0 0 25 25" version="1.1" xmlns="http://www.w3.org/2000/svg" xmlns:xlink="http://www.w3.org/1999/xlink">
    <g id="UI" stroke="none" stroke-width="1" fill="currentColor" fill-rule="evenodd">
        <path d="M17.5122185,9.1439567 L21.7633396,4.89283556 L20.2108824,3.34037835 L15.9597613,7.59149949 L17.5122185,9.1439567 Z M23.9977173,4.89283556 C23.9977173,5.13948764 23.9106636,5.37163077 23.7365563,5.54573812 L5.07805187,24.2042425 C4.90394452,24.3783499 4.67180139,24.4654035 4.42514931,24.4654035 C4.17849723,24.4654035 3.94635409,24.3783499 3.77224674,24.2042425 L0.899475463,21.3314712 C0.725368112,21.1573639 0.638314437,20.9252207 0.638314437,20.6785687 C0.638314437,20.4319166 0.725368112,20.1997734 0.899475463,20.0256661 L19.5579798,1.36716171 C19.7320872,1.19305436 19.9642303,1.10600069 20.2108824,1.10600069 C20.4575345,1.10600069 20.6896776,1.19305436 20.863785,1.36716171 L23.7365563,4.23993299 C23.9106636,4.41404034 23.9977173,4.64618348 23.9977173,4.89283556 Z M4.39613142,2.13613584 L5.81800811,2.57140422 L4.39613142,3.00667259 L3.96086304,4.42854929 L3.52559466,3.00667259 L2.10371797,2.57140422 L3.52559466,2.13613584 L3.96086304,0.714259148 L4.39613142,2.13613584 Z M9.47426247,4.48658507 L12.3180159,5.35712183 L9.47426247,6.22765858 L8.60372572,9.07141197 L7.73318897,6.22765858 L4.88943558,5.35712183 L7.73318897,4.48658507 L8.60372572,1.64283168 L9.47426247,4.48658507 Z M22.9675821,11.4218612 L24.3894588,11.8571296 L22.9675821,12.2923979 L22.5323138,13.7142746 L22.0970454,12.2923979 L20.6751687,11.8571296 L22.0970454,11.4218612 L22.5323138,9.9999845 L22.9675821,11.4218612 Z M13.6818568,2.13613584 L15.1037335,2.57140422 L13.6818568,3.00667259 L13.2465884,4.42854929 L12.81132,3.00667259 L11.3894433,2.57140422 L12.81132,2.13613584 L13.2465884,0.714259148 L13.6818568,2.13613584 Z"></path>
    </g>
</svg>
