<svg xmlns="http://www.w3.org/2000/svg" fill="currentColor" viewBox="0 0 24 24" height="24" width="24">
  <path d="M20.907 12.036c1.058-1.072 1.593-2.31 1.593-3.809s-.535-3.05-1.593-4.12a5.352 5.352 0 0 0-3.82-1.607c-1.38 0-2.761.913-3.82 1.984l-1.273 1.289-1.273-1.29C9.663 3.414 8.282 2.5 6.901 2.5c-1.38 0-2.762.536-3.82 1.607C2.023 5.177 1.5 6.728 1.5 8.227c0 1.5.523 2.737 1.581 3.809 2.62 2.586 5.04 5.027 7.514 7.756.35.354.875.708 1.4.708.524 0 1.049-.354 1.398-.708 2.423-2.775 4.929-5.14 7.514-7.756z" opacity=".2"/>
  <path d="M6.9 2a5.86 5.86 0 0 0-4.175 1.756C1.555 4.939 1 6.61 1 8.226c0 1.617.59 3.01 1.725 4.16a.5.5 0 0 0 .005.007c2.618 2.583 5.03 5.015 7.495 7.734a.5.5 0 0 0 .015.016c.409.413 1.004.857 1.754.857s1.348-.444 1.756-.857a.5.5 0 0 0 .02-.022c2.403-2.752 4.9-5.11 7.492-7.734a.5.5 0 0 0 .002 0C22.398 11.237 23 9.845 23 8.227c0-1.618-.569-3.287-1.736-4.47A5.85 5.85 0 0 0 17.088 2c-1.6 0-3.064 1.008-4.176 2.133l-.918.93-.918-.932C9.966 3.009 8.502 2 6.9 2Zm0 1c1.16 0 2.46.818 3.465 1.834l1.274 1.291a.5.5 0 0 0 .71 0l1.274-1.29C14.629 3.82 15.927 3.002 17.086 3a4.85 4.85 0 0 1 3.463 1.457.5.5 0 0 0 .002.002C21.498 5.417 22 6.847 22 8.227c0 1.379-.468 2.462-1.45 3.457-2.57 2.6-5.078 4.97-7.515 7.757-.29.294-.742.559-1.04.559-.301 0-.752-.264-1.044-.559-2.476-2.73-4.898-5.174-7.514-7.755C2.458 10.692 2 9.61 2 8.226c0-1.382.491-2.81 1.438-3.767A4.846 4.846 0 0 1 6.9 3Z"/>
</svg>
