<!-- This Source Code Form is subject to the terms of the Mozilla Public
   - License, v. 2.0. If a copy of the MPL was not distributed with this
   - file, You can obtain one at http://mozilla.org/MPL/2.0/. -->
<svg xmlns="http://www.w3.org/2000/svg" viewBox="0 0 20 20" height="20px" width="20px" fill="currentColor">
  <path d="M17.21 10.447c.857-.894 1.29-1.925 1.29-3.175 0-1.249-.433-2.541-1.29-3.433A4.333 4.46 0 0 0 14.118 2.5c-1.117 0-2.235.76-3.092 1.653l-1.03 1.074-1.031-1.075C8.108 3.262 6.99 2.5 5.872 2.5A4.274 4.274 0 0 0 2.78 3.84c-.857.89-1.28 2.183-1.28 3.432 0 1.25.423 2.281 1.28 3.175 2.12 2.155 4.08 4.189 6.083 6.463.283.295.708.59 1.133.59.424 0 .85-.295 1.132-.59 1.961-2.313 3.99-4.283 6.082-6.463z" opacity="0.2"/>
  <path d="M5.873 2A4.78 4.78 0 0 0 2.42 3.492C1.453 4.5 1 5.912 1 7.273c0 1.363.485 2.547 1.418 3.52l.004.002.002.002c2.118 2.153 4.07 4.18 6.064 6.443l.006.008.008.008c.341.355.838.744 1.494.744s1.152-.388 1.492-.744l.012-.012.01-.01c1.942-2.29 3.96-4.253 6.06-6.441h.002C18.504 9.822 19 8.638 19 7.273c0-1.363-.464-2.774-1.428-3.779A4.772 4.772 0 0 0 14.12 2h-.002c-1.344 0-2.542.86-3.451 1.807h-.002l-.668.697-.67-.697h-.002C8.416 2.862 7.218 2 5.873 2Zm0 1c.89 0 1.926.663 2.73 1.5l1.391 1.45 1.393-1.45c.805-.838 1.84-1.5 2.73-1.5a3.77 3.77 0 0 1 2.73 1.184l.003.002C17.597 4.964 18 6.14 18 7.273c0 1.133-.37 2.012-1.15 2.827-2.079 2.165-4.11 4.14-6.084 6.464-.225.235-.578.436-.77.436-.193 0-.546-.2-.771-.434-.001 0-.002 0-.002-.002-2.005-2.275-3.966-4.312-6.082-6.462l-.004-.006C2.36 9.283 2 8.408 2 7.273c0-1.136.394-2.31 1.14-3.087A3.767 3.767 0 0 1 5.874 3Z"/>
</svg>
