<!-- This Source Code Form is subject to the terms of the Mozilla Public
   - License, v. 2.0. If a copy of the MPL was not distributed with this
   - file, You can obtain one at http://mozilla.org/MPL/2.0/. -->
<svg xmlns="http://www.w3.org/2000/svg" fill="currentColor" viewBox="0 0 24 24" height="24px" width="24px">
  <path d="M20.713 4.5a6.484 6.484 0 0 0-8.732.4l-.773-.645a1.953 1.953 0 0 0-.484-.28.495.49 0 0 0-.014-.02c-.018-.01-.04-.01-.058-.021-.008-.003-.014-.01-.022-.013v.005C7.983 2.42 4.558 2.942 2.52 5.332a6.3 6.3 0 0 0 .008 8.214.495.49 0 0 0 .042.043l1.46 1.325a.495.49 0 0 0 .452.114c.147.3.385.584.705.85.44.367.9.563 1.34.587.088.005.14-.08.226-.091.04.438.2.977.699 1.393.533.445 1.11.492 1.566.44.026.453.17 1.008.704 1.453.506.422 1.078.489 1.524.451.015.479.224 1.007.789 1.478.33.275.78.422 1.283.41a2.01 2.01 0 0 0 1.484-.703l2.852-3.344 2.553-2.992 1.276-1.496a6.31 6.31 0 0 0-.77-8.965zm-.639.747a5.319 5.319 0 0 1 .652 7.586l-1.277 1.496-2.553 2.992-2.852 3.344a.96.96 0 0 1-.75.354c-.267.006-.533-.104-.622-.178-.484-.403-.508-.636-.483-.83.025-.195.174-.412.322-.585l3.19-3.74c.177-.207.312-.362.312-.362a.495.49 0 0 0-.752-.637l-.316.367-3.191 3.74-.22.26c-.122.042-.719.239-1.175-.142-.457-.38-.361-.995-.34-1.12l3.413-4c.17-.2.315-.357.315-.357a.495.49 0 0 0-.737-.655s-.152.167-.335.381l-3.412 4c-.121.042-.718.238-1.174-.142-.457-.381-.362-.995-.34-1.12l3.413-4 .325-.379a.495.49 0 0 0-.754-.634l-.328.382-3.51 4.115c-.054.062-.14.116-.316.106-.177-.01-.443-.099-.754-.358-.326-.272-.47-.517-.51-.678-.04-.16-.015-.238.066-.332l3.192-3.741 1.595-1.87 2.27 1.893a2.002 2.002 0 0 0 2.79-.234 1.949 1.949 0 0 0-.237-2.759L12.74 5.532a5.465 5.465 0 0 1 7.335-.285Zm-9.504-.244 1.135.947 2.648 2.208a.959.959 0 0 1 .119 1.38.985.985 0 0 1-1.395.117l-2.649-2.209a.495.49 0 0 0-.697.059L7.816 9.749l-3.192 3.74-.305.358-1.042-.946a5.313 5.313 0 0 1-.001-6.938 5.465 5.465 0 0 1 6.928-1.165l-.011-.059a.495.49 0 0 0 .088.096c.104.039.2.094.289.168z"/>
  <path d="M20.074 5.247a5.319 5.319 0 0 1 .652 7.586l-1.277 1.496-2.553 2.992-2.852 3.344a.96.96 0 0 1-.75.354c-.267.006-.533-.104-.622-.178-.484-.403-.508-.636-.483-.83.025-.195.174-.412.322-.585l3.19-3.74c.177-.207.312-.362.312-.362.418-.494-.322-1.122-.752-.637l-.316.367-3.191 3.74-.22.26c-.122.042-.719.239-1.175-.142-.457-.38-.361-.995-.34-1.12l3.413-4c.17-.2.315-.357.315-.357.44-.486-.296-1.14-.737-.655 0 0-.152.167-.335.381l-3.412 4c-.121.042-.718.238-1.174-.142-.457-.381-.362-.995-.34-1.12l3.413-4 .325-.379c.415-.496-.325-1.118-.754-.634l-.328.382-3.51 4.115c-.054.062-.14.116-.316.106-.177-.01-.443-.099-.754-.358-.326-.272-.47-.517-.51-.678-.04-.16-.015-.238.066-.332l3.192-3.741 1.595-1.87 2.27 1.893a2.002 2.002 0 0 0 2.79-.234 1.949 1.949 0 0 0-.237-2.759L12.74 5.532a5.465 5.465 0 0 1 7.335-.285z" opacity=".2"/>
</svg>
