<?xml version="1.0" encoding="UTF-8" standalone="no"?>
<svg
   id="Group_1282"
   data-name="Group 1282"
   width="32"
   height="31.998905"
   viewBox="0 0 32 31.998907"
   version="1.1"
   xmlns="http://www.w3.org/2000/svg"
   xmlns:svg="http://www.w3.org/2000/svg">
  <defs
     id="defs8" />
  <path
     id="Path_2520"
     data-name="Path 2520"
     d="m 27.265515,27.265225 h -4.741399 v -7.425229 c 0,-1.770616 -0.03161,-4.049945 -2.466022,-4.049945 -2.469478,0 -2.847309,1.929157 -2.847309,3.921038 v 7.553642 H 12.469386 V 11.99545 h 4.551743 v 2.086709 h 0.06371 a 4.9883471,4.9883471 0 0 1 4.490994,-2.466515 c 4.805606,0 5.691655,3.160933 5.691655,7.273109 z M 7.1195073,9.9082463 A 2.7514933,2.7514933 0 1 1 9.8705067,7.1562591 2.7514933,2.7514933 0 0 1 7.1195073,9.9082463 M 9.490207,27.265225 H 4.7438687 V 11.99545 H 9.490207 Z M 29.6293,0.00217907 H 2.3613156 A 2.3351391,2.3351391 0 0 0 0,2.3086723 V 29.689759 a 2.3366208,2.3366208 0 0 0 2.3613156,2.308963 H 29.6293 A 2.3415598,2.3415598 0 0 0 32,29.689759 V 2.3066967 A 2.3400781,2.3400781 0 0 0 29.6293,2.0349351e-4"
     style="fill:currentColor;stroke-width:0.493896" />
</svg>
