<svg width="635" height="466" viewBox="0 0 635 466" fill="none" xmlns="http://www.w3.org/2000/svg">
<g opacity="0.3" clip-path="url(#clip0_4383_21003)">
<g opacity="0.3" clip-path="url(#clip1_4383_21003)">
<path d="M379.577 108.454C395.827 103.332 394.414 87.258 394.414 87.258C394.414 87.258 386.289 77.7197 370.127 83.0187C355.025 87.9645 352.729 98.7392 352.729 98.7392C352.729 98.7392 361.03 114.283 379.577 108.454Z" fill="#FAFAFA"/>
<path d="M341.071 421.801C344.074 416.148 352.199 415.265 357.763 414.735C374.101 414.824 390.352 412.792 406.161 408.642C460.564 394.776 510.993 350.264 509.58 290.65C507.725 219.643 435.04 173.188 369.156 171.598C327.912 169.655 286.403 184.051 254.255 209.751C226.17 232.272 207.447 264.685 209.478 301.425C210.891 374.993 257.876 424.185 323.231 451.034C354.407 464.281 387.702 474.085 421.528 478.412C429.388 479.384 437.248 480.178 445.197 480.443C418.79 479.648 362.885 461.19 346.282 440.171C341.954 435.402 338.421 428.689 341.071 421.801ZM350.344 425.952C348.754 432.222 351.139 436.903 356.085 441.849C372.158 457.393 394.414 466.842 415.345 474.084C425.06 477.176 434.952 480.002 445.197 480.443C402.981 478.677 360.236 473.29 320.316 458.452C243.48 429.043 193.758 370.224 199.41 285.174C204.886 229.093 254.167 187.584 305.744 172.658C384.964 147.753 494.919 186.612 513.201 274.4C522.121 318.646 501.278 361.745 466.393 388.77C436.542 412.351 398.389 424.185 360.589 424.715C360.059 424.715 358.293 424.715 357.939 424.804C355.29 425.069 352.199 425.422 349.991 426.658C349.903 426.747 349.903 426.747 349.903 426.747C349.903 426.747 349.991 426.747 349.991 426.658C349.991 426.658 350.079 426.57 350.167 426.393C350.256 426.305 350.344 426.128 350.344 425.952Z" fill="#FAFAFA"/>
<path fill-rule="evenodd" clip-rule="evenodd" d="M339.922 323.771C349.107 329.247 362.354 329.6 371.274 323.771L477.696 243.314L386.906 332.25C369.419 349.295 341.6 349.295 324.113 332.25L233.411 243.403L339.922 323.771Z" fill="#FAFAFA"/>
<path d="M464.361 435.316C420.026 445.384 356.614 437.347 345.751 426.043C348.4 419.066 374.896 419.595 374.896 419.595C400.243 428.074 509.226 437.965 549.41 373.936C539.607 392.394 508.696 425.248 464.361 435.316Z" fill="#FAFAFA"/>
<path d="M677.47 133.624C657.334 109.779 633.665 86.5511 605.226 73.1269C625.716 68.4461 647.265 67.0331 668.108 66.4149C647.442 49.8996 625.009 32.3245 600.369 22.3446C501.63 -18.3696 341.158 -6.80003 295.852 104.568C287.815 108.277 230.497 133.889 242.596 189.441C242.596 189.441 262.821 142.456 329.147 136.715C328.882 130.975 320.669 119.582 316.253 116.932C346.457 48.1332 421.527 16.0741 496.861 14.0428C561.598 12.2765 622.802 34.1791 655.391 64.6485C610.702 66.9448 578.996 73.0386 555.327 79.2208C600.016 79.0442 634.018 91.6735 668.638 129.738C642.408 124.704 623.243 122.585 612.91 122.761C758.015 342.494 591.096 602.5 348.047 602.5C264.676 602.5 53.9511 536.615 53.9511 299.307C54.0394 297.452 54.1277 295.598 54.216 293.743C64.1075 398.575 137.941 485.038 236.061 522.043C275.98 537.498 318.814 545.094 361.383 544.564C362.266 544.564 231.115 545.623 135.821 445.56C77.4434 384.268 56.5123 298.247 73.4691 216.112C77.62 231.656 85.6569 256.12 97.4914 262.832C95.99 181.934 182.011 147.225 174.592 78.8676C223.52 106.422 226.611 202.776 226.611 202.776C228.201 167.361 220.605 82.3119 172.473 67.6513C164.082 65.0901 154.809 66.6798 153.661 76.218C144.211 157.381 78.3266 182.817 90.8676 250.114C71.5262 165.86 49.3586 185.996 44.9427 240.665C22.1569 524.869 244.628 607.004 347.605 607.004C565.219 607.004 768.966 385.505 626.776 126.47C643.821 127.53 661.396 130.798 677.47 133.624Z" fill="#FAFAFA"/>
<path d="M197.996 349.472C180.333 328.364 172.472 275.727 175.917 245.876C175.74 240.312 172.296 235.984 167.968 234.041C163.464 232.098 157.635 232.363 153.838 236.956C70.2012 337.195 146.507 430.282 145.536 428.692C103.055 360.776 128.667 294.627 168.233 244.462C168.145 258.24 169.823 318.119 197.996 349.472Z" fill="#FAFAFA"/>
</g>
</g>
<defs>
<clipPath id="clip0_4383_21003">
<rect width="635" height="466" fill="white"/>
</clipPath>
<clipPath id="clip1_4383_21003">
<rect width="635" height="607.622" fill="white" transform="translate(43)"/>
</clipPath>
</defs>
</svg>
