<?xml version="1.0" encoding="UTF-8" standalone="no"?>
<!-- Created with Inkscape (http://www.inkscape.org/) -->

<svg
   xmlns:dc="http://purl.org/dc/elements/1.1/"
   xmlns:cc="http://creativecommons.org/ns#"
   xmlns:rdf="http://www.w3.org/1999/02/22-rdf-syntax-ns#"
   xmlns:svg="http://www.w3.org/2000/svg"
   xmlns="http://www.w3.org/2000/svg"
   xmlns:sodipodi="http://sodipodi.sourceforge.net/DTD/sodipodi-0.dtd"
   xmlns:inkscape="http://www.inkscape.org/namespaces/inkscape"
   width="600"
   height="360"
   viewBox="0 0 158.75001 95.249994"
   version="1.1"
   id="svg8"
   inkscape:version="0.92.3 (2405546, 2018-03-11)"
   sodipodi:docname="thunderbird-wordmark-horizontal.svg"
   inkscape:export-filename="/home/anxhelo/thunderbird-photon/images/product-identity-assets/thunderbird-wordmark-horizontal.png"
   inkscape:export-xdpi="96"
   inkscape:export-ydpi="96">
  <defs
     id="defs2">
    <filter
       height="6.6290002"
       width="14.927"
       y="18.355"
       x="162.67999"
       filterUnits="userSpaceOnUse"
       id="Adobe_OpacityMaskFilter">
      <feColorMatrix
         id="feColorMatrix950"
         values="1 0 0 0 0  0 1 0 0 0  0 0 1 0 0  0 0 0 1 0"
         type="matrix" />
    </filter>
    <filter
       height="4.215"
       width="9.491"
       y="11.67"
       x="103.433"
       filterUnits="userSpaceOnUse"
       id="Adobe_OpacityMaskFilter-9">
      <feColorMatrix
         id="feColorMatrix1308"
         values="1 0 0 0 0  0 1 0 0 0  0 0 1 0 0  0 0 0 1 0"
         type="matrix" />
    </filter>
  </defs>
  <sodipodi:namedview
     id="base"
     pagecolor="#ffffff"
     bordercolor="#666666"
     borderopacity="1.0"
     inkscape:pageopacity="0"
     inkscape:pageshadow="2"
     inkscape:zoom="0.74199837"
     inkscape:cx="132.53004"
     inkscape:cy="288.3632"
     inkscape:document-units="px"
     inkscape:current-layer="layer1"
     inkscape:document-rotation="0"
     showgrid="false"
     borderlayer="true"
     inkscape:showpageshadow="true"
     units="px"
     inkscape:pagecheckerboard="false"
     showguides="true"
     inkscape:window-width="1366"
     inkscape:window-height="715"
     inkscape:window-x="0"
     inkscape:window-y="0"
     inkscape:window-maximized="1"
     objecttolerance="10"
     guidetolerance="10"
     inkscape:snap-tangential="true"
     inkscape:snap-perpendicular="true"
     inkscape:snap-page="true">
    <inkscape:grid
       type="xygrid"
       id="grid10"
       dotted="false" />
  </sodipodi:namedview>
  <metadata
     id="metadata5">
    <rdf:RDF>
      <cc:Work
         rdf:about="">
        <dc:format>image/svg+xml</dc:format>
        <dc:type
           rdf:resource="http://purl.org/dc/dcmitype/StillImage" />
        <dc:title />
        <cc:license
           rdf:resource="" />
      </cc:Work>
    </rdf:RDF>
  </metadata>
  <g
     inkscape:label="Layer 1"
     inkscape:groupmode="layer"
     id="layer1"
     transform="translate(0,-201.75001)">
    <g
       id="g1070"
       transform="translate(-1.40563,-2.0218462e-6)">
      <g
         transform="matrix(0.20477991,0,0,0.20477991,12.983408,233.5681)"
         id="g1400">
        <g
           id="g1204">
          <polygon
             style="fill:#363959"
             class="st0"
             points="227.802,56.966 228.809,48.814 184.111,48.814 184.111,56.966 201.509,56.966 201.509,110.935 210.905,110.935 210.905,56.966 "
             id="polygon1180" />
          <path
             style="fill:#363959"
             inkscape:connector-curvature="0"
             class="st0"
             d="m 256.936,62.128 c -5.267,0 -9.757,2.225 -13.366,6.619 V 43.522 l -9.129,0.992 v 66.421 h 9.129 V 77.307 c 1.597,-2.486 3.324,-4.434 5.134,-5.791 1.798,-1.35 3.881,-2.034 6.191,-2.034 2.275,0 4.023,0.635 5.196,1.889 1.18,1.264 1.779,3.513 1.779,6.684 v 32.88 h 9.128 V 76.901 c 0,-4.544 -1.253,-8.179 -3.726,-10.804 -2.481,-2.634 -5.959,-3.969 -10.336,-3.969 z"
             id="path1182" />
          <path
             style="fill:#363959"
             inkscape:connector-curvature="0"
             class="st0"
             d="m 310.424,96.916 c -3.133,5.13 -6.912,7.731 -11.236,7.731 -2.385,0 -4.113,-0.615 -5.135,-1.826 -1.044,-1.237 -1.573,-3.417 -1.573,-6.481 V 63.194 h -9.128 v 34.034 c 0,4.662 1.208,8.326 3.59,10.89 2.391,2.576 5.735,3.882 9.939,3.882 3.384,0 6.302,-0.694 8.674,-2.061 2.039,-1.177 3.893,-2.964 5.523,-5.326 l 0.54,6.323 h 7.936 V 63.194 h -9.129 v 33.722 z"
             id="path1184" />
          <path
             style="fill:#363959"
             inkscape:connector-curvature="0"
             class="st0"
             d="m 355.286,62.128 c -3.031,0 -5.845,0.739 -8.363,2.196 -2.152,1.244 -4.024,2.908 -5.579,4.956 l -0.625,-6.085 h -7.927 v 47.741 h 9.128 V 77.394 c 1.596,-2.543 3.323,-4.52 5.133,-5.878 1.799,-1.35 3.912,-2.034 6.281,-2.034 2.274,0 4.005,0.634 5.148,1.885 1.153,1.264 1.738,3.514 1.738,6.688 v 32.88 h 9.129 V 76.901 c 0,-4.544 -1.254,-8.179 -3.726,-10.804 -2.482,-2.634 -5.96,-3.969 -10.337,-3.969 z"
             id="path1186" />
          <path
             style="fill:#363959"
             inkscape:connector-curvature="0"
             class="st0"
             d="m 410.193,67.207 c -3.506,-3.371 -7.579,-5.079 -12.123,-5.079 -3.817,0 -7.2,1.093 -10.054,3.249 -2.841,2.146 -5.045,5.157 -6.548,8.949 -1.495,3.768 -2.253,8.128 -2.253,12.96 0,7.464 1.598,13.501 4.748,17.943 3.188,4.493 7.695,6.771 13.398,6.771 2.913,0 5.592,-0.694 7.963,-2.061 2.011,-1.161 3.758,-2.725 5.204,-4.659 l 0.697,5.655 h 8.097 V 44.43 l -9.129,-1.092 z m 0,8.171 v 22.581 c -1.588,2.188 -3.246,3.851 -4.929,4.946 -1.688,1.096 -3.75,1.652 -6.129,1.652 -3.285,0 -5.735,-1.377 -7.491,-4.211 -1.777,-2.866 -2.679,-7.319 -2.679,-13.238 0,-5.856 0.974,-10.306 2.894,-13.228 1.905,-2.901 4.517,-4.31 7.986,-4.31 2.089,0 3.993,0.5 5.657,1.486 1.646,0.977 3.223,2.431 4.691,4.322 z"
             id="path1188" />
          <path
             style="fill:#363959"
             inkscape:connector-curvature="0"
             class="st0"
             d="m 449.109,62.128 c -4.048,0 -7.623,1.106 -10.624,3.288 -2.99,2.175 -5.314,5.216 -6.906,9.036 -1.587,3.799 -2.39,8.207 -2.39,13.101 0,7.539 1.875,13.557 5.575,17.888 3.717,4.352 8.962,6.559 15.589,6.559 6.002,0 11.598,-2.006 16.63,-5.961 l 0.365,-0.287 -4.098,-5.636 -0.385,0.265 c -2.027,1.389 -3.99,2.415 -5.832,3.049 -1.833,0.63 -3.871,0.949 -6.058,0.949 -3.396,0 -6.204,-1.173 -8.346,-3.485 -2.086,-2.249 -3.343,-5.798 -3.739,-10.553 h 29.749 l 0.037,-0.442 c 0.118,-1.431 0.179,-2.847 0.179,-4.211 0,-7.299 -1.709,-13.105 -5.077,-17.257 -3.399,-4.182 -8.333,-6.303 -14.669,-6.303 z m -10.226,21.215 c 0.667,-9.266 4.075,-13.773 10.404,-13.773 3.492,0 6.14,1.16 7.871,3.448 1.761,2.331 2.654,5.788 2.654,10.274 v 0.051 z"
             id="path1190" />
          <path
             style="fill:#363959"
             inkscape:connector-curvature="0"
             class="st0"
             d="m 499.083,62.128 c -2.942,0 -5.554,0.934 -7.765,2.775 -1.777,1.481 -3.267,3.561 -4.443,6.198 l -0.665,-7.907 h -7.936 v 47.741 h 9.128 V 83.789 c 0.983,-4.376 2.35,-7.634 4.06,-9.687 1.695,-2.034 3.868,-3.023 6.642,-3.023 1.257,0 2.591,0.174 3.967,0.518 l 0.494,0.124 1.688,-8.937 -0.441,-0.11 c -1.447,-0.362 -3.04,-0.546 -4.729,-0.546 z"
             id="path1192" />
          <path
             style="fill:#363959"
             inkscape:connector-curvature="0"
             class="st0"
             d="m 531.748,62.128 c -5.124,0 -9.406,2.02 -12.745,6.009 V 43.338 l -9.128,1.092 v 66.505 h 8.083 l 0.701,-4.521 c 3.331,3.708 7.402,5.586 12.113,5.586 3.814,0 7.195,-1.062 10.049,-3.155 2.841,-2.086 5.046,-5.053 6.553,-8.819 1.495,-3.74 2.254,-8.115 2.254,-13.006 0,-7.759 -1.614,-13.903 -4.798,-18.259 -3.219,-4.402 -7.621,-6.633 -13.082,-6.633 z m -2.308,7.442 c 3.35,0 5.861,1.31 7.678,4.004 1.831,2.718 2.759,7.242 2.759,13.445 0,6.026 -1.001,10.517 -2.976,13.35 -1.964,2.819 -4.607,4.188 -8.082,4.188 -1.914,0 -3.754,-0.542 -5.471,-1.614 -1.697,-1.055 -3.158,-2.518 -4.344,-4.348 V 76.511 c 3.01,-4.606 6.52,-6.941 10.436,-6.941 z"
             id="path1194" />
          <rect
             style="fill:#363959"
             x="559.93701"
             y="63.194"
             class="st0"
             width="9.1280003"
             height="47.741001"
             id="rect1196" />
          <path
             style="fill:#363959"
             inkscape:connector-curvature="0"
             class="st0"
             d="m 564.412,40.736 c -1.781,0 -3.269,0.585 -4.423,1.738 -1.154,1.155 -1.739,2.613 -1.739,4.335 0,1.726 0.586,3.171 1.744,4.295 1.153,1.121 2.64,1.689 4.419,1.689 1.839,0 3.356,-0.568 4.508,-1.689 1.157,-1.124 1.744,-2.569 1.744,-4.295 0,-1.721 -0.585,-3.18 -1.739,-4.335 -1.155,-1.153 -2.673,-1.738 -4.514,-1.738 z"
             id="path1198" />
          <path
             style="fill:#363959"
             inkscape:connector-curvature="0"
             class="st0"
             d="m 603.113,62.128 c -2.942,0 -5.554,0.934 -7.765,2.775 -1.777,1.481 -3.267,3.561 -4.443,6.198 l -0.665,-7.907 h -7.936 v 47.741 h 9.128 V 83.789 c 0.983,-4.376 2.35,-7.634 4.06,-9.687 1.695,-2.034 3.868,-3.023 6.642,-3.023 1.257,0 2.591,0.174 3.967,0.518 l 0.494,0.124 1.688,-8.937 -0.441,-0.11 c -1.448,-0.362 -3.04,-0.546 -4.729,-0.546 z"
             id="path1200" />
          <path
             style="fill:#363959"
             inkscape:connector-curvature="0"
             class="st0"
             d="m 639.29,43.338 v 23.869 c -3.506,-3.371 -7.579,-5.079 -12.123,-5.079 -3.817,0 -7.2,1.093 -10.054,3.249 -2.841,2.146 -5.044,5.157 -6.548,8.949 -1.495,3.768 -2.253,8.128 -2.253,12.96 0,7.464 1.598,13.501 4.748,17.943 3.188,4.493 7.695,6.771 13.398,6.771 2.913,0 5.592,-0.694 7.963,-2.061 2.011,-1.161 3.758,-2.725 5.204,-4.659 l 0.697,5.655 h 8.097 V 44.43 Z m 0,32.04 v 22.581 c -1.588,2.188 -3.246,3.851 -4.929,4.946 -1.688,1.096 -3.75,1.652 -6.129,1.652 -3.285,0 -5.735,-1.377 -7.491,-4.211 -1.777,-2.866 -2.679,-7.319 -2.679,-13.238 0,-5.856 0.974,-10.306 2.894,-13.228 1.905,-2.901 4.517,-4.31 7.986,-4.31 2.089,0 3.993,0.5 5.657,1.486 1.646,0.977 3.223,2.431 4.691,4.322 z"
             id="path1202" />
        </g>
        <g
           id="g1398">
          <g
             id="g1372">
            <linearGradient
               id="SVGID_1_-3"
               gradientUnits="userSpaceOnUse"
               x1="126.8651"
               y1="128.3746"
               x2="25.2281"
               y2="26.7376">
              <stop
                 offset="0"
                 style="stop-color:#130036"
                 id="stop1206" />
              <stop
                 offset="0.2297"
                 style="stop-color:#18023B"
                 id="stop1208" />
              <stop
                 offset="0.5122"
                 style="stop-color:#26094A"
                 id="stop1210" />
              <stop
                 offset="0.8211"
                 style="stop-color:#3D1563"
                 id="stop1212" />
              <stop
                 offset="1"
                 style="stop-color:#4E1D75"
                 id="stop1214" />
            </linearGradient>
            <path
               inkscape:connector-curvature="0"
               class="st1"
               d="m 120.097,22.566 c -9.22,-6.022 -21.011,-7.972 -27.518,-8.653 -6.965,-0.728 -13.014,-0.6 -18.334,0.181 -0.451,-0.006 -0.899,-0.023 -1.352,-0.023 -0.346,0 -0.687,0.015 -1.035,0.019 0.143,-0.175 0.242,-0.283 0.242,-0.283 0,0 -0.28,0.044 -0.829,0.293 -1.727,0.028 -3.447,0.088 -5.14,0.204 2.359,-2.586 4.292,-3.942 4.292,-3.942 0,0 -2.294,0.336 -6.48,4.13 -1.991,0.183 -3.956,0.426 -5.886,0.728 4.399,-5.952 9,-8.459 9,-8.459 0,0 -5.577,-1.135 -14.31,7.64 -0.731,0.735 -1.408,1.498 -2.064,2.271 -25.454,6.158 -43.67,22.595 -43.67,41.911 0,3.788 -1.163,7.954 0.091,12.115 -0.501,6.646 0.566,24.781 0.566,24.781 0,0 6.89,37.29 33.386,43.773 0.421,0.101 -5.536,-9.295 -8.171,-20.627 5.13,5.218 11.244,9.346 18.107,10.061 0.842,0.087 -3.92,-5.494 -8.091,-12.229 l 60.21,20.286 c 31.491,-13.526 27.825,-12.307 34.586,-19.631 14.896,-16.124 16.981,-25.273 13.228,-52.286 -2.537,-18.234 -15.996,-36.294 -30.828,-42.26 z"
               id="path1217"
               style="fill:url(#SVGID_1_-3)" />
            <polygon
               style="fill:#fbfbfb"
               class="st2"
               points="10.419,106.164 109.938,139.252 128.395,60.778 14.425,39.595 5.434,90.717 "
               id="polygon1219" />
            <g
               id="g1223">
              <path
                 style="fill:#999999"
                 inkscape:connector-curvature="0"
                 class="st3"
                 d="m 14.705,41.334 c 0.499,1.074 0.352,1.328 0.041,1.328 -0.14,0 -0.313,-0.051 -0.475,-0.103 -0.162,-0.051 -0.314,-0.103 -0.412,-0.103 -0.275,0 -0.12,0.407 1.439,2.365 2.205,2.801 34.587,51.687 36.357,51.687 0.009,0 0.018,-10e-4 0.025,-0.004 15.075,-5.372 79.186,-27.377 79.186,-27.377 L 124.306,59.572 14.705,41.334"
                 id="path1221" />
            </g>
            <path
               style="fill:#f8f8f8"
               inkscape:connector-curvature="0"
               class="st4"
               d="m 15.645,40.133 c 0,0 0.483,2.5 2.722,5.267 2.225,2.792 32.115,48.049 33.615,47.65 19.58,-5.198 90.619,-32.855 90.619,-32.855 z"
               id="path1225" />
            <polygon
               style="fill:#999999"
               class="st3"
               points="106.384,138.073 11.806,106.627 12.14,108.837 107.437,140.522 "
               id="polygon1227" />
            <linearGradient
               id="SVGID_2_-6"
               gradientUnits="userSpaceOnUse"
               x1="6.5124998"
               y1="60.599899"
               x2="36.688702"
               y2="60.599899">
              <stop
                 offset="0"
                 style="stop-color:#3156A8"
                 id="stop1229" />
              <stop
                 offset="0.2474"
                 style="stop-color:#3351A4"
                 id="stop1231" />
              <stop
                 offset="0.5365"
                 style="stop-color:#3B4397"
                 id="stop1233" />
              <stop
                 offset="0.8453"
                 style="stop-color:#472C82"
                 id="stop1235" />
              <stop
                 offset="1"
                 style="stop-color:#4E1D75"
                 id="stop1237" />
            </linearGradient>
            <path
               inkscape:connector-curvature="0"
               class="st5"
               d="m 36.689,38.018 c 0,0 -34.412,10.078 -18.622,45.163 0,0 -7.24,-6.629 -11.551,-15.105 -0.194,-0.379 7.186,-26.595 7.186,-26.595 z"
               id="path1240"
               style="fill:url(#SVGID_2_-6)" />
            <radialGradient
               id="SVGID_3_-7"
               cx="37.559399"
               cy="72.433601"
               r="54.200699"
               gradientTransform="matrix(1,0,0,1.45,0,-32.5951)"
               gradientUnits="userSpaceOnUse">
              <stop
                 offset="0.1654"
                 style="stop-color:#14CDDA"
                 id="stop1242" />
              <stop
                 offset="0.5478"
                 style="stop-color:#2061BD"
                 id="stop1244" />
              <stop
                 offset="0.6546"
                 style="stop-color:#2658AC"
                 id="stop1246" />
              <stop
                 offset="0.864"
                 style="stop-color:#373F81"
                 id="stop1248" />
              <stop
                 offset="1"
                 style="stop-color:#432D62"
                 id="stop1250" />
            </radialGradient>
            <path
               inkscape:connector-curvature="0"
               class="st6"
               d="m 18.067,83.182 c -2.992,-0.052 -7.801,-2.521 -9.36,-5.51 -1.949,32.489 11.306,51.462 32.35,61.58 C 34.18,138.464 0,120.427 0,77.022 0,40.115 29.286,7.126 75.116,5.615 c 0.281,2.069 -22.721,7.257 -23.457,9.697 -1.142,3.797 -3.767,7.93 -5.98,11.244 -3,4.489 4.169,8.328 -1.099,9.538 -7.927,1.819 -18.501,0.812 -26.298,10.948 -11.721,15.236 -3.9,32.666 -0.215,36.14 z"
               id="path1253"
               style="fill:url(#SVGID_3_-7)" />
            <g
               id="g1266">
              <linearGradient
                 id="SVGID_4_-5"
                 gradientUnits="userSpaceOnUse"
                 x1="28.318199"
                 y1="36.811798"
                 x2="121.7672"
                 y2="36.811798">
                <stop
                   offset="0"
                   style="stop-color:#2061BD"
                   id="stop1255" />
                <stop
                   offset="0.1846"
                   style="stop-color:#2B51AC"
                   id="stop1257" />
                <stop
                   offset="0.6826"
                   style="stop-color:#442C84"
                   id="stop1259" />
                <stop
                   offset="0.9409"
                   style="stop-color:#4E1D75"
                   id="stop1261" />
              </linearGradient>
              <path
                 inkscape:connector-curvature="0"
                 class="st7"
                 d="M 87.136,6.803 C 57.456,4.525 42.18,16.402 32.374,30.211 c -3.571,5.027 -3.181,9.643 -1.951,15.219 0.528,2.38 1.062,3.521 0.419,5.948 -0.355,1.339 -0.296,2.589 -0.737,3.379 -0.609,1.092 -1.386,2.285 -1.646,4.245 -0.65,4.895 1.083,6.454 2.166,8.101 1.543,-1.532 4.556,-5.137 9.988,-7.29 5.433,-2.153 9.008,-5.39 15.817,-8.864 9.303,-4.745 20.208,2.454 40.883,-4.321 6.362,-2.085 20.983,-23.744 24.454,-24.576 C 112.101,11.364 95.657,7.456 87.136,6.803 Z"
                 id="path1264"
                 style="fill:url(#SVGID_4_-5)" />
            </g>
            <path
               style="fill:#3f6499"
               inkscape:connector-curvature="0"
               class="st8"
               d="m 67.528,0.02 c 0,0 -5.3,2.56 -7.607,7.185 5.329,-2.686 8.422,-4.154 9.884,-4.329 0,0 -1.401,0.678 -3.138,4.368 3.071,-0.983 4.128,-1.604 4.971,-1.613 0,0 -0.245,0.388 -0.469,4.07 C 66.453,8.173 57.377,9.953 52.548,12.977 50.911,4.246 67.528,0.02 67.528,0.02 Z"
               id="path1268" />
            <linearGradient
               id="SVGID_5_-3"
               gradientUnits="userSpaceOnUse"
               x1="42.073898"
               y1="14.7544"
               x2="106.3483"
               y2="70.627296">
              <stop
                 offset="0.0202"
                 style="stop-color:#48A8E0"
                 id="stop1270" />
              <stop
                 offset="0.3883"
                 style="stop-color:#2061BD"
                 id="stop1272" />
              <stop
                 offset="0.4968"
                 style="stop-color:#2B51AC"
                 id="stop1274" />
              <stop
                 offset="0.7892"
                 style="stop-color:#442C84"
                 id="stop1276" />
              <stop
                 offset="0.9409"
                 style="stop-color:#4E1D75"
                 id="stop1278" />
            </linearGradient>
            <path
               inkscape:connector-curvature="0"
               class="st9"
               d="M 88.619,5.487 C 79.521,4.308 71.916,4.54 65.45,5.786 67.483,3.837 69.836,2.877 69.836,2.877 66.787,3.146 62.982,5.137 59.716,7.244 58.07,7.769 56.502,8.362 55.017,9.023 55.926,7.825 56.984,6.544 58.018,5.561 61.857,1.91 67.559,0.02 67.559,0.02 62.693,-0.337 46.407,3.832 36.607,23.68 c -1.606,1.957 -3.105,3.964 -4.533,5.976 -3.686,5.191 -3.282,9.956 -2.011,15.714 0.542,2.459 0.642,6.384 0.107,8.92 -0.107,0.508 -1.502,1.82 -1.86,5.358 -0.383,3.754 0.957,5.598 2.278,7.123 4.693,-6.862 9.322,-8.222 9.322,-8.222 6.568,-2.691 9.302,-5.565 16.333,-9.152 9.606,-4.901 43.197,11.095 64.543,4.1 6.569,-2.152 -2.529,-30.112 1.057,-30.97 C 111.861,11.491 97.367,6.621 88.619,5.487 Z"
               id="path1281"
               style="fill:url(#SVGID_5_-3)" />
            <linearGradient
               id="SVGID_6_-5"
               gradientUnits="userSpaceOnUse"
               x1="12.5103"
               y1="214.5313"
               x2="138.502"
               y2="27.740999">
              <stop
                 offset="0.3787"
                 style="stop-color:#3156A8"
                 id="stop1283" />
              <stop
                 offset="1"
                 style="stop-color:#4E1D75"
                 id="stop1285" />
            </linearGradient>
            <path
               inkscape:connector-curvature="0"
               class="st10"
               d="M 155.25,65.672 C 149.988,38.182 124.67,13.172 104.311,11.786 95.275,11.171 98.05,15.803 92.396,17.568 68.031,25.171 67.659,29.61 67.659,29.61 c 51.661,2.428 52.444,53.449 38.609,66.357 3.893,-0.908 8.114,-5.668 11.991,-13.14 -0.465,3.135 -0.865,6.981 -1.446,11.272 -1.772,13.094 0.523,40.447 -37.103,58.752 0,0 20.583,-1.682 30.789,-13.172 -4.151,9.545 -15.54,14.701 -15.54,14.701 8.382,-1.226 30.398,-7.723 44.423,-25.262 15.873,-19.853 20.647,-38.478 15.868,-63.446 z"
               id="path1288"
               style="fill:url(#SVGID_6_-5)" />
            <linearGradient
               id="SVGID_7_-6"
               gradientUnits="userSpaceOnUse"
               x1="61.5116"
               y1="177.16589"
               x2="131.1788"
               y2="20.690701">
              <stop
                 offset="0"
                 style="stop-color:#29ABE2"
                 id="stop1290" />
              <stop
                 offset="0.7733"
                 style="stop-color:#385AA6"
                 id="stop1292" />
              <stop
                 offset="0.8575"
                 style="stop-color:#414293"
                 id="stop1294" />
              <stop
                 offset="1"
                 style="stop-color:#4E1D75"
                 id="stop1296" />
            </linearGradient>
            <path
               inkscape:connector-curvature="0"
               class="st11"
               d="m 104.904,115.858 c 0,0 16.783,-4.692 22.191,-13.755 -0.656,10.567 -10.241,21.403 -10.241,21.403 0,0 14.012,-2.836 19.987,-12.696 -0.778,8.898 -11.566,20.923 -11.566,20.923 11.029,-1.979 38.74,-19.484 29.974,-66.062 -5.177,-27.507 -30.58,-52.5 -50.94,-53.886 -9.036,-0.615 -6.261,4.017 -11.915,5.782 -24.363,7.604 -24.735,12.043 -24.735,12.043 51.661,2.428 65.389,29.466 38.609,65.635 3.893,-0.908 5.454,-3.048 8.379,-6.549 -0.001,0 1.325,13.848 -9.743,27.162 z"
               id="path1299"
               style="fill:url(#SVGID_7_-6)" />
            <linearGradient
               id="SVGID_8_-2"
               gradientUnits="userSpaceOnUse"
               x1="30.689699"
               y1="58.515999"
               x2="34.487202"
               y2="60.699699">
              <stop
                 offset="0"
                 style="stop-color:#B0DCD6"
                 id="stop1301" />
              <stop
                 offset="1"
                 style="stop-color:#53ACE0"
                 id="stop1303" />
            </linearGradient>
            <path
               inkscape:connector-curvature="0"
               class="st12"
               d="m 38.536,54.404 c 0,0 -3,2.099 -5.173,1.564 -2.572,-0.631 -3.007,-3.123 -3.007,-3.123 -0.057,0.51 -0.122,1.003 -0.217,1.445 -0.107,0.508 -1.502,1.82 -1.86,5.358 -0.383,3.754 1.027,5.929 2.348,7.454 4.693,-6.862 9.252,-8.553 9.252,-8.553 -1.787,-0.624 -1.343,-4.145 -1.343,-4.145 z"
               id="path1306"
               style="fill:url(#SVGID_8_-2)" />
            <defs
               id="defs1311">
              <filter
                 id="filter1482"
                 filterUnits="userSpaceOnUse"
                 x="103.433"
                 y="11.67"
                 width="9.4910002"
                 height="4.2150002">
                <feColorMatrix
                   type="matrix"
                   values="1 0 0 0 0  0 1 0 0 0  0 0 1 0 0  0 0 0 1 0"
                   id="feColorMatrix1480" />
              </filter>
            </defs>
            <mask
               maskUnits="userSpaceOnUse"
               x="103.433"
               y="11.67"
               width="9.491"
               height="4.215"
               id="SVGID_9_-1">
              <g
                 class="st13"
                 id="g1320"
                 style="filter:url(#Adobe_OpacityMaskFilter-9)">
                <radialGradient
                   id="SVGID_10_-2"
                   cx="98.158997"
                   cy="43.2342"
                   r="33.0415"
                   gradientUnits="userSpaceOnUse">
                  <stop
                     offset="0.868"
                     style="stop-color:#FFFFFF"
                     id="stop1313" />
                  <stop
                     offset="1"
                     style="stop-color:#000000"
                     id="stop1315" />
                </radialGradient>
                <rect
                   x="58.046001"
                   y="-4.5890002"
                   class="st14"
                   width="63.591"
                   height="59.346001"
                   id="rect1318"
                   style="fill:url(#SVGID_10_-2)" />
              </g>
            </mask>
            <g
               class="st15"
               mask="url(#SVGID_9_)"
               id="g1338">
              <g
                 style="opacity:0.6"
                 class="st16"
                 id="g1336">
                <g
                   style="opacity:0.2"
                   class="st17"
                   id="g1334">
                  <linearGradient
                     id="SVGID_11_-7"
                     gradientUnits="userSpaceOnUse"
                     x1="112.0387"
                     y1="14.6777"
                     x2="104.4257"
                     y2="13.0694">
                    <stop
                       offset="0"
                       style="stop-color:#3092B9"
                       id="stop1323" />
                    <stop
                       offset="0.2199"
                       style="stop-color:#258DB6"
                       id="stop1325" />
                    <stop
                       offset="0.6564"
                       style="stop-color:#1685B1"
                       id="stop1327" />
                    <stop
                       offset="1"
                       style="stop-color:#1082AF"
                       id="stop1329" />
                  </linearGradient>
                  <path
                     inkscape:connector-curvature="0"
                     class="st18"
                     d="m 103.963,11.72 c 0.703,-0.182 3.574,0.13 5.458,0.975 1.884,0.845 5.133,2.339 2.534,2.989 -2.599,0.65 -4.094,-0.39 -5.393,-1.494 -1.299,-1.104 -4.353,-2.015 -2.599,-2.47 z"
                     id="path1332"
                     style="fill:url(#SVGID_11_-7)" />
                </g>
              </g>
            </g>
            <linearGradient
               id="SVGID_12_-0"
               gradientUnits="userSpaceOnUse"
               x1="51.363201"
               y1="24.1768"
               x2="57.627998"
               y2="49.303501">
              <stop
                 offset="0.0074"
                 style="stop-color:#1398D1;stop-opacity:0"
                 id="stop1340" />
              <stop
                 offset="0.2482"
                 style="stop-color:#1187C2;stop-opacity:0.6197"
                 id="stop1342" />
              <stop
                 offset="0.6422"
                 style="stop-color:#3F6499;stop-opacity:0.71"
                 id="stop1344" />
              <stop
                 offset="1"
                 style="stop-color:#2F4282;stop-opacity:0.5"
                 id="stop1346" />
            </linearGradient>
            <path
               inkscape:connector-curvature="0"
               class="st19"
               d="m 38.817,53.994 c 0,0 16.46,-27.125 31.341,-34.445 1.382,-0.695 -20.603,5.844 -29.451,15.609 -5.259,5.804 -2.475,17.168 -1.89,18.836 z"
               id="path1349"
               style="fill:url(#SVGID_12_-0)" />
            <path
               style="opacity:0.1;fill:#f2f2f2"
               inkscape:connector-curvature="0"
               class="st20"
               d="m 38.817,53.994 c 0.015,-0.01 0.032,-0.019 0.048,-0.029 4.256,-2.63 11.55,-4.144 13.901,-8.911 C 61.818,26.699 70.158,19.549 70.158,19.549 55.277,26.868 38.817,53.994 38.817,53.994 Z"
               id="path1351" />
            <path
               style="fill:#2f4282"
               inkscape:connector-curvature="0"
               class="st21"
               d="m 40.382,49.033 c 0,0 -2.966,-4.551 1.305,-8.702 2.254,-2.187 5.671,-0.972 6.066,-0.579 1.681,1.667 0.624,5.186 -0.889,7.177 -0.855,1.121 -3.344,2.867 -6.482,2.104 z"
               id="path1353" />
            <linearGradient
               id="SVGID_13_-9"
               gradientUnits="userSpaceOnUse"
               x1="26.4599"
               y1="52.251999"
               x2="22.9382"
               y2="50.299801"
               gradientTransform="matrix(0.9994,0.0349,-0.0349,0.9994,21.6653,-6.6119)">
              <stop
                 offset="0"
                 style="stop-color:#F9C21B"
                 id="stop1355" />
              <stop
                 offset="0.1479"
                 style="stop-color:#F3BA1B"
                 id="stop1357" />
              <stop
                 offset="0.3787"
                 style="stop-color:#E3A41B"
                 id="stop1359" />
              <stop
                 offset="0.6634"
                 style="stop-color:#C9801C"
                 id="stop1361" />
              <stop
                 offset="0.9884"
                 style="stop-color:#A44E1C"
                 id="stop1363" />
              <stop
                 offset="1"
                 style="stop-color:#A34C1C"
                 id="stop1365" />
            </linearGradient>
            <path
               inkscape:connector-curvature="0"
               class="st22"
               d="m 42.082,48.75 c 0,0 -2.05,-3.147 0.904,-6.014 1.555,-1.511 3.917,-0.671 4.191,-0.401 1.161,1.152 0.43,3.584 -0.615,4.959 -0.59,0.778 -2.311,1.984 -4.48,1.456 z"
               id="path1368"
               style="fill:url(#SVGID_13_-9)" />
            <path
               inkscape:connector-curvature="0"
               d="m 46.175,45.393 c -0.046,1.257 -1.11,2.239 -2.377,2.196 -1.269,-0.044 -2.263,-1.097 -2.217,-2.355 0.045,-1.257 1.109,-2.239 2.379,-2.195 1.266,0.043 2.258,1.097 2.215,2.354 z"
               id="path1370" />
          </g>
          <circle
             style="fill:#ffffff"
             class="st24"
             cx="42.424"
             cy="44.688999"
             r="0.722"
             id="circle1374" />
          <linearGradient
             id="SVGID_14_-3"
             gradientUnits="userSpaceOnUse"
             x1="131.1113"
             y1="82.743797"
             x2="107.7252"
             y2="30.2178">
            <stop
               offset="0"
               style="stop-color:#409EC3"
               id="stop1376" />
            <stop
               offset="0.62"
               style="stop-color:#2061BD"
               id="stop1378" />
          </linearGradient>
          <path
             inkscape:connector-curvature="0"
             class="st23"
             d="m 145.286,41.334 c -11.267,-17.152 -20.194,-21.51 -20.194,-21.51 0,0 0.41,12.494 6.666,18.52 0.715,0.688 -7.486,-5.361 -7.486,-5.361 0,0 -1.754,5.771 2.265,12.405 -1.167,-1.551 -1.94,-2.138 -1.94,-2.138 0,0 -7.571,3.491 -9.806,8.335 -1.154,-2.178 -2.02,-3.462 -2.02,-3.462 0,0 -5.237,10.451 -4.578,22.568 1.071,19.702 -3.69,26.961 -3.69,26.961 0,0 12.753,-4.893 18.868,-20.644 2.526,6.697 -0.077,13.746 -0.077,13.746 0,0 10.304,-7.699 12.52,-21.732 2.456,3.961 1.734,11.867 1.734,11.867 0,0 6.577,-9.157 6.737,-19.129 3.048,2.125 3.329,10.427 3.329,10.427 0,0 9.751,-12.467 -2.328,-30.853 z"
             id="path1381"
             style="fill:url(#SVGID_14_-3)" />
          <linearGradient
             id="SVGID_15_-6"
             gradientUnits="userSpaceOnUse"
             x1="112.3861"
             y1="65.527298"
             x2="95.630302"
             y2="13.9583">
            <stop
               offset="0"
               style="stop-color:#14B2DA"
               id="stop1383" />
            <stop
               offset="0.4028"
               style="stop-color:#297CCC"
               id="stop1385" />
            <stop
               offset="0.5077"
               style="stop-color:#256FC5"
               id="stop1387" />
            <stop
               offset="0.6492"
               style="stop-color:#2164BF"
               id="stop1389" />
            <stop
               offset="0.8162"
               style="stop-color:#2061BD"
               id="stop1391" />
            <stop
               offset="0.9835"
               style="stop-color:#2061BD"
               id="stop1393" />
          </linearGradient>
          <path
             inkscape:connector-curvature="0"
             class="st25"
             d="m 134.335,29.348 c -2.945,-5.487 -8.14,-8.984 -12.707,-11.814 -11.387,-7.061 -18.71,-8.052 -18.71,-8.052 0,0 -10.508,1.954 -8.704,4.878 0.093,0.15 0.309,0.34 0.616,0.558 -9.218,-4.246 -14.447,5.517 -14.447,5.517 -5.267,-0.32 -11.681,2.273 -13.551,9.219 -0.194,0.721 2.359,0.315 3.673,0.601 7.68,1.67 14.91,5.29 18.232,7.079 7.728,4.163 12.312,11.095 14.96,16.295 3.202,6.291 4.51,17.36 4.51,17.36 0,0 8.426,-11.575 6.413,-17.518 3.337,2.073 3.996,9.468 3.996,9.468 0,0 5.617,-8.798 3.957,-16.462 4.333,2.641 4.478,8.012 4.478,8.012 0,0 4.412,-6.123 2.418,-16.167 4.36,3.467 5.273,7.958 5.273,7.958 0,0 3.563,-9.534 -0.407,-16.932 z"
             id="path1396"
             style="fill:url(#SVGID_15_-6)" />
        </g>
      </g>
      <circle
         r="0.93260473"
         cy="248.24213"
         cx="147.56587"
         id="path2175"
         style="opacity:1;fill:none;fill-opacity:1;fill-rule:nonzero;stroke:#363959;stroke-width:0.15875001;stroke-linecap:square;stroke-linejoin:miter;stroke-miterlimit:4;stroke-dasharray:none;stroke-opacity:1;paint-order:markers stroke fill" />
      <text
         id="text1040"
         y="248.76871"
         x="147.04616"
         style="font-style:normal;font-variant:normal;font-weight:bold;font-stretch:normal;font-size:1.5285511px;line-height:1.25;font-family:Montserrat;-inkscape-font-specification:'Montserrat Bold';text-align:start;text-anchor:start;opacity:1;fill:#363959;fill-opacity:1;fill-rule:nonzero;stroke:none;stroke-width:0.20112517;stroke-linecap:square;stroke-linejoin:miter;stroke-miterlimit:4;stroke-dasharray:none;stroke-opacity:1;paint-order:markers stroke fill"
         xml:space="preserve"><tspan
           style="font-style:normal;font-variant:normal;font-weight:normal;font-stretch:normal;font-family:'Fira Sans';-inkscape-font-specification:'Fira Sans';stroke-width:0.20112517"
           y="248.76871"
           x="147.04616"
           id="tspan1038"
           sodipodi:role="line">R</tspan></text>
    </g>
  </g>
  <style
     id="style846"
     type="text/css">
	.st0{fill:#363959;}
	.st1{fill:url(#SVGID_1_);}
	.st2{fill:#FBFBFB;}
	.st3{fill:#999999;}
	.st4{fill:#F8F8F8;}
	.st5{fill:url(#SVGID_2_);}
	.st6{fill:url(#SVGID_3_);}
	.st7{fill:url(#SVGID_4_);}
	.st8{fill:#3F6499;}
	.st9{fill:url(#SVGID_5_);}
	.st10{fill:url(#SVGID_6_);}
	.st11{fill:url(#SVGID_7_);}
	.st12{fill:url(#SVGID_8_);}
	.st13{filter:url(#Adobe_OpacityMaskFilter);}
	.st14{fill:url(#SVGID_10_);}
	.st15{mask:url(#SVGID_9_);}
	.st16{opacity:0.6;}
	.st17{opacity:0.2;}
	.st18{fill:url(#SVGID_11_);}
	.st19{fill:url(#SVGID_12_);}
	.st20{opacity:0.1;fill:#F2F2F2;}
	.st21{fill:#2F4282;}
	.st22{fill:url(#SVGID_13_);}
	.st23{fill:url(#SVGID_14_);}
	.st24{fill:#FFFFFF;}
	.st25{fill:url(#SVGID_15_);}
	.st26{fill:url(#SVGID_16_);}
	.st27{fill:url(#SVGID_17_);}
	.st28{fill:url(#SVGID_18_);}
	.st29{fill:url(#SVGID_19_);}
	.st30{fill:url(#SVGID_20_);}
	.st31{fill:url(#SVGID_21_);}
	.st32{fill:url(#SVGID_22_);}
	.st33{fill:url(#SVGID_23_);}
	.st34{fill:url(#SVGID_24_);}
	.st35{filter:url(#Adobe_OpacityMaskFilter_1_);}
	.st36{fill:url(#SVGID_26_);}
	.st37{mask:url(#SVGID_25_);}
	.st38{fill:url(#SVGID_27_);}
	.st39{fill:url(#SVGID_28_);}
	.st40{fill:url(#SVGID_29_);}
	.st41{fill:url(#SVGID_30_);}
	.st42{fill:url(#SVGID_31_);}
	.st43{fill:url(#SVGID_32_);}
	.st44{fill:url(#SVGID_33_);}
	.st45{fill:url(#SVGID_34_);}
	.st46{fill:url(#SVGID_35_);}
	.st47{fill:url(#SVGID_36_);}
	.st48{fill:url(#SVGID_37_);}
	.st49{fill:url(#SVGID_38_);}
	.st50{fill:url(#SVGID_39_);}
	.st51{fill:url(#SVGID_40_);}
	.st52{filter:url(#Adobe_OpacityMaskFilter_2_);}
	.st53{fill:url(#SVGID_42_);}
	.st54{mask:url(#SVGID_41_);}
	.st55{fill:url(#SVGID_43_);}
	.st56{fill:url(#SVGID_44_);}
	.st57{fill:url(#SVGID_45_);}
	.st58{fill:url(#SVGID_46_);}
	.st59{fill:url(#SVGID_47_);}
	.st60{fill:url(#SVGID_48_);}
</style>
  <style
     id="style1178"
     type="text/css">
	.st0{fill:#363959;}
	.st1{fill:url(#SVGID_1_);}
	.st2{fill:#FBFBFB;}
	.st3{fill:#999999;}
	.st4{fill:#F8F8F8;}
	.st5{fill:url(#SVGID_2_);}
	.st6{fill:url(#SVGID_3_);}
	.st7{fill:url(#SVGID_4_);}
	.st8{fill:#3F6499;}
	.st9{fill:url(#SVGID_5_);}
	.st10{fill:url(#SVGID_6_);}
	.st11{fill:url(#SVGID_7_);}
	.st12{fill:url(#SVGID_8_);}
	.st13{filter:url(#Adobe_OpacityMaskFilter);}
	.st14{fill:url(#SVGID_10_);}
	.st15{mask:url(#SVGID_9_);}
	.st16{opacity:0.6;}
	.st17{opacity:0.2;}
	.st18{fill:url(#SVGID_11_);}
	.st19{fill:url(#SVGID_12_);}
	.st20{opacity:0.1;fill:#F2F2F2;}
	.st21{fill:#2F4282;}
	.st22{fill:url(#SVGID_13_);}
	.st23{fill:url(#SVGID_14_);}
	.st24{fill:#FFFFFF;}
	.st25{fill:url(#SVGID_15_);}
	.st26{fill:url(#SVGID_16_);}
	.st27{fill:url(#SVGID_17_);}
	.st28{fill:url(#SVGID_18_);}
	.st29{fill:url(#SVGID_19_);}
	.st30{fill:url(#SVGID_20_);}
	.st31{fill:url(#SVGID_21_);}
	.st32{fill:url(#SVGID_22_);}
	.st33{fill:url(#SVGID_23_);}
	.st34{fill:url(#SVGID_24_);}
	.st35{filter:url(#Adobe_OpacityMaskFilter_1_);}
	.st36{fill:url(#SVGID_26_);}
	.st37{mask:url(#SVGID_25_);}
	.st38{fill:url(#SVGID_27_);}
	.st39{fill:url(#SVGID_28_);}
	.st40{fill:url(#SVGID_29_);}
	.st41{fill:url(#SVGID_30_);}
	.st42{fill:url(#SVGID_31_);}
	.st43{fill:url(#SVGID_32_);}
	.st44{fill:url(#SVGID_33_);}
	.st45{fill:url(#SVGID_34_);}
	.st46{fill:url(#SVGID_35_);}
	.st47{fill:url(#SVGID_36_);}
	.st48{fill:url(#SVGID_37_);}
	.st49{fill:url(#SVGID_38_);}
	.st50{fill:url(#SVGID_39_);}
	.st51{fill:url(#SVGID_40_);}
	.st52{filter:url(#Adobe_OpacityMaskFilter_2_);}
	.st53{fill:url(#SVGID_42_);}
	.st54{mask:url(#SVGID_41_);}
	.st55{fill:url(#SVGID_43_);}
	.st56{fill:url(#SVGID_44_);}
	.st57{fill:url(#SVGID_45_);}
	.st58{fill:url(#SVGID_46_);}
	.st59{fill:url(#SVGID_47_);}
	.st60{fill:url(#SVGID_48_);}
</style>
</svg>
