<?xml version="1.0" encoding="UTF-8"?>
<svg viewBox="0 0 514 120" version="1.1" xmlns="http://www.w3.org/2000/svg" xmlns:xlink="http://www.w3.org/1999/xlink">
    <defs>
        <linearGradient x1="82.4099913%" y1="91.7924948%" x2="12.8097558%" y2="15.1083295%" id="linearGradient-1">
            <stop stop-color="#130036" offset="0%"></stop>
            <stop stop-color="#18023B" offset="22.97%"></stop>
            <stop stop-color="#26094A" offset="51.22%"></stop>
            <stop stop-color="#3D1563" offset="82.11%"></stop>
            <stop stop-color="#4E1D75" offset="100%"></stop>
        </linearGradient>
        <linearGradient x1="0.000857122989%" y1="50.0008835%" x2="99.9990125%" y2="50.0008835%" id="linearGradient-2">
            <stop stop-color="#3156A8" offset="0%"></stop>
            <stop stop-color="#3351A4" offset="24.74%"></stop>
            <stop stop-color="#3B4397" offset="53.65%"></stop>
            <stop stop-color="#472C82" offset="84.53%"></stop>
            <stop stop-color="#4E1D75" offset="100%"></stop>
        </linearGradient>
        <radialGradient cx="50.0001627%" cy="50.0000909%" fx="50.0001627%" fy="50.0000909%" r="72.1535445%" gradientTransform="translate(0.500002,0.500001),scale(1.000000,0.562109),translate(-0.500002,-0.500001)" id="radialGradient-3">
            <stop stop-color="#14CDDA" offset="16.54%"></stop>
            <stop stop-color="#2061BD" offset="54.78%"></stop>
            <stop stop-color="#2658AC" offset="65.46%"></stop>
            <stop stop-color="#373F81" offset="86.4%"></stop>
            <stop stop-color="#432D62" offset="100%"></stop>
        </radialGradient>
        <linearGradient x1="0.00116342883%" y1="49.9994012%" x2="100.000214%" y2="49.9994012%" id="linearGradient-4">
            <stop stop-color="#2061BD" offset="0%"></stop>
            <stop stop-color="#2B51AC" offset="18.46%"></stop>
            <stop stop-color="#442C84" offset="68.26%"></stop>
            <stop stop-color="#4E1D75" offset="94.09%"></stop>
        </linearGradient>
        <linearGradient x1="14.5585981%" y1="22.0975791%" x2="82.2173261%" y2="105.775364%" id="linearGradient-5">
            <stop stop-color="#48A8E0" offset="2.02%"></stop>
            <stop stop-color="#2061BD" offset="38.83%"></stop>
            <stop stop-color="#2B51AC" offset="49.68%"></stop>
            <stop stop-color="#442C84" offset="78.92%"></stop>
            <stop stop-color="#4E1D75" offset="94.09%"></stop>
        </linearGradient>
        <linearGradient x1="-61.7147999%" y1="142.167106%" x2="79.2776905%" y2="11.2238611%" id="linearGradient-6">
            <stop stop-color="#3156A8" offset="37.87%"></stop>
            <stop stop-color="#4E1D75" offset="100%"></stop>
        </linearGradient>
        <linearGradient x1="-6.88576212%" y1="137.859537%" x2="71.1491415%" y2="7.46769529%" id="linearGradient-7">
            <stop stop-color="#29ABE2" offset="0%"></stop>
            <stop stop-color="#385AA6" offset="77.33%"></stop>
            <stop stop-color="#414293" offset="85.75%"></stop>
            <stop stop-color="#4E1D75" offset="100%"></stop>
        </linearGradient>
        <linearGradient x1="21.2156747%" y1="39.7769447%" x2="53.773506%" y2="55.0936312%" id="linearGradient-8">
            <stop stop-color="#B0DCD6" offset="0%"></stop>
            <stop stop-color="#53ACE0" offset="100%"></stop>
        </linearGradient>
        <linearGradient x1="90.6776278%" y1="71.3565337%" x2="10.4584082%" y2="33.2008433%" id="linearGradient-9">
            <stop stop-color="#3092B9" offset="0%"></stop>
            <stop stop-color="#258DB6" offset="21.99%"></stop>
            <stop stop-color="#1685B1" offset="65.64%"></stop>
            <stop stop-color="#1082AF" offset="100%"></stop>
        </linearGradient>
        <linearGradient x1="42.2661403%" y1="13.562139%" x2="61.4467836%" y2="86.4025898%" id="linearGradient-10">
            <stop stop-color="#1398D1" stop-opacity="0" offset="0.74%"></stop>
            <stop stop-color="#1187C2" stop-opacity="0.6197" offset="24.82%"></stop>
            <stop stop-color="#3F6499" stop-opacity="0.71" offset="64.22%"></stop>
            <stop stop-color="#2F4282" stop-opacity="0.5" offset="100%"></stop>
        </linearGradient>
        <linearGradient x1="76.7508078%" y1="66.5688171%" x2="22.6480893%" y2="37.0318554%" id="linearGradient-11">
            <stop stop-color="#F9C21B" offset="0%"></stop>
            <stop stop-color="#F3BA1B" offset="14.79%"></stop>
            <stop stop-color="#E3A41B" offset="37.87%"></stop>
            <stop stop-color="#C9801C" offset="66.34%"></stop>
            <stop stop-color="#A44E1C" offset="98.84%"></stop>
            <stop stop-color="#A34C1C" offset="100%"></stop>
        </linearGradient>
        <linearGradient x1="56.8196517%" y1="80.8446793%" x2="6.88072074%" y2="13.3548337%" id="linearGradient-12">
            <stop stop-color="#409EC3" offset="0%"></stop>
            <stop stop-color="#2061BD" offset="62%"></stop>
        </linearGradient>
        <linearGradient x1="65.6644684%" y1="91.1201944%" x2="41.5171791%" y2="7.27770823%" id="linearGradient-13">
            <stop stop-color="#14B2DA" offset="0%"></stop>
            <stop stop-color="#297CCC" offset="40.28%"></stop>
            <stop stop-color="#256FC5" offset="50.77%"></stop>
            <stop stop-color="#2164BF" offset="64.92%"></stop>
            <stop stop-color="#2061BD" offset="81.62%"></stop>
            <stop stop-color="#2061BD" offset="98.35%"></stop>
        </linearGradient>
        <path d="M509.284172,55.8984649 C509.547457,55.8984649 509.755731,55.8458086 509.909001,55.7404945 C510.06227,55.6351804 510.138904,55.4452418 510.138904,55.170673 C510.138904,54.8754174 510.031711,54.6741953 509.817322,54.5670006 C509.702604,54.5105824 509.549337,54.4823737 509.357515,54.4823737 L507.986558,54.4823737 L507.986558,55.8984649 L509.284172,55.8984649 Z M507.425199,54 L509.343411,54 C509.659353,54 509.919813,54.0460742 510.1248,54.138224 C510.514086,54.3150012 510.708726,54.6412819 510.708726,55.1170759 C510.708726,55.3653162 510.65748,55.5684189 510.554987,55.72639 C510.452493,55.8843612 510.309099,56.0113003 510.1248,56.1072114 C510.286532,56.1730327 510.408299,56.2595394 510.490106,56.3667341 C510.571912,56.4739287 510.617517,56.6478824 510.62692,56.8886003 L510.646666,57.4443174 C510.652308,57.6022885 510.665472,57.7198248 510.686158,57.7969297 C510.720009,57.9285723 510.780188,58.0131984 510.866696,58.0508106 L510.866696,58.1439003 L510.178397,58.1439003 C510.159591,58.1081687 510.144546,58.0620945 510.133262,58.0056762 C510.121979,57.949258 510.112576,57.8401843 510.105053,57.678452 L510.071202,56.9873318 C510.058038,56.7165241 509.957427,56.5350481 509.769366,56.4428983 C509.662172,56.3921219 509.49386,56.3667341 509.264425,56.3667341 L507.986558,56.3667341 L507.986558,58.1439003 L507.425199,58.1439003 L507.425199,54 Z" id="path-14"></path>
    </defs>
    <g id="Page-1" stroke="none" stroke-width="1" fill="none" fill-rule="evenodd">
        <g id="logo-wordmark" transform="translate(0.574801, 0.165347)">
            <g id="g1400" transform="translate(0.183728, 0.091986)">
                <g id="g1204" transform="translate(142.410713, 30.958851)" fill="#FFFFFF">
                    <polygon id="polygon1180" points="33.9014893 13.1311965 34.6808784 6.82178273 0.0859108104 6.82178273 0.0859108104 13.1311965 13.5514629 13.1311965 13.5514629 54.9016517 20.8236969 54.9016517 20.8236969 13.1311965"></polygon>
                    <path d="M56.4503682,17.1264361 C52.3738615,17.1264361 48.8987305,18.8485222 46.1054682,22.2493519 L46.1054682,2.72592679 L39.0398846,3.49370629 L39.0398846,54.9016517 L46.1054682,54.9016517 L46.1054682,28.874546 C47.3415003,26.9504534 48.6781487,25.4427574 50.0790367,24.3924784 C51.470637,23.3476172 53.0828192,22.8182208 54.8706928,22.8182208 C56.6314774,22.8182208 57.9843792,23.3096926 58.8922475,24.2802525 C59.8055336,25.2585522 60.2691424,26.9992136 60.2691424,29.4534765 L60.2691424,54.9016517 L67.3339521,54.9016517 L67.3339521,28.5603136 C67.3339521,25.0433882 66.3641661,22.2300027 64.4501351,20.1983281 C62.5299124,18.1596878 59.8380404,17.1264361 56.4503682,17.1264361 Z" id="path1182"></path>
                    <path d="M97.8485432,44.0513485 C95.4236912,48.0218211 92.4988538,50.0349203 89.152202,50.0349203 C87.3062806,50.0349203 85.9688582,49.558928 85.1778596,48.6216488 C84.3698336,47.6642464 83.9604028,45.976989 83.9604028,43.605541 L83.9604028,17.9514895 L76.8955931,17.9514895 L76.8955931,44.2928275 C76.8955931,47.9010816 77.8305504,50.7369123 79.6741499,52.7213746 C81.5247152,54.7151246 84.1128751,55.7259311 87.3666503,55.7259311 C89.9857691,55.7259311 92.2442172,55.188795 94.0800771,54.1307763 C95.6582045,53.2198121 97.0931472,51.8367254 98.3547204,50.0086053 L98.7726648,54.9024256 L104.914901,54.9024256 L104.914901,17.9514895 L97.8493171,17.9514895 L97.8493171,44.0513485 L97.8485432,44.0513485 Z" id="path1184"></path>
                    <path d="M132.570442,17.1264361 C130.224535,17.1264361 128.04658,17.6984009 126.09772,18.826077 C124.432134,19.7888973 122.98326,21.0767855 121.779735,22.6618786 L121.296003,17.9522635 L115.160732,17.9522635 L115.160732,54.9024256 L122.225542,54.9024256 L122.225542,28.9418815 C123.4608,26.9736725 124.797449,25.4435314 126.198337,24.3924784 C127.590711,23.3476172 129.226112,22.8182208 131.05965,22.8182208 C132.819661,22.8182208 134.159405,23.3089186 135.044054,24.2771567 C135.936443,25.2554563 136.389216,26.9968917 136.389216,29.4534765 L136.389216,54.9016517 L143.4548,54.9016517 L143.4548,28.5603136 C143.4548,25.0433882 142.48424,22.2300027 140.570983,20.1983281 C138.649986,18.1596878 135.958114,17.1264361 132.570442,17.1264361 Z" id="path1186"></path>
                    <path d="M175.066882,21.0574362 C172.353339,18.4483791 169.200954,17.1264361 165.684029,17.1264361 C162.72978,17.1264361 160.111436,17.9723867 157.902522,19.6410688 C155.703669,21.3020111 153.997836,23.6324386 152.834558,26.5673376 C151.677471,29.4836614 151.0908,32.8581761 151.0908,36.5980052 C151.0908,42.3749267 152.327607,47.0473913 154.765616,50.4853716 C157.233036,53.9628245 160.721325,55.7259311 165.135283,55.7259311 C167.389861,55.7259311 169.46333,55.188795 171.298416,54.1307763 C172.854872,53.2321956 174.207,52.0217046 175.326163,50.5248442 L175.865621,54.9016517 L182.132466,54.9016517 L182.132466,3.4286927 L175.066882,2.58351608 L175.066882,21.0574362 Z M175.066882,27.3815554 L175.066882,44.8586005 C173.837816,46.5520497 172.554572,47.8391639 171.251978,48.6866624 C169.945514,49.5349349 168.349586,49.9652629 166.508308,49.9652629 C163.965812,49.9652629 162.069583,48.8995045 160.710489,46.7060699 C159.335142,44.4878683 158.63702,41.0413742 158.63702,36.4602383 C158.63702,31.9278626 159.390868,28.4836905 160.876893,26.2221464 C162.351308,23.9768558 164.372921,22.8863303 167.057828,22.8863303 C168.674654,22.8863303 170.148295,23.2733159 171.436183,24.0364516 C172.71014,24.7926215 173.930692,25.9179757 175.066882,27.3815554 Z" id="path1188" fill-rule="nonzero"></path>
                    <path d="M205.186748,17.1264361 C202.053712,17.1264361 199.286765,17.9824484 196.964077,19.6712537 C194.649903,21.3546412 192.851194,23.7082878 191.619032,26.664858 C190.390739,29.6051748 189.76924,33.0168402 189.76924,36.8046555 C189.76924,42.6396249 191.220437,47.297384 194.08413,50.6494535 C196.960981,54.0177765 201.020461,55.7259311 206.149568,55.7259311 C210.794944,55.7259311 215.126087,54.1733447 219.02071,51.1122883 L219.30321,50.8901586 L216.131476,46.5280565 L215.833497,46.7331589 C214.264657,47.808205 212.745351,48.6022995 211.319696,49.0929973 C209.901007,49.5805992 208.323654,49.827496 206.630978,49.827496 C204.002572,49.827496 201.829261,48.9196278 200.171414,47.1302062 C198.55691,45.3895448 197.584028,42.6427208 197.277536,38.9624874 L220.302407,38.9624874 L220.331044,38.6203921 C220.422372,37.5128393 220.469585,36.4168959 220.469585,35.3611991 C220.469585,29.7119829 219.146868,25.2183057 216.540132,22.004777 C213.909404,18.7680292 210.09063,17.1264361 205.186748,17.1264361 Z M197.272118,33.5462365 C197.788357,26.3746188 200.426051,22.8863303 205.324515,22.8863303 C208.027223,22.8863303 210.076698,23.784137 211.416443,25.5549832 C212.779406,27.3591102 213.470562,30.0347289 213.470562,33.506764 L213.470562,33.5462365 L197.272118,33.5462365 Z" id="path1190" fill-rule="nonzero"></path>
                    <path d="M243.865188,17.1264361 C241.588165,17.1264361 239.566552,17.8493253 237.855301,19.2742064 C236.479954,20.4204578 235.326737,22.0303181 234.416547,24.0712803 L233.901856,17.9514895 L227.75962,17.9514895 L227.75962,54.9016517 L234.82443,54.9016517 L234.82443,33.8914277 C235.585243,30.5045295 236.643262,27.9829311 237.966753,26.3939681 C239.278634,24.8197105 240.960474,24.0542529 243.10747,24.0542529 C244.080352,24.0542529 245.11283,24.1889239 246.177814,24.45517 L246.560156,24.5511425 L247.866619,17.6341613 L247.525298,17.5490245 C246.405362,17.2688469 245.172425,17.1264361 243.865188,17.1264361 Z" id="path1192"></path>
                    <path d="M269.146959,17.1264361 C265.181131,17.1264361 261.866986,18.6898581 259.282696,21.7772295 L259.282696,2.58351608 L252.217886,3.4286927 L252.217886,54.9016517 L258.473896,54.9016517 L259.016449,51.4025276 C261.594548,54.272413 264.745385,55.7259311 268.391563,55.7259311 C271.34349,55.7259311 273.960287,54.9039736 276.169201,53.2840517 C278.368053,51.6695477 280.07466,49.3731749 281.241034,46.4583991 C282.398121,43.5637466 282.985566,40.1776223 282.985566,36.3921289 C282.985566,30.3868858 281.736376,25.6316064 279.272051,22.2601875 C276.780638,18.853166 273.373616,17.1264361 269.146959,17.1264361 Z M267.360634,22.8863303 C269.953437,22.8863303 271.896879,23.9002327 273.303185,25.9853112 C274.720326,28.0889651 275.438572,31.5904111 275.438572,36.3913549 C275.438572,41.0553057 274.663827,44.5312107 273.135233,46.7238713 C271.615154,48.9056963 269.569548,49.9652629 266.879997,49.9652629 C265.398616,49.9652629 263.974509,49.5457705 262.645601,48.7160733 C261.332171,47.8995336 260.201399,46.7672137 259.28347,45.3508463 L259.28347,28.2584648 C261.613123,24.6935532 264.329762,22.8863303 267.360634,22.8863303 Z" id="path1194" fill-rule="nonzero"></path>
                    <rect id="rect1196" x="290.964443" y="17.9514895" width="7.06480994" height="36.9501629"></rect>
                    <path d="M294.427957,0.569642851 C293.049514,0.569642851 291.897845,1.02241604 291.004682,1.91480491 C290.111519,2.80874172 289.658746,3.93719182 289.658746,5.26997034 C289.658746,6.60584474 290.112293,7.72423322 291.008552,8.59417692 C291.900941,9.46179871 293.051836,9.90141439 294.428731,9.90141439 C295.852064,9.90141439 297.026178,9.46179871 297.917793,8.59417692 C298.813278,7.72423322 299.267599,6.60584474 299.267599,5.26997034 C299.267599,3.93796579 298.814826,2.80874172 297.921663,1.91480491 C297.027726,1.02241604 295.852838,0.569642851 294.427957,0.569642851 Z" id="path1198"></path>
                    <path d="M324.381419,17.1264361 C322.104395,17.1264361 320.082782,17.8493253 318.371532,19.2742064 C316.996185,20.4204578 315.842968,22.0303181 314.932777,24.0712803 L314.418087,17.9514895 L308.275851,17.9514895 L308.275851,54.9016517 L315.34066,54.9016517 L315.34066,33.8914277 C316.101474,30.5045295 317.159493,27.9829311 318.482984,26.3939681 C319.794865,24.8197105 321.476704,24.0542529 323.623701,24.0542529 C324.596583,24.0542529 325.62906,24.1889239 326.694045,24.45517 L327.076387,24.5511425 L328.38285,17.6341613 L328.041529,17.5490245 C326.920818,17.2688469 325.688656,17.1264361 324.381419,17.1264361 Z" id="path1200"></path>
                    <path d="M352.381377,2.58351608 L352.381377,21.0574362 C349.667834,18.4483791 346.515449,17.1264361 342.998523,17.1264361 C340.044275,17.1264361 337.42593,17.9723867 335.217016,19.6410688 C333.018164,21.3020111 331.313105,23.6324386 330.149052,26.5673376 C328.991965,29.4836614 328.405295,32.8581761 328.405295,36.5980052 C328.405295,42.3749267 329.642101,47.0473913 332.080111,50.4853716 C334.547531,53.9628245 338.03582,55.7259311 342.449778,55.7259311 C344.704356,55.7259311 346.777825,55.188795 348.612911,54.1307763 C350.169367,53.2321956 351.521495,52.0217046 352.640657,50.5248442 L353.180115,54.9016517 L359.446961,54.9016517 L359.446961,3.4286927 L352.381377,2.58351608 Z M352.381377,27.3815554 L352.381377,44.8586005 C351.152311,46.5520497 349.869066,47.8391639 348.566473,48.6866624 C347.260009,49.5349349 345.66408,49.9652629 343.822803,49.9652629 C341.280307,49.9652629 339.384078,48.8995045 338.024984,46.7060699 C336.649637,44.4878683 335.951515,41.0413742 335.951515,36.4602383 C335.951515,31.9278626 336.705363,28.4836905 338.191388,26.2221464 C339.665803,23.9768558 341.687416,22.8863303 344.372322,22.8863303 C345.989148,22.8863303 347.46279,23.2733159 348.750678,24.0364516 C350.024635,24.7926215 351.245187,25.9179757 352.381377,27.3815554 Z" id="path1202" fill-rule="nonzero"></path>
                </g>
                <g id="g1398">
                    <g id="g1372">
                        <path d="M92.951627,17.4654356 C85.8156119,12.8045806 76.6897167,11.2953366 71.6534857,10.7682622 C66.2627759,10.2048111 61.5810237,10.3038794 57.4634965,10.908351 C57.1144355,10.9037072 56.7676964,10.8905497 56.4170874,10.8905497 C56.1492933,10.8905497 55.8853691,10.9021592 55.6160271,10.9052551 C55.726705,10.7698101 55.8033282,10.6862213 55.8033282,10.6862213 C55.8033282,10.6862213 55.5866162,10.720276 55.161706,10.9129948 C53.8250576,10.934666 52.4938271,10.9811043 51.1834937,11.070885 C53.0092919,9.06939528 54.5053784,8.01989024 54.5053784,8.01989024 C54.5053784,8.01989024 52.7298883,8.27994459 49.4900446,11.2163916 C47.9490678,11.3580283 46.4282143,11.5461033 44.9344497,11.7798426 C48.3391493,7.17316568 51.9001911,5.23281972 51.9001911,5.23281972 C51.9001911,5.23281972 47.5837533,4.35436233 40.8246623,11.1459602 C40.2588893,11.7148291 39.7349108,12.3053691 39.2271856,12.9036489 C19.526521,17.669764 5.42786048,30.3915296 5.42786048,45.3415586 C5.42786048,48.2733617 4.5277319,51.497726 5.49829186,54.7182205 C5.11053226,59.8620335 5.9363596,73.8980024 5.9363596,73.8980024 C5.9363596,73.8980024 11.2690216,102.759391 31.7761642,107.777047 C32.1020061,107.855218 27.4914593,100.582984 25.452045,91.8123413 C29.4225176,95.8509233 34.1545779,99.0458767 39.4663427,99.5992662 C40.1180265,99.6666017 36.4323754,95.347068 33.2041412,90.1343716 L79.8049511,105.835153 C104.17808,95.3664173 101.340702,96.3098883 106.573521,90.6413227 C118.102597,78.1618101 119.716327,71.080747 116.811613,50.1734612 C114.848048,36.0608692 104.431169,22.0829481 92.951627,17.4654356 Z" id="path1217" fill="url(#linearGradient-1)"></path>
                        <polygon id="polygon1219" fill="#FBFBFB" points="8.06400661 82.1678853 85.0888529 107.777047 99.3740405 47.0404255 11.1645355 30.6453922 4.20575985 70.2123512"></polygon>
                        <g id="g1223" transform="translate(10.061626, 31.732822)" fill="#999999">
                            <path d="M1.31962101,0.258506402 C1.70583267,1.08975154 1.59205889,1.28634024 1.35135383,1.28634024 C1.24299785,1.28634024 1.10910082,1.24686771 0.983717477,1.2066212 C0.858334132,1.16714867 0.7406905,1.12690216 0.664841316,1.12690216 C0.451999219,1.12690216 0.571964765,1.44190847 1.77858597,2.9573442 C3.4851926,5.12523771 28.5479301,42.961597 29.9178592,42.961597 C29.924825,42.961597 29.9317907,42.960823 29.9372085,42.9585011 C41.6048253,38.8007274 91.2248971,21.7694898 91.2248971,21.7694898 L86.1476456,14.3741943 L1.31962101,0.258506402" id="path1221"></path>
                        </g>
                        <path d="M12.1087804,31.0617888 C12.1087804,31.0617888 12.4826086,32.9967169 14.2155302,35.1382954 C15.9376163,37.2992232 39.0716174,72.3268407 40.2325743,72.0180262 C55.3869316,67.9949235 110.369076,46.5892003 110.369076,46.5892003 L12.1087804,31.0617888 Z" id="path1225" fill="#F8F8F8"></path>
                        <polygon id="polygon1227" fill="#999999" points="82.338159 106.864534 9.13750475 82.526234 9.39601115 84.2367105 83.1531508 108.75999"></polygon>
                        <path d="M28.3962317,29.4248395 C28.3962317,29.4248395 1.76233257,37.2249219 13.9833388,64.3797038 C13.9833388,64.3797038 8.37978688,59.2490483 5.04319676,52.6888678 C4.89304634,52.3955327 10.6049543,32.105102 10.6049543,32.105102 L28.3962317,29.4248395 Z" id="path1240" fill="url(#linearGradient-2)"></path>
                        <path d="M13.9833388,64.3804777 C11.6676168,64.3402312 7.945589,62.4292962 6.7389678,60.1158961 C5.23049781,85.2614485 15.4894869,99.9460053 31.7769382,107.777047 C26.4543378,107.167157 0,93.2070375 0,59.6128147 C0,31.0478573 22.6665225,5.51531923 58.1376255,4.34584865 C58.3551114,5.9471952 40.5522244,9.96255812 39.9825816,11.851048 C39.0987064,14.7898169 37.0670318,17.9886401 35.3542334,20.5535809 C33.0323196,24.0279379 38.5809196,26.9992136 34.503639,27.9357188 C28.3683688,29.3435726 20.1843966,28.5641835 14.1497427,36.4091562 C5.07802547,48.2013824 11.1312547,61.6917016 13.9833388,64.3804777 Z" id="path1253" fill="url(#radialGradient-3)"></path>
                        <g id="g1266" transform="translate(21.671195, 4.643828)" fill="url(#linearGradient-4)">
                            <path d="M45.7695647,0.621498925 C22.7980976,-1.14160762 10.9749125,8.05084909 3.38535031,18.7386183 C0.621498925,22.6293718 0.923347719,26.2020232 1.87533237,30.517687 C2.2839892,32.3597386 2.69728986,33.2428398 2.19962633,35.121268 C1.92486654,36.1576156 1.97053084,37.1250797 1.62920951,37.7365169 C1.15786101,38.5816936 0.556485339,39.5050413 0.35525281,41.022025 C-0.147828512,44.8106143 1.19346369,46.0172355 2.03167457,47.2919662 C3.22591223,46.1062422 5.55788765,43.3160758 9.76209956,41.6497157 C13.9670854,39.9833555 16.7340327,37.4780105 22.0040031,34.7892344 C29.2042577,31.1167407 37.6444144,36.6885599 53.6462703,31.4449045 C58.5702755,29.8311745 69.8865093,13.0677308 72.5729636,12.4237867 C65.0917573,4.15158186 52.3645739,1.12690216 45.7695647,0.621498925 Z" id="path1264"></path>
                        </g>
                        <path d="M52.2647316,0.0154794253 C52.2647316,0.0154794253 48.1626839,1.99684586 46.3771321,5.57646296 C50.501625,3.49757614 52.8955181,2.36138633 54.0270641,2.22594136 C54.0270641,2.22594136 52.9427304,2.75069387 51.5983423,5.60664784 C53.9752081,4.84583409 54.7932957,4.36519793 55.4457535,4.35823219 C55.4457535,4.35823219 55.2561305,4.65853304 55.0827609,7.50829524 C51.4327124,6.32566715 44.4081493,7.703336 40.670642,10.0438251 C39.4036511,3.28628199 52.2647316,0.0154794253 52.2647316,0.0154794253 Z" id="path1268" fill="#3F6499"></path>
                        <path d="M68.5885595,4.24678033 C61.5469689,3.33426821 55.6609175,3.51382954 50.6564193,4.47819774 C52.2299029,2.96972774 54.0510572,2.22671533 54.0510572,2.22671533 C51.6912189,2.4349136 48.7462582,3.97589039 46.218468,5.60664784 C44.9445113,6.01298275 43.7309244,6.47194771 42.5815771,6.98354272 C43.2851169,6.05632515 44.1039785,5.06486796 44.9042648,4.3040542 C47.8755405,1.47828512 52.2887247,0.0154794253 52.2887247,0.0154794253 C48.5225805,-0.260828316 35.9176845,2.96585789 28.3327661,18.3276395 C27.0897682,19.8423013 25.9295853,21.3956616 24.8243543,22.9528918 C21.9714963,26.9705767 22.2841807,30.6585497 23.2678981,35.1150763 C23.6873906,37.0182716 23.7647877,40.0561088 23.3507131,42.0189 C23.2678981,42.4120774 22.1882082,43.4275277 21.9111265,46.165838 C21.6146955,49.0713261 22.651817,50.4985291 23.674233,51.6788353 C27.3064802,46.3678445 30.8891932,45.3152436 30.8891932,45.3152436 C35.9726364,43.2324869 38.0886739,41.0080935 43.5304658,38.2318586 C50.9652338,34.4386254 76.9637026,46.8190697 93.4848932,41.4051407 C98.5691104,39.7395546 91.5275198,18.099318 94.3029808,17.4352507 C86.5771996,8.8937038 75.3592601,5.12446374 68.5885595,4.24678033 Z" id="path1281" fill="url(#linearGradient-5)"></path>
                        <path d="M120.159039,50.8282409 C116.086402,29.5517708 96.4909976,10.1947495 80.7337166,9.12202532 C73.7401122,8.646033 75.8878825,12.2310679 71.511849,13.5971272 C52.6540391,19.4816307 52.3661218,22.9172891 52.3661218,22.9172891 C92.3502513,24.7964914 92.9562708,64.2852793 82.2483783,74.2757004 C85.2614485,73.5729344 88.5283812,69.8888312 91.5290678,64.1057179 C91.1691711,66.5321179 90.8595826,69.5088113 90.4099053,72.829922 C89.0384283,82.9643018 90.8146923,104.134738 61.6932495,118.302282 C61.6932495,118.302282 77.6239,117.000462 85.5230508,108.107532 C82.3102961,115.495088 73.4955373,119.485684 73.4955373,119.485684 C79.9829645,118.536795 97.0227158,113.508304 107.877663,99.9336217 C120.162909,84.5679702 123.857848,70.1527554 120.159039,50.8282409 Z" id="path1288" fill="url(#linearGradient-6)"></path>
                        <path d="M81.1926815,89.6707628 C81.1926815,89.6707628 94.1822413,86.0392896 98.3678779,79.024788 C97.8601527,87.2033424 90.4416382,95.590095 90.4416382,95.590095 C90.4416382,95.590095 101.286524,93.3951125 105.911002,85.7637558 C105.308852,92.6505521 96.9592502,101.957557 96.9592502,101.957557 C105.495379,100.425867 126.942897,86.8775005 120.158265,50.8274669 C116.151416,29.5378393 96.4902236,10.1939755 80.7321686,9.12125135 C73.7385643,8.64525903 75.8863346,12.2302939 71.510301,13.5963532 C52.6540391,19.4816307 52.3661218,22.9172891 52.3661218,22.9172891 C92.3502513,24.7964914 102.975329,45.7231264 82.2483783,73.7168931 C85.2614485,73.0141272 86.4696176,71.3578287 88.7334836,68.6481553 C88.7327096,68.6481553 89.7589955,79.3661094 81.1926815,89.6707628 Z" id="path1299" fill="url(#linearGradient-7)"></path>
                        <path d="M29.8257567,42.1071327 C29.8257567,42.1071327 27.5038429,43.7316984 25.8220033,43.3176237 C23.8313492,42.8292479 23.4946717,40.9005115 23.4946717,40.9005115 C23.4505553,41.2952368 23.4002472,41.6768047 23.3267199,42.0189 C23.243905,42.4120774 22.1642151,43.4275277 21.8871334,46.165838 C21.5907024,49.0713261 22.6820019,50.7547136 23.7044179,51.9350198 C27.3366651,46.624029 30.8652001,45.3152436 30.8652001,45.3152436 C29.4821134,44.8322855 29.8257567,42.1071327 29.8257567,42.1071327 Z" id="path1306" fill="url(#linearGradient-8)"></path>
                        <g id="g1338" transform="translate(79.719040, 8.513684)" fill="url(#linearGradient-9)" opacity="0.6">
                            <g id="g1336">
                                <g id="g1334" opacity="0.2">
                                    <path d="M0.745334328,0.557259311 C1.28943613,0.41639654 3.51150763,0.657875575 4.96966949,1.31188129 C6.42783135,1.96588701 8.94246399,3.12220008 6.93091267,3.6252814 C4.91936136,4.12836273 3.76227432,3.32343261 2.75688564,2.46896833 C1.75149697,1.61450406 -0.61221127,0.909416236 0.745334328,0.557259311 Z" id="path1332"></path>
                                </g>
                            </g>
                        </g>
                        <path d="M30.0432426,41.7898045 C30.0432426,41.7898045 42.7828096,20.7958339 54.300276,15.1303643 C55.3699043,14.5924542 38.354146,19.6534523 31.5060483,27.2112817 C27.4357334,31.7034109 29.5904694,40.4988204 30.0432426,41.7898045 Z" id="path1349" fill="url(#linearGradient-10)"></path>
                        <path d="M30.0432426,41.7898045 C30.0548521,41.7820647 30.0680097,41.775099 30.0803932,41.7673593 C33.3744149,39.7318149 39.0197613,38.5600224 40.8393677,34.8705014 C47.8453556,20.6642588 54.300276,15.1303643 54.300276,15.1303643 C42.7828096,20.7950599 30.0432426,41.7898045 30.0432426,41.7898045 Z" id="path1351" fill="#F2F2F2" opacity="0.1"></path>
                        <path d="M31.2545076,37.950133 C31.2545076,37.950133 28.9589088,34.4277898 32.2645401,31.2150351 C34.0090713,29.5223599 36.6537312,30.462735 36.9594498,30.7669057 C38.2604955,32.0571158 37.4424079,34.7807207 36.2713893,36.3216975 C35.6096439,37.1893193 33.6832294,38.5406731 31.2545076,37.950133 Z" id="path1353" fill="#2F4282"></path>
                        <path d="M32.5702588,37.7310992 C32.5702588,37.7310992 30.9836177,35.2954116 33.2699288,33.076436 C34.4734541,31.9069654 36.3015742,32.5571012 36.5136424,32.7660735 C37.412223,33.6576884 36.84645,35.5399865 36.03765,36.604197 C35.581007,37.2063466 34.2490024,38.139756 32.5702588,37.7310992 Z" id="path1368" fill="url(#linearGradient-11)"></path>
                        <path d="M35.7381231,35.1328776 C35.7025205,36.1057595 34.879015,36.8657993 33.8983934,36.8325185 C32.9162239,36.7984638 32.1468965,35.983472 32.1824992,35.0098162 C32.2173279,34.0369343 33.0408333,33.2768945 34.0237768,33.3109493 C35.0036244,33.34423 35.7714039,34.1599957 35.7381231,35.1328776 Z" id="path1370" fill="#000000"></path>
                    </g>
                    <circle id="circle1374" fill="#FFFFFF" cx="32.8349569" cy="34.5880011" r="1"></circle>
                    <path d="M112.447189,31.9913283 C103.726855,18.7161731 96.8176134,15.3432064 96.8176134,15.3432064 C96.8176134,15.3432064 97.1349417,25.0132033 101.976906,29.6771542 C102.530295,30.2096464 96.182957,25.5278942 96.182957,25.5278942 C96.182957,25.5278942 94.8254114,29.9944824 97.9360019,35.1290078 C97.0327774,33.9285783 96.4344977,33.4742572 96.4344977,33.4742572 C96.4344977,33.4742572 90.5747612,36.1761909 88.8449354,39.9253077 C87.9517726,38.2395983 87.2815135,37.2458192 87.2815135,37.2458192 C87.2815135,37.2458192 83.228226,45.3345929 83.738273,54.7128027 C84.5671963,69.9615845 80.8823191,75.5798419 80.8823191,75.5798419 C80.8823191,75.5798419 90.7527746,71.7928005 95.4856089,59.6019791 C97.4406603,64.7852647 95.4260131,70.2409882 95.4260131,70.2409882 C95.4260131,70.2409882 103.401013,64.2821834 105.116133,53.4210446 C107.017007,56.4867448 106.4582,62.6057616 106.4582,62.6057616 C106.4582,62.6057616 111.548609,55.5185068 111.672444,47.8004653 C114.031508,49.4451542 114.248994,55.8706637 114.248994,55.8706637 C114.248994,55.8706637 121.795988,46.2215639 112.447189,31.9913283 Z" id="path1381" fill="url(#linearGradient-12)"></path>
                    <path d="M103.97143,22.7145087 C101.692084,18.4677283 97.6713037,15.7611508 94.136577,13.5708122 C85.3233662,8.10580105 79.6555746,7.33879553 79.6555746,7.33879553 C79.6555746,7.33879553 71.5226846,8.85113538 72.9189287,11.1142274 C72.9909081,11.230323 73.1580858,11.3773776 73.395695,11.5461033 C66.2612279,8.25982134 62.2141322,15.8161028 62.2141322,15.8161028 C58.1376255,15.568432 53.1733738,17.5753395 51.7260476,22.9513439 C51.5758971,23.5093772 53.5518458,23.1951448 54.568844,23.4165006 C60.5129433,24.7090326 66.1087556,27.5108086 68.6798881,28.8954432 C74.661138,32.1174856 78.2090223,37.4826544 80.2584982,41.507305 C82.7367542,46.3763582 83.7491086,54.9434461 83.7491086,54.9434461 C83.7491086,54.9434461 90.2705905,45.9847287 88.7125864,41.3850175 C91.2953285,42.9894599 91.8053755,48.7129774 91.8053755,48.7129774 C91.8053755,48.7129774 96.1527721,41.9035782 94.8679798,35.9718625 C98.2215973,38.0159206 98.3338231,42.1729202 98.3338231,42.1729202 C98.3338231,42.1729202 101.748584,37.4338942 100.205286,29.6601268 C103.5798,32.3434852 104.286436,35.8193901 104.286436,35.8193901 C104.286436,35.8193901 107.044096,28.4403481 103.97143,22.7145087 Z" id="path1396" fill="url(#linearGradient-13)"></path>
                </g>
            </g>
            <path d="M509,60 C506.790861,60 505,58.209139 505,56 C505,53.790861 506.790861,52 509,52 C511.209139,52 513,53.790861 513,56 C513,58.209139 511.209139,60 509,60 Z M509.025199,59.234653 C510.792511,59.234653 512.225199,57.8019642 512.225199,56.034653 C512.225199,54.2673419 510.792511,52.834653 509.025199,52.834653 C507.257888,52.834653 505.825199,54.2673419 505.825199,56.034653 C505.825199,57.8019642 507.257888,59.234653 509.025199,59.234653 Z" id="Combined-Shape" fill="#FFFFFF"></path>
            <g id="tspan1038">
                <use fill="#000000" xlink:href="#path-14"></use>
                <use fill="#FFFFFF" xlink:href="#path-14"></use>
            </g>
        </g>
    </g>
</svg>
