<?xml version="1.0" encoding="UTF-8" standalone="no"?>
<svg
   width="635"
   height="466"
   viewBox="0 0 635 466"
   fill="none"
   version="1.1"
   id="svg38"
   sodipodi:docname="logo-wireframe.svg"
   inkscape:version="1.1.2 (0a00cf5339, 2022-02-04)"
   xmlns:inkscape="http://www.inkscape.org/namespaces/inkscape"
   xmlns:sodipodi="http://sodipodi.sourceforge.net/DTD/sodipodi-0.dtd"
   xmlns="http://www.w3.org/2000/svg"
   xmlns:svg="http://www.w3.org/2000/svg">
  <defs
     id="defs42" />
  <sodipodi:namedview
     id="namedview40"
     pagecolor="#ffffff"
     bordercolor="#666666"
     borderopacity="1.0"
     inkscape:pageshadow="2"
     inkscape:pageopacity="0.0"
     inkscape:pagecheckerboard="0"
     showgrid="false"
     inkscape:zoom="0.77145923"
     inkscape:cx="311.74687"
     inkscape:cy="282.58136"
     inkscape:window-width="1920"
     inkscape:window-height="1011"
     inkscape:window-x="1920"
     inkscape:window-y="32"
     inkscape:window-maximized="1"
     inkscape:current-layer="svg38" />
  <g
     id="g1629"
     style="fill:#333333;opacity:0.5">
    <path
       d="m 180.135,242.081 c -0.345,0.183 -0.707,0.376 -1.082,0.578 -3.835,2.07 -9.208,5.187 -15.369,9.379 -12.319,8.38 -27.805,21.066 -40.439,38.278 -12.638,17.216 -22.427,38.967 -23.3342,65.462 -0.8889,25.975 6.7612,56.465 28.5622,91.664 -0.999,-0.721 -2.34,-1.706 -3.962,-2.935 -3.751,-2.843 -9.005,-6.993 -15.015,-12.22 -12.0069,-10.444 -27.0156,-25.174 -39.0794,-42.357 -0.0054,-0.056 -0.0091,-0.143 -0.0091,-0.266 0,-0.254 0.0156,-0.62 0.0472,-1.096 0.0631,-0.95 0.1875,-2.303 0.3656,-4.008 0.3561,-3.406 0.9244,-8.192 1.6375,-13.896 1.426,-11.406 3.4295,-26.471 5.4671,-41.49 2.0375,-15.018 4.109,-29.989 5.6712,-41.205 0.7811,-5.608 1.4348,-10.277 1.8932,-13.544 0.2293,-1.634 0.4097,-2.917 0.5328,-3.792 l 0.1406,-0.998 0.0032,-0.023 z"
       fill="#333333"
       fill-opacity="0.09857"
       stroke="#333333"
       stroke-linecap="round"
       stroke-linejoin="round"
       id="path2"
       style="opacity:0.11;fill:#333333" />
    <path
       d="m 237.97,131.387 c 0.895,-5.601 26.275,-17.675 50.985,-29.429 23.581,-11.2178 46.551,-22.145 47.052,-26.8804 -0.174,0.0298 -0.348,0.0597 -0.521,0.0897 M 237.97,131.387 C 73.692314,328.97005 40.279924,515.66966 264.19,680.969 229.494,679.718 72.2799,620.319 46.5117,433.325 24.2244,271.592 133.97,109.163 335.969,74.5768 M 237.97,131.387 c -2.765,17.332 -11.893,37.046 -19.691,52.919 z m 97.516,-56.2197 c 0.041,-0.1809 0.036,-0.3317 0.002,-0.4557 l 0.481,-0.1348 m -0.483,0.5905 C 134.095,109.918 24.7801,271.962 47.007,433.257 c 13.086,94.962 60.117,156.952 107.73,195.115 23.809,19.083 47.764,32.208 67.691,40.514 17.231,7.183 31.411,10.746 39.868,11.465 -48.245,-15.907 -89.467,-42.299 -120.137,-82.102 -31.392,-40.74 -51.7007,-95.493 -57.203,-167.35 -0.0171,-0.224 0.1168,-0.431 0.3275,-0.508 0.2107,-0.077 0.4468,-0.004 0.5774,0.179 4.2756,5.964 12.0481,10.927 20.4471,14.2 7.86,3.062 16.185,4.613 22.573,4.155 -4.55,-3.55 -10.394,-10.196 -16.114,-19.204 -6.179,-9.731 -12.236,-22.252 -16.3761,-36.683 -8.2823,-28.867 -8.8994,-65.393 12.5291,-102.491 14.269,-24.705 33.323,-37.572 53.053,-45.861 9.858,-4.141 19.886,-7.141 29.558,-9.902 1.27,-0.363 2.534,-0.721 3.79,-1.077 8.321,-2.361 16.316,-4.628 23.679,-7.402 5.61,-2.114 7.45,-4.38 7.581,-6.764 0.068,-1.232 -0.31,-2.576 -1.001,-4.067 -0.691,-1.489 -1.673,-3.078 -2.767,-4.796 -0.162,-0.255 -0.327,-0.513 -0.493,-0.774 -4.285,-6.701 -9.714,-15.194 -4.49,-25.819 7.802,-15.88 16.895,-35.53 19.646,-52.777 v 0 c 0.135,-0.846 0.709,-1.734 1.549,-2.638 0.851,-0.917 2.03,-1.909 3.475,-2.963 2.891,-2.108 6.906,-4.506 11.645,-7.086 9.48,-5.161 21.921,-11.086 34.212,-16.932 l 0.373,-0.178 c 12.171,-5.7899 24.162,-11.4941 32.989,-16.3092 4.461,-2.4336 8.092,-4.6287 10.524,-6.4835 1.219,-0.9293 2.112,-1.7549 2.66,-2.4646 0.343,-0.4452 0.518,-0.8029 0.583,-1.0864 z m 0.483,-0.5905 0.043,0.2522 c -0.006,-0.0864 -0.02,-0.1705 -0.043,-0.2522 z"
       fill="#333333"
       fill-opacity="0.09857"
       stroke="#333333"
       stroke-linecap="round"
       stroke-linejoin="round"
       id="path4"
       sodipodi:nodetypes="cccccccccccccccscccssscccscccccccccccsscccccccccccc"
       style="opacity:0.11;fill:#333333" />
    <path
       d="m 162.024,208.674 v 0 c 17.511,-33.199 41.346,-65.093 77.359,-89.704 36.012,-24.6097 84.233,-41.9599 150.552,-46.0188 l -0.031,-0.4991 0.031,0.4991 c 19.017,-1.1671 47.291,0.0188 76.955,6.6065 29.422,6.534 60.177,18.3743 84.623,38.4703 -0.811,0.439 -1.684,1.096 -2.611,1.929 -1.224,1.102 -2.571,2.537 -4.023,4.255 -2.903,3.436 -6.257,8.032 -9.936,13.41 -5.498,8.036 -11.743,17.848 -18.329,28.194 -2.23,3.503 -4.499,7.068 -6.791,10.646 -9.068,14.153 -18.502,28.517 -27.348,40.155 -4.422,5.819 -8.691,10.947 -12.688,15.023 -4.002,4.082 -7.704,7.08 -10.991,8.67 -43.645,21.115 -78.594,25.46 -107.445,27.831 -2.978,0.245 -5.893,0.469 -8.747,0.688 -24.764,1.9 -44.972,3.45 -62.278,15.404 -12.454,8.601 -22.12,16.614 -30.991,23.968 -1.134,0.94 -2.256,1.869 -3.368,2.788 -9.816,8.105 -18.944,15.36 -30.279,21.71 l 0.244,0.436 -0.244,-0.436 c -20.069,11.245 -31.172,26.291 -37.565,34.954 -0.741,1.003 -1.418,1.921 -2.038,2.737 -0.651,-0.719 -1.327,-1.427 -2.014,-2.148 -2.333,-2.445 -4.8,-5.032 -6.904,-8.672 -2.835,-4.905 -4.993,-11.723 -5.032,-22.578 v 0 c -0.03,-7.745 2.119,-13.055 4.041,-17.802 0.22,-0.545 0.438,-1.083 0.649,-1.615 v -10e-4 c 0.775,-1.965 0.885,-4.347 0.911,-6.925 0.004,-0.44 0.006,-0.886 0.008,-1.338 0.009,-2.231 0.018,-4.615 0.332,-7.113 v -10e-4 c 1.162,-9.268 -0.785,-14.162 -3.621,-21.288 -0.586,-1.472 -1.21,-3.039 -1.852,-4.76 -8.799,-23.648 -13.252,-43.459 -0.579,-67.475 z"
       fill="#333333"
       fill-opacity="0.09857"
       stroke="#333333"
       stroke-linecap="round"
       stroke-linejoin="round"
       id="path6"
       style="opacity:0.11;fill:#333333" />
    <path
       d="m 269.177,90.6558 c -0.069,0.2038 -0.001,0.4294 0.171,0.5599 0.171,0.1304 0.407,0.1364 0.585,0.0149 10.988,-7.5118 19.675,-13.3412 26.408,-17.4997 5.374,-3.3189 9.469,-5.5513 12.48,-6.732 -0.565,0.6314 -1.248,1.4804 -2.015,2.6 -2.163,3.1581 -4.997,8.4687 -7.742,17.1218 -0.06,0.1898 -0.002,0.3972 0.148,0.5281 0.15,0.1308 0.363,0.1602 0.543,0.0747 5.517,-2.6229 9.474,-4.7405 12.477,-6.3481 0.544,-0.2908 1.056,-0.5648 1.54,-0.8222 2.769,-1.4709 4.59,-2.3671 6.177,-2.7486 -0.058,0.4656 -0.115,1.1917 -0.142,2.3143 -0.058,2.4535 0.032,6.8305 0.607,14.5769 -10.97,-1.7335 -25.994,0.6752 -40.686,5.4738 -14.7,4.8014 -29.151,12.0214 -38.983,19.9864 -2.742,-8.881 -0.686,-17.266 4.034,-24.9037 4.849,-7.8479 12.494,-14.8782 20.565,-20.7716 8.066,-5.8897 16.526,-10.6227 22.974,-13.8842 2.653,-1.3417 4.963,-2.4337 6.763,-3.254 -2.177,1.7015 -5.137,4.1801 -8.326,7.3265 -6.435,6.3486 -13.83,15.4447 -17.578,26.3868 z"
       fill="#333333"
       fill-opacity="0.09857"
       stroke="#333333"
       stroke-linecap="round"
       stroke-linejoin="round"
       id="path8"
       style="opacity:0.11;fill:#333333" />
    <path
       d="m 292.888,80.9148 c -0.139,0.1734 -0.146,0.4173 -0.019,0.5991 0.127,0.1817 0.359,0.2578 0.569,0.1869 27.814,-9.3888 61.292,-15.0361 102.244,-15.4232 39.186,-0.3635 105.814,12.0193 156.488,53.8134 -0.748,0.509 -1.284,1.297 -1.643,2.284 -0.461,1.268 -0.649,2.904 -0.629,4.828 0.04,3.851 0.915,9.005 2.299,15.017 1.921,8.346 4.843,18.425 7.935,29.096 1.365,4.708 2.763,9.532 4.123,14.372 4.449,15.835 8.498,31.863 9.705,44.762 0.604,6.451 0.493,12.082 -0.613,16.498 -1.104,4.41 -3.183,7.552 -6.477,9.146 -45.006,21.772 -107.04,20.309 -162.889,16.783 -7.025,-0.444 -13.953,-0.92 -20.735,-1.386 -20.15,-1.385 -39.019,-2.682 -55.361,-2.774 -10.924,-0.062 -20.741,0.413 -29.074,1.764 -8.327,1.351 -15.213,3.582 -20.246,7.059 l 0.284,0.412 -0.284,-0.412 c -12.616,8.718 -21.713,16.348 -30.211,23.475 -1.272,1.067 -2.531,2.123 -3.786,3.17 -9.631,8.03 -19.058,15.521 -32.739,23.396 l -0.04,0.019 c -0.04,0.019 -0.099,0.047 -0.176,0.084 -0.153,0.075 -0.378,0.188 -0.668,0.343 -0.581,0.31 -1.426,0.788 -2.489,1.464 -2.126,1.352 -5.127,3.496 -8.648,6.671 -6.96,6.279 -15.946,16.587 -24.214,32.78 -3.212,-2.819 -6.417,-5.965 -8.928,-10.309 -2.633,-4.557 -4.519,-10.462 -4.804,-18.734 v 0 c -0.274,-7.797 0.925,-13.317 2.206,-17.166 0.639,-1.919 1.299,-3.427 1.817,-4.611 l 0.008,-0.016 c 0.258,-0.59 0.486,-1.11 0.654,-1.556 0.165,-0.44 0.29,-0.85 0.316,-1.212 0.843,-11.515 -1.981,-28.727 -5.891,-39.23 l -0.468,0.175 0.468,-0.175 c -9.092,-24.421 -13.693,-44.881 -0.609,-69.686 v 0 c 5.102,-9.679 10.521,-19.376 16.441,-28.921 0.02,-0.033 0.037,-0.067 0.049,-0.104 15.67,-46.383 40.859,-76.593 64.828,-95.3812 22.204,-17.4045 43.343,-24.9954 54.892,-26.5785 -0.493,0.2655 -1.057,0.5732 -1.682,0.9218 -2.5,1.3944 -5.986,3.4446 -9.937,6.0698 -7.895,5.2468 -17.667,12.8061 -25.111,22.0341 -4.008,4.9647 -7.935,11.254 -11.238,17.066 -0.113,0.198 -0.077,0.448 0.088,0.606 0.164,0.159 0.415,0.186 0.609,0.066 6.157,-3.794 12.727,-7.3412 19.683,-10.637 0.04,-0.0188 0.077,-0.0427 0.11,-0.0712 12.162,-10.3572 26.351,-20.4969 38.847,-24.3667 -0.906,0.6185 -1.996,1.3951 -3.206,2.322 -3.458,2.6496 -7.905,6.5337 -11.848,11.4667 z"
       fill="#333333"
       fill-opacity="0.09857"
       stroke="#333333"
       stroke-linecap="round"
       stroke-linejoin="round"
       id="path10"
       style="opacity:0.11;fill:#333333" />
    <path
       d="m 419.905,116.871 v 0 c 9.773,-4.56 13.183,-10.391 16.339,-15.786 0.766,-1.3104 1.518,-2.5952 2.342,-3.8298 2.101,-3.149 4.69,-6.0189 9.231,-8.2855 4.558,-2.2746 11.114,-3.9575 21.174,-4.6596 45.318,-3.1641 99.742,18.7109 147.849,56.0709 48.096,37.352 89.804,90.128 109.714,148.649 18.101,53.195 24.672,100.876 19.453,147.317 -5.219,46.442 -22.232,91.677 -51.348,139.974 -49.963,82.863 -139.595,124.719 -177.93,136.623 1.257,-0.867 2.894,-2.028 4.819,-3.467 4.645,-3.472 10.97,-8.564 17.69,-15.047 13.432,-12.958 28.484,-31.507 34.826,-53.81 0.067,-0.237 -0.047,-0.487 -0.27,-0.59 -0.223,-0.104 -0.488,-0.031 -0.625,0.173 -19.045,28.172 -51.033,47.252 -78.313,59.294 -13.633,6.017 -26.073,10.27 -35.105,13.018 -4.516,1.374 -8.178,2.372 -10.711,3.025 -0.438,0.113 -0.842,0.216 -1.211,0.309 76.177,-51.208 107.953,-106.104 120.623,-155.551 9.833,-38.381 8.146,-73.484 6.828,-100.907 -0.396,-8.233 -0.758,-15.774 -0.766,-22.503 -0.008,-8.759 -0.127,-17.072 -0.239,-24.856 -0.134,-9.269 -0.257,-17.788 -0.166,-25.414 0.003,-0.244 -0.171,-0.455 -0.411,-0.498 -0.241,-0.044 -0.477,0.093 -0.56,0.322 -6.315,17.529 -13.414,32.122 -21.002,43.117 -7.043,10.203 -14.48,17.269 -22.07,20.735 12.715,-16.448 20.156,-42.005 20.842,-70.887 0.709,-29.808 -5.774,-63.22 -21.143,-93.942 -15.372,-30.727 -39.634,-58.769 -74.483,-77.819 -34.724,-18.982 -79.929,-29.019 -137.265,-23.92 0.017,-0.076 0.038,-0.16 0.063,-0.253 0.16,-0.585 0.505,-1.502 1.245,-2.769 1.48,-2.536 4.537,-6.46 10.837,-11.909 12.601,-10.899 38.117,-27.841 89.743,-51.924 z"
       fill="#333333"
       fill-opacity="0.09857"
       stroke="#333333"
       stroke-linecap="round"
       stroke-linejoin="round"
       id="path12"
       style="opacity:0.11;fill:#333333" />
    <path
       d="m 560.817,414.317 -0.074,-0.047 c -0.702,1.109 -1.382,2.188 -2.043,3.24 -9.305,14.783 -15.084,23.963 -29.57,29.861 47.766,-86.917 52.573,-157.958 16.592,-204.756 -36.061,-46.902 -112.912,-69.196 -227.705,-58.889 0.018,-0.076 0.038,-0.16 0.064,-0.253 0.16,-0.585 0.505,-1.502 1.244,-2.769 1.481,-2.536 4.537,-6.461 10.836,-11.909 12.6,-10.9 38.112,-27.843 89.732,-51.928 l -0.211,-0.453 0.211,0.453 c 9.774,-4.56 13.185,-10.391 16.341,-15.786 0.767,-1.3107 1.518,-2.5954 2.342,-3.83 2.102,-3.149 4.691,-6.0189 9.232,-8.2855 4.557,-2.2746 11.113,-3.9574 21.172,-4.6594 l -0.035,-0.4987 0.035,0.4987 c 45.321,-3.1644 99.839,18.6789 147.992,56.0239 48.143,37.336 89.849,90.111 109.576,148.694 33.433,99.271 22.136,172.225 -3.412,222.264 -25.068,49.101 -63.871,76.172 -87.701,84.42 0.255,-0.385 0.565,-0.858 0.926,-1.413 1.106,-1.701 2.683,-4.175 4.57,-7.266 3.772,-6.183 8.782,-14.839 13.732,-24.731 9.887,-19.757 19.588,-44.546 18.616,-64.422 -0.011,-0.232 -0.18,-0.425 -0.409,-0.467 -0.228,-0.042 -0.455,0.079 -0.548,0.291 -10.19,23.296 -30.299,40.187 -47.906,51.266 -8.798,5.536 -16.959,9.612 -22.919,12.303 -2.979,1.346 -5.408,2.345 -7.091,3.008 -0.458,0.18 -0.861,0.336 -1.205,0.466 0.204,-0.318 0.443,-0.694 0.714,-1.125 0.978,-1.554 2.37,-3.825 4.028,-6.696 3.317,-5.742 7.704,-13.884 11.982,-23.49 8.549,-19.196 16.693,-44.299 14.946,-67.778 -0.017,-0.23 -0.189,-0.418 -0.416,-0.456 -0.228,-0.038 -0.451,0.084 -0.542,0.296 -9.174,21.363 -31.546,39.748 -51.712,52.817 -10.07,6.527 -19.565,11.712 -26.543,15.266 -3.489,1.777 -6.347,3.146 -8.333,4.069 -0.625,0.291 -1.163,0.538 -1.607,0.739 19.857,-32.128 26.391,-62.896 27.937,-85.739 0.783,-11.585 0.284,-21.133 -0.412,-27.788 -0.348,-3.327 -0.745,-5.932 -1.056,-7.707 -0.155,-0.887 -0.288,-1.567 -0.383,-2.026 -0.048,-0.23 -0.086,-0.404 -0.111,-0.522 l -0.012,-0.051 c -0.007,-0.034 -0.014,-0.061 -0.018,-0.082 l -0.008,-0.033 v -0.002 c 0,0.003 -0.033,0.158 -0.141,0.323 -0.058,0.088 -0.138,0.18 -0.245,0.252 z"
       fill="#333333"
       fill-opacity="0.09857"
       stroke="#333333"
       stroke-linecap="round"
       stroke-linejoin="round"
       id="path14"
       style="opacity:0.11;fill:#333333" />
    <path
       d="m 210.667,328.206 c -0.559,0.348 -1.333,0.855 -2.291,1.54 -2.075,1.484 -5.01,3.803 -8.463,7.154 -6.827,6.624 -15.681,17.276 -23.941,33.472 -6.578,-5.815 -13.693,-14.345 -14.247,-30.454 v 0 c -0.274,-7.797 0.925,-13.317 2.206,-17.166 0.638,-1.919 1.299,-3.427 1.817,-4.611 l 0.007,-0.016 c 0.258,-0.59 0.486,-1.111 0.654,-1.556 0.165,-0.439 0.29,-0.849 0.316,-1.211 0.098,-1.292 0.131,-2.665 0.127,-4.082 0.518,0.969 1.257,2.16 2.265,3.378 2.392,2.889 6.303,5.938 12.345,6.552 5.148,0.527 10.762,-2.056 15.024,-4.694 2.144,-1.328 3.973,-2.686 5.266,-3.713 0.508,-0.403 0.934,-0.756 1.265,-1.036 0.023,0.398 0.058,0.895 0.113,1.465 0.146,1.514 0.429,3.556 0.975,5.655 0.546,2.094 1.361,4.273 2.588,6.043 1.008,1.455 2.308,2.652 3.974,3.28 z"
       fill="#333333"
       fill-opacity="0.09857"
       stroke="#333333"
       stroke-linecap="round"
       stroke-linejoin="round"
       id="path16"
       style="opacity:0.11;fill:#333333" />
    <path
       d="m 504.967,95.7597 v 2e-4 c -5.469,2.185 -9.959,2.3711 -13.859,1.5309 -3.914,-0.8431 -7.27,-2.7261 -10.468,-4.7443 v -2e-4 c -1.648,-1.0384 -3.769,-1.9438 -5.877,-2.761 -0.831,-0.3224 -1.657,-0.6297 -2.454,-0.9267 -1.248,-0.4644 -2.427,-0.9036 -3.456,-1.3356 -0.838,-0.352 -1.549,-0.6886 -2.089,-1.0154 -0.558,-0.3372 -0.861,-0.622 -0.977,-0.8417 -0.05,-0.0955 -0.056,-0.1621 -0.048,-0.2149 0.009,-0.0573 0.042,-0.1494 0.156,-0.2775 0.241,-0.271 0.752,-0.6048 1.671,-0.9816 0.678,-0.2754 1.983,-0.5241 3.748,-0.6919 1.749,-0.1662 3.901,-0.2489 6.239,-0.2142 4.682,0.0694 10.071,0.6086 14.438,1.8686 4.446,1.2826 10.415,3.0458 13.891,5.0241 0.865,0.4921 1.547,0.9827 2.009,1.4625 0.465,0.4831 0.659,0.9057 0.661,1.2707 0.003,0.3516 -0.172,0.7763 -0.735,1.2728 -0.567,0.4999 -1.484,1.0307 -2.85,1.5752 z"
       fill="#333333"
       fill-opacity="0.09857"
       stroke="#333333"
       stroke-linecap="round"
       stroke-linejoin="round"
       id="path18"
       style="opacity:0.11;fill:#333333" />
    <path
       d="m 310.832,144.193 c 3.52,-1.724 6.395,-3.057 8.449,-3.956 -29.794,21.302 -58.183,62.43 -79.314,98.642 -10.911,18.698 -19.9,36.109 -26.161,48.845 -3.13,6.368 -5.579,11.568 -7.246,15.177 -0.833,1.804 -1.47,3.21 -1.9,4.166 -0.079,0.176 -0.151,0.336 -0.216,0.481 -2.149,-4.57 -7.195,-17.436 -9.751,-32.615 -2.768,-16.435 -2.596,-35.455 7.18,-49.612 16.573,-24.001 48.158,-46.52 74.946,-62.571 13.384,-8.019 25.551,-14.413 34.013,-18.557 z"
       fill="#333333"
       fill-opacity="0.09857"
       stroke="#333333"
       stroke-linecap="round"
       stroke-linejoin="round"
       id="path20"
       style="opacity:0.11;fill:#333333" />
    <path
       d="m 240.83,239.382 c 21.1,-36.158 49.346,-77.045 78.898,-98.235 -0.867,1.092 -1.959,2.507 -3.249,4.256 -3.52,4.771 -8.51,12.023 -14.406,21.963 -11.793,19.879 -27.206,50.506 -41.715,93.517 -3.709,10.995 -13.309,19.268 -24.241,26.587 -4.122,2.759 -8.413,5.371 -12.633,7.94 -1.372,0.834 -2.736,1.664 -4.084,2.493 -4.906,3.018 -9.601,6.021 -13.644,9.164 0.419,-0.929 0.992,-2.189 1.712,-3.747 1.663,-3.602 4.109,-8.795 7.235,-15.155 6.254,-12.721 15.231,-30.11 26.127,-48.783 z"
       fill="#333333"
       fill-opacity="0.09857"
       stroke="#333333"
       stroke-linecap="round"
       stroke-linejoin="round"
       id="path22"
       style="opacity:0.11;fill:#333333" />
    <path
       d="m 235.137,241.267 v 0 c 4.029,2.996 5.494,8.374 5.228,14.312 -0.266,5.923 -2.254,12.274 -4.966,17.033 -3.023,5.286 -12.745,14.245 -26.743,12.948 -0.012,-0.014 -0.024,-0.03 -0.038,-0.046 -0.108,-0.133 -0.267,-0.333 -0.463,-0.596 -0.394,-0.525 -0.941,-1.301 -1.548,-2.299 -1.215,-1.995 -2.665,-4.868 -3.61,-8.378 -1.884,-7.001 -1.769,-16.566 6.323,-26.822 4.212,-5.334 10.187,-7.229 15.397,-7.598 2.604,-0.185 5.002,0.013 6.867,0.347 0.933,0.166 1.726,0.366 2.342,0.567 0.63,0.205 1.03,0.397 1.211,0.532 z"
       fill="#333333"
       fill-opacity="0.09857"
       stroke="#333333"
       stroke-linecap="round"
       stroke-linejoin="round"
       id="path24"
       style="opacity:0.11;fill:#333333" />
    <path
       d="m 216.521,257.163 v 0 c 2.871,-3.64 6.951,-4.936 10.525,-5.188 1.785,-0.126 3.43,0.01 4.708,0.238 0.639,0.114 1.18,0.251 1.598,0.386 0.432,0.14 0.689,0.267 0.794,0.344 2.72,2.023 3.728,5.673 3.545,9.754 -0.183,4.067 -1.548,8.432 -3.41,11.702 v 0 c -2.058,3.616 -8.702,9.741 -18.273,8.884 -0.073,-0.09 -0.175,-0.22 -0.301,-0.388 -0.27,-0.36 -0.645,-0.893 -1.061,-1.578 -0.834,-1.37 -1.828,-3.343 -2.476,-5.752 -1.289,-4.799 -1.212,-11.359 4.351,-18.402 z"
       fill="#333333"
       fill-opacity="0.09857"
       stroke="#333333"
       stroke-linecap="round"
       stroke-linejoin="round"
       id="path26"
       style="opacity:0.11;fill:#333333" />
    <path
       d="m 211.916,268.604 v 0.001 c 0.525,5.257 5.305,9.076 10.69,8.521 5.366,-0.558 9.277,-5.274 8.747,-10.527 z m 0,0 c -0.536,-5.252 3.374,-9.968 8.759,-10.523 m -8.759,10.523 8.759,-10.523 m 0,0 c 5.367,-0.553 10.142,3.266 10.678,8.518 z"
       fill="#333333"
       fill-opacity="0.09857"
       stroke="#333333"
       stroke-linecap="round"
       stroke-linejoin="round"
       id="path28"
       style="opacity:0.11;fill:#333333" />
    <path
       d="m 217.655,264.728 c 0.205,1.487 -0.843,2.865 -2.349,3.073 -1.506,0.207 -2.887,-0.836 -3.092,-2.323 -0.205,-1.487 0.843,-2.866 2.349,-3.073 1.506,-0.208 2.888,0.836 3.092,2.323 z"
       fill="#333333"
       fill-opacity="0.09857"
       stroke="#333333"
       stroke-linecap="round"
       stroke-linejoin="round"
       id="path30"
       style="opacity:0.11;fill:#333333" />
    <path
       d="m 606.406,182.968 c -15.549,-11.223 -25.682,-30.405 -31.931,-46.846 -3.121,-8.212 -5.265,-15.719 -6.629,-21.174 -0.682,-2.727 -1.169,-4.94 -1.485,-6.47 -0.13,-0.627 -0.231,-1.139 -0.305,-1.525 0.289,0.107 0.655,0.247 1.095,0.423 1.26,0.503 3.131,1.3 5.568,2.47 4.873,2.34 12.005,6.175 21.02,12.145 18.031,11.939 43.599,32.421 73.695,66.577 32.212,36.55 39.407,69.909 38.577,94.103 -0.415,12.103 -2.839,21.925 -5.157,28.717 -1.159,3.396 -2.292,6.034 -3.133,7.821 -0.275,0.585 -0.519,1.078 -0.723,1.477 -0.012,-0.06 -0.024,-0.122 -0.037,-0.185 -0.201,-1.011 -0.504,-2.461 -0.914,-4.224 -0.821,-3.526 -2.069,-8.307 -3.782,-13.325 -1.713,-5.015 -3.894,-10.282 -6.584,-14.772 -2.684,-4.48 -5.907,-8.24 -9.725,-10.169 -0.165,-0.083 -0.362,-0.069 -0.513,0.037 -0.151,0.106 -0.231,0.287 -0.209,0.47 2.648,21.823 -1.898,43.753 -7.118,60.246 -2.609,8.243 -5.384,15.119 -7.507,19.933 -1.061,2.407 -1.958,4.298 -2.59,5.586 -0.059,0.12 -0.115,0.235 -0.169,0.344 -0.071,-0.977 -0.18,-2.313 -0.342,-3.926 -0.357,-3.551 -0.971,-8.453 -2.001,-13.854 -2.056,-10.775 -5.786,-23.637 -12.508,-31.68 -0.134,-0.16 -0.353,-0.22 -0.55,-0.151 -0.196,0.069 -0.33,0.253 -0.334,0.461 -0.661,31.35 -11.197,57.011 -21.574,74.839 -5.188,8.913 -10.334,15.865 -14.182,20.587 -1.923,2.361 -3.522,4.164 -4.638,5.375 -0.214,0.232 -0.41,0.442 -0.587,0.63 0.166,-0.942 0.376,-2.261 0.585,-3.899 0.445,-3.5 0.879,-8.456 0.835,-14.287 -0.088,-11.654 -2.087,-26.833 -9.757,-40.853 -0.099,-0.182 -0.299,-0.283 -0.504,-0.256 -0.205,0.027 -0.372,0.177 -0.42,0.378 -8.751,36.316 -26.464,61.76 -41.986,78.126 -7.761,8.183 -14.974,14.095 -20.244,17.96 -2.635,1.933 -4.784,3.353 -6.272,4.289 -0.389,0.245 -0.733,0.456 -1.028,0.636 0.036,-0.095 0.074,-0.194 0.113,-0.297 0.429,-1.131 1.021,-2.838 1.677,-5.15 1.312,-4.626 2.883,-11.678 3.932,-21.411 2.097,-19.465 2.102,-49.648 -6.233,-92.583 -5.107,-26.302 -3.455,-51.691 -0.524,-70.512 1.466,-9.409 3.251,-17.171 4.669,-22.58 0.709,-2.704 1.326,-4.82 1.766,-6.258 0.171,-0.562 0.316,-1.021 0.428,-1.371 0.074,0.085 0.154,0.177 0.24,0.277 0.53,0.614 1.304,1.526 2.279,2.714 1.95,2.377 4.702,5.859 7.908,10.276 0.112,0.154 0.3,0.231 0.487,0.2 0.187,-0.031 0.34,-0.165 0.396,-0.346 3.441,-11.17 12.946,-21.731 21.656,-29.53 4.346,-3.891 8.476,-7.079 11.52,-9.294 1.521,-1.107 2.77,-1.971 3.639,-2.557 0.434,-0.294 0.772,-0.517 1.002,-0.668 0.033,-0.021 0.063,-0.041 0.092,-0.059 0.103,0.063 0.237,0.148 0.401,0.254 0.44,0.286 1.093,0.733 1.937,1.369 1.688,1.273 4.14,3.306 7.175,6.335 0.189,0.188 0.492,0.195 0.689,0.016 0.198,-0.178 0.22,-0.481 0.052,-0.687 -10.836,-13.246 -15.188,-26.422 -16.832,-36.279 -0.823,-4.93 -0.969,-9.03 -0.909,-11.894 0.03,-1.432 0.11,-2.554 0.184,-3.316 0.016,-0.167 0.031,-0.317 0.046,-0.449 0.276,0.149 0.636,0.343 1.07,0.576 1.086,0.584 2.633,1.415 4.479,2.405 3.691,1.978 8.575,4.59 13.347,7.121 4.772,2.531 9.435,4.983 12.682,6.641 1.621,0.828 2.897,1.462 3.659,1.81 0.191,0.087 0.354,0.158 0.485,0.21 0.115,0.046 0.248,0.096 0.357,0.114 0.029,0.005 0.086,0.013 0.153,0.007 0.045,-0.004 0.235,-0.023 0.371,-0.201 0.159,-0.208 0.096,-0.428 0.067,-0.502 -0.032,-0.079 -0.077,-0.135 -0.097,-0.159 -0.075,-0.09 -0.196,-0.181 -0.3,-0.256 z"
       fill="#333333"
       fill-opacity="0.09857"
       stroke="#333333"
       stroke-linecap="round"
       stroke-linejoin="round"
       id="path32"
       style="opacity:0.11;fill:#333333" />
    <path
       d="m 549.102,98.5854 0.201,-0.4578 -0.201,0.4578 c 21.897,9.6106 46.856,21.7046 63.102,43.8086 10.917,14.862 13.912,33.208 14.163,47.881 0.125,7.331 -0.434,13.73 -1.025,18.295 -0.296,2.283 -0.599,4.106 -0.828,5.357 -0.02,0.108 -0.039,0.212 -0.057,0.311 -0.205,-0.467 -0.462,-1.03 -0.776,-1.675 -0.976,-2.005 -2.499,-4.806 -4.694,-7.999 -4.39,-6.386 -11.47,-14.348 -22.232,-20.651 -0.18,-0.106 -0.408,-0.088 -0.57,0.045 -0.162,0.133 -0.223,0.353 -0.155,0.551 7.408,21.282 7.172,39.254 5.09,51.898 -1.041,6.324 -2.544,11.315 -3.785,14.722 -0.621,1.704 -1.175,3.011 -1.574,3.89 -0.002,0.005 -0.005,0.011 -0.007,0.017 -0.148,-0.63 -0.357,-1.443 -0.639,-2.4 -0.694,-2.358 -1.838,-5.595 -3.637,-9.113 -3.597,-7.034 -9.828,-15.226 -20.345,-19.747 -0.184,-0.079 -0.397,-0.041 -0.542,0.097 -0.145,0.137 -0.194,0.348 -0.125,0.535 5.931,16.132 4.066,34.632 0.688,49.147 -1.687,7.25 -3.747,13.487 -5.385,17.911 -0.819,2.212 -1.532,3.97 -2.04,5.174 -0.08,0.19 -0.155,0.366 -0.224,0.527 -0.235,-0.892 -0.586,-2.167 -1.055,-3.717 -0.946,-3.119 -2.374,-7.353 -4.306,-11.81 -1.931,-4.456 -4.371,-9.148 -7.343,-13.175 -2.969,-4.024 -6.493,-7.416 -10.603,-9.224 -0.193,-0.085 -0.419,-0.04 -0.564,0.113 -0.145,0.153 -0.179,0.381 -0.084,0.569 3.055,6.065 3.515,14.081 2.437,22.759 -1.076,8.667 -3.678,17.928 -6.675,26.434 -2.997,8.503 -6.383,16.237 -9.022,21.845 -1.319,2.804 -2.45,5.075 -3.251,6.645 -0.264,0.517 -0.492,0.958 -0.679,1.316 -0.07,-0.254 -0.15,-0.546 -0.241,-0.874 -0.376,-1.355 -0.934,-3.32 -1.659,-5.756 -1.45,-4.874 -3.571,-11.638 -6.253,-19.204 -5.361,-15.118 -12.981,-33.482 -21.996,-46.333 v 0 C 477.339,245.57 452.818,217.928 416.005,204.364 400.228,198.55 366.028,187.095 330.997,184.456 h -0.001 c -1.543,-0.115 -3.392,0.013 -5.266,0.211 -0.941,0.1 -1.894,0.218 -2.825,0.334 l -0.07,0.008 c -0.909,0.113 -1.794,0.223 -2.631,0.312 -1.733,0.184 -3.201,0.271 -4.2,0.127 -0.504,-0.074 -0.816,-0.197 -0.984,-0.334 -0.13,-0.106 -0.199,-0.237 -0.167,-0.487 4.042,-31.233 30.567,-46.377 53.891,-48.171 0.193,-0.015 0.361,-0.141 0.429,-0.323 l -0.05,-0.019 c 0.05,0.019 0.05,0.019 0.05,0.019 l 10e-4,-0.001 0.002,-0.006 0.009,-0.023 c 0.008,-0.021 0.02,-0.052 0.037,-0.094 0.032,-0.085 0.083,-0.21 0.15,-0.374 0.135,-0.329 0.339,-0.81 0.614,-1.42 0.55,-1.219 1.386,-2.949 2.524,-4.987 2.278,-4.076 5.759,-9.371 10.58,-14.259 9.626,-9.763 24.578,-17.9029 46.017,-11.483 0.247,0.075 0.51,-0.052 0.607,-0.291 0.097,-0.24 -0.005,-0.514 -0.235,-0.632 -1.493,-0.77 -2.477,-1.43 -2.906,-1.944 -1.128,-1.3549 -1.437,-2.7163 -1.162,-4.0853 0.28,-1.3984 1.18,-2.8604 2.587,-4.3514 2.814,-2.9826 7.497,-5.9175 12.538,-8.5137 5.03,-2.5897 10.367,-4.8179 14.451,-6.3997 2.041,-0.7906 3.767,-1.4189 4.982,-1.8494 0.608,-0.2153 1.088,-0.381 1.415,-0.4929 0.164,-0.0559 0.29,-0.0983 0.374,-0.1267 l 0.051,-0.017 0.012,1e-4 c 0.062,4e-4 0.156,0.0015 0.282,0.004 0.251,0.0048 0.628,0.0151 1.128,0.0366 1,0.0431 2.493,0.1314 4.457,0.312 3.928,0.3614 9.739,1.0926 17.256,2.5717 15.034,2.9583 36.892,8.9088 64.158,20.8781 z"
       fill="#333333"
       fill-opacity="0.09857"
       stroke="#333333"
       stroke-linecap="round"
       stroke-linejoin="round"
       id="path34"
       style="opacity:0.11;fill:#333333" />
  </g>
</svg>
