<?xml version="1.0" encoding="UTF-8" standalone="no"?>
<svg
   xmlns="http://www.w3.org/2000/svg"
   height="12"
   width="11.193398"
   id="svg3"
   version="1.1"
   viewBox="0 0 11.193399 12">
  <path
     style="fill:currentColor;fill-rule:evenodd"
     d="m 5.5790063,0 c -1.534141,0.0125 -3.0098524,0.17863 -3.8698611,0.57359 0,0 -1.70561599,0.76301 -1.70561599,3.36618 0,0.5961 -0.01160514,1.30889 0.00727341,2.06474 0.06193718,2.54576 0.46672702,5.05472 2.82046908,5.67771 1.0852583,0.28725 2.0170112,0.34734 2.7674335,0.30609 1.3608723,-0.0754 2.1248476,-0.4856 2.1248476,-0.4856 l -0.044954,-0.98737 c 0,0 -0.9724634,0.30659 -2.0646395,0.26922 C 4.5318688,10.74746 3.3895546,10.66792 3.21454,9.33937 3.198377,9.22267 3.190295,9.09786 3.190295,8.96681 c 0,0 1.0622137,0.25967 2.4084096,0.32134 C 6.4218613,9.32595 7.193777,9.23985 7.9778189,9.14632 9.4813795,8.96678 10.79053,8.04041 10.95507,7.19391 11.214327,5.86046 11.192972,3.93977 11.192972,3.93977 11.192972,1.3366 9.4874568,0.57359 9.4874568,0.57359 8.6275128,0.17863 7.1508275,0.01254 5.6166863,0 Z M 3.8427816,2.03403 c 0.6390261,0 1.1228982,0.24565 1.4428639,0.73694 L 5.596685,3.29233 5.9078258,2.77097 c 0.319901,-0.49129 0.8037728,-0.73694 1.4428636,-0.73694 0.5522624,0 0.9972822,0.19415 1.3370962,0.57288 0.3294049,0.37874 0.4933804,0.8906 0.4933804,1.5348 V 7.29372 H 7.9323605 V 4.23444 c 0,-0.64491 -0.271258,-0.97231 -0.8140164,-0.97231 -0.6001053,0 -0.9008935,0.38835 -0.9008935,1.15617 V 6.0928 H 4.9760202 V 4.4183 c 0,-0.76782 -0.3007881,-1.15617 -0.9008934,-1.15617 -0.5427584,0 -0.8141175,0.3274 -0.8141175,0.97231 V 7.29372 H 2.0122042 V 4.14171 c 0,-0.6442 0.1640115,-1.15606 0.4934811,-1.5348 C 2.8454347,2.22818 3.2904545,2.03403 3.8427816,2.03403 Z"
     id="path2" />
</svg>
