<svg width="201" height="202" viewBox="0 0 201 202" fill="none" xmlns="http://www.w3.org/2000/svg">
<path d="M18.7587 90.2968L22.3828 107.521H23.8751L27.4992 90.2968H37.1991V116.772H32.0471V94.8069H30.5548L25.616 116.772H20.6241L15.7031 94.8069H14.2108V116.772H9.05887V90.2968H18.7587ZM50.8072 96.4938C57.0073 96.4938 60.6136 100.152 60.6136 106.828C60.6136 113.504 56.9895 117.162 50.8072 117.162C44.6072 117.162 41.0008 113.504 41.0008 106.828C41.0008 100.134 44.6072 96.4938 50.8072 96.4938ZM50.8072 113.043C53.7207 113.043 55.1775 111.551 55.1775 108.266V105.354C55.1775 102.069 53.7207 100.578 50.8072 100.578C47.8937 100.578 46.437 102.069 46.437 105.354V108.266C46.437 111.551 47.8937 113.043 50.8072 113.043ZM63.3673 112.936L73.8845 100.702H63.5095V96.8666H80.0667V100.702L69.5496 112.936H80.2266V116.772H63.3673V112.936ZM83.3 96.8666H90.9035V116.772H85.7517V100.702H83.2822V96.8666H83.3ZM85.7517 90.2968H90.9035V94.1321H85.7517V90.2968ZM94.7054 90.2968H102.327V116.772H97.1747V94.1321H94.7054V90.2968ZM106.128 90.2968H113.732V116.772H108.58V94.1321H106.111V90.2968H106.128ZM125.866 96.4938C128.886 96.4938 130.893 97.9498 131.462 100.489H132.954V96.8666H139.261V100.702H136.791V112.936H139.261V116.772H136.241C134.109 116.772 132.954 115.617 132.954 113.487V113.149H131.462C130.911 115.688 128.886 117.144 125.866 117.144C121.122 117.144 117.765 113.185 117.765 106.81C117.765 100.436 121.122 96.4938 125.866 96.4938ZM127.429 113.043C130.342 113.043 131.639 111.551 131.639 108.266V105.354C131.639 102.069 130.342 100.578 127.429 100.578C124.587 100.578 123.219 102.069 123.219 105.354V108.266C123.219 111.551 124.587 113.043 127.429 113.043Z" fill="white"/>
<path d="M160.296 116.771H155.144V74.6351H160.296V116.771ZM164.773 96.6351H186.642V95.1437L172.163 89.9587V85.786L186.642 80.6012V79.1096H169.41V74.6351H191.279V83.1403L179.483 87.1355V88.627L191.279 92.6222V101.128H164.773V96.6351ZM164.773 79.1096H169.392V83.7262H164.773V79.1096Z" fill="white"/>
</svg>
