<svg width="984" height="230" viewBox="0 0 984 230" fill="none" xmlns="http://www.w3.org/2000/svg">
<path d="M52.3628 84.5469L71.9269 177.526H79.9828L99.5469 84.5469H151.91V227.466H124.098V108.894H116.042L89.3812 227.466H62.4326L35.8676 108.894H27.8117V227.466H0V84.5469H52.3628ZM225.371 118C258.841 118 278.309 137.746 278.309 173.787C278.309 209.829 258.745 229.575 225.371 229.575C191.901 229.575 172.433 209.829 172.433 173.787C172.433 137.65 191.901 118 225.371 118ZM225.371 207.336C241.099 207.336 248.963 199.285 248.963 181.552V165.831C248.963 148.098 241.099 140.047 225.371 140.047C209.643 140.047 201.779 148.098 201.779 165.831V181.552C201.779 199.285 209.643 207.336 225.371 207.336ZM293.174 206.761L349.949 140.718H293.941V120.013H383.323V140.718L326.548 206.761H384.186V227.466H293.174V206.761ZM400.777 120.013H441.823V227.466H414.011V140.718H400.681V120.013H400.777ZM414.011 84.5469H441.823V105.251H414.011V84.5469ZM462.346 84.5469H503.489V227.466H475.677V105.251H462.346V84.5469ZM524.012 84.5469H565.058V227.466H537.246V105.251H523.916V84.5469H524.012ZM630.559 118C646.863 118 657.7 125.86 660.769 139.567H668.825V120.013H702.87V140.718H689.54V206.761H702.87V227.466H686.567C675.058 227.466 668.825 221.235 668.825 209.733V207.912H660.769C657.796 221.619 646.863 229.479 630.559 229.479C604.953 229.479 586.828 208.103 586.828 173.692C586.828 139.28 604.953 118 630.559 118ZM638.999 207.336C654.727 207.336 661.728 199.285 661.728 181.552V165.831C661.728 148.098 654.727 140.047 638.999 140.047C623.654 140.047 616.27 148.098 616.27 165.831V181.552C616.27 199.285 623.654 207.336 638.999 207.336Z" fill="white"/>
<path d="M816.427 227.463H788.615V0H816.427V227.463ZM840.594 118.764H958.651V110.712L880.49 82.7224V60.1966L958.651 32.2071V24.1553H865.625V0H983.681V45.9143L920.002 67.4815V75.5333L983.681 97.1006V143.015H840.594V118.764ZM840.594 24.1553H865.529V49.0775H840.594V24.1553Z" fill="white"/>
</svg>
