<svg width="335" height="80" viewBox="0 0 335 80" fill="currentColor" xmlns="http://www.w3.org/2000/svg">
  <path d="m18.562 29.987 6.359 31.28h2.278l6.357-31.28h18.565v49.264H41.988V38.622H39.71l-8.84 40.629h-9.588l-8.839-40.629h-2.278v40.629H0V29.987h18.562Zm58.173 10.438c11.696 0 18.495 7.005 18.495 19.788C95.23 72.995 88.465 80 76.735 80s-18.494-7.002-18.494-19.786c.035-12.818 6.8-19.789 18.496-19.789m0 31.687c5.27 0 7.786-2.855 7.786-9.145v-5.576c0-6.29-2.482-9.145-7.786-9.145-5.305 0-7.787 2.855-7.787 9.145v5.576c.034 6.29 2.516 9.145 7.787 9.145m22.644-.204 19.345-23.426H99.651V41.14h31.143v7.342l-19.345 23.426h19.616v7.345H99.38l.001-7.345Zm36.99-30.768h14.279v38.113h-10.131V48.482h-4.148V41.14Zm4.148-11.151h10.131v7.342h-10.131v-7.342Zm16.829 0h14.281v49.262h-10.133v-41.92h-4.148v-7.342Zm21.012 0h14.28v49.262h-10.131v-41.92h-4.149v-7.342Zm36.039 10.436c5.644 0 9.349 2.789 10.438 7.649h2.278V41.14h12.069v7.342h-4.148v23.426h4.148v7.345h-5.779c-4.08 0-6.29-2.211-6.29-6.291v-.646h-2.278c-1.087 4.863-4.794 7.65-10.437 7.65-8.909 0-15.199-7.581-15.199-19.786 0-12.208 6.29-19.755 15.198-19.755m2.992 31.687c5.134 0 7.48-2.855 7.48-9.145v-5.576c0-6.29-2.346-9.145-7.48-9.145-5.133 0-7.479 2.855-7.479 9.145v5.576c0 6.29 2.346 9.145 7.479 9.145m59.497 7.139h-10.132V.001h10.132v79.25Zm8.262-38.826h40.119v-2.278l-26.145-9.485v-8.024l26.145-9.485V8.84h-30.973V0h40.118v16.15l-21.282 7.343v2.278l21.282 7.344v16.152H285.15v-8.842Zm0-31.585h9.146v9.146h-9.146V8.84Z"/>
</svg>
