<svg width="123" height="27" viewBox="0 0 123 27" fill="currentColor" xmlns="http://www.w3.org/2000/svg">
  <path d="M122.249 23.0134C121.986 23.0886 121.761 23.1262 121.535 23.1262C120.745 23.1262 120.369 22.7878 120.369 21.8101V14.4022C120.369 10.4914 117.248 8.61123 113.601 8.61123C110.818 8.61123 109.276 8.94966 106.305 10.153L105.629 14.0637L109.539 14.4774L110.103 12.5596C110.893 12.146 111.683 12.0708 112.698 12.0708C115.443 12.0708 115.481 14.139 115.481 15.9063V16.4704C114.616 16.3576 113.638 16.32 112.698 16.32C108.787 16.32 104.764 17.2977 104.764 21.5093C104.764 25.0816 107.546 26.3977 110.028 26.3977C112.773 26.3977 114.541 24.7432 115.518 22.9758C115.744 25.044 116.985 26.3977 119.279 26.3977C120.332 26.3977 121.422 26.0969 122.362 25.6081L122.249 23.0134ZM111.758 22.9006C110.291 22.9006 109.765 22.0357 109.765 20.9452C109.765 19.1026 111.269 18.6138 113.036 18.6138C113.826 18.6138 114.691 18.7266 115.481 18.8394C115.33 21.6597 113.488 22.9006 111.758 22.9006ZM105.215 0L97.8446 26.0217H93.0313L100.402 0H105.215ZM95.2876 0L87.9173 26.0217H83.104L90.4743 0H95.2876ZM74.7936 8.94966H79.9077V15.079H74.7936V8.94966ZM74.7936 19.8923H79.9077V26.0217H74.7936V19.8923ZM67.3481 19.6667L71.2212 20.0427L70.1683 26.0217H55.2397L54.7509 23.4647L64.1518 12.6724H58.812L58.06 15.3047L54.5252 14.9286L55.1269 8.94966H70.1307L70.5068 11.5067L61.0307 22.2989H66.5584L67.3481 19.6667ZM42.9057 8.61123C36.7763 8.61123 33.7304 12.7476 33.7304 17.7489C33.7304 23.2014 37.378 26.3977 42.6425 26.3977C48.095 26.3977 52.0434 22.9382 52.0434 17.4857C52.0058 12.7476 49.0351 8.61123 42.9057 8.61123ZM42.7929 22.6374C40.1607 22.6374 38.7693 20.3812 38.7693 17.4105C38.7693 14.1766 40.3111 12.334 42.8305 12.334C45.1243 12.334 47.0045 13.8757 47.0045 17.3353C46.9669 20.6068 45.3124 22.6374 42.7929 22.6374ZM29.3308 22.2989H31.587V26.0217H24.4423V16.3952C24.4423 13.4245 23.4647 12.2964 21.5469 12.2964C19.2154 12.2964 18.2378 13.9509 18.2378 16.3576V22.2989H20.494V26.0217H13.3493V16.3952C13.3493 13.4245 12.3716 12.2964 10.4162 12.2964C8.08478 12.2964 7.10708 13.9509 7.10708 16.3576V22.2989H10.3786V26.0217H0V22.2989H2.25622V12.6348H0V8.91206H7.14469V11.4691C8.15998 9.66413 9.92735 8.57362 12.334 8.57362C14.7782 8.57362 17.072 9.73933 17.8993 12.2588C18.8394 10.0026 20.7572 8.57362 23.4647 8.57362C26.5482 8.57362 29.3308 10.4162 29.3308 14.4774V22.2989Z"/>
</svg>
