<svg viewBox="0 0 25 24" version="1.1" xmlns="http://www.w3.org/2000/svg" xmlns:xlink="http://www.w3.org/1999/xlink">
    <g id="UI" stroke="none" stroke-width="1" fill="currentColor" fill-rule="evenodd">
        <path d="M24.3133586,16.6450817 C24.3133586,18.1395031 23.4573308,19.3872725 21.8758557,19.3872725 C20.1057643,19.3872725 19.6414781,17.7767795 18.045494,17.7767795 C16.8847784,17.7767795 16.44951,18.5022268 16.44951,19.5758888 C16.44951,20.7075866 16.9137963,21.7957575 16.8992873,22.9129463 L16.8992873,22.9854911 C16.7396889,22.9854911 16.5800905,22.9854911 16.4204921,23 C14.9260707,23.1450895 13.4171403,23.4352684 11.9082099,23.4352684 C10.8780748,23.4352684 9.80441278,23.0290179 9.80441278,21.8392843 C9.80441278,20.2433003 11.4149058,19.779014 11.4149058,18.0089226 C11.4149058,16.4274475 10.1671364,15.5714197 8.672715,15.5714197 C7.14927568,15.5714197 5.74190793,16.4129386 5.74190793,18.0814674 C5.74190793,19.9241035 7.14927568,20.7220955 7.14927568,21.7232128 C7.14927568,22.2310259 6.83007887,22.6808032 6.48186417,23.0145089 C6.03208685,23.4352684 5.39369323,23.5223221 4.78431751,23.5223221 C3.59458395,23.5223221 2.40485038,23.3627236 1.22962577,23.1741074 C0.968464744,23.1305805 0.692794772,23.1015626 0.431633747,23.0580358 L0.243017451,23.0290179 C0.213999559,23.0145089 0.170472721,23.0145089 0.170472721,23 L0.170472721,8.14283943 C0.228508505,8.18636627 1.08453631,8.28792889 1.22962577,8.31694678 C2.40485038,8.50556308 3.59458395,8.66516148 4.78431751,8.66516148 C5.39369323,8.66516148 6.03208685,8.57810781 6.48186417,8.15734838 C6.83007887,7.82364262 7.14927568,7.3738653 7.14927568,6.8660522 C7.14927568,5.86493493 5.74190793,5.06694291 5.74190793,3.22430678 C5.74190793,1.55577801 7.14927568,0.714259148 8.68722395,0.714259148 C10.1671364,0.714259148 11.4149058,1.57028695 11.4149058,3.15176205 C11.4149058,4.92185345 9.80441278,5.38613972 9.80441278,6.98212376 C9.80441278,8.17185732 10.8780748,8.57810781 11.9082099,8.57810781 C13.5767387,8.57810781 15.2307585,8.20087522 16.8847784,8.11382154 L16.8847784,8.14283943 C16.8412515,8.20087522 16.7396889,9.05690302 16.710671,9.20199248 C16.5220547,10.3772171 16.3624563,11.5669507 16.3624563,12.7566842 C16.3624563,13.3660599 16.44951,14.0044536 16.8702694,14.4542309 C17.2039752,14.8024456 17.6537525,15.1216424 18.1615656,15.1216424 C19.1626829,15.1216424 19.9606749,13.7142746 21.803311,13.7142746 C23.4718398,13.7142746 24.3133586,15.1216424 24.3133586,16.6450817 Z"></path>
    </g>
</svg>
