<svg width="24" height="24" viewBox="0 0 24 24" fill="none" xmlns="http://www.w3.org/2000/svg">
<path opacity="0.2" d="M4 1.5C3.17157 1.5 2.5 2.17157 2.5 3C2.5 3.82843 3.17195 4.5 4.00195 4.5H5.5C13.232 4.5 19.5 10.768 19.5 18.5V20C19.5 20.829 20.1716 21.5 21 21.5C21.8284 21.5 22.5 20.829 22.5 20V18.5C22.5 9.11117 14.8888 1.5 5.5 1.5H4ZM4 8.5C3.17157 8.5 2.5 9.17157 2.5 10C2.5 10.8284 3.17157 11.5 4 11.5H5C9.14115 11.5 12.5 14.8579 12.5 19V20C12.5 20.8284 13.1716 21.5 14 21.5C14.8284 21.5 15.5 20.8284 15.5 20V19C15.5 13.201 10.799 8.5 5 8.5H4ZM5.5 15.5C4.7044 15.5002 3.94143 15.8163 3.37886 16.3788C2.81629 16.9414 2.50016 17.7044 2.5 18.5C2.49982 18.8941 2.57729 19.2844 2.72797 19.6486C2.87864 20.0127 3.09958 20.3436 3.37817 20.6224C3.65676 20.9011 3.98753 21.1223 4.35159 21.2733C4.71566 21.4242 5.10589 21.5019 5.5 21.502C5.89411 21.5019 6.28434 21.4242 6.64841 21.2733C7.01247 21.1223 7.34325 20.9011 7.62183 20.6224C7.90042 20.3436 8.12136 20.0127 8.27204 19.6486C8.42271 19.2844 8.50018 18.8941 8.5 18.5C8.49984 17.7044 8.18371 16.9414 7.62114 16.3788C7.05857 15.8163 6.2956 15.5002 5.5 15.5Z" fill="#3F3F46"/>
<path d="M4 1C2.90136 1 2 1.90135 2 3C2 4.09865 2.90224 5 4.00195 5H5.5C12.9618 5 19 11.0382 19 18.5V20C19 21.0991 19.9014 22 21 22C22.0986 22 23 21.0991 23 20V18.5C23 8.84096 15.159 1 5.5 1H4ZM4 2H5.5C14.6186 2 22 9.3814 22 18.5V20C22 20.559 21.5582 21 21 21C20.4418 21 20 20.559 20 20V18.5C20 10.4978 13.5022 4 5.5 4H4.00195C3.44165 4 3 3.55821 3 3C3 2.44179 3.44179 2 4 2ZM4 8C2.90136 8 2 8.90135 2 10C2 11.0986 2.90136 12 4 12H5C8.87087 12 12 15.1281 12 19V20C12 21.0986 12.9014 22 14 22C15.0986 22 16 21.0986 16 20V19C16 12.9308 11.0692 8 5 8H4ZM4 9H5C10.5288 9 15 13.4713 15 19V20C15 20.5582 14.5582 21 14 21C13.4418 21 13 20.5582 13 20V19C13 14.5877 9.41143 11 5 11H4C3.44179 11 3 10.5582 3 10C3 9.44179 3.44179 9 4 9ZM5.5 15C3.57259 15 2 16.5726 2 18.5C2 20.4274 3.57259 22.002 5.5 22.002C7.42741 22.002 9 20.4274 9 18.5C9 16.5726 7.42741 15 5.5 15ZM5.5 16C6.88697 16 8 17.113 8 18.5C8 19.887 6.88697 21.002 5.5 21.002C4.11303 21.002 3 19.887 3 18.5C3 17.113 4.11303 16 5.5 16Z" fill="#3F3F46"/>
</svg>
