<svg viewBox="0 0 17 17" version="1.1" xmlns="http://www.w3.org/2000/svg" xmlns:xlink="http://www.w3.org/1999/xlink">
    <g id="UI" stroke="none" stroke-width="1" fill="currentColor" fill-rule="evenodd">
        <path d="M10.8839408,8.57142091 C10.8839408,7.15512458 9.72880553,5.99998927 8.3125092,5.99998927 C6.89621286,5.99998927 5.74107756,7.15512458 5.74107756,8.57142091 C5.74107756,9.98771724 6.89621286,11.1428525 8.3125092,11.1428525 C9.72880553,11.1428525 10.8839408,9.98771724 10.8839408,8.57142091 Z M16.0268041,7.47655353 L16.0268041,9.7064669 C16.0268041,9.85713673 15.9062682,10.0379405 15.7455538,10.0680745 L13.8872926,10.3493248 C13.7768014,10.6707538 13.6562656,10.9720934 13.4955511,11.2633884 C13.8370694,11.7555765 14.1986769,12.1975413 14.5703292,12.6495508 C14.6305971,12.7198634 14.6707757,12.8102652 14.6707757,12.9006671 C14.6707757,12.991069 14.6406417,13.0613816 14.5803738,13.1316942 C14.3393021,13.4531232 12.9832737,14.9296874 12.6417554,14.9296874 C12.5513535,14.9296874 12.4609516,14.8895088 12.3805944,14.8392855 L10.994432,13.7544628 C10.703137,13.9051326 10.3917527,14.0357131 10.0803684,14.1361597 C10.0100559,14.7488836 9.94978793,15.4017862 9.78907346,16.0044655 C9.74889484,16.16518 9.60826967,16.2857158 9.42746588,16.2857158 L7.19755251,16.2857158 C7.01674872,16.2857158 6.85603425,16.1551353 6.83594494,15.9843762 L6.5546946,14.1361597 C6.2433103,14.0357131 5.94197066,13.9151773 5.65067567,13.7645075 L4.23437933,14.8392855 C4.16406675,14.8995535 4.07366486,14.9296874 3.98326296,14.9296874 C3.89286107,14.9296874 3.80245918,14.8895088 3.73214659,14.8191962 C3.19977989,14.3370528 2.49665405,13.7142842 2.07477855,13.1316942 C2.02455527,13.0613816 2.00446596,12.9810244 2.00446596,12.9006671 C2.00446596,12.8102652 2.03459993,12.7399527 2.0848232,12.6696401 C2.42634147,12.207586 2.79799369,11.7656211 3.13951196,11.2935224 C2.96875283,10.9720934 2.82812766,10.6406198 2.72768111,10.2991015 L0.889509276,10.0278959 C0.718750144,9.99776189 0.598214286,9.83704742 0.598214286,9.66628828 L0.598214286,7.43637491 C0.598214286,7.28570509 0.718750144,7.1049013 0.869419966,7.07476734 L2.73772576,6.793517 C2.83817231,6.47208805 2.96875283,6.1707484 3.1294673,5.86940876 C2.78794904,5.38726533 2.42634147,4.93525586 2.05468924,4.48324639 C1.99442131,4.41293381 1.95424269,4.33257657 1.95424269,4.24217468 C1.95424269,4.15177278 1.99442131,4.0814602 2.04464458,4.01114761 C2.2857163,3.67967401 3.6417447,2.2131544 3.98326296,2.2131544 C4.07366486,2.2131544 4.16406675,2.25333302 4.24442399,2.31360095 L5.63058636,3.38837902 C5.92188135,3.23770919 6.23326565,3.10712868 6.54464995,3.00668213 C6.61496253,2.39395819 6.67523046,1.74105562 6.83594494,1.13837633 C6.87612356,0.977661856 7.01674872,0.857125998 7.19755251,0.857125998 L9.42746588,0.857125998 C9.60826967,0.857125998 9.76898415,0.98770651 9.78907346,1.15846564 L10.0703238,3.00668213 C10.3817081,3.10712868 10.6830477,3.22766454 10.9743427,3.37833436 L12.4006837,2.30355629 C12.4609516,2.24328836 12.5513535,2.2131544 12.6417554,2.2131544 C12.7321573,2.2131544 12.8225592,2.25333302 12.8928718,2.31360095 C13.4252385,2.80578903 14.1283643,3.42855763 14.5502398,4.02119227 C14.6004631,4.0814602 14.6205524,4.16181744 14.6205524,4.24217468 C14.6205524,4.33257657 14.5904185,4.40288915 14.5401952,4.47320174 C14.1986769,4.93525586 13.8270247,5.37722067 13.4855064,5.84931945 C13.6562656,6.1707484 13.7968907,6.50222201 13.8973373,6.83369562 L15.7355091,7.11494596 C15.9062682,7.14507992 16.0268041,7.3057944 16.0268041,7.47655353 Z"></path>
    </g>
</svg>
