<svg xmlns="http://www.w3.org/2000/svg" fill="currentColor" viewBox="0 0 24 24" height="24" width="24">
  <path d="M4.5 1h15A4.512 4.512 0 0 1 24 5.5v12a4.513 4.513 0 0 1-4.5 4.5h-15A4.508 4.508 0 0 1 0 17.5v-12A4.52 4.52 0 0 1 4.5 1ZM21 17.5v-12A1.5 1.5 0 0 0 19.5 4H12v15h7.5a1.5 1.5 0 0 0 1.5-1.5Zm-18 0A1.5 1.5 0 0 0 4.5 19h6V4h-6A1.5 1.5 0 0 0 3 5.5Z"/>
  <path d="M5.25 7h3a.75.75 0 0 0 0-1.5h-3a.75.75 0 0 0 0 1.5zm0 3h3a.75.75 0 0 0 0-1.5h-3a.75.75 0 0 0 0 1.5zm1.5 3h1.5a.75.75 0 0 0 0-1.5h-1.5a.75.75 0 0 0 0 1.5z"/>
</svg>
