<svg width="32" height="32" viewBox="0 0 32 32" fill="currentColor" xmlns="http://www.w3.org/2000/svg">
  <path d="M15.7733 5C15.7733 5 5.90798 5.00023 3.44876 5.65976C2.09058 6.02259 1.02323 7.09112 0.659641 8.44873C7.56979e-05 10.9084 0 16.0419 0 16.0419C0 16.0419 7.56979e-05 21.1762 0.659641 23.6356C1.02323 24.9936 2.09058 26.061 3.44876 26.4246C5.90798 27.0845 15.7733 27.0843 15.7733 27.0843C15.7733 27.0843 25.6391 27.0845 28.0983 26.4246C29.4564 26.0617 30.5238 24.9936 30.8874 23.6356C31.547 21.1762 31.547 16.0419 31.547 16.0419C31.547 16.0419 31.5444 10.9084 30.8874 8.44873C30.524 7.09112 29.4564 6.02372 28.0983 5.65976C25.6391 5.00023 15.7733 5 15.7733 5ZM12.6156 11.3106L20.8114 16.0424L12.6156 20.7742V11.3106Z"/>
</svg>
