<svg width="16" height="16" viewBox="0 0 16 16" fill="currentColor" xmlns="http://www.w3.org/2000/svg">
  <path opacity="0.2" d="M6.50181 2.5L0.790674 8.13885C0.396858 8.52849 0.398944 9.16119 0.790674 9.55292L6.44888 15.2111C6.84061 15.6029 7.47333 15.605 7.86294 15.2111L13.5018 9.5V2.5H6.50181ZM10.0018 4.5C10.8302 4.5 11.5018 5.17157 11.5018 6C11.5018 6.82843 10.8302 7.5 10.0018 7.5C9.17338 7.5 8.50181 6.82843 8.50181 6C8.50181 5.17157 9.17338 4.5 10.0018 4.5Z" />
  <path d="M6.15051 2.1442C6.24409 2.05181 6.3703 2 6.50181 2H13.5018C13.778 2 14.0018 2.22386 14.0018 2.5V9.5C14.0018 9.63151 13.95 9.75772 13.8576 9.8513L8.21874 15.5624C7.6317 16.1558 6.68057 16.1499 6.09532 15.5647L0.437121 9.90647C-0.14814 9.32121 -0.154317 8.37046 0.439011 7.78342L6.15051 2.1442ZM6.70705 3L1.14234 8.49429C1.14229 8.49434 1.14239 8.49424 1.14234 8.49429C0.948186 8.68655 0.946082 9.00122 1.14423 9.19936L6.80243 14.8576C7.00059 15.0557 7.31509 15.0538 7.50729 14.8597C7.50735 14.8596 7.50722 14.8597 7.50729 14.8597L13.0018 9.29476V3H6.70705ZM10.0018 5C9.44952 5 9.00181 5.44771 9.00181 6C9.00181 6.55229 9.44952 7 10.0018 7C10.5541 7 11.0018 6.55229 11.0018 6C11.0018 5.44771 10.5541 5 10.0018 5ZM8.00181 6C8.00181 4.89543 8.89724 4 10.0018 4C11.1064 4 12.0018 4.89543 12.0018 6C12.0018 7.10457 11.1064 8 10.0018 8C8.89724 8 8.00181 7.10457 8.00181 6Z" />
</svg>
