<svg width="16" height="16" viewBox="0 0 16 16" fill="currentColor" xmlns="http://www.w3.org/2000/svg">
  <path opacity="0.2" d="M4 1.5H12C13.385 1.5 14.5 2.615 14.5 4V4.5C11.5 4.5 4 4.5 1.5 4.5V4C1.5 2.615 2.615 1.5 4 1.5Z" />
  <path d="M5 3.5C5 3.22386 4.77614 3 4.5 3C4.22386 3 4 3.22386 4 3.5H5ZM4 5.5C4 5.77614 4.22386 6 4.5 6C4.77614 6 5 5.77614 5 5.5H4ZM12 3.5C12 3.22386 11.7761 3 11.5 3C11.2239 3 11 3.22386 11 3.5H12ZM11 5.5C11 5.77614 11.2239 6 11.5 6C11.7761 6 12 5.77614 12 5.5H11ZM4.5 7C4.22386 7 4 7.22386 4 7.5C4 7.77614 4.22386 8 4.5 8V7ZM5.5 8C5.77614 8 6 7.77614 6 7.5C6 7.22386 5.77614 7 5.5 7V8ZM7.51562 7C7.23948 7 7.01562 7.22386 7.01562 7.5C7.01562 7.77614 7.23948 8 7.51562 8V7ZM8.51562 8C8.79177 8 9.01562 7.77614 9.01562 7.5C9.01562 7.22386 8.79177 7 8.51562 7V8ZM10.5 7C10.2239 7 10 7.22386 10 7.5C10 7.77614 10.2239 8 10.5 8V7ZM11.5 8C11.7761 8 12 7.77614 12 7.5C12 7.22386 11.7761 7 11.5 7V8ZM4.5 9C4.22386 9 4 9.22386 4 9.5C4 9.77614 4.22386 10 4.5 10V9ZM5.5 10C5.77614 10 6 9.77614 6 9.5C6 9.22386 5.77614 9 5.5 9V10ZM7.51562 9C7.23948 9 7.01562 9.22386 7.01562 9.5C7.01562 9.77614 7.23948 10 7.51562 10V9ZM8.51562 10C8.79177 10 9.01562 9.77614 9.01562 9.5C9.01562 9.22386 8.79177 9 8.51562 9V10ZM10.5 9C10.2239 9 10 9.22386 10 9.5C10 9.77614 10.2239 10 10.5 10V9ZM11.5 10C11.7761 10 12 9.77614 12 9.5C12 9.22386 11.7761 9 11.5 9V10ZM4.5 11C4.22386 11 4 11.2239 4 11.5C4 11.7761 4.22386 12 4.5 12V11ZM5.5 12C5.77614 12 6 11.7761 6 11.5C6 11.2239 5.77614 11 5.5 11V12ZM7.51562 11C7.23948 11 7.01562 11.2239 7.01562 11.5C7.01562 11.7761 7.23948 12 7.51562 12V11ZM8.51562 12C8.79177 12 9.01562 11.7761 9.01562 11.5C9.01562 11.2239 8.79177 11 8.51562 11V12ZM10.5 11C10.2239 11 10 11.2239 10 11.5C10 11.7761 10.2239 12 10.5 12V11ZM11.5 12C11.7761 12 12 11.7761 12 11.5C12 11.2239 11.7761 11 11.5 11V12ZM4 2H12V1H4V2ZM12 2C13.1046 2 14 2.89543 14 4H15C15 2.34315 13.6569 1 12 1V2ZM14 4V12H15V4H14ZM14 12C14 13.1046 13.1046 14 12 14V15C13.6569 15 15 13.6569 15 12H14ZM12 14H4V15H12V14ZM4 14C2.89543 14 2 13.1046 2 12H1C1 13.6569 2.34314 15 4 15V14ZM2 12V4H1V12H2ZM2 4C2 2.89543 2.89543 2 4 2V1C2.34314 1 1 2.34315 1 4H2ZM1.5 5H14.5V4H1.5V5ZM4 3.5V5.5H5V3.5H4ZM11 3.5V5.5H12V3.5H11ZM4.5 8H5.5V7H4.5V8ZM7.51562 8H8.51562V7H7.51562V8ZM10.5 8H11.5V7H10.5V8ZM4.5 10H5.5V9H4.5V10ZM7.51562 10H8.51562V9H7.51562V10ZM10.5 10H11.5V9H10.5V10ZM4.5 12H5.5V11H4.5V12ZM7.51562 12H8.51562V11H7.51562V12ZM10.5 12H11.5V11H10.5V12Z" />
</svg>
