<svg width="16" height="16" viewBox="0 0 16 16" fill="currentColor" xmlns="http://www.w3.org/2000/svg">
  <path opacity="0.2" d="M4 1.5H12C12.831 1.5 13.5 2.169 13.5 3V13C13.5 13.831 12.831 14.5 12 14.5H4C3.169 14.5 2.5 13.831 2.5 13V3C2.5 2.169 3.169 1.5 4 1.5Z" />
  <path d="M4 1C2.9007 1 2 1.90065 2 3H1.5C1.223 3 1 3.223 1 3.5C1 3.777 1.223 4 1.5 4H2V6H1.5C1.223 6 1 6.223 1 6.5C1 6.777 1.223 7 1.5 7H2V9H1.5C1.223 9 1 9.223 1 9.5C1 9.777 1.223 10 1.5 10H2C2 10.0795 2.00652 10.1572 2.01562 10.2344C2.01491 10.5953 2.01382 11.4601 2.01172 12H1.5C1.223 12 1 12.223 1 12.5C1 12.777 1.223 13 1.5 13H2C2 14.0993 2.9007 15 4 15H12C13.0993 15 14 14.0993 14 13V12.5V11V3C14 1.90065 13.0993 1 12 1H4ZM4 2H12C12.1407 2 12.2744 2.02637 12.3945 2.07617C12.4546 2.10107 12.5114 2.13247 12.5645 2.16797C12.6176 2.20347 12.666 2.24406 12.7109 2.28906C12.7559 2.33396 12.7965 2.38245 12.832 2.43555C12.8675 2.48865 12.8989 2.54537 12.9238 2.60547C12.9736 2.72557 13 2.8593 13 3V11V12.7285V13C13 13.5626 12.5626 14 12 14H4C3.4374 14 3 13.5626 3 13H3.5C3.777 13 4 12.777 4 12.5C4 12.223 3.777 12 3.5 12H3V10H3.5C3.777 10 4 9.777 4 9.5C4 9.223 3.777 9 3.5 9H3V7H3.5C3.777 7 4 6.777 4 6.5C4 6.223 3.777 6 3.5 6H3V4H3.5C3.777 4 4 3.777 4 3.5C4 3.223 3.777 3 3.5 3H3C3 3 3.00246 2.93058 3.00586 2.89648C3.01586 2.79418 3.03877 2.69557 3.07617 2.60547C3.10107 2.54537 3.13247 2.48865 3.16797 2.43555C3.20347 2.38245 3.24406 2.33396 3.28906 2.28906C3.33396 2.24406 3.38245 2.20347 3.43555 2.16797C3.48865 2.13247 3.54537 2.10107 3.60547 2.07617C3.72557 2.02637 3.8593 2 4 2ZM8 4C6.9014 4 6 4.9014 6 6C6 7.0986 6.9014 8 8 8C9.0986 8 10 7.0986 10 6C10 4.9014 9.0986 4 8 4ZM8 5C8.5582 5 9 5.4418 9 6C9 6.5582 8.5582 7 8 7C7.4418 7 7 6.5582 7 6C7 5.4418 7.4418 5 8 5ZM6.5 8C5.6777 8 5 8.6777 5 9.5V10.5C5 10.6326 5.05278 10.7597 5.14648 10.8535C5.24028 10.9472 5.3674 11 5.5 11C5.6326 11 5.75972 10.9472 5.85352 10.8535C5.94722 10.7597 6 10.6326 6 10.5V9.5C6 9.2144 6.2144 9 6.5 9C6.6326 9 6.75972 8.94722 6.85352 8.85352C6.94722 8.75972 7 8.6326 7 8.5C7 8.3674 6.94722 8.24028 6.85352 8.14648C6.75972 8.05278 6.6326 8 6.5 8ZM9.5 8C9.3674 8 9.24028 8.05278 9.14648 8.14648C9.05278 8.24028 9 8.3674 9 8.5C9 8.6326 9.05278 8.75972 9.14648 8.85352C9.24028 8.94722 9.3674 9 9.5 9C9.7856 9 10 9.2144 10 9.5V10.5C10 10.6326 10.0528 10.7597 10.1465 10.8535C10.2403 10.9472 10.3674 11 10.5 11C10.6326 11 10.7597 10.9472 10.8535 10.8535C10.9472 10.7597 11 10.6326 11 10.5V9.5C11 8.6777 10.3223 8 9.5 8Z" />
</svg>
