<svg xmlns="http://www.w3.org/2000/svg" width="16" height="16" fill="currentColor" viewBox="0 0 16 16">
  <path d="M8 1.5a.869.869 0 0 0-.787.499L5.5 5.5l-3.272.343a.867.867 0 0 0-.486 1.475L4.02 9.49l-.779 3.973a.868.868 0 0 0 1.204.967L8 12.85l3.556 1.579a.868.868 0 0 0 1.204-.967l-.78-3.972 2.277-2.172a.867.867 0 0 0-.485-1.475L10.5 5.5 8.787 1.999A.87.87 0 0 0 8 1.5Z" opacity=".2"/>
  <path d="M8 1c-.53 0-1.015.308-1.24.787L5.172 5.031l-2.996.315a.493.493 0 0 0-.02.002C1.07 5.505.61 6.903 1.391 7.674a.471.471 0 0 0 .006.006l2.078 1.982-.725 3.7v.001c-.216 1.06.907 1.962 1.896 1.524L8 13.398l3.354 1.489c.989.438 2.113-.464 1.896-1.524l-.725-3.701 2.079-1.982.005-.006c.783-.771.321-2.169-.765-2.327a.515.515 0 0 0-.02-.002l-2.996-.314L9.24 1.787A1.373 1.373 0 0 0 8 1Zm0 1a.365.365 0 0 1 .338.219L10.05 5.72a.5.5 0 0 0 .396.277l3.254.34c.334.048.444.39.205.625l-2.27 2.166a.5.5 0 0 0-.146.457l.78 3.973v.006c.066.32-.21.54-.51.408l-3.557-1.578a.5.5 0 0 0-.406 0l-3.555 1.578c-.302.134-.578-.087-.512-.408a.29.29 0 0 0 0-.006l.78-3.973a.5.5 0 0 0-.147-.457l-2.27-2.166c-.238-.236-.128-.577.206-.625l3.254-.34a.5.5 0 0 0 .396-.277l1.713-3.502A.366.366 0 0 1 8 2Z"/>
</svg>
