<svg width="16" height="16" viewBox="0 0 16 16" fill="currentColor" xmlns="http://www.w3.org/2000/svg">
  <path opacity="0.2" d="M6.5 5.5H9.5C10.054 5.5 10.5 5.946 10.5 6.5V9.5C10.5 10.054 10.054 10.5 9.5 10.5H6.5C5.946 10.5 5.5 10.054 5.5 9.5V6.5C5.5 5.946 5.946 5.5 6.5 5.5Z" />
  <path d="M1.5 1C1.3674 1.00002 1.24024 1.05271 1.14648 1.14648C1.05274 1.24025 1.00007 1.36741 1.00007 1.5C1.00007 1.63259 1.05274 1.75975 1.14648 1.85352L3.29297 4H1.5C1.36739 4 1.24021 4.05266 1.14645 4.14642C1.05268 4.24019 1 4.36739 1 4.5C1 4.63261 1.05268 4.75981 1.14645 4.85358C1.24021 4.94734 1.36739 5 1.5 5H4.5C4.6326 4.99998 4.75976 4.94728 4.85352 4.85352C4.88299 4.82364 4.90858 4.79017 4.92969 4.75391C4.931 4.75261 4.9323 4.75131 4.93359 4.75C4.93425 4.7487 4.9349 4.7474 4.93555 4.74609C4.95606 4.70917 4.97181 4.66979 4.98242 4.62891C4.99387 4.58689 4.99978 4.54355 5 4.5V1.5C5 1.36739 4.94732 1.24019 4.85355 1.14642C4.75979 1.05266 4.63261 1 4.5 1C4.36739 1 4.24021 1.05266 4.14645 1.14642C4.05268 1.24019 4 1.36739 4 1.5V3.29297L1.85352 1.14648C1.75976 1.05271 1.6326 1.00002 1.5 1V1ZM11.5 1C11.3674 1 11.2402 1.05266 11.1464 1.14642C11.0527 1.24019 11 1.36739 11 1.5V4.5C11 4.6326 11.0527 4.75976 11.1465 4.85352C11.1764 4.88299 11.2098 4.90858 11.2461 4.92969C11.2474 4.93099 11.2487 4.9323 11.25 4.93359C11.2513 4.93425 11.2526 4.9349 11.2539 4.93555C11.2908 4.95606 11.3302 4.97181 11.3711 4.98242C11.4131 4.99387 11.4564 4.99978 11.5 5H14.5C14.6326 5 14.7598 4.94734 14.8536 4.85358C14.9473 4.75981 15 4.63261 15 4.5C15 4.36739 14.9473 4.24019 14.8536 4.14642C14.7598 4.05266 14.6326 4 14.5 4H12.707L14.8535 1.85352C14.9473 1.75976 15 1.6326 15 1.5C15 1.3674 14.9473 1.24024 14.8535 1.14648C14.7598 1.05274 14.6326 1.00006 14.5 1.00006C14.3674 1.00006 14.2402 1.05274 14.1465 1.14648L12 3.29297V1.5C12 1.36739 11.9473 1.24019 11.8536 1.14642C11.7598 1.05266 11.6326 1 11.5 1ZM6.5 5C5.67765 5 5 5.67765 5 6.5V9.5C5 10.3224 5.67765 11 6.5 11H9.5C10.3223 11 11 10.3224 11 9.5V6.5C11 5.67765 10.3223 5 9.5 5H6.5ZM6.5 6H9.5C9.78564 6 10 6.21435 10 6.5V9.5C10 9.78565 9.78564 10 9.5 10H6.5C6.21435 10 6 9.78565 6 9.5V6.5C6 6.21435 6.21435 6 6.5 6ZM1.5 11C1.36739 11 1.24021 11.0527 1.14645 11.1464C1.05268 11.2402 1 11.3674 1 11.5C1 11.6326 1.05268 11.7598 1.14645 11.8536C1.24021 11.9473 1.36739 12 1.5 12H3.29297L1.14648 14.1465C1.05271 14.2402 1.00002 14.3674 1 14.5C1.00002 14.6326 1.05271 14.7598 1.14648 14.8535C1.24025 14.9473 1.36741 14.9999 1.5 14.9999C1.63259 14.9999 1.75975 14.9473 1.85352 14.8535L4 12.707V14.5C4 14.6326 4.05268 14.7598 4.14645 14.8536C4.24021 14.9473 4.36739 15 4.5 15C4.63261 15 4.75979 14.9473 4.85355 14.8536C4.94732 14.7598 5 14.6326 5 14.5V11.5C4.99998 11.3674 4.94728 11.2402 4.85352 11.1465C4.82364 11.117 4.79017 11.0914 4.75391 11.0703C4.75261 11.069 4.75131 11.0677 4.75 11.0664C4.7487 11.0657 4.7474 11.0651 4.74609 11.0645C4.70917 11.0439 4.66979 11.0282 4.62891 11.0176C4.58689 11.0061 4.54355 11.0002 4.5 11H1.5ZM11.5 11C11.3674 11 11.2402 11.0527 11.1465 11.1465C11.117 11.1764 11.0914 11.2098 11.0703 11.2461C11.069 11.2474 11.0677 11.2487 11.0664 11.25C11.0657 11.2513 11.0651 11.2526 11.0645 11.2539C11.0439 11.2908 11.0282 11.3302 11.0176 11.3711C11.0061 11.4131 11.0002 11.4564 11 11.5V14.5C11 14.6326 11.0527 14.7598 11.1464 14.8536C11.2402 14.9473 11.3674 15 11.5 15C11.6326 15 11.7598 14.9473 11.8536 14.8536C11.9473 14.7598 12 14.6326 12 14.5V12.707L14.1465 14.8535C14.2402 14.9473 14.3674 15 14.5 15C14.6326 15 14.7598 14.9473 14.8535 14.8535C14.9473 14.7598 14.9999 14.6326 14.9999 14.5C14.9999 14.3674 14.9473 14.2402 14.8535 14.1465L12.707 12H14.5C14.6326 12 14.7598 11.9473 14.8536 11.8536C14.9473 11.7598 15 11.6326 15 11.5C15 11.3674 14.9473 11.2402 14.8536 11.1464C14.7598 11.0527 14.6326 11 14.5 11H11.5Z" />
</svg>
