<svg width="16" height="16" viewBox="0 0 16 16" fill="currentColor" xmlns="http://www.w3.org/2000/svg">
  <path d="M1 4C1 2.34665 2.34666 1 4 1H12C13.6533 1 15 2.34665 15 4V12C15 13.6533 13.6533 15 12 15H4C2.34666 15 1 13.6533 1 12V4ZM5 2H4C2.88336 2 2 2.88336 2 4V12C2 13.1166 2.88336 14 4 14H5H6H12C13.1166 14 14 13.1166 14 12V4C14 2.88336 13.1166 2 12 2H6H5ZM5 5C5 4.93434 4.98706 4.86932 4.96194 4.80865C4.93681 4.74799 4.89999 4.69285 4.85356 4.64642C4.80713 4.59999 4.752 4.56321 4.69134 4.53808C4.63068 4.51296 4.56566 4.5 4.5 4.5C4.43434 4.5 4.36932 4.51296 4.30866 4.53808C4.248 4.56321 4.19287 4.59999 4.14644 4.64642C4.10001 4.69285 4.06319 4.74799 4.03806 4.80865C4.01294 4.86932 4 4.93434 4 5C4 5.06565 4.01294 5.1307 4.03806 5.19135C4.06319 5.252 4.10001 5.30715 4.14644 5.3536C4.19287 5.4 4.248 5.4368 4.30866 5.4619C4.36932 5.48705 4.43434 5.5 4.5 5.5C4.56566 5.5 4.63068 5.48705 4.69134 5.4619C4.752 5.4368 4.80713 5.4 4.85356 5.3536C4.89999 5.30715 4.93681 5.252 4.96194 5.19135C4.98706 5.1307 5 5.06565 5 5ZM5 8C5 7.93435 4.98706 7.8693 4.96194 7.80865C4.93681 7.748 4.89999 7.69285 4.85356 7.6464C4.80713 7.6 4.752 7.5632 4.69134 7.5381C4.63068 7.51295 4.56566 7.5 4.5 7.5C4.43434 7.5 4.36932 7.51295 4.30866 7.5381C4.248 7.5632 4.19287 7.6 4.14644 7.6464C4.10001 7.69285 4.06319 7.748 4.03806 7.80865C4.01294 7.8693 4 7.93435 4 8C4 8.06565 4.01294 8.1307 4.03806 8.19135C4.06319 8.252 4.10001 8.30715 4.14644 8.3536C4.19287 8.4 4.248 8.4368 4.30866 8.4619C4.36932 8.48705 4.43434 8.5 4.5 8.5C4.56566 8.5 4.63068 8.48705 4.69134 8.4619C4.752 8.4368 4.80713 8.4 4.85356 8.3536C4.89999 8.30715 4.93681 8.252 4.96194 8.19135C4.98706 8.1307 5 8.06565 5 8ZM5 11C5 11.0657 4.98706 11.1307 4.96194 11.1913C4.93681 11.252 4.89999 11.3071 4.85356 11.3536C4.80713 11.4 4.752 11.4368 4.69134 11.4619C4.63068 11.487 4.56566 11.5 4.5 11.5C4.43434 11.5 4.36932 11.487 4.30866 11.4619C4.248 11.4368 4.19287 11.4 4.14644 11.3536C4.10001 11.3071 4.06319 11.252 4.03806 11.1913C4.01294 11.1307 4 11.0657 4 11C4 10.9343 4.01294 10.8693 4.03806 10.8087C4.06319 10.748 4.10001 10.6929 4.14644 10.6464C4.19287 10.6 4.248 10.5632 4.30866 10.5381C4.36932 10.513 4.43434 10.5 4.5 10.5C4.56566 10.5 4.63068 10.513 4.69134 10.5381C4.752 10.5632 4.80713 10.6 4.85356 10.6464C4.89999 10.6929 4.93681 10.748 4.96194 10.8087C4.98706 10.8693 5 10.9343 5 11ZM7 4.93946C7 4.69648 7.223 4.5 7.5 4.5H11.5C11.777 4.5 12 4.69648 12 4.93946V5.06055C12 5.30355 11.777 5.5 11.5 5.5H7.5C7.223 5.5 7 5.30355 7 5.06055V4.93946ZM7 7.959C7 7.70505 7.223 7.5 7.5 7.5H11.5C11.777 7.5 12 7.70505 12 7.959V8.041C12 8.29495 11.777 8.5 11.5 8.5H7.5C7.223 8.5 7 8.29495 7 8.041V7.959ZM7 11C7 10.723 7.223 10.5 7.5 10.5H11.5C11.777 10.5 12 10.723 12 11C12 11.277 11.777 11.5 11.5 11.5H7.5C7.223 11.5 7 11.277 7 11Z" />
</svg>
