<svg width="16" height="16" viewBox="0 0 16 16" fill="currentColor" xmlns="http://www.w3.org/2000/svg">
  <path d="M12.5 2C12.2239 2 12 2.22386 12 2.5V5.5C12 5.77614 12.2239 6 12.5 6C12.7761 6 13 5.77614 13 5.5V2.5C13 2.22386 12.7761 2 12.5 2ZM12.5059 7.00586C11.6866 7.00586 11.0118 7.68073 11.0118 8.5C11.0118 9.14158 11.4271 9.69263 12 9.90234V13.5C12 13.7761 12.2239 14 12.5 14C12.7762 14 13 13.7761 13 13.5V9.90625C13.579 9.69981 14 9.14591 14 8.5C14 7.68073 13.3252 7.00586 12.5059 7.00586ZM12.5059 8.00586C12.7847 8.00586 13 8.22117 13 8.5C13 8.77883 12.7847 8.99414 12.5059 8.99414C12.227 8.99414 12.0117 8.77883 12.0117 8.5C12.0117 8.22117 12.2271 8.00586 12.5059 8.00586Z" />
  <path d="M2.5 2C2.77614 2 3 2.22386 3 2.5V4H9V2.5C9 2.22386 9.22386 2 9.5 2C9.77614 2 10 2.22386 10 2.5V4C10 4.55314 9.55314 5 9 5H3C2.44686 5 2 4.55314 2 4V2.5C2 2.22386 2.22386 2 2.5 2ZM2 7C2 6.44772 2.44772 6 3 6H9C9.55229 6 10 6.44772 10 7V9C10 9.55228 9.55229 10 9 10H3C2.44772 10 2 9.55228 2 9V7ZM9 7H3V9H9V7ZM2 12C2 11.4469 2.44686 11 3 11H9C9.55314 11 10 11.4469 10 12V13.5C10 13.7761 9.77614 14 9.5 14C9.22386 14 9 13.7761 9 13.5V12H3V13.5C3 13.7761 2.77614 14 2.5 14C2.22386 14 2 13.7761 2 13.5V12Z" />
</svg>
