<svg width="16" height="16" viewBox="0 0 16 16" fill="currentColor" xmlns="http://www.w3.org/2000/svg">
  <path opacity="0.2" d="M4 1.5C3.66263 1.5 3.42801 2.9509 3.18945 3.18945C2.9509 3.42801 1.5 3.66263 1.5 4C1.5 4.33737 2.9509 4.57199 3.18945 4.81055C3.42801 5.0491 3.66263 6.5 4 6.5C4.33737 6.5 4.57199 5.0491 4.81055 4.81055C5.0491 4.57199 6.5 4.33737 6.5 4C6.5 3.66263 5.0491 3.42801 4.81055 3.18945C4.57199 2.9509 4.33737 1.5 4 1.5ZM10 2.47656C9.24059 2.47656 8.90417 5.83021 8.36719 6.36719C7.83021 6.90417 4.47656 7.24059 4.47656 8C4.47656 8.75941 7.83021 9.09583 8.36719 9.63281C8.90417 10.1698 9.24059 13.5234 10 13.5234C10.7594 13.5234 11.0958 10.1698 11.6328 9.63281C12.1698 9.09583 15.5234 8.75941 15.5234 8C15.5234 7.24059 12.1698 6.90417 11.6328 6.36719C11.0958 5.83021 10.7594 2.47656 10 2.47656ZM4 9.5C3.66263 9.5 3.42801 10.9509 3.18945 11.1895C2.9509 11.428 1.5 11.6626 1.5 12C1.5 12.3374 2.9509 12.572 3.18945 12.8105C3.42801 13.0491 3.66263 14.5 4 14.5C4.33737 14.5 4.57199 13.0491 4.81055 12.8105C5.0491 12.572 6.5 12.3374 6.5 12C6.5 11.6626 5.0491 11.428 4.81055 11.1895C4.57199 10.9509 4.33737 9.5 4 9.5Z" />
  <path d="M4 1C3.77863 1 3.61349 1.1166 3.51953 1.21289C3.42557 1.30918 3.37207 1.40293 3.32227 1.49805C3.22266 1.68829 3.152 1.89331 3.08398 2.09766C3.01597 2.30201 2.95288 2.50444 2.89844 2.65625C2.84399 2.80806 2.74536 2.92652 2.83594 2.83594C2.92652 2.74536 2.80806 2.84399 2.65625 2.89844C2.50444 2.95288 2.30201 3.01597 2.09766 3.08398C1.89331 3.152 1.68829 3.22266 1.49805 3.32227C1.40293 3.37207 1.30918 3.42557 1.21289 3.51953C1.1166 3.61349 1 3.77863 1 4C1 4.22137 1.1166 4.38651 1.21289 4.48047C1.30918 4.57443 1.40293 4.62793 1.49805 4.67773C1.68829 4.77734 1.89331 4.848 2.09766 4.91602C2.30201 4.98403 2.50444 5.04712 2.65625 5.10156C2.80806 5.15601 2.92652 5.25464 2.83594 5.16406C2.74536 5.07348 2.84399 5.19194 2.89844 5.34375C2.95288 5.49556 3.01597 5.69799 3.08398 5.90234C3.152 6.10669 3.22266 6.31171 3.32227 6.50195C3.37207 6.59707 3.42557 6.69082 3.51953 6.78711C3.61349 6.8834 3.77863 7 4 7C4.22137 7 4.38651 6.8834 4.48047 6.78711C4.57443 6.69082 4.62793 6.59707 4.67773 6.50195C4.77734 6.31171 4.848 6.10669 4.91602 5.90234C4.98403 5.69799 5.04712 5.49556 5.10156 5.34375C5.15601 5.19194 5.25464 5.07348 5.16406 5.16406C5.07348 5.25464 5.19194 5.15601 5.34375 5.10156C5.49556 5.04712 5.69799 4.98403 5.90234 4.91602C6.10669 4.848 6.31171 4.77734 6.50195 4.67773C6.59707 4.62793 6.69082 4.57443 6.78711 4.48047C6.8834 4.38651 7 4.22137 7 4C7 3.77863 6.8834 3.61349 6.78711 3.51953C6.69082 3.42557 6.59707 3.37207 6.50195 3.32227C6.31171 3.22266 6.10669 3.152 5.90234 3.08398C5.69799 3.01597 5.49556 2.95288 5.34375 2.89844C5.19194 2.84399 5.07348 2.74536 5.16406 2.83594C5.25464 2.92652 5.15601 2.80806 5.10156 2.65625C5.04712 2.50444 4.98403 2.30201 4.91602 2.09766C4.848 1.89331 4.77734 1.68829 4.67773 1.49805C4.62793 1.40293 4.57443 1.30918 4.48047 1.21289C4.38651 1.1166 4.22137 1 4 1ZM10 1.97656C9.72107 1.97656 9.49946 2.13457 9.36133 2.28906C9.2232 2.44355 9.13035 2.61479 9.04492 2.80273C8.87407 3.17862 8.74234 3.62946 8.61719 4.08984C8.49204 4.55023 8.37641 5.01706 8.26367 5.38672C8.15093 5.75638 7.98237 6.04497 8.01367 6.01367C8.04497 5.98237 7.75638 6.15093 7.38672 6.26367C7.01706 6.37641 6.55023 6.49204 6.08984 6.61719C5.62946 6.74234 5.17862 6.87407 4.80273 7.04492C4.61479 7.13035 4.44355 7.2232 4.28906 7.36133C4.13457 7.49946 3.97656 7.72107 3.97656 8C3.97656 8.27893 4.13457 8.50054 4.28906 8.63867C4.44355 8.7768 4.61479 8.86965 4.80273 8.95508C5.17862 9.12593 5.62946 9.25766 6.08984 9.38281C6.55023 9.50796 7.01706 9.62359 7.38672 9.73633C7.75638 9.84907 8.04497 10.0176 8.01367 9.98633C7.98237 9.95503 8.15093 10.2436 8.26367 10.6133C8.37641 10.9829 8.49204 11.4498 8.61719 11.9102C8.74234 12.3705 8.87407 12.8214 9.04492 13.1973C9.13035 13.3852 9.2232 13.5564 9.36133 13.7109C9.49946 13.8654 9.72107 14.0234 10 14.0234C10.2789 14.0234 10.5005 13.8654 10.6387 13.7109C10.7768 13.5564 10.8697 13.3852 10.9551 13.1973C11.1259 12.8214 11.2577 12.3705 11.3828 11.9102C11.508 11.4498 11.6236 10.9829 11.7363 10.6133C11.8491 10.2436 12.0176 9.95503 11.9863 9.98633C11.955 10.0176 12.2436 9.84907 12.6133 9.73633C12.9829 9.62359 13.4498 9.50796 13.9102 9.38281C14.3705 9.25766 14.8214 9.12593 15.1973 8.95508C15.3852 8.86965 15.5564 8.7768 15.7109 8.63867C15.8654 8.50054 16.0234 8.27893 16.0234 8C16.0234 7.72107 15.8654 7.49946 15.7109 7.36133C15.5564 7.2232 15.3852 7.13035 15.1973 7.04492C14.8214 6.87407 14.3705 6.74234 13.9102 6.61719C13.4498 6.49204 12.9829 6.37641 12.6133 6.26367C12.2436 6.15093 11.955 5.98237 11.9863 6.01367C12.0176 6.04497 11.8491 5.75638 11.7363 5.38672C11.6236 5.01706 11.508 4.55023 11.3828 4.08984C11.2577 3.62946 11.1259 3.17862 10.9551 2.80273C10.8697 2.61479 10.7768 2.44355 10.6387 2.28906C10.5005 2.13457 10.2789 1.97656 10 1.97656ZM4 2.50781C4.05253 2.66935 4.10384 2.83712 4.16016 2.99414C4.22734 3.18146 4.24718 3.33311 4.45703 3.54297C4.66689 3.75282 4.81854 3.77266 5.00586 3.83984C5.16288 3.89616 5.33065 3.94747 5.49219 4C5.33065 4.05253 5.16288 4.10384 5.00586 4.16016C4.81854 4.22734 4.66689 4.24718 4.45703 4.45703C4.24718 4.66689 4.22734 4.81854 4.16016 5.00586C4.10384 5.16288 4.05253 5.33065 4 5.49219C3.94747 5.33065 3.89616 5.16288 3.83984 5.00586C3.77266 4.81854 3.75282 4.66689 3.54297 4.45703C3.33311 4.24718 3.18146 4.22734 2.99414 4.16016C2.83712 4.10384 2.66935 4.05253 2.50781 4C2.66935 3.94747 2.83712 3.89616 2.99414 3.83984C3.18146 3.77266 3.33311 3.75282 3.54297 3.54297C3.75282 3.33311 3.77266 3.18146 3.83984 2.99414C3.89616 2.83712 3.94747 2.66935 4 2.50781ZM10 3.13867C10.0175 3.17111 10.0267 3.17667 10.0449 3.2168C10.1675 3.4865 10.297 3.90641 10.418 4.35156C10.539 4.79671 10.6542 5.26756 10.7793 5.67773C10.9044 6.08791 10.9795 6.42091 11.2793 6.7207C11.5791 7.0205 11.9121 7.09561 12.3223 7.2207C12.7324 7.3458 13.2033 7.46102 13.6484 7.58203C14.0936 7.70304 14.5135 7.83249 14.7832 7.95508C14.8233 7.97332 14.8289 7.98251 14.8613 8C14.8289 8.01749 14.8233 8.02668 14.7832 8.04492C14.5135 8.16751 14.0936 8.29696 13.6484 8.41797C13.2033 8.53898 12.7324 8.6542 12.3223 8.7793C11.9121 8.90439 11.5791 8.97951 11.2793 9.2793C10.9795 9.57909 10.9044 9.91209 10.7793 10.3223C10.6542 10.7324 10.539 11.2033 10.418 11.6484C10.297 12.0936 10.1675 12.5135 10.0449 12.7832C10.0267 12.8233 10.0175 12.8289 10 12.8613C9.98251 12.8289 9.97332 12.8233 9.95508 12.7832C9.83249 12.5135 9.70304 12.0936 9.58203 11.6484C9.46102 11.2033 9.3458 10.7324 9.2207 10.3223C9.09561 9.91209 9.0205 9.57909 8.7207 9.2793C8.42091 8.9795 8.08791 8.90439 7.67773 8.7793C7.26756 8.6542 6.79671 8.53898 6.35156 8.41797C5.90641 8.29696 5.4865 8.16751 5.2168 8.04492C5.17667 8.02668 5.17111 8.01749 5.13867 8C5.17111 7.98251 5.17667 7.97332 5.2168 7.95508C5.4865 7.83249 5.90641 7.70304 6.35156 7.58203C6.79671 7.46102 7.26756 7.3458 7.67773 7.2207C8.08791 7.09561 8.42091 7.0205 8.7207 6.7207C9.0205 6.42091 9.09561 6.08791 9.2207 5.67773C9.3458 5.26756 9.46102 4.79671 9.58203 4.35156C9.70304 3.90641 9.83249 3.4865 9.95508 3.2168C9.97332 3.17667 9.98251 3.17111 10 3.13867ZM4 9C3.77864 9 3.61349 9.1166 3.51953 9.21289C3.42557 9.30918 3.37207 9.40293 3.32227 9.49805C3.22266 9.68829 3.152 9.89331 3.08398 10.0977C3.01597 10.302 2.95288 10.5044 2.89844 10.6562C2.84399 10.8081 2.74536 10.9265 2.83594 10.8359C2.92652 10.7454 2.80806 10.844 2.65625 10.8984C2.50444 10.9529 2.30201 11.016 2.09766 11.084C1.89331 11.152 1.68829 11.2227 1.49805 11.3223C1.40293 11.3721 1.30918 11.4256 1.21289 11.5195C1.1166 11.6135 1 11.7786 1 12C1 12.2214 1.1166 12.3865 1.21289 12.4805C1.30918 12.5744 1.40293 12.6279 1.49805 12.6777C1.68829 12.7773 1.89331 12.848 2.09766 12.916C2.30201 12.984 2.50444 13.0471 2.65625 13.1016C2.80806 13.156 2.92652 13.2546 2.83594 13.1641C2.74536 13.0735 2.84399 13.1919 2.89844 13.3438C2.95288 13.4956 3.01597 13.698 3.08398 13.9023C3.152 14.1067 3.22266 14.3117 3.32227 14.502C3.37207 14.5971 3.42557 14.6908 3.51953 14.7871C3.61349 14.8834 3.77864 15 4 15C4.22136 15 4.38651 14.8834 4.48047 14.7871C4.57443 14.6908 4.62793 14.5971 4.67773 14.502C4.77734 14.3117 4.848 14.1067 4.91602 13.9023C4.98403 13.698 5.04712 13.4956 5.10156 13.3438C5.15601 13.1919 5.25464 13.0735 5.16406 13.1641C5.07348 13.2546 5.19194 13.156 5.34375 13.1016C5.49556 13.0471 5.69799 12.984 5.90234 12.916C6.10669 12.848 6.31171 12.7773 6.50195 12.6777C6.59707 12.6279 6.69082 12.5744 6.78711 12.4805C6.8834 12.3865 7 12.2214 7 12C7 11.7786 6.8834 11.6135 6.78711 11.5195C6.69082 11.4256 6.59707 11.3721 6.50195 11.3223C6.31171 11.2227 6.10669 11.152 5.90234 11.084C5.69799 11.016 5.49556 10.9529 5.34375 10.8984C5.19194 10.844 5.07348 10.7454 5.16406 10.8359C5.25464 10.9265 5.15601 10.8081 5.10156 10.6562C5.04712 10.5044 4.98403 10.302 4.91602 10.0977C4.848 9.89331 4.77734 9.68829 4.67773 9.49805C4.62793 9.40293 4.57443 9.30918 4.48047 9.21289C4.38651 9.1166 4.22136 9 4 9ZM4 10.5078C4.05253 10.6694 4.10384 10.8371 4.16016 10.9941C4.22734 11.1815 4.24718 11.3331 4.45703 11.543C4.66689 11.7528 4.81854 11.7727 5.00586 11.8398C5.16288 11.8962 5.33065 11.9475 5.49219 12C5.33065 12.0525 5.16288 12.1038 5.00586 12.1602C4.81854 12.2273 4.66689 12.2472 4.45703 12.457C4.24718 12.6669 4.22734 12.8185 4.16016 13.0059C4.10384 13.1629 4.05253 13.3307 4 13.4922C3.94747 13.3307 3.89616 13.1629 3.83984 13.0059C3.77266 12.8185 3.75282 12.6669 3.54297 12.457C3.33311 12.2472 3.18146 12.2273 2.99414 12.1602C2.83712 12.1038 2.66935 12.0525 2.50781 12C2.66935 11.9475 2.83712 11.8962 2.99414 11.8398C3.18146 11.7727 3.33311 11.7528 3.54297 11.543C3.75282 11.3331 3.77266 11.1815 3.83984 10.9941C3.89616 10.8371 3.94747 10.6694 4 10.5078Z" />
</svg>
