<svg width="16" height="16" viewBox="0 0 16 16" fill="currentColor" xmlns="http://www.w3.org/2000/svg">
  <path opacity="0.2" d="M13.5139 8.32727C14.1689 7.67268 14.5 6.91607 14.5 6C14.5 5.08392 14.1689 4.13644 13.5139 3.48187C12.8589 2.8273 12.0041 2.5 11.1493 2.5C10.2945 2.5 9.43964 3.05771 8.78464 3.71228L7.99642 4.5C8.6897 5.22005 10.0792 6.24335 9.19968 7.12283C8.3453 7.9772 7.39185 6.96886 6.64458 6.32435C5.80682 7.29568 4.56556 8.43444 3.5 9.5C5.12129 11.0808 5.59918 11.3994 7.13023 13.0671C7.34678 13.2835 7.6716 13.5 7.99642 13.5C8.32124 13.5 8.64607 13.2835 8.86261 13.0671C10.3624 11.3713 11.9136 9.92658 13.5139 8.32727Z" />
  <path d="M4.84375 2C3.8613 2 2.8749 2.37949 2.125 3.12891C1.35765 3.89574 1 4.96606 1 6C1 7.03393 1.39203 7.94914 2.125 8.68164C2.12629 8.68295 2.1276 8.68425 2.12891 8.68555C3.74795 10.2642 5.2402 11.747 6.76172 13.4043C6.76681 13.4096 6.77202 13.4148 6.77735 13.4199C7.05278 13.6952 7.4491 14 7.99609 14C8.54309 14 8.94136 13.6952 9.2168 13.4199C9.22352 13.4129 9.23003 13.4058 9.23633 13.3984C10.7161 11.7252 12.2591 10.2887 13.8672 8.68164C14.5989 7.95043 15 7.03655 15 6C15 4.96345 14.6332 3.89445 13.8672 3.12891C13.1173 2.3795 12.1309 2 11.1484 2C10.0762 2 9.14006 2.65143 8.43164 3.35938L7.99609 3.79297L7.94141 3.73828L7.86328 3.65625C7.85878 3.65292 7.85422 3.64966 7.84961 3.64648L7.5625 3.35938C6.85409 2.65144 5.91604 2 4.84375 2ZM4.84375 3C5.48109 3 6.25387 3.46521 6.85547 4.06641L7.13672 4.3457L7.17578 4.38672L8.84375 6.13672C9.05095 6.35433 9.05543 6.6516 8.85352 6.85352C8.75377 6.95326 8.66374 6.98049 8.53516 6.97656C8.40657 6.97263 8.24051 6.91881 8.08984 6.80664L5.79688 5.09961C5.57603 4.93612 5.26464 4.98148 5.09961 5.20117C4.93522 5.42287 4.98155 5.73583 5.20312 5.90039L5.88477 6.4082L3.58203 8.71094C3.33283 8.46604 3.08639 8.22067 2.83203 7.97266C2.25499 7.39598 2 6.7982 2 6C2 5.20179 2.28937 4.37824 2.83203 3.83594C3.39212 3.27621 4.11656 3 4.84375 3ZM11.1484 3C11.8756 3 12.6001 3.27621 13.1602 3.83594C13.7041 4.37953 14 5.2044 14 6C14 6.79559 13.7385 7.39469 13.1602 7.97266C11.5752 9.55661 10.0227 11.0052 8.50977 12.7129C8.35213 12.8704 8.09874 13 7.99609 13C7.89345 13 7.64204 12.8704 7.48438 12.7129C7.40499 12.6265 7.32727 12.5445 7.24805 12.459L8.85352 10.8535C9.04873 10.6583 9.04873 10.3417 8.85352 10.1465C8.75589 10.0489 8.62794 10 8.5 10C8.37206 10 8.24411 10.0489 8.14648 10.1465L6.5625 11.7305C6.30392 11.4579 6.04427 11.1886 5.78516 10.9219L6.85352 9.85352C7.04873 9.65826 7.04873 9.34174 6.85352 9.14648C6.75976 9.05271 6.6326 9.00002 6.5 9C6.3674 9.00002 6.24024 9.05271 6.14648 9.14648L5.08594 10.207C4.82363 9.94197 4.5586 9.67803 4.29297 9.41406L6.69531 7.01172L7.49414 7.60742C7.78784 7.82609 8.13441 7.96527 8.50391 7.97656C8.8734 7.98786 9.26856 7.85253 9.56055 7.56055C10.1421 6.97899 10.1272 6.03405 9.57031 5.44922L8.68555 4.51953L9.13867 4.06641C9.74025 3.46522 10.5111 3 11.1484 3V3Z" />
</svg>
