<svg viewBox="0 0 3944 750" fill="none" xmlns="http://www.w3.org/2000/svg">
  <path d="M314.805 154.949H314.865C336.905 77.8991 432.945 40.2891 530.815 40.2891C598.445 40.2891 659.156 61.6991 700.776 95.6891C675.938 96.8603 651.414 101.734 628.016 110.149C661.646 122.649 690.535 141.879 711.945 165.669C695.792 162.889 679.413 161.65 663.026 161.969C703.302 220.312 724.82 289.554 724.706 360.449C724.706 553.749 568.005 710.449 374.705 710.449C184.385 710.449 24.7051 551.099 24.7051 360.449C24.7051 330.339 28.7051 299.249 36.4751 270.089C38.5151 263.969 41.3551 258.099 45.1251 255.949C49.8451 253.259 54.1451 261.279 54.8351 263.889C59.9528 283.059 66.839 301.712 75.4051 319.609C74.6551 279.649 91.7251 243.249 115.205 211.769C130.865 190.779 145.385 171.329 152.085 115.199C152.535 111.429 156.105 108.719 159.715 109.899C210.675 126.579 237.915 211.439 233.685 282.399C261.835 286.429 261.705 257.019 261.705 257.019C252.705 229.359 258.705 177.949 314.705 154.949H314.805Z" fill="url(#paint0_linear_106_1002)"/>
  <path opacity="0.9" d="M713.254 271.32C721.764 463.82 563.514 629.79 370.544 629.79C189.894 629.79 41.8648 490.16 28.4748 312.94C26.0859 329.536 24.8296 346.274 24.7148 363.04C26.0848 552.66 185.374 710.45 374.714 710.45C568.014 710.45 724.714 553.75 724.714 360.45C724.714 329.65 720.724 299.78 713.254 271.32Z" fill="url(#paint1_radial_106_1002)"/>
  <path style="mix-blend-mode:screen" d="M366.175 180.459C362.405 173.789 344.995 163.919 337.385 162.199C366.185 69.9491 512.906 41.6291 602.706 57.9491C640.076 64.7491 686.616 85.1091 700.776 95.6891C659.156 61.6991 598.435 40.2891 530.815 40.2891C432.945 40.2891 336.905 77.8991 314.865 154.949H314.705C258.705 177.949 252.705 229.379 261.705 257.029C270.345 224.039 311.455 183.499 366.175 180.459Z" fill="url(#paint2_radial_106_1002)"/>
  <path d="M467.885 116.748C389.265 132.218 363.575 137.278 337.265 162.288C366.815 84.0583 442.245 68.1983 532.125 103.858C510.734 108.268 489.32 112.568 467.885 116.758V116.748Z" fill="url(#paint3_linear_106_1002)"/>
  <path d="M43.7049 259.38C22.2249 347.32 38.8249 450.68 136.404 537.42C107.354 505.65 71.8849 388.35 150.154 304.55C155.424 298.9 164.494 303.05 164.784 310.77C171.234 484.93 311.764 591.3 473.784 571.41C423.584 568.59 257.564 510.44 381.064 487.44C445.614 475.41 546.824 456.56 546.824 365.74C546.824 218.52 432.994 175.48 363.964 181.88C316.724 186.26 274.674 216.24 261.734 257.01C266.704 273.08 246.894 284.33 233.684 282.44C237.924 211.49 210.684 126.58 159.714 109.9C156.114 108.72 152.534 111.43 152.084 115.2C145.384 171.33 130.864 190.78 115.214 211.77C91.7249 243.26 74.6549 279.65 75.4049 319.61C66.839 301.713 59.9528 283.06 54.8349 263.89C54.2649 261.73 51.1349 255.7 47.3549 255.42C45.3049 255.27 44.2149 257.27 43.7049 259.38Z" fill="url(#paint4_radial_106_1002)"/>
  <path style="mix-blend-mode:screen" d="M337.695 496.349C432.735 573.519 623.865 515.659 623.865 328.029C546.705 444.989 448.425 525.669 337.705 496.349H337.695Z" fill="url(#paint5_linear_106_1002)"/>
  <path style="mix-blend-mode:screen" d="M150.155 304.55C151.019 303.583 152.108 302.844 153.325 302.397C154.542 301.951 155.851 301.811 157.135 301.99C87.0755 387.44 143.586 537.51 182.366 574.38C184.536 580.52 145.575 548.59 140.205 541.12C110.705 516.09 68.4255 392.06 150.155 304.55Z" fill="url(#paint6_linear_106_1002)"/>
  <path d="M374.705 503.419C469.765 503.419 546.835 440.54 546.835 362.97C546.835 285.4 469.765 222.52 374.705 222.52C293.605 222.52 202.535 275.28 202.575 365.02C202.615 503.69 349.115 583.47 473.995 571.39C464.615 570.3 406.095 567.19 366.545 522.45C362.975 518.42 356.785 511.38 359.595 506.81C362.395 502.24 370.115 503.41 374.695 503.41L374.705 503.419Z" fill="url(#paint7_linear_106_1002)"/>
  <path opacity="0.6" d="M528.085 299.15L392.045 429.33C379.975 437.91 367.125 438.53 354.445 430.75L221.015 299.63C224.822 293.512 229.102 287.701 233.815 282.25L247.815 295.35C282.855 328.19 311.185 354.72 351.115 388.8C369.135 404.18 374.735 403.88 392.415 388.8C438.095 349.8 471.505 320.3 514.935 281.51C519.776 287.036 524.17 292.938 528.075 299.16L528.085 299.15Z" fill="white"/>
  <mask id="mask0_106_1002" style="mask-type:luminance" maskUnits="userSpaceOnUse" x="202" y="297" width="345" height="276">
    <path d="M546.835 362.969C546.835 440.539 469.765 503.419 374.705 503.419C370.115 503.419 362.405 502.239 359.595 506.819C356.785 511.379 362.975 518.419 366.545 522.449C403.705 564.489 457.615 569.779 471.765 571.169L473.995 571.389C349.115 583.469 202.615 503.689 202.575 365.019C202.444 341.93 208.87 319.279 221.105 299.699L355.185 421.479C364.725 430.139 380.795 430.139 390.335 421.479L526.955 297.389C539.655 316.969 546.835 339.289 546.835 362.969Z" fill="white"/>
  </mask>
  <g mask="url(#mask0_106_1002)">
    <path opacity="0.7" d="M162.705 200.979H597.775V595.449H162.705V200.979Z" fill="url(#paint8_linear_106_1002)"/>
    <g filter="url(#filter0_f_106_1002)">
      <path fill-rule="evenodd" clip-rule="evenodd" d="M334.745 422.298C309.395 395.918 233.475 308.268 233.475 308.268L239.345 308.528L358.205 397.298C367.105 403.768 379.805 403.698 388.625 397.148L505.175 308.648L511.355 308.158C511.355 308.158 437.915 393.728 409.785 421.918C381.655 450.108 360.095 448.678 334.745 422.298Z" fill="#458FCD"/>
    </g>
  </g>
  <path d="M398.855 152.258C417.275 146.458 415.655 128.228 415.655 128.228C415.655 128.228 406.445 117.378 388.195 123.388C371.115 129.018 368.465 141.188 368.465 141.188C368.465 141.188 377.795 158.888 398.855 152.258Z" fill="white"/>
  <path d="M3287.34 198.867C3277.67 198.867 3269.34 202.367 3262.34 209.367C3255.67 216.034 3252.34 224.034 3252.34 233.367C3252.34 242.701 3255.67 250.867 3262.34 257.867C3269.34 264.867 3277.67 268.367 3287.34 268.367C3296.67 268.367 3304.67 264.867 3311.34 257.867C3318.01 250.867 3321.34 242.701 3321.34 233.367C3321.34 224.034 3318.01 216.034 3311.34 209.367C3304.67 202.367 3296.67 198.867 3287.34 198.867ZM1259.41 216.367V565.867H1320.41V409.367C1320.41 393.701 1326.41 380.534 1338.41 369.867C1350.74 358.867 1365.74 353.367 1383.41 353.367C1399.41 353.367 1412.41 359.034 1422.41 370.367C1432.41 381.367 1437.41 395.701 1437.41 413.367V565.867H1496.91V401.367C1496.91 382.034 1492.74 364.867 1484.41 349.867C1476.41 334.534 1465.07 322.701 1450.41 314.367C1436.07 305.701 1419.57 301.367 1400.91 301.367C1383.91 301.367 1368.24 305.2 1353.91 312.867C1339.57 320.201 1328.41 330.034 1320.41 342.367V216.367H1259.41ZM2331.5 216.367V347.867C2321.5 333.201 2308.67 321.867 2293 313.867C2277.67 305.534 2260.67 301.367 2242 301.367C2219.33 301.367 2199 307.201 2181 318.867C2163 330.201 2148.83 346.201 2138.5 366.867C2128.17 387.201 2123 410.367 2123 436.367C2123 462.367 2128.17 485.701 2138.5 506.367C2148.83 527.034 2163 543.201 2181 554.867C2199 566.201 2219.33 571.867 2242 571.867C2260.67 571.867 2277.67 567.867 2293 559.867C2308.67 551.534 2321.5 540.034 2331.5 525.367V565.867H2392.5V216.367H2331.5ZM2941.4 216.367V565.867H3002.4V525.367C3012.4 540.034 3025.06 551.534 3040.4 559.867C3056.06 567.867 3073.23 571.867 3091.9 571.867C3114.56 571.867 3134.9 566.201 3152.9 554.867C3170.9 543.201 3185.06 527.034 3195.4 506.367C3205.73 485.701 3210.9 462.367 3210.9 436.367C3210.9 410.367 3205.73 387.201 3195.4 366.867C3185.06 346.201 3170.9 330.201 3152.9 318.867C3134.9 307.201 3114.56 301.367 3091.9 301.367C3073.23 301.367 3056.06 305.534 3040.4 313.867C3025.06 321.867 3012.4 333.201 3002.4 347.867V216.367H2941.4ZM3758.12 216.367V347.867C3748.12 333.201 3735.29 321.867 3719.62 313.867C3704.29 305.534 3687.29 301.367 3668.62 301.367C3645.95 301.367 3625.62 307.201 3607.62 318.867C3589.62 330.201 3575.45 346.201 3565.12 366.867C3554.79 387.201 3549.62 410.367 3549.62 436.367C3549.62 462.367 3554.79 485.701 3565.12 506.367C3575.45 527.034 3589.62 543.201 3607.62 554.867C3625.62 566.201 3645.95 571.867 3668.62 571.867C3687.29 571.867 3704.29 567.867 3719.62 559.867C3735.29 551.534 3748.12 540.034 3758.12 525.367V565.867H3819.12V216.367H3758.12ZM925.568 222.367V279.367H1035.57V565.867H1098.07V279.367H1207.57V222.367H925.568ZM3885.62 292.691C3881.09 292.691 3876.9 293.813 3873.04 296.053C3869.26 298.293 3866.22 301.347 3863.92 305.217C3861.68 309.019 3860.57 313.161 3860.57 317.641C3860.57 322.122 3861.68 326.296 3863.92 330.166C3866.22 333.968 3869.26 337.022 3873.04 339.33C3876.9 341.57 3881.09 342.691 3885.62 342.691C3890.08 342.691 3894.21 341.57 3897.99 339.33C3901.85 337.022 3904.89 333.968 3907.12 330.166C3909.42 326.296 3910.57 322.122 3910.57 317.641C3910.57 313.161 3909.42 309.019 3907.12 305.217C3904.89 301.347 3901.85 298.293 3897.99 296.053C3894.21 293.813 3890.08 292.691 3885.62 292.691ZM3885.62 296.357C3889.47 296.357 3893.02 297.308 3896.27 299.209C3899.51 301.11 3902.08 303.688 3903.98 306.947C3905.94 310.206 3906.92 313.772 3906.92 317.641C3906.92 321.511 3905.97 325.109 3904.08 328.436C3902.19 331.694 3899.58 334.273 3896.27 336.174C3893.02 338.075 3889.47 339.025 3885.62 339.025C3881.77 339.025 3878.18 338.075 3874.87 336.174C3871.62 334.205 3869.02 331.591 3867.06 328.332C3865.17 325.073 3864.22 321.511 3864.22 317.641C3864.22 313.772 3865.17 310.206 3867.06 306.947C3869.02 303.688 3871.62 301.11 3874.87 299.209C3878.18 297.308 3881.77 296.357 3885.62 296.357ZM1984.95 301.367C1967.95 301.367 1952.28 305.034 1937.95 312.367C1923.95 319.367 1912.95 329.034 1904.95 341.367V307.367H1843.95V565.867H1904.95V409.367C1904.95 393.701 1910.95 380.534 1922.95 369.867C1934.95 358.867 1949.78 353.367 1967.45 353.367C1983.45 353.367 1996.45 359.034 2006.45 370.367C2016.78 381.367 2021.95 395.701 2021.95 413.367V565.867H2081.45V401.367C2081.45 382.034 2077.28 364.867 2068.95 349.867C2060.95 334.534 2049.61 322.701 2034.95 314.367C2020.28 305.701 2003.61 301.367 1984.95 301.367ZM2572.43 301.367C2548.1 301.367 2525.76 307.201 2505.43 318.867C2485.43 330.534 2469.6 346.534 2457.93 366.867C2446.26 387.201 2440.43 410.201 2440.43 435.867C2440.43 461.867 2446.43 485.201 2458.43 505.867C2470.76 526.534 2487.26 542.701 2507.93 554.367C2528.6 566.034 2551.26 571.867 2575.93 571.867C2594.93 571.867 2614.43 568.201 2634.43 560.867C2654.43 553.201 2669.93 543.534 2680.93 531.867L2645.93 495.867C2637.6 503.867 2626.76 510.367 2613.43 515.367C2600.43 520.367 2587.26 522.867 2573.93 522.867C2554.26 522.867 2537.76 516.701 2524.43 504.367C2511.1 491.701 2502.76 475.034 2499.43 454.367H2699.43C2699.43 407.034 2688.1 369.701 2665.43 342.367C2643.1 315.034 2612.1 301.367 2572.43 301.367ZM2896.55 301.367C2875.88 301.367 2857.38 306.367 2841.05 316.367C2824.72 326.034 2812.38 339.367 2804.05 356.367V307.367H2743.05V565.867H2804.05V435.367C2804.05 410.701 2812.55 390.867 2829.55 375.867C2846.55 360.867 2868.88 353.367 2896.55 353.367V301.367ZM3530.51 301.367C3509.85 301.367 3491.35 306.367 3475.01 316.367C3458.68 326.034 3446.35 339.367 3438.01 356.367V307.367H3377.01V565.867H3438.01V435.367C3438.01 410.701 3446.51 390.867 3463.51 375.867C3480.51 360.867 3502.85 353.367 3530.51 353.367V301.367ZM3873.25 302.467V333.018H3880.85V323.75H3885.52L3892.01 333.018H3899.62L3892.52 322.834C3894.54 322.087 3896.13 320.865 3897.28 319.168C3898.5 317.403 3899.11 315.367 3899.11 313.059C3899.11 309.868 3898.03 307.322 3895.86 305.422C3893.77 303.453 3891 302.467 3887.55 302.467H3873.25ZM1547.4 307.367V471.867C1547.4 491.201 1551.4 508.534 1559.4 523.867C1567.73 538.867 1579.06 550.701 1593.4 559.367C1608.06 567.701 1624.73 571.867 1643.4 571.867C1660.4 571.867 1675.9 568.367 1689.9 561.367C1704.23 554.034 1715.4 544.201 1723.4 531.867V565.867H1784.9V307.367H1723.4V463.867C1723.4 479.534 1717.4 492.867 1705.4 503.867C1693.4 514.534 1678.56 519.867 1660.9 519.867C1644.9 519.867 1631.73 514.367 1621.4 503.367C1611.4 492.034 1606.4 477.534 1606.4 459.867V307.367H1547.4ZM3256.84 307.367V565.867H3317.84V307.367H3256.84ZM3880.85 310.004H3886.74C3888.02 310.004 3889.07 310.309 3889.88 310.92C3890.69 311.463 3891.1 312.176 3891.1 313.059C3891.1 314.009 3890.69 314.789 3889.88 315.4C3889.07 315.943 3888.02 316.215 3886.74 316.215H3880.85V310.004ZM2573.43 350.367C2592.1 350.367 2607.1 356.201 2618.43 367.867C2630.1 379.534 2637.43 394.867 2640.43 413.867H2499.93C2503.93 394.534 2512.6 379.201 2525.93 367.867C2539.26 356.201 2555.1 350.367 2573.43 350.367ZM2258.5 353.367C2279.83 353.367 2297.33 361.201 2311 376.867C2324.67 392.201 2331.5 412.034 2331.5 436.367C2331.5 452.367 2328.33 466.701 2322 479.367C2316 492.034 2307.33 502.034 2296 509.367C2285 516.367 2272.5 519.867 2258.5 519.867C2236.5 519.867 2218.5 512.034 2204.5 496.367C2190.5 480.701 2183.5 460.701 2183.5 436.367C2183.5 412.034 2190.5 392.201 2204.5 376.867C2218.5 361.201 2236.5 353.367 2258.5 353.367ZM3075.4 353.367C3097.4 353.367 3115.4 361.201 3129.4 376.867C3143.4 392.201 3150.4 412.034 3150.4 436.367C3150.4 460.701 3143.4 480.701 3129.4 496.367C3115.4 512.034 3097.4 519.867 3075.4 519.867C3061.4 519.867 3048.73 516.367 3037.4 509.367C3026.4 502.034 3017.73 492.034 3011.4 479.367C3005.4 466.701 3002.4 452.367 3002.4 436.367C3002.4 412.034 3009.23 392.201 3022.9 376.867C3036.56 361.201 3054.06 353.367 3075.4 353.367ZM3685.12 353.367C3706.45 353.367 3723.95 361.201 3737.62 376.867C3751.29 392.201 3758.12 412.034 3758.12 436.367C3758.12 452.367 3754.95 466.701 3748.62 479.367C3742.62 492.034 3733.95 502.034 3722.62 509.367C3711.62 516.367 3699.12 519.867 3685.12 519.867C3663.12 519.867 3645.12 512.034 3631.12 496.367C3617.12 480.701 3610.12 460.701 3610.12 436.367C3610.12 412.034 3617.12 392.201 3631.12 376.867C3645.12 361.201 3663.12 353.367 3685.12 353.367Z" fill="currentColor"/>
  <defs>
    <filter id="filter0_f_106_1002" x="201.475" y="276.158" width="341.88" height="198.416" filterUnits="userSpaceOnUse" color-interpolation-filters="sRGB">
      <feFlood flood-opacity="0" result="BackgroundImageFix"/>
      <feBlend mode="normal" in="SourceGraphic" in2="BackgroundImageFix" result="shape"/>
      <feGaussianBlur stdDeviation="16" result="effect1_foregroundBlur_106_1002"/>
    </filter>
    <linearGradient id="paint0_linear_106_1002" x1="146.185" y1="155.649" x2="639.585" y2="615.869" gradientUnits="userSpaceOnUse">
      <stop stop-color="#1B91F3"/>
      <stop offset="1" stop-color="#0B68CB"/>
    </linearGradient>
    <radialGradient id="paint1_radial_106_1002" cx="0" cy="0" r="1" gradientUnits="userSpaceOnUse" gradientTransform="translate(145.274 314) rotate(66.5177) scale(295.96 283.519)">
      <stop offset="0.53" stop-color="#0B4186" stop-opacity="0"/>
      <stop offset="1" stop-color="#0B4186" stop-opacity="0.45"/>
    </radialGradient>
    <radialGradient id="paint2_radial_106_1002" cx="0" cy="0" r="1" gradientUnits="userSpaceOnUse" gradientTransform="translate(383.705 192.449) rotate(-127.997) scale(63.2702 104.698)">
      <stop stop-color="#EF3ACC" stop-opacity="0"/>
      <stop offset="1" stop-color="#EF3ACC" stop-opacity="0.64"/>
    </radialGradient>
    <linearGradient id="paint3_linear_106_1002" x1="283.475" y1="273.458" x2="461.015" y2="75.8183" gradientUnits="userSpaceOnUse">
      <stop stop-color="#0F5DB0"/>
      <stop offset="1" stop-color="#0F5DB0" stop-opacity="0"/>
    </linearGradient>
    <radialGradient id="paint4_radial_106_1002" cx="0" cy="0" r="1" gradientUnits="userSpaceOnUse" gradientTransform="translate(242.704 551.15) rotate(-64.2624) scale(461.716 570.355)">
      <stop offset="0.02" stop-color="#094188"/>
      <stop offset="0.97" stop-color="#0B4186" stop-opacity="0"/>
    </radialGradient>
    <linearGradient id="paint5_linear_106_1002" x1="594.625" y1="416.559" x2="512.075" y2="619.249" gradientUnits="userSpaceOnUse">
      <stop stop-color="#E247C4" stop-opacity="0"/>
      <stop offset="1" stop-color="#E247C4" stop-opacity="0.64"/>
    </linearGradient>
    <linearGradient id="paint6_linear_106_1002" x1="82.7155" y1="234.79" x2="155.445" y2="527.51" gradientUnits="userSpaceOnUse">
      <stop offset="0.1" stop-color="#EF3ACC"/>
      <stop offset="1" stop-color="#EF3ACC" stop-opacity="0"/>
    </linearGradient>
    <linearGradient id="paint7_linear_106_1002" x1="374.705" y1="273.95" x2="374.705" y2="569.949" gradientUnits="userSpaceOnUse">
      <stop stop-color="white"/>
      <stop offset="0.91" stop-color="#BEE1FE"/>
      <stop offset="1" stop-color="#96CEFD"/>
    </linearGradient>
    <linearGradient id="paint8_linear_106_1002" x1="380.245" y1="441.449" x2="380.245" y2="565.449" gradientUnits="userSpaceOnUse">
      <stop stop-color="#BCE0FD"/>
      <stop offset="1" stop-color="#88CCFC"/>
    </linearGradient>
  </defs>
</svg>
