<svg width="1280" height="1301" viewBox="0 0 1280 1301" fill="none" xmlns="http://www.w3.org/2000/svg">
<g opacity="0.77">
<circle cx="639" cy="617" r="580.5" stroke="url(#paint0_linear_5506_332)" stroke-opacity="0.1" stroke-width="45"/>
<circle cx="620" cy="629" r="580.5" stroke="url(#paint1_linear_5506_332)" stroke-opacity="0.1" stroke-width="45"/>
</g>
<g opacity="0.5">
<path d="M655.5 0C1006.48 0 1291 284.523 1291 635.5C1291 986.477 1006.48 1271 655.5 1271C304.523 1271 20 986.477 20 635.5C20 537.216 42.3667 445.038 82.2012 361.965L105.433 372.457C78.9614 437.228 61.9668 522.985 61.9668 597.28C61.9669 903.971 310.589 1152.59 617.28 1152.59C923.971 1152.59 1172.59 903.971 1172.59 597.28C1172.59 290.589 923.971 41.9669 617.28 41.9668C516.55 41.9668 420.7 67.7717 339.249 114.66L329.507 119.905L317.516 97.4238C415.486 35.6876 531.145 2.18992e-06 655.5 0ZM546.815 372.482C553.66 372.482 559.21 378.031 559.21 384.876C559.21 391.721 553.661 397.27 546.815 397.271C539.97 397.271 534.421 391.721 534.421 384.876C534.421 378.031 539.97 372.482 546.815 372.482Z" fill="url(#paint2_linear_5506_332)" fill-opacity="0.1"/>
<path d="M625.5 30C976.477 30 1261 314.523 1261 665.5C1261 1016.48 976.477 1301 625.5 1301C274.523 1301 -10 1016.48 -10 665.5C-10 567.216 12.3667 475.038 52.2012 391.965L75.4326 402.457C48.9614 467.228 31.9668 552.985 31.9668 627.28C31.9669 933.971 280.589 1182.59 587.28 1182.59C893.971 1182.59 1142.59 933.971 1142.59 627.28C1142.59 320.589 893.971 71.9669 587.28 71.9668C486.55 71.9668 390.7 97.7717 309.249 144.66L299.507 149.905L287.516 127.424C385.486 65.6876 501.145 30 625.5 30ZM516.815 402.482C523.66 402.482 529.21 408.031 529.21 414.876C529.21 421.721 523.661 427.27 516.815 427.271C509.97 427.271 504.421 421.721 504.421 414.876C504.421 408.031 509.97 402.482 516.815 402.482Z" fill="url(#paint3_linear_5506_332)" fill-opacity="0.1"/>
<path d="M624.5 26C975.477 26 1260 310.523 1260 661.5C1260 1012.48 975.477 1297 624.5 1297C273.523 1297 -11 1012.48 -11 661.5C-11 563.216 11.3667 471.038 51.2012 387.965L74.4326 398.457C47.9614 463.228 30.9668 548.985 30.9668 623.28C30.9669 929.971 279.589 1178.59 586.28 1178.59C892.971 1178.59 1141.59 929.971 1141.59 623.28C1141.59 316.589 892.971 67.9669 586.28 67.9668C485.55 67.9668 389.7 93.7717 308.249 140.66L298.507 145.905L286.516 123.424C384.486 61.6876 500.145 26 624.5 26ZM515.815 398.482C522.66 398.482 528.21 404.031 528.21 410.876C528.21 417.721 522.661 423.27 515.815 423.271C508.97 423.271 503.421 417.721 503.421 410.876C503.421 404.031 508.97 398.482 515.815 398.482Z" fill="url(#paint4_linear_5506_332)" fill-opacity="0.1"/>
</g>
<defs>
<linearGradient id="paint0_linear_5506_332" x1="1069" y1="196" x2="965" y2="287" gradientUnits="userSpaceOnUse">
<stop stop-color="white"/>
<stop offset="0.959837" stop-color="#18181B"/>
</linearGradient>
<linearGradient id="paint1_linear_5506_332" x1="1050" y1="208" x2="946" y2="299" gradientUnits="userSpaceOnUse">
<stop stop-color="white"/>
<stop offset="0.959837" stop-color="#1A202C"/>
</linearGradient>
<linearGradient id="paint2_linear_5506_332" x1="1079" y1="170" x2="655" y2="546" gradientUnits="userSpaceOnUse">
<stop stop-color="#2EACE6"/>
<stop offset="1" stop-color="#BD1BC9" stop-opacity="0.6"/>
</linearGradient>
<linearGradient id="paint3_linear_5506_332" x1="1049" y1="200" x2="625" y2="576" gradientUnits="userSpaceOnUse">
<stop stop-color="#2EACE6"/>
<stop offset="1" stop-color="#BD1BC9" stop-opacity="0.6"/>
</linearGradient>
<linearGradient id="paint4_linear_5506_332" x1="1048" y1="196" x2="624" y2="572" gradientUnits="userSpaceOnUse">
<stop stop-color="#2EACE6"/>
<stop offset="1" stop-color="#BD1BC9" stop-opacity="0.6"/>
</linearGradient>
</defs>
</svg>
