<svg role="complementary" width="546" height="162" viewBox="0 0 546 162" fill="none" xmlns="http://www.w3.org/2000/svg">
    <path d="M269.631 117.311C266.393 112.822 261.326 110.264 256.065 110.084C252.909 109.975 249.683 110.722 246.741 112.42C246.218 112.722 245.717 113.047 245.238 113.392C238.055 118.573 235.818 128.438 240.347 136.283C245.179 144.651 255.842 147.508 264.21 142.677C269.259 139.762 272.292 134.723 272.853 129.344L272.853 129.342L272.853 129.343C272.922 128.676 272.672 128.354 272.224 128.115C271.776 127.875 271.116 127.834 270.488 128.196C269.91 128.53 269.497 129.192 269.344 129.999C269.337 130.041 269.329 130.082 269.322 130.123C268.594 134.026 266.22 137.608 262.517 139.745C260.711 140.788 258.763 141.383 256.809 141.568L256.789 141.576L256.594 141.591C256.588 141.591 256.582 141.592 256.577 141.592L256.574 141.592L256.571 141.593C256.566 141.593 256.562 141.593 256.557 141.594L256.553 141.594L256.55 141.594L256.549 141.594L256.537 141.595L256.521 141.596C251.298 141.982 246.066 139.419 243.279 134.591C240.491 129.762 240.888 123.95 243.833 119.62L243.845 119.601L243.845 119.601C243.854 119.587 243.865 119.572 243.876 119.556C243.876 119.556 243.876 119.556 243.877 119.555C243.877 119.555 243.877 119.554 243.878 119.554C243.878 119.553 243.879 119.552 243.88 119.551C243.996 119.382 244.116 119.215 244.24 119.052C245.343 117.592 246.753 116.322 248.434 115.352C250.305 114.272 252.329 113.668 254.353 113.507C258.295 113.195 262.242 114.556 265.157 117.316C266.059 118.171 265.831 119.72 264.787 120.323L248.838 129.531C248.058 129.981 247.801 130.94 248.251 131.72C248.701 132.499 249.66 132.756 250.439 132.306L270.016 121.003C270.693 120.613 270.965 119.828 270.74 119.128C270.701 119.026 270.654 118.923 270.596 118.822L270.606 118.839C270.597 118.824 270.59 118.808 270.584 118.792C270.579 118.78 270.574 118.768 270.568 118.757C270.275 118.254 269.964 117.771 269.631 117.311Z"
          fill="#FEFFFF"/>
    <path d="M277.784 127.529C277.784 117.932 285.563 110.153 295.159 110.153C300.659 110.153 305.561 112.708 308.745 116.696C309.015 116.994 309.179 117.389 309.179 117.822C309.179 118.749 308.428 119.5 307.502 119.5C306.967 119.5 306.491 119.25 306.184 118.861C303.613 115.695 299.555 113.508 295.159 113.508C287.416 113.508 281.139 119.785 281.139 127.529C281.139 135.272 287.416 141.549 295.159 141.549C299.529 141.549 303.431 139.55 306.002 136.417L306.184 136.196C306.184 136.196 306.184 136.196 306.184 136.196C306.491 135.807 306.967 135.557 307.502 135.557C308.428 135.557 309.179 136.308 309.179 137.235C309.179 137.627 309.045 137.988 308.82 138.273C305.642 142.38 300.754 144.904 295.159 144.904C285.563 144.904 277.784 137.125 277.784 127.529Z"
          fill="#FEFFFF"/>
    <path d="M322.396 145.011C320.755 145.011 319.286 144.557 317.99 143.65C316.737 142.743 315.744 141.49 315.009 139.892C314.318 138.294 313.973 136.436 313.973 134.319V96.3486C313.973 95.7439 314.146 95.2687 314.491 94.9231C314.88 94.5775 315.355 94.4047 315.917 94.4047C316.521 94.4047 316.997 94.5775 317.342 94.9231C317.688 95.2687 317.861 95.7439 317.861 96.3486V134.319C317.861 136.306 318.271 137.948 319.092 139.244C319.956 140.497 321.057 141.123 322.396 141.123H324.016C324.491 141.123 324.88 141.296 325.183 141.641C325.485 141.987 325.636 142.462 325.636 143.067C325.636 143.628 325.463 144.104 325.118 144.492C324.772 144.838 324.297 145.011 323.692 145.011H322.396Z"
          fill="#FEFFFF"/>
    <path d="M333.965 110.164C335.024 110.164 335.882 111.022 335.882 112.081V142.997H335.875C335.794 143.982 334.97 144.755 333.965 144.755C332.96 144.755 332.135 143.982 332.054 142.997H332.047V112.081C332.047 111.022 332.906 110.164 333.965 110.164Z"
          fill="#FEFFFF"/>
    <path d="M360.341 108.795C356.972 108.795 353.926 109.573 351.205 111.128C348.483 112.683 346.323 114.8 344.725 117.478C343.17 120.156 342.349 123.18 342.263 126.549V157.846C342.263 158.451 342.436 158.926 342.781 159.272C343.17 159.617 343.645 159.79 344.207 159.79C344.811 159.79 345.287 159.617 345.632 159.272C345.978 158.926 346.151 158.451 346.151 157.846V137.63C347.533 139.876 349.455 141.669 351.917 143.008C354.423 144.347 357.231 145.016 360.341 145.016C363.797 145.016 366.885 144.217 369.607 142.619C372.372 141.064 374.531 138.925 376.087 136.204C377.685 133.483 378.484 130.394 378.484 126.938C378.484 123.482 377.685 120.372 376.087 117.607C374.531 114.886 372.372 112.726 369.607 111.128C366.885 109.573 363.797 108.795 360.341 108.795ZM360.341 112.424C363.062 112.424 365.481 113.05 367.598 114.303C369.758 115.599 371.464 117.327 372.717 119.487C373.97 121.69 374.596 124.173 374.596 126.938C374.596 129.703 373.97 132.165 372.717 134.325C371.464 136.485 369.758 138.191 367.598 139.444C365.481 140.74 363.062 141.388 360.341 141.388C357.663 141.388 355.244 140.74 353.084 139.444C350.924 138.191 349.218 136.485 347.965 134.325C346.755 132.165 346.151 129.703 346.151 126.938C346.151 124.173 346.755 121.69 347.965 119.487C349.218 117.327 350.924 115.599 353.084 114.303C355.244 113.05 357.663 112.424 360.341 112.424Z"
          fill="#FEFFFF"/>
    <path d="M416.237 135.158C416.237 140.452 411.891 144.744 406.53 144.744C406.461 144.744 406.391 144.743 406.322 144.742V144.744H385.871V144.742C384.897 144.721 384.114 143.926 384.114 142.947C384.114 141.967 384.897 141.172 385.871 141.151V141.149H407.037V141.137C410.165 140.94 412.642 138.338 412.642 135.158C412.642 131.977 410.165 129.375 407.037 129.178V129.166H392.981V129.164C392.941 129.165 392.901 129.166 392.861 129.166C387.589 129.166 383.315 124.892 383.315 119.62C383.315 114.347 387.589 110.073 392.861 110.073C392.875 110.073 392.888 110.074 392.901 110.074L413.672 110.073V110.075C414.646 110.097 415.43 110.891 415.43 111.871C415.43 112.85 414.646 113.645 413.672 113.666V113.668H392.484V113.68C389.373 113.876 386.91 116.46 386.91 119.62C386.91 122.779 389.373 125.364 392.484 125.56V125.571H406.482C406.498 125.571 406.514 125.571 406.53 125.571C411.891 125.572 416.237 129.863 416.237 135.158Z"
          fill="#FEFFFF"/>
    <path d="M452.653 117.295C449.415 112.806 444.348 110.249 439.087 110.068C435.931 109.959 432.705 110.706 429.763 112.405C429.24 112.707 428.739 113.031 428.26 113.377C421.077 118.557 418.839 128.422 423.369 136.268C428.2 144.636 438.863 147.493 447.231 142.661C452.28 139.746 455.314 134.708 455.875 129.328L455.875 129.327L455.874 129.328C455.944 128.661 455.694 128.339 455.246 128.099C454.797 127.859 454.138 127.818 453.51 128.18C452.931 128.515 452.518 129.177 452.366 129.983C452.358 130.025 452.351 130.067 452.343 130.107C451.616 134.011 449.242 137.592 445.539 139.73C443.733 140.772 441.784 141.367 439.831 141.552L439.811 141.56L439.616 141.575C439.61 141.576 439.604 141.576 439.599 141.577L439.595 141.577L439.592 141.577C439.588 141.577 439.583 141.578 439.579 141.578L439.574 141.578L439.571 141.578L439.57 141.579L439.559 141.58L439.543 141.581C434.32 141.966 429.088 139.403 426.3 134.575C423.513 129.747 423.909 123.934 426.854 119.604L426.867 119.586L426.867 119.585C426.876 119.572 426.886 119.557 426.897 119.541C426.898 119.54 426.898 119.54 426.898 119.54C426.898 119.539 426.899 119.539 426.899 119.538C426.9 119.537 426.901 119.536 426.901 119.535C427.018 119.366 427.138 119.2 427.261 119.037C428.365 117.576 429.775 116.307 431.455 115.336C433.326 114.256 435.35 113.652 437.374 113.492C441.316 113.179 445.264 114.541 448.178 117.301C449.081 118.155 448.852 119.705 447.809 120.307L431.859 129.516C431.08 129.966 430.823 130.925 431.273 131.704C431.723 132.483 432.682 132.74 433.461 132.29L453.038 120.988C453.714 120.597 453.987 119.813 453.762 119.113C453.722 119.01 453.676 118.907 453.618 118.806L453.628 118.823C453.619 118.808 453.612 118.792 453.605 118.776C453.6 118.764 453.595 118.753 453.59 118.741C453.297 118.239 452.985 117.756 452.653 117.295Z"
          fill="#FEFFFF"/>
    <path d="M499.524 114.094C500.105 113.517 500.567 110.393 501.388 110.393C502.209 110.393 502.671 113.517 503.252 114.094C503.833 114.672 506.98 115.129 506.98 115.945C506.98 116.761 503.833 117.218 503.252 117.796C502.671 118.373 502.209 121.497 501.388 121.497C500.567 121.497 500.105 118.373 499.524 117.796C498.943 117.218 495.796 116.761 495.796 115.945C495.796 115.129 498.943 114.672 499.524 114.094Z"
          fill="#C3CADE"/>
    <path d="M481.31 94.2823C481.754 93.842 482.107 91.4596 482.734 91.4596C483.362 91.4596 483.715 93.842 484.159 94.2823C484.603 94.7226 487.008 95.071 487.008 95.6936C487.008 96.3163 484.603 96.6647 484.159 97.105C483.715 97.5452 483.362 99.9276 482.734 99.9276C482.107 99.9276 481.754 97.5452 481.31 97.105C480.866 96.6647 478.46 96.3163 478.46 95.6936C478.46 95.071 480.866 94.7226 481.31 94.2823Z"
          fill="#C3CADE"/>
    <path d="M489.022 102.911C489.586 102.369 490.447 77 491.244 77C492.041 77 492.902 102.369 493.466 102.911C494.029 103.454 520.417 104.297 520.417 105.065C520.417 105.832 494.029 106.675 493.466 107.218C492.902 107.761 492.041 134.217 491.244 134.217C490.447 134.217 489.586 107.761 489.022 107.218C488.459 106.675 463.202 105.832 463.202 105.065C463.202 104.297 488.459 103.454 489.022 102.911Z"
          fill="#FEFFFF"/>
    <ellipse cx="497.713" cy="91.6992" rx="1.91729" ry="1.91729" fill="#898989"/>
    <circle cx="479.259" cy="111.831" r="1.43797" fill="#898989"/>
    <path d="M512.792 89.7912C513.761 89.7919 514.306 93.5054 514.992 94.1923C515.283 94.4836 516.119 94.75 516.986 95.0333C525.066 96.1442 532.153 100.369 536.999 106.457C537.821 107.176 538.665 108.009 539.145 108.138C540.082 108.389 543.572 107.004 544.057 107.844C544.541 108.684 541.597 111.013 541.346 111.95C541.208 112.463 541.56 113.741 541.77 114.872C543.04 118.259 543.737 121.928 543.737 125.758C543.737 126.773 543.687 127.777 543.591 128.767C543.655 129.127 543.71 129.488 543.809 129.62C544.027 129.912 545.377 130.312 545.325 130.673C545.273 131.033 543.865 131.036 543.573 131.254C543.433 131.359 543.267 131.728 543.092 132.076C540.94 142.477 533.579 150.969 523.859 154.711C523.546 155.045 522.782 155.454 522.652 155.698C522.482 156.02 522.696 157.411 522.348 157.518C522 157.624 521.396 156.353 521.075 156.183C520.823 156.05 519.915 156.15 519.482 156.034C519.114 156.116 518.743 156.191 518.37 156.26C517.217 156.752 515.444 157.145 514.992 157.599C514.306 158.285 513.761 161.999 512.792 162C511.822 162 511.276 158.285 510.591 157.599C510.151 157.159 508.466 156.776 507.313 156.303C499.939 155.005 493.462 151.102 488.868 145.578C487.961 144.818 486.972 143.796 486.436 143.653C485.499 143.403 482.01 144.788 481.525 143.948C481.04 143.108 483.984 140.778 484.236 139.841C484.367 139.353 484.055 138.174 483.843 137.087C482.465 133.578 481.709 129.757 481.709 125.758C481.709 125.008 481.735 124.263 481.788 123.526C481.685 123.079 481.631 122.487 481.499 122.309C481.281 122.017 479.931 121.617 479.983 121.256C480.035 120.896 481.443 120.893 481.734 120.675C481.898 120.552 482.097 120.074 482.303 119.687C482.612 118.131 483.037 116.616 483.57 115.153C484.302 113.413 486.631 113.767 486.462 115.451C485.166 118.681 484.452 122.206 484.452 125.897C484.452 141.432 497.075 154.024 512.647 154.024C528.218 154.024 540.841 141.431 540.841 125.897C540.841 110.364 528.218 97.7711 512.647 97.771C508.728 97.771 504.995 98.5688 501.603 100.01C499.8 100.395 498.721 98.0531 500.77 97.1326C501.29 96.915 501.818 96.7105 502.352 96.5209C502.497 96.4117 502.611 96.312 502.655 96.2304C502.825 95.9086 502.611 94.5179 502.958 94.4105C503.306 94.3036 503.91 95.5758 504.232 95.746C504.309 95.7869 504.449 95.8049 504.617 95.8146C505.942 95.4569 507.3 95.1831 508.689 95.0028C509.522 94.7306 510.31 94.4733 510.591 94.1923C511.276 93.5055 511.822 89.7913 512.792 89.7912Z"
          fill="#F9F0C6"/>
    <path d="M501.365 147.147C500.54 146.727 501.314 145.619 502.195 145.903C504.548 146.662 507.057 147.072 509.663 147.072C523.081 147.072 533.959 136.194 533.959 122.775C533.959 120.169 533.549 117.66 532.79 115.307C532.505 114.426 533.614 113.652 534.033 114.477C535.712 117.779 536.659 121.517 536.659 125.475C536.659 138.894 525.781 149.772 512.362 149.772C508.404 149.772 504.667 148.826 501.365 147.147Z"
          fill="#C3CADE"/>
    <g filter="url(#filter0_di_5506_607)">
        <path d="M21.56 76V30.16H3.96V21.04H49.08V30.16H31.56V76H21.56ZM79.6138 33.68C88.6538 33.68 94.9738 40.24 94.9738 49.68V76H85.4538V51.6C85.4538 45.92 81.9338 42 76.8138 42C71.2138 42 66.7338 45.92 66.7338 50.96V76H56.9738V20.08H66.7338V40.24C69.2138 36.32 74.0938 33.68 79.6138 33.68ZM130.813 34.64H140.653V76H130.813V70.56C128.333 74.4 123.533 76.96 118.013 76.96C108.973 76.96 102.653 70.4 102.653 60.96V34.64H112.093V59.04C112.093 64.72 115.693 68.64 120.813 68.64C126.413 68.64 130.813 64.72 130.813 59.68V34.64ZM172.261 33.68C181.381 33.68 187.701 40.24 187.701 49.68V76H178.181V51.6C178.181 45.92 174.581 42 169.461 42C163.861 42 159.461 45.92 159.461 50.96V76H149.701V34.64H159.461V40.08C161.941 36.24 166.741 33.68 172.261 33.68ZM227.309 20.08H237.069V76H227.309V69.52C224.109 74.16 219.069 76.96 212.989 76.96C202.029 76.96 193.949 68 193.949 55.28C193.949 42.64 202.029 33.68 212.989 33.68C219.069 33.68 224.109 36.48 227.309 41.12V20.08ZM215.629 68.64C222.429 68.64 227.309 63.04 227.309 55.28C227.309 47.52 222.429 42 215.629 42C208.589 42 203.629 47.52 203.629 55.28C203.629 63.04 208.589 68.64 215.629 68.64ZM265.698 69.12C269.938 69.12 274.578 67.36 277.218 64.8L282.818 70.56C279.218 74.4 272.018 76.96 266.018 76.96C254.098 76.96 244.338 67.92 244.338 55.2C244.338 42.72 253.618 33.68 265.457 33.68C278.258 33.68 285.778 43.12 285.778 58.16H253.778C254.818 64.64 259.298 69.12 265.698 69.12ZM265.618 41.52C259.698 41.52 255.138 45.52 253.858 51.68H276.338C275.458 45.84 271.778 41.52 265.618 41.52ZM302.117 42.48C304.757 37.12 310.197 33.68 316.917 33.68V42C308.037 42 302.117 47.28 302.117 55.12V76H292.357V34.64H302.117V42.48ZM347.773 33.68C358.733 33.68 366.813 42.64 366.813 55.28C366.813 68 358.733 76.96 347.773 76.96C341.693 76.96 336.653 74.16 333.453 69.52V76H323.693V20.08H333.453V41.12C336.653 36.48 341.693 33.68 347.773 33.68ZM345.133 68.64C352.173 68.64 357.133 63.04 357.133 55.28C357.133 47.52 352.173 42 345.133 42C338.333 42 333.453 47.52 333.453 55.28C333.453 63.04 338.333 68.64 345.133 68.64ZM378.643 28.4C375.523 28.4 373.043 25.76 373.043 22.8C373.043 19.84 375.523 17.28 378.643 17.28C381.683 17.28 384.083 19.84 384.083 22.8C384.083 25.76 381.683 28.4 378.643 28.4ZM373.763 76V34.64H383.523V76H373.763ZM402.351 42.48C404.991 37.12 410.431 33.68 417.151 33.68V42C408.271 42 402.351 47.28 402.351 55.12V76H392.591V34.64H402.351V42.48ZM453.168 20.08H462.928V76H453.168V69.52C449.968 74.16 444.928 76.96 438.848 76.96C427.888 76.96 419.808 68 419.808 55.28C419.808 42.64 427.888 33.68 438.848 33.68C444.928 33.68 449.968 36.48 453.168 41.12V20.08ZM441.488 68.64C448.288 68.64 453.168 63.04 453.168 55.28C453.168 47.52 448.288 42 441.488 42C434.448 42 429.488 47.52 429.488 55.28C429.488 63.04 434.448 68.64 441.488 68.64Z"
              fill="url(#paint0_linear_5506_607)"/>
    </g>
    <path d="M476.839 55V31.912L472.159 34.954L470.833 32.692L477.424 28.207H479.881V55H476.839ZM498.578 55V48.487H485.201L484.811 45.952L498.11 28.207H501.62V45.718H505.637V48.487H501.62V55H498.578ZM488.282 45.718H498.578V31.873L488.282 45.718ZM520.881 55.468C514.329 55.468 509.727 49.735 509.727 41.584C509.727 33.472 514.329 27.739 520.881 27.739C527.394 27.739 531.996 33.472 531.996 41.584C531.996 49.735 527.394 55.468 520.881 55.468ZM520.881 52.66C525.6 52.66 528.915 48.058 528.915 41.584C528.915 35.11 525.6 30.547 520.881 30.547C516.162 30.547 512.808 35.11 512.808 41.584C512.808 48.058 516.162 52.66 520.881 52.66Z"
          fill="url(#paint1_linear_5506_607)"/>
    <defs>
        <filter id="filter0_di_5506_607" x="0.960007" y="16.28" width="464.968" height="65.68"
                filterUnits="userSpaceOnUse" color-interpolation-filters="sRGB">
            <feFlood flood-opacity="0" result="BackgroundImageFix"/>
            <feColorMatrix in="SourceAlpha" type="matrix" values="0 0 0 0 0 0 0 0 0 0 0 0 0 0 0 0 0 0 127 0"
                           result="hardAlpha"/>
            <feOffset dy="2"/>
            <feGaussianBlur stdDeviation="1.5"/>
            <feComposite in2="hardAlpha" operator="out"/>
            <feColorMatrix type="matrix" values="0 0 0 0 0 0 0 0 0 0 0 0 0 0 0 0 0 0 0.3 0"/>
            <feBlend mode="normal" in2="BackgroundImageFix" result="shape"/>
            <feBlend mode="normal" in="SourceGraphic" in2="effect1_dropShadow_5506_607" result="shape"/>
            <feColorMatrix in="SourceAlpha" type="matrix" values="0 0 0 0 0 0 0 0 0 0 0 0 0 0 0 0 0 0 127 0"
                           result="hardAlpha"/>
            <feOffset dy="1"/>
            <feComposite in2="hardAlpha" operator="arithmetic" k2="-1" k3="1"/>
            <feColorMatrix type="matrix" values="0 0 0 0 1 0 0 0 0 1 0 0 0 0 1 0 0 0 0.5 0"/>
            <feBlend mode="normal" in2="shape" result="effect2_innerShadow_5506_607"/>
        </filter>
        <linearGradient id="paint0_linear_5506_607" x1="234.5" y1="0" x2="234.5" y2="104"
                        gradientUnits="userSpaceOnUse">
            <stop stop-color="#13E9C8"/>
            <stop offset="1" stop-color="#5A80FF"/>
        </linearGradient>
        <linearGradient id="paint1_linear_5506_607" x1="502" y1="63" x2="502" y2="24" gradientUnits="userSpaceOnUse">
            <stop stop-color="#ACE4FF"/>
            <stop offset="1" stop-color="white"/>
        </linearGradient>
    </defs>
</svg>
