<svg width="127" height="107" viewBox="0 0 127 107" fill="none" xmlns="http://www.w3.org/2000/svg">
<path opacity="0.4" d="M16.2463 16.303C16.601 15.9614 17.1427 -0.000747681 17.6443 -0.000747681C18.1459 -0.000747681 18.6875 15.9614 19.0422 16.303C19.3969 16.6447 36 17.1747 36 17.6578C36 18.1409 19.3969 18.6709 19.0422 19.0125C18.6875 19.3541 18.1459 36.0007 17.6443 36.0007C17.1427 36.0007 16.601 19.3541 16.2463 19.0125C15.8916 18.6709 0 18.1409 0 17.6578C0 17.1747 15.8916 16.6447 16.2463 16.303Z" fill="#58C9FF"/>
<path opacity="0.4" d="M87.4926 47.6061C88.202 46.9229 89.2854 14.9985 90.2885 14.9985C91.2917 14.9985 92.3751 46.9229 93.0844 47.6061C93.7938 48.2894 127 49.3493 127 50.3156C127 51.2818 93.7938 52.3418 93.0844 53.025C92.3751 53.7082 91.2917 87.0015 90.2885 87.0015C89.2854 87.0015 88.202 53.7082 87.4926 53.025C86.7833 52.3418 55 51.2818 55 50.3156C55 49.3493 86.7833 48.2894 87.4926 47.6061Z" fill="#58C9FF"/>
<path opacity="0.4" d="M56.8309 93.8663C57.0673 93.6385 57.4285 82.9975 57.7628 82.9975C58.0972 82.9975 58.4584 93.6385 58.6948 93.8663C58.9313 94.094 70 94.4473 70 94.7694C70 95.0915 58.9313 95.4448 58.6948 95.6725C58.4584 95.9002 58.0972 106.998 57.7628 106.998C57.4285 106.998 57.0673 95.9002 56.8309 95.6725C56.5944 95.4448 46 95.0915 46 94.7694C46 94.4473 56.5944 94.094 56.8309 93.8663Z" fill="#58C9FF"/>
</svg>
