<!-- This Source Code Form is subject to the terms of the Mozilla Public
   - License, v. 2.0. If a copy of the MPL was not distributed with this
   - file, You can obtain one at http://mozilla.org/MPL/2.0/. -->
<svg width="20" height="20" viewBox="0 0 20 20" fill="currentColor" xmlns="http://www.w3.org/2000/svg">
<path d="M5.51951 3.00043C5.41351 2.99602 5.30885 3.02542 5.22068 3.08442C3.81565 4.02601 3.14562 5.14342 2.91794 6.27387C2.69027 7.40432 2.86758 8.51647 3.00388 9.56489C3.01231 9.63005 3.0335 9.69292 3.06625 9.74988C3.09899 9.80685 3.14263 9.85683 3.19469 9.89692C3.24675 9.937 3.3062 9.96643 3.36964 9.98353C3.43309 10.0006 3.49928 10.005 3.56443 9.99653C3.62959 9.9881 3.69245 9.96695 3.74942 9.93421C3.80638 9.90147 3.85634 9.85779 3.89643 9.80573C3.93651 9.75367 3.96595 9.69425 3.98304 9.6308C4.00014 9.56736 4.00457 9.50113 3.99607 9.43598C3.85799 8.3739 3.71719 7.37097 3.89841 6.47114C4.07964 5.57132 4.54552 4.74324 5.77927 3.91645C5.88929 3.84258 5.96548 3.7281 5.99112 3.59809C6.01675 3.46808 5.98973 3.33319 5.91599 3.22309C5.87221 3.15728 5.81345 3.1028 5.74453 3.06409C5.67561 3.02539 5.59849 3.00356 5.51951 3.00043ZM9.99998 3.00043C7.23863 3.00043 4.99998 5.23908 4.99998 8.00043V9.00043C4.99998 9.18802 5.00619 9.38291 5.00584 9.3891L5.00389 9.40278L4.99998 11.3657C4.42946 11.7185 3.99998 12.2842 3.99998 13.0004V14.0004C3.99998 14.5458 4.45463 15.0004 4.99998 15.0004H5.99998H7.99998C7.99998 16.0998 8.90063 17.0004 9.99998 17.0004C11.0993 17.0004 12 16.0998 12 15.0004H14H15C15.5453 15.0004 16 14.5458 16 14.0004V13.0004C16 12.2842 15.5705 11.7185 15 11.3657L14.9961 9.40278L14.9941 9.38904C14.9938 9.38304 15 9.18816 15 9.00043V8.00043C15 5.23908 12.7613 3.00043 9.99998 3.00043ZM14.5254 3.00245C14.4821 3.00019 14.4388 3.00356 14.3965 3.01246C14.332 3.02599 14.2709 3.0521 14.2166 3.0893C14.1623 3.1265 14.1159 3.17407 14.0801 3.22925C14.0444 3.2844 14.02 3.346 14.0081 3.41059C13.9963 3.47518 13.9973 3.54145 14.0111 3.60566C14.0248 3.66986 14.0511 3.73076 14.0885 3.7848C14.1258 3.83884 14.1733 3.88501 14.2285 3.92066C15.2065 4.55522 15.7652 5.31052 16.041 6.20972C16.3168 7.10892 16.2991 8.17233 16.0137 9.3855C15.9831 9.51448 16.0051 9.65027 16.0747 9.76307C16.1443 9.87587 16.2558 9.95645 16.3847 9.98707C16.5137 10.0176 16.6495 9.99562 16.7623 9.92603C16.8751 9.85644 16.9557 9.74493 16.9863 9.61597C17.2993 8.2858 17.3418 7.03776 16.998 5.91675C16.6542 4.79572 15.9138 3.822 14.7715 3.08082C14.6977 3.03369 14.6128 3.00673 14.5254 3.00269L14.5254 3.00245ZM9.99998 4.00043C12.2246 4.00043 14 5.77579 14 8.00043V9.00043C14 9.14191 13.9899 9.27379 13.9961 9.42035V9.44764L14 11.9399L14.334 12.059C14.722 12.1956 15 12.5573 15 13.0004V14.0004H14H11.5H8.49998H5.99998H4.99998V13.0004C4.99998 12.5573 5.27794 12.1956 5.66599 12.059L5.99998 11.9399L6.00389 9.4477V9.44373C6.01242 9.28759 5.99998 9.14994 5.99998 9.00043V8.00043C5.99998 5.77579 7.77534 4.00043 9.99998 4.00043ZM8.99998 15.0004H11C11 15.5631 10.5626 16.0004 9.99998 16.0004C9.43733 16.0004 8.99998 15.5631 8.99998 15.0004Z"/>
</svg>
