<!-- This Source Code Form is subject to the terms of the Mozilla Public
   - License, v. 2.0. If a copy of the MPL was not distributed with this
   - file, You can obtain one at http://mozilla.org/MPL/2.0/. -->
<svg width="20" height="20" viewBox="0 0 20 20" fill="currentColor" xmlns="http://www.w3.org/2000/svg">
<path d="M5.5 1C4.12365 1 3 2.12365 3 3.5V16.5C3 17.8763 4.12365 19 5.5 19H14.5C15.8763 19 17 17.8763 17 16.5V3.5C17 2.12365 15.8763 1 14.5 1H5.5ZM5.5 2H14.5C15.3396 2 16 2.66035 16 3.5V16.5C16 17.3396 15.3396 18 14.5 18H5.5C4.66035 18 4 17.3396 4 16.5V3.5C4 2.66035 4.66035 2 5.5 2ZM6.5 5C6.223 5 6 5.223 6 5.5C6 5.777 6.223 6 6.5 6H13.5C13.777 6 14 5.777 14 5.5C14 5.223 13.777 5 13.5 5H6.5ZM6.5 8C6.223 8 6 8.223 6 8.5C6 8.777 6.223 9 6.5 9H13.5C13.777 9 14 8.777 14 8.5C14 8.223 13.777 8 13.5 8H6.5ZM6.5 11C6.223 11 6 11.223 6 11.5C6 11.777 6.223 12 6.5 12H10.5C10.777 12 11 11.777 11 11.5C11 11.223 10.777 11 10.5 11H6.5ZM9.5 14C9.223 14 9 14.223 9 14.5C9 14.777 9.223 15 9.5 15H13.5C13.777 15 14 14.777 14 14.5C14 14.223 13.777 14 13.5 14H9.5Z"/>
</svg>
