<!-- This Source Code Form is subject to the terms of the Mozilla Public
   - License, v. 2.0. If a copy of the MPL was not distributed with this
   - file, You can obtain one at http://mozilla.org/MPL/2.0/. -->
<svg width="20" height="20" viewBox="0 0 20 20" fill="currentColor" xmlns="http://www.w3.org/2000/svg">
<path d="M4 1C3.45465 1 3 1.45465 3 2V18C3 18.5453 3.45465 19 4 19H10C10.5454 19 11 18.5453 11 18V2C11 1.45465 10.5454 1 10 1H4ZM14.5 1C13.6777 1 13 1.67765 13 2.5V4.43164V4.56836V14.4316V14.5684V15.5C13.0001 15.5773 13.0182 15.6535 13.0527 15.7227L14.5527 18.7227C14.5943 18.8057 14.6581 18.8756 14.7371 18.9244C14.8161 18.9732 14.9071 18.9991 15 18.9991C15.0929 18.9991 15.1839 18.9732 15.2629 18.9244C15.3419 18.8756 15.4057 18.8057 15.4473 18.7227L16.9473 15.7227C16.9818 15.6535 16.9999 15.5773 17 15.5V14.5684V14.4316V4.56836V4.43164V2.5C17 1.67765 16.3223 1 15.5 1H14.5ZM4 2H5H10V3V18H5H4V17V16H6.5C6.777 16 7 15.8079 7 15.5684V15.4316C7 15.1921 6.777 15 6.5 15H4V13H6.5C6.777 13 7 12.7909 7 12.5312V12.4688C7 12.2091 6.777 12 6.5 12H4V10H6.5C6.777 10 7 9.79754 7 9.54492V9.45508C7 9.20246 6.777 9 6.5 9H4V7H6.5C6.777 7 7 6.80487 7 6.5625V6.4375C7 6.19513 6.777 6 6.5 6H4V4H6.5C6.777 4 7 3.777 7 3.5C7 3.223 6.777 3 6.5 3H4V2ZM14.5 2H15.5C15.7856 2 16 2.21435 16 2.5V4H14V2.5C14 2.21435 14.2144 2 14.5 2ZM14 5H16V14H14V5ZM14 15H16V15.3828L15 17.3828L14 15.3828V15Z"/>
</svg>
