<svg width="258" height="66" viewBox="0 0 258 66" fill="none" xmlns="http://www.w3.org/2000/svg">
<g clip-path="url(#clip0_2312_16590)">
<path d="M33 0H225C243.225 0 258 14.7744 258 33C258 51.2256 243.225 66 225 66H33C14.7746 66 0 51.2256 0 33C0 14.7744 14.7746 0 33 0Z" fill="#204170"/>
<path d="M38.4271 34.6501H38.6131L48.1381 17.3101H56.4451L52.5721 48.1501H45.0091L46.9712 32.0105H46.7821L39.4981 45.0601H33.8491L31.1881 32.3101H31.0501L27.2671 48.1501H19.7041L26.9431 17.3101H35.2531L38.4271 34.6501Z" fill="white"/>
<path d="M57.4741 39.3303C57.4741 31.4399 62.7992 23.7004 71.8081 23.7004C76.4311 23.7004 79.1881 25.8904 79.1881 29.7905C79.1881 37.5601 70.5031 39 65.3221 39.2703C65.2741 41.3701 66.3961 43.0803 69.2431 43.0803C71.4841 43.0803 73.6291 42.1201 75.2641 41.1299L76.8481 46.1404C75.9632 46.8003 72.4111 48.8701 67.0921 48.8701C60.2761 48.8701 57.4741 44.7905 57.4741 39.3303ZM72.3211 30.6599C72.3211 29.8799 71.7031 29.22 70.9111 29.1899C68.0671 29.0105 66.4081 31.8904 65.8321 34.5C68.5411 34.4099 72.3211 33.1501 72.3211 30.6599Z" fill="white"/>
<path d="M80.1632 40.1704C80.1632 30.6599 85.6711 23.7004 95.2441 23.7004C97.2511 23.7004 100.752 24.1802 104.253 25.5601L101.124 43.1404L100.797 48.1501H94.2151V45.9602L93.9841 45.9302C92.4451 47.7305 90.2971 48.9001 87.6361 48.9001C82.0351 48.9001 80.1661 44.8499 80.1661 40.1704H80.1632ZM93.8881 40.6802L95.8951 29.4902C95.3821 29.28 94.6352 29.1299 93.7952 29.1299C89.4991 29.1299 87.9601 35.4902 87.9601 39.3003C87.9601 41.5203 88.6111 43.3206 90.5251 43.3206C92.4391 43.3206 93.6541 42.03 93.8881 40.6802Z" fill="white"/>
<path d="M105.738 40.1704C105.738 30.8401 110.967 23.7004 120.072 23.7004C121.053 23.7004 121.986 23.8499 122.499 23.97L123.948 15.9302H131.649L126.795 43.0803L126.423 48.1501H119.934L119.889 45.9302H119.61C118.395 47.5503 116.064 48.9001 113.4 48.9001C107.424 48.9001 105.744 44.3401 105.744 40.1704H105.738ZM119.559 40.6201L121.518 29.4902C121.005 29.3701 120.537 29.3101 120.12 29.3101C115.869 29.3101 113.631 34.3799 113.631 39.3303C113.631 41.7605 114.285 43.2305 116.151 43.2305C118.113 43.2305 119.325 41.8799 119.559 40.6501V40.6201Z" fill="white"/>
<path d="M131.565 39.9302C131.565 38.8206 131.661 37.5601 131.847 36.2703C133.479 26.1599 140.298 23.7004 145.527 23.7004C149.124 23.7004 154.677 25.1704 154.677 32.4302C154.677 33.3003 154.584 34.7402 154.398 36.03C152.856 45.3604 147.114 48.9001 140.67 48.9001C134.883 48.9001 131.565 45.72 131.565 39.9302ZM146.226 36.5999C146.508 35.0105 146.646 33.5405 146.646 32.5503C146.646 30.4204 145.995 29.28 144.312 29.28C142.116 29.28 140.715 31.5 140.016 35.3401C139.734 36.9602 139.503 38.7305 139.503 39.9302C139.503 41.9399 139.971 43.2305 141.792 43.2305C144.081 43.2305 145.434 41.22 146.229 36.5999H146.226Z" fill="white"/>
<path d="M156.765 42.72C156.765 42.03 156.858 41.25 156.999 40.3499L159.798 24.4504H167.592L164.886 39.8101C164.745 40.4099 164.652 40.9805 164.697 41.4302C164.745 42.3003 165.12 42.8701 166.284 42.8701C167.871 42.8701 168.945 41.6104 169.272 39.9001L172.026 24.4504H179.73L177.021 39.6299C176.928 40.1404 176.835 40.8604 176.835 41.28C176.835 42.2102 177.117 42.8701 178.329 42.8701C181.503 42.8701 183.324 36.9302 183.324 29.4902C183.324 28.0803 183.276 25.6201 183.183 24.4504H190.839C190.932 25.6201 191.073 28.0803 191.073 29.4902C191.073 41.7605 186.684 48.75 177.861 48.75C174.453 48.75 172.536 47.4001 171.744 45.5706C169.5 47.8206 166.887 48.75 163.947 48.75C159.324 48.75 156.804 46.8003 156.756 42.72H156.765Z" fill="white"/>
<path d="M224.994 55.5C237.421 55.5 247.494 45.4264 247.494 33C247.494 20.5736 237.421 10.5 224.994 10.5C212.568 10.5 202.494 20.5736 202.494 33C202.494 45.4264 212.568 55.5 224.994 55.5Z" fill="white"/>
<path d="M224.994 52.98C236.028 52.98 244.974 44.0347 244.974 33C244.974 21.9654 236.028 13.02 224.994 13.02C213.959 13.02 205.014 21.9654 205.014 33C205.014 44.0347 213.959 52.98 224.994 52.98Z" fill="#CCE1F5"/>
<path d="M209.094 35.6854C209.58 36.0261 213.662 40.244 227.846 33.5948C231.57 31.8495 234.446 30.4697 238.161 30.0879L238.022 29.5862C234.34 17.8116 223.705 17.5053 223.344 17.4953C219.008 17.3539 214.816 18.8494 211.539 21.7097C208.249 24.5841 204.643 31.9551 209.094 35.6854Z" fill="white"/>
<path d="M224.994 52.98C236.028 52.98 244.974 44.0347 244.974 33C244.974 32.007 244.901 31.0311 244.761 30.077L244.753 30.0753C244.086 29.9289 243.412 29.8115 242.727 29.7251C236.087 28.899 232.557 30.7135 227.285 33.1316C223.976 34.5985 220.817 36.1488 217.295 36.8338C215.501 37.1554 213.066 37.3696 210.663 36.5072C207.399 35.3332 205.299 31.4818 205.526 28.4833C205.526 28.4832 205.526 28.4832 205.526 28.4832C205.191 29.9347 205.014 31.4466 205.014 33C205.014 44.0347 213.959 52.98 224.994 52.98Z" fill="#91AA56"/>
<path d="M243.795 39.7552C240.939 38.1969 237.511 37.6792 233.842 38.0977C228.408 38.7227 223.327 40.7878 217.963 41.2559C217.492 41.2977 216.975 41.3213 216.501 41.3423C214.676 41.4023 212.819 41.0389 211.19 40.1919C207.784 38.4955 204.688 32.357 205.504 28.5826C205.183 30.0037 205.014 31.482 205.014 33C205.014 44.0347 213.959 52.98 224.994 52.98C233.656 52.98 241.031 47.4673 243.801 39.7589L243.795 39.7552Z" fill="#718F53"/>
<path d="M205.014 33C205.014 44.0347 213.959 52.98 224.994 52.98C230.798 52.98 236.025 50.5045 239.675 46.5518L239.657 46.5393C236.265 44.2908 231.819 44.8581 227.998 45.0882C223.859 45.4098 219.722 45.8097 215.639 45.0882C213.522 44.6884 211.476 43.8073 209.8 42.4345C208.804 41.5821 208.04 40.4945 207.384 39.3286C206.108 36.9784 205.018 33.8385 205.117 30.9547C205.049 31.6272 205.014 32.3095 205.014 33Z" fill="#53753F"/>
</g>
<defs>
<clipPath id="clip0_2312_16590">
<rect width="258" height="66" fill="white"/>
</clipPath>
</defs>
</svg>
