<svg width="568" height="226" viewBox="0 0 568 226" fill="none" xmlns="http://www.w3.org/2000/svg">
<circle opacity="0.12" cx="539.523" cy="182.329" r="27.671" fill="white"/>
<g opacity="0.12">
<path d="M544.366 159.289C544.232 160.047 542.996 160.463 541.605 160.218C540.214 159.972 539.195 159.157 539.329 158.399C539.463 157.64 540.699 157.224 542.09 157.47C543.481 157.715 544.5 158.53 544.366 159.289Z" fill="black"/>
<path d="M533.628 169.323C533.373 170.767 532.038 171.738 530.647 171.492C529.256 171.246 528.335 169.877 528.59 168.433C528.845 166.99 530.18 166.019 531.571 166.264C532.962 166.51 533.883 167.88 533.628 169.323Z" fill="black"/>
<path d="M544.086 201.791C545.033 201.958 545.942 201.293 546.117 200.304C546.291 199.316 545.665 198.379 544.718 198.211C543.771 198.044 542.862 198.71 542.687 199.698C542.513 200.687 543.139 201.624 544.086 201.791Z" fill="black"/>
<path d="M536.452 185.781C536.221 187.085 534.948 187.95 533.608 187.714C532.268 187.477 531.369 186.228 531.599 184.923C531.829 183.619 533.103 182.754 534.443 182.99C535.783 183.227 536.682 184.476 536.452 185.781Z" fill="black"/>
<path d="M549.438 188.264C550.511 188.454 551.501 187.928 551.649 187.09C551.797 186.253 551.047 185.42 549.974 185.23C548.9 185.041 547.91 185.566 547.762 186.404C547.614 187.242 548.364 188.074 549.438 188.264Z" fill="black"/>
<path d="M550.52 177.45C549.855 177.839 548.737 177.167 548.023 175.948C547.309 174.729 547.27 173.425 547.935 173.035C548.6 172.646 549.717 173.319 550.431 174.538C551.145 175.757 551.185 177.06 550.52 177.45Z" fill="black"/>
<path d="M560.198 184.784C560.911 186.003 562.029 186.675 562.694 186.286C563.359 185.897 563.319 184.593 562.605 183.374C561.892 182.155 560.774 181.482 560.109 181.871C559.444 182.261 559.484 183.565 560.198 184.784Z" fill="black"/>
<path d="M519.897 172.631C520.649 172.797 521.012 174.05 520.708 175.429C520.404 176.809 519.547 177.792 518.794 177.626C518.042 177.46 517.679 176.208 517.983 174.828C518.287 173.449 519.144 172.465 519.897 172.631Z" fill="black"/>
<path d="M530.875 200.725C529.701 199.94 528.401 199.823 527.973 200.464C527.545 201.105 528.15 202.26 529.325 203.045C530.5 203.83 531.799 203.946 532.227 203.306C532.655 202.665 532.05 201.509 530.875 200.725Z" fill="black"/>
</g>
<g style="mix-blend-mode:luminosity" opacity="0.3">
<mask id="mask0_2135_168" style="mask-type:alpha" maskUnits="userSpaceOnUse" x="361" y="3" width="98" height="98">
<circle cx="409.892" cy="52.0238" r="48.6556" transform="rotate(3.44303 409.892 52.0238)" fill="white"/>
</mask>
<g mask="url(#mask0_2135_168)">
<path d="M337.944 9.3419L345.255 9.05244C352.565 8.76297 367.185 8.18404 381.747 8.57398C396.31 8.96392 410.813 10.3227 425.303 11.9238C439.792 13.5248 454.267 15.368 468.727 17.4535C483.187 19.539 497.633 21.8666 512.239 21.5299C526.845 21.1932 541.611 18.1921 548.994 16.6916L556.377 15.191L556.916 6.22896L549.65 5.79177C542.383 5.35458 527.85 4.48021 513.317 3.60584C498.784 2.73146 484.251 1.85709 469.718 0.982712C455.185 0.108337 440.652 -0.766037 426.119 -1.64041C411.586 -2.51479 397.053 -3.38916 382.52 -4.26353C367.987 -5.13791 353.454 -6.01228 346.187 -6.44947L338.921 -6.88666L337.944 9.3419Z" fill="#61B3FF"/>
<path d="M336.633 31.1415L343.783 33.5164C350.933 35.8913 365.232 40.6412 379.561 44.9066C393.891 49.172 408.249 52.953 422.825 53.1007C437.402 53.2484 452.198 49.7629 466.891 47.9729C481.584 46.1828 496.176 46.0884 510.709 46.9627C525.242 47.8371 539.716 49.6803 546.954 50.602L554.191 51.5236L556.406 14.7066L549.023 16.2071C541.64 17.7077 526.874 20.7088 512.268 21.0455C497.662 21.3822 483.216 19.0545 468.756 16.969C454.296 14.8836 439.821 13.0403 425.332 11.4393C410.843 9.83829 396.339 8.47948 381.777 8.08954C367.214 7.6996 352.594 8.27853 345.284 8.568L337.973 8.85746L336.633 31.1415Z" fill="#4950FF"/>
<path d="M334.971 58.7543L342.267 58.707C349.563 58.6598 364.154 58.5653 378.396 64.284C392.637 70.0027 406.529 81.5346 420.975 83.8623C435.42 86.19 450.42 79.3134 465.302 74.3746C480.185 69.4357 494.951 66.4346 509.426 68.2779C523.901 70.1211 538.084 76.8087 545.176 80.1525L552.267 83.4963L554.22 51.0392L546.983 50.1176C539.745 49.1959 525.271 47.3527 510.738 46.4783C496.205 45.6039 481.613 45.6984 466.92 47.4885C452.227 49.2785 437.431 52.764 422.855 52.6163C408.278 52.4686 393.92 48.6876 379.591 44.4222C365.262 40.1567 350.962 35.4069 343.812 33.032L336.662 30.657L334.971 58.7543Z" fill="#2D8EFF"/>
<path d="M333.747 79.1005L341.101 78.0844C348.455 77.0683 363.163 75.036 377.521 78.817C391.879 82.598 405.888 92.1922 420.363 94.0354C434.837 95.8787 449.778 89.971 464.676 84.7899C479.573 79.6088 494.427 75.1544 508.843 77.9666C523.26 80.7787 537.239 90.8573 544.229 95.8966L551.218 100.936L552.297 83.0118L545.205 79.6681C538.113 76.3243 523.93 69.6367 509.455 67.7934C494.981 65.9502 480.214 68.9513 465.332 73.8901C450.449 78.829 435.449 85.7055 421.004 83.3779C406.558 81.0502 392.666 69.5183 378.425 63.7995C364.183 58.0808 349.592 58.1753 342.296 58.2226L335.001 58.2698L333.747 79.1005Z" fill="#35CFFF"/>
<path d="M332.96 92.1802L340.373 90.1952C347.785 88.2103 362.609 84.2403 377.04 86.8102C391.471 89.3801 405.509 98.4898 419.984 100.333C434.458 102.176 449.37 96.7531 464.253 91.8142C479.136 86.8754 493.99 82.421 508.391 85.4753C522.793 88.5296 536.743 99.0927 543.719 104.374L550.694 109.656L551.247 100.452L544.258 95.4122C537.268 90.3729 523.289 80.2942 508.872 77.4821C494.456 74.67 479.602 79.1244 464.705 84.3055C449.808 89.4865 434.866 95.3942 420.392 93.551C405.917 91.7078 391.909 82.1136 377.55 78.3326C363.192 74.5516 348.484 76.5838 341.13 77.5999L333.776 78.6161L332.96 92.1802Z" fill="#5214A4"/>
<path d="M330.774 128.513L338.026 129.192C345.278 129.872 359.782 131.23 374.373 131.136C388.965 131.041 403.644 129.494 418.177 130.368C432.71 131.242 447.097 134.539 461.615 135.656C476.134 136.772 490.784 135.709 505.419 134.888C520.054 134.066 534.674 133.488 541.984 133.198L549.295 132.909L550.723 109.171L543.748 103.89C536.773 98.6083 522.822 88.0452 508.421 84.9909C494.019 81.9365 479.165 86.3909 464.282 91.3298C449.399 96.2686 434.488 101.692 420.013 99.8486C405.538 98.0054 391.501 88.8956 377.069 86.3257C362.638 83.7558 347.814 87.7258 340.402 89.7108L332.989 91.6958L330.774 128.513Z" fill="#565D87"/>
</g>
</g>
<g opacity="0.3">
<path d="M121.036 69.7311H121.049C125.995 52.4401 147.548 44 169.511 44C184.688 44 198.312 48.8047 207.652 56.4324C202.078 56.6953 196.575 57.789 191.324 59.6775C198.871 62.4826 205.354 66.7981 210.159 72.1368C206.534 71.5129 202.858 71.2348 199.18 71.3065C208.219 84.3994 213.048 99.9382 213.022 115.848C213.022 159.227 177.857 194.392 134.478 194.392C91.7678 194.392 55.9337 158.632 55.9337 115.848C55.9337 109.091 56.8314 102.114 58.575 95.57C59.0328 94.1966 59.6702 92.8793 60.5162 92.3968C61.5754 91.7931 62.5404 93.5929 62.6953 94.1786C63.8437 98.4806 65.3891 102.667 67.3114 106.683C67.1431 97.7153 70.9738 89.5467 76.243 82.4822C79.7573 77.7718 83.0158 73.407 84.5193 60.8107C84.6203 59.9647 85.4215 59.3565 86.2316 59.6213C97.6676 63.3645 103.781 82.4082 102.831 98.3325C109.149 99.2369 109.119 92.6369 109.119 92.6369C107.1 86.4296 108.446 74.8926 121.013 69.7311H121.036Z" fill="url(#paint0_linear_2135_168)"/>
<path opacity="0.9" d="M210.453 95.8454C212.363 139.045 176.85 176.291 133.545 176.291C93.0051 176.291 59.7854 144.956 56.7805 105.185C56.2444 108.91 55.9625 112.666 55.9367 116.429C56.2442 158.982 91.9907 194.392 134.481 194.392C177.86 194.392 213.025 159.226 213.025 115.847C213.025 108.935 212.13 102.232 210.453 95.8454Z" fill="url(#paint1_radial_2135_168)"/>
<path style="mix-blend-mode:screen" d="M132.565 75.4559C131.719 73.9591 127.812 71.7441 126.104 71.3581C132.567 50.6561 165.493 44.3007 185.645 47.9631C194.031 49.4891 204.475 54.0582 207.653 56.4324C198.313 48.8047 184.687 44 169.512 44C147.549 44 125.996 52.4401 121.05 69.7311H121.014C108.447 74.8926 107.101 86.4341 109.12 92.6391C111.059 85.2358 120.285 76.1381 132.565 75.4559Z" fill="url(#paint2_radial_2135_168)"/>
<path d="M155.388 61.1579C137.744 64.6295 131.979 65.7651 126.075 71.3776C132.706 53.8219 149.634 50.2627 169.804 58.2652C165.004 59.2547 160.198 60.2197 155.388 61.1601V61.1579Z" fill="url(#paint3_linear_2135_168)"/>
<path d="M60.1957 93.1672C55.3753 112.902 59.1005 136.097 80.9987 155.563C74.4795 148.433 66.5196 122.11 84.0843 103.304C85.267 102.036 87.3024 102.967 87.3675 104.7C88.8149 143.783 120.352 167.654 156.711 163.191C145.445 162.558 108.188 149.508 135.903 144.347C150.389 141.647 173.102 137.417 173.102 117.036C173.102 83.9977 147.557 74.339 132.066 75.7752C121.465 76.7581 112.028 83.486 109.124 92.6353C110.24 96.2416 105.794 98.7663 102.829 98.3421C103.781 82.4201 97.668 63.3652 86.2297 59.622C85.4218 59.3572 84.6184 59.9654 84.5174 60.8114C83.0139 73.4077 79.7554 77.7725 76.2434 82.4829C70.9719 89.5497 67.1412 97.716 67.3095 106.684C65.3872 102.667 63.8419 98.4812 62.6934 94.1793C62.5654 93.6946 61.863 92.3413 61.0148 92.2785C60.5547 92.2448 60.3101 92.6937 60.1957 93.1672Z" fill="url(#paint4_radial_2135_168)"/>
<path style="mix-blend-mode:screen" d="M126.171 146.346C147.5 163.664 190.391 150.679 190.391 108.573C173.076 134.82 151.021 152.925 126.174 146.346H126.171Z" fill="url(#paint5_linear_2135_168)"/>
<path style="mix-blend-mode:screen" d="M84.0866 103.303C84.2805 103.086 84.5248 102.92 84.7979 102.82C85.0711 102.72 85.3648 102.688 85.6529 102.729C69.9306 121.905 82.6122 155.582 91.3149 163.856C91.8018 165.234 83.0587 158.069 81.8537 156.392C75.2335 150.775 65.7454 122.941 84.0866 103.303Z" fill="url(#paint6_linear_2135_168)"/>
<g filter="url(#filter0_i_2135_168)">
<path d="M134.478 147.931C155.81 147.931 173.106 133.82 173.106 116.413C173.106 99.005 155.81 84.894 134.478 84.894C116.278 84.894 95.8405 96.7339 95.8495 116.873C95.8584 147.992 128.735 165.896 156.759 163.185C154.654 162.94 141.522 162.242 132.646 152.202C131.845 151.298 130.456 149.718 131.087 148.692C131.715 147.667 133.447 147.929 134.475 147.929L134.478 147.931Z" fill="url(#paint7_linear_2135_168)"/>
</g>
<mask id="mask1_2135_168" style="mask-type:alpha" maskUnits="userSpaceOnUse" x="95" y="84" width="79" height="80">
<path d="M134.477 147.931C155.81 147.931 173.105 133.82 173.105 116.412C173.105 99.0047 155.81 84.8936 134.477 84.8936C116.278 84.8936 95.8403 96.7336 95.8493 116.872C95.8583 147.992 128.735 165.895 156.759 163.184C154.654 162.94 141.522 162.242 132.646 152.202C131.845 151.297 130.456 149.717 131.087 148.692C131.715 147.666 133.447 147.929 134.475 147.929L134.477 147.931Z" fill="url(#paint8_linear_2135_168)"/>
</mask>
<g mask="url(#mask1_2135_168)">
<g filter="url(#filter1_d_2135_168)">
<g opacity="0.4">
<path d="M141.281 89.4426C141.678 89.5858 141.469 90.1662 141.054 90.0868C135.503 89.0233 129.593 89.4728 123.948 91.7052C122.027 92.4648 120.225 93.3959 118.553 94.4739C118.51 94.5013 118.464 94.5224 118.416 94.5365C114.374 95.7116 110.635 97.5973 107.343 100.049C106.865 100.405 106.245 99.8478 106.612 99.3795C109.872 95.2287 114.242 91.8608 119.504 89.7799C126.768 86.9077 134.468 86.9867 141.281 89.4426Z" fill="url(#paint9_linear_2135_168)"/>
<path d="M104.949 129.872C104.983 129.308 105.763 129.256 105.936 129.793C106.142 130.432 106.37 131.068 106.621 131.701C108.853 137.346 112.567 141.965 117.139 145.287C117.481 145.536 117.2 146.085 116.824 145.893C112.248 143.559 108.238 140.081 105.269 135.663C105.227 135.6 105.2 135.529 105.189 135.455C104.998 134.167 104.899 132.849 104.899 131.507C104.899 130.958 104.916 130.413 104.949 129.872Z" fill="url(#paint10_linear_2135_168)"/>
<path d="M159.361 101.832C159.352 101.741 159.318 101.654 159.263 101.581C156.404 97.7613 152.736 94.7226 148.605 92.6161C148.229 92.4242 147.949 92.9737 148.29 93.2219C152.863 96.5442 156.577 101.163 158.809 106.808C158.933 107.121 159.393 107.066 159.419 106.731C159.475 106.03 159.503 105.321 159.503 104.605C159.503 103.668 159.455 102.743 159.361 101.832Z" fill="url(#paint11_linear_2135_168)"/>
<path d="M153.363 138.469C153.312 138.498 153.267 138.534 153.229 138.578C150.117 142.098 146.15 144.958 141.481 146.804C135.836 149.036 129.927 149.486 124.376 148.422C123.961 148.343 123.752 148.923 124.149 149.067C130.961 151.522 138.662 151.602 145.925 148.729C154.004 145.535 159.98 139.307 163.063 131.87C163.283 131.339 162.583 130.949 162.199 131.376C159.667 134.192 156.684 136.594 153.363 138.469Z" fill="url(#paint12_linear_2135_168)"/>
<path fill-rule="evenodd" clip-rule="evenodd" d="M132.981 128.083C138.655 128.083 143.255 123.483 143.255 117.809C143.255 112.135 138.655 107.535 132.981 107.535C127.307 107.535 122.707 112.135 122.707 117.809C122.707 123.483 127.307 128.083 132.981 128.083ZM132.981 126.713C137.899 126.713 141.885 122.726 141.885 117.809C141.885 112.891 137.899 108.905 132.981 108.905C128.063 108.905 124.077 112.891 124.077 117.809C124.077 122.726 128.063 126.713 132.981 126.713Z" fill="url(#paint13_linear_2135_168)"/>
</g>
<g opacity="0.9">
<path d="M118.173 131.746C117.615 131.445 117.026 132.158 117.529 132.543C122.713 136.5 129.189 138.85 136.215 138.85C153.237 138.85 167.036 125.051 167.036 108.029C167.036 101.004 164.686 94.5275 160.728 89.3437C160.344 88.8402 159.631 89.4297 159.932 89.9871C162.279 94.3367 163.611 99.3149 163.611 104.604C163.611 121.626 149.812 135.426 132.79 135.426C127.501 135.426 122.522 134.093 118.173 131.746Z" fill="url(#paint14_linear_2135_168)"/>
<path d="M146.228 104.365C146.785 104.666 147.374 103.952 146.871 103.568C141.687 99.6109 135.211 97.2605 128.186 97.2605C111.164 97.2605 97.3644 111.06 97.3644 128.082C97.3644 135.107 99.7148 141.583 103.672 146.767C104.056 147.271 104.77 146.681 104.469 146.124C102.121 141.774 100.789 136.796 100.789 131.506C100.789 114.484 114.588 100.685 131.61 100.685C136.9 100.685 141.878 102.017 146.228 104.365Z" fill="url(#paint15_linear_2135_168)"/>
</g>
<g opacity="0.8">
<path d="M118.938 77.7412C118.938 78.4978 118.324 79.111 117.568 79.111C116.811 79.111 116.198 78.4978 116.198 77.7412C116.198 76.9847 116.811 76.3714 117.568 76.3714C118.324 76.3714 118.938 76.9847 118.938 77.7412Z" fill="url(#paint16_linear_2135_168)"/>
<path d="M146.495 79.3008C146.326 79.8179 146.166 80.3064 145.992 80.4808C145.818 80.6554 145.329 80.815 144.812 80.984C144.062 81.2288 143.253 81.4932 143.253 81.8507C143.253 82.2082 144.062 82.4726 144.812 82.7174C145.329 82.8864 145.818 83.046 145.992 83.2205C146.166 83.395 146.326 83.8835 146.495 84.4006C146.74 85.1503 147.005 85.9602 147.362 85.9602C147.719 85.9602 147.984 85.1503 148.229 84.4006C148.398 83.8835 148.558 83.395 148.732 83.2205C148.906 83.046 149.395 82.8864 149.912 82.7174C150.662 82.4726 151.472 82.2082 151.472 81.8507C151.472 81.4932 150.662 81.2288 149.912 80.984C149.395 80.815 148.906 80.6554 148.732 80.4808C148.558 80.3064 148.398 79.8179 148.229 79.3008C147.984 78.5511 147.719 77.7412 147.362 77.7412C147.005 77.7412 146.74 78.5511 146.495 79.3008Z" fill="url(#paint17_linear_2135_168)"/>
<path d="M116.016 152.93C115.847 153.447 115.688 153.935 115.513 154.11C115.339 154.284 114.85 154.444 114.333 154.613C113.583 154.858 112.774 155.122 112.774 155.48C112.774 155.837 113.583 156.102 114.333 156.346C114.85 156.515 115.339 156.675 115.513 156.85C115.688 157.024 115.847 157.513 116.016 158.03C116.261 158.779 116.526 159.589 116.883 159.589C117.24 159.589 117.505 158.779 117.75 158.03C117.919 157.513 118.079 157.024 118.253 156.85C118.427 156.675 118.916 156.515 119.434 156.346C120.183 156.102 120.993 155.837 120.993 155.48C120.993 155.122 120.183 154.858 119.434 154.613C118.916 154.444 118.427 154.284 118.253 154.11C118.079 153.935 117.919 153.447 117.75 152.93C117.505 152.18 117.24 151.37 116.883 151.37C116.526 151.37 116.261 152.18 116.016 152.93Z" fill="url(#paint18_linear_2135_168)"/>
<path d="M162.338 150.78C162.461 150.405 162.593 150 162.772 150C162.95 150 163.083 150.405 163.205 150.78C163.29 151.039 163.369 151.283 163.457 151.37C163.544 151.457 163.788 151.537 164.047 151.622C164.422 151.744 164.826 151.876 164.826 152.055C164.826 152.234 164.422 152.366 164.047 152.488C163.788 152.573 163.544 152.653 163.457 152.74C163.369 152.827 163.29 153.071 163.205 153.33C163.083 153.705 162.95 154.11 162.772 154.11C162.593 154.11 162.461 153.705 162.338 153.33C162.254 153.071 162.174 152.827 162.087 152.74C162 152.653 161.755 152.573 161.496 152.488C161.122 152.366 160.717 152.234 160.717 152.055C160.717 151.876 161.122 151.744 161.496 151.622C161.755 151.537 162 151.457 162.087 151.37C162.174 151.283 162.254 151.039 162.338 150.78Z" fill="url(#paint19_linear_2135_168)"/>
<path d="M110.285 118.589C110.201 118.847 110.121 119.092 110.034 119.179C109.947 119.266 109.702 119.346 109.444 119.43C109.069 119.553 108.664 119.685 108.664 119.864C108.664 120.043 109.069 120.175 109.444 120.297C109.702 120.382 109.947 120.461 110.034 120.549C110.121 120.636 110.201 120.88 110.285 121.139C110.408 121.514 110.54 121.919 110.719 121.919C110.897 121.919 111.03 121.514 111.152 121.139C111.237 120.88 111.317 120.636 111.404 120.549C111.491 120.461 111.735 120.382 111.994 120.297C112.369 120.175 112.774 120.043 112.774 119.864C112.774 119.685 112.369 119.553 111.994 119.43C111.735 119.346 111.491 119.266 111.404 119.179C111.317 119.092 111.237 118.847 111.152 118.589C111.03 118.214 110.897 117.809 110.719 117.809C110.54 117.809 110.408 118.214 110.285 118.589Z" fill="url(#paint20_linear_2135_168)"/>
<path d="M154.12 114.479C154.243 114.104 154.375 113.699 154.554 113.699C154.732 113.699 154.865 114.104 154.987 114.479C155.072 114.738 155.151 114.982 155.239 115.069C155.326 115.156 155.57 115.236 155.829 115.321C156.204 115.443 156.608 115.575 156.608 115.754C156.608 115.933 156.204 116.065 155.829 116.188C155.57 116.272 155.326 116.352 155.239 116.439C155.151 116.526 155.072 116.771 154.987 117.029C154.865 117.404 154.732 117.809 154.554 117.809C154.375 117.809 154.243 117.404 154.12 117.029C154.036 116.771 153.956 116.526 153.869 116.439C153.782 116.352 153.537 116.272 153.278 116.188C152.904 116.065 152.499 115.933 152.499 115.754C152.499 115.575 152.904 115.443 153.278 115.321C153.537 115.236 153.782 115.156 153.869 115.069C153.956 114.982 154.036 114.738 154.12 114.479Z" fill="url(#paint21_linear_2135_168)"/>
<path d="M100.011 85.7126C99.9268 85.9711 99.847 86.2154 99.7599 86.3026C99.6727 86.3899 99.4283 86.4697 99.1696 86.5542C98.7948 86.6766 98.3901 86.8088 98.3901 86.9875C98.3901 87.1663 98.7948 87.2985 99.1696 87.4209C99.4283 87.5054 99.6727 87.5852 99.7599 87.6725C99.847 87.7597 99.9268 88.0039 100.011 88.2625C100.134 88.6374 100.266 89.0423 100.445 89.0423C100.623 89.0423 100.756 88.6374 100.878 88.2625C100.963 88.0039 101.043 87.7597 101.13 87.6725C101.217 87.5852 101.461 87.5054 101.72 87.4209C102.095 87.2985 102.5 87.1663 102.5 86.9875C102.5 86.8088 102.095 86.6766 101.72 86.5542C101.461 86.4697 101.217 86.3899 101.13 86.3026C101.043 86.2154 100.963 85.9711 100.878 85.7126C100.756 85.3377 100.623 84.9328 100.445 84.9328C100.266 84.9328 100.134 85.3377 100.011 85.7126Z" fill="url(#paint22_linear_2135_168)"/>
<path d="M130.924 117.809C130.924 118.944 131.844 119.864 132.979 119.864C134.114 119.864 135.034 118.944 135.034 117.809C135.034 116.674 134.114 115.754 132.979 115.754C131.844 115.754 130.924 116.674 130.924 117.809Z" fill="url(#paint23_linear_2135_168)"/>
<path d="M116.198 113.014C116.955 113.014 117.568 112.401 117.568 111.645C117.568 110.888 116.955 110.275 116.198 110.275C115.442 110.275 114.828 110.888 114.828 111.645C114.828 112.401 115.442 113.014 116.198 113.014Z" fill="url(#paint24_linear_2135_168)"/>
<path d="M145.992 160.959C146.749 160.959 147.362 160.346 147.362 159.589C147.362 158.833 146.749 158.219 145.992 158.219C145.236 158.219 144.623 158.833 144.623 159.589C144.623 160.346 145.236 160.959 145.992 160.959Z" fill="url(#paint25_linear_2135_168)"/>
<path d="M182.292 117.809C182.292 119.322 181.065 120.549 179.552 120.549C178.039 120.549 176.812 119.322 176.812 117.809C176.812 116.296 178.039 115.069 179.552 115.069C181.065 115.069 182.292 116.296 182.292 117.809Z" fill="url(#paint26_linear_2135_168)"/>
<path d="M148.732 125.686C149.488 125.686 150.102 125.072 150.102 124.316C150.102 123.559 149.488 122.946 148.732 122.946C147.975 122.946 147.362 123.559 147.362 124.316C147.362 125.072 147.975 125.686 148.732 125.686Z" fill="url(#paint27_linear_2135_168)"/>
</g>
</g>
</g>
<path d="M139.897 69.1283C144.03 67.8267 143.667 63.7356 143.667 63.7356C143.667 63.7356 141.6 61.3008 137.504 62.6495C133.672 63.9129 133.077 66.644 133.077 66.644C133.077 66.644 135.171 70.6161 139.897 69.1283Z" fill="white"/>
<path opacity="0.3" d="M74.6512 85.3474C75.1225 84.4809 75.6104 83.6249 76.1144 82.7797C35.9932 77.938 7.7409 80.4025 5.18717 90.7024C1.31196 106.332 58.0805 134.086 131.983 152.693C205.886 171.299 268.938 173.712 272.813 158.082C275.38 147.726 251.327 132.049 213.306 117.235C213.349 118.085 213.378 118.939 213.392 119.796C243.961 131.84 262.981 143.937 261.048 151.732C257.937 164.28 201.718 160.933 135.479 144.256C69.2403 127.579 18.0652 103.888 21.1763 91.3401C23.0394 83.8256 43.9492 82.0117 74.6512 85.3474Z" fill="#EEEEF0"/>
</g>
<defs>
<filter id="filter0_i_2135_168" x="95.8494" y="84.894" width="77.2561" height="78.5602" filterUnits="userSpaceOnUse" color-interpolation-filters="sRGB">
<feFlood flood-opacity="0" result="BackgroundImageFix"/>
<feBlend mode="normal" in="SourceGraphic" in2="BackgroundImageFix" result="shape"/>
<feColorMatrix in="SourceAlpha" type="matrix" values="0 0 0 0 0 0 0 0 0 0 0 0 0 0 0 0 0 0 127 0" result="hardAlpha"/>
<feOffset/>
<feGaussianBlur stdDeviation="16.0479"/>
<feComposite in2="hardAlpha" operator="arithmetic" k2="-1" k3="1"/>
<feColorMatrix type="matrix" values="0 0 0 0 0 0 0 0 0 0 0 0 0 0 0 0 0 0 1 0"/>
<feBlend mode="normal" in2="shape" result="effect1_innerShadow_2135_168"/>
</filter>
<filter id="filter1_d_2135_168" x="94.9414" y="76.3714" width="89.7734" height="89.4338" filterUnits="userSpaceOnUse" color-interpolation-filters="sRGB">
<feFlood flood-opacity="0" result="BackgroundImageFix"/>
<feColorMatrix in="SourceAlpha" type="matrix" values="0 0 0 0 0 0 0 0 0 0 0 0 0 0 0 0 0 0 127 0" result="hardAlpha"/>
<feOffset dy="2.423"/>
<feGaussianBlur stdDeviation="1.2115"/>
<feComposite in2="hardAlpha" operator="out"/>
<feColorMatrix type="matrix" values="0 0 0 0 0 0 0 0 0 0 0 0 0 0 0 0 0 0 0.25 0"/>
<feBlend mode="normal" in2="BackgroundImageFix" result="effect1_dropShadow_2135_168"/>
<feBlend mode="normal" in="SourceGraphic" in2="effect1_dropShadow_2135_168" result="shape"/>
</filter>
<linearGradient id="paint0_linear_2135_168" x1="83.1953" y1="69.8882" x2="193.92" y2="173.167" gradientUnits="userSpaceOnUse">
<stop stop-color="#1B91F3"/>
<stop offset="1" stop-color="#0B68CB"/>
</linearGradient>
<radialGradient id="paint1_radial_2135_168" cx="0" cy="0" r="1" gradientUnits="userSpaceOnUse" gradientTransform="translate(82.9918 105.423) rotate(66.5178) scale(66.4172 63.6251)">
<stop offset="0.53" stop-color="#0B4186" stop-opacity="0"/>
<stop offset="1" stop-color="#0B4186" stop-opacity="0.45"/>
</radialGradient>
<radialGradient id="paint2_radial_2135_168" cx="0" cy="0" r="1" gradientUnits="userSpaceOnUse" gradientTransform="translate(136.499 78.1466) rotate(-127.996) scale(14.1986 23.4955)">
<stop stop-color="#EF3ACC" stop-opacity="0"/>
<stop offset="1" stop-color="#EF3ACC" stop-opacity="0.64"/>
</radialGradient>
<linearGradient id="paint3_linear_2135_168" x1="114.004" y1="96.3256" x2="153.846" y2="51.9727" gradientUnits="userSpaceOnUse">
<stop stop-color="#0F5DB0"/>
<stop offset="1" stop-color="#0F5DB0" stop-opacity="0"/>
</linearGradient>
<radialGradient id="paint4_radial_2135_168" cx="0" cy="0" r="1" gradientUnits="userSpaceOnUse" gradientTransform="translate(104.854 158.644) rotate(-64.2625) scale(103.615 127.995)">
<stop offset="0.02" stop-color="#094188"/>
<stop offset="0.97" stop-color="#0B4186" stop-opacity="0"/>
</radialGradient>
<linearGradient id="paint5_linear_2135_168" x1="183.83" y1="128.44" x2="165.304" y2="173.926" gradientUnits="userSpaceOnUse">
<stop stop-color="#E247C4" stop-opacity="0"/>
<stop offset="1" stop-color="#E247C4" stop-opacity="0.64"/>
</linearGradient>
<linearGradient id="paint6_linear_2135_168" x1="68.9522" y1="87.6481" x2="85.2737" y2="153.338" gradientUnits="userSpaceOnUse">
<stop offset="0.1" stop-color="#EF3ACC"/>
<stop offset="1" stop-color="#EF3ACC" stop-opacity="0"/>
</linearGradient>
<linearGradient id="paint7_linear_2135_168" x1="134.478" y1="96.4355" x2="134.478" y2="162.862" gradientUnits="userSpaceOnUse">
<stop stop-color="#0D2241"/>
<stop offset="0.58" stop-color="#1C0C36"/>
<stop offset="1" stop-color="#2E0B5B"/>
</linearGradient>
<linearGradient id="paint8_linear_2135_168" x1="134.477" y1="96.4351" x2="134.477" y2="162.861" gradientUnits="userSpaceOnUse">
<stop stop-color="white"/>
<stop offset="0.91" stop-color="#BEE1FE"/>
<stop offset="1" stop-color="#96CEFD"/>
</linearGradient>
<linearGradient id="paint9_linear_2135_168" x1="104.899" y1="119.255" x2="185.092" y2="120.07" gradientUnits="userSpaceOnUse">
<stop stop-color="#58C9FF"/>
<stop offset="1" stop-color="#8022CE"/>
</linearGradient>
<linearGradient id="paint10_linear_2135_168" x1="104.899" y1="119.255" x2="185.092" y2="120.07" gradientUnits="userSpaceOnUse">
<stop stop-color="#58C9FF"/>
<stop offset="1" stop-color="#8022CE"/>
</linearGradient>
<linearGradient id="paint11_linear_2135_168" x1="104.899" y1="119.255" x2="185.092" y2="120.07" gradientUnits="userSpaceOnUse">
<stop stop-color="#58C9FF"/>
<stop offset="1" stop-color="#8022CE"/>
</linearGradient>
<linearGradient id="paint12_linear_2135_168" x1="104.899" y1="119.255" x2="185.092" y2="120.07" gradientUnits="userSpaceOnUse">
<stop stop-color="#58C9FF"/>
<stop offset="1" stop-color="#8022CE"/>
</linearGradient>
<linearGradient id="paint13_linear_2135_168" x1="104.899" y1="119.255" x2="185.092" y2="120.07" gradientUnits="userSpaceOnUse">
<stop stop-color="#58C9FF"/>
<stop offset="1" stop-color="#8022CE"/>
</linearGradient>
<linearGradient id="paint14_linear_2135_168" x1="97.3644" y1="118.055" x2="193.347" y2="119.334" gradientUnits="userSpaceOnUse">
<stop stop-color="#58C9FF"/>
<stop offset="1" stop-color="#8022CE"/>
</linearGradient>
<linearGradient id="paint15_linear_2135_168" x1="97.3644" y1="118.055" x2="193.347" y2="119.334" gradientUnits="userSpaceOnUse">
<stop stop-color="#58C9FF"/>
<stop offset="1" stop-color="#8022CE"/>
</linearGradient>
<linearGradient id="paint16_linear_2135_168" x1="98.3901" y1="118.665" x2="213.983" y2="119.932" gradientUnits="userSpaceOnUse">
<stop stop-color="#58C9FF"/>
<stop offset="1" stop-color="#8022CE"/>
</linearGradient>
<linearGradient id="paint17_linear_2135_168" x1="98.3901" y1="118.665" x2="213.983" y2="119.932" gradientUnits="userSpaceOnUse">
<stop stop-color="#58C9FF"/>
<stop offset="1" stop-color="#8022CE"/>
</linearGradient>
<linearGradient id="paint18_linear_2135_168" x1="98.3901" y1="118.665" x2="213.983" y2="119.932" gradientUnits="userSpaceOnUse">
<stop stop-color="#58C9FF"/>
<stop offset="1" stop-color="#8022CE"/>
</linearGradient>
<linearGradient id="paint19_linear_2135_168" x1="98.3901" y1="118.665" x2="213.983" y2="119.932" gradientUnits="userSpaceOnUse">
<stop stop-color="#58C9FF"/>
<stop offset="1" stop-color="#8022CE"/>
</linearGradient>
<linearGradient id="paint20_linear_2135_168" x1="98.3901" y1="118.665" x2="213.983" y2="119.932" gradientUnits="userSpaceOnUse">
<stop stop-color="#58C9FF"/>
<stop offset="1" stop-color="#8022CE"/>
</linearGradient>
<linearGradient id="paint21_linear_2135_168" x1="98.3901" y1="118.665" x2="213.983" y2="119.932" gradientUnits="userSpaceOnUse">
<stop stop-color="#58C9FF"/>
<stop offset="1" stop-color="#8022CE"/>
</linearGradient>
<linearGradient id="paint22_linear_2135_168" x1="98.3901" y1="118.665" x2="213.983" y2="119.932" gradientUnits="userSpaceOnUse">
<stop stop-color="#58C9FF"/>
<stop offset="1" stop-color="#8022CE"/>
</linearGradient>
<linearGradient id="paint23_linear_2135_168" x1="98.3901" y1="118.665" x2="213.983" y2="119.932" gradientUnits="userSpaceOnUse">
<stop stop-color="#58C9FF"/>
<stop offset="1" stop-color="#8022CE"/>
</linearGradient>
<linearGradient id="paint24_linear_2135_168" x1="98.3901" y1="118.665" x2="213.983" y2="119.932" gradientUnits="userSpaceOnUse">
<stop stop-color="#58C9FF"/>
<stop offset="1" stop-color="#8022CE"/>
</linearGradient>
<linearGradient id="paint25_linear_2135_168" x1="98.3901" y1="118.665" x2="213.983" y2="119.932" gradientUnits="userSpaceOnUse">
<stop stop-color="#58C9FF"/>
<stop offset="1" stop-color="#8022CE"/>
</linearGradient>
<linearGradient id="paint26_linear_2135_168" x1="98.3901" y1="118.665" x2="213.983" y2="119.932" gradientUnits="userSpaceOnUse">
<stop stop-color="#58C9FF"/>
<stop offset="1" stop-color="#8022CE"/>
</linearGradient>
<linearGradient id="paint27_linear_2135_168" x1="98.3901" y1="118.665" x2="213.983" y2="119.932" gradientUnits="userSpaceOnUse">
<stop stop-color="#58C9FF"/>
<stop offset="1" stop-color="#8022CE"/>
</linearGradient>
</defs>
</svg>
