<svg width="350" height="407" viewBox="0 0 350 407" fill="none" xmlns="http://www.w3.org/2000/svg">
<path d="M156.61 352.45C164.49 362.76 175.72 370.01 187.62 372.47C185.76 369.02 183.89 365.57 182.03 362.11C186.95 366.34 193.16 368.71 199.27 368.68C195.54 359.86 189.34 352.2 181.75 347.05C186.52 350.99 191.88 354.05 197.52 356.05C193.78 349.76 188.15 344.77 181.78 342.08C185.24 343.45 189.1 343.36 192.36 341.85C186.05 334.73 177.44 330.09 168.59 329.03" fill="#BED7F3"/>
<path d="M156.61 352.45C164.49 362.76 175.72 370.01 187.62 372.47C185.76 369.02 183.89 365.57 182.03 362.11C186.95 366.34 193.16 368.71 199.27 368.68C195.54 359.86 189.34 352.2 181.75 347.05C186.52 350.99 191.88 354.05 197.52 356.05C193.78 349.76 188.15 344.77 181.78 342.08C185.24 343.45 189.1 343.36 192.36 341.85C186.05 334.73 177.44 330.09 168.59 329.03" stroke="#2493EF" stroke-width="1.5" stroke-linecap="round" stroke-linejoin="round"/>
<path d="M189.05 215.82C188.43 215.2 169.57 202.63 147.91 218.52C140.04 219.16 133.85 225.82 133.85 233.96C133.85 236.06 134.26 238.05 135.01 239.87C134.94 247.66 139.45 255.9 150.7 263.13C154.99 265.88 160.1 267.76 165.3 268.57C167.71 269.39 170.3 269.62 172.9 269.15C173.3 269.08 173.69 268.97 174.08 268.86C182.49 268.07 190.02 264.04 193.37 255.83C200.93 237.28 196.61 223.39 189.04 215.82H189.05Z" fill="#DDEEFE" stroke="#2493EF" stroke-width="2" stroke-miterlimit="10"/>
<path d="M191.15 218.94C202.13 223.83 201.1 246.38 201.1 246.38C201.1 246.38 198.32 244.83 196.21 244.99C198.52 249.55 197.37 254.15 194.81 258.57C194.86 257.27 193.88 254.52 193.29 253.53C193.18 255.34 192.48 257.32 191.75 258.98" fill="#DDEEFE"/>
<path d="M191.15 218.94C202.13 223.83 201.1 246.38 201.1 246.38C201.1 246.38 198.32 244.83 196.21 244.99C198.52 249.55 197.37 254.15 194.81 258.57C194.86 257.27 193.88 254.52 193.29 253.53C193.18 255.34 192.48 257.32 191.75 258.98" stroke="#2493EF" stroke-width="2" stroke-miterlimit="10" stroke-linecap="round"/>
<path d="M176.98 213.27C175.69 209.03 169.82 204.49 165.38 204.45C166.78 205.59 167.63 207.39 167.6 209.19C162.71 206.22 156.15 206.24 151.28 209.24C153.91 209.83 156.24 211.65 157.45 214.06" fill="#DDEEFE"/>
<path d="M176.98 213.27C175.69 209.03 169.82 204.49 165.38 204.45C166.78 205.59 167.63 207.39 167.6 209.19C162.71 206.22 156.15 206.24 151.28 209.24C153.91 209.83 156.24 211.65 157.45 214.06" stroke="#2493EF" stroke-width="2" stroke-miterlimit="10"/>
<path d="M185.06 228.7C182.38 226.84 178.64 226.16 175.74 227.66C172.84 229.16 172.53 232.56 172.53 232.56C172.53 232.56 183.85 234.79 185.34 243.56C185.34 243.56 188.28 241.24 188.24 235.67C188.22 232.47 186.88 229.96 185.06 228.69V228.7Z" fill="white" stroke="#2493EF" stroke-width="0.93" stroke-miterlimit="10"/>
<path d="M184.98 229.23C182.48 227.47 179.16 227 176.26 227.93C175.51 228.9 175.05 230.14 175.05 231.48C175.05 234.62 177.51 237.17 180.55 237.17C183.59 237.17 186.05 234.62 186.05 231.48C186.05 230.96 185.98 230.46 185.85 229.98C185.57 229.7 185.28 229.44 184.98 229.23Z" fill="#FDD847" stroke="#2493EF" stroke-width="0.89" stroke-miterlimit="10"/>
<path d="M183.93 231.01C183.93 229.7 183.29 228.55 182.32 227.82C180.83 227.27 179.46 227.19 178.23 227.4C176.87 228.04 175.93 229.41 175.93 231.01C175.93 233.22 177.72 235.01 179.93 235.01C182.14 235.01 183.93 233.22 183.93 231.01Z" fill="#2493EF"/>
<path d="M181.8 231.65C182.49 231.65 183.05 231.09 183.05 230.4C183.05 229.71 182.49 229.15 181.8 229.15C181.11 229.15 180.55 229.71 180.55 230.4C180.55 231.09 181.11 231.65 181.8 231.65Z" fill="white"/>
<path d="M183.05 233.15C183.464 233.15 183.8 232.814 183.8 232.4C183.8 231.986 183.464 231.65 183.05 231.65C182.636 231.65 182.3 231.986 182.3 232.4C182.3 232.814 182.636 233.15 183.05 233.15Z" fill="white"/>
<path d="M161.57 213.55C163.72 215.21 164.94 217.9 164.7 220.5C164.6 221.63 164.08 222.88 162.94 223.21C161.78 223.55 160.61 222.78 159.58 222.16C156.85 220.54 154.3 219.23 151.1 219.41C150.33 219.45 149.4 219.49 148.94 218.89C148.4 218.18 148.99 217.22 149.59 216.57C151.34 214.68 152.69 213.47 155.2 212.62C157.71 211.77 160.11 212.42 161.57 213.55Z" fill="white" stroke="#2493EF" stroke-miterlimit="10"/>
<path d="M162.31 214.61C162.25 214.4 162.17 214.2 162.09 214C161.92 213.84 161.75 213.68 161.57 213.54C160.11 212.41 157.71 211.77 155.2 212.61C153.41 213.21 152.2 214.01 151.03 215.1C150.86 215.95 150.88 216.85 151.14 217.74C151.32 218.35 151.6 218.91 151.95 219.4C154.36 219.47 156.43 220.36 158.53 221.55C161.49 220.6 163.18 217.54 162.31 214.6V214.61Z" fill="#FDD847"/>
<path d="M162.09 214C162.17 214.2 162.25 214.4 162.31 214.61V214.6M162.09 214C161.92 213.84 161.75 213.68 161.57 213.54C160.11 212.41 157.71 211.77 155.2 212.61C153.41 213.21 152.2 214.01 151.03 215.1C150.86 215.95 150.88 216.85 151.14 217.74C151.32 218.35 151.6 218.91 151.95 219.4C154.36 219.47 156.43 220.36 158.53 221.55C161.49 220.6 163.18 217.54 162.31 214.6M162.09 214L162.31 214.6" stroke="#2493EF" stroke-miterlimit="10"/>
<path d="M160.32 214.66C160.02 213.63 159.34 212.82 158.48 212.31C157.46 212.17 156.34 212.23 155.19 212.62C154.4 212.89 153.73 213.2 153.12 213.54C152.52 214.47 152.31 215.64 152.65 216.8C153.28 218.93 155.5 220.17 157.62 219.58C159.74 218.99 160.95 216.78 160.32 214.65V214.66Z" fill="#2493EF"/>
<path d="M158.51 216.26C159.2 216.26 159.76 215.7 159.76 215.01C159.76 214.32 159.2 213.76 158.51 213.76C157.82 213.76 157.26 214.32 157.26 215.01C157.26 215.7 157.82 216.26 158.51 216.26Z" fill="white"/>
<path d="M159.76 217.76C160.174 217.76 160.51 217.424 160.51 217.01C160.51 216.596 160.174 216.26 159.76 216.26C159.346 216.26 159.01 216.596 159.01 217.01C159.01 217.424 159.346 217.76 159.76 217.76Z" fill="white"/>
<path d="M186.85 247.07C185.12 237.91 177.21 231.54 168.78 232.19C167.66 231.12 166.33 230.2 164.86 229.45C163.07 223.11 157.17 218.45 150.14 218.45C141.69 218.45 134.85 225.17 134.85 233.46C134.85 237.48 136.47 241.12 139.09 243.82C140.56 249.94 146.98 254.6 154.84 254.96C157.47 263.48 165.58 269.01 173.9 267.53C182.89 265.94 188.69 256.77 186.85 247.06V247.07Z" fill="#DDEEFE"/>
<path d="M170.5 232.5C174.55 232.8 178.36 234.45 181.1 236.78C183.84 239.11 185.42 242.24 185.44 245.4" stroke="#2493EF" stroke-width="0.91" stroke-linecap="round" stroke-linejoin="round"/>
<path d="M144.71 250.2C146.72 254.07 150.72 256.85 155.06 257.37" stroke="#2493EF" stroke-linecap="round" stroke-linejoin="round"/>
<path d="M146.17 218.45C152.77 216.53 160.2 221.34 164.72 226.5L146.17 218.45Z" fill="#DDEEFE"/>
<path d="M146.17 218.45C152.77 216.53 160.2 221.34 164.72 226.5" stroke="#2493EF" stroke-width="0.91" stroke-linecap="round" stroke-linejoin="round"/>
<path d="M143.47 234.32C146.6 234.98 148.99 237.81 151.02 240.27C153.05 242.73 155.05 245.41 157.94 246.79C161.11 248.3 166.15 246.15 168.96 244.04C169.79 243.42 169.54 244.04 168.98 243.17C168.77 242.84 169.78 243.49 169.44 243.3C165.08 240.93 159.35 237.72 154.99 235.35C152.99 234.26 150.94 233.16 148.69 232.79C146.44 232.42 143.92 232.56 143.48 234.31L143.47 234.32Z" fill="#FDD847" stroke="#2493EF" stroke-width="1.01" stroke-linecap="round" stroke-linejoin="round"/>
<path d="M169.63 243.76C168.49 241.26 167.87 238.09 167.84 234.58C167.81 231.07 166.64 227.07 162.7 225.1C159.9 223.71 155.79 223.48 152.67 224.01C137.38 226.63 137.33 234.76 138.11 236.83C138.63 238.21 141.94 232.95 146.24 233.87C146.24 233.87 154.3 236.46 160.2 242.36C164.1 246.26 167.48 244.69 169.64 243.75L169.63 243.76Z" fill="#FDD847"/>
<path d="M166.03 228.8C163.73 225.04 158.92 223.4 154.52 223.77C145.75 224.49 140.52 228 138.85 232.66C138.34 234.07 149.99 223.66 161.51 234.33C162.13 234.9 166.64 235.14 167.24 234.33C167.74 233.66 167.09 231.42 166.77 230.64C166.45 229.86 165.88 229.23 166.04 228.81L166.03 228.8Z" fill="#FEF2C3"/>
<path d="M169.63 243.76C168.49 241.26 167.87 238.09 167.84 234.58C167.81 231.07 166.64 227.07 162.7 225.1C159.9 223.71 155.79 223.48 152.67 224.01C137.38 226.63 137.33 234.76 138.11 236.83C138.63 238.21 141.94 232.95 146.24 233.87C146.24 233.87 154.3 236.46 160.2 242.36C164.1 246.26 167.48 244.69 169.64 243.75L169.63 243.76Z" stroke="#2493EF" stroke-width="1.01" stroke-linecap="round" stroke-linejoin="round"/>
<path d="M162.455 233.48C163.008 233.347 163.203 232.19 162.89 230.896C162.578 229.602 161.876 228.662 161.323 228.795C160.77 228.929 160.575 230.086 160.888 231.38C161.2 232.673 161.902 233.614 162.455 233.48Z" fill="#2493EF"/>
<path d="M176.98 213.27C175.83 210.23 176.45 206.58 178.55 204.09C180.74 205.53 181.96 208.31 181.55 210.89C183.93 205.66 188.84 201.64 194.44 200.35C193.97 205.86 190.99 211.1 186.51 214.32C188.97 212.5 192.3 211.93 195.22 212.83C194.3 215.01 192.51 216.81 190.33 217.73C188.15 218.65 185.61 218.68 183.4 217.82" fill="#DDEEFE"/>
<path d="M176.98 213.27C175.83 210.23 176.45 206.58 178.55 204.09C180.74 205.53 181.96 208.31 181.55 210.89C183.93 205.66 188.84 201.64 194.44 200.35C193.97 205.86 190.99 211.1 186.51 214.32C188.97 212.5 192.3 211.93 195.22 212.83C194.3 215.01 192.51 216.81 190.33 217.73C188.15 218.65 185.61 218.68 183.4 217.82" stroke="#2493EF" stroke-width="2" stroke-linejoin="round"/>
<path d="M101.59 267.85C102.94 266.08 104.28 264.31 105.63 262.55C102.48 261.41 99.33 260.27 96.18 259.13C101.89 257.69 107.59 256.25 113.3 254.8C101.02 255.99 87.61 247.14 84.08 236.14C88.25 234.6 93.56 235.32 97.92 236.63C91.79 234.86 86.69 231.34 82.35 226.94C80.49 225.06 79.04 219.66 79.04 219.66C79.04 219.66 83.29 219.89 85.4 220.16C91.8 220.96 97.72 222.07 103.42 224.97C95.67 219.93 88.5 214.6 82.62 207.75C76.74 200.9 73.37 190.98 75.28 182.64C78.83 188.15 84.43 193.13 90.65 195.79C82.57 185.18 81.72 169.11 87.76 157.82C91.81 165.57 96.76 174.33 103.29 180.54C100.64 172.96 98.04 165.23 97.8 157.34C97.56 149.45 99.97 141.23 106.09 135.88C105.53 148.38 109.51 161.15 117.26 171.7C109.32 149.12 118.65 124.81 136.42 109.42C130.52 132.95 129.72 157.69 134.07 181.8C140.93 174.79 150.77 170.32 161.13 169.51C156.8 177.19 150.08 183.44 143.24 189.35C136.4 195.26 130.42 201.95 125 209C119.58 216.05 114.78 223.74 115.87 232.47C116.96 241.2 121.67 247.85 131 250C122.41 254.23 116.48 259.92 114.19 270.18C112.9 269.82 111.61 269.46 110.32 269.09" fill="#DDEEFE"/>
<path d="M119 173.15C115.81 157.4 115.07 143.6 122.01 128.63C111.64 142.86 112.12 165.77 119 173.15Z" fill="#BED7F3"/>
<path d="M106.06 136.41C94.33 163.55 105.57 182.31 105.18 181.73C95.51 167.46 95.52 147.81 106.06 136.41Z" fill="#BED7F3"/>
<path d="M91.63 164.69C87.77 175.61 89.15 188.13 95.34 198.42C88.53 193.96 84.26 186.59 83.19 179.07C82.11 171.54 84.03 163.9 87.71 157.24C88.99 160.1 90.27 162.95 91.64 164.69H91.63Z" fill="#BED7F3"/>
<path d="M82.23 190.03C79.8 187.67 77.37 185.3 74.94 182.94C72.43 191.47 75.6 200.94 81.43 208.24C87.26 215.53 96.29 220.37 104.77 224.97C105.24 222.93 87.97 217.33 84.9 191.84C80.79 189.44 77.37 186.04 82.22 190.03H82.23Z" fill="#BED7F3"/>
<path d="M84.24 236.91C91.03 246.26 103.81 251.7 115.74 250.33C115.49 251.97 115.23 253.61 114.98 255.26C108.65 257.3 101.28 255.42 95.68 251.74C90.08 248.06 85.97 242.8 84.24 236.92V236.91Z" fill="#BED7F3"/>
<path d="M84.48 220.31C85.44 223.73 87.56 226.83 90.11 229.51C92.66 232.19 95.64 234.5 98.61 236.79C88.72 235.29 80 227.95 77.51 219.02C79.65 219.81 81.91 220.29 84.49 220.3L84.48 220.31Z" fill="#BED7F3"/>
<path d="M115.21 255.55C107.9 256.17 100.6 256.78 93.29 257.4C97.1 259.53 101.26 261.11 105.58 262.04C104.73 263.92 103.37 265.59 101.65 266.86C105.87 268.76 111 267.75 114.79 265.41C118.58 263.07 121.31 259.59 123.96 256.17C120.79 254.73 117.98 252.59 115.85 249.99C109.82 250.57 103.63 249.02 98.18 246.38C92.73 243.74 87.94 240.05 83.46 236.14C88.65 247.31 101.49 255.29 115.2 255.55H115.21Z" fill="#BED7F3"/>
<path d="M112.2 270.1C112.96 269.99 113.79 270.12 114.49 270.45C114.69 269.83 114.9 269.21 115.12 268.59C116.77 264.88 119.94 261.12 124.02 258.29C124.27 258.12 124.31 257.79 124.12 257.55C123.92 257.32 123.56 257.27 123.31 257.44C119.23 260.28 115.63 263.39 113.72 267.02C109.11 267.88 106.54 268.06 102.32 267.06C103.64 265.72 104.9 264.36 106.13 262.99C106.71 262.35 106.25 261.35 105.33 261.25C100.83 260.77 98.39 260.42 95.54 258.36C100.08 258.41 104.53 257.73 108.86 256.92C110.95 256.88 112.7 256.5 114.88 255.74C114.96 255.72 115.03 255.68 115.09 255.62C115.11 255.6 115.12 255.59 115.14 255.57C115.17 255.53 115.2 255.5 115.22 255.45C115.22 255.45 115.24 255.41 115.24 255.39C115.24 255.37 115.25 255.34 115.26 255.32C115.26 255.32 115.26 255.23 115.26 255.18C115.26 255.18 115.26 255.18 115.26 255.17C115.26 255.14 115.25 255.11 115.24 255.08C115.24 255.08 115.24 255.07 115.24 255.06C115.21 254.99 115.18 254.94 115.13 254.89C115.13 254.89 115.13 254.89 115.12 254.88C115.07 254.84 115.02 254.8 114.95 254.77C114.95 254.77 114.94 254.77 114.93 254.76C114.93 254.76 114.92 254.76 114.91 254.76C114.85 254.74 114.79 254.72 114.72 254.72C114.71 254.72 114.69 254.72 114.68 254.72C114.66 254.72 114.64 254.72 114.62 254.72C114.21 254.76 113.76 254.67 113.31 254.55C112.87 254.43 112.46 254.27 112.02 254.21C111.92 254.2 111.81 254.21 111.72 254.25C111.69 254.24 111.66 254.23 111.62 254.22C105.07 255.15 99.26 253.34 94.55 249.88C90.12 246.63 86.73 241.89 84.86 236.7C86.69 236.16 87.93 235.89 89.04 235.92C89.93 235.95 91.13 236.18 92.62 236.49C93.38 236.7 94.11 236.85 94.86 236.96C94.93 236.98 94.96 236.98 95.03 237C95.04 237 95.05 237 95.07 237C96.18 237.14 97.34 237.18 98.66 237.15C98.66 237.15 98.67 237.15 98.68 237.15C98.68 237.15 98.7 237.15 98.71 237.15C98.72 237.15 98.74 237.15 98.75 237.15C98.76 237.15 98.78 237.15 98.79 237.15C98.8 237.15 98.81 237.15 98.82 237.15C98.82 237.15 98.84 237.15 98.85 237.15C98.93 237.12 99 237.08 99.06 237.02C99.06 237.02 99.08 237 99.08 236.99C99.08 236.99 99.1 236.97 99.1 236.96C99.1 236.96 99.11 236.95 99.11 236.94C99.11 236.94 99.12 236.92 99.13 236.91C99.13 236.9 99.14 236.89 99.15 236.87C99.15 236.87 99.15 236.87 99.15 236.86C99.17 236.81 99.18 236.76 99.19 236.7C99.19 236.68 99.19 236.66 99.19 236.64C99.19 236.63 99.19 236.61 99.18 236.6C99.18 236.56 99.16 236.52 99.15 236.48C99.15 236.46 99.13 236.44 99.12 236.42C99.09 236.38 99.06 236.34 99.02 236.3C99.01 236.29 99 236.28 98.99 236.27C98.94 236.23 98.89 236.2 98.83 236.17C97.62 235.7 96.63 235.37 95.71 235.07C95.71 235.07 95.71 235.06 95.7 235.05C91.15 233.15 87.47 231.3 84.76 228.8C82.36 226.6 80.7 223.82 79.75 219.95C86.51 221.24 92.69 221.35 98.53 223.95C99.01 224.21 99.48 224.47 99.95 224.74C101.45 225.58 102.99 226.38 104.64 225.99C104.65 225.99 104.66 225.99 104.68 225.98C104.68 225.98 104.68 225.98 104.69 225.98C104.74 225.96 104.79 225.94 104.84 225.91C104.88 225.88 104.92 225.84 104.95 225.8C104.95 225.8 104.96 225.78 104.97 225.77C104.97 225.77 104.98 225.75 104.99 225.74C104.99 225.73 105 225.72 105.01 225.71C105.01 225.71 105.01 225.69 105.02 225.69C105.02 225.68 105.02 225.66 105.03 225.65C105.03 225.65 105.03 225.64 105.03 225.63C105.03 225.63 105.03 225.61 105.03 225.6C105.03 225.59 105.03 225.57 105.03 225.56C105.03 225.56 105.03 225.56 105.03 225.55C105.03 225.53 105.03 225.52 105.03 225.5C105.03 225.5 105.03 225.49 105.03 225.48C105.03 225.47 105.03 225.46 105.03 225.44C105.03 225.43 105.03 225.42 105.03 225.4C105.03 225.4 105.03 225.38 105.03 225.37C105.03 225.37 105 225.28 104.97 225.25C104.95 225.21 104.92 225.18 104.89 225.15C104.89 225.15 104.89 225.15 104.88 225.14C104.86 225.12 104.83 225.1 104.8 225.08C103.46 224.23 102.47 223.59 101.54 223.02C93.57 217.98 86.3 212.6 81.48 206.22C76.88 200.13 74.46 193.15 75.57 184.47C79.99 189.89 84 193.3 90.29 196.94C90.87 197.43 91.44 197.8 92.02 198.08C92.3 198.22 92.58 198.33 92.86 198.43C92.87 198.43 92.88 198.44 92.89 198.45H92.91C93.91 198.79 94.9 198.93 95.93 199.05C95.99 199.05 96.04 199.05 96.1 199.05C96.1 199.05 96.1 199.05 96.11 199.05C96.18 199.04 96.25 199.01 96.3 198.98C96.3 198.98 96.3 198.98 96.31 198.98C96.37 198.94 96.42 198.9 96.46 198.84C96.48 198.81 96.5 198.78 96.52 198.74C96.52 198.74 96.52 198.73 96.52 198.72C96.52 198.71 96.52 198.69 96.53 198.68C96.53 198.68 96.53 198.66 96.53 198.65C96.53 198.64 96.53 198.63 96.53 198.62C96.53 198.62 96.53 198.61 96.53 198.6C96.53 198.55 96.53 198.49 96.53 198.44C96.52 198.39 96.5 198.34 96.47 198.29C96.44 198.24 96.4 198.2 96.36 198.16C96.34 198.14 96.32 198.13 96.3 198.11C95.51 197.61 94.83 197.21 94.21 196.84C94.21 196.81 94.19 196.79 94.18 196.77C92.33 195.29 90.81 193.7 89.52 192.03C89.51 192.01 89.5 191.99 89.49 191.97C89.46 191.91 89.41 191.85 89.35 191.8C86.04 187.4 84.5 182.44 84.28 177.25C84.02 171.15 85.6 164.78 88.2 158.93C89.89 165.28 94.59 171.56 99.09 176.89C99.1 176.92 99.12 176.96 99.14 176.99C101.75 180.39 103.12 182.31 106.01 183.85C106.03 183.85 106.06 183.87 106.08 183.87C106.11 183.88 106.15 183.9 106.19 183.9C106.23 183.9 106.26 183.9 106.3 183.9C106.34 183.9 106.37 183.9 106.41 183.9C106.45 183.9 106.48 183.88 106.51 183.87C106.54 183.87 106.56 183.86 106.58 183.85C106.6 183.84 106.62 183.83 106.64 183.82C106.7 183.78 106.75 183.73 106.78 183.67C106.79 183.65 106.8 183.63 106.81 183.61C106.81 183.61 106.81 183.58 106.82 183.57C106.82 183.57 106.82 183.55 106.82 183.54C106.82 183.54 106.82 183.52 106.82 183.51C106.82 183.5 106.82 183.48 106.82 183.47C106.82 183.45 106.82 183.43 106.82 183.41C106.82 183.4 106.82 183.39 106.82 183.38C106.82 183.37 106.82 183.35 106.82 183.34C106.82 183.32 106.82 183.3 106.8 183.28C106.8 183.26 106.78 183.24 106.77 183.22C106.77 183.22 106.76 183.19 106.75 183.18C106.75 183.17 106.74 183.16 106.73 183.15C106.15 182.29 105.69 181.47 105.27 180.63C100.99 172.07 98.46 164.1 98.61 156.45C98.74 149.76 100.9 143.28 105.79 136.74C104.5 149.49 107.12 158.86 114.84 171.01C114.86 171.02 114.89 171.04 114.91 171.05C115.78 172.27 116.86 173.18 118.08 174.04C118.08 174.04 118.08 174.04 118.09 174.04C118.11 174.04 118.12 174.06 118.14 174.06C118.18 174.08 118.23 174.1 118.28 174.12C118.3 174.12 118.33 174.12 118.35 174.13C118.4 174.13 118.44 174.13 118.49 174.13C118.51 174.13 118.54 174.13 118.56 174.13C118.61 174.12 118.66 174.1 118.71 174.08C118.72 174.08 118.73 174.08 118.75 174.07C118.75 174.07 118.75 174.07 118.76 174.07C118.8 174.04 118.84 174.01 118.88 173.97C118.88 173.97 118.89 173.95 118.9 173.94C118.9 173.94 118.91 173.92 118.92 173.91C118.92 173.91 118.92 173.89 118.93 173.88C118.93 173.87 118.94 173.86 118.95 173.84C118.95 173.84 118.95 173.82 118.96 173.81C118.96 173.81 118.96 173.79 118.96 173.78C118.96 173.77 118.96 173.76 118.96 173.74C118.96 173.74 118.96 173.72 118.96 173.71C118.96 173.7 118.96 173.69 118.96 173.67C118.96 173.67 118.96 173.65 118.96 173.64C118.96 173.62 118.96 173.61 118.96 173.59C118.96 173.59 118.96 173.59 118.96 173.58C118.96 173.56 118.96 173.54 118.96 173.53C118.96 173.51 118.95 173.49 118.94 173.47C118.94 173.47 118.92 173.43 118.91 173.4C118.9 173.38 118.89 173.36 118.88 173.35C118.02 172.15 117.34 171.02 116.81 169.82C110.24 147.56 119.06 127.97 135.23 111.68C127.67 134.17 130.01 159.59 133.56 182.62C133.7 183.51 134.91 183.89 135.56 183.24C143.67 175.17 148.69 171.6 160.14 170.45C151.22 182.06 133.04 196.78 122.46 211.33C116.88 219 113.34 226.72 114.67 234.09C115.95 241.18 121.86 247.64 133.98 253C134.11 253.06 134.24 253.12 134.37 253.18C134.28 252.3 134.02 251.46 133.64 250.66C131.58 249.77 129.56 248.85 127.69 247.6C127.39 247.4 127.17 247.14 126.98 246.86C120.8 242.8 117.77 238.42 116.94 233.81C115.77 227.29 118.95 220.02 124.39 212.54C135.26 197.58 154.83 182.15 163.49 169.74C164 169.01 163.35 168.03 162.4 168.1C149.56 168.93 143.45 172.57 135.53 180.17C131.96 156.23 130.04 130.14 139.13 107.83C139.32 107.37 139.13 106.84 138.66 106.56C138.2 106.28 137.6 106.33 137.22 106.68C120.21 122.33 109.51 141.59 113.06 163.45C107.92 153.53 106.69 145.17 108.55 133.15C108.71 132.09 107.23 131.46 106.5 132.29C99.55 140.18 96.47 148.16 96.3 156.37C96.18 162.36 97.62 168.46 100.13 174.76C95.11 168.64 90.22 161.56 89.82 155.19C89.75 154.1 88.14 153.76 87.63 154.73C83.99 161.66 81.6 169.59 81.92 177.3C82.15 182.67 83.77 187.93 87.16 192.61C82.75 189.57 79.65 186.36 75.68 181.21C75.08 180.44 73.79 180.67 73.61 181.58C71.54 191.95 74.21 200.38 79.54 207.44C83.12 212.18 87.88 216.31 93.19 220.12C88.31 219.02 83.38 218.77 78.42 217.66C77.63 217.48 76.91 218.09 77.04 218.83C77.95 223.91 80.04 227.57 83.09 230.38C84.59 231.76 86.31 232.92 88.21 233.99C86.73 234.06 85.22 234.42 82.93 235.15C82.37 235.33 82.06 235.88 82.23 236.42C84.14 242.4 87.93 247.9 93.08 251.68C95.78 253.67 98.88 255.15 102.25 255.99C98.97 256.4 95.69 256.58 92.44 256.28C91.38 256.18 90.79 257.34 91.54 258.05C95.32 261.64 98.5 262.63 102.96 263.24C101.76 264.56 100.56 265.85 99.28 267.06C98.69 267.62 98.98 268.58 99.81 268.82C104.87 270.27 108.06 270.26 112.38 269.56C112.3 269.8 112.23 270.04 112.15 270.28L112.2 270.1Z" fill="#2493EF"/>
<path d="M128.59 195.66C127.9 194.32 126.64 193.21 125.15 192.65C124.8 192.52 124.35 192.44 124.11 192.69C123.86 192.97 124.07 193.39 124.31 193.7C125.04 194.63 125.98 195.43 127.06 196.02C127.38 196.2 127.76 196.37 128.12 196.27C128.48 196.17 128.65 195.66 128.6 195.66H128.59Z" fill="#BED7F3"/>
<path d="M125.78 198.65C125.21 197.36 124.11 196.26 122.75 195.64C122.32 195.45 121.71 195.34 121.48 195.71C121.3 196 121.5 196.38 121.72 196.66C122.19 197.27 122.75 197.82 123.37 198.3C123.74 198.59 124.16 198.86 124.63 198.95C125.1 199.04 125.65 198.91 125.78 198.64V198.65Z" fill="#BED7F3"/>
<path d="M122.75 201.58C121.9 200.06 120.26 198.92 118.45 198.58C118.16 198.53 117.82 198.51 117.64 198.71C117.41 198.96 117.59 199.34 117.8 199.62C118.56 200.65 119.6 201.5 120.8 202.06C121.25 202.27 121.76 202.44 122.23 202.32C122.7 202.2 123.04 201.65 122.76 201.58H122.75Z" fill="#BED7F3"/>
<path d="M119.73 205.41C117.88 203.28 115.25 201.74 112.39 201.11C112.15 201.06 111.87 201.03 111.71 201.19C111.51 201.41 111.71 201.74 111.9 201.97C113.38 203.64 115.28 205 117.4 205.9C117.89 206.11 118.42 206.29 118.93 206.2C119.44 206.11 119.9 205.61 119.73 205.41Z" fill="#BED7F3"/>
<path d="M116.84 208.39C115.79 207.37 114.42 206.62 112.95 206.27C112.72 206.22 112.47 206.17 112.26 206.25C111.95 206.36 111.81 206.71 111.86 207.01C111.91 207.31 112.11 207.59 112.32 207.83C112.97 208.55 113.83 209.11 114.78 209.42C115.22 209.56 115.69 209.66 116.13 209.58C116.57 209.5 117 209.22 117.11 208.82C117.22 208.42 116.94 207.92 116.84 208.4V208.39Z" fill="#BED7F3"/>
<path d="M114.38 212.15C114.13 211.81 113.88 211.46 113.53 211.21C113.18 210.95 112.73 210.79 112.3 210.87C111.87 210.95 111.52 211.35 111.61 211.74C111.7 212.14 112.13 212.38 112.52 212.57C112.93 212.77 113.36 212.97 113.82 212.95C114.28 212.93 114.7 212.59 114.38 212.15Z" fill="#BED7F3"/>
<path d="M112.9 215.19C112.58 214.8 112.23 214.39 111.73 214.25C111.23 214.11 110.57 214.4 110.61 214.87C110.63 215.19 110.94 215.43 111.24 215.61C111.56 215.8 111.94 215.97 112.31 215.91C112.68 215.85 113.1 215.42 112.91 215.19H112.9Z" fill="#BED7F3"/>
<path d="M216.49 283.88C216.99 285.27 218.09 286.47 219.51 287.16C219.84 287.32 220.28 287.44 220.55 287.21C220.84 286.96 220.69 286.52 220.49 286.2C219.89 285.21 219.06 284.34 218.08 283.66C217.78 283.45 217.43 283.26 217.06 283.32C216.69 283.39 216.45 283.87 216.49 283.88Z" fill="#BED7F3"/>
<path d="M219.72 281.17C220.1 282.5 221.05 283.68 222.32 284.41C222.72 284.64 223.32 284.8 223.6 284.45C223.82 284.18 223.67 283.79 223.49 283.49C223.1 282.85 222.63 282.25 222.07 281.72C221.74 281.4 221.36 281.1 220.9 280.96C220.44 280.83 219.88 280.91 219.71 281.16L219.72 281.17Z" fill="#BED7F3"/>
<path d="M223.15 278.54C223.79 280.12 225.26 281.39 227.02 281.89C227.3 281.97 227.64 282.02 227.85 281.84C228.11 281.61 227.99 281.22 227.82 280.92C227.21 279.84 226.28 278.9 225.17 278.24C224.75 277.99 224.27 277.78 223.78 277.86C223.29 277.94 222.88 278.46 223.15 278.54Z" fill="#BED7F3"/>
<path d="M226.71 275.02C228.25 277.29 230.67 279.05 233.44 279.92C233.67 279.99 233.95 280.05 234.13 279.9C234.36 279.71 234.22 279.35 234.05 279.11C232.81 277.32 231.11 275.81 229.11 274.74C228.65 274.49 228.15 274.26 227.62 274.31C227.09 274.36 226.57 274.81 226.71 275.03V275.02Z" fill="#BED7F3"/>
<path d="M230.02 272.33C230.92 273.44 232.18 274.3 233.6 274.77C233.82 274.84 234.06 274.91 234.29 274.85C234.61 274.77 234.8 274.44 234.8 274.13C234.8 273.82 234.64 273.54 234.45 273.28C233.91 272.51 233.13 271.88 232.22 271.49C231.8 271.31 231.35 271.17 230.89 271.21C230.43 271.25 229.97 271.49 229.8 271.88C229.63 272.27 229.85 272.79 230.01 272.32L230.02 272.33Z" fill="#BED7F3"/>
<path d="M233 268.83C233.2 269.19 233.41 269.55 233.71 269.84C234.01 270.13 234.45 270.33 234.89 270.28C235.33 270.23 235.73 269.88 235.7 269.48C235.67 269.08 235.27 268.8 234.9 268.58C234.52 268.35 234.12 268.11 233.66 268.09C233.2 268.07 232.73 268.37 232.99 268.83H233Z" fill="#BED7F3"/>
<path d="M234.91 265.95C235.17 266.36 235.47 266.8 235.95 266.99C236.43 267.18 237.13 266.95 237.16 266.47C237.18 266.15 236.91 265.88 236.64 265.68C236.34 265.46 235.99 265.26 235.61 265.29C235.23 265.32 234.76 265.7 234.91 265.95Z" fill="#BED7F3"/>
<path d="M125.03 341.68C127.79 339.86 131.71 337.6 134.71 336.21C135.04 337.08 135.69 337.79 136.16 338.6C136.63 339.41 136.91 340.44 136.45 341.26C136.21 341.68 135.82 341.97 135.42 342.25C133.59 343.52 131.6 344.56 129.51 345.34C128.82 343.38 126.03 342.48 125.01 341.69L125.03 341.68Z" fill="#FDD847" stroke="#D97706" stroke-width="1.11" stroke-linecap="round" stroke-linejoin="round"/>
<path d="M134.92 250.65C125.19 249.18 115.21 254.67 109.81 262.88C104.4 271.1 103.15 281.55 104.72 291.26C106.29 300.97 110.46 310.07 115.21 318.68C122.19 331.31 131.14 343.73 144.23 349.79C149.17 352.08 155.67 353.34 159.65 349.63C172 338.11 177.19 285.22 171.67 272.82" fill="#DDEEFE"/>
<path d="M134.92 250.65C125.19 249.18 115.21 254.67 109.81 262.88C104.4 271.1 103.15 281.55 104.72 291.26C106.29 300.97 110.46 310.07 115.21 318.68C122.19 331.31 131.14 343.73 144.23 349.79C149.17 352.08 155.67 353.34 159.65 349.63C172 338.11 177.19 285.22 171.67 272.82" stroke="#2493EF" stroke-width="2" stroke-miterlimit="10"/>
<path d="M133.68 250.5C128.66 248.34 120.91 254.07 116.38 256.88C107.14 262.61 103.99 273.24 105.65 282.69C105.65 282.69 106.41 306.59 125.85 315.18C129.66 316.86 133.64 313.12 136.37 310.49C142.83 304.25 148.51 297.27 151.41 289.41C154.31 281.55 154.21 272.7 149.57 265.43" fill="white"/>
<path d="M134.92 250.65C125.19 249.18 115.21 254.67 109.81 262.88C104.4 271.1 103.15 281.55 104.72 291.26C106.29 300.97 110.46 310.07 115.21 318.68C122.19 331.31 131.14 343.73 144.23 349.79C149.17 352.08 155.67 353.34 159.65 349.63C172 338.11 177.19 285.22 171.67 272.82" stroke="#2493EF" stroke-width="2" stroke-miterlimit="10"/>
<path d="M122.89 342.25C122.19 341.77 120.39 341.8 118.1 343.47C115.7 345.22 115.35 351.55 119.99 355.21C120.34 352.02 127.18 345.2 122.89 342.25Z" fill="#FDD847" stroke="#D97706" stroke-width="1.11" stroke-linecap="round" stroke-linejoin="round"/>
<path d="M125.03 341.68C123.47 341.54 121.95 342.43 120.96 343.64C119.73 345.15 115.33 351.13 123.59 359.38C122.82 356.03 122.12 353.68 122.24 350.24C122.36 346.8 123.5 343.27 125.03 341.67V341.68Z" fill="#FDD847" stroke="#D97706" stroke-width="1.11" stroke-linecap="round" stroke-linejoin="round"/>
<path d="M118.54 350.2C117.87 350.05 117.15 350.13 116.52 350.41C116.85 351.41 117.18 352.41 117.72 353.31C118.26 354.21 119.03 355.01 120.01 355.38C119.31 353.78 118.93 352.05 118.53 350.2H118.54Z" fill="#F0EEE6" stroke="#63615D" stroke-width="1.11" stroke-linecap="round" stroke-linejoin="round"/>
<path d="M125.96 341.5C125.13 341.6 124.5 342.27 124.05 342.98C121.71 346.65 122.09 350.88 122.67 355.7C123.08 359.13 124.65 362.59 127.45 364.61C128.83 360.73 129.05 356.55 130.43 352.67C132.79 346.03 126.79 341.41 125.96 341.5Z" fill="#FDD847" stroke="#D97706" stroke-width="1.11" stroke-linecap="round" stroke-linejoin="round"/>
<path d="M122.36 351.34C121.52 350.76 120.49 350.46 119.47 350.49C119.22 350.49 118.94 350.54 118.8 350.74C118.68 350.91 118.7 351.14 118.72 351.35C119.02 353.66 119.95 355.89 121.38 357.73C121.95 358.46 122.7 359.18 123.63 359.17C122.55 356.63 122.23 353.78 122.36 351.34Z" fill="#F0EEE6" stroke="#63615D" stroke-width="1.11" stroke-linecap="round" stroke-linejoin="round"/>
<path d="M128.58 353C127.15 352.23 125.53 351.82 123.9 351.81C123.47 351.81 123.02 351.84 122.68 352.1C122.11 352.54 122.12 353.38 122.19 354.1C122.41 356.41 122.66 358.75 123.57 360.89C124.48 363.03 126.15 364.95 128.38 365.6C127.37 361.42 127.59 356.96 128.58 353.01V353Z" fill="#F0EEE6" stroke="#63615D" stroke-width="1.11" stroke-linecap="round" stroke-linejoin="round"/>
<path d="M136.01 351.66C136.84 350.45 132.47 349.52 131.04 349.87C130.14 350.09 129.55 350.95 129.12 351.77C127.13 355.59 126.74 360.21 128.06 364.31C129.05 363.74 131.21 364.01 132.19 364.6C132.23 362.12 131.51 359.36 132.28 357C133.05 354.64 133.81 354.88 136.01 351.65V351.66Z" fill="#FEF2C3" stroke="#D97706" stroke-width="1.11" stroke-linecap="round" stroke-linejoin="round"/>
<path d="M132.02 362.03C130.73 360.92 128.79 360.32 127.29 361.12C126.24 366.84 133.49 372.42 135.01 372.84C133.3 369.34 131.53 365.56 132.02 362.03Z" fill="#F0EEE6" stroke="#63615D" stroke-width="1.11" stroke-linecap="round" stroke-linejoin="round"/>
<path d="M140 352.08C139.38 350.99 137.81 350.75 136.66 351.27C135.51 351.79 134.72 352.85 134.06 353.92C132.53 356.39 131.39 359.28 131.8 362.15C132.21 365.02 134.59 367.75 137.49 367.76C138.53 364.51 139.56 361.27 140.6 358.02C140.96 356.89 141.33 355.72 141.23 354.54C141.13 353.36 140.45 352.14 140 352.08Z" fill="#FEF2C3" stroke="#D97706" stroke-width="1.11" stroke-linecap="round" stroke-linejoin="round"/>
<path d="M139.32 362.61C137.9 360.95 135.81 359.88 133.64 359.69C132.97 359.63 132.19 359.7 131.77 360.23C131.34 360.76 131.57 361.51 131.57 362.19C131.57 367.33 134.17 374.47 139.1 374.47C138.11 370.58 138.26 366.4 139.33 362.6L139.32 362.61Z" fill="#F0EEE6" stroke="#63615D" stroke-width="1.11" stroke-linecap="round" stroke-linejoin="round"/>
<path d="M137.22 350.65C140.29 349.89 143.35 349.12 146.42 348.36C152.27 346.9 158.23 345.4 163.38 342.25C164.05 343.7 163.66 345.48 162.74 346.79C161.82 348.1 160.44 349.02 159.05 349.8C153.62 352.85 147.46 354.29 141.39 355.7C141.47 353.11 138.86 350.78 136.29 351.15C136.4 350.96 136.52 350.82 137.23 350.65H137.22Z" fill="#FEF2C3" stroke="#D97706" stroke-width="1.11" stroke-linecap="round" stroke-linejoin="round"/>
<path d="M128.28 355.62C130.45 356.06 131.33 356.55 132.74 354.83C131.29 357.28 131.43 358.46 131.18 361.12C130.1 360.28 129.23 360.06 127.88 360.27C127.8 358.9 127.67 357.99 128.29 355.61L128.28 355.62Z" fill="#FDD847"/>
<path d="M133.58 355.98C136.09 356.74 138.18 356.64 140.63 355.7C140.25 357.81 139.52 359.24 138.97 361.44C136.9 360 134.67 358.76 132.41 359.26C132.69 357.9 133.25 356.48 133.58 355.99V355.98Z" fill="#FDD847"/>
<path d="M144 331.42C145.16 336.37 145.15 341.6 143.96 346.54C145.04 345.63 146.11 344.72 147.19 343.81C148.22 346.37 148.01 349.4 146.64 351.79C148.77 351 150.4 348.98 150.73 346.73C152.17 351.47 151.73 356.75 149.52 361.19C153.73 359.62 157.18 356.12 158.7 351.9C159.1 355.94 158.63 360.07 157.34 363.92C160.28 360.68 162.33 356.65 163.22 352.37C165.11 353.48 166.34 355.64 166.34 357.83C168.7 355.11 169.96 351.47 169.79 347.88C169.62 344.29 168.03 340.78 165.43 338.29C167.08 339.5 168.4 341.16 169.21 343.04C171.93 337.58 170.41 330.35 165.72 326.45" fill="#DDEEFE"/>
<path d="M144 331.42C145.16 336.37 145.15 341.6 143.96 346.54C145.04 345.63 146.11 344.72 147.19 343.81C148.22 346.37 148.01 349.4 146.64 351.79C148.77 351 150.4 348.98 150.73 346.73C152.17 351.47 151.73 356.75 149.52 361.19C153.73 359.62 157.18 356.12 158.7 351.9C159.1 355.94 158.63 360.07 157.34 363.92C160.28 360.68 162.33 356.65 163.22 352.37C165.11 353.48 166.34 355.64 166.34 357.83C168.7 355.11 169.96 351.47 169.79 347.88C169.62 344.29 168.03 340.78 165.43 338.29C167.08 339.5 168.4 341.16 169.21 343.04C171.93 337.58 170.41 330.35 165.72 326.45" stroke="#2493EF" stroke-width="1.11" stroke-linecap="round" stroke-linejoin="round"/>
<path d="M162.24 282.36C153.62 285.58 149.53 296.66 154.09 304.45C155.92 302.93 157.76 301.41 159.59 299.89C160.85 303.76 163.03 307.37 165.92 310.36C164.84 303.56 165.16 296.59 166.85 289.95C166.16 303.08 177.33 315.96 191.02 317.83C192.82 312.72 192.19 306.85 189.35 302.12C193.14 311.32 202.19 318.44 212.38 320.22C211.34 310.61 207.65 300.2 201.03 292.82C211.64 311.02 234.61 322.7 255.89 318.88C247.45 314.91 240.25 308.52 235.5 300.77C248.8 309.99 262.24 312.33 281.29 300.8C270.67 298.66 260.57 294.08 252.1 287.55C261.24 289.39 270.52 291.24 279.81 290.68C289.1 290.12 298.57 286.85 304.42 280.03C290.67 283.52 275.33 281.25 263.19 273.92C275.92 276.65 289.37 273.94 300.89 268.34C312.41 262.74 322.19 254.43 331.15 245.57C303.62 256.18 278.59 258.97 248.12 257.19C255.4 249.54 260.5 238 259 229C248.12 238.5 235.04 255.28 220.13 270.48C213.79 276.94 203.56 283.04 194.36 284.51C185.16 285.98 177.72 280.89 170.06 275.6C166.58 278.96 163.09 282.33 159.61 285.69" fill="#DDEEFE"/>
<path d="M195.82 311.27C198.22 312.27 201.09 312.27 203.49 311.29C205.89 310.31 207.8 308.35 208.57 306.05C209.76 309.92 210.96 313.79 212.15 317.66C212.36 318.34 212.57 319.06 212.33 319.73C212.01 320.65 210.89 321.19 209.83 321.21C208.77 321.23 207.76 320.85 206.8 320.42C202.29 318.4 198.35 315.33 195.8 311.26L195.82 311.27Z" fill="#BED7F3"/>
<path d="M167.92 301.03C174.54 307.38 183.76 311.41 193.33 312.15C192.5 313.94 191.98 315.85 191.81 317.78C181.6 316.26 172.39 309.93 167.92 301.03Z" fill="#BED7F3"/>
<path d="M217.49 310.03C223.2 312.36 229.68 313.08 235.83 312.06C237.91 311.72 239.99 311.18 242.09 311.4C247.37 311.95 250.77 316.92 255.77 318.57C242.77 322.49 227.48 319.17 217.49 310.02V310.03Z" fill="#BED7F3"/>
<path d="M238.57 303.82C247.01 304.94 255.84 305.92 263.89 303.36C267.2 302.3 270.28 300.67 273.65 299.81C277.03 298.95 280.96 298.98 283.68 301C276.71 305.44 268.99 309.24 260.57 310.33C252.15 311.41 242.91 309.39 238.56 303.83L238.57 303.82Z" fill="#BED7F3"/>
<path d="M250.64 286.2C269.46 286.73 288.37 284.12 306.18 278.55C299.4 285.7 289.76 290.55 279.51 291.97C269.26 293.39 258.48 291.37 250.64 286.2Z" fill="#BED7F3"/>
<path d="M271.54 275.45C282.39 273.33 292.68 268.81 301.26 262.38C305.76 259.01 309.79 255.13 314.48 251.98C319.16 248.83 324.72 246.39 330.54 246.49C328.65 252.96 322.75 257.78 316.66 261.53C302.74 270.1 286.24 275.16 271.55 275.44L271.54 275.45Z" fill="#BED7F3"/>
<path d="M261.06 310.51C270.03 309.64 278.88 305.98 286.42 301.2C287.48 300.53 286.88 298.94 285.6 299.04C278.19 299.63 269.36 295.76 261.62 291.61C269.24 293.19 276.48 293.7 283.39 292.65C292.86 291.21 301.68 286.83 309.9 278.55C310.76 277.68 309.85 276.27 308.64 276.6C294.98 280.36 285.15 280.41 273.01 276.73C298.75 276.94 319.63 263.07 335.5 243.35C335.85 242.91 335.83 242.29 335.45 241.87C335.07 241.44 334.43 241.33 333.91 241.59C309.29 254.29 278.88 256.4 250.73 256.49C258.48 247.26 261.88 240.49 261.17 227.3C261.12 226.32 259.9 225.81 259.12 226.44C245.9 237.17 230.61 259.46 214.74 272.83C206.8 279.52 198.81 283.88 191.12 283.7C184.84 283.55 178.51 280.41 172.15 272.67C171.65 272.13 171.18 271.54 170.77 270.91C170.62 270.71 170.47 270.5 170.32 270.3C170.29 270.33 170.25 270.37 170.22 270.4C169.95 270.97 169.45 271.47 168.67 271.82C168.61 271.85 168.56 271.87 168.5 271.89C175.75 281.59 183.37 285.86 191.1 286.04C199.8 286.24 208.26 281.45 216.4 274.58C231.84 261.57 246.49 240.8 258.74 229.93C258.91 241.74 255.44 247.39 247.17 256.9C246.5 257.67 247.09 258.84 248.14 258.84C275.23 258.87 304.93 257.29 329.95 246.11C314.58 263.53 295.17 275.06 271.49 274.33C271.39 274.27 271.28 274.25 271.16 274.25C270.56 274.28 269.98 274.28 269.42 274.27C268.36 274.21 267.28 274.08 266.2 273.97C264.32 273.64 262.57 273.04 260.67 272.17C260.65 272.17 260.64 272.17 260.62 272.16C260.57 272.14 260.52 272.13 260.46 272.12C260.43 272.12 260.41 272.12 260.38 272.12C260.33 272.12 260.28 272.12 260.23 272.14C260.21 272.14 260.18 272.15 260.16 272.16C260.11 272.18 260.06 272.21 260.02 272.24C260 272.24 259.99 272.26 259.97 272.27C259.97 272.27 259.97 272.27 259.96 272.27C259.91 272.32 259.87 272.37 259.84 272.43C259.84 272.44 259.84 272.46 259.84 272.47C259.82 272.52 259.8 272.57 259.8 272.63C259.8 272.65 259.8 272.68 259.8 272.7C259.8 272.75 259.8 272.79 259.82 272.84C259.82 272.86 259.83 272.89 259.84 272.91C259.86 272.96 259.89 273 259.92 273.04C259.93 273.06 259.94 273.07 259.95 273.09C259.95 273.09 259.95 273.09 259.95 273.1C261.11 274.22 262.32 275.18 263.87 275.88C263.9 275.94 263.93 276 263.97 276.06C279.03 282.01 290.21 283.22 304.79 279.93C297.87 285.91 290.66 289.12 282.94 290.29C276.35 291.29 269.35 290.8 261.88 289.24C261.83 289.2 261.77 289.18 261.71 289.16C257.07 287.82 254.33 287.49 250.91 286.05C250.88 286.05 250.86 286.04 250.83 286.03C250.79 286.02 250.75 286.01 250.71 286C250.67 286 250.63 286 250.59 286C250.55 286 250.51 286.01 250.47 286.02C250.43 286.03 250.4 286.05 250.37 286.07C250.34 286.08 250.32 286.09 250.29 286.11C250.29 286.11 250.27 286.13 250.26 286.14C250.23 286.17 250.21 286.19 250.18 286.22C250.15 286.25 250.13 286.28 250.11 286.31C250.11 286.31 250.1 286.33 250.09 286.34C250.09 286.37 250.08 286.39 250.07 286.42C250.06 286.46 250.05 286.49 250.05 286.53C250.05 286.57 250.05 286.61 250.05 286.64C250.05 286.68 250.06 286.72 250.07 286.75C250.08 286.79 250.1 286.82 250.12 286.85C250.13 286.87 250.14 286.9 250.16 286.92C252.17 289.43 254.41 290.56 258.15 292.42C265.14 296.36 273.41 300.52 281.39 301.29C274.96 304.84 267.81 307.44 260.72 308.12C254.71 308.7 248.79 307.91 243.29 305.25C243.21 305.11 243.08 305.01 242.92 304.97C242.7 304.91 242.49 304.84 242.29 304.78C240.42 303.79 238.6 302.57 236.85 301.09C236.84 301.09 236.83 301.09 236.81 301.09C236.27 300.48 235.67 299.79 234.92 299C234.92 299 234.9 298.99 234.89 298.98C234.85 298.95 234.81 298.92 234.77 298.89C234.75 298.88 234.73 298.87 234.71 298.85C234.64 298.82 234.57 298.8 234.5 298.8C234.49 298.8 234.48 298.8 234.47 298.8C234.42 298.8 234.36 298.8 234.31 298.81C234.31 298.81 234.29 298.81 234.28 298.82C234.26 298.82 234.24 298.84 234.21 298.85C234.17 298.87 234.12 298.89 234.08 298.92C234.07 298.92 234.05 298.93 234.04 298.94C234.04 298.94 234.02 298.96 234.02 298.97C233.98 299 233.95 299.04 233.93 299.09C233.92 299.11 233.91 299.12 233.9 299.14C233.87 299.2 233.85 299.27 233.85 299.34V299.36C233.85 299.41 233.85 299.46 233.87 299.52C234.23 300.85 234.61 302.13 235.51 303.35C235.89 303.86 236.36 304.36 236.95 304.84C242.06 310.81 246.55 314.4 253.49 318.1C243.6 320.57 235.21 319.2 227.57 315.47C219.79 311.67 212.8 305.38 206.11 298.31C205.14 297.22 204.11 296.16 202.61 294.56C202.6 294.56 202.59 294.54 202.58 294.53C202.55 294.5 202.52 294.48 202.49 294.46C202.47 294.45 202.45 294.44 202.43 294.43C202.4 294.41 202.36 294.4 202.32 294.39C202.3 294.39 202.28 294.38 202.26 294.37C202.26 294.37 202.24 294.37 202.23 294.37C202.2 294.37 202.18 294.37 202.16 294.37C202.13 294.37 202.1 294.37 202.07 294.37C202.04 294.37 202.01 294.38 201.98 294.39C201.95 294.39 201.92 294.41 201.89 294.42C201.86 294.43 201.84 294.45 201.81 294.47C201.79 294.48 201.77 294.49 201.75 294.51C201.75 294.51 201.74 294.52 201.73 294.53C201.71 294.55 201.69 294.58 201.67 294.6C201.65 294.62 201.63 294.65 201.62 294.68C201.61 294.71 201.59 294.74 201.59 294.77C201.58 294.8 201.57 294.83 201.56 294.86C201.56 294.86 201.56 294.87 201.56 294.88C201.33 296.61 202.45 298.05 203.62 299.45C203.99 299.89 204.37 300.34 204.73 300.79C208.57 306.36 209.49 312.66 211.89 319.38C207.29 319.02 203.87 317.76 201 315.67C197.76 313.3 195.14 309.85 192.35 305.52C192.34 305.52 192.33 305.52 192.31 305.52C191.82 304.6 191.3 303.6 190.55 302.38C190.52 302.32 190.47 302.27 190.42 302.23C190.41 302.22 190.39 302.21 190.37 302.2C190.33 302.17 190.28 302.14 190.22 302.12C190.2 302.12 190.17 302.11 190.14 302.1C190.09 302.09 190.04 302.08 190 302.08C189.98 302.08 189.97 302.08 189.95 302.08C189.94 302.08 189.93 302.08 189.92 302.08C189.87 302.08 189.82 302.1 189.77 302.12C189.75 302.12 189.73 302.13 189.71 302.14C189.71 302.14 189.71 302.14 189.7 302.14C189.64 302.17 189.59 302.21 189.54 302.26C189.53 302.27 189.52 302.29 189.51 302.31C189.48 302.35 189.45 302.4 189.43 302.44C189.43 302.46 189.41 302.49 189.41 302.51C189.4 302.55 189.39 302.6 189.4 302.65C189.4 302.66 189.4 302.68 189.4 302.7C189.65 305.19 190.09 307.04 191.1 309.09C191.61 310.45 192.01 311.57 192.15 312.43C192.33 313.55 192.18 314.85 191.79 316.8C185.54 315.7 179.62 312.99 175.28 309C170.67 304.75 167.8 299.13 168.03 292.33C167.99 292.24 167.95 292.16 167.89 292.08C167.92 291.98 167.92 291.88 167.89 291.78C167.77 291.34 167.53 290.96 167.33 290.52C167.13 290.09 166.97 289.64 166.96 289.22C166.96 289.2 166.96 289.18 166.96 289.16C166.96 289.15 166.96 289.13 166.96 289.12C166.95 289.06 166.92 288.99 166.89 288.93C166.89 288.93 166.89 288.93 166.89 288.92C166.89 288.92 166.88 288.91 166.87 288.9C166.83 288.84 166.78 288.79 166.72 288.75C166.72 288.75 166.71 288.75 166.7 288.75C166.64 288.71 166.58 288.68 166.51 288.66C166.51 288.66 166.51 288.66 166.5 288.66C166.45 288.65 166.4 288.64 166.35 288.64C166.33 288.64 166.31 288.64 166.28 288.64C166.27 288.64 166.26 288.64 166.25 288.64C166.18 288.65 166.11 288.67 166.05 288.71C166.05 288.71 166.03 288.72 166.02 288.73C165.96 288.77 165.9 288.81 165.86 288.87C165.86 288.87 165.86 288.87 165.86 288.88C165.82 288.94 165.79 289 165.77 289.07C165.77 289.07 165.77 289.07 165.77 289.08C165.77 289.08 165.77 289.09 165.77 289.1C165.14 291.61 164.94 293.55 165.26 295.91C164.9 300.32 164.73 304.83 165.37 309.31C162.62 306.73 161.88 304.31 160.74 299.81C160.51 298.89 159.29 298.58 158.62 299.26C157.2 300.72 155.79 302.22 154.41 303.77C152.73 299.71 152.58 297.05 152.95 292.38L154.25 290.67C157.44 288.14 160.06 284.84 163.09 281.15C163.3 280.9 163.25 280.52 162.98 280.32C162.71 280.12 162.32 280.16 162.11 280.41C158.99 284.2 155.69 286.73 152.31 289.09C151.33 289.77 150.35 290.42 149.38 291.04C149.68 291.8 149.62 292.57 149.32 293.26C149.4 293.43 149.45 293.6 149.5 293.77C149.81 293.58 150.12 293.41 150.43 293.22C150.12 298.06 150.46 301.36 152.9 306.51C153.29 307.32 154.43 307.47 155 306.78C156.23 305.29 157.57 303.87 158.94 302.45C160.22 306.89 161.79 309.96 166.43 313.25C167.35 313.9 168.62 313.13 168.37 312.06C167.59 308.8 167.37 305.44 167.42 302.04C168.82 305.34 170.95 308.25 173.6 310.69C178.65 315.33 185.5 318.33 192.66 319.35C193.3 319.44 193.9 319.05 194.04 318.45C194.59 316.01 194.81 314.41 194.69 312.9C196.17 314.67 197.74 316.23 199.53 317.54C203.18 320.21 207.69 321.77 213.68 321.9C214.55 321.92 215.16 321.1 214.85 320.32C212.92 315.45 211.99 310.48 210.07 305.69C215.17 310.49 220.56 314.69 226.51 317.59C235.37 321.91 245.47 323.31 257.19 319.6C258.22 319.27 258.32 317.93 257.35 317.44C250.87 314.21 246.75 311.55 242.66 307.54C248.51 310.26 254.81 311.08 261.05 310.48L261.06 310.51Z" fill="#2493EF"/>
<path d="M270.58 327.7C269.51 326.07 268.43 324.43 267.36 322.8L270.58 327.7Z" fill="#DDEEFE"/>
<path d="M174.55 271.5C199.403 271.5 219.55 251.353 219.55 226.5C219.55 201.647 199.403 181.5 174.55 181.5C149.697 181.5 129.55 201.647 129.55 226.5C129.55 251.353 149.697 271.5 174.55 271.5Z" fill="url(#paint0_radial_2150_1558)" stroke="#2493EF" stroke-linejoin="round"/>
<path d="M135.84 245.77C134.95 246.7 133.28 251.99 134.08 252.99C144.18 265.75 151.22 271.38 168.88 273.97C170.21 274.16 175.06 269.9 175.1 268.56C152.05 267.46 142.79 259.45 135.85 245.77H135.84Z" fill="#F15A24" stroke="#175FB6" stroke-width="0.93" stroke-linejoin="round"/>
<path d="M154.732 265.269L144.662 258.891C143.071 257.883 140.966 258.354 139.959 259.943C138.953 261.531 139.427 263.636 141.018 264.644L151.088 271.022C152.679 272.03 154.785 271.559 155.791 269.97C156.797 268.382 156.323 266.277 154.732 265.269Z" fill="#F15A24" stroke="black" stroke-width="0.39" stroke-miterlimit="10"/>
<path d="M144.71 264.95C145.815 264.95 146.71 264.055 146.71 262.95C146.71 261.845 145.815 260.95 144.71 260.95C143.605 260.95 142.71 261.845 142.71 262.95C142.71 264.055 143.605 264.95 144.71 264.95Z" fill="white" stroke="black" stroke-width="0.3" stroke-miterlimit="10"/>
<path d="M147.87 267.17C148.389 267.17 148.81 266.749 148.81 266.23C148.81 265.711 148.389 265.29 147.87 265.29C147.351 265.29 146.93 265.711 146.93 266.23C146.93 266.749 147.351 267.17 147.87 267.17Z" fill="#00FF00"/>
<path d="M149.32 264.83C149.839 264.83 150.26 264.409 150.26 263.89C150.26 263.371 149.839 262.95 149.32 262.95C148.801 262.95 148.38 263.371 148.38 263.89C148.38 264.409 148.801 264.83 149.32 264.83Z" fill="#0000FF"/>
<path d="M124.471 267.255C124.452 267.53 124.66 267.769 124.935 267.789C125.21 267.808 125.449 267.6 125.469 267.325L124.471 267.255ZM125.36 261.73L125.859 261.765L125.859 261.761L125.36 261.73ZM125.97 259.94L126.295 260.32L126.297 260.318L125.97 259.94ZM128.05 264.19L127.576 264.031C127.49 264.289 127.625 264.569 127.881 264.661C128.137 264.752 128.42 264.623 128.517 264.369L128.05 264.19ZM132.68 257.75L132.38 257.35L132.378 257.351L132.68 257.75ZM134.73 257L134.81 256.507L134.81 256.506L134.73 257ZM135.79 261.42L136.259 261.594L136.259 261.594L135.79 261.42ZM127.405 274.931C127.229 275.143 127.258 275.458 127.471 275.635C127.683 275.811 127.998 275.782 128.175 275.569L127.405 274.931ZM125.469 267.325L125.859 261.765L124.861 261.695L124.471 267.255L125.469 267.325ZM125.859 261.761C125.879 261.438 125.907 261.141 125.978 260.881C126.049 260.626 126.151 260.443 126.295 260.32L125.645 259.56C125.299 259.857 125.116 260.244 125.014 260.616C124.913 260.984 124.881 261.372 124.861 261.699L125.859 261.761ZM126.297 260.318C126.511 260.133 126.839 260.099 127.219 260.273C127.6 260.448 127.92 260.791 128.032 261.157L128.988 260.863C128.78 260.189 128.24 259.642 127.636 259.364C127.031 259.086 126.249 259.037 125.643 259.562L126.297 260.318ZM128.032 261.157C128.294 262.007 127.983 262.965 127.583 264.011L128.517 264.369C128.897 263.375 129.366 262.093 128.988 260.863L128.032 261.157ZM128.524 264.349C129.342 261.905 130.922 259.708 132.982 258.149L132.378 257.351C130.158 259.032 128.458 261.395 127.576 264.031L128.524 264.349ZM132.98 258.15C133.581 257.699 134.136 257.41 134.65 257.494L134.81 256.506C133.844 256.35 132.979 256.901 132.38 257.35L132.98 258.15ZM134.65 257.494C135.21 257.585 135.699 258.209 135.783 258.938L136.777 258.822C136.661 257.831 135.97 256.695 134.81 256.507L134.65 257.494ZM135.783 258.938C135.868 259.664 135.624 260.428 135.321 261.246L136.259 261.594C136.556 260.792 136.892 259.816 136.777 258.822L135.783 258.938ZM135.321 261.246C133.481 266.213 130.79 270.854 127.405 274.931L128.175 275.569C131.63 271.406 134.379 266.667 136.259 261.594L135.321 261.246Z" fill="#2493EF"/>
<path d="M39.07 69.38C37.92 54.15 42.15 47.28 43.93 46.36C49.01 43.73 60.3 52.76 65.61 62.21C73.69 57.19 83.15 56.58 87.28 56.95C88.09 57.02 90.24 58.57 90.44 59.35C92.27 66.54 80.02 79.08 80.63 80.04C83.66 84.71 91.83 98.12 89.51 101.43C86.37 105.91 75.46 103.39 66.07 100.44C63.44 107.68 53.82 117.47 46.77 116.51C43.93 116.12 38.88 109.18 40.57 91.72C24.93 87.66 16.9 85.66 18.48 79.71C19.24 76.86 27.43 70.91 39.32 68.93" fill="#FEF2C3"/>
<path d="M39.07 69.38C37.92 54.15 42.15 47.28 43.93 46.36C49.01 43.73 60.3 52.76 65.61 62.21C73.69 57.19 83.15 56.58 87.28 56.95C88.09 57.02 90.24 58.57 90.44 59.35C92.27 66.54 80.02 79.08 80.63 80.04C83.66 84.71 91.83 98.12 89.51 101.43C86.37 105.91 75.46 103.39 66.07 100.44C63.44 107.68 53.82 117.47 46.77 116.51C43.93 116.12 38.88 109.18 40.57 91.72C24.93 87.66 16.9 85.66 18.48 79.71C19.24 76.86 27.43 70.91 39.32 68.93" stroke="#FDD847" stroke-width="2" stroke-miterlimit="10" stroke-linecap="round"/>
<path opacity="0.3" d="M40.56 97.77C39.67 101.34 42.46 105.12 45.99 106.14C49.52 107.16 53.4 105.91 56.35 103.73C59.3 101.55 61.51 98.52 63.67 95.54C68.13 95.89 72.72 94.19 75.88 91.02C79.04 87.85 80.72 83.25 80.35 78.79C83.23 83.68 85.96 88.66 88.54 93.72C89.86 96.32 91.12 99.55 89.53 102C87.89 104.52 84.26 104.58 81.28 104.14C76.26 103.39 71.34 102.01 66.66 100.04C63.22 105.69 59.55 111.57 53.82 114.87C51.4 116.27 48.33 117.12 45.84 115.84C44.25 115.02 43.17 113.46 42.36 111.86C40.24 107.71 39.46 102.89 40.56 97.77Z" fill="#FDD847"/>
<path d="M45.59 49.54C45.46 50.39 45.64 51.28 46.1 52C46.23 52.2 46.41 52.41 46.65 52.41C46.86 52.41 47.03 52.24 47.11 52.05C47.19 51.86 47.19 51.65 47.18 51.44C47.17 50.87 47.14 50.27 46.86 49.77C46.58 49.27 45.71 48.82 45.59 49.53V49.54Z" fill="#FDD847"/>
<path d="M43.21 52.85C43.53 53.56 43.96 54.22 44.49 54.79C44.69 55.01 45.03 55.22 45.24 55.02C45.37 54.9 45.37 54.7 45.35 54.52C45.2 53.3 44.39 52.17 43.29 51.63C43.15 52.02 43.05 52.47 43.21 52.85Z" fill="#FDD847"/>
<path d="M49.15 50.61C48.95 51.28 48.9 52 48.98 52.7C49 52.88 49.06 53.09 49.23 53.16C49.49 53.27 49.72 52.95 49.8 52.68C49.94 52.21 49.99 51.71 49.93 51.22C49.89 50.92 49.79 50.59 49.52 50.46C49.25 50.33 48.84 50.62 49.15 50.61Z" fill="#FDD847"/>
<path d="M43.09 56.36C43.22 56.87 43.56 57.32 44.02 57.57C44.15 57.64 44.31 57.69 44.43 57.62C44.57 57.53 44.57 57.33 44.53 57.17C44.33 56.42 43.45 55.94 43.09 56.36Z" fill="#FDD847"/>
<path d="M52.3 52.89C51.96 53.44 51.82 54.11 51.93 54.75C51.96 54.93 52.03 55.13 52.2 55.19C52.35 55.25 52.54 55.16 52.64 55.03C52.74 54.9 52.78 54.73 52.82 54.57C52.89 54.26 52.97 53.94 52.88 53.64C52.79 53.34 52.48 53.08 52.31 52.89H52.3Z" fill="#FDD847"/>
<path d="M23.08 80.06C22.32 80 21.54 80.23 20.93 80.68C20.78 80.79 20.62 80.95 20.63 81.14C20.65 81.47 21.09 81.55 21.42 81.52C22.37 81.42 23.3 81.12 24.13 80.64C24.28 80.55 24.44 80.42 24.41 80.25C24.38 80.09 24.18 80.02 24.02 80C23.51 79.94 22.99 80 23.08 80.06Z" fill="#FDD847"/>
<path d="M25.55 78.14C24.93 77.79 24.21 77.64 23.5 77.7C23.32 77.72 23.13 77.75 22.99 77.86C22.85 77.97 22.77 78.19 22.86 78.34C22.94 78.48 23.12 78.52 23.27 78.55C23.64 78.63 24.02 78.71 24.39 78.78C24.59 78.82 24.8 78.86 25 78.82C25.2 78.78 25.39 78.61 25.4 78.4C25.41 78.19 25.16 78 25.54 78.13L25.55 78.14Z" fill="#FDD847"/>
<path d="M27.55 76.89C27 76.51 26.31 76.34 25.65 76.4C25.67 76.85 26.13 77.14 26.56 77.3C26.78 77.38 27.02 77.46 27.25 77.42C27.48 77.38 27.71 77.19 27.71 76.95C27.71 76.71 27.4 76.52 27.56 76.89H27.55Z" fill="#FDD847"/>
<path d="M25 82.43C24.33 82.45 23.67 82.79 23.27 83.33C23.09 83.57 23.01 83.98 23.27 84.11C23.42 84.19 23.61 84.11 23.76 84.03C24.35 83.69 24.85 83.18 25.16 82.58C25.08 82.55 25.01 82.52 25 82.43Z" fill="#FDD847"/>
<path d="M39.07 69.38C37.92 54.15 42.15 47.28 43.93 46.36C49.01 43.73 60.3 52.76 65.61 62.21C73.69 57.19 83.15 56.58 87.28 56.95C88.09 57.02 90.24 58.57 90.44 59.35C92.27 66.54 80.02 79.08 80.63 80.04C83.66 84.71 91.83 98.12 89.51 101.43C86.37 105.91 75.46 103.39 66.07 100.44C63.44 107.68 53.82 117.47 46.77 116.51C43.93 116.12 38.88 109.18 40.57 91.72C24.93 87.66 16.9 85.66 18.48 79.71C19.24 76.86 27.43 70.91 39.32 68.93" stroke="#FDD847" stroke-width="2" stroke-miterlimit="10" stroke-linecap="round"/>
<path d="M93.97 78.59C93.76 78.03 93.32 77.56 92.78 77.33C92.78 77.33 93.4 77.58 93.59 77.49C105.99 71.7 113.14 68.32 122.99 59.45C125.93 56.8 127.91 53.12 128.87 49.28C129.83 45.44 129.21 41.04 126.5 38.16C123.29 34.74 117.99 34.2 113.39 35.11C109.32 35.92 105.44 37.69 102.17 40.25C101.06 33.74 95.26 28.32 88.69 27.66C82.12 27 75.36 31.16 72.98 37.32C70.51 43.73 72.61 50.98 75.58 57.17" fill="#FECACA"/>
<path d="M102.36 69.65C99.77 70.38 97.06 70.83 94.38 70.55C89.48 70.04 86.21 67.36 82.95 63.67C79.69 59.98 75.34 55.17 73.08 50.79C75.19 58.41 79.66 65.03 84.55 70.26C85.8 71.6 90 76.58 90.27 78.27C92.1 79.67 91.6 77.08 93.89 76.89C93.74 76.64 93.52 76.45 93.22 76.35C106.95 71.18 114.64 67.19 121.89 59.19C115.99 62.78 109 67.79 102.35 69.65H102.36Z" fill="#F4B0B0"/>
<path d="M110.5 69.17C115.2 66.1 119.48 62.34 123.07 58.02C126.63 53.74 129.62 48.35 128.44 42.59C125.82 29.76 108.84 33.94 101.58 39.61C100.67 34.27 96.62 29.68 91.57 27.83C81.19 24.02 71.01 32.92 71.31 43.4C71.48 49.33 74.02 54.99 76.82 60.1C79.62 65.21 90.27 78.25 90.27 78.25C90.27 78.25 105.22 72.61 110.5 69.15V69.17Z" stroke="#EF4444" stroke-width="2" stroke-linecap="round" stroke-linejoin="round"/>
<path d="M120.18 41.47C120.63 40.66 121.34 40 122.18 39.62C122.45 39.5 122.85 39.44 122.99 39.7C123.1 39.91 122.96 40.16 122.81 40.35C122.31 40.96 121.68 41.48 120.98 41.85C120.78 41.96 120.56 42.05 120.34 42.01C120.12 41.97 120.02 41.77 120.18 41.47Z" fill="#EF4444"/>
<path d="M122.76 42.62C123.19 42.25 123.7 41.99 124.24 41.85C124.46 41.8 124.76 41.82 124.8 42.04C124.82 42.19 124.68 42.32 124.56 42.41C124.24 42.64 123.92 42.88 123.59 43.11C123.42 43.23 123.24 43.36 123.04 43.39C122.84 43.42 122.59 43.33 122.53 43.13C122.47 42.93 122.69 42.68 122.76 42.61V42.62Z" fill="#EF4444"/>
<path d="M125.54 44.43C125.3 44.4 125.05 44.37 124.82 44.46C124.59 44.55 124.41 44.79 124.47 45.02C124.53 45.24 124.77 45.36 125 45.38C125.25 45.41 125.52 45.36 125.7 45.19C125.88 45.02 126.04 44.5 125.53 44.43H125.54Z" fill="#EF4444"/>
<path d="M118.08 38.7C117.86 39.33 117.78 40.02 117.85 40.69C117.87 40.9 117.98 41.16 118.19 41.14C118.38 41.12 118.45 40.89 118.48 40.71C118.54 40.32 118.6 39.93 118.66 39.54C118.69 39.32 118.72 39.09 118.64 38.88C118.56 38.67 118.31 38.52 118.1 38.7H118.08Z" fill="#EF4444"/>
<path d="M115.26 39.08C115.19 39.3 115.08 39.49 115.16 39.84C115.22 40.08 115.5 40.28 115.72 40.17C115.95 40.06 115.96 39.75 115.94 39.5C115.93 39.35 115.91 39.19 115.84 39.05C115.77 38.91 115.73 38.8 115.57 38.81C115.41 38.82 115.3 38.94 115.26 39.08Z" fill="#EF4444"/>
<path d="M84.19 34.24C83.92 33.36 83.95 32.4 84.26 31.55C84.36 31.27 84.59 30.96 84.88 31.05C85.11 31.12 85.18 31.4 85.21 31.64C85.3 32.42 85.23 33.22 85.01 33.96C84.95 34.17 84.86 34.4 84.68 34.52C84.5 34.64 84.29 34.57 84.19 34.24Z" fill="#EF4444"/>
<path d="M86.78 33.28C86.82 32.73 86.98 32.19 87.26 31.71C87.37 31.52 87.6 31.33 87.78 31.46C87.9 31.55 87.9 31.74 87.87 31.89C87.81 32.28 87.76 32.67 87.7 33.05C87.67 33.25 87.64 33.47 87.52 33.63C87.4 33.79 87.17 33.9 86.98 33.8C86.79 33.7 86.77 33.38 86.78 33.27V33.28Z" fill="#EF4444"/>
<path d="M89.98 32.6401C89.79 32.7801 89.6 32.9401 89.5 33.1501C89.4 33.3601 89.45 33.6701 89.66 33.7901C89.86 33.9001 90.11 33.8201 90.28 33.6801C90.47 33.5301 90.62 33.3101 90.63 33.0601C90.64 32.8101 90.38 32.3301 89.98 32.6401Z" fill="#EF4444"/>
<path d="M80.77 33.74C81.06 34.34 81.49 34.88 82.01 35.31C82.17 35.44 82.43 35.56 82.56 35.4C82.68 35.26 82.56 35.05 82.45 34.9C82.21 34.58 81.98 34.27 81.74 33.95C81.61 33.77 81.47 33.59 81.26 33.5C81.05 33.41 80.78 33.47 80.76 33.75L80.77 33.74Z" fill="#EF4444"/>
<path d="M79.09 35.95C79.2 36.15 79.25 36.36 79.55 36.56C79.76 36.69 80.1 36.64 80.17 36.41C80.25 36.18 80.04 35.94 79.85 35.78C79.73 35.68 79.61 35.58 79.46 35.54C79.31 35.5 79.21 35.44 79.11 35.55C79.01 35.66 79.01 35.82 79.09 35.96V35.95Z" fill="#EF4444"/>
<defs>
<radialGradient id="paint0_radial_2150_1558" cx="0" cy="0" r="1" gradientUnits="userSpaceOnUse" gradientTransform="translate(170.171 209.058) scale(51.6975)">
<stop stop-color="white" stop-opacity="0.05"/>
<stop offset="0.95" stop-color="#2493EF" stop-opacity="0.2"/>
</radialGradient>
</defs>
</svg>
