<svg width="48" height="48" viewBox="0 0 48 48" fill="none" xmlns="http://www.w3.org/2000/svg">
    <path d="M11.523 6.75h25.108V3h4.43v3.75h5.17v4.5h-5.17v25.5h5.17v4.5h-5.17V45h-4.43v-3.75H11.523V45h-4.43v-3.75h-5.17v-4.5h5.17V16.849h4.43V36.75h25.108v-25.5H1.923v-4.5h5.17V3h4.43v3.75z" fill="#0A5757"/>
    <path d="M9.308.75c1.223 0 2.215 1.007 2.215 2.25v3.795H24.1c9.368 0 16.963 7.712 16.963 17.227 0 9.517-7.608 17.228-16.974 17.228-9.378 0-16.995-7.721-16.995-17.25v-9h4.43v9c0 7.04 5.63 12.75 12.565 12.75 6.923 0 12.543-5.7 12.543-12.728 0-7.03-5.611-12.727-12.532-12.727H3.4l-.114-.003c-1.17-.06-2.101-1.044-2.101-2.247 0-1.204.93-2.187 2.101-2.247l.114-.003h3.693V3c0-1.243.991-2.25 2.215-2.25zm18.13 17.45a2.194 2.194 0 0 1 3.088-.537 2.273 2.273 0 0 1 .529 3.137l-5.838 8.377a2.925 2.925 0 0 1-4.157.688l-3.83-2.85-.09-.07a2.274 2.274 0 0 1-.388-3.075 2.193 2.193 0 0 1 3.002-.551l.094.066 2.619 1.948 4.97-7.133z" fill="#fff"/>
</svg>
