<svg width="48" height="48" viewBox="0 0 48 48" fill="none" xmlns="http://www.w3.org/2000/svg">
    <path d="m16.8 23.681 7.5-17.127" stroke="#58C9FF" stroke-opacity=".6" stroke-width="6"/>
    <path d="M30.976 3.75c2.845 0 4.764 2.853 3.77 5.457l-.107.251-2.903 6.33h.001l-8.095 17.66-.002-.001-1.267 2.766L35.547 24.75h-4.612l2.058-4.5h8.567a2.25 2.25 0 0 1 1.477 3.947L20.569 43.749c-2.55 2.218-6.323-.605-4.914-3.678L21.922 26.4l5.725-12.486 2.596-5.663H18.737a2.2 2.2 0 0 0-1.967 1.214l-.069.152-4.35 10.634h9.096l-2.06 4.5H9a2.251 2.251 0 0 1-2.082-3.102l5.619-13.736.1-.233a6.7 6.7 0 0 1 6.1-3.929h12.24z" fill="#fff"/>
</svg>
