<svg width="48" height="48" viewBox="0 0 48 48" fill="none" xmlns="http://www.w3.org/2000/svg">
    <g clip-path="url(#t3sf5favya)" fill="#fff">
        <path opacity=".2" d="M48 24.75v4.5H0v-4.5h48z"/>
        <path d="M24.486.757C34.672 1.02 42.75 9.575 42.75 19.96v16.74c0 5.677-4.422 10.4-10.054 10.545l-.269.004c-5.546 0-10.52-4.513-10.673-10.274l-.004-.275V21.546h-5.131c-.799 0-1.2-.965-.635-1.53l7.065-7.065a1.345 1.345 0 0 1 1.902 0l7.065 7.065c.564.565.164 1.53-.635 1.53H26.25V36.7l.008.305c.173 3.14 2.99 5.744 6.17 5.744l.294-.008c3.027-.159 5.528-2.748 5.528-6.041v-16.74c0-8.055-6.238-14.506-13.884-14.706L24 5.25c-7.812 0-14.25 6.528-14.25 14.711v4.789h-4.5v-4.789C5.25 9.411 13.586.75 24 .75l.486.007z"/>
    </g>
    <defs>
        <clipPath id="t3sf5favya">
            <path fill="#fff" d="M0 0h48v48H0z"/>
        </clipPath>
    </defs>
</svg>
