<svg width="34.017" height="29.669" viewBox="0 0 9 7.85" version="1.1" id="svg64945" xml:space="preserve" xmlns="http://www.w3.org/2000/svg">
    <g id="layer1" transform="translate(-2171.31 172.277)">
        <g id="g724-2-4" transform="translate(1314.588 -206.11)">
            <ellipse style="opacity:.2;fill:#3e3c67;fill-opacity:1;stroke:none;stroke-width:.264583;stroke-linecap:round;stroke-dasharray:none;stroke-opacity:1;paint-order:markers fill stroke" id="circle689-4-5-8" cx="861.162" cy="35.021" rx="1.056" ry="1.057"/>
            <path id="path691-8-5-9-0" style="opacity:.2;fill:#3e3c67;fill-opacity:1;stroke:none;stroke-width:.246278;stroke-linecap:round;stroke-dasharray:none;stroke-opacity:1;paint-order:markers fill stroke" d="M860.403 38.596c-.61.177-1.09.656-1.266 1.266-.081.28-.074.76-.074 1.052v1.766a.53.53 45 0 0 .53.529h2.666a.53.53 135 0 0 .529-.53v-1.765c0-.293.007-.772-.074-1.052a1.858 1.858 0 0 0-1.266-1.266 2.275 2.275 0 0 0-1.045 0z" transform="matrix(1.07398 0 0 1.07468 -63.47 -4.886)"/>
            <ellipse style="opacity:1;fill:none;fill-opacity:1;stroke:#3e3c67;stroke-width:.246279;stroke-linecap:round;stroke-dasharray:none;stroke-opacity:1;paint-order:markers fill stroke" id="ellipse688-8-1" cx="858.475" cy="38.052" rx=".854" ry=".861" transform="matrix(1.07398 0 0 1.07468 -63.47 -4.886)"/>
            <ellipse style="opacity:1;fill:none;fill-opacity:1;stroke:#3e3c67;stroke-width:.246279;stroke-linecap:round;stroke-dasharray:none;stroke-opacity:1;paint-order:markers fill stroke" id="ellipse689-7-8" cx="863.371" cy="38.052" rx=".854" ry=".861" transform="matrix(1.07398 0 0 1.07468 -63.47 -4.886)"/>
            <circle style="opacity:1;fill:none;fill-opacity:1;stroke:#3e3c67;stroke-width:.246278;stroke-linecap:round;stroke-dasharray:none;stroke-opacity:1;paint-order:markers fill stroke" id="circle689-4-5" cx="860.944" cy="37.134" r=".983" transform="matrix(1.07398 0 0 1.07468 -63.47 -4.886)"/>
            <path id="path689-6-9" style="opacity:1;fill:none;fill-opacity:1;stroke:#3e3c67;stroke-width:.229463;stroke-linecap:round;stroke-dasharray:none;stroke-opacity:1;paint-order:markers fill stroke" d="M858.713 38.545c-.19 0-.382.025-.518.075-.42.153-.751.485-.903.906-.099.274-.09.756-.09 1.048v.172a.53.53 0 0 0 .529.53h1.46v-1.217c0-.272-.006-.717.07-.977.038-.133.092-.26.16-.377a1.493 1.493 0 0 0-.19-.085 1.608 1.608 0 0 0-.518-.075z" transform="matrix(1.15019 0 0 1.15593 -129.089 -7.222)"/>
            <path id="path691-8-5-9" style="fill:none;fill-opacity:1;stroke:#3e3c67;stroke-width:.246278;stroke-linecap:round;stroke-dasharray:none;stroke-opacity:1;paint-order:markers fill stroke" d="M860.403 38.596c-.61.177-1.09.656-1.266 1.266-.081.28-.074.76-.074 1.052v1.766a.53.53 45 0 0 .53.529h2.666a.53.53 135 0 0 .529-.53v-1.765c0-.293.007-.772-.074-1.052a1.858 1.858 0 0 0-1.266-1.266 2.275 2.275 0 0 0-1.045 0z" transform="matrix(1.07398 0 0 1.07468 -63.47 -4.886)"/>
            <path id="path690-3-7" style="opacity:1;fill:none;fill-opacity:1;stroke:#3e3c67;stroke-width:.229463;stroke-linecap:round;stroke-dasharray:none;stroke-opacity:1;paint-order:markers fill stroke" d="M863.384 38.545c-.191 0-.382.025-.519.075a1.5 1.5 0 0 0-.293.145c.052.1.096.206.128.317.076.26.069.705.069.977v1.216h1.597a.53.53 0 0 0 .529-.529v-.172c0-.292.008-.774-.09-1.048a1.51 1.51 0 0 0-.903-.906 1.611 1.611 0 0 0-.519-.075z" transform="matrix(1.15019 0 0 1.15593 -129.203 -7.222)"/>
            <path id="rect721-0-3" style="opacity:1;vector-effect:none;fill:none;stroke:#3e3c67;stroke-width:.264583;stroke-linecap:round;stroke-linejoin:round;paint-order:markers fill stroke" d="M860.258 38.372c0-.498.4-.898.898-.898s.898.4.898.898-.4.898-.898.898"/>
            <path style="font-variation-settings:normal;opacity:1;vector-effect:none;fill:none;fill-opacity:1;stroke:#3e3c67;stroke-width:.264583;stroke-linecap:round;stroke-linejoin:round;stroke-miterlimit:4;stroke-dasharray:none;stroke-dashoffset:0;stroke-opacity:1;-inkscape-stroke:none;paint-order:markers fill stroke" d="M861.156 39.268v.72" id="path723-4-8"/>
            <path style="fill:#3e3c67;stroke-linecap:round;stroke-linejoin:round;paint-order:markers fill stroke" d="M861.156 40.258a.212.212 0 0 0-.213.213.212.212 0 0 0 .213.21.212.212 0 0 0 .211-.21.212.212 0 0 0-.21-.213z" id="path722-9-8"/>
        </g>
    </g>
    <style type="text/css" id="style1070">
        .st0{fill:#5f6368}.st1{fill:#4285f4}.st2{fill:#34a853}.st3{fill:#fbbc04}.st4{fill:#ea4335}
    </style>
</svg>
