<svg width="27.599" height="26.355" viewBox="0 0 7.302 6.973" version="1.1" id="svg64945" xml:space="preserve" xmlns="http://www.w3.org/2000/svg">
    <g id="layer1" transform="translate(-1516.79 147.226)">
        <g id="g688-2-2" transform="matrix(1.04632 0 0 1.0464 617.934 -313.457)" style="fill:none;stroke-width:.955691">
            <path id="rect2-3-6-6" style="fill:none;fill-opacity:1;stroke:#3e3c67;stroke-width:.252861;stroke-dasharray:none;stroke-opacity:1;paint-order:markers fill stroke" d="M860.148 158.986a.958.958 0 0 0-.96.962v4.487c0 .533.428.962.96.962h4.808c.53 0 .959-.43.959-.962v-4.487a.959.959 0 0 0-.96-.962h-4.1z"/>
            <path style="fill:none;fill-opacity:1;stroke:#3e3c67;stroke-width:.272329;stroke-linecap:round;stroke-dasharray:none;stroke-opacity:1;paint-order:markers fill stroke" d="M861.965 164.36h1.93" id="path686-4-1"/>
            <path style="fill:none;fill-opacity:1;stroke:#3e3c67;stroke-width:.272329;stroke-linecap:round;stroke-dasharray:none;stroke-opacity:1;paint-order:markers fill stroke" d="M861.965 161.728h2.411" id="path24-0-0-0"/>
            <path style="fill:none;fill-opacity:1;stroke:#3e3c67;stroke-width:.272329;stroke-linecap:round;stroke-dasharray:none;stroke-opacity:1;paint-order:markers fill stroke" d="M861.965 162.778h2.916" id="path687-7-6"/>
            <path style="fill:none;fill-opacity:1;stroke:#3e3c67;stroke-width:.272329;stroke-linecap:round;stroke-dasharray:none;stroke-opacity:1;paint-order:markers fill stroke" d="M861.965 160.146h2.916" id="path23-6-5-1"/>
            <path style="fill:none;fill-opacity:1;stroke:#3e3c67;stroke-width:.272329;stroke-linecap:round;stroke-dasharray:none;stroke-opacity:1;paint-order:markers fill stroke" d="M861.965 163.595h2.456" id="path688-4-5"/>
            <path style="fill:none;fill-opacity:1;stroke:#3e3c67;stroke-width:.272329;stroke-linecap:round;stroke-dasharray:none;stroke-opacity:1;paint-order:markers fill stroke" d="M861.965 160.963h2.003" id="path14-3-0-9"/>
            <rect style="font-variation-settings:normal;opacity:1;vector-effect:none;fill:none;fill-opacity:1;stroke:#3e3c67;stroke-width:.25286;stroke-linecap:round;stroke-linejoin:miter;stroke-miterlimit:4;stroke-dasharray:none;stroke-dashoffset:0;stroke-opacity:1;-inkscape-stroke:none;paint-order:markers fill stroke" id="rect688-1-4" width="1.316" height="1.286" x="859.966" y="162.765" rx=".416" ry=".416"/>
            <rect style="font-variation-settings:normal;opacity:1;vector-effect:none;fill:none;fill-opacity:1;stroke:#3e3c67;stroke-width:.25286;stroke-linecap:round;stroke-linejoin:miter;stroke-miterlimit:4;stroke-dasharray:none;stroke-dashoffset:0;stroke-opacity:1;-inkscape-stroke:none;paint-order:markers fill stroke" id="rect686-2-9" width="1.316" height="1.286" x="859.966" y="160.133" rx=".416" ry=".416"/>
            <path id="rect688-1-4-1" style="font-variation-settings:normal;opacity:.2;vector-effect:none;fill:#3e3c67;fill-opacity:1;stroke:none;stroke-width:.25286;stroke-linecap:round;stroke-linejoin:miter;stroke-miterlimit:4;stroke-dasharray:none;stroke-dashoffset:0;stroke-opacity:1;-inkscape-stroke:none;paint-order:markers fill stroke" d="M860.382 160.133a.415.415 0 0 0-.416.415v.455c0 .23.186.416.416.416h.484c.23 0 .416-.186.416-.416v-.455a.414.414 0 0 0-.416-.415zm0 2.632a.415.415 0 0 0-.416.416v.454c0 .23.186.416.416.416h.484c.23 0 .416-.185.416-.416v-.454a.415.415 0 0 0-.416-.416z"/>
        </g>
    </g>
    <style type="text/css" id="style1070">
        .st0{fill:#5f6368}.st1{fill:#4285f4}.st2{fill:#34a853}.st3{fill:#fbbc04}.st4{fill:#ea4335}
    </style>
</svg>
