<svg width="25.687" height="36.198" viewBox="0 0 6.796 9.577" version="1.1" id="svg64945" xml:space="preserve" xmlns="http://www.w3.org/2000/svg">
    <g id="layer1" transform="translate(-2172.411 121.126)">
        <g id="g727-1-7" transform="translate(1313.663 -373.006)">
            <path id="path717-2-8" style="font-variation-settings:normal;opacity:1;vector-effect:none;fill:none;fill-opacity:1;stroke:#3e3c67;stroke-width:.264583;stroke-linecap:round;stroke-linejoin:round;stroke-miterlimit:4;stroke-dasharray:none;stroke-dashoffset:0;stroke-opacity:1;-inkscape-stroke:none;paint-order:markers fill stroke" d="m863.57 252.947-.704 1.22h0l1.005 4.5a3.266 3.273 0 0 0 1.54-2.776 3.266 3.273 0 0 0-1.841-2.944zm-2.846.003a3.266 3.273 0 0 0-1.844 2.94 3.266 3.273 0 0 0 1.541 2.776l1.004-4.499h0z"/>
            <path id="path720-0-5" style="font-variation-settings:normal;opacity:.2;vector-effect:none;fill:#3e3c67;fill-opacity:1;stroke:none;stroke-width:.264583;stroke-linecap:round;stroke-linejoin:round;stroke-miterlimit:4;stroke-dasharray:none;stroke-dashoffset:0;stroke-opacity:1;-inkscape-stroke:none;paint-order:markers fill stroke" d="m860.184 252.012 1.242 2.155h-.001l-1.226 5.495 1.226 1.663h1.442l1.226-1.663-1.226-5.495 1.241-2.155h-1.962z"/>
            <path id="path720-0-5-2" style="font-variation-settings:normal;vector-effect:none;fill:none;fill-opacity:1;stroke:#3e3c67;stroke-width:.264583;stroke-linecap:round;stroke-linejoin:round;stroke-miterlimit:4;stroke-dasharray:none;stroke-dashoffset:0;stroke-opacity:1;-inkscape-stroke:none;paint-order:markers fill stroke" d="m860.184 252.012 1.242 2.155h1.44l1.242-2.155h-1.962z"/>
            <path id="path721-3-7" style="font-variation-settings:normal;vector-effect:none;fill:none;fill-opacity:1;stroke:#3e3c67;stroke-width:.264583;stroke-linecap:round;stroke-linejoin:round;stroke-miterlimit:4;stroke-dasharray:none;stroke-dashoffset:0;stroke-opacity:1;-inkscape-stroke:none;paint-order:markers fill stroke" d="m861.425 254.167-1.226 5.494 1.226 1.664H862.866l1.227-1.664-1.226-5.494h-.721z"/>
        </g>
    </g>
    <style type="text/css" id="style1070">
        .st0{fill:#5f6368}.st1{fill:#4285f4}.st2{fill:#34a853}.st3{fill:#fbbc04}.st4{fill:#ea4335}
    </style>
</svg>
