<svg width="33.715" height="26.517" viewBox="0 0 8.92 7.016" version="1.1" id="svg64945" xml:space="preserve" xmlns="http://www.w3.org/2000/svg">
    <g id="layer1" transform="translate(-1515.98 159.045)">
        <g id="g652-1-4" transform="matrix(.9417 0 0 .94136 709.64 -191.742)" style="stroke-width:1.0621">
            <path id="path650-7-7-8" style="fill:none;fill-opacity:1;stroke:#3e3c67;stroke-width:.281013;stroke-linecap:round;stroke-dasharray:none;stroke-opacity:1;paint-order:markers fill stroke" d="M858.713 38.794c-.228 0-.457.03-.62.089a1.805 1.805 0 0 0-1.08 1.08c-.118.325-.108.9-.108 1.247v.206a.633.63 0 0 0 .633.63h2.35a.633.63 0 0 0 .005 0h-.3a.53.53 0 0 1-.53-.53v-.642c0-.292-.007-.772.074-1.052.09-.31.258-.586.482-.806a1.797 1.797 0 0 0-.285-.133 1.93 1.93 0 0 0-.62-.09z"/>
            <path id="path649-6-7" style="fill:none;fill-opacity:1;stroke:#3e3c67;stroke-width:.281013;stroke-linecap:round;stroke-dasharray:none;stroke-opacity:1;paint-order:markers fill stroke" d="M863.284 38.794c-.228 0-.457.03-.62.089-.134.048-.26.113-.377.19.196.21.345.465.427.749.081.28.074.76.074 1.052v.642a.53.53 0 0 1-.53.53h-.153a.633.63 0 0 0 .005 0h2.35a.633.63 0 0 0 .632-.63v-.206c0-.348.011-.922-.107-1.247a1.805 1.805 0 0 0-1.08-1.08 1.93 1.93 0 0 0-.62-.09z"/>
            <path id="path648-9-2" style="fill:#d8d8e1;fill-opacity:1;stroke:#3e3c67;stroke-width:.281013;stroke-linecap:round;stroke-dasharray:none;stroke-opacity:1;paint-order:markers fill stroke" d="M860.403 38.596c-.61.177-1.09.656-1.266 1.266-.081.28-.074.76-.074 1.052v.642a.53.53 45 0 0 .53.53h2.666a.53.53 135 0 0 .529-.53v-.642c0-.293.007-.772-.074-1.052a1.858 1.858 0 0 0-1.266-1.266 2.275 2.275 0 0 0-1.045 0z" transform="translate(0 -.04)"/>
            <path id="path696-4-8" style="opacity:.2;vector-effect:none;fill:#3e3c67;fill-opacity:1;stroke:none;stroke-width:.281013;stroke-linecap:round;paint-order:markers fill stroke" d="M860.99 34.874a4.59 4.59 0 0 0-4.03 6.8l.007.01a.626.626 0 0 1-.062-.268v-.206c0-.348-.01-.922.108-1.247a1.805 1.805 0 0 1 1.08-1.08c.163-.06.392-.09.62-.09.229 0 .457.03.62.09.1.036.195.08.286.133-.224.22-.393.496-.483.806-.08.28-.073.76-.073 1.052v.642c0 .293.237.53.53.53h.3-.005 2.222-.005.154a.53.53 0 0 0 .529-.53v-.642c0-.292.007-.772-.074-1.052a1.852 1.852 0 0 0-.427-.75c.117-.076.243-.14.377-.19.163-.058.392-.088.62-.088.229 0 .457.03.62.089.502.182.899.578 1.08 1.08.119.325.108.9.108 1.247v.206c0 .063-.01.126-.03.186l.004-.01a4.592 4.592 0 0 0-4.075-6.718zm-4.023 6.81c.006.013.014.026.022.04l-.022-.04zm.022.04.021.039.013.017c-.013-.018-.024-.038-.034-.057zm1.64-5.25a.954.954 0 0 1 .954.954.954.954 0 0 1-.955.954.954.954 0 0 1-.954-.954.954.954 0 0 1 .954-.954zm4.57 0a.954.954 0 0 1 .955.954.954.954 0 0 1-.955.954.954.954 0 0 1-.954-.954.954.954 0 0 1 .954-.954z"/>
            <path id="path696-4-8-0" style="vector-effect:none;fill:none;fill-opacity:1;stroke:#3e3c67;stroke-width:.281013;stroke-linecap:round;paint-order:markers fill stroke" d="M860.99 34.874a4.59 4.59 0 0 0-4.03 6.8l.007.01a.626.626 0 0 1-.062-.268v-.206c0-.348-.01-.922.108-1.247a1.805 1.805 0 0 1 1.08-1.08c.163-.06.392-.09.62-.09.229 0 .457.03.62.09.1.036.195.08.286.133-.224.22-.393.496-.483.806-.08.28-.073.76-.073 1.052v.642c0 .293.237.53.53.53h.3-.005 2.222-.005.154a.53.53 0 0 0 .529-.53v-.642c0-.292.007-.772-.074-1.052a1.852 1.852 0 0 0-.427-.75c.117-.076.243-.14.377-.19.163-.058.392-.088.62-.088.229 0 .457.03.62.089.502.182.899.578 1.08 1.08.119.325.108.9.108 1.247v.206c0 .063-.01.126-.03.186l.004-.01a4.592 4.592 0 0 0-4.075-6.718zm-4.023 6.81c.006.013.014.026.022.04l-.022-.04zm.022.04.021.039s0 0 0 0l.013.017c-.013-.018-.024-.038-.034-.057zm1.64-5.25a.954.954 0 0 1 .954.954.954.954 0 0 1-.955.954.954.954 0 0 1-.954-.954.954.954 0 0 1 .954-.954zm4.57 0a.954.954 0 0 1 .955.954.954.954 0 0 1-.955.954.954.954 0 0 1-.954-.954.954.954 0 0 1 .954-.954z"/>
            <path id="path648-9-2-6" style="fill:none;fill-opacity:1;stroke:#3e3c67;stroke-width:.281013;stroke-linecap:round;stroke-dasharray:none;stroke-opacity:1;paint-order:markers fill stroke" d="M860.403 38.596c-.61.177-1.09.656-1.266 1.266-.081.28-.074.76-.074 1.052v.642a.53.53 45 0 0 .53.53h2.666a.53.53 135 0 0 .529-.53v-.642c0-.293.007-.772-.074-1.052a1.858 1.858 0 0 0-1.266-1.266 2.275 2.275 0 0 0-1.045 0z" transform="translate(0 -.04)"/>
            <circle style="opacity:1;fill:none;fill-opacity:1;stroke:#3e3c67;stroke-width:.281013;stroke-linecap:round;stroke-dasharray:none;stroke-opacity:1;paint-order:markers fill stroke" id="circle648-6-2" cx="860.944" cy="37.096" r=".983"/>
        </g>
    </g>
    <style type="text/css" id="style1070">
        .st0{fill:#5f6368}.st1{fill:#4285f4}.st2{fill:#34a853}.st3{fill:#fbbc04}.st4{fill:#ea4335}
    </style>
</svg>
