<svg width="35.695" height="23.949" viewBox="0 0 9.444 6.336" version="1.1" id="svg64945" xml:space="preserve" xmlns="http://www.w3.org/2000/svg">
    <g id="layer1" transform="translate(-1568.775 214.43)">
        <g id="layer1-7" transform="translate(704.836 12.616) scale(.99998)">
            <g id="g697-7-9" transform="translate(538.725 35.123)">
                <path id="path734-1-2-2" style="font-variation-settings:normal;opacity:.2;vector-effect:none;fill:#3e3c67;fill-opacity:1;stroke:none;stroke-width:.264583;stroke-linecap:round;stroke-linejoin:miter;stroke-miterlimit:4;stroke-dasharray:none;stroke-dashoffset:0;stroke-opacity:1;-inkscape-stroke:none;paint-order:markers fill stroke;stop-color:#000" d="M326.586-261.564c-.305 0-.304 0-.304.304v4.394l7.34.017v-4.412c0-.304-.002-.303-.308-.303zm2.737 1.234c.3 0 .507.19.623.34a.838.838 0 0 1 .686-.332c.214 0 .404.087.537.244a.758.758 0 0 1 .155.62c-.05.287-.279.518-.461.704a9.999 9.999 0 0 1-.826.788l-.087.074-.08-.08-.226-.216c-.134-.127-.273-.258-.408-.396-.038-.04-.082-.081-.127-.126-.193-.186-.413-.397-.502-.637a.687.687 0 0 1 .084-.623.783.783 0 0 1 .632-.36z"/>
                <path d="M329.323-260.33c.3 0 .506.19.623.34a.838.838 0 0 1 .686-.332c.214 0 .404.087.536.244a.758.758 0 0 1 .155.62c-.05.287-.278.518-.46.704a9.999 9.999 0 0 1-.826.788l-.086.074-.081-.08-.226-.216c-.134-.127-.273-.258-.408-.396-.038-.04-.082-.081-.128-.126-.193-.186-.412-.397-.5-.637a.688.688 0 0 1 .083-.623.783.783 0 0 1 .632-.36z" style="font-variation-settings:normal;vector-effect:none;fill:none;fill-opacity:1;stroke:#3e3c67;stroke-width:.264588;stroke-linecap:round;stroke-linejoin:miter;stroke-miterlimit:4;stroke-dasharray:none;stroke-dashoffset:0;stroke-opacity:1;-inkscape-stroke:none;paint-order:markers fill stroke;stop-color:#000" id="path1-94"/>
                <path id="rect733-3-0" style="font-variation-settings:normal;vector-effect:none;fill:none;fill-opacity:1;stroke:#3e3c67;stroke-width:.264583;stroke-linecap:round;stroke-linejoin:round;stroke-miterlimit:4;stroke-dasharray:none;stroke-dashoffset:0;stroke-opacity:1;-inkscape-stroke:none;paint-order:markers fill stroke;stop-color:#000" d="M334.542-256.849h-9.18v.267c0 .34.274.614.614.614h7.951c.34 0 .615-.274.615-.614z"/>
                <path id="path735-6-2" style="font-variation-settings:normal;vector-effect:none;fill:none;fill-opacity:1;stroke:#3e3c67;stroke-width:.264583;stroke-linecap:round;stroke-linejoin:miter;stroke-miterlimit:4;stroke-dasharray:none;stroke-dashoffset:0;stroke-opacity:1;-inkscape-stroke:none;paint-order:markers fill stroke;stop-color:#000" d="M326.47-262.04a.613.613 0 0 0-.614.614v4.577h8.191v-4.577a.613.613 0 0 0-.614-.614z"/>
                <path id="path734-1-3" style="font-variation-settings:normal;vector-effect:none;fill:none;fill-opacity:1;stroke:#3e3c67;stroke-width:.264583;stroke-linecap:round;stroke-linejoin:miter;stroke-miterlimit:4;stroke-dasharray:none;stroke-dashoffset:0;stroke-opacity:1;-inkscape-stroke:none;paint-order:markers fill stroke;stop-color:#000" d="M326.586-261.564c-.305 0-.304 0-.304.304v4.394l7.339.017v-4.412c0-.304-.001-.303-.307-.303z"/>
            </g>
        </g>
    </g>
    <style type="text/css" id="style1070">
        .st0{fill:#5f6368}.st1{fill:#4285f4}.st2{fill:#34a853}.st3{fill:#fbbc04}.st4{fill:#ea4335}
    </style>
</svg>
