<svg width="26.994" height="31.82" viewBox="0 0 7.142 8.419" version="1.1" id="svg64945" xml:space="preserve" xmlns="http://www.w3.org/2000/svg">
    <g id="layer1" transform="translate(-1516.87 122.246)">
        <g id="g726-8-0-2" transform="translate(658.485 -328.002)">
            <path id="path700-0-9-5-6" style="font-variation-settings:normal;opacity:.2;vector-effect:none;fill:#3e3c67;fill-opacity:1;stroke:none;stroke-width:.264583;stroke-linecap:round;stroke-linejoin:miter;stroke-miterlimit:4;stroke-dasharray:none;stroke-dashoffset:0;stroke-opacity:1;-inkscape-stroke:none;paint-order:markers fill stroke" d="M859.91 205.888c-.346 0-.63.25-.686.579h2.523v2.253c0 .386.312.697.697.697h2.253v3.93c0 .04-.004.079-.01.117h.01c.386 0 .697-.31.697-.697v-6.182a.695.695 0 0 0-.696-.697h-2.254z"/>
            <path id="path700-0-9-5" style="font-variation-settings:normal;opacity:1;vector-effect:none;fill:none;fill-opacity:1;stroke:#3e3c67;stroke-width:.264583;stroke-linecap:round;stroke-linejoin:miter;stroke-miterlimit:4;stroke-dasharray:none;stroke-dashoffset:0;stroke-opacity:1;-inkscape-stroke:none;paint-order:markers fill stroke" d="M859.91 205.888c-.346 0-.63.25-.686.579h2.523l2.95 2.95v3.93c0 .04-.004.079-.01.117h.01c.386 0 .697-.31.697-.697v-6.182a.695.695 0 0 0-.696-.697h-2.254z"/>
            <path id="path699-1-1-8" style="font-variation-settings:normal;vector-effect:none;fill:none;fill-opacity:1;stroke:#3e3c67;stroke-width:.264583;stroke-linecap:round;stroke-linejoin:round;stroke-miterlimit:4;stroke-dasharray:none;stroke-dashoffset:0;stroke-opacity:1;-inkscape-stroke:none;paint-order:markers fill stroke" d="M861.747 206.467h-2.534a.695.695 0 0 0-.696.697v6.182c0 .386.31.697.696.697H864c.385 0 .696-.311.696-.697v-3.93z"/>
            <path id="path697-5-7-9" style="font-variation-settings:normal;opacity:1;vector-effect:none;fill:none;fill-opacity:1;stroke:#3e3c67;stroke-width:.264583;stroke-linecap:round;stroke-linejoin:round;stroke-miterlimit:4;stroke-dasharray:none;stroke-dashoffset:0;stroke-opacity:1;-inkscape-stroke:none;paint-order:markers fill stroke" d="m864.697 209.417-2.95-2.95v2.253c0 .386.311.697.697.697z"/>
        </g>
    </g>
    <style type="text/css" id="style1070">
        .st0{fill:#5f6368}.st1{fill:#4285f4}.st2{fill:#34a853}.st3{fill:#fbbc04}.st4{fill:#ea4335}
    </style>
</svg>
