<svg width="28.975" height="36.199" viewBox="0 0 7.666 9.578" version="1.1" id="svg64945" xml:space="preserve" xmlns="http://www.w3.org/2000/svg">
    <g id="layer1" transform="translate(-2821.06 107.722)">
        <g id="g664-3-0" transform="matrix(1.0449 0 0 1.04456 1925.267 -194.069)" style="stroke-width:.957187">
            <path id="rect663-8-5" style="font-variation-settings:normal;opacity:.2;vector-effect:none;fill:#3e3c67;fill-opacity:1;stroke:none;stroke-width:.253255;stroke-linecap:round;stroke-linejoin:miter;stroke-miterlimit:4;stroke-dasharray:none;stroke-dashoffset:0;stroke-opacity:1;-inkscape-stroke:none;paint-order:markers fill stroke" d="M858.923 84.49a.917.917 0 0 0-.919.919v.523a3.222 3.222 0 0 0-.572 1.84c0 .686.212 1.319.572 1.84v1.174c0 .51.41.92.92.92h.844a.916.916 0 0 0 .892-.703h.598a.916.916 0 0 0 .893.702h.844c.51 0 .919-.41.919-.919v-1.134a3.22 3.22 0 0 0 .6-1.88c0-.702-.222-1.35-.6-1.88v-.483a.917.917 0 0 0-.919-.919h-.226a1.72 1.72 0 0 1 0 .02 1.72 1.72 0 0 1-.312.983h-2.817a1.72 1.72 0 0 1-.312-.983 1.72 1.72 0 0 1 0-.02z"/>
            <path id="path658-9-2-5" style="font-variation-settings:normal;vector-effect:none;fill:none;fill-opacity:1;stroke:#3e3c67;stroke-width:.253255;stroke-linecap:round;stroke-linejoin:miter;stroke-miterlimit:4;stroke-dasharray:none;stroke-dashoffset:0;stroke-opacity:1;-inkscape-stroke:none;paint-order:markers fill stroke" d="M861.05 82.79a1.72 1.72 0 0 0-1.722 1.72 1.72 1.72 0 0 0 .313.983h2.816a1.72 1.72 0 0 0 .313-.983 1.72 1.72 0 0 0-1.721-1.72z"/>
            <path id="rect663-8-5-2" style="font-variation-settings:normal;vector-effect:none;fill:none;fill-opacity:1;stroke:#3e3c67;stroke-width:.253255;stroke-linecap:round;stroke-linejoin:miter;stroke-miterlimit:4;stroke-dasharray:none;stroke-dashoffset:0;stroke-opacity:1;-inkscape-stroke:none;paint-order:markers fill stroke" d="M858.004 89.612v1.174c0 .51.41.92.92.92h.844a.916.916 0 0 0 .892-.703 3.222 3.222 0 0 1-2.656-1.39z"/>
            <path id="rect662-6-9" style="font-variation-settings:normal;vector-effect:none;fill:none;fill-opacity:1;stroke:#3e3c67;stroke-width:.253255;stroke-linecap:round;stroke-linejoin:miter;stroke-miterlimit:4;stroke-dasharray:none;stroke-dashoffset:0;stroke-opacity:1;-inkscape-stroke:none;paint-order:markers fill stroke" d="M858.923 84.49a.917.917 0 0 0-.919.919v.523a3.23 3.23 0 0 1 1.356-1.119c-.02-.1-.03-.201-.032-.303 0-.006-.057-.013-.056-.02z"/>
            <path id="rect664-1-4" style="font-variation-settings:normal;vector-effect:none;fill:none;fill-opacity:1;stroke:#3e3c67;stroke-width:.253255;stroke-linecap:round;stroke-linejoin:miter;stroke-miterlimit:4;stroke-dasharray:none;stroke-dashoffset:0;stroke-opacity:1;-inkscape-stroke:none;paint-order:markers fill stroke" d="M863.914 89.652a3.221 3.221 0 0 1-2.63 1.351h-.025a.916.916 0 0 0 .892.702h.845c.509 0 .918-.41.918-.919z"/>
            <path id="rect657-0-9" style="font-variation-settings:normal;vector-effect:none;fill:none;fill-opacity:1;stroke:#3e3c67;stroke-width:.253255;stroke-linecap:round;stroke-linejoin:miter;stroke-miterlimit:4;stroke-dasharray:none;stroke-dashoffset:0;stroke-opacity:1;-inkscape-stroke:none;paint-order:markers fill stroke" d="M859.36 84.814a3.223 3.223 0 0 0-1.928 2.959c0 1.79 1.44 3.23 3.23 3.23h.622c1.79 0 3.231-1.44 3.231-3.23a3.223 3.223 0 0 0-1.789-2.894 1.72 1.72 0 0 1-.269.614h-2.816a1.72 1.72 0 0 1-.281-.679z"/>
            <path id="rect661-6-6" style="font-variation-settings:normal;vector-effect:none;fill:none;fill-opacity:1;stroke:#3e3c67;stroke-width:.253255;stroke-linecap:round;stroke-linejoin:miter;stroke-miterlimit:4;stroke-dasharray:none;stroke-dashoffset:0;stroke-opacity:1;-inkscape-stroke:none;paint-order:markers fill stroke" d="M862.77 84.49a1.72 1.72 0 0 1 0 .02 1.72 1.72 0 0 1-.044.369c.475.236.883.586 1.188 1.014v-.484a.917.917 0 0 0-.918-.919z"/>
            <path style="font-variation-settings:normal;vector-effect:none;fill:#fff;fill-opacity:1;stroke:#3e3c67;stroke-width:.253255;stroke-linecap:round;stroke-linejoin:miter;stroke-miterlimit:4;stroke-dasharray:none;stroke-dashoffset:0;stroke-opacity:1;-inkscape-stroke:none;paint-order:markers fill stroke" d="M858.942 85.493h4.038" id="path658-5-1-2"/>
            <rect style="font-variation-settings:normal;vector-effect:none;fill:none;fill-opacity:1;stroke:#3e3c67;stroke-width:.253255;stroke-linecap:round;stroke-linejoin:miter;stroke-miterlimit:4;stroke-dasharray:none;stroke-dashoffset:0;stroke-opacity:1;-inkscape-stroke:none;paint-order:markers fill stroke" id="rect658-9-4" width="2.88" height="2.88" x="859.643" y="87.037" rx="2.646" ry="2.646"/>
            <path style="font-variation-settings:normal;vector-effect:none;fill:#d8d8e1;fill-opacity:1;stroke:#3e3c67;stroke-width:.253255;stroke-linecap:round;stroke-linejoin:miter;stroke-miterlimit:4;stroke-dasharray:none;stroke-dashoffset:0;stroke-opacity:1;-inkscape-stroke:none;paint-order:markers fill stroke" d="M860.702 87.898v1.158" id="path660-1-7"/>
            <path style="font-variation-settings:normal;vector-effect:none;fill:#d8d8e1;fill-opacity:1;stroke:#3e3c67;stroke-width:.253255;stroke-linecap:round;stroke-linejoin:miter;stroke-miterlimit:4;stroke-dasharray:none;stroke-dashoffset:0;stroke-opacity:1;-inkscape-stroke:none;paint-order:markers fill stroke" d="M861.485 87.898v1.158" id="path659-5-7"/>
            <circle style="font-variation-settings:normal;vector-effect:none;fill:#3e3c67;fill-opacity:1;stroke:none;stroke-width:.253255;stroke-linecap:round;stroke-linejoin:miter;stroke-miterlimit:4;stroke-dasharray:none;stroke-dashoffset:0;stroke-opacity:1;-inkscape-stroke:none;paint-order:markers fill stroke" id="circle661-0-5" cx="859.138" cy="87.017" r=".298"/>
            <circle style="font-variation-settings:normal;vector-effect:none;fill:#3e3c67;fill-opacity:1;stroke:none;stroke-width:.253255;stroke-linecap:round;stroke-linejoin:miter;stroke-miterlimit:4;stroke-dasharray:none;stroke-dashoffset:0;stroke-opacity:1;-inkscape-stroke:none;paint-order:markers fill stroke" id="path661-9-4" cx="862.93" cy="87.017" r=".298"/>
        </g>
    </g>
    <style type="text/css" id="style1070">
        .st0{fill:#5f6368}.st1{fill:#4285f4}.st2{fill:#34a853}.st3{fill:#fbbc04}.st4{fill:#ea4335}
    </style>
</svg>
