<svg width="27.6" height="36.522" viewBox="0 0 7.303 9.663" version="1.1" id="svg64945" xml:space="preserve" xmlns="http://www.w3.org/2000/svg">
    <g id="layer1" transform="translate(-1516.789 82.946)">
        <g id="g686-8-3" transform="translate(658.477 -217.242)">
            <path id="path684-7-9-2" style="font-variation-settings:normal;opacity:.2;vector-effect:none;fill:#3e3c67;fill-opacity:1;stroke:none;stroke-width:.264583;stroke-linecap:round;stroke-linejoin:miter;stroke-miterlimit:4;stroke-dasharray:none;stroke-dashoffset:0;stroke-opacity:1;-inkscape-stroke:none;paint-order:markers fill stroke" d="M858.876 139.812c-.125 0-.302.071-.358.182a.7.7 0 0 0 .132.811l2.816 2.817a.701.701 0 0 0 .994 0l2.816-2.817a.7.7 0 0 0 .155-.76c-.059-.143-.281-.233-.437-.233h-.63l-1.904 1.904a.701.701 0 0 1-.994 0l-1.904-1.904z"/>
            <path id="path684-7-9" style="font-variation-settings:normal;vector-effect:none;fill:none;fill-opacity:1;stroke:#3e3c67;stroke-width:.264583;stroke-linecap:round;stroke-linejoin:miter;stroke-miterlimit:4;stroke-dasharray:none;stroke-dashoffset:0;stroke-opacity:1;-inkscape-stroke:none;paint-order:markers fill stroke" d="M857.488 140.607c-.126 0-.303.07-.36.182a.7.7 0 0 0 .133.81l2.816 2.817a.701.701 0 0 0 .994 0l2.816-2.816a.7.7 0 0 0 .155-.76c-.059-.144-.281-.233-.437-.233h-.63l-1.904 1.904a.701.701 0 0 1-.994 0l-1.904-1.904z" transform="translate(1.389 -.795)"/>
            <path id="rect683-6-4" style="font-variation-settings:normal;vector-effect:none;fill:none;fill-opacity:1;stroke:#3e3c67;stroke-width:.264583;stroke-linecap:round;stroke-linejoin:miter;stroke-miterlimit:4;stroke-dasharray:none;stroke-dashoffset:0;stroke-opacity:1;-inkscape-stroke:none;paint-order:markers fill stroke" d="M860.238 137.128c-.643 0-1.16.518-1.16 1.16v1.975a.343.343 135 0 1-.343.343h-1.247c-.125 0-.303.072-.359.183a.701.701 0 0 0 .132.811l2.816 2.816a.701.701 0 0 0 .994 0l2.816-2.816a.701.701 0 0 0 .155-.76c-.059-.144-.282-.234-.437-.234h-1.167a.343.343 45 0 1-.343-.343v-1.975c0-.642-.518-1.16-1.16-1.16z" transform="translate(1.389 -2.7)"/>
        </g>
    </g>
    <style type="text/css" id="style1070">
        .st0{fill:#5f6368}.st1{fill:#4285f4}.st2{fill:#34a853}.st3{fill:#fbbc04}.st4{fill:#ea4335}
    </style>
</svg>
