<svg width="33.785" height="27.482" viewBox="0 0 8.939 7.271" version="1.1" id="svg64945" xml:space="preserve" xmlns="http://www.w3.org/2000/svg">
    <g id="layer1" transform="translate(-1516.713 134.471)">
        <g id="g45" transform="translate(0 455.137)">
            <path id="path43-1" style="opacity:.2;fill:#3e3c67;fill-opacity:1;stroke:none;stroke-width:.264583;stroke-dasharray:none;stroke-opacity:1;paint-order:fill markers stroke" d="M1523.498-589.476a2.045 2.045 0 0 0-1.485.603l-.83.83v.001l1.203 1.205c.23.23.241.589.025.805-.215.216-.574.204-.804-.026l-1.203-1.204-2.127 2.128 2.49 2.493c.23.23.6.23.83 0l3.322-3.324a2.057 2.057 0 0 0 0-2.908v-.004a2.049 2.049 0 0 0-1.416-.599z"/>
            <path id="path43" style="opacity:1;fill:none;fill-opacity:1;stroke:#3e3c67;stroke-width:.264583;stroke-dasharray:none;stroke-opacity:1;paint-order:fill markers stroke" d="M1523.499-589.476a2.045 2.045 0 0 0-1.486.603l-.83.83h.001v.001l1.203 1.205c.229.23.24.589.025.805-.216.216-.574.204-.804-.026l-1.204-1.204-2.127 2.128 2.491 2.493c.23.23.6.23.83 0l3.321-3.324a2.057 2.057 0 0 0 0-2.908v-.004a2.049 2.049 0 0 0-1.416-.599z"/>
            <path style="fill:#fff;fill-opacity:1;stroke:#3e3c67;stroke-width:.264583;stroke-linecap:round;stroke-dasharray:none;stroke-opacity:1;paint-order:fill markers stroke" d="m1520.537-582.871 1.426-1.427" id="path45-7"/>
            <path style="fill:#fff;fill-opacity:1;stroke:#3e3c67;stroke-width:.264583;stroke-linecap:round;stroke-dasharray:none;stroke-opacity:1;paint-order:fill markers stroke" d="m1519.852-583.61 1.426-1.428" id="path45-2"/>
            <path style="fill:#fff;fill-opacity:1;stroke:#3e3c67;stroke-width:.264583;stroke-linecap:round;stroke-dasharray:none;stroke-opacity:1;paint-order:fill markers stroke" d="m1519.057-584.407 1.426-1.427" id="path45-2-7"/>
            <path id="path43-0" style="fill:none;fill-opacity:1;stroke:#3e3c67;stroke-width:.264583;stroke-dasharray:none;stroke-opacity:1;paint-order:fill markers stroke" d="M1518.862-589.472a2.054 2.054 0 0 0-1.415 3.508l.83.83 2.127-2.128 1.203 1.204c.23.23.589.242.805.026.215-.216.204-.575-.025-.805l-1.204-1.204v-.001l-.415-.415-.415-.416c-.018-.017-.037-.033-.055-.047a2.054 2.054 0 0 0-1.434-.552z"/>
        </g>
    </g>
    <style type="text/css" id="style1070">
        .st0{fill:#5f6368}.st1{fill:#4285f4}.st2{fill:#34a853}.st3{fill:#fbbc04}.st4{fill:#ea4335}
    </style>
</svg>
