<svg width="34.789" height="31.395" viewBox="0 0 9.205 8.307" version="1.1" id="svg64945" xml:space="preserve" xmlns="http://www.w3.org/2000/svg">
    <g id="layer1" transform="translate(-1569.695 203.589)">
        <g id="layer1-92" transform="matrix(1 0 0 1 705.406 -4.966)">
            <g id="g695-2-2" transform="translate(538.725 35.652)">
                <g id="g694-9-8">
                    <path id="rect738-1-4-9" style="font-variation-settings:normal;opacity:.2;vector-effect:none;fill:#3e3c67;fill-opacity:1;stroke:none;stroke-width:.264583;stroke-linecap:round;stroke-linejoin:round;stroke-miterlimit:4;stroke-dasharray:none;stroke-dashoffset:0;stroke-opacity:1;-inkscape-stroke:none;paint-order:markers fill stroke" d="M326.414-233.636a.146.146 0 0 0-.147.147v4.846c0 .081.065.147.147.147h2.715v-3.993c0-.37.3-.67.672-.67h3.033a.67.67 0 0 1 .672.67v3.993h.403a.147.147 0 0 0 .147-.147v-4.846a.147.147 0 0 0-.147-.147z"/>
                    <path id="rect739-3-7" style="font-variation-settings:normal;vector-effect:none;fill:none;fill-opacity:1;stroke:#3e3c67;stroke-width:.264583;stroke-linecap:round;stroke-linejoin:round;stroke-miterlimit:4;stroke-dasharray:none;stroke-dashoffset:0;stroke-opacity:1;-inkscape-stroke:none;paint-order:markers fill stroke" d="M326.25-234.141a.557.557 0 0 0-.559.558v5.035c0 .309.25.558.56.558h2.878v-4.327h4.377v4.327h.566c.31 0 .559-.25.559-.558v-5.035c0-.31-.25-.558-.559-.558z"/>
                    <path id="path738-4-3" style="font-variation-settings:normal;opacity:.2;vector-effect:none;fill:#3e3c67;fill-opacity:1;stroke:none;stroke-width:.264583;stroke-linecap:round;stroke-linejoin:round;stroke-miterlimit:4;stroke-dasharray:none;stroke-dashoffset:0;stroke-opacity:1;-inkscape-stroke:none;paint-order:markers fill stroke" d="M329.129-232.317v5.352h4.377v-5.352zm1.56 1.433c.3 0 .507.19.623.341a.838.838 0 0 1 .686-.332c.214 0 .404.086.536.244a.758.758 0 0 1 .155.62c-.05.286-.278.518-.46.703a10.002 10.002 0 0 1-.826.788l-.086.074-.081-.08-.226-.215c-.134-.127-.273-.259-.408-.396-.038-.04-.082-.082-.127-.126-.193-.187-.413-.398-.502-.638a.687.687 0 0 1 .084-.623.783.783 0 0 1 .632-.36z"/>
                    <path d="M330.689-230.884c.3 0 .506.19.623.341a.838.838 0 0 1 .686-.332c.214 0 .404.086.536.243a.758.758 0 0 1 .155.621c-.05.286-.278.518-.46.703a10.002 10.002 0 0 1-.826.788l-.086.074-.081-.08-.226-.215c-.134-.127-.273-.259-.408-.397-.038-.039-.082-.08-.127-.125-.193-.187-.413-.398-.502-.638a.688.688 0 0 1 .084-.623.783.783 0 0 1 .633-.36z" style="font-variation-settings:normal;vector-effect:none;fill:none;fill-opacity:1;stroke:#3e3c67;stroke-width:.264582;stroke-linecap:round;stroke-linejoin:miter;stroke-miterlimit:4;stroke-dasharray:none;stroke-dashoffset:0;stroke-opacity:1;-inkscape-stroke:none;paint-order:markers fill stroke;stop-color:#000" id="path1-94-8"/>
                    <path id="path738-4-0-6" style="font-variation-settings:normal;vector-effect:none;fill:none;fill-opacity:1;stroke:#3e3c67;stroke-width:.264583;stroke-linecap:round;stroke-linejoin:round;stroke-miterlimit:4;stroke-dasharray:none;stroke-dashoffset:0;stroke-opacity:1;-inkscape-stroke:none;paint-order:markers fill stroke" d="M333.506-232.317h-4.377v5.352h4.377z"/>
                    <path id="rect738-1-1" style="font-variation-settings:normal;vector-effect:none;fill:none;fill-opacity:1;stroke:#3e3c67;stroke-width:.264583;stroke-linecap:round;stroke-linejoin:round;stroke-miterlimit:4;stroke-dasharray:none;stroke-dashoffset:0;stroke-opacity:1;-inkscape-stroke:none;paint-order:markers fill stroke" d="M326.414-233.636a.146.146 0 0 0-.147.147v4.846c0 .081.065.147.147.147h2.715v-3.993c0-.37.3-.67.672-.67h3.033a.67.67 0 0 1 .672.67v3.993h.403a.147.147 0 0 0 .147-.147v-4.846a.147.147 0 0 0-.147-.147z"/>
                    <path id="path737-7-2" style="font-variation-settings:normal;vector-effect:none;fill:none;fill-opacity:1;stroke:#3e3c67;stroke-width:.264583;stroke-linecap:round;stroke-linejoin:round;stroke-miterlimit:4;stroke-dasharray:none;stroke-dashoffset:0;stroke-opacity:1;-inkscape-stroke:none;paint-order:markers fill stroke" d="M329.8-233.159a.67.67 0 0 0-.671.67v.172h4.377v-.172a.67.67 0 0 0-.672-.67z"/>
                    <path id="rect736-9-9" style="font-variation-settings:normal;vector-effect:none;fill:none;fill-opacity:1;stroke:#3e3c67;stroke-width:.264583;stroke-linecap:round;stroke-linejoin:round;stroke-miterlimit:4;stroke-dasharray:none;stroke-dashoffset:0;stroke-opacity:1;-inkscape-stroke:none;paint-order:markers fill stroke" d="M333.506-226.965h-4.377v.196c0 .371.3.67.672.67h3.033a.67.67 0 0 0 .672-.67z"/>
                </g>
            </g>
        </g>
    </g>
    <style type="text/css" id="style1070">
        .st0{fill:#5f6368}.st1{fill:#4285f4}.st2{fill:#34a853}.st3{fill:#fbbc04}.st4{fill:#ea4335}
    </style>
</svg>
