<svg width="27.529" height="40.273" viewBox="0 0 7.284 10.656" version="1.1" id="svg64945" xml:space="preserve" xmlns="http://www.w3.org/2000/svg">
    <g id="layer1" transform="translate(-2821.251 78.97)">
        <g id="g29" transform="translate(0 235.897)">
            <g id="g682-4-8" transform="translate(1963.794 -426.766)">
                <path id="rect681-8-8" style="font-variation-settings:normal;opacity:1;vector-effect:none;fill:none;fill-opacity:1;stroke:#3e3c67;stroke-width:.264583;stroke-linecap:round;stroke-linejoin:miter;stroke-miterlimit:4;stroke-dasharray:none;stroke-dashoffset:0;stroke-opacity:1;-inkscape-stroke:none;paint-order:markers fill stroke" d="M864.358 120.038a1.946 1.946 0 0 1-1.71 1.013h-.528 0-.32c-.704 0-1.269-.424-1.73-.852l-.04-.036v1.642c0 .343.276.618.619.618h3.09a.617.617 0 0 0 .619-.618z"/>
                <path id="path679-2-9" style="font-variation-settings:normal;opacity:.2;vector-effect:none;fill:#3e3c67;fill-opacity:1;stroke:none;stroke-width:.264583;stroke-linecap:round;stroke-linejoin:miter;stroke-miterlimit:4;stroke-dasharray:none;stroke-dashoffset:0;stroke-opacity:1;-inkscape-stroke:none;paint-order:markers fill stroke" d="M861.643 112.032a.583.583 0 0 0-.584.586l-.019.78a.59.59 0 0 0-.584-.586.578.578 0 0 0-.585.586v4.31l-.004.254-.085.014-.916-.928a.694.694 0 0 0-.509-.204.788.788 0 0 0-.571.261.766.766 0 0 0 .056 1.083l2.228 2.01c.461.43 1.026.853 1.73.853H862.649a1.95 1.95 0 0 0 1.933-1.69.586.586 0 0 0 .028-.177v-4.337a.584.584 0 0 0-1.168-.01v-1.44a.584.584 0 1 0-1.169 0l-.045-.78a.584.584 0 0 0-.584-.585z"/>
                <path id="path12" style="vector-effect:none;fill:none;stroke:#3e3c67;stroke-width:.264583;stroke-linecap:round;paint-order:markers fill stroke" d="M861.643 112.032a.583.583 0 0 0-.584.586v3.928c.228-.094.479-.146.741-.146h.427v-3.782a.584.584 0 0 0-.584-.586z"/>
                <path id="path15" style="vector-effect:none;fill:none;stroke:#3e3c67;stroke-width:.264583;stroke-linecap:round;paint-order:markers fill stroke" d="M862.856 112.812a.583.583 0 0 0-.584.586v3.002h.375c.252 0 .559.088.794.183v-3.185a.584.584 0 0 0-.585-.586z"/>
                <path id="path679-2-9-0" style="font-variation-settings:normal;vector-effect:none;fill:none;fill-opacity:1;stroke:#3e3c67;stroke-width:.264583;stroke-linecap:round;stroke-linejoin:miter;stroke-miterlimit:4;stroke-dasharray:none;stroke-dashoffset:0;stroke-opacity:1;-inkscape-stroke:none;paint-order:markers fill stroke" d="M860.456 112.812a.578.578 0 0 0-.585.586v4.31l-.004.232-.116.007-.885-.898a.694.694 0 0 0-.51-.205.788.788 0 0 0-.57.262.766.766 0 0 0 .055 1.082l2.228 2.011c.461.429 1.026.852 1.73.852H862.648a1.95 1.95 0 0 0 1.934-1.69.586.586 0 0 0 .027-.176v-4.338a.584.584 0 1 0-1.168 0v1.72a1.95 1.95 0 0 0-.793-.167h-.847c-.27 0-.527.055-.76.153v-3.155a.59.59 0 0 0-.584-.586z"/>
            </g>
            <path d="M2823.402-308.803a2.201 2.201 0 0 1 2.302 1.192" style="font-variation-settings:normal;vector-effect:none;fill:none;fill-opacity:1;stroke:#3e3c67;stroke-width:.264583;stroke-linecap:round;stroke-linejoin:miter;stroke-miterlimit:4;stroke-dasharray:none;stroke-dashoffset:0;stroke-opacity:1;-inkscape-stroke:none;paint-order:markers fill stroke" id="path1-4-4-3"/>
        </g>
    </g>
    <style type="text/css" id="style1070">
        .st0{fill:#5f6368}.st1{fill:#4285f4}.st2{fill:#34a853}.st3{fill:#fbbc04}.st4{fill:#ea4335}
    </style>
</svg>
