<svg width="35.71" height="32.759" viewBox="0 0 9.448 8.667" version="1.1" id="svg64945" xml:space="preserve" xmlns="http://www.w3.org/2000/svg">
    <g id="layer1" transform="translate(-1515.716 110.5)">
        <g id="g713-2-7" transform="translate(658.06 -338.151)">
            <path id="rect700-0-1-9" style="font-variation-settings:normal;opacity:.2;vector-effect:none;fill:#3e3c67;fill-opacity:1;stroke:none;stroke-width:.264583;stroke-linecap:round;stroke-linejoin:round;stroke-miterlimit:4;stroke-dasharray:none;stroke-dashoffset:0;stroke-opacity:1;-inkscape-stroke:none;paint-order:markers fill stroke" d="M861.894 227.784a2.873 2.873 0 0 0-2.881 2.877v1.746a2.032 1.972 0 0 1 .472-.134v-1.076c0-1.594 1.097-2.326 2.46-2.326h.832c1.363 0 2.46.732 2.46 2.326v1.069a2.032 1.972 0 0 1 .512.141v-1.746a2.873 2.873 0 0 0-2.881-2.877zm-1.92 4.458a.8.8 0 0 0-.802.802v2.341a.8.8 0 0 0 .801.802.8.8 0 0 0 .802-.802v-2.341a.8.8 0 0 0-.802-.802zm4.973 0a.8.8 0 0 0-.8.802v2.341a.8.8 0 0 0 .8.802.8.8 0 0 0 .802-.802v-2.341a.8.8 0 0 0-.802-.802zm-3.053-4.458a2.873 2.873 0 0 0-2.881 2.877v1.746a2.032 1.972 0 0 1 .472-.134v-1.076c0-1.594 1.097-2.326 2.46-2.326h.832c1.363 0 2.46.732 2.46 2.326v1.069a2.032 1.972 0 0 1 .512.141v-1.746a2.873 2.873 0 0 0-2.881-2.877zm-1.92 4.458a.8.8 0 0 0-.802.802v2.341a.8.8 0 0 0 .801.802.8.8 0 0 0 .802-.802v-2.341a.8.8 0 0 0-.802-.802zm4.973 0a.8.8 0 0 0-.8.802v2.341a.8.8 0 0 0 .8.802.8.8 0 0 0 .802-.802v-2.341a.8.8 0 0 0-.802-.802z"/>
            <path id="rect700-0-1" style="font-variation-settings:normal;opacity:1;vector-effect:none;fill:none;fill-opacity:1;stroke:#3e3c67;stroke-width:.264583;stroke-linecap:round;stroke-linejoin:round;stroke-miterlimit:4;stroke-dasharray:none;stroke-dashoffset:0;stroke-opacity:1;-inkscape-stroke:none;paint-order:markers fill stroke" d="M861.894 227.784a2.873 2.873 0 0 0-2.881 2.877v1.746a2.032 1.972 0 0 1 .472-.134v-1.076c0-1.594 1.097-2.326 2.46-2.326h.832c1.363 0 2.46.732 2.46 2.326v1.069a2.032 1.972 0 0 1 .512.141v-1.746a2.873 2.873 0 0 0-2.881-2.877zm-1.92 4.458a.8.8 0 0 0-.802.802v2.341a.8.8 0 0 0 .801.802.8.8 0 0 0 .802-.802v-2.341a.8.8 0 0 0-.802-.802zm4.973 0a.8.8 0 0 0-.8.802v2.341a.8.8 0 0 0 .8.802.8.8 0 0 0 .802-.802v-2.341a.8.8 0 0 0-.802-.802zm-3.053-4.458a2.873 2.873 0 0 0-2.881 2.877v1.746a2.032 1.972 0 0 1 .472-.134v-1.076c0-1.594 1.097-2.326 2.46-2.326h.832c1.363 0 2.46.732 2.46 2.326v1.069a2.032 1.972 0 0 1 .512.141v-1.746a2.873 2.873 0 0 0-2.881-2.877zm-1.92 4.458a.8.8 0 0 0-.802.802v2.341a.8.8 0 0 0 .801.802.8.8 0 0 0 .802-.802v-2.341a.8.8 0 0 0-.802-.802zm4.973 0a.8.8 0 0 0-.8.802v2.341a.8.8 0 0 0 .8.802.8.8 0 0 0 .802-.802v-2.341a.8.8 0 0 0-.802-.802z"/>
            <path id="path711-1-5" style="font-variation-settings:normal;vector-effect:none;fill:none;fill-opacity:1;stroke:#3e3c67;stroke-width:.264583;stroke-linecap:round;stroke-linejoin:round;stroke-miterlimit:4;stroke-dasharray:none;stroke-dashoffset:0;stroke-opacity:1;-inkscape-stroke:none;paint-order:markers fill stroke" d="M232.242 864.941h0c0 .001 0 0 0 0zm.007.107a.8.8 0 0 0 .795.701h2.342c.41 0 .746-.306.794-.703a2.04 2.04 0 0 1-.979 1.655 1.922 1.922 0 0 1-1.972 0 2.04 2.04 0 0 1-.98-1.653zm3.938-.107h0v.003-.003z" transform="matrix(0 1 1 0 0 0)"/>
            <path id="path712-7-1" style="font-variation-settings:normal;vector-effect:none;fill:none;fill-opacity:1;stroke:#3e3c67;stroke-width:.264583;stroke-linecap:round;stroke-linejoin:round;stroke-miterlimit:4;stroke-dasharray:none;stroke-dashoffset:0;stroke-opacity:1;-inkscape-stroke:none;paint-order:markers fill stroke" d="M232.242-859.82a1.972 2.032 0 0 0 .986 1.759 1.972 2.032 0 0 0 1.973 0 1.972 2.032 0 0 0 .986-1.76h-.015a.8.8 0 0 1-.787.65h-2.341a.8.8 0 0 1-.787-.65z" transform="rotate(90)"/>
        </g>
    </g>
    <style type="text/css" id="style1070">
        .st0{fill:#5f6368}.st1{fill:#4285f4}.st2{fill:#34a853}.st3{fill:#fbbc04}.st4{fill:#ea4335}
    </style>
</svg>
